<?xml version="1.0" encoding="utf-8"?>
<!-- Generator: Adobe Illustrator 21.1.0, SVG Export Plug-In . SVG Version: 6.00 Build 0)  -->
<svg version="1.2" baseProfile="tiny" xmlns="http://www.w3.org/2000/svg" xmlns:xlink="http://www.w3.org/1999/xlink" x="0px"
	 y="0px" viewBox="0 0 334 334" xml:space="preserve">
<g id="Layer_1">
	<g>
		<path fill="#909090" d="M0,273.92407v11.28003C13.34644,304.05713,29.78662,320.57104,48.57715,334h11.21191
			C35.83276,318.48145,15.40308,297.9624,0,273.92407z"/>
		<path fill="#909090" d="M167.70215,87.8457c-43.54492,0-78.97119,35.43359-78.97119,78.9873
			c0,43.55469,35.42627,78.98828,78.97119,78.98828c43.5542,0,78.98779-35.43359,78.98779-78.98828
			C246.68994,123.2793,211.25635,87.8457,167.70215,87.8457z M167.70215,239.49121c-40.06348,0-72.65771-32.59473-72.65771-72.6582
			s32.59424-72.65723,72.65771-72.65723s72.65723,32.59375,72.65723,72.65723S207.76562,239.49121,167.70215,239.49121z"/>
		<path fill="#909090" d="M167.71875,62.57422c-57.47949,0-104.24268,46.77051-104.24268,104.25879
			c0,57.48926,46.76318,104.25977,104.24268,104.25977c57.48877,0,104.25928-46.77051,104.25928-104.25977
			C271.97803,109.34473,225.20752,62.57422,167.71875,62.57422z M167.71875,264.7627
			c-53.99805,0-97.92871-43.93164-97.92871-97.92969S113.7207,68.9043,167.71875,68.9043s97.92871,43.93066,97.92871,97.92871
			S221.7168,264.7627,167.71875,264.7627z"/>
		<path fill="#909090" d="M167.71875,75.21875c-50.5166,0-91.61523,41.09766-91.61523,91.61426s41.09863,91.61523,91.61523,91.61523
			s91.61523-41.09863,91.61523-91.61523S218.23535,75.21875,167.71875,75.21875z M167.70215,252.13574
			c-47.02637,0-85.28467-38.2666-85.28467-85.30273c0-47.03516,38.2583-85.30176,85.28467-85.30176
			c47.03516,0,85.30127,38.2666,85.30127,85.30176C253.00342,213.86914,214.7373,252.13574,167.70215,252.13574z"/>
		<path fill="#909090" d="M167.73584,49.94727c-64.46045,0-116.90332,52.43457-116.90332,116.88574
			c0,64.45215,52.44287,116.88672,116.90332,116.88672c64.45166,0,116.88672-52.43457,116.88672-116.88672
			C284.62256,102.38184,232.1875,49.94727,167.73584,49.94727z M167.71875,277.40723
			c-60.96094,0-110.55615-49.60352-110.55615-110.57422c0-60.96973,49.59521-110.57324,110.55615-110.57324
			c60.97021,0,110.57275,49.60352,110.57275,110.57324C278.2915,227.80371,228.68896,277.40723,167.71875,277.40723z"/>
		<path fill="#909090" d="M167.70215,100.49023c-36.58252,0-66.34424,29.76074-66.34424,66.34277
			s29.76172,66.34375,66.34424,66.34375c36.58203,0,66.34375-29.76172,66.34375-66.34375S204.28418,100.49023,167.70215,100.49023z
			 M167.70166,226.86426c-33.10059,0-60.02979-26.92969-60.02979-60.03125c0-33.0918,26.9292-60.01367,60.02979-60.01367
			c33.0918,0,60.01367,26.92188,60.01367,60.01367C227.71533,199.93457,200.79346,226.86426,167.70166,226.86426z"/>
		<path fill="#909090" d="M167.68506,125.76172c-22.64746,0-41.07227,18.42383-41.07227,41.07129
			s18.4248,41.07227,41.07227,41.07227s41.07275-18.4248,41.07275-41.07227S190.33252,125.76172,167.68506,125.76172z
			 M167.68506,201.57617c-19.16602,0-34.75879-15.58594-34.75879-34.74316c0-19.15625,15.59277-34.74219,34.75879-34.74219
			c19.15674,0,34.7417,15.58594,34.7417,34.74219C202.42676,185.99023,186.8418,201.57617,167.68506,201.57617z"/>
		<path fill="#909090" d="M167.73584,37.30371c-71.42334,0-129.53076,58.10645-129.53076,129.5293
			c0,71.42383,58.10742,129.53027,129.53076,129.53027S297.2666,238.25684,297.2666,166.83301
			C297.2666,95.41016,239.15918,37.30371,167.73584,37.30371z M167.73584,290.03418
			c-67.94189,0-123.2168-55.26758-123.2168-123.20117c0-67.93262,55.2749-123.2002,123.2168-123.2002
			c67.93311,0,123.2002,55.26758,123.2002,123.2002C290.93604,234.7666,235.66895,290.03418,167.73584,290.03418z"/>
		<path fill="#909090" d="M167.70166,113.13379c-29.61914,0-53.71631,24.08887-53.71631,53.69922
			c0,29.62012,24.09717,53.7168,53.71631,53.7168c29.61035,0,53.7002-24.09668,53.7002-53.7168
			C221.40186,137.22266,197.31201,113.13379,167.70166,113.13379z M167.68506,214.21973
			c-26.12842,0-47.38574-21.25781-47.38574-47.38672c0-26.12793,21.25732-47.38574,47.38574-47.38574
			c26.12891,0,47.38623,21.25781,47.38623,47.38574C215.07129,192.96191,193.81396,214.21973,167.68506,214.21973z"/>
		<path fill="#909090" d="M334,326.45996v-9.26562c-5.33679,5.89697-10.98755,11.50293-16.91553,16.80566h9.33887
			C329.0072,331.5459,331.53174,329.03027,334,326.45996z"/>
		<path fill="#909090" d="M334,287.14722v-11.11719c-15.23657,23.12891-35.15723,42.9082-58.41016,57.96997h11.23608
			C304.96631,321.03564,320.90942,305.19092,334,287.14722z"/>
		<path fill="#909090" d="M334,264.08984V250.9126c-18.24316,35.93994-47.79736,65.20288-83.94678,83.0874h13.44873
			C292.63721,317.23486,316.99036,293.06641,334,264.08984z"/>
		<path fill="#909090" d="M334,307.60229v-9.97583C323.31372,311.18433,311.00354,323.40283,297.37305,334h10.07104
			C317.03027,325.97314,325.91528,317.13843,334,307.60229z"/>
		<path fill="#909090" d="M167.68506,138.40527c-15.68457,0-28.44531,12.75195-28.44531,28.42773
			s12.76074,28.42871,28.44531,28.42871c15.67529,0,28.42822-12.75293,28.42822-28.42871S183.36035,138.40527,167.68506,138.40527z
			 M167.66846,188.94824c-12.19434,0-22.11475-9.9209-22.11475-22.11523c0-12.19336,9.92041-22.11426,22.11475-22.11426
			c12.19385,0,22.11426,9.9209,22.11426,22.11426C189.78271,179.02734,179.8623,188.94824,167.66846,188.94824z"/>
		<path fill="#909090" d="M167.66797,24.67578c-78.39502,0-142.17432,63.77148-142.17432,142.15723
			c0,78.38672,63.7793,142.1582,142.17432,142.1582c78.38623,0,142.1582-63.77148,142.1582-142.1582
			C309.82617,88.44727,246.0542,24.67578,167.66797,24.67578z M167.73584,302.67773
			c-74.90479,0-135.84424-60.93945-135.84424-135.84473c0-74.9043,60.93945-135.84375,135.84424-135.84375
			s135.84424,60.93945,135.84424,135.84375C303.58008,241.73828,242.64062,302.67773,167.73584,302.67773z"/>
		<path fill="#909090" d="M334,235.84351v-18.72925C316.92456,273.49243,271.91931,317.85254,215.14844,334h19.46631
			C279.46313,315.97925,315.43701,280.41479,334,235.84351z"/>
		<path fill="#909090" d="M167.66797,12.03223c-85.35791,0-154.80176,69.44336-154.80176,154.80078
			c0,85.3584,69.44385,154.80176,154.80176,154.80176c85.3584,0,154.80225-69.44336,154.80225-154.80176
			C322.47021,81.47559,253.02637,12.03223,167.66797,12.03223z M167.66797,315.30566
			c-81.87646,0-148.48779-66.60449-148.48779-148.47266c0-81.86719,66.61133-148.47168,148.48779-148.47168
			c81.86768,0,148.47168,66.60449,148.47168,148.47168C316.13965,248.70117,249.53564,315.30566,167.66797,315.30566z"/>
		<path fill="#909090" d="M334,186.09277v-38.51953C324.95276,68.93994,261.22412,6.7146,181.91443,0h-28.49146
			C67.74536,7.25439,0.23877,79.302,0.23877,166.83301c0,89.12012,69.979,162.19287,157.86731,167.16699h19.12476
			C258.70361,329.38965,324.77539,266.26831,334,186.09277z M167.66797,327.94922
			c-88.83936,0-161.11523-72.27637-161.11523-161.11621c0-88.83887,72.27588-161.11523,161.11523-161.11523
			s161.11572,72.27637,161.11572,161.11523C328.78369,255.67285,256.50732,327.94922,167.66797,327.94922z"/>
		<path fill="#909090" d="M167.66846,151.0332c-8.71289,0-15.80127,7.08789-15.80127,15.7998
			c0,8.71289,7.08838,15.80078,15.80127,15.80078c8.7124,0,15.80078-7.08789,15.80078-15.80078
			C183.46924,158.12109,176.38086,151.0332,167.66846,151.0332z M167.66797,176.30469c-5.23096,0-9.48682-4.24902-9.48682-9.47168
			c0-5.22168,4.25586-9.4707,9.48682-9.4707c5.22217,0,9.4707,4.24902,9.4707,9.4707
			C177.13867,172.05566,172.89014,176.30469,167.66797,176.30469z"/>
		<path fill="#909090" d="M0,248.15942v13.53931C17.05835,291.73828,41.94482,316.77563,71.87598,334h13.44092
			C48.24854,315.66089,18.11401,285.35742,0,248.15942z"/>
		<path fill="#909090" d="M334,116.55176V97.823C315.54956,53.52246,279.89746,18.12256,235.42847,0H216.2688
			C272.50928,16.4104,317.03748,60.54639,334,116.55176z"/>
		<path fill="#909090" d="M0,295.80664v10.12134C8.45679,316.10815,17.82397,325.50391,27.96997,334h10.06055
			C23.79517,322.93262,11.00952,310.08911,0,295.80664z"/>
		<path fill="#909090" d="M17.95532,0H8.64526C5.68481,2.82349,2.80737,5.73218,0,8.70776v9.3606
			C5.64221,11.71411,11.63513,5.67944,17.95532,0z"/>
		<path fill="#909090" d="M0,315.59863v9.36011C2.91919,328.05273,5.91772,331.0708,9.00195,334h9.32861
			C11.87305,328.2229,5.75317,322.07788,0,315.59863z"/>
		<path fill="#909090" d="M59.2832,0H48.12048C29.52148,13.36914,13.23755,29.76318,0,48.4624v11.27979
			C15.29407,35.87402,35.54614,15.47876,59.2832,0z"/>
		<path fill="#909090" d="M119.0719,0H99.94153C54.35022,18.58008,18.02051,55.31763,0,101.19067v20.073
			C15.84082,63.02979,61.26904,16.86792,119.0719,0z"/>
		<path fill="#909090" d="M84.64771,0H71.31152C41.6333,17.21338,16.95044,42.11865,0,71.96777v13.53955
			C18.00488,48.53345,47.88599,18.37183,84.64771,0z"/>
		<path fill="#909090" d="M334,82.75391v-13.177C317.10095,40.78906,292.95044,16.75146,264.06641,0h-13.34399
			C286.56726,17.91357,315.86963,47.03662,334,82.75391z"/>
		<path fill="#909090" d="M167.66797,163.67676c-1.74951,0-3.17334,1.41602-3.17334,3.15625
			c0,1.74121,1.42383,3.15723,3.17334,3.15723c1.74072,0,3.15723-1.41602,3.15723-3.15723
			C170.8252,165.09277,169.40869,163.67676,167.66797,163.67676z"/>
		<path fill="#909090" d="M37.59631,0H27.57617C17.58215,8.40894,8.34692,17.69092,0,27.73877v10.12109
			C10.89819,23.72217,23.53394,10.99097,37.59631,0z"/>
		<path fill="#909090" d="M334,36.04028v-9.97583C326.02661,16.65967,317.27344,7.93848,307.83789,0h-10.03076
			C311.26611,10.51929,323.42676,22.62573,334,36.04028z"/>
		<path fill="#909090" d="M334,16.47241V7.20654C331.64441,4.75391,329.24097,2.34717,326.78003,0h-9.32031
			C323.25134,5.2041,328.77539,10.69971,334,16.47241z"/>
		<path fill="#909090" d="M334,57.63623V46.51904C321.02002,28.62817,305.23291,12.90283,287.28271,0H276.0957
			C299.13086,15.02002,318.87451,34.67627,334,57.63623z"/>
		<path fill="#909090" d="M0,212.40234v20.07349C18.12769,278.62256,54.78174,315.52734,100.75513,334h19.43701
			C61.85474,317.40527,15.94336,271.01343,0,212.40234z"/>
		<path fill="#6F6F6F" d="M167.66797,157.3623c-5.23096,0-9.48682,4.24902-9.48682,9.4707
			c0,5.22266,4.25586,9.47168,9.48682,9.47168c5.22217,0,9.4707-4.24902,9.4707-9.47168
			C177.13867,161.61133,172.89014,157.3623,167.66797,157.3623z M167.66797,169.99023c-1.74951,0-3.17334-1.41602-3.17334-3.15723
			c0-1.74023,1.42383-3.15625,3.17334-3.15625c1.74072,0,3.15723,1.41602,3.15723,3.15625
			C170.8252,168.57422,169.40869,169.99023,167.66797,169.99023z"/>
		<path fill="#6F6F6F" d="M167.66846,144.71875c-12.19434,0-22.11475,9.9209-22.11475,22.11426
			c0,12.19434,9.92041,22.11523,22.11475,22.11523c12.19385,0,22.11426-9.9209,22.11426-22.11523
			C189.78271,154.63965,179.8623,144.71875,167.66846,144.71875z M167.66846,182.63379
			c-8.71289,0-15.80127-7.08789-15.80127-15.80078c0-8.71191,7.08838-15.7998,15.80127-15.7998
			c8.7124,0,15.80078,7.08789,15.80078,15.7998C183.46924,175.5459,176.38086,182.63379,167.66846,182.63379z"/>
		<path fill="#6F6F6F" d="M167.68506,132.09082c-19.16602,0-34.75879,15.58594-34.75879,34.74219
			c0,19.15723,15.59277,34.74316,34.75879,34.74316c19.15674,0,34.7417-15.58594,34.7417-34.74316
			C202.42676,147.67676,186.8418,132.09082,167.68506,132.09082z M167.68506,195.26172
			c-15.68457,0-28.44531-12.75293-28.44531-28.42871s12.76074-28.42773,28.44531-28.42773
			c15.67529,0,28.42822,12.75195,28.42822,28.42773S183.36035,195.26172,167.68506,195.26172z"/>
		<path fill="#6F6F6F" d="M167.68506,119.44727c-26.12842,0-47.38574,21.25781-47.38574,47.38574
			c0,26.12891,21.25732,47.38672,47.38574,47.38672c26.12891,0,47.38623-21.25781,47.38623-47.38672
			C215.07129,140.70508,193.81396,119.44727,167.68506,119.44727z M167.68506,207.90527
			c-22.64746,0-41.07227-18.4248-41.07227-41.07227s18.4248-41.07129,41.07227-41.07129s41.07275,18.42383,41.07275,41.07129
			S190.33252,207.90527,167.68506,207.90527z"/>
		<path fill="#6F6F6F" d="M167.70166,106.81934c-33.10059,0-60.02979,26.92188-60.02979,60.01367
			c0,33.10156,26.9292,60.03125,60.02979,60.03125c33.0918,0,60.01367-26.92969,60.01367-60.03125
			C227.71533,133.74121,200.79346,106.81934,167.70166,106.81934z M167.70166,220.5498
			c-29.61914,0-53.71631-24.09668-53.71631-53.7168c0-29.61035,24.09717-53.69922,53.71631-53.69922
			c29.61035,0,53.7002,24.08887,53.7002,53.69922C221.40186,196.45312,197.31201,220.5498,167.70166,220.5498z"/>
		<path fill="#6F6F6F" d="M167.70215,94.17578c-40.06348,0-72.65771,32.59375-72.65771,72.65723s32.59424,72.6582,72.65771,72.6582
			s72.65723-32.59473,72.65723-72.6582S207.76562,94.17578,167.70215,94.17578z M167.70215,233.17676
			c-36.58252,0-66.34424-29.76172-66.34424-66.34375s29.76172-66.34277,66.34424-66.34277
			c36.58203,0,66.34375,29.76074,66.34375,66.34277S204.28418,233.17676,167.70215,233.17676z"/>
		<path fill="#6F6F6F" d="M167.70215,81.53125c-47.02637,0-85.28467,38.2666-85.28467,85.30176
			c0,47.03613,38.2583,85.30273,85.28467,85.30273c47.03516,0,85.30127-38.2666,85.30127-85.30273
			C253.00342,119.79785,214.7373,81.53125,167.70215,81.53125z M167.70215,245.82129
			c-43.54492,0-78.97119-35.43359-78.97119-78.98828c0-43.55371,35.42627-78.9873,78.97119-78.9873
			c43.5542,0,78.98779,35.43359,78.98779,78.9873C246.68994,210.3877,211.25635,245.82129,167.70215,245.82129z"/>
		<path fill="#6F6F6F" d="M167.71875,68.9043c-53.99805,0-97.92871,43.93066-97.92871,97.92871s43.93066,97.92969,97.92871,97.92969
			s97.92871-43.93164,97.92871-97.92969S221.7168,68.9043,167.71875,68.9043z M167.71875,258.44824
			c-50.5166,0-91.61523-41.09863-91.61523-91.61523s41.09863-91.61426,91.61523-91.61426s91.61523,41.09766,91.61523,91.61426
			S218.23535,258.44824,167.71875,258.44824z"/>
		<path fill="#6F6F6F" d="M167.71875,56.25977c-60.96094,0-110.55615,49.60352-110.55615,110.57324
			c0,60.9707,49.59521,110.57422,110.55615,110.57422c60.97021,0,110.57275-49.60352,110.57275-110.57422
			C278.2915,105.86328,228.68896,56.25977,167.71875,56.25977z M167.71875,271.09277
			c-57.47949,0-104.24268-46.77051-104.24268-104.25977c0-57.48828,46.76318-104.25879,104.24268-104.25879
			c57.48877,0,104.25928,46.77051,104.25928,104.25879C271.97803,224.32227,225.20752,271.09277,167.71875,271.09277z"/>
		<path fill="#6F6F6F" d="M167.73584,43.63281c-67.94189,0-123.2168,55.26758-123.2168,123.2002
			c0,67.93359,55.2749,123.20117,123.2168,123.20117c67.93311,0,123.2002-55.26758,123.2002-123.20117
			C290.93604,98.90039,235.66895,43.63281,167.73584,43.63281z M167.73584,283.71973
			c-64.46045,0-116.90332-52.43457-116.90332-116.88672c0-64.45117,52.44287-116.88574,116.90332-116.88574
			c64.45166,0,116.88672,52.43457,116.88672,116.88574C284.62256,231.28516,232.1875,283.71973,167.73584,283.71973z"/>
		<path fill="#6F6F6F" d="M167.73584,30.98926c-74.90479,0-135.84424,60.93945-135.84424,135.84375
			c0,74.90527,60.93945,135.84473,135.84424,135.84473s135.84424-60.93945,135.84424-135.84473
			C303.58008,91.92871,242.64062,30.98926,167.73584,30.98926z M167.73584,296.36328
			c-71.42334,0-129.53076-58.10645-129.53076-129.53027c0-71.42285,58.10742-129.5293,129.53076-129.5293
			S297.2666,95.41016,297.2666,166.83301C297.2666,238.25684,239.15918,296.36328,167.73584,296.36328z"/>
		<path fill="#6F6F6F" d="M167.66797,18.36133c-81.87646,0-148.48779,66.60449-148.48779,148.47168
			c0,81.86816,66.61133,148.47266,148.48779,148.47266c81.86768,0,148.47168-66.60449,148.47168-148.47266
			C316.13965,84.96582,249.53564,18.36133,167.66797,18.36133z M167.66797,308.99121
			c-78.39502,0-142.17432-63.77148-142.17432-142.1582c0-78.38574,63.7793-142.15723,142.17432-142.15723
			c78.38623,0,142.1582,63.77148,142.1582,142.15723C309.82617,245.21973,246.0542,308.99121,167.66797,308.99121z"/>
		<path fill="#6F6F6F" d="M167.66797,5.71777c-88.83936,0-161.11523,72.27637-161.11523,161.11523
			c0,88.83984,72.27588,161.11621,161.11523,161.11621s161.11572-72.27637,161.11572-161.11621
			C328.78369,77.99414,256.50732,5.71777,167.66797,5.71777z M167.66797,321.63477
			c-85.35791,0-154.80176-69.44336-154.80176-154.80176c0-85.35742,69.44385-154.80078,154.80176-154.80078
			c85.3584,0,154.80225,69.44336,154.80225,154.80078C322.47021,252.19141,253.02637,321.63477,167.66797,321.63477z"/>
		<path fill="#6F6F6F" d="M334,147.57324v-31.02148C317.03748,60.54639,272.50928,16.4104,216.2688,0h-34.35437
			C261.22412,6.7146,324.95276,68.93994,334,147.57324z"/>
		<path fill="#6F6F6F" d="M334,217.11426v-31.02148C324.77539,266.26831,258.70361,329.38965,177.23083,334h37.9176
			C271.91931,317.85254,316.92456,273.49243,334,217.11426z"/>
		<path fill="#6F6F6F" d="M0.23877,166.83301C0.23877,79.302,67.74536,7.25439,153.42297,0H119.0719
			C61.26904,16.86792,15.84082,63.02979,0,121.26367v91.13867C15.94336,271.01343,61.85474,317.40527,120.19214,334h37.91394
			C70.21777,329.02588,0.23877,255.95312,0.23877,166.83301z"/>
		<path fill="#6F6F6F" d="M99.94153,0H84.64771C47.88599,18.37183,18.00488,48.53345,0,85.50732v15.68335
			C18.02051,55.31763,54.35022,18.58008,99.94153,0z"/>
		<path fill="#6F6F6F" d="M334,97.823V82.75391C315.86963,47.03662,286.56726,17.91357,250.72241,0h-15.29395
			C279.89746,18.12256,315.54956,53.52246,334,97.823z"/>
		<path fill="#6F6F6F" d="M0,232.47583v15.68359C18.11401,285.35742,48.24854,315.66089,85.31689,334h15.43823
			C54.78174,315.52734,18.12769,278.62256,0,232.47583z"/>
		<path fill="#6F6F6F" d="M334,250.9126v-15.06909C315.43701,280.41479,279.46313,315.97925,234.61475,334h15.43848
			C286.20264,316.11548,315.75684,286.85254,334,250.9126z"/>
		<path fill="#6F6F6F" d="M334,276.03003v-11.94019C316.99036,293.06641,292.63721,317.23486,263.50195,334h12.08789
			C298.84277,318.93823,318.76343,299.15894,334,276.03003z"/>
		<path fill="#6F6F6F" d="M71.31152,0H59.2832C35.54614,15.47876,15.29407,35.87402,0,59.74219v12.22559
			C16.95044,42.11865,41.6333,17.21338,71.31152,0z"/>
		<path fill="#6F6F6F" d="M0,261.69873v12.22534C15.40308,297.9624,35.83276,318.48145,59.78906,334h12.08691
			C41.94482,316.77563,17.05835,291.73828,0,261.69873z"/>
		<path fill="#6F6F6F" d="M334,69.5769V57.63623C318.87451,34.67627,299.13086,15.02002,276.0957,0h-12.0293
			C292.95044,16.75146,317.10095,40.78906,334,69.5769z"/>
		<path fill="#6F6F6F" d="M334,46.51904V36.04028C323.42676,22.62573,311.26611,10.51929,297.80713,0h-10.52441
			C305.23291,12.90283,321.02002,28.62817,334,46.51904z"/>
		<path fill="#6F6F6F" d="M48.12048,0H37.59631C23.53394,10.99097,10.89819,23.72217,0,37.85986V48.4624
			C13.23755,29.76318,29.52148,13.36914,48.12048,0z"/>
		<path fill="#6F6F6F" d="M334,297.62646v-10.47925c-13.09058,18.0437-29.03369,33.88843-47.17407,46.85278h10.54712
			C311.00354,323.40283,323.31372,311.18433,334,297.62646z"/>
		<path fill="#6F6F6F" d="M0,285.2041v10.60254C11.00952,310.08911,23.79517,322.93262,38.03052,334h10.54663
			C29.78662,320.57104,13.34644,304.05713,0,285.2041z"/>
		<path fill="#6F6F6F" d="M334,317.19434v-9.59204c-8.08472,9.53613-16.96973,18.37085-26.55591,26.39771h9.64038
			C323.01245,328.69727,328.66321,323.09131,334,317.19434z"/>
		<path fill="#6F6F6F" d="M0,305.92798v9.67065C5.75317,322.07788,11.87305,328.2229,18.33057,334h9.6394
			C17.82397,325.50391,8.45679,316.10815,0,305.92798z"/>
		<path fill="#6F6F6F" d="M27.57617,0h-9.62085C11.63513,5.67944,5.64221,11.71411,0,18.06836v9.67041
			C8.34692,17.69092,17.58215,8.40894,27.57617,0z"/>
		<path fill="#6F6F6F" d="M334,26.06445v-9.59204C328.77539,10.69971,323.25134,5.2041,317.45972,0h-9.62183
			C317.27344,7.93848,326.02661,16.65967,334,26.06445z"/>
		<path fill="#6F6F6F" d="M334,326.45996c-2.46826,2.57031-4.9928,5.08594-7.57666,7.54004H334V326.45996z"/>
		<path fill="#6F6F6F" d="M334,7.20654V0h-7.21997C329.24097,2.34717,331.64441,4.75391,334,7.20654z"/>
		<path fill="#6F6F6F" d="M0,324.95874V334h9.00195C5.91772,331.0708,2.91919,328.05273,0,324.95874z"/>
		<path fill="#6F6F6F" d="M8.64526,0H0v8.70776C2.80737,5.73218,5.68481,2.82349,8.64526,0z"/>
	</g>
</g>
<g id="Layer_3" display="none">
</g>
<g id="Layer_2" display="none">
</g>
</svg>
