<?xml version="1.0" encoding="utf-8"?>
<!-- Generator: Adobe Illustrator 21.1.0, SVG Export Plug-In . SVG Version: 6.00 Build 0)  -->
<svg version="1.2" baseProfile="tiny" xmlns="http://www.w3.org/2000/svg" xmlns:xlink="http://www.w3.org/1999/xlink" x="0px"
	 y="0px" viewBox="0 0 334 334" xml:space="preserve">
<g id="Layer_1">
	<g>
		<path fill="#828282" d="M166.33203,174.95898c4.84863,0,8.79395-3.94531,8.79395-8.79443s-3.94531-8.79395-8.79395-8.79395
			c-4.83984,0-8.77734,3.94482-8.77734,8.79395S161.49219,174.95898,166.33203,174.95898z"/>
		<path fill="#828282" d="M0,280.979v28.67236C7.55542,318.39819,15.79492,326.5354,24.62134,334h29.09131
			C32.6709,319.83716,14.43359,301.82117,0,280.979z"/>
		<path fill="#828282" d="M334,243.32715V89.00195C316.07422,50.20605,285.07715,18.64111,246.68359,0h-63.39404
			c84.16113,8.52484,150.06299,79.79285,150.06299,166.16455c0,92.09521-74.9248,167.02002-167.02051,167.02002
			c-87.01416,0-158.68726-66.88953-166.33203-151.948v64.97375C18.68066,284.8645,50.45312,316.05225,89.52075,334h153.61572
			C283.16553,315.60889,315.52563,283.3103,334,243.32715z"/>
		<path fill="#828282" d="M334,308.04785v-29.0188c-14.63623,21.6731-33.36157,40.36646-55.05762,54.97095h29.07812
			C317.38208,326.08337,326.07373,317.40112,334,308.04785z"/>
		<polygon fill="#828282" points="334,333.99268 333.99243,334 334,334 		"/>
		<path fill="#828282" d="M334,53.30042V24.28174C326.6311,15.58624,318.6106,7.45978,309.99512,0h-28.62744
			C302.03271,14.35028,319.91333,32.44122,334,53.30042z"/>
		<path fill="#828282" d="M166.33203,315.59668c82.39746,0,149.43262-67.03516,149.43262-149.43213
			S248.72949,16.73242,166.33203,16.73242c-82.39648,0-149.43164,67.03516-149.43164,149.43213
			S83.93555,315.59668,166.33203,315.59668z M166.33203,34.3042c72.70801,0,131.86035,59.15234,131.86035,131.86035
			c0,72.7085-59.15234,131.86084-131.86035,131.86084S34.47168,238.87305,34.47168,166.16455
			C34.47168,93.45654,93.62402,34.3042,166.33203,34.3042z"/>
		<path fill="#828282" d="M149.37476,0H85.97339C48.53027,18.17798,18.1123,48.64062,0,86.11884v64.97369
			C7.14209,71.62891,70.16504,8.02338,149.37476,0z"/>
		<path fill="#828282" d="M51.28711,0H22.64673C14.56104,7.00159,6.99194,14.5838,0,22.67816V51.3504
			C13.87476,31.31537,31.26953,13.89941,51.28711,0z"/>
		<path fill="#828282" d="M166.33203,280.4375c63.00977,0,114.27246-51.2627,114.27246-114.27295
			c0-63.00977-51.2627-114.27246-114.27246-114.27246S52.05957,103.15479,52.05957,166.16455
			C52.05957,229.1748,103.32227,280.4375,166.33203,280.4375z M166.33203,69.46387c53.32129,0,96.70117,43.37988,96.70117,96.70068
			c0,53.32129-43.37988,96.70117-96.70117,96.70117s-96.70117-43.37988-96.70117-96.70117
			C69.63086,112.84375,113.01074,69.46387,166.33203,69.46387z"/>
		<path fill="#828282" d="M166.33203,245.27783c43.62305,0,79.11328-35.49023,79.11328-79.11328
			s-35.49023-79.11279-79.11328-79.11279s-79.11328,35.48975-79.11328,79.11279S122.70898,245.27783,166.33203,245.27783z
			 M166.33203,104.62305c33.93457,0,61.54199,27.60742,61.54199,61.5415s-27.60742,61.5415-61.54199,61.5415
			c-33.9248,0-61.52441-27.60742-61.52441-61.5415S132.40723,104.62305,166.33203,104.62305z"/>
		<path fill="#828282" d="M166.33203,210.11816c24.23633,0,43.9541-19.71777,43.9541-43.95361s-19.71777-43.95361-43.9541-43.95361
			c-24.22656,0-43.93652,19.71777-43.93652,43.95361S142.10547,210.11816,166.33203,210.11816z M166.33203,139.78271
			c14.54688,0,26.38184,11.83496,26.38184,26.38184c0,14.54736-11.83496,26.38232-26.38184,26.38232
			c-14.53809,0-26.36523-11.83496-26.36523-26.38232C139.9668,151.61768,151.79395,139.78271,166.33203,139.78271z"/>
		<path fill="#7D7D7D" d="M166.33203,192.54688c14.54688,0,26.38184-11.83496,26.38184-26.38232
			c0-14.54688-11.83496-26.38184-26.38184-26.38184c-14.53809,0-26.36523,11.83496-26.36523,26.38184
			C139.9668,180.71191,151.79395,192.54688,166.33203,192.54688z M166.33203,157.37061c4.84863,0,8.79395,3.94482,8.79395,8.79395
			s-3.94531,8.79443-8.79395,8.79443c-4.83984,0-8.77734-3.94531-8.77734-8.79443S161.49219,157.37061,166.33203,157.37061z"/>
		<path fill="#7D7D7D" d="M166.33203,227.70605c33.93457,0,61.54199-27.60742,61.54199-61.5415s-27.60742-61.5415-61.54199-61.5415
			c-33.9248,0-61.52441,27.60742-61.52441,61.5415S132.40723,227.70605,166.33203,227.70605z M166.33203,122.21094
			c24.23633,0,43.9541,19.71777,43.9541,43.95361s-19.71777,43.95361-43.9541,43.95361
			c-24.22656,0-43.93652-19.71777-43.93652-43.95361S142.10547,122.21094,166.33203,122.21094z"/>
		<path fill="#7D7D7D" d="M166.33203,262.86572c53.32129,0,96.70117-43.37988,96.70117-96.70117
			c0-53.3208-43.37988-96.70068-96.70117-96.70068s-96.70117,43.37988-96.70117,96.70068
			C69.63086,219.48584,113.01074,262.86572,166.33203,262.86572z M166.33203,87.05176
			c43.62305,0,79.11328,35.48975,79.11328,79.11279s-35.49023,79.11328-79.11328,79.11328s-79.11328-35.49023-79.11328-79.11328
			S122.70898,87.05176,166.33203,87.05176z"/>
		<path fill="#7D7D7D" d="M166.33203,298.02539c72.70801,0,131.86035-59.15234,131.86035-131.86084
			c0-72.70801-59.15234-131.86035-131.86035-131.86035S34.47168,93.45654,34.47168,166.16455
			C34.47168,238.87305,93.62402,298.02539,166.33203,298.02539z M166.33203,51.89209
			c63.00977,0,114.27246,51.2627,114.27246,114.27246c0,63.01025-51.2627,114.27295-114.27246,114.27295
			S52.05957,229.1748,52.05957,166.16455C52.05957,103.15479,103.32227,51.89209,166.33203,51.89209z"/>
		<path fill="#7D7D7D" d="M166.33203,333.18457c92.0957,0,167.02051-74.9248,167.02051-167.02002
			c0-86.3717-65.90186-157.63971-150.06299-166.16455h-33.91479C70.16504,8.02338,7.14209,71.62891,0,151.09253v30.14404
			C7.64478,266.29504,79.31787,333.18457,166.33203,333.18457z M166.33203,16.73242
			c82.39746,0,149.43262,67.03516,149.43262,149.43213s-67.03516,149.43213-149.43262,149.43213
			c-82.39648,0-149.43164-67.03516-149.43164-149.43213S83.93555,16.73242,166.33203,16.73242z"/>
		<path fill="#7D7D7D" d="M334,279.02905v-35.7019C315.52563,283.3103,283.16553,315.60889,243.13647,334h35.80591
			C300.63843,319.39551,319.36377,300.70215,334,279.02905z"/>
		<path fill="#7D7D7D" d="M85.97339,0H51.28711C31.26953,13.89941,13.87476,31.31537,0,51.3504v34.76843
			C18.1123,48.64062,48.53027,18.17798,85.97339,0z"/>
		<path fill="#7D7D7D" d="M0,246.21033V280.979C14.43359,301.82117,32.6709,319.83716,53.71265,334h35.80811
			C50.45312,316.05225,18.68066,284.8645,0,246.21033z"/>
		<path fill="#7D7D7D" d="M334,89.00195V53.30042C319.91333,32.44122,302.03271,14.35028,281.36768,0h-34.68408
			C285.07715,18.64111,316.07422,50.20605,334,89.00195z"/>
		<path fill="#7D7D7D" d="M334,308.04785c-7.92627,9.35327-16.61792,18.03552-25.97949,25.95215h25.97192
			c0.00244-0.00244,0.00513-0.00488,0.00757-0.00732V308.04785z"/>
		<path fill="#7D7D7D" d="M0,309.65137V334h24.62134C15.79492,326.5354,7.55542,318.39819,0,309.65137z"/>
		<path fill="#7D7D7D" d="M334,24.28174V0h-24.00488C318.6106,7.45978,326.6311,15.58624,334,24.28174z"/>
		<path fill="#7D7D7D" d="M22.64673,0H0v22.67816C6.99194,14.5838,14.56104,7.00159,22.64673,0z"/>
	</g>
</g>
<g id="Layer_3" display="none">
</g>
<g id="Layer_2" display="none">
</g>
</svg>
