<?xml version="1.0" encoding="utf-8"?>
<!-- Generator: Adobe Illustrator 21.1.0, SVG Export Plug-In . SVG Version: 6.00 Build 0)  -->
<svg version="1.2" baseProfile="tiny" xmlns="http://www.w3.org/2000/svg" xmlns:xlink="http://www.w3.org/1999/xlink" x="0px"
	 y="0px" viewBox="0 0 334 334" xml:space="preserve">
<g id="Layer_1">
	<g>
		<path fill="#838383" d="M0,212.78027v16.16064C17.67676,277.02905,55.48682,315.46606,103.15698,334h15.10815
			C60.79419,316.91699,15.69263,270.83032,0,212.78027z"/>
		<path fill="#838383" d="M334,292.12451v-8.33862C320.30298,303.31714,303.25879,320.33301,283.70483,334h8.36401
			C307.95215,322.104,322.08154,307.98999,334,292.12451z"/>
		<path fill="#838383" d="M167.66797,155.2666c-6.7373,0-12.21777,5.48828-12.21777,12.23438
			c0,6.74707,5.48047,12.23535,12.21777,12.23535c6.74707,0,12.23535-5.48828,12.23535-12.23535
			C179.90332,160.75488,174.41504,155.2666,167.66797,155.2666z M167.66797,174.84277c-4.04785,0-7.34082-3.29395-7.34082-7.3418
			s3.29297-7.34082,7.34082-7.34082s7.3418,3.29297,7.3418,7.34082S171.71582,174.84277,167.66797,174.84277z"/>
		<circle fill="#838383" cx="167.66821" cy="167.50122" r="2.44678"/>
		<path fill="#838383" d="M334,322.52734v-7.26172c-5.87793,6.60864-12.1416,12.8645-18.75757,18.73438h7.27124
			C326.47681,330.31226,330.30762,326.48584,334,322.52734z"/>
		<path fill="#838383" d="M167.68457,145.49609c-12.14258,0-22.02148,9.87109-22.02148,22.00488s9.87891,22.00586,22.02148,22.00586
			c12.13379,0,22.00586-9.87207,22.00586-22.00586S179.81836,145.49609,167.68457,145.49609z M167.66797,184.63086
			c-9.43555,0-17.1123-7.68457-17.1123-17.12988c0-9.44434,7.67676-17.12891,17.1123-17.12891
			c9.44531,0,17.12988,7.68457,17.12988,17.12891C184.79785,176.94629,177.11328,184.63086,167.66797,184.63086z"/>
		<path fill="#838383" d="M0,281.83057v8.43311C12.20166,306.88525,26.80103,321.64233,43.30054,334h8.35522
			C31.4502,319.87891,13.92236,302.18286,0,281.83057z"/>
		<path fill="#838383" d="M334,329.61475c-1.44385,1.48096-2.90698,2.94287-4.38965,4.38525H334V329.61475z"/>
		<path fill="#838383" d="M334,307.79858v-7.7019C323.98926,312.62744,312.59717,324.0061,300.05249,334h7.71265
			C317.23218,326.02246,326.01025,317.25513,334,307.79858z"/>
		<path fill="#838383" d="M0,241.91943v11.31104C17.65283,287.62231,45.58472,315.89771,79.70435,334h10.97998
			C50.44946,315.32178,18.0752,282.48462,0,241.91943z"/>
		<path fill="#838383" d="M0,263.47266v9.44629C15.45068,297.4043,36.10742,318.28906,60.41211,334h9.28467
			C40.81226,316.93555,16.72339,292.58081,0,263.47266z"/>
		<path fill="#838383" d="M167.71777,57.43848c-60.69824,0-110.0791,49.37402-110.0791,110.0625
			c0,60.68945,49.38086,110.06348,110.0791,110.06348c60.68945,0,110.06348-49.37402,110.06348-110.06348
			C277.78125,106.8125,228.40723,57.43848,167.71777,57.43848z M167.70117,272.68848
			c-57.99121,0-105.16992-47.1875-105.16992-105.1875c0-57.99902,47.17871-105.18555,105.16992-105.18555
			c58,0,105.18652,47.18652,105.18652,105.18555C272.8877,225.50098,225.70117,272.68848,167.70117,272.68848z"/>
		<path fill="#838383" d="M167.73438,18.30371c-82.27734,0-149.21484,66.92969-149.21484,149.19727
			c0,82.26855,66.9375,149.19824,149.21484,149.19824c82.26855,0,149.19824-66.92969,149.19824-149.19824
			C316.93262,85.2334,250.00293,18.30371,167.73438,18.30371z M167.71777,311.82324
			c-79.56934,0-144.30371-64.74316-144.30371-144.32227S88.14844,23.17969,167.71777,23.17969
			c79.5791,0,144.32129,64.74219,144.32129,144.32129S247.29688,311.82324,167.71777,311.82324z"/>
		<path fill="#838383" d="M167.71777,47.65039c-66.08594,0-119.85059,53.76465-119.85059,119.85059
			c0,66.08691,53.76465,119.85156,119.85059,119.85156c66.08691,0,119.85156-53.76465,119.85156-119.85156
			C287.56934,101.41504,233.80469,47.65039,167.71777,47.65039z M167.71777,282.45898
			c-63.39648,0-114.97363-51.57031-114.97363-114.95801S104.32129,52.54395,167.71777,52.54395
			c63.3877,0,114.95801,51.56934,114.95801,114.95703S231.10547,282.45898,167.71777,282.45898z"/>
		<path fill="#838383" d="M167.73438,8.51562c-87.67383,0-159.00195,71.32031-159.00195,158.98535
			S80.06055,326.4873,167.73438,326.4873c87.66504,0,158.98633-71.32129,158.98633-158.98633S255.39941,8.51562,167.73438,8.51562z
			 M167.73438,321.59375c-84.97559,0-154.10938-69.12598-154.10938-154.09277s69.13379-154.0918,154.10938-154.0918
			c84.9668,0,154.09277,69.125,154.09277,154.0918S252.70117,321.59375,167.73438,321.59375z"/>
		<path fill="#838383" d="M167.71777,37.8623c-71.4834,0-129.63867,58.15527-129.63867,129.63867
			s58.15527,129.63965,129.63867,129.63965s129.63965-58.15625,129.63965-129.63965S239.20117,37.8623,167.71777,37.8623z
			 M167.71777,292.24707c-68.78418,0-124.74512-55.96094-124.74512-124.74609c0-68.78418,55.96094-124.74512,124.74512-124.74512
			c68.78516,0,124.74609,55.96094,124.74609,124.74512C292.46387,236.28613,236.50293,292.24707,167.71777,292.24707z"/>
		<path fill="#838383" d="M167.71777,28.07422c-76.87109,0-139.40918,62.54688-139.40918,139.42676
			c0,76.88086,62.53809,139.42773,139.40918,139.42773c76.87988,0,139.42676-62.54688,139.42676-139.42773
			C307.14453,90.62109,244.59766,28.07422,167.71777,28.07422z M167.71777,302.03516
			c-74.18164,0-134.5332-60.35156-134.5332-134.53418c0-74.18164,60.35156-134.5332,134.5332-134.5332
			c74.18262,0,134.53418,60.35156,134.53418,134.5332C302.25195,241.68359,241.90039,302.03516,167.71777,302.03516z"/>
		<path fill="#838383" d="M334,232.45093v-14.98706C317.19556,273.30249,272.98755,317.37891,217.0708,334h15.10864
			C278.68359,315.91943,315.80078,278.89624,334,232.45093z"/>
		<path fill="#838383" d="M334,275.04346v-9.28027C317.34009,293.85645,293.77197,317.38623,265.64819,334h9.30029
			C298.5459,318.74512,318.70654,298.61377,334,275.04346z"/>
		<path fill="#838383" d="M334,196.14355V138.8584C321.50537,66.0813,262.2561,9.08228,188.38379,0h-41.43164
			C69.93359,9.46924,8.8125,71.02466,0,148.2417v38.51855C8.54663,261.64868,66.2959,321.80151,140.03052,334h55.2749
			C265.93408,322.31543,321.89844,266.63257,334,196.14355z M167.73438,331.38184
			c-90.37305,0-163.89648-73.5166-163.89648-163.88086c0-90.36328,73.52344-163.87988,163.89648-163.87988
			c90.36426,0,163.88086,73.5166,163.88086,163.87988C331.61523,257.86523,258.09863,331.38184,167.73438,331.38184z"/>
		<path fill="#838383" d="M167.68457,106.34473c-33.71289,0-61.14062,27.43457-61.14062,61.15625
			c0,33.72266,27.42773,61.1582,61.14062,61.1582c33.72266,0,61.15723-27.43555,61.15723-61.1582
			C228.8418,133.7793,201.40723,106.34473,167.68457,106.34473z M167.68457,223.76562
			c-31.02344,0-56.26367-25.24023-56.26367-56.26465c0-31.02344,25.24023-56.26367,56.26367-56.26367
			c31.02441,0,56.26465,25.24023,56.26465,56.26367C223.94922,198.52539,198.70898,223.76562,167.68457,223.76562z"/>
		<path fill="#838383" d="M167.70117,96.57324c-39.11914,0-70.94434,31.81836-70.94434,70.92773
			c0,39.11035,31.8252,70.92871,70.94434,70.92871c39.11035,0,70.92871-31.81836,70.92871-70.92871
			C238.62988,128.3916,206.81152,96.57324,167.70117,96.57324z M167.68457,233.55371
			c-36.41211,0-66.03516-29.63086-66.03516-66.05273c0-36.41992,29.62305-66.05078,66.03516-66.05078
			c36.4209,0,66.05176,29.63086,66.05176,66.05078C233.73633,203.92285,204.10547,233.55371,167.68457,233.55371z"/>
		<path fill="#838383" d="M167.68457,135.70801c-17.53125,0-31.79297,14.26172-31.79297,31.79297
			s14.26172,31.79395,31.79297,31.79395s31.79395-14.2627,31.79395-31.79395S185.21582,135.70801,167.68457,135.70801z
			 M167.68457,194.40137c-14.8418,0-26.91602-12.06738-26.91602-26.90039c0-14.83203,12.07422-26.89941,26.91602-26.89941
			c14.83301,0,26.90039,12.06738,26.90039,26.89941C194.58496,182.33398,182.51758,194.40137,167.68457,194.40137z"/>
		<path fill="#838383" d="M167.68457,116.13184c-28.3252,0-51.36914,23.04395-51.36914,51.36914
			c0,28.32617,23.04395,51.37012,51.36914,51.37012c28.32617,0,51.37012-23.04395,51.37012-51.37012
			C219.05469,139.17578,196.01074,116.13184,167.68457,116.13184z M167.68457,213.97754
			c-25.62695,0-46.47559-20.84961-46.47559-46.47656s20.84863-46.47559,46.47559-46.47559s46.47656,20.84863,46.47656,46.47559
			S193.31152,213.97754,167.68457,213.97754z"/>
		<path fill="#838383" d="M167.68457,125.91992c-22.92773,0-41.58105,18.65332-41.58105,41.58105
			c0,22.92871,18.65332,41.58203,41.58105,41.58203c22.92871,0,41.58203-18.65332,41.58203-41.58203
			C209.2666,144.57324,190.61328,125.91992,167.68457,125.91992z M167.68457,204.18945
			c-20.22949,0-36.6875-16.45898-36.6875-36.68848s16.45801-36.6875,36.6875-36.6875s36.68848,16.45801,36.68848,36.6875
			S187.91406,204.18945,167.68457,204.18945z"/>
		<path fill="#838383" d="M334,255.78882V244.8418c-18.30908,39.21826-50.08447,70.93115-89.34814,89.1582h10.98779
			C288.91064,316.34961,316.28857,289.02246,334,255.78882z"/>
		<path fill="#838383" d="M167.70117,86.78516c-44.50684,0-80.71582,36.20898-80.71582,80.71582
			c0,44.50781,36.20898,80.7168,80.71582,80.7168c44.50781,0,80.7168-36.20898,80.7168-80.7168
			C248.41797,122.99414,212.20898,86.78516,167.70117,86.78516z M167.70117,243.32422
			c-41.81738,0-75.83887-34.01465-75.83887-75.82324s34.02148-75.82227,75.83887-75.82227
			c41.80859,0,75.82324,34.01367,75.82324,75.82227S209.50977,243.32422,167.70117,243.32422z"/>
		<path fill="#838383" d="M167.70117,67.20996c-55.29199,0-100.27539,44.99023-100.27539,100.29102
			c0,55.30176,44.9834,100.29297,100.27539,100.29297c55.30176,0,100.29199-44.99121,100.29199-100.29297
			C267.99316,112.2002,223.00293,67.20996,167.70117,67.20996z M167.70117,262.90039
			c-52.60254,0-95.39844-42.7959-95.39844-95.39941c0-52.60254,42.7959-95.39844,95.39844-95.39844
			c52.60352,0,95.39941,42.7959,95.39941,95.39844C263.10059,220.10449,220.30469,262.90039,167.70117,262.90039z"/>
		<path fill="#838383" d="M167.70117,76.99707c-49.9043,0-90.50391,40.59961-90.50391,90.50391s40.59961,90.50488,90.50391,90.50488
			s90.50488-40.60059,90.50488-90.50488S217.60547,76.99707,167.70117,76.99707z M167.70117,253.1123
			c-47.20508,0-85.61035-38.40527-85.61035-85.61133c0-47.20508,38.40527-85.61035,85.61035-85.61035
			c47.20605,0,85.61133,38.40527,85.61133,85.61035C253.3125,214.70703,214.90723,253.1123,167.70117,253.1123z"/>
		<path fill="#838383" d="M334,19.73657v-7.26123C329.97314,8.1582,325.78467,3.99414,321.43677,0h-7.32373
			C321.14746,6.15723,327.7876,12.75195,334,19.73657z"/>
		<path fill="#838383" d="M334,117.53809v-14.98657C315.4585,55.23267,277.28174,17.69092,229.54614,0h-15.98315
			C271.13477,15.79248,316.8457,60.53711,334,117.53809z"/>
		<path fill="#838383" d="M21.25684,0h-7.3125C9.09888,4.45166,4.44531,9.1084,0,13.95996v7.32031
			C6.60107,13.71973,13.70483,6.61035,21.25684,0z"/>
		<path fill="#838383" d="M6.79761,0H0v6.80273C2.21851,4.48828,4.48584,2.22144,6.79761,0z"/>
		<path fill="#838383" d="M334,5.3877V0h-5.41626C330.42017,1.76465,332.22217,3.56421,334,5.3877z"/>
		<path fill="#838383" d="M334,90.16016V79.21338C315.95215,45.34863,287.87109,17.60913,253.7417,0h-11.27417
			C282.73779,18.05371,315.35205,50.21655,334,90.16016z"/>
		<path fill="#838383" d="M334,69.23901v-9.28027C318.36792,35.8667,297.64868,15.37109,273.37402,0h-9.41992
			C292.82837,16.6626,317.00537,40.5813,334,69.23901z"/>
		<path fill="#838383" d="M334,34.90552V27.2041C325.67627,17.35229,316.50195,8.24219,306.57935,0h-7.78003
			C311.84155,10.23145,323.65527,21.95679,334,34.90552z"/>
		<path fill="#838383" d="M334,51.2168v-8.33911C321.7417,26.56006,307.13696,12.10474,290.69873,0h-8.43945
			C302.41943,13.8335,319.96631,31.20557,334,51.2168z"/>
		<path fill="#838383" d="M121.77295,0h-15.98267C56.88013,18.12622,18.00098,57.09131,0,106.06177v16.15991
			C16.0105,62.99585,62.63379,16.22266,121.77295,0z"/>
		<path fill="#838383" d="M71.39062,0h-9.40381C37.00024,15.8208,15.78296,37.07178,0,62.08325v9.44629
			C17.05054,41.85205,41.75073,17.10596,71.39062,0z"/>
		<path fill="#838383" d="M53.10156,0H44.6709C27.6123,12.56152,12.53662,27.66064,0,44.73877v8.43335
			C14.25366,32.33569,32.28516,14.28223,53.10156,0z"/>
		<path fill="#838383" d="M36.57031,0h-7.77979C18.32397,8.69409,8.68066,18.34595,0,28.82397v7.802
			C10.66504,22.99146,22.95117,10.68408,36.57031,0z"/>
		<path fill="#838383" d="M92.86841,0H81.60205C46.61841,18.05176,17.97998,46.74292,0,81.77148v11.31104
			C18.40137,51.7854,51.62036,18.49219,92.86841,0z"/>
		<path fill="#838383" d="M0,313.72217v7.3208C4.11401,325.53271,8.40967,329.85181,12.86743,334h7.26001
			C12.99707,327.67358,6.27002,320.90332,0,313.72217z"/>
		<path fill="#838383" d="M0,298.37646v7.80225C8.35034,316.2583,17.59717,325.56665,27.60498,334h7.71191
			C22.19897,323.54932,10.33545,311.58936,0,298.37646z"/>
		<path fill="#838383" d="M0,328.19971V334h5.771C3.81592,332.0979,1.8877,330.16895,0,328.19971z"/>
		<path fill="#7C7C7C" d="M167.66797,160.16016c-4.04785,0-7.34082,3.29297-7.34082,7.34082s3.29297,7.3418,7.34082,7.3418
			s7.3418-3.29395,7.3418-7.3418S171.71582,160.16016,167.66797,160.16016z M167.66797,169.94824
			c-1.34863,0-2.44629-1.09766-2.44629-2.44727c0-1.34863,1.09766-2.44629,2.44629-2.44629
			c1.34961,0,2.44727,1.09766,2.44727,2.44629C170.11523,168.85059,169.01758,169.94824,167.66797,169.94824z"/>
		<path fill="#7C7C7C" d="M167.66797,150.37207c-9.43555,0-17.1123,7.68457-17.1123,17.12891
			c0,9.44531,7.67676,17.12988,17.1123,17.12988c9.44531,0,17.12988-7.68457,17.12988-17.12988
			C184.79785,158.05664,177.11328,150.37207,167.66797,150.37207z M167.66797,179.73633
			c-6.7373,0-12.21777-5.48828-12.21777-12.23535c0-6.74609,5.48047-12.23438,12.21777-12.23438
			c6.74707,0,12.23535,5.48828,12.23535,12.23438C179.90332,174.24805,174.41504,179.73633,167.66797,179.73633z"/>
		<path fill="#7C7C7C" d="M167.68457,140.60156c-14.8418,0-26.91602,12.06738-26.91602,26.89941
			c0,14.83301,12.07422,26.90039,26.91602,26.90039c14.83301,0,26.90039-12.06738,26.90039-26.90039
			C194.58496,152.66895,182.51758,140.60156,167.68457,140.60156z M167.68457,189.50684
			c-12.14258,0-22.02148-9.87207-22.02148-22.00586s9.87891-22.00488,22.02148-22.00488
			c12.13379,0,22.00586,9.87109,22.00586,22.00488S179.81836,189.50684,167.68457,189.50684z"/>
		<path fill="#7C7C7C" d="M167.68457,130.81348c-20.22949,0-36.6875,16.45801-36.6875,36.6875s16.45801,36.68848,36.6875,36.68848
			s36.68848-16.45898,36.68848-36.68848S187.91406,130.81348,167.68457,130.81348z M167.68457,199.29492
			c-17.53125,0-31.79297-14.2627-31.79297-31.79395s14.26172-31.79297,31.79297-31.79297s31.79395,14.26172,31.79395,31.79297
			S185.21582,199.29492,167.68457,199.29492z"/>
		<path fill="#7C7C7C" d="M167.68457,121.02539c-25.62695,0-46.47559,20.84863-46.47559,46.47559
			s20.84863,46.47656,46.47559,46.47656s46.47656-20.84961,46.47656-46.47656S193.31152,121.02539,167.68457,121.02539z
			 M167.68457,209.08301c-22.92773,0-41.58105-18.65332-41.58105-41.58203c0-22.92773,18.65332-41.58105,41.58105-41.58105
			c22.92871,0,41.58203,18.65332,41.58203,41.58105C209.2666,190.42969,190.61328,209.08301,167.68457,209.08301z"/>
		<path fill="#7C7C7C" d="M167.68457,111.2373c-31.02344,0-56.26367,25.24023-56.26367,56.26367
			c0,31.02441,25.24023,56.26465,56.26367,56.26465c31.02441,0,56.26465-25.24023,56.26465-56.26465
			C223.94922,136.47754,198.70898,111.2373,167.68457,111.2373z M167.68457,218.87109
			c-28.3252,0-51.36914-23.04395-51.36914-51.37012c0-28.3252,23.04395-51.36914,51.36914-51.36914
			c28.32617,0,51.37012,23.04395,51.37012,51.36914C219.05469,195.82715,196.01074,218.87109,167.68457,218.87109z"/>
		<path fill="#7C7C7C" d="M167.68457,101.4502c-36.41211,0-66.03516,29.63086-66.03516,66.05078
			c0,36.42188,29.62305,66.05273,66.03516,66.05273c36.4209,0,66.05176-29.63086,66.05176-66.05273
			C233.73633,131.08105,204.10547,101.4502,167.68457,101.4502z M167.68457,228.65918
			c-33.71289,0-61.14062-27.43555-61.14062-61.1582c0-33.72168,27.42773-61.15625,61.14062-61.15625
			c33.72266,0,61.15723,27.43457,61.15723,61.15625C228.8418,201.22363,201.40723,228.65918,167.68457,228.65918z"/>
		<path fill="#7C7C7C" d="M167.70117,91.67871c-41.81738,0-75.83887,34.01367-75.83887,75.82227
			s34.02148,75.82324,75.83887,75.82324c41.80859,0,75.82324-34.01465,75.82324-75.82324S209.50977,91.67871,167.70117,91.67871z
			 M167.70117,238.42969c-39.11914,0-70.94434-31.81836-70.94434-70.92871c0-39.10938,31.8252-70.92773,70.94434-70.92773
			c39.11035,0,70.92871,31.81836,70.92871,70.92773C238.62988,206.61133,206.81152,238.42969,167.70117,238.42969z"/>
		<path fill="#7C7C7C" d="M167.70117,81.89062c-47.20508,0-85.61035,38.40527-85.61035,85.61035
			c0,47.20605,38.40527,85.61133,85.61035,85.61133c47.20605,0,85.61133-38.40527,85.61133-85.61133
			C253.3125,120.2959,214.90723,81.89062,167.70117,81.89062z M167.70117,248.21777c-44.50684,0-80.71582-36.20898-80.71582-80.7168
			c0-44.50684,36.20898-80.71582,80.71582-80.71582c44.50781,0,80.7168,36.20898,80.7168,80.71582
			C248.41797,212.00879,212.20898,248.21777,167.70117,248.21777z"/>
		<path fill="#7C7C7C" d="M167.70117,72.10254c-52.60254,0-95.39844,42.7959-95.39844,95.39844
			c0,52.60352,42.7959,95.39941,95.39844,95.39941c52.60352,0,95.39941-42.7959,95.39941-95.39941
			C263.10059,114.89844,220.30469,72.10254,167.70117,72.10254z M167.70117,258.00586
			c-49.9043,0-90.50391-40.60059-90.50391-90.50488s40.59961-90.50391,90.50391-90.50391s90.50488,40.59961,90.50488,90.50391
			S217.60547,258.00586,167.70117,258.00586z"/>
		<path fill="#7C7C7C" d="M167.70117,62.31543c-57.99121,0-105.16992,47.18652-105.16992,105.18555
			c0,58,47.17871,105.1875,105.16992,105.1875c58,0,105.18652-47.1875,105.18652-105.1875
			C272.8877,109.50195,225.70117,62.31543,167.70117,62.31543z M167.70117,267.79395
			c-55.29199,0-100.27539-44.99121-100.27539-100.29297c0-55.30078,44.9834-100.29102,100.27539-100.29102
			c55.30176,0,100.29199,44.99023,100.29199,100.29102C267.99316,222.80273,223.00293,267.79395,167.70117,267.79395z"/>
		<path fill="#7C7C7C" d="M167.71777,52.54395c-63.39648,0-114.97363,51.56934-114.97363,114.95703
			s51.57715,114.95801,114.97363,114.95801c63.3877,0,114.95801-51.57031,114.95801-114.95801
			S231.10547,52.54395,167.71777,52.54395z M167.71777,277.56445c-60.69824,0-110.0791-49.37402-110.0791-110.06348
			c0-60.68848,49.38086-110.0625,110.0791-110.0625c60.68945,0,110.06348,49.37402,110.06348,110.0625
			C277.78125,228.19043,228.40723,277.56445,167.71777,277.56445z"/>
		<path fill="#7C7C7C" d="M167.71777,42.75586c-68.78418,0-124.74512,55.96094-124.74512,124.74512
			c0,68.78516,55.96094,124.74609,124.74512,124.74609c68.78516,0,124.74609-55.96094,124.74609-124.74609
			C292.46387,98.7168,236.50293,42.75586,167.71777,42.75586z M167.71777,287.35254
			c-66.08594,0-119.85059-53.76465-119.85059-119.85156c0-66.08594,53.76465-119.85059,119.85059-119.85059
			c66.08691,0,119.85156,53.76465,119.85156,119.85059C287.56934,233.58789,233.80469,287.35254,167.71777,287.35254z"/>
		<path fill="#7C7C7C" d="M167.71777,32.96777c-74.18164,0-134.5332,60.35156-134.5332,134.5332
			c0,74.18262,60.35156,134.53418,134.5332,134.53418c74.18262,0,134.53418-60.35156,134.53418-134.53418
			C302.25195,93.31934,241.90039,32.96777,167.71777,32.96777z M167.71777,297.14062
			c-71.4834,0-129.63867-58.15625-129.63867-129.63965S96.23438,37.8623,167.71777,37.8623s129.63965,58.15527,129.63965,129.63867
			S239.20117,297.14062,167.71777,297.14062z"/>
		<path fill="#7C7C7C" d="M167.71777,23.17969c-79.56934,0-144.30371,64.74219-144.30371,144.32129
			s64.73438,144.32227,144.30371,144.32227c79.5791,0,144.32129-64.74316,144.32129-144.32227
			S247.29688,23.17969,167.71777,23.17969z M167.71777,306.92871c-76.87109,0-139.40918-62.54688-139.40918-139.42773
			c0-76.87988,62.53809-139.42676,139.40918-139.42676c76.87988,0,139.42676,62.54688,139.42676,139.42676
			C307.14453,244.38184,244.59766,306.92871,167.71777,306.92871z"/>
		<path fill="#7C7C7C" d="M167.73438,13.40918c-84.97559,0-154.10938,69.125-154.10938,154.0918
			s69.13379,154.09277,154.10938,154.09277c84.9668,0,154.09277-69.12598,154.09277-154.09277
			S252.70117,13.40918,167.73438,13.40918z M167.73438,316.69922c-82.27734,0-149.21484-66.92969-149.21484-149.19824
			c0-82.26758,66.9375-149.19727,149.21484-149.19727c82.26855,0,149.19824,66.92969,149.19824,149.19727
			C316.93262,249.76953,250.00293,316.69922,167.73438,316.69922z"/>
		<path fill="#7C7C7C" d="M167.73438,3.62109c-90.37305,0-163.89648,73.5166-163.89648,163.87988
			c0,90.36426,73.52344,163.88086,163.89648,163.88086c90.36426,0,163.88086-73.5166,163.88086-163.88086
			C331.61523,77.1377,258.09863,3.62109,167.73438,3.62109z M167.73438,326.4873
			c-87.67383,0-159.00195-71.32129-159.00195-158.98633S80.06055,8.51562,167.73438,8.51562
			c87.66504,0,158.98633,71.32031,158.98633,158.98535S255.39941,326.4873,167.73438,326.4873z"/>
		<path fill="#7C7C7C" d="M146.95215,0h-25.1792C62.63379,16.22266,16.0105,62.99585,0,122.22168v26.02002
			C8.8125,71.02466,69.93359,9.46924,146.95215,0z"/>
		<path fill="#7C7C7C" d="M334,217.46387v-21.32031C321.89844,266.63257,265.93408,322.31543,195.30542,334h21.76538
			C272.98755,317.37891,317.19556,273.30249,334,217.46387z"/>
		<path fill="#7C7C7C" d="M0,186.76025v26.02002C15.69263,270.83032,60.79419,316.91699,118.26514,334h21.76538
			C66.2959,321.80151,8.54663,261.64868,0,186.76025z"/>
		<path fill="#7C7C7C" d="M334,138.8584v-21.32031C316.8457,60.53711,271.13477,15.79248,213.56299,0h-25.1792
			C262.2561,9.08228,321.50537,66.0813,334,138.8584z"/>
		<path fill="#7C7C7C" d="M334,244.8418v-12.39087C315.80078,278.89624,278.68359,315.91943,232.17944,334h12.47241
			C283.91553,315.77295,315.69092,284.06006,334,244.8418z"/>
		<path fill="#7C7C7C" d="M334,102.55151V90.16016C315.35205,50.21655,282.73779,18.05371,242.46753,0h-12.92139
			C277.28174,17.69092,315.4585,55.23267,334,102.55151z"/>
		<path fill="#7C7C7C" d="M0,228.94092v12.97852C18.0752,282.48462,50.44946,315.32178,90.68433,334h12.47266
			C55.48682,315.46606,17.67676,277.02905,0,228.94092z"/>
		<path fill="#7C7C7C" d="M105.79028,0H92.86841C51.62036,18.49219,18.40137,51.7854,0,93.08252v12.97925
			C18.00098,57.09131,56.88013,18.12622,105.79028,0z"/>
		<path fill="#7C7C7C" d="M334,79.21338v-9.97437C317.00537,40.5813,292.82837,16.6626,263.9541,0h-10.2124
			C287.87109,17.60913,315.95215,45.34863,334,79.21338z"/>
		<path fill="#7C7C7C" d="M81.60205,0H71.39062C41.75073,17.10596,17.05054,41.85205,0,71.52954v10.24194
			C17.97998,46.74292,46.61841,18.05176,81.60205,0z"/>
		<path fill="#7C7C7C" d="M0,253.23047v10.24219C16.72339,292.58081,40.81226,316.93555,69.69678,334h10.00757
			C45.58472,315.89771,17.65283,287.62231,0,253.23047z"/>
		<path fill="#7C7C7C" d="M334,265.76318v-9.97437C316.28857,289.02246,288.91064,316.34961,255.63965,334h10.00854
			C293.77197,317.38623,317.34009,293.85645,334,265.76318z"/>
		<path fill="#7C7C7C" d="M0,272.91895v8.91162C13.92236,302.18286,31.4502,319.87891,51.65576,334h8.75635
			C36.10742,318.28906,15.45068,297.4043,0,272.91895z"/>
		<path fill="#7C7C7C" d="M61.98682,0h-8.88525C32.28516,14.28223,14.25366,32.33569,0,53.17212v8.91113
			C15.78296,37.07178,37.00024,15.8208,61.98682,0z"/>
		<path fill="#7C7C7C" d="M334,59.95874V51.2168C319.96631,31.20557,302.41943,13.8335,282.25928,0h-8.88525
			C297.64868,15.37109,318.36792,35.8667,334,59.95874z"/>
		<path fill="#7C7C7C" d="M334,283.78589v-8.74243C318.70654,298.61377,298.5459,318.74512,274.94849,334h8.75635
			C303.25879,320.33301,320.30298,303.31714,334,283.78589z"/>
		<path fill="#7C7C7C" d="M334,300.09668v-7.97217C322.08154,307.98999,307.95215,322.104,292.06885,334h7.98364
			C312.59717,324.0061,323.98926,312.62744,334,300.09668z"/>
		<path fill="#7C7C7C" d="M334,42.87769v-7.97217C323.65527,21.95679,311.84155,10.23145,298.79932,0h-8.10059
			C307.13696,12.10474,321.7417,26.56006,334,42.87769z"/>
		<path fill="#7C7C7C" d="M0,290.26367v8.11279C10.33545,311.58936,22.19897,323.54932,35.31689,334h7.98364
			C26.80103,321.64233,12.20166,306.88525,0,290.26367z"/>
		<path fill="#7C7C7C" d="M44.6709,0h-8.10059C22.95117,10.68408,10.66504,22.99146,0,36.62598v8.11279
			C12.53662,27.66064,27.6123,12.56152,44.6709,0z"/>
		<path fill="#7C7C7C" d="M334,315.26562v-7.46704c-7.98975,9.45654-16.76782,18.22388-26.23486,26.20142h7.47729
			C321.8584,328.13013,328.12207,321.87427,334,315.26562z"/>
		<path fill="#7C7C7C" d="M334,27.2041v-7.46753C327.7876,12.75195,321.14746,6.15723,314.11304,0h-7.53369
			C316.50195,8.24219,325.67627,17.35229,334,27.2041z"/>
		<path fill="#7C7C7C" d="M28.79053,0h-7.53369C13.70483,6.61035,6.60107,13.71973,0,21.28027v7.5437
			C8.68066,18.34595,18.32397,8.69409,28.79053,0z"/>
		<path fill="#7C7C7C" d="M0,306.17871v7.54346C6.27002,320.90332,12.99707,327.67358,20.12744,334h7.47754
			C17.59717,325.56665,8.35034,316.2583,0,306.17871z"/>
		<path fill="#7C7C7C" d="M334,329.61475v-7.0874c-3.69238,3.9585-7.52319,7.78491-11.48633,11.47266h7.09668
			C331.09302,332.55762,332.55615,331.0957,334,329.61475z"/>
		<path fill="#7C7C7C" d="M334,12.47534V5.3877c-1.77783-1.82349-3.57983-3.62305-5.41626-5.3877h-7.14697
			C325.78467,3.99414,329.97314,8.1582,334,12.47534z"/>
		<path fill="#7C7C7C" d="M13.94434,0H6.79761C4.48584,2.22144,2.21851,4.48828,0,6.80273v7.15723
			C4.44531,9.1084,9.09888,4.45166,13.94434,0z"/>
		<path fill="#7C7C7C" d="M0,321.04297v7.15674C1.8877,330.16895,3.81592,332.0979,5.771,334h7.09644
			C8.40967,329.85181,4.11401,325.53271,0,321.04297z"/>
	</g>
</g>
<g id="Layer_3" display="none">
</g>
<g id="Layer_2" display="none">
</g>
</svg>
