<?xml version="1.0" encoding="utf-8"?>
<!-- Generator: Adobe Illustrator 21.1.0, SVG Export Plug-In . SVG Version: 6.00 Build 0)  -->
<svg version="1.2" baseProfile="tiny" xmlns="http://www.w3.org/2000/svg" xmlns:xlink="http://www.w3.org/1999/xlink" x="0px"
	 y="0px" viewBox="0 0 334 334" xml:space="preserve">
<g id="Layer_1">
	<g>
		<path fill="#858585" d="M0,200.8877v63.28894C16.75049,292.99988,40.74805,317.10742,69.47852,334h61.73621
			C65.18457,319.82269,13.24609,267.2547,0,200.8877z"/>
		<path fill="#858585" d="M166.99902,156.15137c-6.26758,0-11.36621,5.09131-11.36621,11.34961s5.09863,11.34961,11.36621,11.34961
			c6.25781,0,11.34961-5.09131,11.34961-11.34961S173.25684,156.15137,166.99902,156.15137z"/>
		<path fill="#858585" d="M334,31.12732V0h-31.2478C314.19287,9.28998,324.6687,19.72156,334,31.12732z"/>
		<path fill="#858585" d="M167,110.73633c-31.30957,0-56.78223,25.46436-56.78223,56.76465S135.69043,224.26562,167,224.26562
			c31.2998,0,56.76465-25.46436,56.76465-56.76465S198.2998,110.73633,167,110.73633z M166.99902,201.5498
			c-18.78418,0-34.06543-15.27441-34.06543-34.04883s15.28125-34.04883,34.06543-34.04883
			c18.77441,0,34.04883,15.27441,34.04883,34.04883S185.77344,201.5498,166.99902,201.5498z"/>
		<path fill="#858585" d="M0,303.87708V334h30.00244C19.04321,324.96661,8.99365,314.87,0,303.87708z"/>
		<path fill="#858585" d="M31.24585,0H0v31.12488C9.33081,19.72003,19.80603,9.28931,31.24585,0z"/>
		<path fill="#858585" d="M334,134.12439V70.82861C316.91846,41.43439,292.30591,16.93494,262.81689,0h-65.04395
			C266.17969,12.53717,320.42383,66.08209,334,134.12439z"/>
		<path fill="#858585" d="M303.99561,334H334v-30.12537C325.00586,314.86847,314.95557,324.96594,303.99561,334z"/>
		<path fill="#858585" d="M166.99902,19.90625c-81.38379,0-147.59473,66.21094-147.59473,147.59473
			S85.61523,315.0957,166.99902,315.0957s147.59473-66.21094,147.59473-147.59473S248.38281,19.90625,166.99902,19.90625z
			 M166.99902,292.37988c-68.86719,0-124.89551-56.02051-124.89551-124.87891S98.13184,42.62207,166.99902,42.62207
			c68.8584,0,124.87891,56.02051,124.87891,124.87891S235.85742,292.37988,166.99902,292.37988z"/>
		<path fill="#858585" d="M136.2251,0H71.18115C41.69324,16.93427,17.08154,41.43256,0,70.82532v63.28894
			C13.57947,66.07684,67.8219,12.53656,136.2251,0z"/>
		<path fill="#858585" d="M334,264.17334v-63.29578C320.75708,267.24933,268.81689,319.82196,202.7832,334h61.73633
			C293.25098,317.10681,317.24951,292.99805,334,264.17334z"/>
		<path fill="#858585" d="M166.99902,65.32129c-56.35156,0-102.19629,45.8374-102.19629,102.17969
			s45.84473,102.17969,102.19629,102.17969c56.3418,0,102.17969-45.8374,102.17969-102.17969S223.34082,65.32129,166.99902,65.32129
			z M167,246.96484c-43.82617,0-79.48145-35.64746-79.48145-79.46387S123.17383,88.03711,167,88.03711
			c43.81641,0,79.46387,35.64746,79.46387,79.46387S210.81641,246.96484,167,246.96484z"/>
		<path fill="#7A7A7A" d="M166.99902,133.45215c-18.78418,0-34.06543,15.27441-34.06543,34.04883
			s15.28125,34.04883,34.06543,34.04883c18.77441,0,34.04883-15.27441,34.04883-34.04883S185.77344,133.45215,166.99902,133.45215z
			 M166.99902,178.85059c-6.26758,0-11.36621-5.09131-11.36621-11.34961s5.09863-11.34961,11.36621-11.34961
			c6.25781,0,11.34961,5.09131,11.34961,11.34961S173.25684,178.85059,166.99902,178.85059z"/>
		<path fill="#7A7A7A" d="M167,88.03711c-43.82617,0-79.48145,35.64746-79.48145,79.46387S123.17383,246.96484,167,246.96484
			c43.81641,0,79.46387-35.64746,79.46387-79.46387S210.81641,88.03711,167,88.03711z M167,224.26562
			c-31.30957,0-56.78223-25.46436-56.78223-56.76465S135.69043,110.73633,167,110.73633
			c31.2998,0,56.76465,25.46436,56.76465,56.76465S198.2998,224.26562,167,224.26562z"/>
		<path fill="#7A7A7A" d="M166.99902,42.62207c-68.86719,0-124.89551,56.02051-124.89551,124.87891
			s56.02832,124.87891,124.89551,124.87891c68.8584,0,124.87891-56.02051,124.87891-124.87891
			S235.85742,42.62207,166.99902,42.62207z M166.99902,269.68066c-56.35156,0-102.19629-45.8374-102.19629-102.17969
			S110.64746,65.32129,166.99902,65.32129c56.3418,0,102.17969,45.8374,102.17969,102.17969
			S223.34082,269.68066,166.99902,269.68066z"/>
		<path fill="#7A7A7A" d="M334,200.87756v-66.75317C320.42383,66.08209,266.17969,12.53717,197.77295,0H136.2251
			C67.8219,12.53656,13.57947,66.07684,0,134.11426v66.77344C13.24609,267.2547,65.18457,319.82269,131.21472,334h71.56848
			C268.81689,319.82196,320.75708,267.24933,334,200.87756z M166.99902,315.0957
			c-81.38379,0-147.59473-66.21094-147.59473-147.59473S85.61523,19.90625,166.99902,19.90625
			s147.59473,66.21094,147.59473,147.59473S248.38281,315.0957,166.99902,315.0957z"/>
		<path fill="#7A7A7A" d="M334,303.87463v-39.70129C317.24951,292.99805,293.25098,317.10681,264.51953,334h39.47607
			C314.95557,324.96594,325.00586,314.86847,334,303.87463z"/>
		<path fill="#7A7A7A" d="M334,70.82861V31.12732C324.6687,19.72156,314.19287,9.28998,302.7522,0h-39.9353
			C292.30591,16.93494,316.91846,41.43439,334,70.82861z"/>
		<path fill="#7A7A7A" d="M0,264.17664v39.70044C8.99365,314.87,19.04321,324.96661,30.00244,334h39.47607
			C40.74805,317.10742,16.75049,292.99988,0,264.17664z"/>
		<path fill="#7A7A7A" d="M71.18115,0h-39.9353C19.80603,9.28931,9.33081,19.72003,0,31.12488v39.70044
			C17.08154,41.43256,41.69324,16.93427,71.18115,0z"/>
	</g>
</g>
<g id="Layer_3" display="none">
</g>
<g id="Layer_2" display="none">
</g>
</svg>
