<?xml version="1.0" encoding="utf-8"?>
<!-- Generator: Adobe Illustrator 21.1.0, SVG Export Plug-In . SVG Version: 6.00 Build 0)  -->
<svg version="1.2" baseProfile="tiny" xmlns="http://www.w3.org/2000/svg" xmlns:xlink="http://www.w3.org/1999/xlink" x="0px"
	 y="0px" viewBox="0 0 334 334" xml:space="preserve">
<g id="Layer_1">
	<g>
		<path fill="#ADADAD" d="M289.61023,334H334v-44.32794C321.51294,306.57904,306.53467,321.53534,289.61023,334z"/>
		<path fill="#ADADAD" d="M334,196.9104v-61.49146C321.75696,68.48785,270.29547,15.0882,204.39032,0h-76.11365
			C64.51843,14.59814,14.28381,65.0611,0,128.94287v74.44366C14.89246,269.9906,68.86505,322.00885,136.49829,334h59.66962
			C265.98578,321.6228,321.2522,266.6012,334,196.9104z M166.33154,298.73535c-73.09961,0-132.57031-59.4707-132.57031-132.57074
			c0-73.09961,59.4707-132.57031,132.57031-132.57031c73.1001,0,132.5708,59.4707,132.5708,132.57031
			C298.90234,239.26465,239.43164,298.73535,166.33154,298.73535z"/>
		<path fill="#ADADAD" d="M166.33154,71.47614c-52.21143,0-94.68848,42.47705-94.68848,94.68848
			c0,52.21136,42.47705,94.6889,94.68848,94.6889s94.68896-42.47754,94.68896-94.6889
			C261.02051,113.95319,218.54297,71.47614,166.33154,71.47614z M166.33154,222.98779
			c-31.32324,0-56.80615-25.49072-56.80615-56.82318c0-31.33203,25.48291-56.82275,56.80615-56.82275
			c31.33252,0,56.82324,25.49072,56.82324,56.82275C223.15479,197.49707,197.66406,222.98779,166.33154,222.98779z"/>
		<path fill="#ADADAD" d="M0,291.44861V334h43.06311C26.73468,321.97333,12.21564,307.62885,0,291.44861z"/>
		<path fill="#ADADAD" d="M40.82343,0H0v40.88116C11.65454,25.44421,25.40466,11.67676,40.82343,0z"/>
		<path fill="#ADADAD" d="M334,42.65765V0h-42.14984C307.85876,12.1225,322.06635,26.50006,334,42.65765z"/>
		<path fill="#ADADAD" d="M166.33154,147.22369c-10.43457,0-18.92432,8.49707-18.92432,18.94092
			c0,10.44427,8.48975,18.94135,18.92432,18.94135c10.44434,0,18.94141-8.49707,18.94141-18.94135
			C185.27295,155.72076,176.77588,147.22369,166.33154,147.22369z"/>
		<path fill="#525252" d="M166.33154,109.34186c-31.32324,0-56.80615,25.49072-56.80615,56.82275
			c0,31.33246,25.48291,56.82318,56.80615,56.82318c31.33252,0,56.82324-25.49072,56.82324-56.82318
			C223.15479,134.83258,197.66406,109.34186,166.33154,109.34186z M166.33154,185.10596
			c-10.43457,0-18.92432-8.49707-18.92432-18.94135c0-10.44385,8.48975-18.94092,18.92432-18.94092
			c10.44434,0,18.94141,8.49707,18.94141,18.94092C185.27295,176.60889,176.77588,185.10596,166.33154,185.10596z"/>
		<path fill="#525252" d="M166.33154,33.5943c-73.09961,0-132.57031,59.4707-132.57031,132.57031
			c0,73.10004,59.4707,132.57074,132.57031,132.57074c73.1001,0,132.5708-59.4707,132.5708-132.57074
			C298.90234,93.065,239.43164,33.5943,166.33154,33.5943z M166.33154,260.85352c-52.21143,0-94.68848-42.47754-94.68848-94.6889
			c0-52.21143,42.47705-94.68848,94.68848-94.68848s94.68896,42.47705,94.68896,94.68848
			C261.02051,218.37598,218.54297,260.85352,166.33154,260.85352z"/>
		<path fill="#525252" d="M334,289.67206V196.9104C321.2522,266.6012,265.98578,321.6228,196.16791,334h93.44232
			C306.53467,321.53534,321.51294,306.57904,334,289.67206z"/>
		<path fill="#525252" d="M128.27667,0H40.82343C25.40466,11.67676,11.65454,25.44421,0,40.88116v88.06171
			C14.28381,65.0611,64.51843,14.59814,128.27667,0z"/>
		<path fill="#525252" d="M334,135.41895V42.65765C322.06635,26.50006,307.85876,12.1225,291.85016,0h-87.45984
			C270.29547,15.0882,321.75696,68.48785,334,135.41895z"/>
		<path fill="#525252" d="M0,203.38654v88.06207C12.21564,307.62885,26.73468,321.97333,43.06311,334h93.43518
			C68.86505,322.00885,14.89246,269.9906,0,203.38654z"/>
	</g>
</g>
<g id="Layer_3" display="none">
</g>
<g id="Layer_2" display="none">
</g>
</svg>
