<?xml version="1.0" encoding="utf-8"?>
<!-- Generator: Adobe Illustrator 21.1.0, SVG Export Plug-In . SVG Version: 6.00 Build 0)  -->
<svg version="1.2" baseProfile="tiny" xmlns="http://www.w3.org/2000/svg" xmlns:xlink="http://www.w3.org/1999/xlink" x="0px"
	 y="0px" viewBox="0 0 334 334" xml:space="preserve">
<g id="Layer_1">
	<g>
		<path fill="#898989" d="M334,270.86792v-28.82849C315.71436,282.646,283.09741,315.45679,242.63159,334h28.53772
			C296.5896,318.00049,318.11914,296.36987,334,270.86792z"/>
		<path fill="#898989" d="M0,244.88855v28.0968C15.74268,297.57092,36.78833,318.44373,61.5022,334h28.53564
			C50.52808,315.89307,18.50879,284.1781,0,244.88855z"/>
		<path fill="#898989" d="M166.33203,23.89844c-78.80566,0-142.91797,64.12012-142.91797,142.93457
			s64.1123,142.93457,142.91797,142.93457c78.81445,0,142.93457-64.12012,142.93457-142.93457
			S245.14648,23.89844,166.33203,23.89844z M166.33203,296.15527c-71.30859,0-129.32227-58.01367-129.32227-129.32227
			c0-71.30811,58.01367-129.32178,129.32227-129.32178S295.6543,95.5249,295.6543,166.83301
			C295.6543,238.1416,237.64062,296.15527,166.33203,296.15527z"/>
		<path fill="#898989" d="M0,296.49207v21.11475C5.21167,323.35193,10.7229,328.81909,16.49609,334h21.25806
			C23.6543,323.12793,10.95898,310.52161,0,296.49207z"/>
		<path fill="#898989" d="M334,91.62622V62.79834C318.2301,37.47461,296.89209,15.96582,271.70361,0h-28.35596
			C283.4812,18.60132,315.82263,51.26001,334,91.62622z"/>
		<path fill="#898989" d="M334,195.88416v-58.10229C322.06519,68.69421,268.33301,13.74158,199.87305,0h-67.08057
			C66.60034,13.28772,14.18066,65.11035,0,130.98511v71.6958C14.30469,269.13135,67.52173,321.27783,134.53333,334h63.59875
			C267.41968,320.84692,321.96436,265.55566,334,195.88416z M166.33203,323.38086
			c-86.31152,0-156.53125-70.22705-156.53125-156.54785S80.02051,10.28516,166.33203,10.28516
			c86.32031,0,156.54785,70.22705,156.54785,156.54785S252.65234,323.38086,166.33203,323.38086z"/>
		<path fill="#898989" d="M37.31921,0H16.11975C10.48267,5.0813,5.09912,10.43835,0,16.0592v21.11487
			C10.84644,23.28857,23.39282,10.79578,37.31921,0z"/>
		<path fill="#898989" d="M89.32178,0H60.96802C36.48438,15.52039,15.62952,36.27197,0,60.68091V88.7771
			C18.39648,49.72559,50.14209,18.16113,89.32178,0z"/>
		<path fill="#898989" d="M166.33203,51.12451c-63.80273,0-115.70898,51.90625-115.70898,115.7085
			s51.90625,115.70898,115.70898,115.70898s115.70898-51.90674,115.70898-115.70898S230.13477,51.12451,166.33203,51.12451z
			 M166.33203,268.9292c-56.2959,0-102.09668-45.80029-102.09668-102.09619S110.03613,64.73682,166.33203,64.73682
			s102.0957,45.80029,102.0957,102.09619S222.62793,268.9292,166.33203,268.9292z"/>
		<path fill="#898989" d="M166.33203,78.3501c-48.79004,0-88.4834,39.69336-88.4834,88.48291s39.69336,88.48291,88.4834,88.48291
			c48.78906,0,88.48242-39.69336,88.48242-88.48291S215.12109,78.3501,166.33203,78.3501z M166.33105,241.70361
			c-41.2832,0-74.87012-33.58691-74.87012-74.87061s33.58691-74.87061,74.87012-74.87061
			c41.28418,0,74.87109,33.58691,74.87109,74.87061S207.61523,241.70361,166.33105,241.70361z"/>
		<circle fill="#898989" cx="166.3313" cy="166.83301" r="6.80615"/>
		<path fill="#898989" d="M166.33105,105.57568c-33.77734,0-61.25684,27.47998-61.25684,61.25732
			s27.47949,61.25732,61.25684,61.25732s61.25781-27.47998,61.25781-61.25732S200.1084,105.57568,166.33105,105.57568z
			 M166.33105,214.47803c-26.27148,0-47.64453-21.37354-47.64453-47.64502s21.37305-47.64502,47.64453-47.64502
			s47.64551,21.37354,47.64551,47.64502S192.60254,214.47803,166.33105,214.47803z"/>
		<path fill="#898989" d="M166.33105,132.80127c-18.76465,0-34.03125,15.2666-34.03125,34.03174s15.2666,34.03174,34.03125,34.03174
			c18.76562,0,34.03223-15.2666,34.03223-34.03174S185.09668,132.80127,166.33105,132.80127z M166.33105,187.25244
			c-11.25879,0-20.41895-9.16016-20.41895-20.41943s9.16016-20.41943,20.41895-20.41943
			c11.25977,0,20.41992,9.16016,20.41992,20.41943S177.59082,187.25244,166.33105,187.25244z"/>
		<path fill="#898989" d="M334,38.90015V17.55127C328.50732,11.38879,322.68604,5.52649,316.55457,0h-21.20105
			C309.85413,11.23999,322.85229,24.32495,334,38.90015z"/>
		<path fill="#898989" d="M334,316.11475v-21.34863C322.74121,309.48645,309.59375,322.68518,294.91846,334h21.25977
			C322.4469,328.375,328.39575,322.40234,334,316.11475z"/>
		<path fill="#767676" d="M166.33105,146.41357c-11.25879,0-20.41895,9.16016-20.41895,20.41943s9.16016,20.41943,20.41895,20.41943
			c11.25977,0,20.41992-9.16016,20.41992-20.41943S177.59082,146.41357,166.33105,146.41357z M166.33105,173.63916
			c-3.75293,0-6.80566-3.05322-6.80566-6.80615s3.05273-6.80615,6.80566-6.80615s6.80664,3.05322,6.80664,6.80615
			S170.08398,173.63916,166.33105,173.63916z"/>
		<path fill="#767676" d="M166.33105,119.18799c-26.27148,0-47.64453,21.37354-47.64453,47.64502
			s21.37305,47.64502,47.64453,47.64502s47.64551-21.37354,47.64551-47.64502S192.60254,119.18799,166.33105,119.18799z
			 M166.33105,200.86475c-18.76465,0-34.03125-15.2666-34.03125-34.03174s15.2666-34.03174,34.03125-34.03174
			c18.76562,0,34.03223,15.2666,34.03223,34.03174S185.09668,200.86475,166.33105,200.86475z"/>
		<path fill="#767676" d="M166.33105,91.9624c-41.2832,0-74.87012,33.58691-74.87012,74.87061s33.58691,74.87061,74.87012,74.87061
			c41.28418,0,74.87109-33.58691,74.87109-74.87061S207.61523,91.9624,166.33105,91.9624z M166.33105,228.09033
			c-33.77734,0-61.25684-27.47998-61.25684-61.25732s27.47949-61.25732,61.25684-61.25732s61.25781,27.47998,61.25781,61.25732
			S200.1084,228.09033,166.33105,228.09033z"/>
		<path fill="#767676" d="M166.33203,64.73682c-56.2959,0-102.09668,45.80029-102.09668,102.09619
			S110.03613,268.9292,166.33203,268.9292s102.0957-45.80029,102.0957-102.09619S222.62793,64.73682,166.33203,64.73682z
			 M166.33203,255.31592c-48.79004,0-88.4834-39.69336-88.4834-88.48291s39.69336-88.48291,88.4834-88.48291
			c48.78906,0,88.48242,39.69336,88.48242,88.48291S215.12109,255.31592,166.33203,255.31592z"/>
		<path fill="#767676" d="M166.33203,37.51123c-71.30859,0-129.32227,58.01367-129.32227,129.32178
			c0,71.30859,58.01367,129.32227,129.32227,129.32227S295.6543,238.1416,295.6543,166.83301
			C295.6543,95.5249,237.64062,37.51123,166.33203,37.51123z M166.33203,282.54199
			c-63.80273,0-115.70898-51.90674-115.70898-115.70898s51.90625-115.7085,115.70898-115.7085
			s115.70898,51.90625,115.70898,115.7085S230.13477,282.54199,166.33203,282.54199z"/>
		<path fill="#767676" d="M166.33203,10.28516c-86.31152,0-156.53125,70.22705-156.53125,156.54785
			s70.21973,156.54785,156.53125,156.54785c86.32031,0,156.54785-70.22705,156.54785-156.54785
			S252.65234,10.28516,166.33203,10.28516z M166.33203,309.76758c-78.80566,0-142.91797-64.12012-142.91797-142.93457
			S87.52637,23.89844,166.33203,23.89844c78.81445,0,142.93457,64.12012,142.93457,142.93457
			S245.14648,309.76758,166.33203,309.76758z"/>
		<path fill="#767676" d="M334,137.78186V91.62622C315.82263,51.26001,283.4812,18.60132,243.34766,0h-43.47461
			C268.33301,13.74158,322.06519,68.69421,334,137.78186z"/>
		<path fill="#767676" d="M0,202.68091v42.20764C18.50879,284.1781,50.52808,315.89307,90.03784,334h44.49548
			C67.52173,321.27783,14.30469,269.13135,0,202.68091z"/>
		<path fill="#767676" d="M334,242.03943v-46.15527C321.96436,265.55566,267.41968,320.84692,198.13208,334h44.49951
			C283.09741,315.45679,315.71436,282.646,334,242.03943z"/>
		<path fill="#767676" d="M132.79248,0h-43.4707C50.14209,18.16113,18.39648,49.72559,0,88.7771v42.20801
			C14.18066,65.11035,66.60034,13.28772,132.79248,0z"/>
		<path fill="#767676" d="M334,62.79834V38.90015C322.85229,24.32495,309.85413,11.23999,295.35352,0h-23.6499
			C296.89209,15.96582,318.2301,37.47461,334,62.79834z"/>
		<path fill="#767676" d="M334,294.76611v-23.89819C318.11914,296.36987,296.5896,318.00049,271.16931,334h23.74915
			C309.59375,322.68518,322.74121,309.48645,334,294.76611z"/>
		<path fill="#767676" d="M60.96802,0h-23.6488C23.39282,10.79578,10.84644,23.28857,0,37.17407v23.50684
			C15.62952,36.27197,36.48438,15.52039,60.96802,0z"/>
		<path fill="#767676" d="M0,272.98535v23.50671C10.95898,310.52161,23.6543,323.12793,37.75415,334H61.5022
			C36.78833,318.44373,15.74268,297.57092,0,272.98535z"/>
		<path fill="#767676" d="M334,316.11475c-5.60425,6.2876-11.5531,12.26025-17.82178,17.88525H334V316.11475z"/>
		<path fill="#767676" d="M16.11975,0H0v16.0592C5.09912,10.43835,10.48267,5.0813,16.11975,0z"/>
		<path fill="#767676" d="M334,17.55127V0h-17.44543C322.68604,5.52649,328.50732,11.38879,334,17.55127z"/>
		<path fill="#767676" d="M0,317.60681V334h16.49609C10.7229,328.81909,5.21167,323.35193,0,317.60681z"/>
	</g>
</g>
<g id="Layer_3" display="none">
</g>
<g id="Layer_2" display="none">
</g>
</svg>
