<?xml version="1.0" encoding="utf-8"?>
<!-- Generator: Adobe Illustrator 21.1.0, SVG Export Plug-In . SVG Version: 6.00 Build 0)  -->
<svg version="1.2" baseProfile="tiny" xmlns="http://www.w3.org/2000/svg" xmlns:xlink="http://www.w3.org/1999/xlink" x="0px"
	 y="0px" viewBox="0 0 334 334" xml:space="preserve">
<g id="Layer_1">
	<g>
		<path fill="#CCCCCC" d="M0,248.1604v13.53857C17.05835,291.73828,41.9447,316.77563,71.87585,334h13.44061
			C48.24841,315.66089,18.11407,285.35791,0,248.1604z"/>
		<path fill="#CCCCCC" d="M0,315.59912v9.36011C2.91895,328.05322,5.91736,331.0708,9.00146,334h9.32861
			C11.87274,328.22314,5.75311,322.07812,0,315.59912z"/>
		<path fill="#CCCCCC" d="M84.64716,0H71.3114C41.63318,17.21338,16.95038,42.11865,0,71.96777v13.53857
			C18.00494,48.53296,47.8858,18.37158,84.64716,0z"/>
		<path fill="#CCCCCC" d="M119.07184,0h-19.1308C54.3501,18.57983,18.02069,55.31689,0,101.18945v20.07251
			C15.84143,63.02881,61.26941,16.86768,119.07184,0z"/>
		<path fill="#CCCCCC" d="M0,295.80737v10.12134C8.45667,316.1084,17.82367,325.50391,27.96948,334h10.06055
			C23.79492,322.93262,11.00952,310.08936,0,295.80737z"/>
		<path fill="#CCCCCC" d="M0,212.40405v20.073C18.12799,278.62305,54.78168,315.52734,100.7547,334h19.43738
			C61.8551,317.40552,15.94397,271.0144,0,212.40405z"/>
		<path fill="#CCCCCC" d="M0,273.92407v11.28076C13.34644,304.05762,29.78632,320.57129,48.57666,334h11.21222
			C35.83276,318.48145,15.40302,297.9624,0,273.92407z"/>
		<path fill="#CCCCCC" d="M334,16.47314v-9.2666C331.64447,4.75366,329.24091,2.34717,326.78009,0h-9.32098
			C323.25092,5.20435,328.77527,10.7002,334,16.47314z"/>
		<path fill="#CCCCCC" d="M334,36.04077v-9.97583C326.02649,16.65967,317.27313,7.93848,307.83752,0H297.8067
			C311.26575,10.51953,323.42657,22.62598,334,36.04077z"/>
		<path fill="#CCCCCC" d="M334,57.63672V46.51904C321.02002,28.62793,305.23273,12.90259,287.28247,0h-11.18713
			C299.13068,15.02002,318.87433,34.67651,334,57.63672z"/>
		<path fill="#CCCCCC" d="M167.66797,163.67676c-1.75,0-3.17383,1.41602-3.17383,3.15625c0,1.74121,1.42383,3.15723,3.17383,3.15723
			c1.74072,0,3.15674-1.41602,3.15674-3.15723C170.82471,165.09277,169.40869,163.67676,167.66797,163.67676z"/>
		<path fill="#CCCCCC" d="M334,82.75488v-13.1792C317.10083,40.78833,292.95044,16.75122,264.06647,0h-13.34448
			C286.56714,17.91382,315.86963,47.03711,334,82.75488z"/>
		<path fill="#CCCCCC" d="M59.28308,0H48.12C29.52112,13.3689,13.23749,29.7627,0,48.46167v11.28052
			C15.29407,35.87402,35.54614,15.47876,59.28308,0z"/>
		<path fill="#CCCCCC" d="M37.59583,0H27.57574C17.58185,8.40869,8.3468,17.69067,0,27.73828v10.12109
			C10.89819,23.72192,23.53369,10.99072,37.59583,0z"/>
		<path fill="#CCCCCC" d="M17.95477,0H8.64471C5.68457,2.82324,2.80725,5.73193,0,8.70728v9.3606
			C5.64203,11.71362,11.63483,5.6792,17.95477,0z"/>
		<path fill="#CCCCCC" d="M334,116.55176V97.82227C315.54926,53.52197,279.89703,18.12256,235.4281,0h-19.15936
			C272.50928,16.4104,317.03748,60.54639,334,116.55176z"/>
		<path fill="#CCCCCC" d="M167.73486,49.94727c-64.46045,0-116.90332,52.43457-116.90332,116.88574
			c0,64.45215,52.44287,116.88672,116.90332,116.88672c64.45166,0,116.88672-52.43457,116.88672-116.88672
			C284.62158,102.38184,232.18652,49.94727,167.73486,49.94727z M167.71826,277.40723
			c-60.96094,0-110.55615-49.60352-110.55615-110.57422c0-60.96973,49.59521-110.57324,110.55615-110.57324
			c60.97021,0,110.57275,49.60352,110.57275,110.57324C278.29102,227.80371,228.68848,277.40723,167.71826,277.40723z"/>
		<path fill="#CCCCCC" d="M334,264.09106v-13.17944C315.7569,286.85205,286.20239,316.11523,250.05267,334h13.44928
			C292.63715,317.23511,316.99023,293.06689,334,264.09106z"/>
		<path fill="#CCCCCC" d="M334,235.84424v-18.72998C316.92462,273.49243,271.91931,317.85254,215.14844,334h19.466
			C279.46277,315.97949,315.43665,280.41504,334,235.84424z"/>
		<path fill="#CCCCCC" d="M334,186.09277v-38.51953C324.95276,68.93994,261.22412,6.7146,181.91443,0h-28.49152
			C67.7453,7.25439,0.23828,79.302,0.23828,166.83301c0,89.12012,69.97949,162.19287,157.8678,167.16699h19.12476
			C258.70361,329.38965,324.77533,266.26831,334,186.09277z M167.66797,327.94922
			c-88.83936,0-161.11572-72.27637-161.11572-161.11621c0-88.83887,72.27637-161.11523,161.11572-161.11523
			s161.11572,72.27637,161.11572,161.11523C328.78369,255.67285,256.50732,327.94922,167.66797,327.94922z"/>
		<path fill="#CCCCCC" d="M167.66797,24.67578c-78.39551,0-142.1748,63.77148-142.1748,142.15723
			c0,78.38672,63.7793,142.1582,142.1748,142.1582c78.38623,0,142.1582-63.77148,142.1582-142.1582
			C309.82617,88.44727,246.0542,24.67578,167.66797,24.67578z M167.73486,302.67773
			c-74.90479,0-135.84424-60.93945-135.84424-135.84473c0-74.9043,60.93945-135.84375,135.84424-135.84375
			S303.5791,91.92871,303.5791,166.83301C303.5791,241.73828,242.63965,302.67773,167.73486,302.67773z"/>
		<path fill="#CCCCCC" d="M167.66797,12.03223c-85.3584,0-154.80225,69.44336-154.80225,154.80078
			c0,85.3584,69.44385,154.80176,154.80225,154.80176s154.80225-69.44336,154.80225-154.80176
			C322.47021,81.47559,253.02637,12.03223,167.66797,12.03223z M167.66797,315.30566
			c-81.87695,0-148.48828-66.60449-148.48828-148.47266c0-81.86719,66.61133-148.47168,148.48828-148.47168
			c81.86768,0,148.47168,66.60449,148.47168,148.47168C316.13965,248.70117,249.53564,315.30566,167.66797,315.30566z"/>
		<path fill="#CCCCCC" d="M334,326.45996v-9.26636c-5.33698,5.89722-10.98804,11.50317-16.9162,16.8064h9.3396
			C329.0072,331.5459,331.53174,329.03027,334,326.45996z"/>
		<path fill="#CCCCCC" d="M334,287.14746v-11.11768C318.76324,299.15869,298.84253,318.93823,275.58942,334h11.23639
			C304.96619,321.03564,320.90936,305.19092,334,287.14746z"/>
		<path fill="#CCCCCC" d="M334,307.60205v-9.97607C323.31366,311.18408,311.00323,323.40259,297.3725,334h10.07123
			C317.03009,325.97314,325.91528,317.13818,334,307.60205z"/>
		<path fill="#CCCCCC" d="M167.66797,151.0332c-8.7124,0-15.80078,7.08789-15.80078,15.7998
			c0,8.71289,7.08838,15.80078,15.80078,15.80078s15.80078-7.08789,15.80078-15.80078
			C183.46875,158.12109,176.38037,151.0332,167.66797,151.0332z M167.66797,176.30469c-5.23145,0-9.4873-4.24902-9.4873-9.47168
			c0-5.22168,4.25586-9.4707,9.4873-9.4707c5.22217,0,9.47021,4.24902,9.47021,9.4707
			C177.13818,172.05566,172.89014,176.30469,167.66797,176.30469z"/>
		<path fill="#CCCCCC" d="M167.68457,113.13379c-29.60986,0-53.69971,24.08887-53.69971,53.69922
			c0,29.62012,24.08984,53.7168,53.69971,53.7168c29.61963,0,53.7168-24.09668,53.7168-53.7168
			C221.40137,137.22266,197.3042,113.13379,167.68457,113.13379z M167.68457,214.21973
			c-26.12842,0-47.38574-21.25781-47.38574-47.38672c0-26.12793,21.25732-47.38574,47.38574-47.38574
			c26.12891,0,47.38623,21.25781,47.38623,47.38574C215.0708,192.96191,193.81348,214.21973,167.68457,214.21973z"/>
		<path fill="#CCCCCC" d="M167.68457,138.40527c-15.68457,0-28.44482,12.75195-28.44482,28.42773S152,195.26172,167.68457,195.26172
			c15.67578,0,28.42871-12.75293,28.42871-28.42871S183.36035,138.40527,167.68457,138.40527z M167.66797,188.94824
			c-12.19385,0-22.11426-9.9209-22.11426-22.11523c0-12.19336,9.92041-22.11426,22.11426-22.11426
			s22.11426,9.9209,22.11426,22.11426C189.78223,179.02734,179.86182,188.94824,167.66797,188.94824z"/>
		<path fill="#CCCCCC" d="M167.70117,100.49023c-36.58203,0-66.34375,29.76074-66.34375,66.34277
			s29.76172,66.34375,66.34375,66.34375s66.34424-29.76172,66.34424-66.34375S204.2832,100.49023,167.70117,100.49023z
			 M167.68457,226.86426c-33.09131,0-60.01318-26.92969-60.01318-60.03125c0-33.0918,26.92188-60.01367,60.01318-60.01367
			c33.10107,0,60.03027,26.92188,60.03027,60.01367C227.71484,199.93457,200.78564,226.86426,167.68457,226.86426z"/>
		<path fill="#CCCCCC" d="M167.70117,87.8457c-43.54492,0-78.97119,35.43359-78.97119,78.9873
			c0,43.55469,35.42627,78.98828,78.97119,78.98828c43.5542,0,78.98828-35.43359,78.98828-78.98828
			C246.68945,123.2793,211.25537,87.8457,167.70117,87.8457z M167.70117,239.49121c-40.06348,0-72.65723-32.59473-72.65723-72.6582
			s32.59375-72.65723,72.65723-72.65723s72.65771,32.59375,72.65771,72.65723S207.76465,239.49121,167.70117,239.49121z"/>
		<path fill="#CCCCCC" d="M167.73486,37.30371c-71.42334,0-129.53076,58.10645-129.53076,129.5293
			c0,71.42383,58.10742,129.53027,129.53076,129.53027s129.53076-58.10645,129.53076-129.53027
			C297.26562,95.41016,239.1582,37.30371,167.73486,37.30371z M167.73486,290.03418
			c-67.94189,0-123.2168-55.26758-123.2168-123.20117c0-67.93262,55.2749-123.2002,123.2168-123.2002
			c67.93311,0,123.2002,55.26758,123.2002,123.2002C290.93506,234.7666,235.66797,290.03418,167.73486,290.03418z"/>
		<path fill="#CCCCCC" d="M167.71826,62.57422c-57.47949,0-104.24268,46.77051-104.24268,104.25879
			c0,57.48926,46.76318,104.25977,104.24268,104.25977c57.48877,0,104.25928-46.77051,104.25928-104.25977
			C271.97754,109.34473,225.20703,62.57422,167.71826,62.57422z M167.71826,264.7627
			c-53.99805,0-97.92871-43.93164-97.92871-97.92969s43.93066-97.92871,97.92871-97.92871s97.92871,43.93066,97.92871,97.92871
			S221.71631,264.7627,167.71826,264.7627z"/>
		<path fill="#CCCCCC" d="M167.71826,75.21875c-50.5166,0-91.61523,41.09766-91.61523,91.61426s41.09863,91.61523,91.61523,91.61523
			s91.61523-41.09863,91.61523-91.61523S218.23486,75.21875,167.71826,75.21875z M167.70117,252.13574
			c-47.02637,0-85.28467-38.2666-85.28467-85.30273c0-47.03516,38.2583-85.30176,85.28467-85.30176
			c47.03564,0,85.30176,38.2666,85.30176,85.30176C253.00293,213.86914,214.73682,252.13574,167.70117,252.13574z"/>
		<path fill="#CCCCCC" d="M167.68457,125.76172c-22.64746,0-41.07227,18.42383-41.07227,41.07129
			s18.4248,41.07227,41.07227,41.07227s41.07275-18.4248,41.07275-41.07227S190.33203,125.76172,167.68457,125.76172z
			 M167.68457,201.57617c-19.16602,0-34.7583-15.58594-34.7583-34.74316c0-19.15625,15.59229-34.74219,34.7583-34.74219
			c19.15674,0,34.74219,15.58594,34.74219,34.74219C202.42676,185.99023,186.84131,201.57617,167.68457,201.57617z"/>
		<path fill="#333333" d="M167.66797,157.3623c-5.23145,0-9.4873,4.24902-9.4873,9.4707c0,5.22266,4.25586,9.47168,9.4873,9.47168
			c5.22217,0,9.47021-4.24902,9.47021-9.47168C177.13818,161.61133,172.89014,157.3623,167.66797,157.3623z M167.66797,169.99023
			c-1.75,0-3.17383-1.41602-3.17383-3.15723c0-1.74023,1.42383-3.15625,3.17383-3.15625c1.74072,0,3.15674,1.41602,3.15674,3.15625
			C170.82471,168.57422,169.40869,169.99023,167.66797,169.99023z"/>
		<path fill="#333333" d="M167.66797,144.71875c-12.19385,0-22.11426,9.9209-22.11426,22.11426
			c0,12.19434,9.92041,22.11523,22.11426,22.11523s22.11426-9.9209,22.11426-22.11523
			C189.78223,154.63965,179.86182,144.71875,167.66797,144.71875z M167.66797,182.63379
			c-8.7124,0-15.80078-7.08789-15.80078-15.80078c0-8.71191,7.08838-15.7998,15.80078-15.7998s15.80078,7.08789,15.80078,15.7998
			C183.46875,175.5459,176.38037,182.63379,167.66797,182.63379z"/>
		<path fill="#333333" d="M167.68457,132.09082c-19.16602,0-34.7583,15.58594-34.7583,34.74219
			c0,19.15723,15.59229,34.74316,34.7583,34.74316c19.15674,0,34.74219-15.58594,34.74219-34.74316
			C202.42676,147.67676,186.84131,132.09082,167.68457,132.09082z M167.68457,195.26172
			c-15.68457,0-28.44482-12.75293-28.44482-28.42871S152,138.40527,167.68457,138.40527
			c15.67578,0,28.42871,12.75195,28.42871,28.42773S183.36035,195.26172,167.68457,195.26172z"/>
		<path fill="#333333" d="M167.68457,119.44727c-26.12842,0-47.38574,21.25781-47.38574,47.38574
			c0,26.12891,21.25732,47.38672,47.38574,47.38672c26.12891,0,47.38623-21.25781,47.38623-47.38672
			C215.0708,140.70508,193.81348,119.44727,167.68457,119.44727z M167.68457,207.90527
			c-22.64746,0-41.07227-18.4248-41.07227-41.07227s18.4248-41.07129,41.07227-41.07129s41.07275,18.42383,41.07275,41.07129
			S190.33203,207.90527,167.68457,207.90527z"/>
		<path fill="#333333" d="M167.68457,106.81934c-33.09131,0-60.01318,26.92188-60.01318,60.01367
			c0,33.10156,26.92188,60.03125,60.01318,60.03125c33.10107,0,60.03027-26.92969,60.03027-60.03125
			C227.71484,133.74121,200.78564,106.81934,167.68457,106.81934z M167.68457,220.5498
			c-29.60986,0-53.69971-24.09668-53.69971-53.7168c0-29.61035,24.08984-53.69922,53.69971-53.69922
			c29.61963,0,53.7168,24.08887,53.7168,53.69922C221.40137,196.45312,197.3042,220.5498,167.68457,220.5498z"/>
		<path fill="#333333" d="M167.70117,94.17578c-40.06348,0-72.65723,32.59375-72.65723,72.65723s32.59375,72.6582,72.65723,72.6582
			s72.65771-32.59473,72.65771-72.6582S207.76465,94.17578,167.70117,94.17578z M167.70117,233.17676
			c-36.58203,0-66.34375-29.76172-66.34375-66.34375s29.76172-66.34277,66.34375-66.34277s66.34424,29.76074,66.34424,66.34277
			S204.2832,233.17676,167.70117,233.17676z"/>
		<path fill="#333333" d="M167.70117,81.53125c-47.02637,0-85.28467,38.2666-85.28467,85.30176
			c0,47.03613,38.2583,85.30273,85.28467,85.30273c47.03564,0,85.30176-38.2666,85.30176-85.30273
			C253.00293,119.79785,214.73682,81.53125,167.70117,81.53125z M167.70117,245.82129
			c-43.54492,0-78.97119-35.43359-78.97119-78.98828c0-43.55371,35.42627-78.9873,78.97119-78.9873
			c43.5542,0,78.98828,35.43359,78.98828,78.9873C246.68945,210.3877,211.25537,245.82129,167.70117,245.82129z"/>
		<path fill="#333333" d="M167.71826,68.9043c-53.99805,0-97.92871,43.93066-97.92871,97.92871s43.93066,97.92969,97.92871,97.92969
			s97.92871-43.93164,97.92871-97.92969S221.71631,68.9043,167.71826,68.9043z M167.71826,258.44824
			c-50.5166,0-91.61523-41.09863-91.61523-91.61523s41.09863-91.61426,91.61523-91.61426s91.61523,41.09766,91.61523,91.61426
			S218.23486,258.44824,167.71826,258.44824z"/>
		<path fill="#333333" d="M167.71826,56.25977c-60.96094,0-110.55615,49.60352-110.55615,110.57324
			c0,60.9707,49.59521,110.57422,110.55615,110.57422c60.97021,0,110.57275-49.60352,110.57275-110.57422
			C278.29102,105.86328,228.68848,56.25977,167.71826,56.25977z M167.71826,271.09277
			c-57.47949,0-104.24268-46.77051-104.24268-104.25977c0-57.48828,46.76318-104.25879,104.24268-104.25879
			c57.48877,0,104.25928,46.77051,104.25928,104.25879C271.97754,224.32227,225.20703,271.09277,167.71826,271.09277z"/>
		<path fill="#333333" d="M167.73486,43.63281c-67.94189,0-123.2168,55.26758-123.2168,123.2002
			c0,67.93359,55.2749,123.20117,123.2168,123.20117c67.93311,0,123.2002-55.26758,123.2002-123.20117
			C290.93506,98.90039,235.66797,43.63281,167.73486,43.63281z M167.73486,283.71973
			c-64.46045,0-116.90332-52.43457-116.90332-116.88672c0-64.45117,52.44287-116.88574,116.90332-116.88574
			c64.45166,0,116.88672,52.43457,116.88672,116.88574C284.62158,231.28516,232.18652,283.71973,167.73486,283.71973z"/>
		<path fill="#333333" d="M167.73486,30.98926c-74.90479,0-135.84424,60.93945-135.84424,135.84375
			c0,74.90527,60.93945,135.84473,135.84424,135.84473S303.5791,241.73828,303.5791,166.83301
			C303.5791,91.92871,242.63965,30.98926,167.73486,30.98926z M167.73486,296.36328
			c-71.42334,0-129.53076-58.10645-129.53076-129.53027c0-71.42285,58.10742-129.5293,129.53076-129.5293
			s129.53076,58.10645,129.53076,129.5293C297.26562,238.25684,239.1582,296.36328,167.73486,296.36328z"/>
		<path fill="#333333" d="M167.66797,18.36133c-81.87695,0-148.48828,66.60449-148.48828,148.47168
			c0,81.86816,66.61133,148.47266,148.48828,148.47266c81.86768,0,148.47168-66.60449,148.47168-148.47266
			C316.13965,84.96582,249.53564,18.36133,167.66797,18.36133z M167.66797,308.99121
			c-78.39551,0-142.1748-63.77148-142.1748-142.1582c0-78.38574,63.7793-142.15723,142.1748-142.15723
			c78.38623,0,142.1582,63.77148,142.1582,142.15723C309.82617,245.21973,246.0542,308.99121,167.66797,308.99121z"/>
		<path fill="#333333" d="M167.66797,5.71777c-88.83936,0-161.11572,72.27637-161.11572,161.11523
			c0,88.83984,72.27637,161.11621,161.11572,161.11621s161.11572-72.27637,161.11572-161.11621
			C328.78369,77.99414,256.50732,5.71777,167.66797,5.71777z M167.66797,321.63477
			c-85.3584,0-154.80225-69.44336-154.80225-154.80176c0-85.35742,69.44385-154.80078,154.80225-154.80078
			s154.80225,69.44336,154.80225,154.80078C322.47021,252.19141,253.02637,321.63477,167.66797,321.63477z"/>
		<path fill="#333333" d="M334,217.11426v-31.02148C324.77533,266.26831,258.70361,329.38965,177.23083,334h37.9176
			C271.91931,317.85254,316.92462,273.49243,334,217.11426z"/>
		<path fill="#333333" d="M0.23828,166.83301C0.23828,79.302,67.7453,7.25439,153.42291,0h-34.35107
			C61.26941,16.86768,15.84143,63.02881,0,121.26196v91.14209C15.94397,271.0144,61.8551,317.40552,120.19208,334h37.914
			C70.21777,329.02588,0.23828,255.95312,0.23828,166.83301z"/>
		<path fill="#333333" d="M334,147.57324v-31.02148C317.03748,60.54639,272.50928,16.4104,216.26874,0h-34.35431
			C261.22412,6.7146,324.95276,68.93994,334,147.57324z"/>
		<path fill="#333333" d="M334,250.91162v-15.06738c-18.56335,44.5708-54.53723,80.13525-99.38556,98.15576h15.43823
			C286.20239,316.11523,315.7569,286.85205,334,250.91162z"/>
		<path fill="#333333" d="M334,97.82227V82.75488C315.86963,47.03711,286.56714,17.91382,250.72198,0H235.4281
			C279.89703,18.12256,315.54926,53.52197,334,97.82227z"/>
		<path fill="#333333" d="M99.94104,0H84.64716C47.8858,18.37158,18.00494,48.53296,0,85.50635v15.68311
			C18.02069,55.31689,54.3501,18.57983,99.94104,0z"/>
		<path fill="#333333" d="M0,232.47705v15.68335C18.11407,285.35791,48.24841,315.66089,85.31647,334h15.43823
			C54.78168,315.52734,18.12799,278.62305,0,232.47705z"/>
		<path fill="#333333" d="M71.3114,0H59.28308C35.54614,15.47876,15.29407,35.87402,0,59.74219v12.22559
			C16.95038,42.11865,41.63318,17.21338,71.3114,0z"/>
		<path fill="#333333" d="M334,69.57568V57.63672C318.87433,34.67651,299.13068,15.02002,276.09534,0h-12.02887
			C292.95044,16.75122,317.10083,40.78833,334,69.57568z"/>
		<path fill="#333333" d="M334,276.02979v-11.93872C316.99023,293.06689,292.63715,317.23511,263.50195,334h12.08746
			C298.84253,318.93823,318.76324,299.15869,334,276.02979z"/>
		<path fill="#333333" d="M0,261.69897v12.2251C15.40302,297.9624,35.83276,318.48145,59.78888,334h12.08698
			C41.9447,316.77563,17.05835,291.73828,0,261.69897z"/>
		<path fill="#333333" d="M334,46.51904V36.04077C323.42657,22.62598,311.26575,10.51953,297.8067,0h-10.52423
			C305.23273,12.90259,321.02002,28.62793,334,46.51904z"/>
		<path fill="#333333" d="M334,297.62598v-10.47852C320.90936,305.19092,304.96619,321.03564,286.82581,334h10.54669
			C311.00323,323.40259,323.31366,311.18408,334,297.62598z"/>
		<path fill="#333333" d="M48.12,0H37.59583C23.53369,10.99072,10.89819,23.72192,0,37.85938v10.60229
			C13.23749,29.7627,29.52112,13.3689,48.12,0z"/>
		<path fill="#333333" d="M0,285.20483v10.60254C11.00952,310.08936,23.79492,322.93262,38.03003,334h10.54663
			C29.78632,320.57129,13.34644,304.05762,0,285.20483z"/>
		<path fill="#333333" d="M334,317.1936v-9.59155c-8.08472,9.53613-16.96991,18.37109-26.55627,26.39795h9.64008
			C323.01196,328.69678,328.66302,323.09082,334,317.1936z"/>
		<path fill="#333333" d="M0,305.92871v9.67041c5.75311,6.479,11.87274,12.62402,18.33008,18.40088h9.6394
			C17.82367,325.50391,8.45667,316.1084,0,305.92871z"/>
		<path fill="#333333" d="M27.57574,0h-9.62097C11.63483,5.6792,5.64203,11.71362,0,18.06787v9.67041
			C8.3468,17.69067,17.58185,8.40869,27.57574,0z"/>
		<path fill="#333333" d="M334,26.06494v-9.5918C328.77527,10.7002,323.25092,5.20435,317.45911,0h-9.62158
			C317.27313,7.93848,326.02649,16.65967,334,26.06494z"/>
		<path fill="#333333" d="M334,326.45996c-2.46826,2.57031-4.9928,5.08594-7.5766,7.54004H334V326.45996z"/>
		<path fill="#333333" d="M8.64471,0H0v8.70728C2.80725,5.73193,5.68457,2.82324,8.64471,0z"/>
		<path fill="#333333" d="M0,324.95923V334h9.00146C5.91736,331.0708,2.91895,328.05322,0,324.95923z"/>
		<path fill="#333333" d="M334,7.20654V0h-7.21991C329.24091,2.34717,331.64447,4.75366,334,7.20654z"/>
	</g>
</g>
<g id="Layer_3" display="none">
</g>
<g id="Layer_2" display="none">
</g>
</svg>
