<?xml version="1.0" encoding="utf-8"?>
<!-- Generator: Adobe Illustrator 21.1.0, SVG Export Plug-In . SVG Version: 6.00 Build 0)  -->
<svg version="1.2" baseProfile="tiny" xmlns="http://www.w3.org/2000/svg" xmlns:xlink="http://www.w3.org/1999/xlink" x="0px"
	 y="0px" viewBox="0 0 334 334" xml:space="preserve">
<g id="Layer_1">
	<g>
		<path fill="#CCCCCC" d="M167.66797,93.35934c-40.43213,0-73.32568,32.88623-73.32568,73.30859
			c0,40.42285,32.89355,73.30908,73.32568,73.30908c40.42285,0,73.30908-32.88623,73.30908-73.30908
			C240.97705,126.24557,208.09082,93.35934,167.66797,93.35934z M167.66797,210.66353
			c-24.25928,0-43.99512-19.73633-43.99512-43.99561c0-24.25879,19.73584-43.99511,43.99512-43.99511
			s43.99512,19.73632,43.99512,43.99511C211.66309,190.9272,191.92725,210.66353,167.66797,210.66353z"/>
		<path fill="#CCCCCC" d="M167.66797,152.00288c-8.08643,0-14.66504,6.57861-14.66504,14.66504s6.57861,14.66553,14.66504,14.66553
			s14.66504-6.5791,14.66504-14.66553S175.75439,152.00288,167.66797,152.00288z"/>
		<path fill="#CCCCCC" d="M0,308.85324v24.98218h24.88678C15.94208,326.1832,7.61987,317.82645,0,308.85324z"/>
		<path fill="#CCCCCC" d="M167.66797,34.69869c-72.76807,0-131.96924,59.20117-131.96924,131.96924
			c0,72.76855,59.20117,131.96974,131.96924,131.96974s131.96924-59.20119,131.96924-131.96974
			C299.63721,93.89986,240.43604,34.69869,167.66797,34.69869z M167.66797,269.3071
			c-56.60449,0-102.65576-46.04347-102.65576-102.63918c0-56.59521,46.05127-102.63866,102.65576-102.63866
			c56.5957,0,102.63916,46.04346,102.63916,102.63866C270.30713,223.26363,224.26367,269.3071,167.66797,269.3071z"/>
		<path fill="#CCCCCC" d="M310.45996,333.83542H334V310.4476C326.75183,318.82126,318.8764,326.63565,310.45996,333.83542z"/>
		<path fill="#CCCCCC" d="M334,259.70297V73.63326c-17.32452-30.85114-42.97845-56.41711-73.89807-73.6333H75.24219
			C43.5174,17.66598,17.3266,44.118,0,76.05636v181.22351c17.48907,32.23798,44.00671,58.89062,76.13367,76.55554h183.07666
			C290.52948,316.61612,316.50873,290.85117,334,259.70297z M167.66797,327.96774
			c-88.94092,0-161.29932-72.3589-161.29932-161.29982S78.72705,5.36861,167.66797,5.36861s161.29932,72.3584,161.29932,161.29932
			S256.60889,327.96774,167.66797,327.96774z"/>
		<path fill="#CCCCCC" d="M24.29681-0.00004H0v24.48309C7.45312,15.7062,15.5744,7.51479,24.29681-0.00004z"/>
		<path fill="#CCCCCC" d="M334,22.88863V-0.00004h-22.95001C319.24573,7.06051,326.92041,14.70974,334,22.88863z"/>
		<path fill="#333333" d="M167.66797,122.67281c-24.25928,0-43.99512,19.73632-43.99512,43.99511
			c0,24.25928,19.73584,43.99561,43.99512,43.99561s43.99512-19.73633,43.99512-43.99561
			C211.66309,142.40913,191.92725,122.67281,167.66797,122.67281z M167.66797,181.33345
			c-8.08643,0-14.66504-6.5791-14.66504-14.66553s6.57861-14.66504,14.66504-14.66504s14.66504,6.57861,14.66504,14.66504
			S175.75439,181.33345,167.66797,181.33345z"/>
		<path fill="#333333" d="M167.66797,64.02926c-56.60449,0-102.65576,46.04346-102.65576,102.63866
			c0,56.5957,46.05127,102.63918,102.65576,102.63918c56.5957,0,102.63916-46.04347,102.63916-102.63918
			C270.30713,110.07272,224.26367,64.02926,167.66797,64.02926z M167.66797,239.97701
			c-40.43213,0-73.32568-32.88623-73.32568-73.30908c0-40.42236,32.89355-73.30859,73.32568-73.30859
			c40.42285,0,73.30908,32.88623,73.30908,73.30859C240.97705,207.09077,208.09082,239.97701,167.66797,239.97701z"/>
		<path fill="#333333" d="M167.66797,5.36861c-88.94092,0-161.29932,72.3584-161.29932,161.29932
			s72.3584,161.29982,161.29932,161.29982s161.29932-72.3589,161.29932-161.29982S256.60889,5.36861,167.66797,5.36861z
			 M167.66797,298.63766c-72.76807,0-131.96924-59.20119-131.96924-131.96974c0-72.76806,59.20117-131.96924,131.96924-131.96924
			s131.96924,59.20117,131.96924,131.96924C299.63721,239.43648,240.43604,298.63766,167.66797,298.63766z"/>
		<path fill="#333333" d="M334,310.4476v-50.74463c-17.49127,31.14819-43.47052,56.91315-74.78967,74.13245
			c-0.09845,0.05408-0.19543,0.1106-0.29401,0.16455h51.34912c0.06458-0.05511,0.13-0.10938,0.19452-0.16455
			C318.8764,326.63565,326.75183,318.82126,334,310.4476z"/>
		<path fill="#333333" d="M334,73.63326V22.88863c-7.07959-8.17889-14.75427-15.82813-22.95001-22.88867h-50.94806
			C291.02155,17.21615,316.67548,42.78213,334,73.63326z"/>
		<path fill="#333333" d="M75.24219-0.00004H24.29681C15.5744,7.51479,7.45312,15.7062,0,24.48306v51.5733
			C17.3266,44.118,43.5174,17.66598,75.24219-0.00004z"/>
		<path fill="#333333" d="M0,257.27988v51.57336c7.61987,8.97321,15.94208,17.32996,24.88678,24.98218
			c0.06458,0.05518,0.12988,0.10944,0.19452,0.16455h51.34631c-0.09857-0.05396-0.1955-0.11047-0.29395-0.16455
			C44.00671,316.1705,17.48907,289.51785,0,257.27988z"/>
	</g>
</g>
<g id="Layer_3" display="none">
</g>
<g id="Layer_2" display="none">
</g>
</svg>
