<?xml version="1.0" encoding="utf-8"?>
<!-- Generator: Adobe Illustrator 21.1.0, SVG Export Plug-In . SVG Version: 6.00 Build 0)  -->
<svg version="1.2" baseProfile="tiny" xmlns="http://www.w3.org/2000/svg" xmlns:xlink="http://www.w3.org/1999/xlink" x="0px"
	 y="0px" viewBox="0 0 334 334" xml:space="preserve">
<g id="Layer_1">
	<g>
		<circle fill="#828282" cx="166.33228" cy="166.83301" r="6.80615"/>
		<path fill="#828282" d="M0,244.88818v28.09705C15.74268,297.57092,36.78833,318.44373,61.50244,334h28.53613
			C50.52832,315.89307,18.50879,284.17798,0,244.88818z"/>
		<path fill="#828282" d="M166.33203,132.80127c-18.76562,0-34.03223,15.2666-34.03223,34.03174s15.2666,34.03174,34.03223,34.03174
			s34.03223-15.2666,34.03223-34.03174S185.09766,132.80127,166.33203,132.80127z M166.33203,187.25244
			c-11.25879,0-20.41895-9.16016-20.41895-20.41943s9.16016-20.41943,20.41895-20.41943
			c11.25977,0,20.41992,9.16016,20.41992,20.41943S177.5918,187.25244,166.33203,187.25244z"/>
		<path fill="#828282" d="M166.33203,78.3501c-48.78906,0-88.48242,39.69336-88.48242,88.48291s39.69336,88.48291,88.48242,88.48291
			c48.79004,0,88.4834-39.69336,88.4834-88.48291S215.12207,78.3501,166.33203,78.3501z M166.33203,241.70361
			c-41.28418,0-74.87109-33.58691-74.87109-74.87061s33.58691-74.87061,74.87109-74.87061s74.87109,33.58691,74.87109,74.87061
			S207.61621,241.70361,166.33203,241.70361z"/>
		<path fill="#828282" d="M334,195.89001v-58.11414C322.06323,68.69116,268.33203,13.74121,199.87402,0h-67.08057
			C66.60107,13.28772,14.18066,65.11047,0,130.98535v71.69531C14.30469,269.13135,67.52246,321.27783,134.53418,334h63.59888
			C267.41895,320.84741,321.9624,265.55884,334,195.89001z M166.33203,323.38086
			c-86.31055,0-156.53027-70.22705-156.53027-156.54785S80.02148,10.28516,166.33203,10.28516
			c86.32031,0,156.54785,70.22705,156.54785,156.54785S252.65234,323.38086,166.33203,323.38086z"/>
		<path fill="#828282" d="M334,270.86963v-28.82788C315.71411,282.64722,283.09766,315.45703,242.63257,334h28.53784
			C296.59009,318.00073,318.11914,296.37085,334,270.86963z"/>
		<path fill="#828282" d="M334,38.89893V17.55078C328.50757,11.38855,322.68652,5.52637,316.55518,0h-21.20068
			C309.85474,11.23962,322.85254,24.32422,334,38.89893z"/>
		<path fill="#828282" d="M166.33203,51.12451c-63.80273,0-115.70898,51.90625-115.70898,115.7085
			s51.90625,115.70898,115.70898,115.70898s115.70898-51.90674,115.70898-115.70898S230.13477,51.12451,166.33203,51.12451z
			 M166.33203,268.9292c-56.2959,0-102.0957-45.80029-102.0957-102.09619s45.7998-102.09619,102.0957-102.09619
			s102.09668,45.80029,102.09668,102.09619S222.62793,268.9292,166.33203,268.9292z"/>
		<path fill="#828282" d="M166.33203,23.89844c-78.80469,0-142.91699,64.12012-142.91699,142.93457
			s64.1123,142.93457,142.91699,142.93457c78.81445,0,142.93457-64.12012,142.93457-142.93457
			S245.14648,23.89844,166.33203,23.89844z M166.33203,296.15527c-71.30859,0-129.32227-58.01367-129.32227-129.32227
			c0-71.30811,58.01367-129.32178,129.32227-129.32178S295.6543,95.5249,295.6543,166.83301
			C295.6543,238.1416,237.64062,296.15527,166.33203,296.15527z"/>
		<path fill="#828282" d="M0,296.49194v21.11426C5.21191,323.35156,10.72314,328.81897,16.49658,334h21.25781
			C23.65479,323.12793,10.95898,310.52148,0,296.49194z"/>
		<path fill="#828282" d="M166.33203,105.57568c-33.77734,0-61.25781,27.47998-61.25781,61.25732
			s27.48047,61.25732,61.25781,61.25732s61.25781-27.47998,61.25781-61.25732S200.10938,105.57568,166.33203,105.57568z
			 M166.33203,214.47803c-26.27148,0-47.64551-21.37354-47.64551-47.64502s21.37402-47.64502,47.64551-47.64502
			s47.64551,21.37354,47.64551,47.64502S192.60352,214.47803,166.33203,214.47803z"/>
		<path fill="#828282" d="M334,316.11523v-21.3479C322.74146,309.4873,309.59424,322.68555,294.91943,334h21.25928
			C322.44727,328.37512,328.396,322.40271,334,316.11523z"/>
		<path fill="#828282" d="M89.32275,0H60.96826C36.48438,15.52051,15.62964,36.27197,0,60.68091v28.09656
			C18.39648,49.72583,50.14258,18.16113,89.32275,0z"/>
		<path fill="#828282" d="M334,91.62402V62.79663C318.23022,37.47388,296.89258,15.96558,271.70459,0h-28.35596
			C283.48145,18.60107,315.82251,51.25879,334,91.62402z"/>
		<path fill="#828282" d="M37.31958,0H16.12036C10.48291,5.08142,5.09912,10.43872,0,16.05981v21.1145
			C10.84668,23.28882,23.39307,10.7959,37.31958,0z"/>
		<path fill="#7D7D7D" d="M166.33203,146.41357c-11.25879,0-20.41895,9.16016-20.41895,20.41943s9.16016,20.41943,20.41895,20.41943
			c11.25977,0,20.41992-9.16016,20.41992-20.41943S177.5918,146.41357,166.33203,146.41357z M166.33203,173.63916
			c-3.75293,0-6.80566-3.05322-6.80566-6.80615s3.05273-6.80615,6.80566-6.80615s6.80664,3.05322,6.80664,6.80615
			S170.08496,173.63916,166.33203,173.63916z"/>
		<path fill="#7D7D7D" d="M166.33203,119.18799c-26.27148,0-47.64551,21.37354-47.64551,47.64502
			s21.37402,47.64502,47.64551,47.64502s47.64551-21.37354,47.64551-47.64502S192.60352,119.18799,166.33203,119.18799z
			 M166.33203,200.86475c-18.76562,0-34.03223-15.2666-34.03223-34.03174s15.2666-34.03174,34.03223-34.03174
			s34.03223,15.2666,34.03223,34.03174S185.09766,200.86475,166.33203,200.86475z"/>
		<path fill="#7D7D7D" d="M166.33203,91.9624c-41.28418,0-74.87109,33.58691-74.87109,74.87061s33.58691,74.87061,74.87109,74.87061
			s74.87109-33.58691,74.87109-74.87061S207.61621,91.9624,166.33203,91.9624z M166.33203,228.09033
			c-33.77734,0-61.25781-27.47998-61.25781-61.25732s27.48047-61.25732,61.25781-61.25732s61.25781,27.47998,61.25781,61.25732
			S200.10938,228.09033,166.33203,228.09033z"/>
		<path fill="#7D7D7D" d="M166.33203,64.73682c-56.2959,0-102.0957,45.80029-102.0957,102.09619
			s45.7998,102.09619,102.0957,102.09619s102.09668-45.80029,102.09668-102.09619S222.62793,64.73682,166.33203,64.73682z
			 M166.33203,255.31592c-48.78906,0-88.48242-39.69336-88.48242-88.48291s39.69336-88.48291,88.48242-88.48291
			c48.79004,0,88.4834,39.69336,88.4834,88.48291S215.12207,255.31592,166.33203,255.31592z"/>
		<path fill="#7D7D7D" d="M166.33203,37.51123c-71.30859,0-129.32227,58.01367-129.32227,129.32178
			c0,71.30859,58.01367,129.32227,129.32227,129.32227S295.6543,238.1416,295.6543,166.83301
			C295.6543,95.5249,237.64062,37.51123,166.33203,37.51123z M166.33203,282.54199
			c-63.80273,0-115.70898-51.90674-115.70898-115.70898s51.90625-115.7085,115.70898-115.7085
			s115.70898,51.90625,115.70898,115.7085S230.13477,282.54199,166.33203,282.54199z"/>
		<path fill="#7D7D7D" d="M166.33203,10.28516c-86.31055,0-156.53027,70.22705-156.53027,156.54785
			s70.21973,156.54785,156.53027,156.54785c86.32031,0,156.54785-70.22705,156.54785-156.54785
			S252.65234,10.28516,166.33203,10.28516z M166.33203,309.76758c-78.80469,0-142.91699-64.12012-142.91699-142.93457
			S87.52734,23.89844,166.33203,23.89844c78.81445,0,142.93457,64.12012,142.93457,142.93457
			S245.14648,309.76758,166.33203,309.76758z"/>
		<path fill="#7D7D7D" d="M334,242.04175v-46.15173C321.9624,265.55884,267.41895,320.84741,198.13306,334h44.49951
			C283.09766,315.45703,315.71411,282.64722,334,242.04175z"/>
		<path fill="#7D7D7D" d="M334,137.77588V91.62402C315.82251,51.25879,283.48145,18.60107,243.34863,0h-43.47461
			C268.33203,13.74121,322.06323,68.69116,334,137.77588z"/>
		<path fill="#7D7D7D" d="M132.79346,0h-43.4707C50.14258,18.16113,18.39648,49.72583,0,88.77747v42.20789
			C14.18066,65.11047,66.60107,13.28772,132.79346,0z"/>
		<path fill="#7D7D7D" d="M0,202.68066v42.20752C18.50879,284.17798,50.52832,315.89307,90.03857,334h44.49561
			C67.52246,321.27783,14.30469,269.13135,0,202.68066z"/>
		<path fill="#7D7D7D" d="M334,294.76733v-23.89771c-15.88086,25.50122-37.40991,47.1311-62.82959,63.13037h23.74902
			C309.59424,322.68555,322.74146,309.4873,334,294.76733z"/>
		<path fill="#7D7D7D" d="M0,272.98523v23.50671C10.95898,310.52148,23.65479,323.12793,37.75439,334h23.74805
			C36.78833,318.44373,15.74268,297.57092,0,272.98523z"/>
		<path fill="#7D7D7D" d="M60.96826,0H37.31958C23.39307,10.7959,10.84668,23.28882,0,37.17432v23.50659
			C15.62964,36.27197,36.48438,15.52051,60.96826,0z"/>
		<path fill="#7D7D7D" d="M334,62.79663V38.89893C322.85254,24.32422,309.85474,11.23962,295.35449,0h-23.6499
			C296.89258,15.96558,318.23022,37.47388,334,62.79663z"/>
		<path fill="#7D7D7D" d="M334,17.55078V0h-17.44482C322.68652,5.52637,328.50757,11.38855,334,17.55078z"/>
		<path fill="#7D7D7D" d="M0,317.6062V334h16.49658C10.72314,328.81897,5.21191,323.35156,0,317.6062z"/>
		<path fill="#7D7D7D" d="M334,316.11523c-5.604,6.28748-11.55273,12.25989-17.82129,17.88477H334V316.11523z"/>
		<path fill="#7D7D7D" d="M16.12036,0H0v16.05981C5.09912,10.43872,10.48291,5.08142,16.12036,0z"/>
	</g>
</g>
<g id="Layer_3" display="none">
</g>
<g id="Layer_2" display="none">
</g>
</svg>
