<?xml version="1.0" encoding="utf-8"?>
<!-- Generator: Adobe Illustrator 21.1.0, SVG Export Plug-In . SVG Version: 6.00 Build 0)  -->
<svg version="1.2" baseProfile="tiny" xmlns="http://www.w3.org/2000/svg" xmlns:xlink="http://www.w3.org/1999/xlink" x="0px"
	 y="0px" viewBox="0 0 334 334" xml:space="preserve">
<g id="Layer_1">
	<g>
		<path fill="#898989" d="M0,204.0528v61.25177C16.7179,293.62762,40.45703,317.32892,68.81079,334h61.73608
			C65.57031,320.04889,14.2439,268.92139,0,204.0528z"/>
		<path fill="#898989" d="M166.33105,156.15137c-6.26758,0-11.36621,5.09131-11.36621,11.34961s5.09863,11.34961,11.36621,11.34961
			c6.25781,0,11.34961-5.09131,11.34961-11.34961S172.58887,156.15137,166.33105,156.15137z"/>
		<path fill="#898989" d="M0,304.70227V334h29.33472C18.64868,325.19165,8.82117,315.3775,0,304.70227z"/>
		<path fill="#898989" d="M166.33105,110.73633c-31.30957,0-56.78125,25.46436-56.78125,56.76465
			s25.47168,56.76465,56.78125,56.76465c31.2998,0,56.76465-25.46436,56.76465-56.76465S197.63086,110.73633,166.33105,110.73633z
			 M166.33105,201.5498c-18.78418,0-34.06543-15.27441-34.06543-34.04883s15.28125-34.04883,34.06543-34.04883
			c18.77441,0,34.04883,15.27441,34.04883,34.04883S185.10547,201.5498,166.33105,201.5498z"/>
		<path fill="#898989" d="M166.33105,19.90625c-81.38379,0-147.59473,66.21094-147.59473,147.59473
			S84.94727,315.0957,166.33105,315.0957s147.59473-66.21094,147.59473-147.59473S247.71484,19.90625,166.33105,19.90625z
			 M166.33105,292.37988c-68.86719,0-124.89551-56.02051-124.89551-124.87891S97.46387,42.62207,166.33105,42.62207
			c68.85938,0,124.87988,56.02051,124.87988,124.87891S235.19043,292.37988,166.33105,292.37988z"/>
		<path fill="#898989" d="M166.33105,65.32129c-56.35156,0-102.19629,45.8374-102.19629,102.17969
			s45.84473,102.17969,102.19629,102.17969c56.34277,0,102.18066-45.8374,102.18066-102.17969
			S222.67383,65.32129,166.33105,65.32129z M166.33105,246.96484c-43.8252,0-79.48047-35.64746-79.48047-79.46387
			s35.65527-79.46387,79.48047-79.46387c43.81641,0,79.46387,35.64746,79.46387,79.46387S210.14746,246.96484,166.33105,246.96484z"
			/>
		<path fill="#898989" d="M30.57812,0H0v30.29968C9.16016,19.21423,19.41309,9.06628,30.57812,0z"/>
		<path fill="#898989" d="M334,31.9563V0h-31.91577C313.80029,9.51367,324.50049,20.22821,334,31.9563z"/>
		<path fill="#898989" d="M334,263.01874v-65.65045C321.91626,265.39172,269.30933,319.57281,202.11536,334h61.73621
			C292.96631,316.88153,317.22241,292.35468,334,263.01874z"/>
		<path fill="#898989" d="M303.32764,334H334v-30.95435C324.83557,314.36011,314.5614,324.74023,303.32764,334z"/>
		<path fill="#898989" d="M135.55713,0H70.51331C41.40454,16.71655,17.05261,40.80725,0,69.69739v61.25177
			C14.60815,64.42133,68.21875,12.34137,135.55713,0z"/>
		<path fill="#898989" d="M334,137.63367V71.98322C316.89526,42.07526,292.02368,17.15637,262.14893,0h-65.04395
			C266.68408,12.75208,321.61731,67.92773,334,137.63367z"/>
		<path fill="#767676" d="M166.33105,133.45215c-18.78418,0-34.06543,15.27441-34.06543,34.04883
			s15.28125,34.04883,34.06543,34.04883c18.77441,0,34.04883-15.27441,34.04883-34.04883S185.10547,133.45215,166.33105,133.45215z
			 M166.33105,178.85059c-6.26758,0-11.36621-5.09131-11.36621-11.34961s5.09863-11.34961,11.36621-11.34961
			c6.25781,0,11.34961,5.09131,11.34961,11.34961S172.58887,178.85059,166.33105,178.85059z"/>
		<path fill="#767676" d="M166.33105,88.03711c-43.8252,0-79.48047,35.64746-79.48047,79.46387s35.65527,79.46387,79.48047,79.46387
			c43.81641,0,79.46387-35.64746,79.46387-79.46387S210.14746,88.03711,166.33105,88.03711z M166.33105,224.26562
			c-31.30957,0-56.78125-25.46436-56.78125-56.76465s25.47168-56.76465,56.78125-56.76465
			c31.2998,0,56.76465,25.46436,56.76465,56.76465S197.63086,224.26562,166.33105,224.26562z"/>
		<path fill="#767676" d="M166.33105,42.62207c-68.86719,0-124.89551,56.02051-124.89551,124.87891
			s56.02832,124.87891,124.89551,124.87891c68.85938,0,124.87988-56.02051,124.87988-124.87891
			S235.19043,42.62207,166.33105,42.62207z M166.33105,269.68066c-56.35156,0-102.19629-45.8374-102.19629-102.17969
			S109.97949,65.32129,166.33105,65.32129c56.34277,0,102.18066,45.8374,102.18066,102.17969
			S222.67383,269.68066,166.33105,269.68066z"/>
		<path fill="#767676" d="M334,197.36829v-59.73462C321.61731,67.92773,266.68408,12.75208,197.10498,0h-61.54785
			C68.21875,12.34137,14.60815,64.42133,0,130.94916v73.10364C14.2439,268.92139,65.57031,320.04889,130.54688,334h71.56848
			C269.30933,319.57281,321.91626,265.39172,334,197.36829z M166.33105,315.0957
			c-81.38379,0-147.59473-66.21094-147.59473-147.59473S84.94727,19.90625,166.33105,19.90625
			s147.59473,66.21094,147.59473,147.59473S247.71484,315.0957,166.33105,315.0957z"/>
		<path fill="#767676" d="M0,265.30457v39.39771C8.82117,315.3775,18.64868,325.19165,29.33472,334h39.47607
			C40.45703,317.32892,16.7179,293.62762,0,265.30457z"/>
		<path fill="#767676" d="M334,303.04565v-40.02692C317.22241,292.35468,292.96631,316.88153,263.85156,334h39.47607
			C314.5614,324.74023,324.83557,314.36011,334,303.04565z"/>
		<path fill="#767676" d="M334,71.98322V31.9563C324.50049,20.22821,313.80029,9.51367,302.08423,0h-39.9353
			C292.02368,17.15637,316.89526,42.07526,334,71.98322z"/>
		<path fill="#767676" d="M70.51331,0H30.57812C19.41309,9.06628,9.16016,19.21423,0,30.29968v39.39771
			C17.05261,40.80725,41.40454,16.71655,70.51331,0z"/>
	</g>
</g>
<g id="Layer_3" display="none">
</g>
<g id="Layer_2" display="none">
</g>
</svg>
