<?xml version="1.0" encoding="utf-8"?>
<!-- Generator: Adobe Illustrator 21.1.0, SVG Export Plug-In . SVG Version: 6.00 Build 0)  -->
<svg version="1.2" baseProfile="tiny" xmlns="http://www.w3.org/2000/svg" xmlns:xlink="http://www.w3.org/1999/xlink" x="0px"
	 y="0px" viewBox="0 0 334 334" xml:space="preserve">
<g id="Layer_1">
	<g>
		<path fill="#909090" d="M42.15991,0H0v42.67596C11.93555,26.51099,26.14648,12.12701,42.15991,0z"/>
		<path fill="#909090" d="M334,203.4585v-74.58759C319.69336,65.02313,269.46741,14.59271,205.72681,0h-76.11377
			C63.68665,15.0946,12.21362,68.53296,0,135.50403v61.32129C12.71704,266.55646,67.99536,321.61774,137.83472,334h59.66956
			C265.12012,322.01318,319.0835,270.02814,334,203.4585z M167.66846,298.73535c-73.09961,0-132.5708-59.4707-132.5708-132.57074
			c0-73.09961,59.47119-132.57031,132.5708-132.57031S300.23877,93.065,300.23877,166.16461
			C300.23877,239.26465,240.76807,298.73535,167.66846,298.73535z"/>
		<path fill="#909090" d="M167.66846,71.47614c-52.21143,0-94.68896,42.47705-94.68896,94.68848
			c0,52.21136,42.47754,94.6889,94.68896,94.6889s94.68848-42.47754,94.68848-94.6889
			C262.35693,113.95319,219.87988,71.47614,167.66846,71.47614z M167.66797,222.98779
			c-31.32324,0-56.80615-25.49072-56.80615-56.82318c0-31.33203,25.48291-56.82275,56.80615-56.82275
			c31.33252,0,56.82324,25.49072,56.82324,56.82275C224.49121,197.49707,199.00049,222.98779,167.66797,222.98779z"/>
		<path fill="#909090" d="M334,40.86383V0h-40.81348C308.60083,11.67236,322.34729,25.43396,334,40.86383z"/>
		<path fill="#909090" d="M0,289.65375V334h44.39954C27.47046,321.53088,12.48877,306.56818,0,289.65375z"/>
		<path fill="#909090" d="M167.66797,147.22369c-10.43457,0-18.92432,8.49707-18.92432,18.94092
			c0,10.44427,8.48975,18.94135,18.92432,18.94135c10.44434,0,18.94141-8.49707,18.94141-18.94135
			C186.60938,155.72076,178.1123,147.22369,167.66797,147.22369z"/>
		<path fill="#909090" d="M334,291.46588C321.78613,307.63904,307.27063,321.9776,290.94666,334H334V291.46588z"/>
		<path fill="#6F6F6F" d="M167.66797,109.34186c-31.32324,0-56.80615,25.49072-56.80615,56.82275
			c0,31.33246,25.48291,56.82318,56.80615,56.82318c31.33252,0,56.82324-25.49072,56.82324-56.82318
			C224.49121,134.83258,199.00049,109.34186,167.66797,109.34186z M167.66797,185.10596
			c-10.43457,0-18.92432-8.49707-18.92432-18.94135c0-10.44385,8.48975-18.94092,18.92432-18.94092
			c10.44434,0,18.94141,8.49707,18.94141,18.94092C186.60938,176.60889,178.1123,185.10596,167.66797,185.10596z"/>
		<path fill="#6F6F6F" d="M167.66846,33.5943c-73.09961,0-132.5708,59.4707-132.5708,132.57031
			c0,73.10004,59.47119,132.57074,132.5708,132.57074s132.57031-59.4707,132.57031-132.57074
			C300.23877,93.065,240.76807,33.5943,167.66846,33.5943z M167.66846,260.85352c-52.21143,0-94.68896-42.47754-94.68896-94.6889
			c0-52.21143,42.47754-94.68848,94.68896-94.68848s94.68848,42.47705,94.68848,94.68848
			C262.35693,218.37598,219.87988,260.85352,167.66846,260.85352z"/>
		<path fill="#6F6F6F" d="M129.61304,0H42.15991C26.14648,12.12701,11.93555,26.51099,0,42.67596v92.82806
			C12.21362,68.53296,63.68665,15.0946,129.61304,0z"/>
		<path fill="#6F6F6F" d="M334,291.46588V203.4585C319.0835,270.02814,265.12012,322.01318,197.50427,334h93.44238
			C307.27063,321.9776,321.78613,307.63904,334,291.46588z"/>
		<path fill="#6F6F6F" d="M334,128.87091V40.86383C322.34729,25.43396,308.60083,11.67236,293.18652,0h-87.45972
			C269.46741,14.59271,319.69336,65.02313,334,128.87091z"/>
		<path fill="#6F6F6F" d="M0,196.82532v92.82843C12.48877,306.56818,27.47046,321.53088,44.39954,334h93.43518
			C67.99536,321.61774,12.71704,266.55646,0,196.82532z"/>
	</g>
</g>
<g id="Layer_3" display="none">
</g>
<g id="Layer_2" display="none">
</g>
</svg>
