<?xml version="1.0" encoding="utf-8"?>
<!-- Generator: Adobe Illustrator 21.1.0, SVG Export Plug-In . SVG Version: 6.00 Build 0)  -->
<svg version="1.2" baseProfile="tiny" xmlns="http://www.w3.org/2000/svg" xmlns:xlink="http://www.w3.org/1999/xlink" x="0px"
	 y="0px" viewBox="0 0 334 334" xml:space="preserve">
<g id="Layer_1">
	<g>
		<path fill="#818181" d="M334,200.39014v-68.45087C320.63721,66.64105,269.81836,14.82593,205.05884,0h-76.11353
			C64.16284,14.8327,13.33325,66.6886,0,132.02887v68.27167C13.89258,268.38123,68.49146,321.8241,137.16675,334h59.66968
			C265.48877,321.82941,320.07666,268.42828,334,200.39014z M167,298.73535c-73.09961,0-132.57129-59.4707-132.57129-132.57074
			C34.42871,93.065,93.90039,33.5943,167,33.5943S299.57129,93.065,299.57129,166.16461
			C299.57129,239.26465,240.09961,298.73535,167,298.73535z"/>
		<path fill="#818181" d="M290.2793,334H334v-43.41095C321.64966,307.12268,306.89917,321.7597,290.2793,334z"/>
		<path fill="#818181" d="M167,71.47614c-52.21191,0-94.68848,42.47705-94.68848,94.68848
			c0,52.21136,42.47656,94.6889,94.68848,94.6889s94.68848-42.47754,94.68848-94.6889
			C261.68848,113.95319,219.21191,71.47614,167,71.47614z M167,222.98779c-31.32324,0-56.80664-25.49072-56.80664-56.82318
			c0-31.33203,25.4834-56.82275,56.80664-56.82275c31.33203,0,56.82324,25.49072,56.82324,56.82275
			C223.82324,197.49707,198.33203,222.98779,167,222.98779z"/>
		<path fill="#818181" d="M334,41.74066V0h-41.48096C308.22632,11.8941,322.20703,25.95337,334,41.74066z"/>
		<path fill="#818181" d="M41.49146,0H0v41.76001C11.79492,25.9649,25.7793,11.89893,41.49146,0z"/>
		<path fill="#818181" d="M0,290.5697V334h43.7312C27.1062,321.755,12.35205,307.11115,0,290.5697z"/>
		<path fill="#818181" d="M167,147.22369c-10.43457,0-18.92383,8.49707-18.92383,18.94092
			c0,10.44427,8.48926,18.94135,18.92383,18.94135c10.44434,0,18.94043-8.49707,18.94043-18.94135
			C185.94043,155.72076,177.44434,147.22369,167,147.22369z"/>
		<path fill="#7E7E7E" d="M167,109.34186c-31.32324,0-56.80664,25.49072-56.80664,56.82275
			c0,31.33246,25.4834,56.82318,56.80664,56.82318c31.33203,0,56.82324-25.49072,56.82324-56.82318
			C223.82324,134.83258,198.33203,109.34186,167,109.34186z M167,185.10596c-10.43457,0-18.92383-8.49707-18.92383-18.94135
			c0-10.44385,8.48926-18.94092,18.92383-18.94092c10.44434,0,18.94043,8.49707,18.94043,18.94092
			C185.94043,176.60889,177.44434,185.10596,167,185.10596z"/>
		<path fill="#7E7E7E" d="M167,33.5943c-73.09961,0-132.57129,59.4707-132.57129,132.57031
			c0,73.10004,59.47168,132.57074,132.57129,132.57074s132.57129-59.4707,132.57129-132.57074
			C299.57129,93.065,240.09961,33.5943,167,33.5943z M167,260.85352c-52.21191,0-94.68848-42.47754-94.68848-94.6889
			c0-52.21143,42.47656-94.68848,94.68848-94.68848s94.68848,42.47705,94.68848,94.68848
			C261.68848,218.37598,219.21191,260.85352,167,260.85352z"/>
		<path fill="#7E7E7E" d="M0,200.30054v90.26917C12.35205,307.11115,27.1062,321.755,43.7312,334h93.43555
			C68.49146,321.8241,13.89258,268.38123,0,200.30054z"/>
		<path fill="#7E7E7E" d="M334,290.58905v-90.19891C320.07666,268.42828,265.48877,321.82941,196.83643,334h93.44287
			C306.89917,321.7597,321.64966,307.12268,334,290.58905z"/>
		<path fill="#7E7E7E" d="M128.94531,0H41.49146C25.7793,11.89893,11.79492,25.9649,0,41.76001v90.26886
			C13.33325,66.6886,64.16284,14.8327,128.94531,0z"/>
		<path fill="#7E7E7E" d="M334,131.93927V41.74066C322.20703,25.95337,308.22632,11.8941,292.51904,0h-87.46021
			C269.81836,14.82593,320.63721,66.64105,334,131.93927z"/>
	</g>
</g>
<g id="Layer_3" display="none">
</g>
<g id="Layer_2" display="none">
</g>
</svg>
