<?xml version="1.0" encoding="utf-8"?>
<!-- Generator: Adobe Illustrator 21.1.0, SVG Export Plug-In . SVG Version: 6.00 Build 0)  -->
<svg version="1.2" baseProfile="tiny" xmlns="http://www.w3.org/2000/svg" xmlns:xlink="http://www.w3.org/1999/xlink" x="0px"
	 y="0px" viewBox="0 0 334 334" xml:space="preserve">
<g id="Layer_1">
	<g>
		<path fill="#CCCCCC" d="M167.66797,210.11816c24.23584,0,43.95361-19.71777,43.95361-43.95361
			s-19.71777-43.95361-43.95361-43.95361c-24.22705,0-43.93701,19.71777-43.93701,43.95361S143.44092,210.11816,167.66797,210.11816
			z M167.66797,139.78271c14.54688,0,26.38184,11.83496,26.38184,26.38184c0,14.54736-11.83496,26.38232-26.38184,26.38232
			c-14.53809,0-26.36523-11.83496-26.36523-26.38232C141.30273,151.61768,153.12988,139.78271,167.66797,139.78271z"/>
		<path fill="#CCCCCC" d="M0,279.04968v29.02258C7.92017,317.41626,16.60406,326.09033,25.95691,334h29.09174
			C33.3576,319.40015,14.63544,300.71411,0,279.04968z"/>
		<path fill="#CCCCCC" d="M334,51.36993V22.70258C327.00183,14.59906,319.42535,7.00854,311.33099,0h-28.62726
			C302.72601,13.90393,320.12427,31.32672,334,51.36993z"/>
		<path fill="#CCCCCC" d="M52.62292,0H23.98224C15.37549,7.45276,7.36267,15.57104,0,24.2572v29.02258
			C14.08569,32.42926,31.96295,14.34558,52.62292,0z"/>
		<path fill="#CCCCCC" d="M334,309.62695v-28.66748C319.56549,301.80994,301.32495,319.83276,280.27826,334h29.07794
			C318.19147,326.52856,326.43835,318.38281,334,309.62695z"/>
		<path fill="#CCCCCC" d="M334,246.1803v-64.93835c-7.64728,85.05591-79.3194,151.94263-166.33203,151.94263
			c-92.09521,0-167.02002-74.9248-167.02002-167.02002C0.64795,79.79285,66.54968,8.52484,150.71063,0H87.30914
			C48.92267,18.63586,17.92969,50.18854,0,88.9696v154.39001C18.47845,283.32764,50.83472,315.61401,90.85651,334h153.61597
			C283.54669,316.04761,315.32294,284.84851,334,246.1803z"/>
		<path fill="#CCCCCC" d="M167.66797,315.59668c82.39697,0,149.43213-67.03516,149.43213-149.43213
			S250.06494,16.73242,167.66797,16.73242S18.23584,83.76758,18.23584,166.16455S85.271,315.59668,167.66797,315.59668z
			 M167.66797,34.3042c72.70801,0,131.86035,59.15234,131.86035,131.86035c0,72.7085-59.15234,131.86084-131.86035,131.86084
			c-72.7085,0-131.86084-59.15234-131.86084-131.86084C35.80713,93.45654,94.95947,34.3042,167.66797,34.3042z"/>
		<path fill="#CCCCCC" d="M334,151.0871V86.14886C315.89099,48.65674,285.46942,18.18286,248.01953,0h-63.39423
			C263.83374,8.02319,326.85577,71.62604,334,151.0871z"/>
		<path fill="#CCCCCC" d="M167.66797,280.4375c63.00977,0,114.27246-51.2627,114.27246-114.27295
			c0-63.00977-51.2627-114.27246-114.27246-114.27246c-63.01025,0-114.27295,51.2627-114.27295,114.27246
			C53.39502,229.1748,104.65771,280.4375,167.66797,280.4375z M167.66797,69.46387c53.32129,0,96.70117,43.37988,96.70117,96.70068
			c0,53.32129-43.37988,96.70117-96.70117,96.70117S70.9668,219.48584,70.9668,166.16455
			C70.9668,112.84375,114.34668,69.46387,167.66797,69.46387z"/>
		<path fill="#CCCCCC" d="M167.66797,174.95898c4.84912,0,8.79395-3.94531,8.79395-8.79443s-3.94482-8.79395-8.79395-8.79395
			c-4.83984,0-8.77734,3.94482-8.77734,8.79395S162.82812,174.95898,167.66797,174.95898z"/>
		<path fill="#CCCCCC" d="M167.66797,245.27783c43.62305,0,79.11328-35.49023,79.11328-79.11328
			s-35.49023-79.11279-79.11328-79.11279s-79.11328,35.48975-79.11328,79.11279S124.04492,245.27783,167.66797,245.27783z
			 M167.66797,104.62305c33.93408,0,61.5415,27.60742,61.5415,61.5415s-27.60742,61.5415-61.5415,61.5415
			c-33.9248,0-61.5249-27.60742-61.5249-61.5415S133.74316,104.62305,167.66797,104.62305z"/>
		<path fill="#333333" d="M167.66797,192.54688c14.54688,0,26.38184-11.83496,26.38184-26.38232
			c0-14.54688-11.83496-26.38184-26.38184-26.38184c-14.53809,0-26.36523,11.83496-26.36523,26.38184
			C141.30273,180.71191,153.12988,192.54688,167.66797,192.54688z M167.66797,157.37061c4.84912,0,8.79395,3.94482,8.79395,8.79395
			s-3.94482,8.79443-8.79395,8.79443c-4.83984,0-8.77734-3.94531-8.77734-8.79443S162.82812,157.37061,167.66797,157.37061z"/>
		<path fill="#333333" d="M167.66797,227.70605c33.93408,0,61.5415-27.60742,61.5415-61.5415s-27.60742-61.5415-61.5415-61.5415
			c-33.9248,0-61.5249,27.60742-61.5249,61.5415S133.74316,227.70605,167.66797,227.70605z M167.66797,122.21094
			c24.23584,0,43.95361,19.71777,43.95361,43.95361s-19.71777,43.95361-43.95361,43.95361
			c-24.22705,0-43.93701-19.71777-43.93701-43.95361S143.44092,122.21094,167.66797,122.21094z"/>
		<path fill="#333333" d="M167.66797,262.86572c53.32129,0,96.70117-43.37988,96.70117-96.70117
			c0-53.3208-43.37988-96.70068-96.70117-96.70068S70.9668,112.84375,70.9668,166.16455
			C70.9668,219.48584,114.34668,262.86572,167.66797,262.86572z M167.66797,87.05176
			c43.62305,0,79.11328,35.48975,79.11328,79.11279s-35.49023,79.11328-79.11328,79.11328s-79.11328-35.49023-79.11328-79.11328
			S124.04492,87.05176,167.66797,87.05176z"/>
		<path fill="#333333" d="M167.66797,298.02539c72.70801,0,131.86035-59.15234,131.86035-131.86084
			c0-72.70801-59.15234-131.86035-131.86035-131.86035c-72.7085,0-131.86084,59.15234-131.86084,131.86035
			C35.80713,238.87305,94.95947,298.02539,167.66797,298.02539z M167.66797,51.89209
			c63.00977,0,114.27246,51.2627,114.27246,114.27246c0,63.01025-51.2627,114.27295-114.27246,114.27295
			c-63.01025,0-114.27295-51.2627-114.27295-114.27295C53.39502,103.15479,104.65771,51.89209,167.66797,51.89209z"/>
		<path fill="#333333" d="M0.64795,166.16455c0,92.09521,74.9248,167.02002,167.02002,167.02002
			c87.01263,0,158.68475-66.88672,166.33203-151.94263V151.0871C326.85577,71.62604,263.83374,8.02319,184.62531,0h-33.91467
			C66.54968,8.52484,0.64795,79.79285,0.64795,166.16455z M167.66797,16.73242c82.39697,0,149.43213,67.03516,149.43213,149.43213
			s-67.03516,149.43213-149.43213,149.43213S18.23584,248.56152,18.23584,166.16455S85.271,16.73242,167.66797,16.73242z"/>
		<path fill="#333333" d="M334,280.95947V246.1803c-18.67706,38.66821-50.45331,69.86731-89.52753,87.8197h35.80579
			C301.32495,319.83276,319.56549,301.80994,334,280.95947z"/>
		<path fill="#333333" d="M87.30914,0H52.62292C31.96295,14.34558,14.08569,32.42926,0,53.27979V88.9696
			C17.92969,50.18854,48.92267,18.63586,87.30914,0z"/>
		<path fill="#333333" d="M334,86.14886V51.36993C320.12427,31.32672,302.72601,13.90393,282.70374,0h-34.6842
			C285.46942,18.18286,315.89099,48.65674,334,86.14886z"/>
		<path fill="#333333" d="M0,243.35962v35.69006C14.63544,300.71411,33.3576,319.40015,55.04865,334h35.80786
			C50.83472,315.61401,18.47845,283.32764,0,243.35962z"/>
		<path fill="#333333" d="M334,22.70258V0h-22.66901C319.42535,7.00854,327.00183,14.59906,334,22.70258z"/>
		<path fill="#333333" d="M334,309.62695c-7.56165,8.75586-15.80853,16.90161-24.6438,24.37305H334V309.62695z"/>
		<path fill="#333333" d="M0,308.07227V334h25.95691C16.60406,326.09033,7.92017,317.41626,0,308.07227z"/>
		<path fill="#333333" d="M23.98224,0H0v24.2572C7.36267,15.57104,15.37549,7.45276,23.98224,0z"/>
	</g>
</g>
<g id="Layer_3" display="none">
</g>
<g id="Layer_2" display="none">
</g>
</svg>
