<?xml version="1.0" encoding="utf-8"?>
<!-- Generator: Adobe Illustrator 21.1.0, SVG Export Plug-In . SVG Version: 6.00 Build 0)  -->
<svg version="1.2" baseProfile="tiny" xmlns="http://www.w3.org/2000/svg" xmlns:xlink="http://www.w3.org/1999/xlink" x="0px"
	 y="0px" viewBox="0 0 334 334" xml:space="preserve">
<g id="Layer_1">
	<g>
		<path fill="#ADADAD" d="M0,317.10449v9.26514c2.49615,2.60205,5.05078,5.14722,7.66528,7.63037h9.32886
			C11.0368,328.67041,5.36017,323.03394,0,317.10449z"/>
		<path fill="#ADADAD" d="M16.61884,0h-9.3103C4.81708,2.37622,2.38348,4.81226,0,7.29688v9.26562
			C5.24805,10.75708,10.79785,5.23096,16.61884,0z"/>
		<path fill="#ADADAD" d="M0,275.9585v11.0979C13.10309,305.13794,29.06964,321.01392,47.2406,334h11.21198
			C35.17749,318.92285,15.24152,299.11816,0,275.9585z"/>
		<path fill="#ADADAD" d="M0,297.54346v9.9646C8.10529,317.08008,17.01648,325.94678,26.63354,334h10.06036
			C23.03528,323.38086,10.70154,311.13477,0,297.54346z"/>
		<path fill="#ADADAD" d="M334,121.20483v-20.10132C315.96783,55.27075,279.65436,18.56836,234.09186,0h-19.15955
			C272.72131,16.8623,318.14294,62.99854,334,121.20483z"/>
		<path fill="#ADADAD" d="M36.2597,0h-10.0199C16.77356,7.96484,7.9942,16.71777,0,26.15869v9.9646
			C10.58875,22.67529,22.77283,10.54126,36.2597,0z"/>
		<path fill="#ADADAD" d="M117.73541,0H98.6051C54.10913,18.13354,18.44098,53.56543,0,97.90332v18.7002
			C16.94916,60.57373,61.48297,16.41553,117.73541,0z"/>
		<path fill="#ADADAD" d="M0,250.84497v13.16577C17.01044,293.02246,41.37988,317.21973,70.53955,334h13.44098
			C47.80853,316.10425,18.2403,286.81543,0,250.84497z"/>
		<path fill="#ADADAD" d="M57.94672,0H46.78394C28.80316,12.92456,12.99249,28.68115,0,46.60986v11.09814
			C15.13049,34.71704,34.8894,15.03564,57.94672,0z"/>
		<path fill="#ADADAD" d="M83.31122,0H69.9751C41.06671,16.76685,16.8999,40.83301,0,69.65601v13.16577
			C18.12769,47.07324,47.44385,17.9248,83.31122,0z"/>
		<path fill="#ADADAD" d="M334,285.30103v-11.30127c-15.39874,24.0061-35.81348,44.4978-59.74664,60.00024h11.23651
			C304.24847,320.59399,320.66565,304.11401,334,285.30103z"/>
		<path fill="#ADADAD" d="M166.33154,12.03223c-85.3584,0-154.80225,69.44336-154.80225,154.80078
			c0,85.3584,69.44385,154.80176,154.80225,154.80176s154.80225-69.44336,154.80225-154.80176
			C321.13379,81.47559,251.68994,12.03223,166.33154,12.03223z M166.33154,315.30566
			c-81.87695,0-148.48828-66.60449-148.48828-148.47266c0-81.86719,66.61133-148.47168,148.48828-148.47168
			c81.86768,0,148.47168,66.60449,148.47168,148.47168C314.80322,248.70117,248.19922,315.30566,166.33154,315.30566z"/>
		<path fill="#ADADAD" d="M333.77783,166.83301C333.77783,79.302,266.2641,7.25439,180.578,0h-28.49152
			C72.73785,6.71875,8.987,69.01367,0,147.7124v38.24121C9.16315,266.19531,75.25787,329.38696,156.76965,334h19.12476
			C263.7915,329.02588,333.77783,255.95312,333.77783,166.83301z M166.33154,327.94922
			c-88.83936,0-161.11572-72.27637-161.11572-161.11621c0-88.83887,72.27637-161.11523,161.11572-161.11523
			s161.11572,72.27637,161.11572,161.11523C327.44727,255.67285,255.1709,327.94922,166.33154,327.94922z"/>
		<path fill="#ADADAD" d="M334,232.56299v-20.10156C318.04028,271.04468,272.13562,317.41089,213.81201,334h19.46619
			C279.22266,315.53882,315.86041,278.66919,334,232.56299z"/>
		<path fill="#ADADAD" d="M166.33154,24.67578c-78.39551,0-142.1748,63.77148-142.1748,142.15723
			c0,78.38672,63.7793,142.1582,142.1748,142.1582c78.38623,0,142.1582-63.77148,142.1582-142.1582
			C308.48975,88.44727,244.71777,24.67578,166.33154,24.67578z M166.39893,302.67773
			c-74.90479,0-135.84424-60.93945-135.84424-135.84473c0-74.9043,60.93945-135.84375,135.84424-135.84375
			s135.84424,60.93945,135.84424,135.84375C302.24316,241.73828,241.30371,302.67773,166.39893,302.67773z"/>
		<path fill="#ADADAD" d="M334,325.05396v-9.36548c-5.73047,6.44629-11.82397,12.56104-18.25214,18.31152h9.33948
			C328.13995,331.10059,331.10913,328.11475,334,325.05396z"/>
		<path fill="#ADADAD" d="M166.39893,37.30371c-71.42334,0-129.53076,58.10645-129.53076,129.5293
			c0,71.42383,58.10742,129.53027,129.53076,129.53027s129.53076-58.10645,129.53076-129.53027
			C295.92969,95.41016,237.82227,37.30371,166.39893,37.30371z M166.39893,290.03418
			c-67.94189,0-123.2168-55.26758-123.2168-123.20117c0-67.93262,55.2749-123.2002,123.2168-123.2002
			c67.93311,0,123.2002,55.26758,123.2002,123.2002C289.59912,234.7666,234.33203,290.03418,166.39893,290.03418z"/>
		<path fill="#ADADAD" d="M0,217.06274v18.70044C18.55347,280.37207,54.54333,315.96851,99.41876,334h19.43689
			C62.07288,317.84766,17.06189,273.46533,0,217.06274z"/>
		<path fill="#ADADAD" d="M334,306.02246v-10.12817C323.00555,310.1416,310.24286,322.95508,296.03656,334h10.07123
			C316.2229,325.53027,325.56323,316.16602,334,306.02246z"/>
		<path fill="#ADADAD" d="M334,85.44043V71.88257C317.04962,42.07104,292.38281,17.19702,262.73016,0h-13.34448
			C286.12506,18.36084,315.9917,48.49731,334,85.44043z"/>
		<path fill="#ADADAD" d="M334,261.78418v-13.55811c-18.11755,37.16748-48.23761,67.4458-85.28357,85.77393h13.44928
			C292.07123,316.79199,316.94153,291.78589,334,261.78418z"/>
		<path fill="#ADADAD" d="M166.36523,113.13379c-29.61914,0-53.71631,24.08887-53.71631,53.69922
			c0,29.62012,24.09717,53.7168,53.71631,53.7168c29.60986,0,53.69971-24.09668,53.69971-53.7168
			C220.06494,137.22266,195.9751,113.13379,166.36523,113.13379z M166.34863,214.21973
			c-26.12891,0-47.38623-21.25781-47.38623-47.38672c0-26.12793,21.25732-47.38574,47.38623-47.38574
			c26.12842,0,47.38574,21.25781,47.38574,47.38574C213.73438,192.96191,192.47705,214.21973,166.34863,214.21973z"/>
		<path fill="#ADADAD" d="M166.34863,125.76172c-22.64746,0-41.07275,18.42383-41.07275,41.07129
			s18.42529,41.07227,41.07275,41.07227s41.07227-18.4248,41.07227-41.07227S188.99609,125.76172,166.34863,125.76172z
			 M166.34863,201.57617c-19.16602,0-34.75879-15.58594-34.75879-34.74316c0-19.15625,15.59277-34.74219,34.75879-34.74219
			c19.15674,0,34.7417,15.58594,34.7417,34.74219C201.09033,185.99023,185.50537,201.57617,166.34863,201.57617z"/>
		<path fill="#ADADAD" d="M166.33154,151.0332c-8.7124,0-15.80078,7.08789-15.80078,15.7998
			c0,8.71289,7.08838,15.80078,15.80078,15.80078c8.71289,0,15.80127-7.08789,15.80127-15.80078
			C182.13281,158.12109,175.04443,151.0332,166.33154,151.0332z M166.33154,176.30469c-5.23096,0-9.48682-4.24902-9.48682-9.47168
			c0-5.22168,4.25586-9.4707,9.48682-9.4707c5.22217,0,9.4707,4.24902,9.4707,9.4707
			C175.80225,172.05566,171.55371,176.30469,166.33154,176.30469z"/>
		<path fill="#ADADAD" d="M166.33154,163.67676c-1.74951,0-3.17334,1.41602-3.17334,3.15625
			c0,1.74121,1.42383,3.15723,3.17334,3.15723c1.74072,0,3.15723-1.41602,3.15723-3.15723
			C169.48877,165.09277,168.07227,163.67676,166.33154,163.67676z"/>
		<path fill="#ADADAD" d="M166.38232,62.57422c-57.47949,0-104.24268,46.77051-104.24268,104.25879
			c0,57.48926,46.76318,104.25977,104.24268,104.25977c57.48877,0,104.25928-46.77051,104.25928-104.25977
			C270.6416,109.34473,223.87109,62.57422,166.38232,62.57422z M166.38232,264.7627
			c-53.99805,0-97.92871-43.93164-97.92871-97.92969s43.93066-97.92871,97.92871-97.92871s97.92871,43.93066,97.92871,97.92871
			S220.38037,264.7627,166.38232,264.7627z"/>
		<path fill="#ADADAD" d="M166.39893,49.94727c-64.46045,0-116.90332,52.43457-116.90332,116.88574
			c0,64.45215,52.44287,116.88672,116.90332,116.88672c64.45166,0,116.88672-52.43457,116.88672-116.88672
			C283.28564,102.38184,230.85059,49.94727,166.39893,49.94727z M166.38232,277.40723
			c-60.96094,0-110.55615-49.60352-110.55615-110.57422c0-60.96973,49.59521-110.57324,110.55615-110.57324
			c60.97021,0,110.57275,49.60352,110.57275,110.57324C276.95508,227.80371,227.35254,277.40723,166.38232,277.40723z"/>
		<path fill="#ADADAD" d="M166.38232,75.21875c-50.5166,0-91.61523,41.09766-91.61523,91.61426s41.09863,91.61523,91.61523,91.61523
			s91.61523-41.09863,91.61523-91.61523S216.89893,75.21875,166.38232,75.21875z M166.36523,252.13574
			c-47.02637,0-85.28467-38.2666-85.28467-85.30273c0-47.03516,38.2583-85.30176,85.28467-85.30176
			c47.03564,0,85.30176,38.2666,85.30176,85.30176C251.66699,213.86914,213.40088,252.13574,166.36523,252.13574z"/>
		<path fill="#ADADAD" d="M166.36523,100.49023c-36.58203,0-66.34375,29.76074-66.34375,66.34277
			s29.76172,66.34375,66.34375,66.34375s66.34424-29.76172,66.34424-66.34375S202.94727,100.49023,166.36523,100.49023z
			 M166.36523,226.86426c-33.10059,0-60.02979-26.92969-60.02979-60.03125c0-33.0918,26.9292-60.01367,60.02979-60.01367
			c33.09131,0,60.01318,26.92188,60.01318,60.01367C226.37842,199.93457,199.45654,226.86426,166.36523,226.86426z"/>
		<path fill="#ADADAD" d="M166.36523,87.8457c-43.54492,0-78.97119,35.43359-78.97119,78.9873
			c0,43.55469,35.42627,78.98828,78.97119,78.98828c43.5542,0,78.98828-35.43359,78.98828-78.98828
			C245.35352,123.2793,209.91943,87.8457,166.36523,87.8457z M166.36523,239.49121c-40.06348,0-72.65723-32.59473-72.65723-72.6582
			s32.59375-72.65723,72.65723-72.65723s72.65771,32.59375,72.65771,72.65723S206.42871,239.49121,166.36523,239.49121z"/>
		<path fill="#ADADAD" d="M166.34863,138.40527c-15.68457,0-28.44531,12.75195-28.44531,28.42773
			s12.76074,28.42871,28.44531,28.42871c15.67529,0,28.42822-12.75293,28.42822-28.42871S182.02393,138.40527,166.34863,138.40527z
			 M166.33154,188.94824c-12.19385,0-22.11426-9.9209-22.11426-22.11523c0-12.19336,9.92041-22.11426,22.11426-22.11426
			c12.19434,0,22.11475,9.9209,22.11475,22.11426C188.44629,179.02734,178.52588,188.94824,166.33154,188.94824z"/>
		<path fill="#ADADAD" d="M334,37.77246V27.64429C325.67322,17.63306,316.4649,8.38232,306.50159,0h-10.03082
			C310.50415,10.96826,323.117,23.66943,334,37.77246z"/>
		<path fill="#ADADAD" d="M334,59.6665V48.36548C320.77466,29.7063,304.51373,13.34619,285.94653,0h-11.18732
			C298.47321,15.46265,318.71033,35.83081,334,59.6665z"/>
		<path fill="#ADADAD" d="M334,17.97852V8.61255C331.22095,5.66992,328.37274,2.79346,325.44403,0h-9.32086
			C322.41394,5.65283,328.38068,11.65723,334,17.97852z"/>
		<path fill="#525252" d="M166.33154,157.3623c-5.23096,0-9.48682,4.24902-9.48682,9.4707
			c0,5.22266,4.25586,9.47168,9.48682,9.47168c5.22217,0,9.4707-4.24902,9.4707-9.47168
			C175.80225,161.61133,171.55371,157.3623,166.33154,157.3623z M166.33154,169.99023c-1.74951,0-3.17334-1.41602-3.17334-3.15723
			c0-1.74023,1.42383-3.15625,3.17334-3.15625c1.74072,0,3.15723,1.41602,3.15723,3.15625
			C169.48877,168.57422,168.07227,169.99023,166.33154,169.99023z"/>
		<path fill="#525252" d="M166.33154,144.71875c-12.19385,0-22.11426,9.9209-22.11426,22.11426
			c0,12.19434,9.92041,22.11523,22.11426,22.11523c12.19434,0,22.11475-9.9209,22.11475-22.11523
			C188.44629,154.63965,178.52588,144.71875,166.33154,144.71875z M166.33154,182.63379
			c-8.7124,0-15.80078-7.08789-15.80078-15.80078c0-8.71191,7.08838-15.7998,15.80078-15.7998
			c8.71289,0,15.80127,7.08789,15.80127,15.7998C182.13281,175.5459,175.04443,182.63379,166.33154,182.63379z"/>
		<path fill="#525252" d="M166.34863,132.09082c-19.16602,0-34.75879,15.58594-34.75879,34.74219
			c0,19.15723,15.59277,34.74316,34.75879,34.74316c19.15674,0,34.7417-15.58594,34.7417-34.74316
			C201.09033,147.67676,185.50537,132.09082,166.34863,132.09082z M166.34863,195.26172
			c-15.68457,0-28.44531-12.75293-28.44531-28.42871s12.76074-28.42773,28.44531-28.42773
			c15.67529,0,28.42822,12.75195,28.42822,28.42773S182.02393,195.26172,166.34863,195.26172z"/>
		<path fill="#525252" d="M166.34863,119.44727c-26.12891,0-47.38623,21.25781-47.38623,47.38574
			c0,26.12891,21.25732,47.38672,47.38623,47.38672c26.12842,0,47.38574-21.25781,47.38574-47.38672
			C213.73438,140.70508,192.47705,119.44727,166.34863,119.44727z M166.34863,207.90527
			c-22.64746,0-41.07275-18.4248-41.07275-41.07227s18.42529-41.07129,41.07275-41.07129s41.07227,18.42383,41.07227,41.07129
			S188.99609,207.90527,166.34863,207.90527z"/>
		<path fill="#525252" d="M166.36523,106.81934c-33.10059,0-60.02979,26.92188-60.02979,60.01367
			c0,33.10156,26.9292,60.03125,60.02979,60.03125c33.09131,0,60.01318-26.92969,60.01318-60.03125
			C226.37842,133.74121,199.45654,106.81934,166.36523,106.81934z M166.36523,220.5498
			c-29.61914,0-53.71631-24.09668-53.71631-53.7168c0-29.61035,24.09717-53.69922,53.71631-53.69922
			c29.60986,0,53.69971,24.08887,53.69971,53.69922C220.06494,196.45312,195.9751,220.5498,166.36523,220.5498z"/>
		<path fill="#525252" d="M166.36523,94.17578c-40.06348,0-72.65723,32.59375-72.65723,72.65723s32.59375,72.6582,72.65723,72.6582
			s72.65771-32.59473,72.65771-72.6582S206.42871,94.17578,166.36523,94.17578z M166.36523,233.17676
			c-36.58203,0-66.34375-29.76172-66.34375-66.34375s29.76172-66.34277,66.34375-66.34277s66.34424,29.76074,66.34424,66.34277
			S202.94727,233.17676,166.36523,233.17676z"/>
		<path fill="#525252" d="M166.36523,81.53125c-47.02637,0-85.28467,38.2666-85.28467,85.30176
			c0,47.03613,38.2583,85.30273,85.28467,85.30273c47.03564,0,85.30176-38.2666,85.30176-85.30273
			C251.66699,119.79785,213.40088,81.53125,166.36523,81.53125z M166.36523,245.82129
			c-43.54492,0-78.97119-35.43359-78.97119-78.98828c0-43.55371,35.42627-78.9873,78.97119-78.9873
			c43.5542,0,78.98828,35.43359,78.98828,78.9873C245.35352,210.3877,209.91943,245.82129,166.36523,245.82129z"/>
		<path fill="#525252" d="M166.38232,68.9043c-53.99805,0-97.92871,43.93066-97.92871,97.92871s43.93066,97.92969,97.92871,97.92969
			s97.92871-43.93164,97.92871-97.92969S220.38037,68.9043,166.38232,68.9043z M166.38232,258.44824
			c-50.5166,0-91.61523-41.09863-91.61523-91.61523s41.09863-91.61426,91.61523-91.61426s91.61523,41.09766,91.61523,91.61426
			S216.89893,258.44824,166.38232,258.44824z"/>
		<path fill="#525252" d="M166.38232,56.25977c-60.96094,0-110.55615,49.60352-110.55615,110.57324
			c0,60.9707,49.59521,110.57422,110.55615,110.57422c60.97021,0,110.57275-49.60352,110.57275-110.57422
			C276.95508,105.86328,227.35254,56.25977,166.38232,56.25977z M166.38232,271.09277
			c-57.47949,0-104.24268-46.77051-104.24268-104.25977c0-57.48828,46.76318-104.25879,104.24268-104.25879
			c57.48877,0,104.25928,46.77051,104.25928,104.25879C270.6416,224.32227,223.87109,271.09277,166.38232,271.09277z"/>
		<path fill="#525252" d="M166.39893,43.63281c-67.94189,0-123.2168,55.26758-123.2168,123.2002
			c0,67.93359,55.2749,123.20117,123.2168,123.20117c67.93311,0,123.2002-55.26758,123.2002-123.20117
			C289.59912,98.90039,234.33203,43.63281,166.39893,43.63281z M166.39893,283.71973
			c-64.46045,0-116.90332-52.43457-116.90332-116.88672c0-64.45117,52.44287-116.88574,116.90332-116.88574
			c64.45166,0,116.88672,52.43457,116.88672,116.88574C283.28564,231.28516,230.85059,283.71973,166.39893,283.71973z"/>
		<path fill="#525252" d="M166.39893,30.98926c-74.90479,0-135.84424,60.93945-135.84424,135.84375
			c0,74.90527,60.93945,135.84473,135.84424,135.84473s135.84424-60.93945,135.84424-135.84473
			C302.24316,91.92871,241.30371,30.98926,166.39893,30.98926z M166.39893,296.36328
			c-71.42334,0-129.53076-58.10645-129.53076-129.53027c0-71.42285,58.10742-129.5293,129.53076-129.5293
			s129.53076,58.10645,129.53076,129.5293C295.92969,238.25684,237.82227,296.36328,166.39893,296.36328z"/>
		<path fill="#525252" d="M166.33154,18.36133c-81.87695,0-148.48828,66.60449-148.48828,148.47168
			c0,81.86816,66.61133,148.47266,148.48828,148.47266c81.86768,0,148.47168-66.60449,148.47168-148.47266
			C314.80322,84.96582,248.19922,18.36133,166.33154,18.36133z M166.33154,308.99121
			c-78.39551,0-142.1748-63.77148-142.1748-142.1582c0-78.38574,63.7793-142.15723,142.1748-142.15723
			c78.38623,0,142.1582,63.77148,142.1582,142.15723C308.48975,245.21973,244.71777,308.99121,166.33154,308.99121z"/>
		<path fill="#525252" d="M166.33154,5.71777c-88.83936,0-161.11572,72.27637-161.11572,161.11523
			c0,88.83984,72.27637,161.11621,161.11572,161.11621s161.11572-72.27637,161.11572-161.11621
			C327.44727,77.99414,255.1709,5.71777,166.33154,5.71777z M166.33154,321.63477
			c-85.3584,0-154.80225-69.44336-154.80225-154.80176c0-85.35742,69.44385-154.80078,154.80225-154.80078
			s154.80225,69.44336,154.80225,154.80078C321.13379,252.19141,251.68994,321.63477,166.33154,321.63477z"/>
		<path fill="#525252" d="M0,185.95361v31.10913C17.06189,273.46533,62.07288,317.84766,118.85565,334h37.914
			C75.25787,329.38696,9.16315,266.19531,0,185.95361z"/>
		<path fill="#525252" d="M334,212.46143v-91.25659C318.14294,62.99854,272.72131,16.8623,214.93231,0H180.578
			c85.6861,7.25439,153.19983,79.302,153.19983,166.83301c0,89.12012-69.98633,162.19287-157.88342,167.16699h37.9176
			C272.13562,317.41089,318.04028,271.04468,334,212.46143z"/>
		<path fill="#525252" d="M152.08649,0h-34.35107C61.48297,16.41553,16.94916,60.57373,0,116.60352v31.10889
			C8.987,69.01367,72.73785,6.71875,152.08649,0z"/>
		<path fill="#525252" d="M334,248.22607v-15.66309C315.86041,278.66919,279.22266,315.53882,233.2782,334h15.43823
			C285.76239,315.67188,315.88245,285.39355,334,248.22607z"/>
		<path fill="#525252" d="M0,235.76318v15.08179C18.2403,286.81543,47.80853,316.10425,83.98053,334h15.43823
			C54.54333,315.96851,18.55347,280.37207,0,235.76318z"/>
		<path fill="#525252" d="M98.6051,0H83.31122C47.44385,17.9248,18.12769,47.07324,0,82.82178v15.08154
			C18.44098,53.56543,54.10913,18.13354,98.6051,0z"/>
		<path fill="#525252" d="M334,101.10352V85.44043C315.9917,48.49731,286.12506,18.36084,249.38568,0h-15.29382
			C279.65436,18.56836,315.96783,55.27075,334,101.10352z"/>
		<path fill="#525252" d="M334,273.99976v-12.21558C316.94153,291.78589,292.07123,316.79199,262.16571,334h12.08765
			C298.18652,318.49756,318.60126,298.00586,334,273.99976z"/>
		<path fill="#525252" d="M69.9751,0H57.94672C34.8894,15.03564,15.13049,34.71704,0,57.70801v11.948
			C16.8999,40.83301,41.06671,16.76685,69.9751,0z"/>
		<path fill="#525252" d="M334,71.88257V59.6665C318.71033,35.83081,298.47321,15.46265,274.75922,0h-12.02905
			C292.38281,17.19702,317.04962,42.07104,334,71.88257z"/>
		<path fill="#525252" d="M0,264.01074v11.94775C15.24152,299.11816,35.17749,318.92285,58.45258,334h12.08698
			C41.37988,317.21973,17.01044,293.02246,0,264.01074z"/>
		<path fill="#525252" d="M0,287.0564v10.48706C10.70154,311.13477,23.03528,323.38086,36.69391,334H47.2406
			C29.06964,321.01392,13.10309,305.13794,0,287.0564z"/>
		<path fill="#525252" d="M334,48.36548V37.77246C323.117,23.66943,310.50415,10.96826,296.47076,0h-10.52423
			C304.51373,13.34619,320.77466,29.7063,334,48.36548z"/>
		<path fill="#525252" d="M46.78394,0H36.2597C22.77283,10.54126,10.58875,22.67529,0,36.12329v10.48657
			C12.99249,28.68115,28.80316,12.92456,46.78394,0z"/>
		<path fill="#525252" d="M334,295.89429v-10.59326C320.66565,304.11401,304.24847,320.59399,285.48987,334h10.54669
			C310.24286,322.95508,323.00555,310.1416,334,295.89429z"/>
		<path fill="#525252" d="M26.23981,0h-9.62097C10.79785,5.23096,5.24805,10.75708,0,16.5625v9.59619
			C7.9942,16.71777,16.77356,7.96484,26.23981,0z"/>
		<path fill="#525252" d="M334,315.68848v-9.66602c-8.43677,10.14355-17.7771,19.50781-27.89221,27.97754h9.64008
			C322.17603,328.24951,328.26953,322.13477,334,315.68848z"/>
		<path fill="#525252" d="M0,307.50806v9.59644C5.36017,323.03394,11.0368,328.67041,16.99414,334h9.6394
			C17.01648,325.94678,8.10529,317.08008,0,307.50806z"/>
		<path fill="#525252" d="M334,27.64429v-9.66577C328.38068,11.65723,322.41394,5.65283,316.12317,0h-9.62158
			C316.4649,8.38232,325.67322,17.63306,334,27.64429z"/>
		<path fill="#525252" d="M334,325.05396c-2.89087,3.06079-5.86005,6.04663-8.91266,8.94604H334V325.05396z"/>
		<path fill="#525252" d="M0,326.36963V334h7.66528C5.05078,331.51685,2.49615,328.97168,0,326.36963z"/>
		<path fill="#525252" d="M7.30853,0H0v7.29688C2.38348,4.81226,4.81708,2.37622,7.30853,0z"/>
		<path fill="#525252" d="M334,8.61255V0h-8.55597C328.37274,2.79346,331.22095,5.66992,334,8.61255z"/>
	</g>
</g>
<g id="Layer_3" display="none">
</g>
<g id="Layer_2" display="none">
</g>
</svg>
