<?xml version="1.0" encoding="utf-8"?>
<!-- Generator: Adobe Illustrator 21.1.0, SVG Export Plug-In . SVG Version: 6.00 Build 0)  -->
<svg version="1.2" baseProfile="tiny" xmlns="http://www.w3.org/2000/svg" xmlns:xlink="http://www.w3.org/1999/xlink" x="0px"
	 y="0px" viewBox="0 0 334 334" xml:space="preserve">
<g id="Layer_1">
	<g>
		<path fill="#909090" d="M0,328.19971V334h5.77087C3.81592,332.09814,1.88757,330.16895,0,328.19971z"/>
		<path fill="#909090" d="M167.70166,76.99707c-49.9043,0-90.50488,40.59961-90.50488,90.50391s40.60059,90.50488,90.50488,90.50488
			s90.50439-40.60059,90.50439-90.50488S217.60596,76.99707,167.70166,76.99707z M167.70166,253.1123
			c-47.20605,0-85.61035-38.40527-85.61035-85.61133c0-47.20508,38.4043-85.61035,85.61035-85.61035
			s85.61035,38.40527,85.61035,85.61035C253.31201,214.70703,214.90771,253.1123,167.70166,253.1123z"/>
		<path fill="#909090" d="M92.86877,0H81.60181C46.61841,18.05127,17.97998,46.74194,0,81.77002v11.31372
			C18.40125,51.78589,51.62036,18.49243,92.86877,0z"/>
		<path fill="#909090" d="M121.77295,0h-15.98291C56.88,18.12598,18.00122,57.09082,0,106.06055v16.16284
			C16.01001,62.99683,62.6333,16.22266,121.77295,0z"/>
		<path fill="#909090" d="M334,275.04272v-9.2793C317.34009,293.85669,293.77209,317.38647,265.64844,334h9.30005
			C298.54602,318.74487,318.70654,298.61328,334,275.04272z"/>
		<path fill="#909090" d="M334,51.21802v-8.3396C321.7417,26.5603,307.13696,12.10498,290.69849,0h-8.4397
			C302.41943,13.8335,319.96631,31.20605,334,51.21802z"/>
		<path fill="#909090" d="M71.3905,0h-9.40417C37,15.82031,15.78284,37.0708,0,62.08203v9.44727
			C17.05042,41.85205,41.75061,17.10596,71.3905,0z"/>
		<path fill="#909090" d="M334,196.14087v-57.27979C321.50659,66.08301,262.25684,9.08228,188.38379,0h-41.43164
			C69.93506,9.46899,8.81421,71.02246,0,148.23755v38.52686C8.54834,261.65088,66.29761,321.80176,140.03064,334h55.27478
			C265.93506,322.31519,321.89941,266.6311,334,196.14087z M167.73486,331.38184c-90.37305,0-163.89697-73.5166-163.89697-163.88086
			c0-90.36328,73.52393-163.87988,163.89697-163.87988c90.36377,0,163.87988,73.5166,163.87988,163.87988
			C331.61475,257.86523,258.09863,331.38184,167.73486,331.38184z"/>
		<circle fill="#909090" cx="167.66809" cy="167.50122" r="2.4469"/>
		<path fill="#909090" d="M0,241.91846v11.31372C17.65308,287.62329,45.58472,315.89795,79.70386,334h10.98083
			C50.44946,315.32178,18.07495,282.48389,0,241.91846z"/>
		<path fill="#909090" d="M334,255.78906v-10.94897C315.69128,284.05908,283.91577,315.77246,244.65161,334h10.9884
			C288.91077,316.34961,316.28857,289.02246,334,255.78906z"/>
		<path fill="#909090" d="M0,212.77881v16.16333C17.67688,277.02954,55.48682,315.46631,103.15674,334h15.10864
			C60.79382,316.91675,15.69214,270.82935,0,212.77881z"/>
		<path fill="#909090" d="M334,322.52734v-7.26221c-5.87793,6.60864-12.14185,12.86475-18.75781,18.73486h7.27161
			C326.47681,330.31226,330.30762,326.48584,334,322.52734z"/>
		<path fill="#909090" d="M0,263.4729v9.44751C15.45068,297.40503,36.10718,318.28931,60.41187,334h9.28467
			C40.81213,316.93555,16.72339,292.58105,0,263.4729z"/>
		<path fill="#909090" d="M0,313.72217v7.32129c4.11377,4.4895,8.40955,8.80859,12.86694,12.95654h7.26062
			C12.99707,327.67358,6.27002,320.90332,0,313.72217z"/>
		<path fill="#909090" d="M0,281.83081v8.43286C12.20166,306.8855,26.80115,321.64233,43.30078,334h8.35486
			C31.45007,319.87891,13.92236,302.18311,0,281.83081z"/>
		<path fill="#909090" d="M0,298.37573v7.80347C8.35034,316.2583,17.59705,325.56689,27.60474,334h7.71265
			C22.19922,323.54907,10.33557,311.58911,0,298.37573z"/>
		<path fill="#909090" d="M167.71826,57.43848c-60.69873,0-110.08057,49.37402-110.08057,110.0625
			c0,60.68945,49.38184,110.06348,110.08057,110.06348c60.68896,0,110.06348-49.37402,110.06348-110.06348
			C277.78174,106.8125,228.40723,57.43848,167.71826,57.43848z M167.70166,272.68848
			c-57.99072,0-105.16943-47.1875-105.16943-105.1875c0-57.99902,47.17871-105.18555,105.16943-105.18555
			c58,0,105.18604,47.18652,105.18604,105.18555C272.8877,225.50098,225.70166,272.68848,167.70166,272.68848z"/>
		<path fill="#909090" d="M167.73486,8.51562c-87.6748,0-159.00342,71.32031-159.00342,158.98535
			S80.06006,326.4873,167.73486,326.4873c87.66504,0,158.98633-71.32129,158.98633-158.98633S255.3999,8.51562,167.73486,8.51562z
			 M167.73486,321.59375c-84.97607,0-154.10889-69.12598-154.10889-154.09277s69.13281-154.0918,154.10889-154.0918
			c84.9668,0,154.0918,69.125,154.0918,154.0918S252.70166,321.59375,167.73486,321.59375z"/>
		<path fill="#909090" d="M167.70166,96.57324c-39.11963,0-70.9458,31.81836-70.9458,70.92773
			c0,39.11035,31.82617,70.92871,70.9458,70.92871c39.11035,0,70.92871-31.81836,70.92871-70.92871
			C238.63037,128.3916,206.81201,96.57324,167.70166,96.57324z M167.68457,233.55371
			c-36.41162,0-66.03418-29.63086-66.03418-66.05273c0-36.41992,29.62256-66.05078,66.03418-66.05078
			c36.42139,0,66.05176,29.63086,66.05176,66.05078C233.73633,203.92285,204.10596,233.55371,167.68457,233.55371z"/>
		<path fill="#909090" d="M334,90.16211V79.21313C315.95215,45.34863,287.87146,17.60913,253.74194,0h-11.27441
			C282.73804,18.05396,315.35254,50.21729,334,90.16211z"/>
		<path fill="#909090" d="M334,117.54126v-14.9873C315.45898,55.23389,277.28198,17.69116,229.5459,0h-15.98291
			C271.13562,15.79272,316.84668,60.53857,334,117.54126z"/>
		<path fill="#909090" d="M167.70166,86.78516c-44.50732,0-80.7168,36.20898-80.7168,80.71582
			c0,44.50781,36.20947,80.7168,80.7168,80.7168s80.7168-36.20898,80.7168-80.7168
			C248.41846,122.99414,212.20898,86.78516,167.70166,86.78516z M167.70166,243.32422
			c-41.81787,0-75.83936-34.01465-75.83936-75.82324s34.02148-75.82227,75.83936-75.82227
			c41.80859,0,75.82227,34.01367,75.82227,75.82227S209.51025,243.32422,167.70166,243.32422z"/>
		<path fill="#909090" d="M334,34.90601v-7.70093C325.67603,17.35278,316.50171,8.24243,306.57886,0h-7.77966
			C311.84155,10.23145,323.65527,21.95703,334,34.90601z"/>
		<path fill="#909090" d="M167.71826,28.07422c-76.87109,0-139.41064,62.54688-139.41064,139.42676
			c0,76.88086,62.53955,139.42773,139.41064,139.42773c76.88037,0,139.42725-62.54688,139.42725-139.42773
			C307.14551,90.62109,244.59863,28.07422,167.71826,28.07422z M167.71826,302.03516
			c-74.18213,0-134.5332-60.35156-134.5332-134.53418c0-74.18164,60.35107-134.5332,134.5332-134.5332
			c74.18164,0,134.53271,60.35156,134.53271,134.5332C302.25098,241.68359,241.8999,302.03516,167.71826,302.03516z"/>
		<path fill="#909090" d="M334,69.23877v-9.2793C318.36792,35.86719,297.6488,15.37134,273.37415,0h-9.41992
			C292.82861,16.6626,317.00537,40.58105,334,69.23877z"/>
		<path fill="#909090" d="M334,292.12402v-8.33936C320.30298,303.31641,303.25842,320.33301,283.70435,334h8.36426
			C307.95203,322.10376,322.08154,307.98975,334,292.12402z"/>
		<path fill="#909090" d="M167.71826,37.8623c-71.4834,0-129.63965,58.15527-129.63965,129.63867
			s58.15625,129.63965,129.63965,129.63965c71.48291,0,129.63916-58.15625,129.63916-129.63965S239.20117,37.8623,167.71826,37.8623
			z M167.71826,292.24707c-68.78467,0-124.74512-55.96094-124.74512-124.74609c0-68.78418,55.96045-124.74512,124.74512-124.74512
			S292.46338,98.7168,292.46338,167.50098C292.46338,236.28613,236.50293,292.24707,167.71826,292.24707z"/>
		<path fill="#909090" d="M36.5708,0h-7.7804C18.32385,8.69385,8.68066,18.3457,0,28.82373v7.80273
			C10.66528,22.99194,22.95154,10.68408,36.5708,0z"/>
		<path fill="#909090" d="M334,5.38745V0h-5.41602C330.42017,1.76465,332.22217,3.56396,334,5.38745z"/>
		<path fill="#909090" d="M21.25708,0h-7.31323C9.09863,4.45142,4.44519,9.10791,0,13.95923v7.32104
			C6.60107,13.71973,13.70483,6.61035,21.25708,0z"/>
		<path fill="#909090" d="M167.71826,47.65039c-66.08643,0-119.85156,53.76465-119.85156,119.85059
			c0,66.08691,53.76514,119.85156,119.85156,119.85156s119.85156-53.76465,119.85156-119.85156
			C287.56982,101.41504,233.80469,47.65039,167.71826,47.65039z M167.71826,282.45898
			c-63.39697,0-114.97412-51.57031-114.97412-114.95801S104.32129,52.54395,167.71826,52.54395
			c63.3877,0,114.95703,51.56934,114.95703,114.95703S231.10596,282.45898,167.71826,282.45898z"/>
		<path fill="#909090" d="M167.66797,155.2666c-6.7373,0-12.21826,5.48828-12.21826,12.23438
			c0,6.74707,5.48096,12.23535,12.21826,12.23535c6.74658,0,12.23535-5.48828,12.23535-12.23535
			C179.90332,160.75488,174.41455,155.2666,167.66797,155.2666z M167.66797,174.84277c-4.04736,0-7.34033-3.29395-7.34033-7.3418
			s3.29297-7.34082,7.34033-7.34082c4.04785,0,7.34082,3.29297,7.34082,7.34082S171.71582,174.84277,167.66797,174.84277z"/>
		<path fill="#909090" d="M334,19.7373v-7.26196C329.97314,8.1582,325.78467,3.99414,321.43677,0h-7.3241
			C321.14722,6.15723,327.78735,12.75244,334,19.7373z"/>
		<path fill="#909090" d="M334,307.79785v-7.70166C323.98926,312.6272,312.59717,324.00586,300.05249,334h7.71204
			C317.23181,326.02222,326.01013,317.25464,334,307.79785z"/>
		<path fill="#909090" d="M6.79736,0H0v6.80249C2.21851,4.48828,4.48584,2.22144,6.79736,0z"/>
		<path fill="#909090" d="M167.73486,18.30371c-82.27734,0-149.21533,66.92969-149.21533,149.19727
			c0,82.26855,66.93799,149.19824,149.21533,149.19824c82.26807,0,149.19824-66.92969,149.19824-149.19824
			C316.93311,85.2334,250.00293,18.30371,167.73486,18.30371z M167.71826,311.82324
			c-79.56982,0-144.3042-64.74316-144.3042-144.32227S88.14844,23.17969,167.71826,23.17969
			c79.5791,0,144.3208,64.74219,144.3208,144.32129S247.29736,311.82324,167.71826,311.82324z"/>
		<path fill="#909090" d="M53.10132,0H44.6709C27.6123,12.56152,12.53662,27.66064,0,44.73853v8.43335
			C14.25366,32.33569,32.28516,14.28223,53.10132,0z"/>
		<path fill="#909090" d="M167.68506,116.13184c-28.32568,0-51.37012,23.04395-51.37012,51.36914
			c0,28.32617,23.04443,51.37012,51.37012,51.37012c28.3252,0,51.36963-23.04395,51.36963-51.37012
			C219.05469,139.17578,196.01025,116.13184,167.68506,116.13184z M167.68506,213.97754
			c-25.62695,0-46.47559-20.84961-46.47559-46.47656s20.84863-46.47559,46.47559-46.47559s46.47559,20.84863,46.47559,46.47559
			S193.31201,213.97754,167.68506,213.97754z"/>
		<path fill="#909090" d="M167.68506,135.70801c-17.53125,0-31.79443,14.26172-31.79443,31.79297
			s14.26318,31.79395,31.79443,31.79395s31.79395-14.2627,31.79395-31.79395S185.21631,135.70801,167.68506,135.70801z
			 M167.68506,194.40137c-14.8418,0-26.9165-12.06738-26.9165-26.90039c0-14.83203,12.07471-26.89941,26.9165-26.89941
			c14.83252,0,26.8999,12.06738,26.8999,26.89941C194.58496,182.33398,182.51758,194.40137,167.68506,194.40137z"/>
		<path fill="#909090" d="M334,232.44849v-14.98755C317.19653,273.30078,272.98828,317.37866,217.07068,334h15.1084
			C278.68396,315.91919,315.80127,278.89502,334,232.44849z"/>
		<path fill="#909090" d="M167.70166,67.20996c-55.29199,0-100.27588,44.99023-100.27588,100.29102
			c0,55.30176,44.98389,100.29297,100.27588,100.29297c55.30127,0,100.29248-44.99121,100.29248-100.29297
			C267.99414,112.2002,223.00293,67.20996,167.70166,67.20996z M167.70166,262.90039
			c-52.60303,0-95.39844-42.7959-95.39844-95.39941c0-52.60254,42.79541-95.39844,95.39844-95.39844
			c52.60254,0,95.39795,42.7959,95.39795,95.39844C263.09961,220.10449,220.3042,262.90039,167.70166,262.90039z"/>
		<path fill="#909090" d="M167.68506,125.91992c-22.92822,0-41.58203,18.65332-41.58203,41.58105
			c0,22.92871,18.65381,41.58203,41.58203,41.58203s41.58203-18.65332,41.58203-41.58203
			C209.26709,144.57324,190.61328,125.91992,167.68506,125.91992z M167.68506,204.18945
			c-20.22998,0-36.68799-16.45898-36.68799-36.68848s16.45801-36.6875,36.68799-36.6875
			c20.22949,0,36.6875,16.45801,36.6875,36.6875S187.91455,204.18945,167.68506,204.18945z"/>
		<path fill="#909090" d="M167.68457,106.34473c-33.71289,0-61.14062,27.43457-61.14062,61.15625
			c0,33.72266,27.42773,61.1582,61.14062,61.1582c33.72266,0,61.1582-27.43555,61.1582-61.1582
			C228.84277,133.7793,201.40723,106.34473,167.68457,106.34473z M167.68506,223.76562
			c-31.02393,0-56.26367-25.24023-56.26367-56.26465c0-31.02344,25.23975-56.26367,56.26367-56.26367
			s56.26318,25.24023,56.26318,56.26367C223.94824,198.52539,198.70898,223.76562,167.68506,223.76562z"/>
		<path fill="#909090" d="M334,329.61499c-1.44385,1.48096-2.90686,2.94287-4.3894,4.38501H334V329.61499z"/>
		<path fill="#909090" d="M167.68506,145.49609c-12.14355,0-22.02295,9.87109-22.02295,22.00488s9.87939,22.00586,22.02295,22.00586
			c12.13428,0,22.00635-9.87207,22.00635-22.00586S179.81934,145.49609,167.68506,145.49609z M167.66797,184.63086
			c-9.43555,0-17.11182-7.68457-17.11182-17.12988c0-9.44434,7.67627-17.12891,17.11182-17.12891
			c9.44482,0,17.12891,7.68457,17.12891,17.12891C184.79688,176.94629,177.11279,184.63086,167.66797,184.63086z"/>
		<path fill="#6F6F6F" d="M167.66797,160.16016c-4.04736,0-7.34033,3.29297-7.34033,7.34082s3.29297,7.3418,7.34033,7.3418
			c4.04785,0,7.34082-3.29395,7.34082-7.3418S171.71582,160.16016,167.66797,160.16016z M167.66797,169.94824
			c-1.34912,0-2.44678-1.09766-2.44678-2.44727c0-1.34863,1.09766-2.44629,2.44678-2.44629s2.44727,1.09766,2.44727,2.44629
			C170.11523,168.85059,169.01709,169.94824,167.66797,169.94824z"/>
		<path fill="#6F6F6F" d="M167.66797,150.37207c-9.43555,0-17.11182,7.68457-17.11182,17.12891
			c0,9.44531,7.67627,17.12988,17.11182,17.12988c9.44482,0,17.12891-7.68457,17.12891-17.12988
			C184.79688,158.05664,177.11279,150.37207,167.66797,150.37207z M167.66797,179.73633
			c-6.7373,0-12.21826-5.48828-12.21826-12.23535c0-6.74609,5.48096-12.23438,12.21826-12.23438
			c6.74658,0,12.23535,5.48828,12.23535,12.23438C179.90332,174.24805,174.41455,179.73633,167.66797,179.73633z"/>
		<path fill="#6F6F6F" d="M167.68506,140.60156c-14.8418,0-26.9165,12.06738-26.9165,26.89941
			c0,14.83301,12.07471,26.90039,26.9165,26.90039c14.83252,0,26.8999-12.06738,26.8999-26.90039
			C194.58496,152.66895,182.51758,140.60156,167.68506,140.60156z M167.68506,189.50684
			c-12.14355,0-22.02295-9.87207-22.02295-22.00586s9.87939-22.00488,22.02295-22.00488
			c12.13428,0,22.00635,9.87109,22.00635,22.00488S179.81934,189.50684,167.68506,189.50684z"/>
		<path fill="#6F6F6F" d="M167.68506,130.81348c-20.22998,0-36.68799,16.45801-36.68799,36.6875
			s16.45801,36.68848,36.68799,36.68848c20.22949,0,36.6875-16.45898,36.6875-36.68848S187.91455,130.81348,167.68506,130.81348z
			 M167.68506,199.29492c-17.53125,0-31.79443-14.2627-31.79443-31.79395s14.26318-31.79297,31.79443-31.79297
			s31.79395,14.26172,31.79395,31.79297S185.21631,199.29492,167.68506,199.29492z"/>
		<path fill="#6F6F6F" d="M167.68506,121.02539c-25.62695,0-46.47559,20.84863-46.47559,46.47559
			s20.84863,46.47656,46.47559,46.47656s46.47559-20.84961,46.47559-46.47656S193.31201,121.02539,167.68506,121.02539z
			 M167.68506,209.08301c-22.92822,0-41.58203-18.65332-41.58203-41.58203c0-22.92773,18.65381-41.58105,41.58203-41.58105
			s41.58203,18.65332,41.58203,41.58105C209.26709,190.42969,190.61328,209.08301,167.68506,209.08301z"/>
		<path fill="#6F6F6F" d="M167.68506,111.2373c-31.02393,0-56.26367,25.24023-56.26367,56.26367
			c0,31.02441,25.23975,56.26465,56.26367,56.26465s56.26318-25.24023,56.26318-56.26465
			C223.94824,136.47754,198.70898,111.2373,167.68506,111.2373z M167.68506,218.87109
			c-28.32568,0-51.37012-23.04395-51.37012-51.37012c0-28.3252,23.04443-51.36914,51.37012-51.36914
			c28.3252,0,51.36963,23.04395,51.36963,51.36914C219.05469,195.82715,196.01025,218.87109,167.68506,218.87109z"/>
		<path fill="#6F6F6F" d="M167.68457,101.4502c-36.41162,0-66.03418,29.63086-66.03418,66.05078
			c0,36.42188,29.62256,66.05273,66.03418,66.05273c36.42139,0,66.05176-29.63086,66.05176-66.05273
			C233.73633,131.08105,204.10596,101.4502,167.68457,101.4502z M167.68457,228.65918
			c-33.71289,0-61.14062-27.43555-61.14062-61.1582c0-33.72168,27.42773-61.15625,61.14062-61.15625
			c33.72266,0,61.1582,27.43457,61.1582,61.15625C228.84277,201.22363,201.40723,228.65918,167.68457,228.65918z"/>
		<path fill="#6F6F6F" d="M167.70166,91.67871c-41.81787,0-75.83936,34.01367-75.83936,75.82227
			s34.02148,75.82324,75.83936,75.82324c41.80859,0,75.82227-34.01465,75.82227-75.82324S209.51025,91.67871,167.70166,91.67871z
			 M167.70166,238.42969c-39.11963,0-70.9458-31.81836-70.9458-70.92871c0-39.10938,31.82617-70.92773,70.9458-70.92773
			c39.11035,0,70.92871,31.81836,70.92871,70.92773C238.63037,206.61133,206.81201,238.42969,167.70166,238.42969z"/>
		<path fill="#6F6F6F" d="M167.70166,81.89062c-47.20605,0-85.61035,38.40527-85.61035,85.61035
			c0,47.20605,38.4043,85.61133,85.61035,85.61133s85.61035-38.40527,85.61035-85.61133
			C253.31201,120.2959,214.90771,81.89062,167.70166,81.89062z M167.70166,248.21777c-44.50732,0-80.7168-36.20898-80.7168-80.7168
			c0-44.50684,36.20947-80.71582,80.7168-80.71582s80.7168,36.20898,80.7168,80.71582
			C248.41846,212.00879,212.20898,248.21777,167.70166,248.21777z"/>
		<path fill="#6F6F6F" d="M167.70166,72.10254c-52.60303,0-95.39844,42.7959-95.39844,95.39844
			c0,52.60352,42.79541,95.39941,95.39844,95.39941c52.60254,0,95.39795-42.7959,95.39795-95.39941
			C263.09961,114.89844,220.3042,72.10254,167.70166,72.10254z M167.70166,258.00586
			c-49.9043,0-90.50488-40.60059-90.50488-90.50488s40.60059-90.50391,90.50488-90.50391s90.50439,40.59961,90.50439,90.50391
			S217.60596,258.00586,167.70166,258.00586z"/>
		<path fill="#6F6F6F" d="M167.70166,62.31543c-57.99072,0-105.16943,47.18652-105.16943,105.18555
			c0,58,47.17871,105.1875,105.16943,105.1875c58,0,105.18604-47.1875,105.18604-105.1875
			C272.8877,109.50195,225.70166,62.31543,167.70166,62.31543z M167.70166,267.79395
			c-55.29199,0-100.27588-44.99121-100.27588-100.29297c0-55.30078,44.98389-100.29102,100.27588-100.29102
			c55.30127,0,100.29248,44.99023,100.29248,100.29102C267.99414,222.80273,223.00293,267.79395,167.70166,267.79395z"/>
		<path fill="#6F6F6F" d="M167.71826,52.54395c-63.39697,0-114.97412,51.56934-114.97412,114.95703
			s51.57715,114.95801,114.97412,114.95801c63.3877,0,114.95703-51.57031,114.95703-114.95801
			S231.10596,52.54395,167.71826,52.54395z M167.71826,277.56445c-60.69873,0-110.08057-49.37402-110.08057-110.06348
			c0-60.68848,49.38184-110.0625,110.08057-110.0625c60.68896,0,110.06348,49.37402,110.06348,110.0625
			C277.78174,228.19043,228.40723,277.56445,167.71826,277.56445z"/>
		<path fill="#6F6F6F" d="M167.71826,42.75586c-68.78467,0-124.74512,55.96094-124.74512,124.74512
			c0,68.78516,55.96045,124.74609,124.74512,124.74609s124.74512-55.96094,124.74512-124.74609
			C292.46338,98.7168,236.50293,42.75586,167.71826,42.75586z M167.71826,287.35254
			c-66.08643,0-119.85156-53.76465-119.85156-119.85156c0-66.08594,53.76514-119.85059,119.85156-119.85059
			s119.85156,53.76465,119.85156,119.85059C287.56982,233.58789,233.80469,287.35254,167.71826,287.35254z"/>
		<path fill="#6F6F6F" d="M167.71826,32.96777c-74.18213,0-134.5332,60.35156-134.5332,134.5332
			c0,74.18262,60.35107,134.53418,134.5332,134.53418c74.18164,0,134.53271-60.35156,134.53271-134.53418
			C302.25098,93.31934,241.8999,32.96777,167.71826,32.96777z M167.71826,297.14062
			c-71.4834,0-129.63965-58.15625-129.63965-129.63965S96.23486,37.8623,167.71826,37.8623
			c71.48291,0,129.63916,58.15527,129.63916,129.63867S239.20117,297.14062,167.71826,297.14062z"/>
		<path fill="#6F6F6F" d="M167.71826,23.17969c-79.56982,0-144.3042,64.74219-144.3042,144.32129
			s64.73438,144.32227,144.3042,144.32227c79.5791,0,144.3208-64.74316,144.3208-144.32227S247.29736,23.17969,167.71826,23.17969z
			 M167.71826,306.92871c-76.87109,0-139.41064-62.54688-139.41064-139.42773c0-76.87988,62.53955-139.42676,139.41064-139.42676
			c76.88037,0,139.42725,62.54688,139.42725,139.42676C307.14551,244.38184,244.59863,306.92871,167.71826,306.92871z"/>
		<path fill="#6F6F6F" d="M167.73486,13.40918c-84.97607,0-154.10889,69.125-154.10889,154.0918
			s69.13281,154.09277,154.10889,154.09277c84.9668,0,154.0918-69.12598,154.0918-154.09277S252.70166,13.40918,167.73486,13.40918z
			 M167.73486,316.69922c-82.27734,0-149.21533-66.92969-149.21533-149.19824c0-82.26758,66.93799-149.19727,149.21533-149.19727
			c82.26807,0,149.19824,66.92969,149.19824,149.19727C316.93311,249.76953,250.00293,316.69922,167.73486,316.69922z"/>
		<path fill="#6F6F6F" d="M167.73486,3.62109c-90.37305,0-163.89697,73.5166-163.89697,163.87988
			c0,90.36426,73.52393,163.88086,163.89697,163.88086c90.36377,0,163.87988-73.5166,163.87988-163.88086
			C331.61475,77.1377,258.09863,3.62109,167.73486,3.62109z M167.73486,326.4873c-87.6748,0-159.00342-71.32129-159.00342-158.98633
			S80.06006,8.51562,167.73486,8.51562c87.66504,0,158.98633,71.32031,158.98633,158.98535S255.3999,326.4873,167.73486,326.4873z"
			/>
		<path fill="#6F6F6F" d="M334,217.46094v-21.32007C321.89941,266.6311,265.93506,322.31519,195.30542,334h21.76526
			C272.98828,317.37866,317.19653,273.30078,334,217.46094z"/>
		<path fill="#6F6F6F" d="M334,138.86108v-21.31982C316.84668,60.53857,271.13562,15.79272,213.56299,0h-25.1792
			C262.25684,9.08228,321.50659,66.08301,334,138.86108z"/>
		<path fill="#6F6F6F" d="M146.95215,0h-25.1792C62.6333,16.22266,16.01001,62.99683,0,122.22339v26.01416
			C8.81421,71.02246,69.93506,9.46899,146.95215,0z"/>
		<path fill="#6F6F6F" d="M0,186.7644v26.0144C15.69214,270.82935,60.79382,316.91675,118.26538,334h21.76526
			C66.29761,321.80176,8.54834,261.65088,0,186.7644z"/>
		<path fill="#6F6F6F" d="M334,244.84009v-12.3916C315.80127,278.89502,278.68396,315.91919,232.17908,334h12.47253
			C283.91577,315.77246,315.69128,284.05908,334,244.84009z"/>
		<path fill="#6F6F6F" d="M0,228.94214v12.97632C18.07495,282.48389,50.44946,315.32178,90.68469,334h12.47205
			C55.48682,315.46631,17.67688,277.02954,0,228.94214z"/>
		<path fill="#6F6F6F" d="M105.79004,0H92.86877C51.62036,18.49243,18.40125,51.78589,0,93.08374v12.97681
			C18.00122,57.09082,56.88,18.12598,105.79004,0z"/>
		<path fill="#6F6F6F" d="M334,102.55396V90.16211C315.35254,50.21729,282.73804,18.05396,242.46753,0H229.5459
			C277.28198,17.69116,315.45898,55.23389,334,102.55396z"/>
		<path fill="#6F6F6F" d="M0,253.23218v10.24072C16.72339,292.58105,40.81213,316.93555,69.69653,334h10.00732
			C45.58472,315.89795,17.65308,287.62329,0,253.23218z"/>
		<path fill="#6F6F6F" d="M334,79.21313v-9.97437C317.00537,40.58105,292.82861,16.6626,263.95422,0h-10.21228
			C287.87146,17.60913,315.95215,45.34863,334,79.21313z"/>
		<path fill="#6F6F6F" d="M334,265.76343v-9.97437c-17.71143,33.2334-45.08923,60.56055-78.35999,78.21094h10.00842
			C293.77209,317.38647,317.34009,293.85669,334,265.76343z"/>
		<path fill="#6F6F6F" d="M81.60181,0H71.3905C41.75061,17.10596,17.05042,41.85205,0,71.5293v10.24072
			C17.97998,46.74194,46.61841,18.05127,81.60181,0z"/>
		<path fill="#6F6F6F" d="M334,283.78467v-8.74194C318.70654,298.61328,298.54602,318.74487,274.94849,334h8.75586
			C303.25842,320.33301,320.30298,303.31641,334,283.78467z"/>
		<path fill="#6F6F6F" d="M334,59.95947v-8.74146C319.96631,31.20605,302.41943,13.8335,282.25879,0h-8.88464
			C297.6488,15.37134,318.36792,35.86719,334,59.95947z"/>
		<path fill="#6F6F6F" d="M0,272.92041v8.9104C13.92236,302.18311,31.45007,319.87891,51.65564,334h8.75623
			C36.10718,318.28931,15.45068,297.40503,0,272.92041z"/>
		<path fill="#6F6F6F" d="M61.98633,0h-8.88501C32.28516,14.28223,14.25366,32.33569,0,53.17188v8.91016
			C15.78284,37.0708,37,15.82031,61.98633,0z"/>
		<path fill="#6F6F6F" d="M334,300.09619v-7.97217C322.08154,307.98975,307.95203,322.10376,292.0686,334h7.98389
			C312.59717,324.00586,323.98926,312.6272,334,300.09619z"/>
		<path fill="#6F6F6F" d="M334,42.87842v-7.97241C323.65527,21.95703,311.84155,10.23145,298.79919,0h-8.10071
			C307.13696,12.10498,321.7417,26.5603,334,42.87842z"/>
		<path fill="#6F6F6F" d="M44.6709,0h-8.1001C22.95154,10.68408,10.66528,22.99194,0,36.62646v8.11206
			C12.53662,27.66064,27.6123,12.56152,44.6709,0z"/>
		<path fill="#6F6F6F" d="M0,290.26367v8.11206C10.33557,311.58911,22.19922,323.54907,35.31738,334h7.9834
			C26.80115,321.64233,12.20166,306.8855,0,290.26367z"/>
		<path fill="#6F6F6F" d="M28.79041,0h-7.53333C13.70483,6.61035,6.60107,13.71973,0,21.28027v7.54346
			C8.68066,18.3457,18.32385,8.69385,28.79041,0z"/>
		<path fill="#6F6F6F" d="M334,27.20508V19.7373C327.78735,12.75244,321.14722,6.15723,314.11267,0h-7.53381
			C316.50171,8.24243,325.67603,17.35278,334,27.20508z"/>
		<path fill="#6F6F6F" d="M0,306.1792v7.54297C6.27002,320.90332,12.99707,327.67358,20.12756,334h7.47717
			C17.59705,325.56689,8.35034,316.2583,0,306.1792z"/>
		<path fill="#6F6F6F" d="M334,315.26514v-7.46729c-7.98987,9.45679-16.76819,18.22437-26.23547,26.20215h7.47766
			C321.85815,328.12988,328.12207,321.87378,334,315.26514z"/>
		<path fill="#6F6F6F" d="M334,329.61499v-7.08765c-3.69238,3.9585-7.52319,7.78491-11.48621,11.47266h7.0968
			C331.09314,332.55786,332.55615,331.09595,334,329.61499z"/>
		<path fill="#6F6F6F" d="M0,321.04346v7.15625c1.88757,1.96924,3.81592,3.89844,5.77087,5.80029h7.09607
			C8.40955,329.85205,4.11377,325.53296,0,321.04346z"/>
		<path fill="#6F6F6F" d="M334,12.47534V5.38745c-1.77783-1.82349-3.57983-3.6228-5.41602-5.38745h-7.14722
			C325.78467,3.99414,329.97314,8.1582,334,12.47534z"/>
		<path fill="#6F6F6F" d="M13.94385,0H6.79736C4.48584,2.22144,2.21851,4.48828,0,6.80249v7.15674
			C4.44519,9.10791,9.09863,4.45142,13.94385,0z"/>
	</g>
</g>
<g id="Layer_3" display="none">
</g>
<g id="Layer_2" display="none">
</g>
</svg>
