<?xml version="1.0" encoding="utf-8"?>
<!-- Generator: Adobe Illustrator 21.1.0, SVG Export Plug-In . SVG Version: 6.00 Build 0)  -->
<svg version="1.2" baseProfile="tiny" xmlns="http://www.w3.org/2000/svg" xmlns:xlink="http://www.w3.org/1999/xlink" x="0px"
	 y="0px" viewBox="0 0 334 334" xml:space="preserve">
<g id="Layer_1">
	<g>
		<path fill="#828282" d="M166.38184,28.07422c-76.87109,0-139.41016,62.54688-139.41016,139.42676
			c0,76.88086,62.53906,139.42773,139.41016,139.42773c76.87988,0,139.42676-62.54688,139.42676-139.42773
			C305.80859,90.62109,243.26172,28.07422,166.38184,28.07422z M166.38184,302.03516
			c-74.18164,0-134.5332-60.35156-134.5332-134.53418c0-74.18164,60.35156-134.5332,134.5332-134.5332
			s134.5332,60.35156,134.5332,134.5332C300.91504,241.68359,240.56348,302.03516,166.38184,302.03516z"/>
		<path fill="#828282" d="M166.33203,155.2666c-6.7373,0-12.21777,5.48828-12.21777,12.23438
			c0,6.74707,5.48047,12.23535,12.21777,12.23535c6.74609,0,12.23438-5.48828,12.23438-12.23535
			C178.56641,160.75488,173.07812,155.2666,166.33203,155.2666z M166.33203,174.84277c-4.04785,0-7.3418-3.29395-7.3418-7.3418
			s3.29395-7.34082,7.3418-7.34082s7.34082,3.29297,7.34082,7.34082S170.37988,174.84277,166.33203,174.84277z"/>
		<circle fill="#828282" cx="166.33179" cy="167.50122" r="2.44678"/>
		<path fill="#828282" d="M166.34863,145.49609c-12.14355,0-22.02246,9.87109-22.02246,22.00488s9.87891,22.00586,22.02246,22.00586
			c12.13379,0,22.00586-9.87207,22.00586-22.00586S178.48242,145.49609,166.34863,145.49609z M166.33203,184.63086
			c-9.43555,0-17.1123-7.68457-17.1123-17.12988c0-9.44434,7.67676-17.12891,17.1123-17.12891
			c9.44434,0,17.12891,7.68457,17.12891,17.12891C183.46094,176.94629,175.77637,184.63086,166.33203,184.63086z"/>
		<path fill="#828282" d="M334,6.75562V0h-6.7522C329.5437,2.2063,331.7959,4.45776,334,6.75562z"/>
		<path fill="#828282" d="M0,244.84009v10.92114C17.70947,289.00708,45.09082,316.34473,78.36768,334h10.98071
			C50.08423,315.77246,18.30859,284.05908,0,244.84009z"/>
		<path fill="#828282" d="M0,283.75732v8.32324C11.92529,307.96411,26.06665,322.09277,41.9646,334h8.35449
			C30.75415,320.32666,13.70166,303.30054,0,283.75732z"/>
		<path fill="#828282" d="M166.34863,135.70801c-17.53125,0-31.79395,14.26172-31.79395,31.79297
			s14.2627,31.79395,31.79395,31.79395s31.79395-14.2627,31.79395-31.79395S183.87988,135.70801,166.34863,135.70801z
			 M166.34863,194.40137c-14.8418,0-26.91699-12.06738-26.91699-26.90039c0-14.83203,12.0752-26.89941,26.91699-26.89941
			c14.83301,0,26.90039,12.06738,26.90039,26.89941C193.24902,182.33398,181.18164,194.40137,166.34863,194.40137z"/>
		<path fill="#828282" d="M0,265.73926v9.27539C15.29712,298.59741,35.46631,318.73877,59.07568,334h9.28442
			C40.23071,317.38159,16.65918,293.84326,0,265.73926z"/>
		<path fill="#828282" d="M0,217.46094v14.9873C18.19873,278.89478,55.31641,315.91919,101.82104,334h15.10815
			C61.01172,317.37866,16.80347,273.30078,0,217.46094z"/>
		<path fill="#828282" d="M166.36523,76.99707c-49.9043,0-90.50391,40.59961-90.50391,90.50391s40.59961,90.50488,90.50391,90.50488
			s90.50391-40.60059,90.50391-90.50488S216.26953,76.99707,166.36523,76.99707z M166.36523,253.1123
			c-47.20605,0-85.61133-38.40527-85.61133-85.61133c0-47.20508,38.40527-85.61035,85.61133-85.61035
			s85.61133,38.40527,85.61133,85.61035C251.97656,214.70703,213.57129,253.1123,166.36523,253.1123z"/>
		<path fill="#828282" d="M166.34863,125.91992c-22.92773,0-41.58105,18.65332-41.58105,41.58105
			c0,22.92871,18.65332,41.58203,41.58105,41.58203s41.58105-18.65332,41.58105-41.58203
			C207.92969,144.57324,189.27637,125.91992,166.34863,125.91992z M166.34863,204.18945
			c-20.22949,0-36.68848-16.45898-36.68848-36.68848s16.45898-36.6875,36.68848-36.6875s36.68848,16.45801,36.68848,36.6875
			S186.57812,204.18945,166.34863,204.18945z"/>
		<path fill="#828282" d="M166.36523,67.20996c-55.29199,0-100.27539,44.99023-100.27539,100.29102
			c0,55.30176,44.9834,100.29297,100.27539,100.29297c55.30176,0,100.29199-44.99121,100.29199-100.29297
			C266.65723,112.2002,221.66699,67.20996,166.36523,67.20996z M166.36523,262.90039
			c-52.60254,0-95.39844-42.7959-95.39844-95.39941c0-52.60254,42.7959-95.39844,95.39844-95.39844
			s95.39844,42.7959,95.39844,95.39844C261.76367,220.10449,218.96777,262.90039,166.36523,262.90039z"/>
		<path fill="#828282" d="M166.36523,86.78516c-44.50781,0-80.7168,36.20898-80.7168,80.71582
			c0,44.50781,36.20898,80.7168,80.7168,80.7168s80.7168-36.20898,80.7168-80.7168
			C247.08203,122.99414,210.87305,86.78516,166.36523,86.78516z M166.36523,243.32422
			c-41.81836,0-75.83984-34.01465-75.83984-75.82324s34.02148-75.82227,75.83984-75.82227
			c41.80859,0,75.82324,34.01367,75.82324,75.82227S208.17383,243.32422,166.36523,243.32422z"/>
		<path fill="#828282" d="M166.34863,116.13184c-28.3252,0-51.36914,23.04395-51.36914,51.36914
			c0,28.32617,23.04395,51.37012,51.36914,51.37012s51.36914-23.04395,51.36914-51.37012
			C217.71777,139.17578,194.67383,116.13184,166.34863,116.13184z M166.34863,213.97754
			c-25.62695,0-46.47559-20.84961-46.47559-46.47656s20.84863-46.47559,46.47559-46.47559s46.47559,20.84863,46.47559,46.47559
			S191.97559,213.97754,166.34863,213.97754z"/>
		<path fill="#828282" d="M166.36523,96.57324c-39.11914,0-70.94531,31.81836-70.94531,70.92773
			c0,39.11035,31.82617,70.92871,70.94531,70.92871c39.11035,0,70.92871-31.81836,70.92871-70.92871
			C237.29395,128.3916,205.47559,96.57324,166.36523,96.57324z M166.34863,233.55371
			c-36.41211,0-66.03516-29.63086-66.03516-66.05273c0-36.41992,29.62305-66.05078,66.03516-66.05078
			c36.4209,0,66.05176,29.63086,66.05176,66.05078C232.40039,203.92285,202.76953,233.55371,166.34863,233.55371z"/>
		<path fill="#828282" d="M334,93.08252V81.74194C316.01758,46.72681,287.38281,18.04639,252.40576,0h-11.27417
			C282.37964,18.49219,315.59863,51.7854,334,93.08252z"/>
		<path fill="#828282" d="M5.46069,0H0v5.43359C1.79224,3.59424,3.60913,1.77954,5.46069,0z"/>
		<path fill="#828282" d="M19.9209,0h-7.31348C8.24365,4.00928,4.04053,8.18945,0,12.52393v7.25098
			C6.22217,12.77612,12.87354,6.16846,19.9209,0z"/>
		<path fill="#828282" d="M35.23438,0h-7.77979C17.51855,8.25342,8.33276,17.3772,0,27.24463v7.70288
			C10.35254,21.98218,22.17798,10.24243,35.23438,0z"/>
		<path fill="#828282" d="M51.76465,0h-8.42969C26.88159,12.11572,12.26514,26.58594,0,42.92163v8.32373
			C14.03809,31.22217,31.59326,13.83984,51.76465,0z"/>
		<path fill="#828282" d="M334,71.50244v-9.45117C318.22046,37.05371,297.01196,15.81396,272.03809,0h-9.41992
			C292.25171,17.10059,316.94849,41.83691,334,71.50244z"/>
		<path fill="#828282" d="M334,53.14258v-8.4502C321.47021,27.6333,306.40601,12.55005,289.36279,0h-8.43945
			C301.72778,14.27539,319.75073,32.31885,334,53.14258z"/>
		<path fill="#828282" d="M334,122.22168v-16.15991C315.99902,57.09131,277.11987,18.12622,228.20972,0h-15.98267
			C271.36621,16.22266,317.9895,62.99585,334,122.22168z"/>
		<path fill="#828282" d="M166.38184,57.43848c-60.69824,0-110.08008,49.37402-110.08008,110.0625
			c0,60.68945,49.38184,110.06348,110.08008,110.06348c60.68945,0,110.06348-49.37402,110.06348-110.06348
			C276.44531,106.8125,227.07129,57.43848,166.38184,57.43848z M166.36523,272.68848
			c-57.99121,0-105.16992-47.1875-105.16992-105.1875c0-57.99902,47.17871-105.18555,105.16992-105.18555
			c58,0,105.18652,47.18652,105.18652,105.18555C271.55176,225.50098,224.36523,272.68848,166.36523,272.68848z"/>
		<path fill="#828282" d="M91.53247,0H80.26562C46.12988,17.61401,18.04565,45.36377,0,79.24097v10.92114
			C18.64746,50.21729,51.26196,18.05396,91.53247,0z"/>
		<path fill="#828282" d="M0,315.22754v7.25122c3.70605,3.97583,7.55176,7.8186,11.53052,11.52124h7.26099
			C12.16284,328.1189,5.8877,321.8501,0,315.22754z"/>
		<path fill="#828282" d="M334,36.58203v-7.79736C325.32788,18.32178,315.69604,8.68311,305.24268,0h-7.7793
			C311.06787,10.67261,323.34277,22.96484,334,36.58203z"/>
		<path fill="#828282" d="M0,300.05469v7.70361C7.99878,317.23022,16.78857,326.01099,26.26904,334h7.71191
			C21.42236,323.99487,10.0188,312.60205,0,300.05469z"/>
		<path fill="#828282" d="M120.43701,0h-15.98267C56.71826,17.69116,18.54102,55.23413,0,102.5542v14.98706
			C17.15332,60.53857,62.86426,15.79272,120.43701,0z"/>
		<path fill="#828282" d="M0,329.56885V334h4.43433C2.93652,332.54272,1.4585,331.06543,0,329.56885z"/>
		<path fill="#828282" d="M334,21.24268v-7.33252C329.56836,9.07666,324.92993,4.43628,320.10083,0h-7.32446
			C320.31592,6.59937,327.4082,13.69629,334,21.24268z"/>
		<path fill="#828282" d="M70.0542,0h-9.4043C36.36377,15.37744,15.6355,35.88306,0,59.98779v9.27515
			C16.9939,40.59473,41.17407,16.66724,70.0542,0z"/>
		<path fill="#828282" d="M166.34863,106.34473c-33.71289,0-61.14062,27.43457-61.14062,61.15625
			c0,33.72266,27.42773,61.1582,61.14062,61.1582c33.72266,0,61.15723-27.43555,61.15723-61.1582
			C227.50586,133.7793,200.07129,106.34473,166.34863,106.34473z M166.34863,223.76562
			c-31.02344,0-56.26367-25.24023-56.26367-56.26465c0-31.02344,25.24023-56.26367,56.26367-56.26367
			s56.26367,25.24023,56.26367,56.26367C222.6123,198.52539,197.37207,223.76562,166.34863,223.76562z"/>
		<path fill="#828282" d="M334,228.94092v-16.16064C318.30737,270.83032,273.20581,316.91699,215.73486,334h15.10815
			C278.51318,315.46606,316.32324,277.02905,334,228.94092z"/>
		<path fill="#828282" d="M166.39844,8.51562c-87.6748,0-159.00293,71.32031-159.00293,158.98535
			S78.72363,326.4873,166.39844,326.4873c87.66602,0,158.98633-71.32129,158.98633-158.98633S254.06445,8.51562,166.39844,8.51562z
			 M166.39844,321.59375c-84.97559,0-154.10938-69.12598-154.10938-154.09277s69.13379-154.0918,154.10938-154.0918
			c84.9668,0,154.09277,69.125,154.09277,154.0918S251.36523,321.59375,166.39844,321.59375z"/>
		<path fill="#828282" d="M334,272.95093V263.5c-16.72412,29.09619-40.80957,53.44092-69.68774,70.5h9.30029
			C297.90503,318.2959,318.55273,297.42261,334,272.95093z"/>
		<path fill="#828282" d="M334,186.76025V148.2417C325.1875,71.02466,264.06641,9.46924,187.04785,0h-41.43164
			C71.74219,9.08252,12.49219,66.08447,0,138.86426v57.27368C12.09937,266.62939,68.06396,322.31494,138.69458,334h55.2749
			C267.7041,321.80151,325.45337,261.64868,334,186.76025z M166.39844,331.38184c-90.37305,0-163.89746-73.5166-163.89746-163.88086
			c0-90.36328,73.52441-163.87988,163.89746-163.87988c90.36426,0,163.88086,73.5166,163.88086,163.87988
			C330.2793,257.86523,256.7627,331.38184,166.39844,331.38184z"/>
		<path fill="#828282" d="M334,253.26025v-11.34082C315.9248,282.48462,283.55054,315.32178,243.31567,334h10.98804
			C288.41675,315.90308,316.34473,287.63867,334,253.26025z"/>
		<path fill="#828282" d="M166.39844,18.30371c-82.27734,0-149.21484,66.92969-149.21484,149.19727
			c0,82.26855,66.9375,149.19824,149.21484,149.19824c82.26855,0,149.19824-66.92969,149.19824-149.19824
			C315.59668,85.2334,248.66699,18.30371,166.39844,18.30371z M166.38184,311.82324
			c-79.56934,0-144.30469-64.74316-144.30469-144.32227S86.8125,23.17969,166.38184,23.17969
			c79.5791,0,144.32129,64.74219,144.32129,144.32129S245.96094,311.82324,166.38184,311.82324z"/>
		<path fill="#828282" d="M334,328.24658c-1.87305,1.95288-3.78613,3.8667-5.72559,5.75342H334V328.24658z"/>
		<path fill="#828282" d="M334,306.21802v-7.79761c-10.32739,13.1958-22.17969,25.14038-35.28345,35.57959h7.71167
			C316.42285,325.57764,325.6582,316.28223,334,306.21802z"/>
		<path fill="#828282" d="M334,290.30981v-8.44971C320.08203,302.19995,302.56299,319.88574,282.3689,334h8.36401
			C307.21729,321.65381,321.80518,306.91284,334,290.30981z"/>
		<path fill="#828282" d="M334,321.09253v-7.33276c-6.2605,7.16699-12.97632,13.9248-20.09424,20.24023h7.27197
			C325.61914,329.86719,329.8999,325.56445,334,321.09253z"/>
		<path fill="#828282" d="M166.38184,37.8623c-71.4834,0-129.63867,58.15527-129.63867,129.63867
			s58.15527,129.63965,129.63867,129.63965s129.63867-58.15625,129.63867-129.63965S237.86523,37.8623,166.38184,37.8623z
			 M166.38184,292.24707c-68.78516,0-124.74609-55.96094-124.74609-124.74609c0-68.78418,55.96094-124.74512,124.74609-124.74512
			S291.12793,98.7168,291.12793,167.50098C291.12793,236.28613,235.16699,292.24707,166.38184,292.24707z"/>
		<path fill="#828282" d="M166.38184,47.65039c-66.08691,0-119.85156,53.76465-119.85156,119.85059
			c0,66.08691,53.76465,119.85156,119.85156,119.85156S286.2334,233.58789,286.2334,167.50098
			C286.2334,101.41504,232.46875,47.65039,166.38184,47.65039z M166.38184,282.45898
			c-63.39746,0-114.97461-51.57031-114.97461-114.95801S102.98438,52.54395,166.38184,52.54395
			c63.3877,0,114.95801,51.56934,114.95801,114.95703S229.76953,282.45898,166.38184,282.45898z"/>
		<path fill="#7D7D7D" d="M166.33203,160.16016c-4.04785,0-7.3418,3.29297-7.3418,7.34082s3.29395,7.3418,7.3418,7.3418
			s7.34082-3.29395,7.34082-7.3418S170.37988,160.16016,166.33203,160.16016z M166.33203,169.94824
			c-1.34961,0-2.44727-1.09766-2.44727-2.44727c0-1.34863,1.09766-2.44629,2.44727-2.44629
			c1.34863,0,2.44629,1.09766,2.44629,2.44629C168.77832,168.85059,167.68066,169.94824,166.33203,169.94824z"/>
		<path fill="#7D7D7D" d="M166.33203,150.37207c-9.43555,0-17.1123,7.68457-17.1123,17.12891
			c0,9.44531,7.67676,17.12988,17.1123,17.12988c9.44434,0,17.12891-7.68457,17.12891-17.12988
			C183.46094,158.05664,175.77637,150.37207,166.33203,150.37207z M166.33203,179.73633
			c-6.7373,0-12.21777-5.48828-12.21777-12.23535c0-6.74609,5.48047-12.23438,12.21777-12.23438
			c6.74609,0,12.23438,5.48828,12.23438,12.23438C178.56641,174.24805,173.07812,179.73633,166.33203,179.73633z"/>
		<path fill="#7D7D7D" d="M166.34863,140.60156c-14.8418,0-26.91699,12.06738-26.91699,26.89941
			c0,14.83301,12.0752,26.90039,26.91699,26.90039c14.83301,0,26.90039-12.06738,26.90039-26.90039
			C193.24902,152.66895,181.18164,140.60156,166.34863,140.60156z M166.34863,189.50684
			c-12.14355,0-22.02246-9.87207-22.02246-22.00586s9.87891-22.00488,22.02246-22.00488
			c12.13379,0,22.00586,9.87109,22.00586,22.00488S178.48242,189.50684,166.34863,189.50684z"/>
		<path fill="#7D7D7D" d="M166.34863,130.81348c-20.22949,0-36.68848,16.45801-36.68848,36.6875
			s16.45898,36.68848,36.68848,36.68848s36.68848-16.45898,36.68848-36.68848S186.57812,130.81348,166.34863,130.81348z
			 M166.34863,199.29492c-17.53125,0-31.79395-14.2627-31.79395-31.79395s14.2627-31.79297,31.79395-31.79297
			s31.79395,14.26172,31.79395,31.79297S183.87988,199.29492,166.34863,199.29492z"/>
		<path fill="#7D7D7D" d="M166.34863,121.02539c-25.62695,0-46.47559,20.84863-46.47559,46.47559
			s20.84863,46.47656,46.47559,46.47656s46.47559-20.84961,46.47559-46.47656S191.97559,121.02539,166.34863,121.02539z
			 M166.34863,209.08301c-22.92773,0-41.58105-18.65332-41.58105-41.58203c0-22.92773,18.65332-41.58105,41.58105-41.58105
			s41.58105,18.65332,41.58105,41.58105C207.92969,190.42969,189.27637,209.08301,166.34863,209.08301z"/>
		<path fill="#7D7D7D" d="M166.34863,111.2373c-31.02344,0-56.26367,25.24023-56.26367,56.26367
			c0,31.02441,25.24023,56.26465,56.26367,56.26465s56.26367-25.24023,56.26367-56.26465
			C222.6123,136.47754,197.37207,111.2373,166.34863,111.2373z M166.34863,218.87109
			c-28.3252,0-51.36914-23.04395-51.36914-51.37012c0-28.3252,23.04395-51.36914,51.36914-51.36914
			s51.36914,23.04395,51.36914,51.36914C217.71777,195.82715,194.67383,218.87109,166.34863,218.87109z"/>
		<path fill="#7D7D7D" d="M166.34863,101.4502c-36.41211,0-66.03516,29.63086-66.03516,66.05078
			c0,36.42188,29.62305,66.05273,66.03516,66.05273c36.4209,0,66.05176-29.63086,66.05176-66.05273
			C232.40039,131.08105,202.76953,101.4502,166.34863,101.4502z M166.34863,228.65918
			c-33.71289,0-61.14062-27.43555-61.14062-61.1582c0-33.72168,27.42773-61.15625,61.14062-61.15625
			c33.72266,0,61.15723,27.43457,61.15723,61.15625C227.50586,201.22363,200.07129,228.65918,166.34863,228.65918z"/>
		<path fill="#7D7D7D" d="M166.36523,91.67871c-41.81836,0-75.83984,34.01367-75.83984,75.82227
			s34.02148,75.82324,75.83984,75.82324c41.80859,0,75.82324-34.01465,75.82324-75.82324S208.17383,91.67871,166.36523,91.67871z
			 M166.36523,238.42969c-39.11914,0-70.94531-31.81836-70.94531-70.92871c0-39.10938,31.82617-70.92773,70.94531-70.92773
			c39.11035,0,70.92871,31.81836,70.92871,70.92773C237.29395,206.61133,205.47559,238.42969,166.36523,238.42969z"/>
		<path fill="#7D7D7D" d="M166.36523,81.89062c-47.20605,0-85.61133,38.40527-85.61133,85.61035
			c0,47.20605,38.40527,85.61133,85.61133,85.61133s85.61133-38.40527,85.61133-85.61133
			C251.97656,120.2959,213.57129,81.89062,166.36523,81.89062z M166.36523,248.21777c-44.50781,0-80.7168-36.20898-80.7168-80.7168
			c0-44.50684,36.20898-80.71582,80.7168-80.71582s80.7168,36.20898,80.7168,80.71582
			C247.08203,212.00879,210.87305,248.21777,166.36523,248.21777z"/>
		<path fill="#7D7D7D" d="M166.36523,72.10254c-52.60254,0-95.39844,42.7959-95.39844,95.39844
			c0,52.60352,42.7959,95.39941,95.39844,95.39941s95.39844-42.7959,95.39844-95.39941
			C261.76367,114.89844,218.96777,72.10254,166.36523,72.10254z M166.36523,258.00586
			c-49.9043,0-90.50391-40.60059-90.50391-90.50488s40.59961-90.50391,90.50391-90.50391s90.50391,40.59961,90.50391,90.50391
			S216.26953,258.00586,166.36523,258.00586z"/>
		<path fill="#7D7D7D" d="M166.36523,62.31543c-57.99121,0-105.16992,47.18652-105.16992,105.18555
			c0,58,47.17871,105.1875,105.16992,105.1875c58,0,105.18652-47.1875,105.18652-105.1875
			C271.55176,109.50195,224.36523,62.31543,166.36523,62.31543z M166.36523,267.79395
			c-55.29199,0-100.27539-44.99121-100.27539-100.29297c0-55.30078,44.9834-100.29102,100.27539-100.29102
			c55.30176,0,100.29199,44.99023,100.29199,100.29102C266.65723,222.80273,221.66699,267.79395,166.36523,267.79395z"/>
		<path fill="#7D7D7D" d="M166.38184,52.54395c-63.39746,0-114.97461,51.56934-114.97461,114.95703
			s51.57715,114.95801,114.97461,114.95801c63.3877,0,114.95801-51.57031,114.95801-114.95801
			S229.76953,52.54395,166.38184,52.54395z M166.38184,277.56445c-60.69824,0-110.08008-49.37402-110.08008-110.06348
			c0-60.68848,49.38184-110.0625,110.08008-110.0625c60.68945,0,110.06348,49.37402,110.06348,110.0625
			C276.44531,228.19043,227.07129,277.56445,166.38184,277.56445z"/>
		<path fill="#7D7D7D" d="M166.38184,42.75586c-68.78516,0-124.74609,55.96094-124.74609,124.74512
			c0,68.78516,55.96094,124.74609,124.74609,124.74609s124.74609-55.96094,124.74609-124.74609
			C291.12793,98.7168,235.16699,42.75586,166.38184,42.75586z M166.38184,287.35254
			c-66.08691,0-119.85156-53.76465-119.85156-119.85156c0-66.08594,53.76465-119.85059,119.85156-119.85059
			S286.2334,101.41504,286.2334,167.50098C286.2334,233.58789,232.46875,287.35254,166.38184,287.35254z"/>
		<path fill="#7D7D7D" d="M166.38184,32.96777c-74.18164,0-134.5332,60.35156-134.5332,134.5332
			c0,74.18262,60.35156,134.53418,134.5332,134.53418s134.5332-60.35156,134.5332-134.53418
			C300.91504,93.31934,240.56348,32.96777,166.38184,32.96777z M166.38184,297.14062
			c-71.4834,0-129.63867-58.15625-129.63867-129.63965S94.89844,37.8623,166.38184,37.8623s129.63867,58.15527,129.63867,129.63867
			S237.86523,297.14062,166.38184,297.14062z"/>
		<path fill="#7D7D7D" d="M166.38184,23.17969c-79.56934,0-144.30469,64.74219-144.30469,144.32129
			S86.8125,311.82324,166.38184,311.82324c79.5791,0,144.32129-64.74316,144.32129-144.32227S245.96094,23.17969,166.38184,23.17969
			z M166.38184,306.92871c-76.87109,0-139.41016-62.54688-139.41016-139.42773c0-76.87988,62.53906-139.42676,139.41016-139.42676
			c76.87988,0,139.42676,62.54688,139.42676,139.42676C305.80859,244.38184,243.26172,306.92871,166.38184,306.92871z"/>
		<path fill="#7D7D7D" d="M166.39844,13.40918c-84.97559,0-154.10938,69.125-154.10938,154.0918
			s69.13379,154.09277,154.10938,154.09277c84.9668,0,154.09277-69.12598,154.09277-154.09277
			S251.36523,13.40918,166.39844,13.40918z M166.39844,316.69922c-82.27734,0-149.21484-66.92969-149.21484-149.19824
			c0-82.26758,66.9375-149.19727,149.21484-149.19727c82.26855,0,149.19824,66.92969,149.19824,149.19727
			C315.59668,249.76953,248.66699,316.69922,166.39844,316.69922z"/>
		<path fill="#7D7D7D" d="M166.39844,3.62109c-90.37305,0-163.89746,73.5166-163.89746,163.87988
			c0,90.36426,73.52441,163.88086,163.89746,163.88086c90.36426,0,163.88086-73.5166,163.88086-163.88086
			C330.2793,77.1377,256.7627,3.62109,166.39844,3.62109z M166.39844,326.4873c-87.6748,0-159.00293-71.32129-159.00293-158.98633
			S78.72363,8.51562,166.39844,8.51562c87.66602,0,158.98633,71.32031,158.98633,158.98535S254.06445,326.4873,166.39844,326.4873z"
			/>
		<path fill="#7D7D7D" d="M145.61621,0h-25.1792C62.86426,15.79272,17.15332,60.53857,0,117.54126v21.323
			C12.49219,66.08447,71.74219,9.08252,145.61621,0z"/>
		<path fill="#7D7D7D" d="M0,196.13794v21.323C16.80347,273.30078,61.01172,317.37866,116.9292,334h21.76538
			C68.06396,322.31494,12.09937,266.62939,0,196.13794z"/>
		<path fill="#7D7D7D" d="M334,148.2417v-26.02002C317.9895,62.99585,271.36621,16.22266,212.22705,0h-25.1792
			C264.06641,9.46924,325.1875,71.02466,334,148.2417z"/>
		<path fill="#7D7D7D" d="M334,212.78027v-26.02002C325.45337,261.64868,267.7041,321.80151,193.96948,334h21.76538
			C273.20581,316.91699,318.30737,270.83032,334,212.78027z"/>
		<path fill="#7D7D7D" d="M0,232.44824v12.39185C18.30859,284.05908,50.08423,315.77246,89.34839,334h12.47266
			C55.31641,315.91919,18.19873,278.89478,0,232.44824z"/>
		<path fill="#7D7D7D" d="M104.45435,0H91.53247C51.26196,18.05396,18.64746,50.21729,0,90.16211v12.39209
			C18.54102,55.23413,56.71826,17.69116,104.45435,0z"/>
		<path fill="#7D7D7D" d="M334,241.91943v-12.97852C316.32324,277.02905,278.51318,315.46606,230.84302,334h12.47266
			C283.55054,315.32178,315.9248,282.48462,334,241.91943z"/>
		<path fill="#7D7D7D" d="M334,106.06177V93.08252C315.59863,51.7854,282.37964,18.49219,241.13159,0h-12.92188
			C277.11987,18.12622,315.99902,57.09131,334,106.06177z"/>
		<path fill="#7D7D7D" d="M334,81.74194v-10.2395C316.94849,41.83691,292.25171,17.10059,262.61816,0h-10.2124
			C287.38281,18.04639,316.01758,46.72681,334,81.74194z"/>
		<path fill="#7D7D7D" d="M0,255.76123v9.97803C16.65918,293.84326,40.23071,317.38159,68.36011,334h10.00757
			C45.09082,316.34473,17.70947,289.00708,0,255.76123z"/>
		<path fill="#7D7D7D" d="M80.26562,0H70.0542C41.17407,16.66724,16.9939,40.59473,0,69.26294v9.97803
			C18.04565,45.36377,46.12988,17.61401,80.26562,0z"/>
		<path fill="#7D7D7D" d="M334,263.5v-10.23975C316.34473,287.63867,288.41675,315.90308,254.30371,334h10.00854
			C293.19043,316.94092,317.27588,292.59619,334,263.5z"/>
		<path fill="#7D7D7D" d="M334,281.86011v-8.90918C318.55273,297.42261,297.90503,318.2959,273.61255,334h8.75635
			C302.56299,319.88574,320.08203,302.19995,334,281.86011z"/>
		<path fill="#7D7D7D" d="M334,62.05127v-8.90869C319.75073,32.31885,301.72778,14.27539,280.92334,0h-8.88525
			C297.01196,15.81396,318.22046,37.05371,334,62.05127z"/>
		<path fill="#7D7D7D" d="M60.6499,0h-8.88525C31.59326,13.83984,14.03809,31.22217,0,51.24536v8.74243
			C15.6355,35.88306,36.36377,15.37744,60.6499,0z"/>
		<path fill="#7D7D7D" d="M0,275.01465v8.74268C13.70166,303.30054,30.75415,320.32666,50.31909,334h8.75659
			C35.46631,318.73877,15.29712,298.59741,0,275.01465z"/>
		<path fill="#7D7D7D" d="M334,44.69238v-8.11035C323.34277,22.96484,311.06787,10.67261,297.46338,0h-8.10059
			C306.40601,12.55005,321.47021,27.6333,334,44.69238z"/>
		<path fill="#7D7D7D" d="M334,298.42041v-8.1106C321.80518,306.91284,307.21729,321.65381,290.73291,334h7.98364
			C311.82031,323.56079,323.67261,311.61621,334,298.42041z"/>
		<path fill="#7D7D7D" d="M0,292.08057v7.97412C10.0188,312.60205,21.42236,323.99487,33.98096,334h7.98364
			C26.06665,322.09277,11.92529,307.96411,0,292.08057z"/>
		<path fill="#7D7D7D" d="M43.33496,0h-8.10059C22.17798,10.24243,10.35254,21.98218,0,34.94751v7.97412
			C12.26514,26.58594,26.88159,12.11572,43.33496,0z"/>
		<path fill="#7D7D7D" d="M0,307.7583v7.46924C5.8877,321.8501,12.16284,328.1189,18.7915,334h7.47754
			C16.78857,326.01099,7.99878,317.23022,0,307.7583z"/>
		<path fill="#7D7D7D" d="M334,28.78467v-7.54199C327.4082,13.69629,320.31592,6.59937,312.77637,0h-7.53369
			C315.69604,8.68311,325.32788,18.32178,334,28.78467z"/>
		<path fill="#7D7D7D" d="M27.45459,0H19.9209C12.87354,6.16846,6.22217,12.77612,0,19.7749v7.46973
			C8.33276,17.3772,17.51855,8.25342,27.45459,0z"/>
		<path fill="#7D7D7D" d="M334,313.75977v-7.54175c-8.3418,10.06421-17.57715,19.35962-27.57178,27.78198h7.47754
			C321.02368,327.68457,327.7395,320.92676,334,313.75977z"/>
		<path fill="#7D7D7D" d="M334,328.24658v-7.15405c-4.1001,4.47192-8.38086,8.77466-12.82227,12.90747h7.09668
			C330.21387,332.11328,332.12695,330.19946,334,328.24658z"/>
		<path fill="#7D7D7D" d="M0,322.47876v7.09009c1.4585,1.49658,2.93652,2.97388,4.43433,4.43115h7.09619
			C7.55176,330.29736,3.70605,326.45459,0,322.47876z"/>
		<path fill="#7D7D7D" d="M12.60742,0H5.46069C3.60913,1.77954,1.79224,3.59424,0,5.43359v7.09033
			C4.04053,8.18945,8.24365,4.00928,12.60742,0z"/>
		<path fill="#7D7D7D" d="M334,13.91016V6.75562C331.7959,4.45776,329.5437,2.2063,327.2478,0h-7.14697
			C324.92993,4.43628,329.56836,9.07666,334,13.91016z"/>
	</g>
</g>
<g id="Layer_3" display="none">
</g>
<g id="Layer_2" display="none">
</g>
</svg>
