<?xml version="1.0" encoding="utf-8"?>
<!-- Generator: Adobe Illustrator 21.1.0, SVG Export Plug-In . SVG Version: 6.00 Build 0)  -->
<svg version="1.2" baseProfile="tiny" xmlns="http://www.w3.org/2000/svg" xmlns:xlink="http://www.w3.org/1999/xlink" x="0px"
	 y="0px" viewBox="0 0 334 334" xml:space="preserve">
<g id="Layer_1">
	<g>
		<path fill="#FFFFFF" d="M0,316.35181v9.3252c2.7066,2.84448,5.48615,5.6189,8.33325,8.323h9.32886
			C11.45477,328.44678,5.55774,322.55518,0,316.35181z"/>
		<path fill="#FFFFFF" d="M0,274.94434v11.19653C13.22571,304.604,29.43024,320.79419,47.90869,334h11.21185
			C35.50568,318.70264,15.3244,298.54126,0,274.94434z"/>
		<path fill="#FFFFFF" d="M118.40387,0h-19.1308C54.23267,18.35547,18.23853,54.43579,0,99.53516v19.31055
			C16.42731,61.75244,61.40222,16.63403,118.40387,0z"/>
		<path fill="#FFFFFF" d="M0,249.50269v13.37915C17.03705,292.39746,41.6687,317.00146,71.20752,334H84.6485
			C48.0285,315.88257,18.18146,286.08545,0,249.50269z"/>
		<path fill="#FFFFFF" d="M167,163.67676c-1.75,0-3.17383,1.41602-3.17383,3.15625c0,1.74121,1.42383,3.15723,3.17383,3.15723
			c1.74072,0,3.15674-1.41602,3.15674-3.15723C170.15674,165.09277,168.74072,163.67676,167,163.67676z"/>
		<path fill="#FFFFFF" d="M83.97919,0H70.64307C41.35632,16.98633,16.9278,41.4585,0,70.78467v13.37939
			C18.07056,47.80444,47.66486,18.14844,83.97919,0z"/>
		<path fill="#FFFFFF" d="M0,214.82031v19.31104C18.34845,279.50293,54.66559,315.74927,100.08673,334h19.43738
			C61.99011,317.63379,16.53516,272.28857,0,214.82031z"/>
		<path fill="#FFFFFF" d="M17.2868,0H7.9765C5.25287,2.59766,2.59442,5.2627,0,7.9895v9.32568
			C5.44617,11.23633,11.21631,5.45508,17.2868,0z"/>
		<path fill="#FFFFFF" d="M334,58.65063V47.43408C320.89612,29.16235,304.87152,13.12305,286.6145,0h-11.18713
			C298.80182,15.24121,318.7901,35.25391,334,58.65063z"/>
		<path fill="#FFFFFF" d="M334,36.90161V26.85449C325.84851,17.14746,316.86902,8.1604,307.16956,0h-10.03082
			C310.88397,10.74316,323.27069,23.14502,334,36.90161z"/>
		<path fill="#FFFFFF" d="M334,84.09717V70.7041C317.07257,41.41406,292.66077,16.9707,263.3985,0h-13.34448
			C286.34613,18.13721,315.92639,47.76831,334,84.09717z"/>
		<path fill="#FFFFFF" d="M334,17.22583V7.89502C331.43396,5.20093,328.80426,2.56787,326.112,0h-9.32086
			C322.83246,5.42847,328.57678,11.17969,334,17.22583z"/>
		<path fill="#FFFFFF" d="M36.92786,0H26.90778C17.17773,8.18677,8.17181,17.20532,0,26.94849v10.04028
			C10.74469,23.19775,23.15387,10.76562,36.92786,0z"/>
		<path fill="#FFFFFF" d="M58.61469,0H47.45203C29.16443,13.14526,13.11597,29.21558,0,47.52563v11.19629
			C15.21436,35.29443,35.21826,15.25684,58.61469,0z"/>
		<path fill="#FFFFFF" d="M334,118.79248V99.4541C315.7511,54.39258,279.77344,18.34448,234.76013,0h-19.15936
			C272.59003,16.62891,317.55841,61.72437,334,118.79248z"/>
		<path fill="#FFFFFF" d="M167,151.0332c-8.71289,0-15.80127,7.08789-15.80127,15.7998
			c0,8.71289,7.08838,15.80078,15.80127,15.80078c8.7124,0,15.80078-7.08789,15.80078-15.80078
			C182.80078,158.12109,175.7124,151.0332,167,151.0332z M167,176.30469c-5.23145,0-9.4873-4.24902-9.4873-9.47168
			c0-5.22168,4.25586-9.4707,9.4873-9.4707c5.22217,0,9.47021,4.24902,9.47021,9.4707
			C176.47021,172.05566,172.22217,176.30469,167,176.30469z"/>
		<path fill="#FFFFFF" d="M167.0332,87.8457c-43.54492,0-78.97119,35.43359-78.97119,78.9873
			c0,43.55469,35.42627,78.98828,78.97119,78.98828c43.5542,0,78.98779-35.43359,78.98779-78.98828
			C246.021,123.2793,210.5874,87.8457,167.0332,87.8457z M167.0332,239.49121c-40.06348,0-72.65723-32.59473-72.65723-72.6582
			s32.59375-72.65723,72.65723-72.65723s72.65723,32.59375,72.65723,72.65723S207.09668,239.49121,167.0332,239.49121z"/>
		<path fill="#FFFFFF" d="M334,179.02246v-24.37891C328.07568,72.69629,262.91949,6.91479,181.24646,0h-28.49152
			C71.00372,6.92212,5.80469,72.83594,0,154.90356v23.85889C5.91516,262.3916,73.50574,329.25,157.43811,334h19.12476
			C260.41675,329.25488,327.96289,262.53052,334,179.02246z M167,327.94922c-88.83936,0-161.11572-72.27637-161.11572-161.11621
			C5.88428,77.99414,78.16064,5.71777,167,5.71777s161.11572,72.27637,161.11572,161.11523
			C328.11572,255.67285,255.83936,327.94922,167,327.94922z"/>
		<path fill="#FFFFFF" d="M334,234.2124v-19.33862C317.45044,272.31665,272.00208,317.63892,214.48047,334h19.466
			C279.34052,315.76025,315.64105,279.5459,334,234.2124z"/>
		<path fill="#FFFFFF" d="M167,12.03223c-85.3584,0-154.80225,69.44336-154.80225,154.80078
			c0,85.3584,69.44385,154.80176,154.80225,154.80176s154.80225-69.44336,154.80225-154.80176
			C321.80225,81.47559,252.3584,12.03223,167,12.03223z M167,315.30566c-81.87695,0-148.48828-66.60449-148.48828-148.47266
			C18.51172,84.96582,85.12305,18.36133,167,18.36133c81.86768,0,148.47168,66.60449,148.47168,148.47168
			C315.47168,248.70117,248.86768,315.30566,167,315.30566z"/>
		<path fill="#FFFFFF" d="M334,262.9624v-13.39307C315.81543,286.12183,285.98248,315.89355,249.3847,334h13.44928
			C292.34827,317.01709,316.96326,292.44189,334,262.9624z"/>
		<path fill="#FFFFFF" d="M167,24.67578c-78.39551,0-142.1748,63.77148-142.1748,142.15723
			c0,78.38672,63.7793,142.1582,142.1748,142.1582c78.38623,0,142.1582-63.77148,142.1582-142.1582
			C309.1582,88.44727,245.38623,24.67578,167,24.67578z M167.06689,302.67773c-74.90479,0-135.84424-60.93945-135.84424-135.84473
			c0-74.9043,60.93945-135.84375,135.84424-135.84375s135.84424,60.93945,135.84424,135.84375
			C302.91113,241.73828,241.97168,302.67773,167.06689,302.67773z"/>
		<path fill="#FFFFFF" d="M334,325.77148v-9.33057c-5.53491,6.1709-11.40601,12.03223-17.58417,17.55908h9.33948
			C328.57098,331.32568,331.32172,328.5835,334,325.77148z"/>
		<path fill="#FFFFFF" d="M334,306.81226v-10.04712C323.15857,310.66553,310.62207,323.17969,296.70453,334h10.07123
			C316.62646,325.75171,325.73798,316.65112,334,306.81226z"/>
		<path fill="#FFFFFF" d="M334,286.23218v-11.21655C318.67999,298.58179,298.5144,318.71802,274.92145,334h11.23639
			C304.60559,320.81616,320.78625,304.65723,334,286.23218z"/>
		<path fill="#FFFFFF" d="M167.0332,100.49023c-36.58203,0-66.34375,29.76074-66.34375,66.34277
			s29.76172,66.34375,66.34375,66.34375s66.34375-29.76172,66.34375-66.34375S203.61523,100.49023,167.0332,100.49023z
			 M167.0166,226.86426c-33.09131,0-60.01318-26.92969-60.01318-60.03125c0-33.0918,26.92188-60.01367,60.01318-60.01367
			c33.10059,0,60.02979,26.92188,60.02979,60.01367C227.04639,199.93457,200.11719,226.86426,167.0166,226.86426z"/>
		<path fill="#FFFFFF" d="M167.0166,138.40527c-15.68457,0-28.44482,12.75195-28.44482,28.42773
			s12.76025,28.42871,28.44482,28.42871c15.67529,0,28.42822-12.75293,28.42822-28.42871S182.69189,138.40527,167.0166,138.40527z
			 M167,188.94824c-12.19434,0-22.11475-9.9209-22.11475-22.11523c0-12.19336,9.92041-22.11426,22.11475-22.11426
			c12.19385,0,22.11426,9.9209,22.11426,22.11426C189.11426,179.02734,179.19385,188.94824,167,188.94824z"/>
		<path fill="#FFFFFF" d="M167.0166,113.13379c-29.60986,0-53.69971,24.08887-53.69971,53.69922
			c0,29.62012,24.08984,53.7168,53.69971,53.7168c29.61914,0,53.71631-24.09668,53.71631-53.7168
			C220.73291,137.22266,196.63574,113.13379,167.0166,113.13379z M167.0166,214.21973
			c-26.12842,0-47.38574-21.25781-47.38574-47.38672c0-26.12793,21.25732-47.38574,47.38574-47.38574
			s47.38574,21.25781,47.38574,47.38574C214.40234,192.96191,193.14502,214.21973,167.0166,214.21973z"/>
		<path fill="#FFFFFF" d="M167.0166,125.76172c-22.64746,0-41.07227,18.42383-41.07227,41.07129s18.4248,41.07227,41.07227,41.07227
			s41.07227-18.4248,41.07227-41.07227S189.66406,125.76172,167.0166,125.76172z M167.0166,201.57617
			c-19.16602,0-34.7583-15.58594-34.7583-34.74316c0-19.15625,15.59229-34.74219,34.7583-34.74219
			c19.15674,0,34.7417,15.58594,34.7417,34.74219C201.7583,185.99023,186.17334,201.57617,167.0166,201.57617z"/>
		<path fill="#FFFFFF" d="M167.0498,75.21875c-50.5166,0-91.61523,41.09766-91.61523,91.61426s41.09863,91.61523,91.61523,91.61523
			c50.51709,0,91.61572-41.09863,91.61572-91.61523S217.56689,75.21875,167.0498,75.21875z M167.0332,252.13574
			c-47.02637,0-85.28467-38.2666-85.28467-85.30273c0-47.03516,38.2583-85.30176,85.28467-85.30176
			c47.03516,0,85.30127,38.2666,85.30127,85.30176C252.33447,213.86914,214.06836,252.13574,167.0332,252.13574z"/>
		<path fill="#FFFFFF" d="M167.06689,49.94727c-64.46045,0-116.90332,52.43457-116.90332,116.88574
			c0,64.45215,52.44287,116.88672,116.90332,116.88672c64.45166,0,116.88672-52.43457,116.88672-116.88672
			C283.95361,102.38184,231.51855,49.94727,167.06689,49.94727z M167.0498,277.40625
			c-60.96045,0-110.55566-49.60352-110.55566-110.57324S106.08936,56.25977,167.0498,56.25977
			c60.97021,0,110.57324,49.60352,110.57324,110.57324S228.02002,277.40625,167.0498,277.40625z"/>
		<path fill="#FFFFFF" d="M167.0498,62.57422c-57.47949,0-104.24219,46.77051-104.24219,104.25879
			S109.57031,271.0918,167.0498,271.0918c57.48877,0,104.25977-46.77051,104.25977-104.25879S224.53857,62.57422,167.0498,62.57422z
			 M167.0498,264.7627c-53.99805,0-97.92871-43.93164-97.92871-97.92969S113.05176,68.9043,167.0498,68.9043
			c53.99854,0,97.9292,43.93066,97.9292,97.92871S221.04834,264.7627,167.0498,264.7627z"/>
		<path fill="#FFFFFF" d="M167.06689,37.30371c-71.42334,0-129.53076,58.10645-129.53076,129.5293
			c0,71.42383,58.10742,129.53027,129.53076,129.53027s129.53076-58.10645,129.53076-129.53027
			C296.59766,95.41016,238.49023,37.30371,167.06689,37.30371z M167.06689,290.03418
			c-67.94189,0-123.2168-55.26758-123.2168-123.20117c0-67.93262,55.2749-123.2002,123.2168-123.2002
			c67.93311,0,123.2002,55.26758,123.2002,123.2002C290.26709,234.7666,235,290.03418,167.06689,290.03418z"/>
		<path fill="#FFFFFF" d="M0,296.67822v10.04004c8.28229,9.875,17.42004,19.00708,27.30151,27.28174h10.06055
			C23.41571,323.15723,10.85681,310.61304,0,296.67822z"/>
		<path d="M167,157.3623c-5.23145,0-9.4873,4.24902-9.4873,9.4707c0,5.22266,4.25586,9.47168,9.4873,9.47168
			c5.22217,0,9.47021-4.24902,9.47021-9.47168C176.47021,161.61133,172.22217,157.3623,167,157.3623z M167,169.99023
			c-1.75,0-3.17383-1.41602-3.17383-3.15723c0-1.74023,1.42383-3.15625,3.17383-3.15625c1.74072,0,3.15674,1.41602,3.15674,3.15625
			C170.15674,168.57422,168.74072,169.99023,167,169.99023z"/>
		<path d="M167,144.71875c-12.19434,0-22.11475,9.9209-22.11475,22.11426c0,12.19434,9.92041,22.11523,22.11475,22.11523
			c12.19385,0,22.11426-9.9209,22.11426-22.11523C189.11426,154.63965,179.19385,144.71875,167,144.71875z M167,182.63379
			c-8.71289,0-15.80127-7.08789-15.80127-15.80078c0-8.71191,7.08838-15.7998,15.80127-15.7998
			c8.7124,0,15.80078,7.08789,15.80078,15.7998C182.80078,175.5459,175.7124,182.63379,167,182.63379z"/>
		<path d="M167.0166,132.09082c-19.16602,0-34.7583,15.58594-34.7583,34.74219c0,19.15723,15.59229,34.74316,34.7583,34.74316
			c19.15674,0,34.7417-15.58594,34.7417-34.74316C201.7583,147.67676,186.17334,132.09082,167.0166,132.09082z M167.0166,195.26172
			c-15.68457,0-28.44482-12.75293-28.44482-28.42871s12.76025-28.42773,28.44482-28.42773
			c15.67529,0,28.42822,12.75195,28.42822,28.42773S182.69189,195.26172,167.0166,195.26172z"/>
		<path d="M167.0166,119.44727c-26.12842,0-47.38574,21.25781-47.38574,47.38574c0,26.12891,21.25732,47.38672,47.38574,47.38672
			s47.38574-21.25781,47.38574-47.38672C214.40234,140.70508,193.14502,119.44727,167.0166,119.44727z M167.0166,207.90527
			c-22.64746,0-41.07227-18.4248-41.07227-41.07227s18.4248-41.07129,41.07227-41.07129s41.07227,18.42383,41.07227,41.07129
			S189.66406,207.90527,167.0166,207.90527z"/>
		<path d="M167.0166,106.81934c-33.09131,0-60.01318,26.92188-60.01318,60.01367c0,33.10156,26.92188,60.03125,60.01318,60.03125
			c33.10059,0,60.02979-26.92969,60.02979-60.03125C227.04639,133.74121,200.11719,106.81934,167.0166,106.81934z
			 M167.0166,220.5498c-29.60986,0-53.69971-24.09668-53.69971-53.7168c0-29.61035,24.08984-53.69922,53.69971-53.69922
			c29.61914,0,53.71631,24.08887,53.71631,53.69922C220.73291,196.45312,196.63574,220.5498,167.0166,220.5498z"/>
		<path d="M167.0332,94.17578c-40.06348,0-72.65723,32.59375-72.65723,72.65723s32.59375,72.6582,72.65723,72.6582
			s72.65723-32.59473,72.65723-72.6582S207.09668,94.17578,167.0332,94.17578z M167.0332,233.17676
			c-36.58203,0-66.34375-29.76172-66.34375-66.34375s29.76172-66.34277,66.34375-66.34277s66.34375,29.76074,66.34375,66.34277
			S203.61523,233.17676,167.0332,233.17676z"/>
		<path d="M167.0332,81.53125c-47.02637,0-85.28467,38.2666-85.28467,85.30176c0,47.03613,38.2583,85.30273,85.28467,85.30273
			c47.03516,0,85.30127-38.2666,85.30127-85.30273C252.33447,119.79785,214.06836,81.53125,167.0332,81.53125z M167.0332,245.82129
			c-43.54492,0-78.97119-35.43359-78.97119-78.98828c0-43.55371,35.42627-78.9873,78.97119-78.9873
			c43.5542,0,78.98779,35.43359,78.98779,78.9873C246.021,210.3877,210.5874,245.82129,167.0332,245.82129z"/>
		<path d="M167.0498,68.9043c-53.99805,0-97.92871,43.93066-97.92871,97.92871s43.93066,97.92969,97.92871,97.92969
			c53.99854,0,97.9292-43.93164,97.9292-97.92969S221.04834,68.9043,167.0498,68.9043z M167.0498,258.44824
			c-50.5166,0-91.61523-41.09863-91.61523-91.61523s41.09863-91.61426,91.61523-91.61426
			c50.51709,0,91.61572,41.09766,91.61572,91.61426S217.56689,258.44824,167.0498,258.44824z"/>
		<path d="M167.0498,56.25977c-60.96045,0-110.55566,49.60352-110.55566,110.57324s49.59521,110.57324,110.55566,110.57324
			c60.97021,0,110.57324-49.60352,110.57324-110.57324S228.02002,56.25977,167.0498,56.25977z M167.0498,271.0918
			c-57.47949,0-104.24219-46.77051-104.24219-104.25879S109.57031,62.57422,167.0498,62.57422
			c57.48877,0,104.25977,46.77051,104.25977,104.25879S224.53857,271.0918,167.0498,271.0918z"/>
		<path d="M167.06689,43.63281c-67.94189,0-123.2168,55.26758-123.2168,123.2002c0,67.93359,55.2749,123.20117,123.2168,123.20117
			c67.93311,0,123.2002-55.26758,123.2002-123.20117C290.26709,98.90039,235,43.63281,167.06689,43.63281z M167.06689,283.71973
			c-64.46045,0-116.90332-52.43457-116.90332-116.88672c0-64.45117,52.44287-116.88574,116.90332-116.88574
			c64.45166,0,116.88672,52.43457,116.88672,116.88574C283.95361,231.28516,231.51855,283.71973,167.06689,283.71973z"/>
		<path d="M167.06689,30.98926c-74.90479,0-135.84424,60.93945-135.84424,135.84375
			c0,74.90527,60.93945,135.84473,135.84424,135.84473s135.84424-60.93945,135.84424-135.84473
			C302.91113,91.92871,241.97168,30.98926,167.06689,30.98926z M167.06689,296.36328
			c-71.42334,0-129.53076-58.10645-129.53076-129.53027c0-71.42285,58.10742-129.5293,129.53076-129.5293
			s129.53076,58.10645,129.53076,129.5293C296.59766,238.25684,238.49023,296.36328,167.06689,296.36328z"/>
		<path d="M167,18.36133c-81.87695,0-148.48828,66.60449-148.48828,148.47168c0,81.86816,66.61133,148.47266,148.48828,148.47266
			c81.86768,0,148.47168-66.60449,148.47168-148.47266C315.47168,84.96582,248.86768,18.36133,167,18.36133z M167,308.99121
			c-78.39551,0-142.1748-63.77148-142.1748-142.1582c0-78.38574,63.7793-142.15723,142.1748-142.15723
			c78.38623,0,142.1582,63.77148,142.1582,142.15723C309.1582,245.21973,245.38623,308.99121,167,308.99121z"/>
		<path d="M167,5.71777c-88.83936,0-161.11572,72.27637-161.11572,161.11523c0,88.83984,72.27637,161.11621,161.11572,161.11621
			s161.11572-72.27637,161.11572-161.11621C328.11572,77.99414,255.83936,5.71777,167,5.71777z M167,321.63477
			c-85.3584,0-154.80225-69.44336-154.80225-154.80176C12.19775,81.47559,81.6416,12.03223,167,12.03223
			s154.80225,69.44336,154.80225,154.80078C321.80225,252.19141,252.3584,321.63477,167,321.63477z"/>
		<path d="M152.75494,0h-34.35107C61.40222,16.63403,16.42731,61.75244,0,118.8457v36.05786
			C5.80469,72.83594,71.00372,6.92212,152.75494,0z"/>
		<path d="M0,178.76245v36.05786C16.53516,272.28857,61.99011,317.63379,119.52411,334h37.914
			C73.50574,329.25,5.91516,262.3916,0,178.76245z"/>
		<path d="M334,154.64355v-35.85107C317.55841,61.72437,272.59003,16.62891,215.60077,0h-34.35431
			C262.91949,6.91479,328.07568,72.69629,334,154.64355z"/>
		<path d="M334,214.87378v-35.85132C327.96289,262.53052,260.41675,329.25488,176.56287,334h37.9176
			C272.00208,317.63892,317.45044,272.31665,334,214.87378z"/>
		<path d="M99.27307,0H83.97919C47.66486,18.14844,18.07056,47.80444,0,84.16406v15.37109
			C18.23853,54.43579,54.23267,18.35547,99.27307,0z"/>
		<path d="M334,99.4541V84.09717C315.92639,47.76831,286.34613,18.13721,250.05402,0h-15.29388
			C279.77344,18.34448,315.7511,54.39258,334,99.4541z"/>
		<path d="M334,249.56934V234.2124C315.64105,279.5459,279.34052,315.76025,233.94647,334h15.43823
			C285.98248,315.89355,315.81543,286.12183,334,249.56934z"/>
		<path d="M0,234.13135v15.37134C18.18146,286.08545,48.0285,315.88257,84.6485,334h15.43823
			C54.66559,315.74927,18.34845,279.50293,0,234.13135z"/>
		<path d="M70.64307,0H58.61469C35.21826,15.25684,15.21436,35.29443,0,58.72192v12.06274
			C16.9278,41.4585,41.35632,16.98633,70.64307,0z"/>
		<path d="M334,70.7041V58.65063C318.7901,35.25391,298.80182,15.24121,275.42737,0H263.3985
			C292.66077,16.9707,317.07257,41.41406,334,70.7041z"/>
		<path d="M334,275.01562V262.9624c-17.03674,29.47949-41.65173,54.05469-71.16602,71.0376h12.08746
			C298.5144,318.71802,318.67999,298.58179,334,275.01562z"/>
		<path d="M0,262.88184v12.0625C15.3244,298.54126,35.50568,318.70264,59.12054,334h12.08698
			C41.6687,317.00146,17.03705,292.39746,0,262.88184z"/>
		<path d="M0,286.14087v10.53735C10.85681,310.61304,23.41571,323.15723,37.36206,334h10.54663
			C29.43024,320.79419,13.22571,304.604,0,286.14087z"/>
		<path d="M334,47.43408V36.90161C323.27069,23.14502,310.88397,10.74316,297.13873,0H286.6145
			C304.87152,13.12305,320.89612,29.16235,334,47.43408z"/>
		<path d="M47.45203,0H36.92786C23.15387,10.76562,10.74469,23.19775,0,36.98877v10.53687
			C13.11597,29.21558,29.16443,13.14526,47.45203,0z"/>
		<path d="M334,296.76514v-10.53296C320.78625,304.65723,304.60559,320.81616,286.15784,334h10.54669
			C310.62207,323.17969,323.15857,310.66553,334,296.76514z"/>
		<path d="M334,316.44092v-9.62866c-8.26202,9.83887-17.37354,18.93945-27.22424,27.18774h9.64008
			C322.59399,328.47314,328.46509,322.61182,334,316.44092z"/>
		<path d="M26.90778,0H17.2868C11.21631,5.45508,5.44617,11.23633,0,17.31519v9.6333C8.17181,17.20532,17.17773,8.18677,26.90778,0z
			"/>
		<path d="M334,26.85449v-9.62866C328.57678,11.17969,322.83246,5.42847,316.79114,0h-9.62158
			C316.86902,8.1604,325.84851,17.14746,334,26.85449z"/>
		<path d="M0,306.71826v9.63354C5.55774,322.55518,11.45477,328.44678,17.66211,334h9.6394
			C17.42004,325.72534,8.28229,316.59326,0,306.71826z"/>
		<path d="M334,325.77148c-2.67828,2.81201-5.42902,5.5542-8.24469,8.22852H334V325.77148z"/>
		<path d="M0,325.677V334h8.33325C5.48615,331.2959,2.7066,328.52148,0,325.677z"/>
		<path d="M334,7.89502V0h-7.888C328.80426,2.56787,331.43396,5.20093,334,7.89502z"/>
		<path d="M7.9765,0H0v7.9895C2.59442,5.2627,5.25287,2.59766,7.9765,0z"/>
	</g>
</g>
<g id="Layer_3" display="none">
</g>
<g id="Layer_2" display="none">
</g>
</svg>
