<?xml version="1.0" encoding="utf-8"?>
<!-- Generator: Adobe Illustrator 21.1.0, SVG Export Plug-In . SVG Version: 6.00 Build 0)  -->
<svg version="1.2" baseProfile="tiny" xmlns="http://www.w3.org/2000/svg" xmlns:xlink="http://www.w3.org/1999/xlink" x="0px"
	 y="0px" viewBox="0 0 334 334" xml:space="preserve">
<g id="Layer_1">
	<g>
		<path fill="#CCCCCC" d="M167.66797,284.47852c65.23926,0,118.31494-53.0752,118.31494-118.31445
			S232.90723,47.84961,167.66797,47.84961c-65.24805,0-118.33105,53.0752-118.33105,118.31445
			S102.41992,284.47852,167.66797,284.47852z M167.66797,56.00098c60.74463,0,110.16406,49.41895,110.16406,110.16309
			S228.4126,276.32812,167.66797,276.32812c-60.75391,0-110.18066-49.41992-110.18066-110.16406
			S106.91406,56.00098,167.66797,56.00098z"/>
		<path fill="#CCCCCC" d="M167.65137,300.81445c74.24609,0,134.6499-60.4043,134.6499-134.65039
			S241.89746,31.51465,167.65137,31.51465c-74.2373,0-134.6333,60.40332-134.6333,134.64941S93.41406,300.81445,167.65137,300.81445
			z M167.66797,39.68164c69.74268,0,126.48291,56.74023,126.48291,126.48242s-56.74023,126.48242-126.48291,126.48242
			c-69.75195,0-126.49902-56.74023-126.49902-126.48242S97.91602,39.68164,167.66797,39.68164z"/>
		<path fill="#CCCCCC" d="M167.66797,186.56641c11.25,0,20.40234-9.15234,20.40234-20.40234s-9.15234-20.40234-20.40234-20.40234
			c-11.24072,0-20.38574,9.15234-20.38574,20.40234S156.42725,186.56641,167.66797,186.56641z M167.66797,153.91309
			c6.75537,0,12.25146,5.49609,12.25146,12.25098c0,6.75586-5.49609,12.25195-12.25146,12.25195
			c-6.74609,0-12.23486-5.49609-12.23486-12.25195C155.43311,159.40918,160.92188,153.91309,167.66797,153.91309z"/>
		<path fill="#CCCCCC" d="M16.99329,0H5.12555C3.39221,1.69556,1.67993,3.41248,0,5.16113v12.02271
			C5.35797,11.1604,11.02441,5.41748,16.99329,0z"/>
		<path fill="#CCCCCC" d="M42.54535,0H29.44214C18.69873,8.95215,8.83661,18.92505,0,29.76709v13.29944
			C12.02234,26.73499,26.36499,12.21436,42.54535,0z"/>
		<path fill="#CCCCCC" d="M0.38086,166.16406c0,92.24316,75.04443,167.28809,167.28711,167.28809
			c86.20862,0,157.38745-65.55029,166.33203-149.42505v-35.72583C325.7337,70.78723,264.31079,8.93604,186.99561,0h-38.65527
			C65.16956,9.61279,0.38086,80.45898,0.38086,166.16406z M167.65137,7.02734c87.74805,0,159.13672,71.38867,159.13672,159.13672
			s-71.38867,159.13672-159.13672,159.13672c-87.73877,0-159.11963-71.38867-159.11963-159.13672S79.9126,7.02734,167.65137,7.02734
			z"/>
		<path fill="#CCCCCC" d="M167.65137,317.13281c83.24463,0,150.96875-67.72461,150.96875-150.96875
			S250.896,15.19531,167.65137,15.19531c-83.23535,0-150.95166,67.72461-150.95166,150.96875
			S84.41602,317.13281,167.65137,317.13281z M167.65137,23.34668c78.75,0,142.81787,64.06738,142.81787,142.81738
			s-64.06787,142.81836-142.81787,142.81836c-78.74072,0-142.80127-64.06836-142.80127-142.81836
			S88.91064,23.34668,167.65137,23.34668z"/>
		<path fill="#CCCCCC" d="M167.66797,219.2041c29.24658,0,53.04004-23.79395,53.04004-53.04004S196.91455,113.125,167.66797,113.125
			c-29.24609,0-53.03955,23.79297-53.03955,53.03906S138.42188,219.2041,167.66797,219.2041z M167.66797,121.27539
			c24.75195,0,44.88916,20.13672,44.88916,44.88867s-20.13721,44.88965-44.88916,44.88965s-44.88916-20.1377-44.88916-44.88965
			S142.91602,121.27539,167.66797,121.27539z"/>
		<path fill="#CCCCCC" d="M167.66797,170.24805c2.25195,0,4.0835-1.83203,4.0835-4.08398c0-2.25098-1.83154-4.08301-4.0835-4.08301
			c-2.24268,0-4.06689,1.83203-4.06689,4.08301C163.60107,168.41602,165.42529,170.24805,167.66797,170.24805z"/>
		<path fill="#CCCCCC" d="M167.66797,235.52246c38.24463,0,69.3584-31.11426,69.3584-69.3584s-31.11377-69.3584-69.3584-69.3584
			s-69.3584,31.11426-69.3584,69.3584S129.42334,235.52246,167.66797,235.52246z M167.66797,104.95703
			c33.75,0,61.20801,27.45703,61.20801,61.20703s-27.45801,61.20801-61.20801,61.20801s-61.20752-27.45801-61.20752-61.20801
			S133.91797,104.95703,167.66797,104.95703z"/>
		<path fill="#CCCCCC" d="M167.66797,202.88574c20.24805,0,36.72119-16.47363,36.72119-36.72168s-16.47314-36.7207-36.72119-36.7207
			s-36.72119,16.47266-36.72119,36.7207S147.41992,202.88574,167.66797,202.88574z M167.66797,137.59375
			c15.75342,0,28.57031,12.81641,28.57031,28.57031s-12.81689,28.57031-28.57031,28.57031
			c-15.74463,0-28.55371-12.81641-28.55371-28.57031S151.92334,137.59375,167.66797,137.59375z"/>
		<path fill="#CCCCCC" d="M334,110.29175V88.47168C315.81207,49.68933,284.45599,18.26904,245.71881,0h-21.6759
			C275.68536,17.56824,316.58368,58.57983,334,110.29175z"/>
		<path fill="#CCCCCC" d="M334,41.2605V28.13623C325.50964,17.92236,316.09772,8.50232,305.89417,0h-13.10358
			C308.37341,11.76318,322.2569,25.66162,334,41.2605z"/>
		<path fill="#CCCCCC" d="M167.66797,268.16016c56.24072,0,101.99609-45.75488,101.99609-101.99609
			c0-56.24023-45.75537-101.99512-101.99609-101.99512c-56.25,0-102.0127,45.75488-102.0127,101.99512
			C65.65527,222.40527,111.41797,268.16016,167.66797,268.16016z M167.66797,72.31934
			c51.74658,0,93.84521,42.09863,93.84521,93.84473c0,51.74707-42.09863,93.8457-93.84521,93.8457
			s-93.84521-42.09863-93.84521-93.8457C73.82275,114.41797,115.92139,72.31934,167.66797,72.31934z"/>
		<path fill="#CCCCCC" d="M334,70.7876V55.36914C319.3811,33.49426,300.56921,14.65137,278.7179,0h-15.38977
			C292.65295,16.94775,317.10107,41.43115,334,70.7876z"/>
		<path fill="#CCCCCC" d="M167.66797,251.8418c47.24268,0,85.67725-38.43457,85.67725-85.67773
			c0-47.24219-38.43457-85.67676-85.67725-85.67676s-85.67725,38.43457-85.67725,85.67676
			C81.99072,213.40723,120.42529,251.8418,167.66797,251.8418z M167.66797,88.6377c42.74805,0,77.52637,34.77832,77.52637,77.52637
			s-34.77832,77.52637-77.52637,77.52637S90.1416,208.91211,90.1416,166.16406S124.91992,88.6377,167.66797,88.6377z"/>
		<path fill="#CCCCCC" d="M334,15.67834V3.80505C332.7475,2.52222,331.48059,1.25391,330.19897,0h-11.85614
			C323.81494,4.96655,329.03943,10.20068,334,15.67834z"/>
		<path fill="#CCCCCC" d="M334,328.52344v-11.8728c-5.52374,6.09961-11.3847,11.88647-17.53986,17.34937h12.02716
			C330.35736,332.20752,332.19037,330.37695,334,328.52344z"/>
		<path fill="#CCCCCC" d="M334,243.85693v-21.82007C316.0033,275.47241,272.93042,317.47559,218.8418,334h23.23578
			C282.48993,316.01294,315.2453,283.84814,334,243.85693z"/>
		<path fill="#CCCCCC" d="M0,217.89844v23.05762C18.5116,282.29297,51.87244,315.57959,93.25836,334h23.23578
			C61.01678,317.05127,17.1286,273.29834,0,217.89844z"/>
		<path fill="#CCCCCC" d="M0,315.14502v12.02246c2.23248,2.32373,4.51099,4.60278,6.83728,6.83252h12.0387
			C12.21899,328.0918,5.91565,321.79541,0,315.14502z"/>
		<path fill="#CCCCCC" d="M334,276.95898v-15.41772C316.53467,291.88159,291.00116,317.00952,260.35864,334h15.82153
			C299.11353,319.12158,318.81836,299.67578,334,276.95898z"/>
		<path fill="#CCCCCC" d="M0,289.26172v13.2998C9.39148,314.08447,19.94409,324.62231,31.47876,334h13.32178
			C27.69757,321.44556,12.57721,306.34692,0,289.26172z"/>
		<path fill="#CCCCCC" d="M0,259.1543v15.77686C15.35406,298.51904,35.54321,318.68091,59.15576,334h15.82153
			C43.53717,316.56738,17.48724,290.5603,0,259.1543z"/>
		<path fill="#CCCCCC" d="M111.29303,0h-21.6759C49.91766,18.72278,17.96533,51.25574,0,91.37256v23.05762
			C16.59003,60.77271,58.28046,18.03442,111.29303,0z"/>
		<path fill="#CCCCCC" d="M72.00781,0H56.61804C34.0946,15.10205,14.80133,34.6582,0,57.39685v15.77759
			C16.93457,42.76123,41.8941,17.40381,72.00781,0z"/>
		<path fill="#CCCCCC" d="M334,304.19238v-13.12476C321.69415,307.41406,307.03461,321.88867,290.5354,334h13.3222
			C314.84686,325.06592,324.9483,315.08154,334,304.19238z"/>
		<path fill="#333333" d="M167.66797,178.41602c6.75537,0,12.25146-5.49609,12.25146-12.25195
			c0-6.75488-5.49609-12.25098-12.25146-12.25098c-6.74609,0-12.23486,5.49609-12.23486,12.25098
			C155.43311,172.91992,160.92188,178.41602,167.66797,178.41602z M167.66797,162.08105c2.25195,0,4.0835,1.83203,4.0835,4.08301
			c0,2.25195-1.83154,4.08398-4.0835,4.08398c-2.24268,0-4.06689-1.83203-4.06689-4.08398
			C163.60107,163.91309,165.42529,162.08105,167.66797,162.08105z"/>
		<path fill="#333333" d="M167.66797,194.73438c15.75342,0,28.57031-12.81641,28.57031-28.57031
			s-12.81689-28.57031-28.57031-28.57031c-15.74463,0-28.55371,12.81641-28.55371,28.57031S151.92334,194.73438,167.66797,194.73438
			z M167.66797,145.76172c11.25,0,20.40234,9.15234,20.40234,20.40234s-9.15234,20.40234-20.40234,20.40234
			c-11.24072,0-20.38574-9.15234-20.38574-20.40234S156.42725,145.76172,167.66797,145.76172z"/>
		<path fill="#333333" d="M167.66797,211.05371c24.75195,0,44.88916-20.1377,44.88916-44.88965
			s-20.13721-44.88867-44.88916-44.88867s-44.88916,20.13672-44.88916,44.88867S142.91602,211.05371,167.66797,211.05371z
			 M167.66797,129.44336c20.24805,0,36.72119,16.47266,36.72119,36.7207s-16.47314,36.72168-36.72119,36.72168
			s-36.72119-16.47363-36.72119-36.72168S147.41992,129.44336,167.66797,129.44336z"/>
		<path fill="#333333" d="M167.66797,227.37207c33.75,0,61.20801-27.45801,61.20801-61.20801s-27.45801-61.20703-61.20801-61.20703
			s-61.20752,27.45703-61.20752,61.20703S133.91797,227.37207,167.66797,227.37207z M167.66797,113.125
			c29.24658,0,53.04004,23.79297,53.04004,53.03906s-23.79346,53.04004-53.04004,53.04004
			c-29.24609,0-53.03955-23.79395-53.03955-53.04004S138.42188,113.125,167.66797,113.125z"/>
		<path fill="#333333" d="M167.66797,243.69043c42.74805,0,77.52637-34.77832,77.52637-77.52637
			S210.41602,88.6377,167.66797,88.6377S90.1416,123.41602,90.1416,166.16406S124.91992,243.69043,167.66797,243.69043z
			 M167.66797,96.80566c38.24463,0,69.3584,31.11426,69.3584,69.3584s-31.11377,69.3584-69.3584,69.3584
			s-69.3584-31.11426-69.3584-69.3584S129.42334,96.80566,167.66797,96.80566z"/>
		<path fill="#333333" d="M167.66797,260.00977c51.74658,0,93.84521-42.09863,93.84521-93.8457
			c0-51.74609-42.09863-93.84473-93.84521-93.84473s-93.84521,42.09863-93.84521,93.84473
			C73.82275,217.91113,115.92139,260.00977,167.66797,260.00977z M167.66797,80.4873
			c47.24268,0,85.67725,38.43457,85.67725,85.67676c0,47.24316-38.43457,85.67773-85.67725,85.67773
			s-85.67725-38.43457-85.67725-85.67773C81.99072,118.92188,120.42529,80.4873,167.66797,80.4873z"/>
		<path fill="#333333" d="M167.66797,276.32812c60.74463,0,110.16406-49.41992,110.16406-110.16406
			S228.4126,56.00098,167.66797,56.00098c-60.75391,0-110.18066,49.41895-110.18066,110.16309
			S106.91406,276.32812,167.66797,276.32812z M167.66797,64.16895c56.24072,0,101.99609,45.75488,101.99609,101.99512
			c0,56.24121-45.75537,101.99609-101.99609,101.99609c-56.25,0-102.0127-45.75488-102.0127-101.99609
			C65.65527,109.92383,111.41797,64.16895,167.66797,64.16895z"/>
		<path fill="#333333" d="M167.66797,292.64648c69.74268,0,126.48291-56.74023,126.48291-126.48242
			S237.41064,39.68164,167.66797,39.68164c-69.75195,0-126.49902,56.74023-126.49902,126.48242
			S97.91602,292.64648,167.66797,292.64648z M167.66797,47.84961c65.23926,0,118.31494,53.0752,118.31494,118.31445
			s-53.07568,118.31445-118.31494,118.31445c-65.24805,0-118.33105-53.0752-118.33105-118.31445
			S102.41992,47.84961,167.66797,47.84961z"/>
		<path fill="#333333" d="M167.65137,308.98242c78.75,0,142.81787-64.06836,142.81787-142.81836
			S246.40137,23.34668,167.65137,23.34668c-78.74072,0-142.80127,64.06738-142.80127,142.81738
			S88.91064,308.98242,167.65137,308.98242z M167.65137,31.51465c74.24609,0,134.6499,60.40332,134.6499,134.64941
			s-60.40381,134.65039-134.6499,134.65039c-74.2373,0-134.6333-60.4043-134.6333-134.65039S93.41406,31.51465,167.65137,31.51465z"
			/>
		<path fill="#333333" d="M167.65137,325.30078c87.74805,0,159.13672-71.38867,159.13672-159.13672
			S255.39941,7.02734,167.65137,7.02734c-87.73877,0-159.11963,71.38867-159.11963,159.13672S79.9126,325.30078,167.65137,325.30078
			z M167.65137,15.19531c83.24463,0,150.96875,67.72461,150.96875,150.96875S250.896,317.13281,167.65137,317.13281
			c-83.23535,0-150.95166-67.72461-150.95166-150.96875S84.41602,15.19531,167.65137,15.19531z"/>
		<path fill="#333333" d="M334,222.03687V184.0271c-8.94458,83.87476-80.12341,149.42505-166.33203,149.42505
			c-92.24268,0-167.28711-75.04492-167.28711-167.28809C0.38086,80.45898,65.16956,9.61279,148.34033,0h-37.0473
			C58.28046,18.03442,16.59003,60.77271,0,114.43018v103.46826C17.1286,273.29834,61.01678,317.05127,116.49414,334H218.8418
			C272.93042,317.47559,316.0033,275.47241,334,222.03687z"/>
		<path fill="#333333" d="M334,148.30127v-38.00952C316.58368,58.57983,275.68536,17.56824,224.04291,0h-37.0473
			C264.31079,8.93604,325.7337,70.78723,334,148.30127z"/>
		<path fill="#333333" d="M334,88.47168V70.7876C317.10107,41.43115,292.65295,16.94775,263.32812,0h-17.60931
			C284.45599,18.26904,315.81207,49.68933,334,88.47168z"/>
		<path fill="#333333" d="M89.61713,0H72.00781C41.8941,17.40381,16.93457,42.76123,0,73.17444v18.19812
			C17.96533,51.25574,49.91766,18.72278,89.61713,0z"/>
		<path fill="#333333" d="M334,261.54126v-17.68433C315.2453,283.84814,282.48993,316.01294,242.07758,334h18.28107
			C291.00116,317.00952,316.53467,291.88159,334,261.54126z"/>
		<path fill="#333333" d="M0,240.95605v18.19824C17.48724,290.5603,43.53717,316.56738,74.97729,334h18.28107
			C51.87244,315.57959,18.5116,282.29297,0,240.95605z"/>
		<path fill="#333333" d="M334,55.36914V41.2605C322.2569,25.66162,308.37341,11.76318,292.79059,0H278.7179
			C300.56921,14.65137,319.3811,33.49426,334,55.36914z"/>
		<path fill="#333333" d="M334,291.06763v-14.10864c-15.18164,22.7168-34.88647,42.1626-57.81982,57.04102h14.35522
			C307.03461,321.88867,321.69415,307.41406,334,291.06763z"/>
		<path fill="#333333" d="M0,274.93115v14.33057C12.57721,306.34692,27.69757,321.44556,44.80054,334h14.35522
			C35.54321,318.68091,15.35406,298.51904,0,274.93115z"/>
		<path fill="#333333" d="M56.61804,0H42.54535C26.36499,12.21436,12.02234,26.73499,0,43.06653v14.33032
			C14.80133,34.6582,34.0946,15.10205,56.61804,0z"/>
		<path fill="#333333" d="M334,316.65063v-12.45825c-9.0517,10.88916-19.15314,20.87354-30.1424,29.80762h12.60254
			C322.6153,328.53711,328.47626,322.75024,334,316.65063z"/>
		<path fill="#333333" d="M334,28.13623V15.67834C329.03943,10.20068,323.81494,4.96655,318.34283,0h-12.44867
			C316.09772,8.50232,325.50964,17.92236,334,28.13623z"/>
		<path fill="#333333" d="M0,302.56152v12.5835C5.91565,321.79541,12.21899,328.0918,18.87598,334h12.60278
			C19.94409,324.62231,9.39148,314.08447,0,302.56152z"/>
		<path fill="#333333" d="M29.44214,0H16.99329C11.02441,5.41748,5.35797,11.1604,0,17.18384v12.58325
			C8.83661,18.92505,18.69873,8.95215,29.44214,0z"/>
		<path fill="#333333" d="M328.4873,334H334v-5.47656C332.19037,330.37695,330.35736,332.20752,328.4873,334z"/>
		<path fill="#333333" d="M0,327.16748V334h6.83728C4.51099,331.77026,2.23248,329.49121,0,327.16748z"/>
		<path fill="#333333" d="M5.12555,0H0v5.16113C1.67993,3.41248,3.39221,1.69556,5.12555,0z"/>
		<path fill="#333333" d="M334,3.80505V0h-3.80103C331.48059,1.25391,332.7475,2.52222,334,3.80505z"/>
	</g>
</g>
<g id="Layer_3" display="none">
</g>
<g id="Layer_2" display="none">
</g>
</svg>
