<?xml version="1.0" encoding="utf-8"?>
<!-- Generator: Adobe Illustrator 21.1.0, SVG Export Plug-In . SVG Version: 6.00 Build 0)  -->
<svg version="1.2" baseProfile="tiny" xmlns="http://www.w3.org/2000/svg" xmlns:xlink="http://www.w3.org/1999/xlink" x="0px"
	 y="0px" viewBox="0 0 334 334" xml:space="preserve">
<g id="Layer_1">
	<g>
		<path fill="#9B9B9B" d="M334,23.67886V-0.00004h-23.61841C318.83862,7.28567,326.73364,15.20461,334,23.67886z"/>
		<path fill="#9B9B9B" d="M0,309.64297v24.19244h24.21881C15.53613,326.40732,7.43683,318.31815,0,309.64297z"/>
		<path fill="#9B9B9B" d="M166.99951,34.69869c-72.76807,0-131.96924,59.20117-131.96924,131.96924
			c0,72.76855,59.20117,131.96974,131.96924,131.96974c72.76855,0,131.96973-59.20119,131.96973-131.96974
			C298.96924,93.89986,239.76807,34.69869,166.99951,34.69869z M166.99951,269.3071
			c-56.60449,0-102.65576-46.04347-102.65576-102.63918c0-56.59521,46.05127-102.63866,102.65576-102.63866
			c56.5957,0,102.63916,46.04346,102.63916,102.63866C269.63867,223.26363,223.59521,269.3071,166.99951,269.3071z"/>
		<path fill="#9B9B9B" d="M23.62885-0.00004H0v23.6933C7.26917,15.21364,15.1676,7.28976,23.62885-0.00004z"/>
		<path fill="#9B9B9B" d="M166.99951,152.00288c-8.08643,0-14.66504,6.57861-14.66504,14.66504s6.57861,14.66553,14.66504,14.66553
			s14.66553-6.5791,14.66553-14.66553S175.08594,152.00288,166.99951,152.00288z"/>
		<path fill="#9B9B9B" d="M166.99951,93.35934c-40.43213,0-73.32568,32.88623-73.32568,73.30859
			c0,40.42285,32.89355,73.30908,73.32568,73.30908c40.42285,0,73.30908-32.88623,73.30908-73.30908
			C240.30859,126.24557,207.42236,93.35934,166.99951,93.35934z M166.99951,210.66353
			c-24.25879,0-43.99512-19.73633-43.99512-43.99561c0-24.25879,19.73633-43.99511,43.99512-43.99511
			c24.25928,0,43.99561,19.73632,43.99561,43.99511C210.99512,190.9272,191.25879,210.66353,166.99951,210.66353z"/>
		<path fill="#9B9B9B" d="M334,258.50864V74.8276c-17.32959-31.38629-43.24829-57.38953-74.56641-74.82764H74.57422
			C43.25031,17.44277,17.32825,43.45516,0,74.85275v183.63074c17.49286,31.69598,43.74091,57.90814,75.4657,75.35193h183.07629
			C290.26099,316.39627,316.50562,290.19327,334,258.50864z M166.99951,327.96774
			c-88.94092,0-161.29932-72.3589-161.29932-161.29982S78.05859,5.36861,166.99951,5.36861s161.2998,72.3584,161.2998,161.29932
			S255.94043,327.96774,166.99951,327.96774z"/>
		<path fill="#9B9B9B" d="M309.7915,333.83542H334v-24.17798C326.56604,318.32724,318.47021,326.41141,309.7915,333.83542z"/>
		<path fill="#646464" d="M166.99951,122.67281c-24.25879,0-43.99512,19.73632-43.99512,43.99511
			c0,24.25928,19.73633,43.99561,43.99512,43.99561c24.25928,0,43.99561-19.73633,43.99561-43.99561
			C210.99512,142.40913,191.25879,122.67281,166.99951,122.67281z M166.99951,181.33345
			c-8.08643,0-14.66504-6.5791-14.66504-14.66553s6.57861-14.66504,14.66504-14.66504s14.66553,6.57861,14.66553,14.66504
			S175.08594,181.33345,166.99951,181.33345z"/>
		<path fill="#646464" d="M166.99951,64.02926c-56.60449,0-102.65576,46.04346-102.65576,102.63866
			c0,56.5957,46.05127,102.63918,102.65576,102.63918c56.5957,0,102.63916-46.04347,102.63916-102.63918
			C269.63867,110.07272,223.59521,64.02926,166.99951,64.02926z M166.99951,239.97701
			c-40.43213,0-73.32568-32.88623-73.32568-73.30908c0-40.42236,32.89355-73.30859,73.32568-73.30859
			c40.42285,0,73.30908,32.88623,73.30908,73.30859C240.30859,207.09077,207.42236,239.97701,166.99951,239.97701z"/>
		<path fill="#646464" d="M166.99951,5.36861c-88.94092,0-161.29932,72.3584-161.29932,161.29932
			s72.3584,161.29982,161.29932,161.29982s161.2998-72.3589,161.2998-161.29982S255.94043,5.36861,166.99951,5.36861z
			 M166.99951,298.63766c-72.76807,0-131.96924-59.20119-131.96924-131.96974c0-72.76806,59.20117-131.96924,131.96924-131.96924
			c72.76855,0,131.96973,59.20117,131.96973,131.96924C298.96924,239.43648,239.76807,298.63766,166.99951,298.63766z"/>
		<path fill="#646464" d="M334,309.65744v-51.1488c-17.49438,31.68463-43.73901,57.88763-75.45801,75.32678
			c-0.09839,0.05408-0.19543,0.1106-0.29395,0.16455h51.349c0.06458-0.05511,0.13-0.10938,0.19446-0.16455
			C318.47021,326.41141,326.56604,318.32724,334,309.65744z"/>
		<path fill="#646464" d="M74.57422-0.00004H23.62885C15.1676,7.28976,7.26917,15.21364,0,23.69326v51.15948
			C17.32825,43.45516,43.25031,17.44277,74.57422-0.00004z"/>
		<path fill="#646464" d="M334,74.8276V23.67886c-7.26636-8.47424-15.16138-16.39319-23.61841-23.67889h-50.948
			C290.75171,17.43807,316.67041,43.44131,334,74.8276z"/>
		<path fill="#646464" d="M0,258.48349v51.15948c7.43683,8.67517,15.53613,16.76434,24.21881,24.19244
			c0.06458,0.05518,0.12988,0.10944,0.19452,0.16455h51.34631c-0.09857-0.05396-0.1955-0.11047-0.29395-0.16455
			C43.74091,316.39163,17.49286,290.17947,0,258.48349z"/>
	</g>
</g>
<g id="Layer_3" display="none">
</g>
<g id="Layer_2" display="none">
</g>
</svg>
