<?xml version="1.0" encoding="utf-8"?>
<!-- Generator: Adobe Illustrator 21.1.0, SVG Export Plug-In . SVG Version: 6.00 Build 0)  -->
<svg version="1.2" baseProfile="tiny" xmlns="http://www.w3.org/2000/svg" xmlns:xlink="http://www.w3.org/1999/xlink" x="0px"
	 y="0px" viewBox="0 0 334 334" xml:space="preserve">
<g id="Layer_1">
	<g>
		<path fill="#818181" d="M334,42.15112V28.93726C325.33691,18.41357,315.69702,8.72485,305.22656,0H292.1228
			C308.00171,11.98682,322.1167,26.19019,334,42.15112z"/>
		<path fill="#818181" d="M334,327.83984v-11.94141c-5.7207,6.37402-11.80151,12.41602-18.20752,18.10156h12.0271
			C329.91968,331.98682,331.97632,329.92944,334,327.83984z"/>
		<path fill="#818181" d="M167,333.45215c88.99194,0,161.96729-69.85229,167-157.60669v-19.36279
			C329.33691,75.17529,266.34399,9.24829,186.32764,0h-38.65527C67.65601,9.24829,4.66309,75.17529,0,156.48267v19.36279
			C5.03271,263.59985,78.00806,333.45215,167,333.45215z M166.98438,7.02734c87.74805,0,159.13672,71.38867,159.13672,159.13672
			s-71.38867,159.13672-159.13672,159.13672c-87.73926,0-159.12012-71.38867-159.12012-159.13672
			S79.24512,7.02734,166.98438,7.02734z"/>
		<path fill="#818181" d="M16.32544,0H4.45776C2.95215,1.4729,1.46533,2.96436,0,4.47729v11.9541
			C5.1604,10.68164,10.60498,5.19214,16.32544,0z"/>
		<path fill="#818181" d="M334,275.94531v-15.59668C316.52051,291.22021,290.73218,316.78857,259.69092,334h15.82153
			C298.7854,318.90137,318.72998,299.09668,334,275.94531z"/>
		<path fill="#818181" d="M41.8772,0H28.77393C18.30322,8.7251,8.66309,18.41406,0,28.93799v13.21313
			C11.8833,26.19019,25.99829,11.98682,41.8772,0z"/>
		<path fill="#818181" d="M334,303.39136V290.177c-12.44214,16.71167-27.33398,31.49219-44.13232,43.823h13.32227
			C314.44873,324.84644,324.77881,314.59302,334,303.39136z"/>
		<path fill="#818181" d="M167,170.24805c2.25195,0,4.08398-1.83203,4.08398-4.08398c0-2.25098-1.83203-4.08301-4.08398-4.08301
			c-2.24219,0-4.06641,1.83203-4.06641,4.08301C162.93359,168.41602,164.75781,170.24805,167,170.24805z"/>
		<path fill="#818181" d="M110.625,0H88.94873C49.73657,18.49292,18.08301,50.45947,0,89.89905v22.44592
			C17.0166,59.66821,58.30225,17.79968,110.625,0z"/>
		<path fill="#818181" d="M71.33936,0H55.94971C33.76245,14.87671,14.7124,34.07715,0,56.38281v15.59741
			C16.91992,42.09705,41.62036,17.17554,71.33936,0z"/>
		<path fill="#818181" d="M0,260.34863v15.59668C15.27002,299.09668,35.2146,318.90137,58.48755,334h15.82153
			C43.26782,316.78857,17.47949,291.22021,0,260.34863z"/>
		<path fill="#818181" d="M0,290.177v13.21362C9.22119,314.59253,19.55127,324.84619,30.81055,334h13.32178
			C27.33398,321.66919,12.44214,306.88867,0,290.177z"/>
		<path fill="#818181" d="M0,219.98364v22.44604C18.63965,283.0835,51.69702,315.79907,92.59009,334h23.23608
			C61.04785,317.26465,17.57617,274.39331,0,219.98364z"/>
		<path fill="#818181" d="M334,112.34497V89.89905C315.91699,50.45947,284.26343,18.49292,245.05127,0H223.375
			C275.69775,17.79968,316.9834,59.66821,334,112.34497z"/>
		<path fill="#818181" d="M334,71.98022V56.38281C319.2876,34.07715,300.23755,14.87671,278.05029,0h-15.38965
			C292.37964,17.17554,317.08008,42.09705,334,71.98022z"/>
		<path fill="#818181" d="M334,16.43042V4.48889C332.53101,2.97205,331.04053,1.47656,329.53125,0h-11.85596
			C323.39551,5.19189,328.83984,10.68115,334,16.43042z"/>
		<path fill="#818181" d="M0,315.89746v11.95386c2.02026,2.08569,4.07324,4.1394,6.16943,6.14868h12.03882
			C11.802,328.31421,5.72095,322.27173,0,315.89746z"/>
		<path fill="#818181" d="M334,242.42969v-22.44604C316.42383,274.39331,272.95215,317.26465,218.17383,334h23.23608
			C282.30298,315.79907,315.36035,283.0835,334,242.42969z"/>
		<path fill="#818181" d="M166.98438,317.13281c83.24414,0,150.96875-67.72461,150.96875-150.96875
			S250.22852,15.19531,166.98438,15.19531c-83.23535,0-150.95215,67.72461-150.95215,150.96875
			S83.74902,317.13281,166.98438,317.13281z M166.98438,23.34668c78.75,0,142.81738,64.06738,142.81738,142.81738
			s-64.06738,142.81836-142.81738,142.81836c-78.74121,0-142.80176-64.06836-142.80176-142.81836
			S88.24316,23.34668,166.98438,23.34668z"/>
		<path fill="#818181" d="M167.00098,268.16016c56.24121,0,101.99609-45.75488,101.99609-101.99609
			c0-56.24023-45.75488-101.99512-101.99609-101.99512c-56.25,0-102.0127,45.75488-102.0127,101.99512
			C64.98828,222.40527,110.75098,268.16016,167.00098,268.16016z M167.00098,72.31934
			c51.74609,0,93.84473,42.09863,93.84473,93.84473c0,51.74707-42.09863,93.8457-93.84473,93.8457
			c-51.74707,0-93.8457-42.09863-93.8457-93.8457C73.15527,114.41797,115.25391,72.31934,167.00098,72.31934z"/>
		<path fill="#818181" d="M167.00098,251.8418c47.24219,0,85.67676-38.43457,85.67676-85.67773
			c0-47.24219-38.43457-85.67676-85.67676-85.67676c-47.24316,0-85.67773,38.43457-85.67773,85.67676
			C81.32324,213.40723,119.75781,251.8418,167.00098,251.8418z M167.00098,88.6377c42.74805,0,77.52637,34.77832,77.52637,77.52637
			s-34.77832,77.52637-77.52637,77.52637c-42.74902,0-77.52734-34.77832-77.52734-77.52637S124.25195,88.6377,167.00098,88.6377z"/>
		<path fill="#818181" d="M167.00098,284.47852c65.23926,0,118.31445-53.0752,118.31445-118.31445
			S232.24023,47.84961,167.00098,47.84961c-65.24902,0-118.33203,53.0752-118.33203,118.31445
			S101.75195,284.47852,167.00098,284.47852z M167.00098,56.00098c60.74414,0,110.16406,49.41895,110.16406,110.16309
			s-49.41992,110.16406-110.16406,110.16406c-60.75391,0-110.18066-49.41992-110.18066-110.16406
			S106.24707,56.00098,167.00098,56.00098z"/>
		<path fill="#818181" d="M166.98438,300.81445c74.24609,0,134.64941-60.4043,134.64941-134.65039
			S241.23047,31.51465,166.98438,31.51465c-74.2373,0-134.63379,60.40332-134.63379,134.64941
			S92.74707,300.81445,166.98438,300.81445z M167.00098,39.68164c69.74219,0,126.48242,56.74023,126.48242,126.48242
			s-56.74023,126.48242-126.48242,126.48242c-69.75195,0-126.5-56.74023-126.5-126.48242S97.24902,39.68164,167.00098,39.68164z"/>
		<path fill="#818181" d="M167.00098,235.52246c38.24414,0,69.3584-31.11426,69.3584-69.3584s-31.11426-69.3584-69.3584-69.3584
			c-38.24512,0-69.35938,31.11426-69.35938,69.3584S128.75586,235.52246,167.00098,235.52246z M167,104.95703
			c33.75,0,61.20801,27.45703,61.20801,61.20703S200.75,227.37207,167,227.37207s-61.20703-27.45801-61.20703-61.20801
			S133.25,104.95703,167,104.95703z"/>
		<path fill="#818181" d="M167,186.56641c11.25,0,20.40234-9.15234,20.40234-20.40234S178.25,145.76172,167,145.76172
			c-11.24121,0-20.38574,9.15234-20.38574,20.40234S155.75879,186.56641,167,186.56641z M167,153.91309
			c6.75586,0,12.25195,5.49609,12.25195,12.25098c0,6.75586-5.49609,12.25195-12.25195,12.25195
			c-6.74609,0-12.23438-5.49609-12.23438-12.25195C154.76562,159.40918,160.25391,153.91309,167,153.91309z"/>
		<path fill="#818181" d="M167,219.2041c29.24609,0,53.04004-23.79395,53.04004-53.04004S196.24609,113.125,167,113.125
			s-53.03906,23.79297-53.03906,53.03906S137.75391,219.2041,167,219.2041z M167,121.27539
			c24.75195,0,44.88965,20.13672,44.88965,44.88867S191.75195,211.05371,167,211.05371s-44.88867-20.1377-44.88867-44.88965
			S142.24805,121.27539,167,121.27539z"/>
		<path fill="#818181" d="M167,202.88574c20.24805,0,36.72168-16.47363,36.72168-36.72168S187.24805,129.44336,167,129.44336
			s-36.7207,16.47266-36.7207,36.7207S146.75195,202.88574,167,202.88574z M167,137.59375
			c15.75391,0,28.57031,12.81641,28.57031,28.57031S182.75391,194.73438,167,194.73438
			c-15.74414,0-28.55371-12.81641-28.55371-28.57031S151.25586,137.59375,167,137.59375z"/>
		<path fill="#7E7E7E" d="M167,178.41602c6.75586,0,12.25195-5.49609,12.25195-12.25195
			c0-6.75488-5.49609-12.25098-12.25195-12.25098c-6.74609,0-12.23438,5.49609-12.23438,12.25098
			C154.76562,172.91992,160.25391,178.41602,167,178.41602z M167,162.08105c2.25195,0,4.08398,1.83203,4.08398,4.08301
			c0,2.25195-1.83203,4.08398-4.08398,4.08398c-2.24219,0-4.06641-1.83203-4.06641-4.08398
			C162.93359,163.91309,164.75781,162.08105,167,162.08105z"/>
		<path fill="#7E7E7E" d="M167,194.73438c15.75391,0,28.57031-12.81641,28.57031-28.57031S182.75391,137.59375,167,137.59375
			c-15.74414,0-28.55371,12.81641-28.55371,28.57031S151.25586,194.73438,167,194.73438z M167,145.76172
			c11.25,0,20.40234,9.15234,20.40234,20.40234S178.25,186.56641,167,186.56641c-11.24121,0-20.38574-9.15234-20.38574-20.40234
			S155.75879,145.76172,167,145.76172z"/>
		<path fill="#7E7E7E" d="M167,211.05371c24.75195,0,44.88965-20.1377,44.88965-44.88965S191.75195,121.27539,167,121.27539
			s-44.88867,20.13672-44.88867,44.88867S142.24805,211.05371,167,211.05371z M167,129.44336
			c20.24805,0,36.72168,16.47266,36.72168,36.7207S187.24805,202.88574,167,202.88574s-36.7207-16.47363-36.7207-36.72168
			S146.75195,129.44336,167,129.44336z"/>
		<path fill="#7E7E7E" d="M167,227.37207c33.75,0,61.20801-27.45801,61.20801-61.20801S200.75,104.95703,167,104.95703
			s-61.20703,27.45703-61.20703,61.20703S133.25,227.37207,167,227.37207z M167,113.125
			c29.24609,0,53.04004,23.79297,53.04004,53.03906S196.24609,219.2041,167,219.2041s-53.03906-23.79395-53.03906-53.04004
			S137.75391,113.125,167,113.125z"/>
		<path fill="#7E7E7E" d="M167.00098,243.69043c42.74805,0,77.52637-34.77832,77.52637-77.52637
			S209.74902,88.6377,167.00098,88.6377c-42.74902,0-77.52734,34.77832-77.52734,77.52637S124.25195,243.69043,167.00098,243.69043z
			 M167.00098,96.80566c38.24414,0,69.3584,31.11426,69.3584,69.3584s-31.11426,69.3584-69.3584,69.3584
			c-38.24512,0-69.35938-31.11426-69.35938-69.3584S128.75586,96.80566,167.00098,96.80566z"/>
		<path fill="#7E7E7E" d="M167.00098,260.00977c51.74609,0,93.84473-42.09863,93.84473-93.8457
			c0-51.74609-42.09863-93.84473-93.84473-93.84473c-51.74707,0-93.8457,42.09863-93.8457,93.84473
			C73.15527,217.91113,115.25391,260.00977,167.00098,260.00977z M167.00098,80.4873
			c47.24219,0,85.67676,38.43457,85.67676,85.67676c0,47.24316-38.43457,85.67773-85.67676,85.67773
			c-47.24316,0-85.67773-38.43457-85.67773-85.67773C81.32324,118.92188,119.75781,80.4873,167.00098,80.4873z"/>
		<path fill="#7E7E7E" d="M167.00098,276.32812c60.74414,0,110.16406-49.41992,110.16406-110.16406
			S227.74512,56.00098,167.00098,56.00098c-60.75391,0-110.18066,49.41895-110.18066,110.16309
			S106.24707,276.32812,167.00098,276.32812z M167.00098,64.16895c56.24121,0,101.99609,45.75488,101.99609,101.99512
			c0,56.24121-45.75488,101.99609-101.99609,101.99609c-56.25,0-102.0127-45.75488-102.0127-101.99609
			C64.98828,109.92383,110.75098,64.16895,167.00098,64.16895z"/>
		<path fill="#7E7E7E" d="M167.00098,292.64648c69.74219,0,126.48242-56.74023,126.48242-126.48242
			S236.74316,39.68164,167.00098,39.68164c-69.75195,0-126.5,56.74023-126.5,126.48242S97.24902,292.64648,167.00098,292.64648z
			 M167.00098,47.84961c65.23926,0,118.31445,53.0752,118.31445,118.31445s-53.0752,118.31445-118.31445,118.31445
			c-65.24902,0-118.33203-53.0752-118.33203-118.31445S101.75195,47.84961,167.00098,47.84961z"/>
		<path fill="#7E7E7E" d="M166.98438,308.98242c78.75,0,142.81738-64.06836,142.81738-142.81836
			S245.73438,23.34668,166.98438,23.34668c-78.74121,0-142.80176,64.06738-142.80176,142.81738
			S88.24316,308.98242,166.98438,308.98242z M166.98438,31.51465c74.24609,0,134.64941,60.40332,134.64941,134.64941
			s-60.40332,134.65039-134.64941,134.65039c-74.2373,0-134.63379-60.4043-134.63379-134.65039
			S92.74707,31.51465,166.98438,31.51465z"/>
		<path fill="#7E7E7E" d="M166.98438,325.30078c87.74805,0,159.13672-71.38867,159.13672-159.13672
			S254.73242,7.02734,166.98438,7.02734c-87.73926,0-159.12012,71.38867-159.12012,159.13672
			S79.24512,325.30078,166.98438,325.30078z M166.98438,15.19531c83.24414,0,150.96875,67.72461,150.96875,150.96875
			s-67.72461,150.96875-150.96875,150.96875c-83.23535,0-150.95215-67.72461-150.95215-150.96875
			S83.74902,15.19531,166.98438,15.19531z"/>
		<path fill="#7E7E7E" d="M147.67236,0H110.625C58.30225,17.79968,17.0166,59.66821,0,112.34497v44.1377
			C4.66309,75.17529,67.65601,9.24829,147.67236,0z"/>
		<path fill="#7E7E7E" d="M334,219.98364v-44.13818c-5.03271,87.75439-78.00806,157.60669-167,157.60669
			S5.03271,263.59985,0,175.84546v44.13818C17.57617,274.39331,61.04785,317.26465,115.82617,334h102.34766
			C272.95215,317.26465,316.42383,274.39331,334,219.98364z"/>
		<path fill="#7E7E7E" d="M334,156.48267v-44.1377C316.9834,59.66821,275.69775,17.79968,223.375,0h-37.04736
			C266.34399,9.24829,329.33691,75.17529,334,156.48267z"/>
		<path fill="#7E7E7E" d="M334,89.89905V71.98022C317.08008,42.09705,292.37964,17.17554,262.66064,0h-17.60938
			C284.26343,18.49292,315.91699,50.45947,334,89.89905z"/>
		<path fill="#7E7E7E" d="M334,260.34863v-17.91895C315.36035,283.0835,282.30298,315.79907,241.40991,334h18.28101
			C290.73218,316.78857,316.52051,291.22021,334,260.34863z"/>
		<path fill="#7E7E7E" d="M0,242.42969v17.91895C17.47949,291.22021,43.26782,316.78857,74.30908,334h18.28101
			C51.69702,315.79907,18.63965,283.0835,0,242.42969z"/>
		<path fill="#7E7E7E" d="M88.94873,0H71.33936C41.62036,17.17554,16.91992,42.09705,0,71.98022v17.91882
			C18.08301,50.45947,49.73657,18.49292,88.94873,0z"/>
		<path fill="#7E7E7E" d="M55.94971,0H41.8772C25.99829,11.98682,11.8833,26.19019,0,42.15112v14.23169
			C14.7124,34.07715,33.76245,14.87671,55.94971,0z"/>
		<path fill="#7E7E7E" d="M334,56.38281V42.15112C322.1167,26.19019,308.00171,11.98682,292.1228,0h-14.07251
			C300.23755,14.87671,319.2876,34.07715,334,56.38281z"/>
		<path fill="#7E7E7E" d="M334,290.177v-14.23169C318.72998,299.09668,298.7854,318.90137,275.51245,334h14.35522
			C306.66602,321.66919,321.55786,306.88867,334,290.177z"/>
		<path fill="#7E7E7E" d="M0,275.94531V290.177C12.44214,306.88867,27.33398,321.66919,44.13232,334h14.35522
			C35.2146,318.90137,15.27002,299.09668,0,275.94531z"/>
		<path fill="#7E7E7E" d="M334,315.89844v-12.50708c-9.22119,11.20166-19.55127,21.45508-30.81006,30.60864h12.60254
			C322.19849,328.31445,328.2793,322.27246,334,315.89844z"/>
		<path fill="#7E7E7E" d="M0,303.39062v12.50684C5.72095,322.27173,11.802,328.31421,18.20825,334h12.60229
			C19.55127,324.84619,9.22119,314.59253,0,303.39062z"/>
		<path fill="#7E7E7E" d="M334,28.93726V16.43042C328.83984,10.68115,323.39551,5.19189,317.67529,0h-12.44873
			C315.69702,8.72485,325.33691,18.41357,334,28.93726z"/>
		<path fill="#7E7E7E" d="M28.77393,0H16.32544C10.60498,5.19214,5.1604,10.68164,0,16.4314v12.50659
			C8.66309,18.41406,18.30322,8.7251,28.77393,0z"/>
		<path fill="#7E7E7E" d="M334,327.83984c-2.02368,2.0896-4.08032,4.14697-6.18042,6.16016H334V327.83984z"/>
		<path fill="#7E7E7E" d="M4.45776,0H0v4.47729C1.46533,2.96436,2.95215,1.4729,4.45776,0z"/>
		<path fill="#7E7E7E" d="M0,327.85132V334h6.16943C4.07324,331.99072,2.02026,329.93701,0,327.85132z"/>
		<path fill="#7E7E7E" d="M334,4.48889V0h-4.46875C331.04053,1.47656,332.53101,2.97205,334,4.48889z"/>
	</g>
</g>
<g id="Layer_3" display="none">
</g>
<g id="Layer_2" display="none">
</g>
</svg>
