<?xml version="1.0" encoding="utf-8"?>
<!-- Generator: Adobe Illustrator 21.1.0, SVG Export Plug-In . SVG Version: 6.00 Build 0)  -->
<svg version="1.2" baseProfile="tiny" xmlns="http://www.w3.org/2000/svg" xmlns:xlink="http://www.w3.org/1999/xlink" x="0px"
	 y="0px" viewBox="0 0 334 334" xml:space="preserve">
<g id="Layer_1">
	<g>
		<path fill="#9B9B9B" d="M0,233.0835v9.54785C18.63098,283.16357,51.5899,315.79443,92.35413,334h9.85236
			C55.74902,316.0022,18.56836,279.25244,0,233.0835z"/>
		<path fill="#9B9B9B" d="M0,208.76831v13.37451C17.81818,275.15674,60.2218,316.97583,113.59607,334h14.1535
			C65.30695,319.39795,15.81616,270.74561,0,208.76831z"/>
		<path fill="#9B9B9B" d="M0,251.32837v7.96143C17.58722,290.70508,43.77289,316.68115,75.35834,334h8.13995
			C47.62738,316.07715,18.26294,286.99927,0,251.32837z"/>
		<path fill="#9B9B9B" d="M0,266.84058v7.11255C15.60309,298.04932,36.27185,318.57153,60.4903,334h7.23804
			C40.0058,317.53735,16.68445,294.41406,0,266.84058z"/>
		<path fill="#9B9B9B" d="M0,280.76953v6.52588C13.06537,305.26123,28.94788,321.05054,47.00336,334h6.58099
			C32.57928,319.75586,14.3855,301.67065,0,280.76953z"/>
		<circle fill="#9B9B9B" cx="166.99963" cy="166.16528" r="1.89587"/>
		<path fill="#9B9B9B" d="M167.0498,126.40332c-21.93359,0-39.77734,17.83691-39.77734,39.76172
			s17.84375,39.76172,39.77734,39.76172c21.92432,0,39.76123-17.83691,39.76123-39.76172S188.97412,126.40332,167.0498,126.40332z
			 M167.0332,202.15137c-19.84277,0-35.98633-16.14355-35.98633-35.98633s16.14355-35.98633,35.98633-35.98633
			c19.84326,0,35.98682,16.14355,35.98682,35.98633S186.87646,202.15137,167.0332,202.15137z"/>
		<path fill="#9B9B9B" d="M167.0166,156.70312c-5.22705,0-9.479,4.24512-9.479,9.46191c0,5.21777,4.25195,9.46289,9.479,9.46289
			c5.21729,0,9.46191-4.24512,9.46191-9.46289C176.47852,160.94824,172.23389,156.70312,167.0166,156.70312z M166.99951,171.85254
			c-3.13574,0-5.6875-2.55078-5.6875-5.6875c0-3.13574,2.55176-5.68652,5.6875-5.68652c3.13623,0,5.68799,2.55078,5.68799,5.68652
			C172.6875,169.30176,170.13574,171.85254,166.99951,171.85254z"/>
		<path fill="#9B9B9B" d="M0,293.6333v6.13062C10.14929,312.42871,21.69995,323.9231,34.42499,334h6.18738
			C25.3147,322.44873,11.64514,308.85547,0,293.6333z"/>
		<path fill="#9B9B9B" d="M167.0332,133.96973c-17.75195,0-32.19434,14.44336-32.19434,32.19531
			s14.44238,32.19531,32.19434,32.19531c17.75244,0,32.19482-14.44336,32.19482-32.19531S184.78564,133.96973,167.0332,133.96973z
			 M167.0332,194.56836c-15.6709,0-28.41992-12.74121-28.41992-28.40332s12.74902-28.40332,28.41992-28.40332
			c15.66162,0,28.40332,12.74121,28.40332,28.40332S182.69482,194.56836,167.0332,194.56836z"/>
		<path fill="#9B9B9B" d="M167.0166,149.11914c-9.39893,0-17.04541,7.64648-17.04541,17.0459s7.64648,17.0459,17.04541,17.0459
			s17.04492-7.64648,17.04492-17.0459S176.41553,149.11914,167.0166,149.11914z M167.0166,179.41895
			c-7.31738,0-13.271-5.94531-13.271-13.25391c0-7.30762,5.95361-13.25293,13.271-13.25293
			c7.30811,0,13.25391,5.94531,13.25391,13.25293C180.27051,173.47363,174.32471,179.41895,167.0166,179.41895z"/>
		<path fill="#9B9B9B" d="M167.0332,141.55273c-13.58008,0-24.62793,11.04102-24.62793,24.6123s11.04785,24.6123,24.62793,24.6123
			c13.5708,0,24.61133-11.04102,24.61133-24.6123S180.604,141.55273,167.0332,141.55273z M167.0166,187.00195
			c-11.48975,0-20.8374-9.34766-20.8374-20.83691s9.34766-20.83691,20.8374-20.83691c11.48926,0,20.83691,9.34766,20.83691,20.83691
			S178.50586,187.00195,167.0166,187.00195z"/>
		<path fill="#9B9B9B" d="M0,305.74805v5.82959C6.97021,319.57593,14.50281,327.07104,22.5376,334h5.8573
			C18.08862,325.4707,8.58551,316.0061,0,305.74805z"/>
		<path fill="#9B9B9B" d="M14.96008,0H9.42877C6.19281,3.07153,3.05298,6.24219,0,9.49561v5.54785
			C4.74896,9.79834,9.74316,4.77979,14.96008,0z"/>
		<path fill="#9B9B9B" d="M26.42072,0h-5.78369C13.3147,6.46045,6.41608,13.39014,0,20.75244v5.82959
			C8.03229,16.98511,16.875,8.09131,26.42072,0z"/>
		<path fill="#9B9B9B" d="M51.17731,0h-6.46216C27.60468,12.62891,12.51001,27.83252,0,45.03467v6.52588
			C13.83173,31.46387,31.1897,13.97827,51.17731,0z"/>
		<path fill="#9B9B9B" d="M167.0498,118.82031c-26.10547,0-47.34375,21.23926-47.34375,47.34473
			s21.23828,47.34473,47.34375,47.34473c26.10596,0,47.34424-21.23926,47.34424-47.34473S193.15576,118.82031,167.0498,118.82031z
			 M167.0498,209.71777c-24.02393,0-43.56934-19.53711-43.56934-43.55273s19.54541-43.55273,43.56934-43.55273
			c24.01514,0,43.55322,19.53711,43.55322,43.55273S191.06494,209.71777,167.0498,209.71777z"/>
		<path fill="#9B9B9B" d="M334,123.5v-13.36426C316.72998,58.80151,276.40527,17.97412,225.39551,0h-12.61914
			C272.11157,16.36548,318.72119,63.72705,334,123.5z"/>
		<path fill="#9B9B9B" d="M3.98663,0H0v4.0083C1.31281,2.65625,2.64172,1.32031,3.98663,0z"/>
		<path fill="#9B9B9B" d="M64.96307,0h-7.03644C34.81366,15.22754,15.04871,35.13696,0,58.37695v7.11279
			C16.12708,38.83765,38.45355,16.34082,64.96307,0z"/>
		<path fill="#9B9B9B" d="M0,328.32178v5.40039c0.09381,0.09375,0.19043,0.18457,0.28436,0.27783h5.41241
			C3.76416,332.14111,1.8678,330.24561,0,328.32178z"/>
		<path fill="#9B9B9B" d="M80.23486,0h-7.85864C42.1236,17.2981,17.03076,42.61963,0,73.04102v7.96069
			C17.70599,46.41846,45.84698,18.03247,80.23486,0z"/>
		<path fill="#9B9B9B" d="M0,317.28662v5.54785C3.61194,326.68359,7.35541,330.40674,11.22235,334h5.58771
			C10.92188,328.7229,5.30658,323.14771,0,317.28662z"/>
		<path fill="#9B9B9B" d="M121.22711,0h-12.59589C57.59961,17.97998,17.2619,58.8291,0,110.18774v13.37402
			C15.26111,63.75977,61.87738,16.37109,121.22711,0z"/>
		<path fill="#9B9B9B" d="M98.05194,0h-9.32355C49.63739,18.49219,18.0752,50.37573,0,89.69873v9.54834
			C18.01154,54.46313,53.53534,18.54102,98.05194,0z"/>
		<path fill="#9B9B9B" d="M167.13379,27.90723c-76.22656,0-138.24072,62.02246-138.24072,138.25781
			s62.01416,138.25781,138.24072,138.25781c76.23584,0,138.25781-62.02246,138.25781-138.25781
			S243.36963,27.90723,167.13379,27.90723z M167.13379,300.63086c-74.14502,0-134.46631-60.32129-134.46631-134.46582
			S92.98877,31.69922,167.13379,31.69922s134.4668,60.32129,134.4668,134.46582S241.27881,300.63086,167.13379,300.63086z"/>
		<path fill="#9B9B9B" d="M167.15088,12.75781c-84.58008,0-153.39062,68.81836-153.39062,153.40723
			c0,84.58984,68.81055,153.4082,153.39062,153.4082c84.58936,0,153.40723-68.81836,153.40723-153.4082
			C320.55811,81.57617,251.74023,12.75781,167.15088,12.75781z M167.15088,315.78027
			c-82.49854,0-149.61621-67.11719-149.61621-149.61523S84.65234,16.5498,167.15088,16.5498s149.61621,67.11719,149.61621,149.61523
			S249.64941,315.78027,167.15088,315.78027z"/>
		<path fill="#9B9B9B" d="M334,222.19482v-13.36475C318.16528,270.77783,268.6814,319.40283,206.25317,334h14.17798
			C273.78308,316.98145,316.17322,275.18408,334,222.19482z"/>
		<path fill="#9B9B9B" d="M334,259.38184v-7.98804c-18.26538,35.64111-47.6167,64.69434-83.46606,82.6062h8.16602
			C290.25171,316.69824,316.41479,290.75586,334,259.38184z"/>
		<path fill="#9B9B9B" d="M334,189.02441v-45.71875C324.07678,70.44482,267.42346,12.25049,195.31836,0h-56.63507
			C66.54871,12.25659,9.87994,70.50342,0,143.41602v45.49805C10.45667,266.08276,73.32446,326.82446,151.4668,334h31.06689
			C260.64624,326.82788,323.49731,266.14062,334,189.02441z M167.16748,330.93066
			c-90.85205,0-164.76562-73.91309-164.76562-164.76562c0-90.85156,73.91357-164.76465,164.76562-164.76465
			s164.76562,73.91309,164.76562,164.76465C331.93311,257.01758,258.01953,330.93066,167.16748,330.93066z"/>
		<path fill="#9B9B9B" d="M334,274.05396v-7.12598C317.32056,294.46313,294.02026,317.55469,266.32922,334h7.24695
			C297.76062,318.59302,318.40454,298.10645,334,274.05396z"/>
		<path fill="#9B9B9B" d="M167.16748,5.19141c-88.76123,0-160.97363,72.21289-160.97363,160.97363
			c0,88.76172,72.2124,160.97461,160.97363,160.97461s160.97363-72.21289,160.97363-160.97461
			C328.14111,77.4043,255.92871,5.19141,167.16748,5.19141z M167.15088,323.36426
			c-86.67041,0-157.18262-70.51953-157.18262-157.19922S80.48047,8.9668,167.15088,8.9668
			c86.67969,0,157.19922,70.51855,157.19922,157.19824S253.83057,323.36426,167.15088,323.36426z"/>
		<path fill="#9B9B9B" d="M334,242.70215v-9.57642C315.42761,279.27466,278.25916,316.00781,231.82007,334h9.8584
			C282.41919,315.80518,315.36304,283.20117,334,242.70215z"/>
		<path fill="#9B9B9B" d="M334,322.97778v-5.56445c-5.27344,5.81543-10.85229,11.34717-16.69885,16.58667h5.60986
			C326.73022,330.45117,330.42957,326.77637,334,322.97778z"/>
		<path fill="#9B9B9B" d="M167.05029,111.2373c-30.27783,0-54.91064,24.64062-54.91064,54.92773
			s24.63281,54.92773,54.91064,54.92773c30.28662,0,54.92676-24.64062,54.92676-54.92773S197.33691,111.2373,167.05029,111.2373z
			 M167.0498,217.30078c-28.19629,0-51.13574-22.93945-51.13574-51.13574s22.93945-51.13574,51.13574-51.13574
			s51.13623,22.93945,51.13623,51.13574S195.24609,217.30078,167.0498,217.30078z"/>
		<path fill="#9B9B9B" d="M334,299.88794v-6.1416C322.37463,308.92285,308.73608,322.47729,293.47754,334h6.19727
			C312.35828,323.95605,323.87463,312.50391,334,299.88794z"/>
		<path fill="#9B9B9B" d="M334,287.41406v-6.54883c-14.37512,20.86035-32.54504,38.9126-53.51794,53.13477h6.60486
			C305.10107,321.0791,320.95203,305.33081,334,287.41406z"/>
		<path fill="#9B9B9B" d="M334,311.70459v-5.83838c-8.55957,10.21216-18.02856,19.63721-28.29517,28.13379h5.86841
			C319.56592,327.10791,327.06042,319.65479,334,311.70459z"/>
		<path fill="#9B9B9B" d="M334,328.45825c-1.82495,1.87671-3.67676,3.72705-5.56348,5.54175h5.42444
			c0.04602-0.04565,0.09314-0.09009,0.13904-0.13574V328.45825z"/>
		<path fill="#9B9B9B" d="M167.10059,65.78906c-55.34766,0-100.37598,45.02832-100.37598,100.37598
			s45.02832,100.37598,100.37598,100.37598c55.34717,0,100.37549-45.02832,100.37549-100.37598
			S222.44775,65.78906,167.10059,65.78906z M167.1001,262.74902c-53.26611,0-96.60107-43.32715-96.60107-96.58398
			s43.33496-96.58398,96.60107-96.58398c53.25684,0,96.58496,43.32715,96.58496,96.58398S220.35693,262.74902,167.1001,262.74902z"
			/>
		<path fill="#9B9B9B" d="M167.0835,80.93848c-46.98438,0-85.20898,38.23242-85.20898,85.22656s38.22461,85.22656,85.20898,85.22656
			c46.99414,0,85.22607-38.23242,85.22607-85.22656S214.07764,80.93848,167.0835,80.93848z M167.0835,247.59961
			c-44.90332,0-81.43506-36.53125-81.43506-81.43457s36.53174-81.43457,81.43506-81.43457s81.43506,36.53125,81.43506,81.43457
			S211.98682,247.59961,167.0835,247.59961z"/>
		<path fill="#9B9B9B" d="M167.1001,73.37207c-51.17529,0-92.80908,41.62695-92.80908,92.79297s41.63379,92.79297,92.80908,92.79297
			c51.1665,0,92.79297-41.62695,92.79297-92.79297S218.2666,73.37207,167.1001,73.37207z M167.0835,255.18262
			c-49.0752,0-89.00098-39.93262-89.00098-89.01758s39.92578-89.01758,89.00098-89.01758
			c49.08447,0,89.01807,39.93262,89.01807,89.01758S216.16797,255.18262,167.0835,255.18262z"/>
		<path fill="#9B9B9B" d="M167.0835,88.52148c-42.8125,0-77.64307,34.83105-77.64307,77.64355s34.83057,77.64355,77.64307,77.64355
			s77.64307-34.83105,77.64307-77.64355S209.896,88.52148,167.0835,88.52148z M167.06689,240.0332
			c-40.72217,0-73.85205-33.13672-73.85205-73.86816s33.12988-73.86816,73.85205-73.86816
			c40.73096,0,73.86865,33.13672,73.86865,73.86816S207.79785,240.0332,167.06689,240.0332z"/>
		<path fill="#9B9B9B" d="M167.06689,103.6709c-34.45947,0-62.49365,28.03516-62.49365,62.49414
			s28.03418,62.49414,62.49365,62.49414s62.49365-28.03516,62.49365-62.49414S201.52637,103.6709,167.06689,103.6709z
			 M167.05029,224.88379c-32.36865,0-58.70264-26.34082-58.70264-58.71875s26.33398-58.71875,58.70264-58.71875
			c32.37744,0,58.71875,26.34082,58.71875,58.71875S199.42773,224.88379,167.05029,224.88379z"/>
		<path fill="#9B9B9B" d="M167.06689,96.08789c-38.63135,0-70.06006,31.43652-70.06006,70.07715
			s31.42871,70.07715,70.06006,70.07715c38.64062,0,70.07666-31.43652,70.07666-70.07715S205.70752,96.08789,167.06689,96.08789z
			 M167.06689,232.4502c-36.5498,0-66.28564-29.73535-66.28564-66.28516s29.73584-66.28516,66.28564-66.28516
			s66.28564,29.73535,66.28564,66.28516S203.6167,232.4502,167.06689,232.4502z"/>
		<path fill="#9B9B9B" d="M167.11719,50.63965c-63.70068,0-115.5249,51.82422-115.5249,115.52539
			s51.82422,115.52539,115.5249,115.52539s115.5249-51.82422,115.5249-115.52539S230.81787,50.63965,167.11719,50.63965z
			 M167.11719,277.89844c-61.61914,0-111.75049-50.12305-111.75049-111.7334s50.13135-111.7334,111.75049-111.7334
			c61.61035,0,111.73389,50.12305,111.73389,111.7334S228.72754,277.89844,167.11719,277.89844z"/>
		<path fill="#9B9B9B" d="M167.13379,35.49023c-72.0542,0-130.67432,58.62109-130.67432,130.6748
			s58.62012,130.6748,130.67432,130.6748c72.05469,0,130.6748-58.62109,130.6748-130.6748S239.18848,35.49023,167.13379,35.49023z
			 M167.13379,293.04785c-69.97266,0-126.8999-56.91895-126.8999-126.88281S97.16113,39.28223,167.13379,39.28223
			c69.96387,0,126.88379,56.91895,126.88379,126.88281S237.09766,293.04785,167.13379,293.04785z"/>
		<path fill="#9B9B9B" d="M334,99.20508v-9.57715C315.91943,50.33765,284.37183,18.48096,245.3042,0h-9.33008
			C280.47278,18.5354,315.98474,54.44067,334,99.20508z"/>
		<path fill="#9B9B9B" d="M167.13379,43.07324c-67.88184,0-123.10791,55.21875-123.10791,123.0918
			s55.22607,123.0918,123.10791,123.0918c67.87305,0,123.0918-55.21875,123.0918-123.0918S235.00684,43.07324,167.13379,43.07324z
			 M167.11719,285.48145c-65.7915,0-119.31689-53.52539-119.31689-119.31641S101.32568,46.84863,167.11719,46.84863
			s119.31689,53.52539,119.31689,119.31641S232.90869,285.48145,167.11719,285.48145z"/>
		<path fill="#9B9B9B" d="M167.15088,20.34082c-80.40771,0-145.82422,65.41699-145.82422,145.82422
			s65.4165,145.82422,145.82422,145.82422S312.9751,246.57227,312.9751,166.16504S247.55859,20.34082,167.15088,20.34082z
			 M167.13379,308.21387c-78.31689,0-142.03271-63.72266-142.03271-142.04883S88.81689,24.11621,167.13379,24.11621
			c78.32617,0,142.0498,63.72266,142.0498,142.04883S245.45996,308.21387,167.13379,308.21387z"/>
		<path fill="#9B9B9B" d="M167.11719,58.22266c-59.52881,0-107.9585,48.42285-107.9585,107.94238
			s48.42969,107.94238,107.9585,107.94238c59.51953,0,107.94189-48.42285,107.94189-107.94238
			S226.63672,58.22266,167.11719,58.22266z M167.10059,270.33203c-57.43848,0-104.16797-46.72852-104.16797-104.16699
			S109.66211,61.99805,167.10059,61.99805c57.43799,0,104.16748,46.72852,104.16748,104.16699
			S224.53857,270.33203,167.10059,270.33203z"/>
		<path fill="#9B9B9B" d="M38.43536,0h-6.08282C20.44452,9.67139,9.59448,20.59351,0,32.56616v6.13062
			C11.08948,24.20117,24.01599,11.18457,38.43536,0z"/>
		<path fill="#9B9B9B" d="M334,38.58374v-6.1416C324.42993,20.51831,313.61414,9.63794,301.74731,0h-6.0929
			C310.03516,11.15552,322.93079,24.1333,334,38.58374z"/>
		<path fill="#9B9B9B" d="M334,26.46387v-5.83838C327.61511,13.31055,320.75464,6.42334,313.47412,0h-5.79504
			C317.18555,8.05786,325.99414,16.91235,334,26.46387z"/>
		<path fill="#9B9B9B" d="M334,51.46484v-6.54883C321.50793,27.7627,306.44482,12.59961,289.375,0h-6.48584
			C302.84497,13.95605,320.17908,31.40869,334,51.46484z"/>
		<path fill="#9B9B9B" d="M334,3.87183V0h-3.85327C331.44629,1.27563,332.73047,2.56641,334,3.87183z"/>
		<path fill="#9B9B9B" d="M334,14.91675V9.35229C330.98901,6.14893,327.89319,3.02661,324.70459,0h-5.55334
			C324.3269,4.74146,329.28467,9.7168,334,14.91675z"/>
		<path fill="#9B9B9B" d="M334,65.40234v-7.12622C318.95947,35.07959,299.21924,15.20557,276.13977,0h-7.04553
			C295.57275,16.323,317.87842,38.78809,334,65.40234z"/>
		<path fill="#9B9B9B" d="M334,80.93628v-7.98755C316.97168,42.5686,291.90137,17.28052,261.68188,0h-7.8844
			C288.16382,18.021,316.29199,46.38257,334,80.93628z"/>
		<path fill="#646464" d="M166.99951,160.47852c-3.13574,0-5.6875,2.55078-5.6875,5.68652c0,3.13672,2.55176,5.6875,5.6875,5.6875
			c3.13623,0,5.68799-2.55078,5.68799-5.6875C172.6875,163.0293,170.13574,160.47852,166.99951,160.47852z M166.99951,168.06152
			c-1.04541,0-1.89551-0.85059-1.89551-1.89648c0-1.04492,0.8501-1.89551,1.89551-1.89551s1.896,0.85059,1.896,1.89551
			C168.89551,167.21094,168.04492,168.06152,166.99951,168.06152z"/>
		<path fill="#646464" d="M167.0166,152.91211c-7.31738,0-13.271,5.94531-13.271,13.25293
			c0,7.30859,5.95361,13.25391,13.271,13.25391c7.30811,0,13.25391-5.94531,13.25391-13.25391
			C180.27051,158.85742,174.32471,152.91211,167.0166,152.91211z M167.0166,175.62793c-5.22705,0-9.479-4.24512-9.479-9.46289
			c0-5.2168,4.25195-9.46191,9.479-9.46191c5.21729,0,9.46191,4.24512,9.46191,9.46191
			C176.47852,171.38281,172.23389,175.62793,167.0166,175.62793z"/>
		<path fill="#646464" d="M167.0166,145.32812c-11.48975,0-20.8374,9.34766-20.8374,20.83691s9.34766,20.83691,20.8374,20.83691
			c11.48926,0,20.83691-9.34766,20.83691-20.83691S178.50586,145.32812,167.0166,145.32812z M167.0166,183.21094
			c-9.39893,0-17.04541-7.64648-17.04541-17.0459s7.64648-17.0459,17.04541-17.0459s17.04492,7.64648,17.04492,17.0459
			S176.41553,183.21094,167.0166,183.21094z"/>
		<path fill="#646464" d="M167.0332,137.76172c-15.6709,0-28.41992,12.74121-28.41992,28.40332s12.74902,28.40332,28.41992,28.40332
			c15.66162,0,28.40332-12.74121,28.40332-28.40332S182.69482,137.76172,167.0332,137.76172z M167.0332,190.77734
			c-13.58008,0-24.62793-11.04102-24.62793-24.6123s11.04785-24.6123,24.62793-24.6123
			c13.5708,0,24.61133,11.04102,24.61133,24.6123S180.604,190.77734,167.0332,190.77734z"/>
		<path fill="#646464" d="M167.0332,130.17871c-19.84277,0-35.98633,16.14355-35.98633,35.98633
			s16.14355,35.98633,35.98633,35.98633c19.84326,0,35.98682-16.14355,35.98682-35.98633S186.87646,130.17871,167.0332,130.17871z
			 M167.0332,198.36035c-17.75195,0-32.19434-14.44336-32.19434-32.19531s14.44238-32.19531,32.19434-32.19531
			c17.75244,0,32.19482,14.44336,32.19482,32.19531S184.78564,198.36035,167.0332,198.36035z"/>
		<path fill="#646464" d="M167.0498,122.6123c-24.02393,0-43.56934,19.53711-43.56934,43.55273s19.54541,43.55273,43.56934,43.55273
			c24.01514,0,43.55322-19.53711,43.55322-43.55273S191.06494,122.6123,167.0498,122.6123z M167.0498,205.92676
			c-21.93359,0-39.77734-17.83691-39.77734-39.76172s17.84375-39.76172,39.77734-39.76172
			c21.92432,0,39.76123,17.83691,39.76123,39.76172S188.97412,205.92676,167.0498,205.92676z"/>
		<path fill="#646464" d="M167.0498,115.0293c-28.19629,0-51.13574,22.93945-51.13574,51.13574s22.93945,51.13574,51.13574,51.13574
			s51.13623-22.93945,51.13623-51.13574S195.24609,115.0293,167.0498,115.0293z M167.0498,213.50977
			c-26.10547,0-47.34375-21.23926-47.34375-47.34473s21.23828-47.34473,47.34375-47.34473
			c26.10596,0,47.34424,21.23926,47.34424,47.34473S193.15576,213.50977,167.0498,213.50977z"/>
		<path fill="#646464" d="M167.05029,107.44629c-32.36865,0-58.70264,26.34082-58.70264,58.71875
			s26.33398,58.71875,58.70264,58.71875c32.37744,0,58.71875-26.34082,58.71875-58.71875S199.42773,107.44629,167.05029,107.44629z
			 M167.05029,221.09277c-30.27783,0-54.91064-24.64062-54.91064-54.92773s24.63281-54.92773,54.91064-54.92773
			c30.28662,0,54.92676,24.64062,54.92676,54.92773S197.33691,221.09277,167.05029,221.09277z"/>
		<path fill="#646464" d="M167.06689,99.87988c-36.5498,0-66.28564,29.73535-66.28564,66.28516s29.73584,66.28516,66.28564,66.28516
			s66.28564-29.73535,66.28564-66.28516S203.6167,99.87988,167.06689,99.87988z M167.06689,228.65918
			c-34.45947,0-62.49365-28.03516-62.49365-62.49414s28.03418-62.49414,62.49365-62.49414s62.49365,28.03516,62.49365,62.49414
			S201.52637,228.65918,167.06689,228.65918z"/>
		<path fill="#646464" d="M167.06689,92.29688c-40.72217,0-73.85205,33.13672-73.85205,73.86816
			s33.12988,73.86816,73.85205,73.86816c40.73096,0,73.86865-33.13672,73.86865-73.86816S207.79785,92.29688,167.06689,92.29688z
			 M167.06689,236.24219c-38.63135,0-70.06006-31.43652-70.06006-70.07715s31.42871-70.07715,70.06006-70.07715
			c38.64062,0,70.07666,31.43652,70.07666,70.07715S205.70752,236.24219,167.06689,236.24219z"/>
		<path fill="#646464" d="M167.0835,84.73047c-44.90332,0-81.43506,36.53125-81.43506,81.43457s36.53174,81.43457,81.43506,81.43457
			s81.43506-36.53125,81.43506-81.43457S211.98682,84.73047,167.0835,84.73047z M167.0835,243.80859
			c-42.8125,0-77.64307-34.83105-77.64307-77.64355S124.271,88.52148,167.0835,88.52148s77.64307,34.83105,77.64307,77.64355
			S209.896,243.80859,167.0835,243.80859z"/>
		<path fill="#646464" d="M167.0835,77.14746c-49.0752,0-89.00098,39.93262-89.00098,89.01758s39.92578,89.01758,89.00098,89.01758
			c49.08447,0,89.01807-39.93262,89.01807-89.01758S216.16797,77.14746,167.0835,77.14746z M167.0835,251.3916
			c-46.98438,0-85.20898-38.23242-85.20898-85.22656s38.22461-85.22656,85.20898-85.22656
			c46.99414,0,85.22607,38.23242,85.22607,85.22656S214.07764,251.3916,167.0835,251.3916z"/>
		<path fill="#646464" d="M167.1001,69.58105c-53.26611,0-96.60107,43.32715-96.60107,96.58398s43.33496,96.58398,96.60107,96.58398
			c53.25684,0,96.58496-43.32715,96.58496-96.58398S220.35693,69.58105,167.1001,69.58105z M167.1001,258.95801
			c-51.17529,0-92.80908-41.62695-92.80908-92.79297s41.63379-92.79297,92.80908-92.79297
			c51.1665,0,92.79297,41.62695,92.79297,92.79297S218.2666,258.95801,167.1001,258.95801z"/>
		<path fill="#646464" d="M167.10059,61.99805c-57.43848,0-104.16797,46.72852-104.16797,104.16699
			s46.72949,104.16699,104.16797,104.16699c57.43799,0,104.16748-46.72852,104.16748-104.16699
			S224.53857,61.99805,167.10059,61.99805z M167.10059,266.54102c-55.34766,0-100.37598-45.02832-100.37598-100.37598
			S111.75293,65.78906,167.10059,65.78906c55.34717,0,100.37549,45.02832,100.37549,100.37598
			S222.44775,266.54102,167.10059,266.54102z"/>
		<path fill="#646464" d="M167.11719,54.43164c-61.61914,0-111.75049,50.12305-111.75049,111.7334
			s50.13135,111.7334,111.75049,111.7334c61.61035,0,111.73389-50.12305,111.73389-111.7334S228.72754,54.43164,167.11719,54.43164z
			 M167.11719,274.10742c-59.52881,0-107.9585-48.42285-107.9585-107.94238s48.42969-107.94238,107.9585-107.94238
			c59.51953,0,107.94189,48.42285,107.94189,107.94238S226.63672,274.10742,167.11719,274.10742z"/>
		<path fill="#646464" d="M167.11719,46.84863c-65.7915,0-119.31689,53.52539-119.31689,119.31641
			s53.52539,119.31641,119.31689,119.31641s119.31689-53.52539,119.31689-119.31641S232.90869,46.84863,167.11719,46.84863z
			 M167.11719,281.69043c-63.70068,0-115.5249-51.82422-115.5249-115.52539S103.4165,50.63965,167.11719,50.63965
			s115.5249,51.82422,115.5249,115.52539S230.81787,281.69043,167.11719,281.69043z"/>
		<path fill="#646464" d="M167.13379,39.28223c-69.97266,0-126.8999,56.91895-126.8999,126.88281
			s56.92725,126.88281,126.8999,126.88281c69.96387,0,126.88379-56.91895,126.88379-126.88281
			S237.09766,39.28223,167.13379,39.28223z M167.13379,289.25684c-67.88184,0-123.10791-55.21875-123.10791-123.0918
			s55.22607-123.0918,123.10791-123.0918c67.87305,0,123.0918,55.21875,123.0918,123.0918S235.00684,289.25684,167.13379,289.25684z
			"/>
		<path fill="#646464" d="M167.13379,31.69922c-74.14502,0-134.46631,60.32129-134.46631,134.46582
			s60.32129,134.46582,134.46631,134.46582s134.4668-60.32129,134.4668-134.46582S241.27881,31.69922,167.13379,31.69922z
			 M167.13379,296.83984c-72.0542,0-130.67432-58.62109-130.67432-130.6748s58.62012-130.6748,130.67432-130.6748
			c72.05469,0,130.6748,58.62109,130.6748,130.6748S239.18848,296.83984,167.13379,296.83984z"/>
		<path fill="#646464" d="M167.13379,24.11621c-78.31689,0-142.03271,63.72266-142.03271,142.04883
			s63.71582,142.04883,142.03271,142.04883c78.32617,0,142.0498-63.72266,142.0498-142.04883S245.45996,24.11621,167.13379,24.11621
			z M167.13379,304.42285c-76.22656,0-138.24072-62.02246-138.24072-138.25781S90.90723,27.90723,167.13379,27.90723
			c76.23584,0,138.25781,62.02246,138.25781,138.25781S243.36963,304.42285,167.13379,304.42285z"/>
		<path fill="#646464" d="M167.15088,16.5498c-82.49854,0-149.61621,67.11719-149.61621,149.61523
			s67.11768,149.61523,149.61621,149.61523s149.61621-67.11719,149.61621-149.61523S249.64941,16.5498,167.15088,16.5498z
			 M167.15088,311.98926c-80.40771,0-145.82422-65.41699-145.82422-145.82422S86.74316,20.34082,167.15088,20.34082
			S312.9751,85.75781,312.9751,166.16504S247.55859,311.98926,167.15088,311.98926z"/>
		<path fill="#646464" d="M167.15088,8.9668c-86.67041,0-157.18262,70.51855-157.18262,157.19824
			s70.51221,157.19922,157.18262,157.19922c86.67969,0,157.19922-70.51953,157.19922-157.19922S253.83057,8.9668,167.15088,8.9668z
			 M167.15088,319.57324c-84.58008,0-153.39062-68.81836-153.39062-153.4082c0-84.58887,68.81055-153.40723,153.39062-153.40723
			c84.58936,0,153.40723,68.81836,153.40723,153.40723C320.55811,250.75488,251.74023,319.57324,167.15088,319.57324z"/>
		<path fill="#646464" d="M167.16748,1.40039c-90.85205,0-164.76562,73.91309-164.76562,164.76465
			c0,90.85254,73.91357,164.76562,164.76562,164.76562s164.76562-73.91309,164.76562-164.76562
			C331.93311,75.31348,258.01953,1.40039,167.16748,1.40039z M167.16748,327.13965
			c-88.76123,0-160.97363-72.21289-160.97363-160.97461c0-88.76074,72.2124-160.97363,160.97363-160.97363
			S328.14111,77.4043,328.14111,166.16504C328.14111,254.92676,255.92871,327.13965,167.16748,327.13965z"/>
		<path fill="#646464" d="M334,143.30566V123.5C318.72119,63.72705,272.11157,16.36548,212.77637,0h-17.45801
			C267.42346,12.25049,324.07678,70.44482,334,143.30566z"/>
		<path fill="#646464" d="M334,208.83008v-19.80566C323.49731,266.14062,260.64624,326.82788,182.53369,334h23.71948
			C268.6814,319.40283,318.16528,270.77783,334,208.83008z"/>
		<path fill="#646464" d="M0,188.91406v19.85425C15.81616,270.74561,65.30695,319.39795,127.74957,334h23.71722
			C73.32446,326.82446,10.45667,266.08276,0,188.91406z"/>
		<path fill="#646464" d="M138.68329,0h-17.45618C61.87738,16.37109,15.26111,63.75977,0,123.56177v19.85425
			C9.87994,70.50342,66.54871,12.25659,138.68329,0z"/>
		<path fill="#646464" d="M334,110.13574V99.20508C315.98474,54.44067,280.47278,18.5354,235.97412,0h-10.57861
			C276.40527,17.97412,316.72998,58.80151,334,110.13574z"/>
		<path fill="#646464" d="M334,233.12573v-10.93091C316.17322,275.18408,273.78308,316.98145,220.43115,334h11.38892
			C278.25916,316.00781,315.42761,279.27466,334,233.12573z"/>
		<path fill="#646464" d="M0,222.14282v10.94067C18.56836,279.25244,55.74902,316.0022,102.20648,334h11.38959
			C60.2218,316.97583,17.81818,275.15674,0,222.14282z"/>
		<path fill="#646464" d="M108.63123,0H98.05194C53.53534,18.54102,18.01154,54.46313,0,99.24707v10.94067
			C17.2619,58.8291,57.59961,17.97998,108.63123,0z"/>
		<path fill="#646464" d="M88.72839,0h-8.49353C45.84698,18.03247,17.70599,46.41846,0,81.00171v8.69702
			C18.0752,50.37573,49.63739,18.49219,88.72839,0z"/>
		<path fill="#646464" d="M334,89.62793v-8.69165C316.29199,46.38257,288.16382,18.021,253.79749,0h-8.49329
			C284.37183,18.48096,315.91943,50.33765,334,89.62793z"/>
		<path fill="#646464" d="M0,242.63135v8.69702C18.26294,286.99927,47.62738,316.07715,83.49829,334h8.85583
			C51.5899,315.79443,18.63098,283.16357,0,242.63135z"/>
		<path fill="#646464" d="M334,251.3938v-8.69165C315.36304,283.20117,282.41919,315.80518,241.67847,334h8.85547
			C286.3833,316.08813,315.73462,287.03491,334,251.3938z"/>
		<path fill="#646464" d="M334,266.92798v-7.54614C316.41479,290.75586,290.25171,316.69824,258.69995,334h7.62927
			C294.02026,317.55469,317.32056,294.46313,334,266.92798z"/>
		<path fill="#646464" d="M72.37622,0h-7.41315C38.45355,16.34082,16.12708,38.83765,0,65.48975v7.55127
			C17.03076,42.61963,42.1236,17.2981,72.37622,0z"/>
		<path fill="#646464" d="M0,259.28979v7.55078C16.68445,294.41406,40.0058,317.53735,67.72833,334h7.63
			C43.77289,316.68115,17.58722,290.70508,0,259.28979z"/>
		<path fill="#646464" d="M334,72.94873v-7.54639C317.87842,38.78809,295.57275,16.323,269.09424,0h-7.41235
			C291.90137,17.28052,316.97168,42.5686,334,72.94873z"/>
		<path fill="#646464" d="M0,273.95312v6.81641C14.3855,301.67065,32.57928,319.75586,53.58435,334h6.90594
			C36.27185,318.57153,15.60309,298.04932,0,273.95312z"/>
		<path fill="#646464" d="M334,58.27612v-6.81128C320.17908,31.40869,302.84497,13.95605,282.88916,0h-6.74939
			C299.21924,15.20557,318.95947,35.07959,334,58.27612z"/>
		<path fill="#646464" d="M334,280.86523v-6.81128C318.40454,298.10645,297.76062,318.59302,273.57617,334h6.90588
			C301.45496,319.77783,319.62488,301.72559,334,280.86523z"/>
		<path fill="#646464" d="M57.92664,0h-6.74933C31.1897,13.97827,13.83173,31.46387,0,51.56055v6.81641
			C15.04871,35.13696,34.81366,15.22754,57.92664,0z"/>
		<path fill="#646464" d="M44.71515,0h-6.27979C24.01599,11.18457,11.08948,24.20117,0,38.69678v6.33789
			C12.51001,27.83252,27.60468,12.62891,44.71515,0z"/>
		<path fill="#646464" d="M334,44.91602v-6.33228C322.93079,24.1333,310.03516,11.15552,295.65442,0H289.375
			C306.44482,12.59961,321.50793,27.7627,334,44.91602z"/>
		<path fill="#646464" d="M334,293.74634v-6.33228C320.95203,305.33081,305.10107,321.0791,287.08691,334h6.39062
			C308.73608,322.47729,322.37463,308.92285,334,293.74634z"/>
		<path fill="#646464" d="M0,287.29541v6.33789C11.64514,308.85547,25.3147,322.44873,40.61237,334h6.39099
			C28.94788,321.05054,13.06537,305.26123,0,287.29541z"/>
		<path fill="#646464" d="M334,305.86621v-5.97827C323.87463,312.50391,312.35828,323.95605,299.6748,334h6.03003
			C315.97144,325.50342,325.44043,316.07837,334,305.86621z"/>
		<path fill="#646464" d="M32.35254,0h-5.93182C16.875,8.09131,8.03229,16.98511,0,26.58203v5.98413
			C9.59448,20.59351,20.44452,9.67139,32.35254,0z"/>
		<path fill="#646464" d="M334,32.44214v-5.97827C325.99414,16.91235,317.18555,8.05786,307.67908,0h-5.93176
			C313.61414,9.63794,324.42993,20.51831,334,32.44214z"/>
		<path fill="#646464" d="M0,299.76392v5.98413C8.58551,316.0061,18.08862,325.4707,28.3949,334h6.03009
			C21.69995,323.9231,10.14929,312.42871,0,299.76392z"/>
		<path fill="#646464" d="M0,311.57764v5.70898C5.30658,323.14771,10.92188,328.7229,16.81006,334h5.72754
			C14.50281,327.07104,6.97021,319.57593,0,311.57764z"/>
		<path fill="#646464" d="M334,317.41333v-5.70874c-6.93958,7.9502-14.43408,15.40332-22.42676,22.29541h5.72791
			C323.14771,328.7605,328.72656,323.22876,334,317.41333z"/>
		<path fill="#646464" d="M20.63702,0h-5.67694C9.74316,4.77979,4.74896,9.79834,0,15.04346v5.70898
			C6.41608,13.39014,13.3147,6.46045,20.63702,0z"/>
		<path fill="#646464" d="M334,20.62549v-5.70874C329.28467,9.7168,324.3269,4.74146,319.15125,0h-5.67712
			C320.75464,6.42334,327.61511,13.31055,334,20.62549z"/>
		<path fill="#646464" d="M334,328.45825v-5.48047c-3.57043,3.79858-7.26978,7.47339-11.08899,11.02222h5.52551
			C330.32324,332.1853,332.17505,330.33496,334,328.45825z"/>
		<path fill="#646464" d="M9.42877,0H3.98663C2.64172,1.32031,1.31281,2.65625,0,4.0083v5.4873
			C3.05298,6.24219,6.19281,3.07153,9.42877,0z"/>
		<path fill="#646464" d="M0,322.83447v5.4873c1.8678,1.92383,3.76416,3.81934,5.69678,5.67822h5.52557
			C7.35541,330.40674,3.61194,326.68359,0,322.83447z"/>
		<path fill="#646464" d="M334,9.35229V3.87183C332.73047,2.56641,331.44629,1.27563,330.14673,0h-5.44214
			C327.89319,3.02661,330.98901,6.14893,334,9.35229z"/>
		<path fill="#646464" d="M334,333.86426c-0.0459,0.04565-0.09302,0.09009-0.13904,0.13574H334V333.86426z"/>
		<path fill="#646464" d="M0,334h0.28436C0.19043,333.90674,0.09381,333.81592,0,333.72217V334z"/>
	</g>
</g>
<g id="Layer_3" display="none">
</g>
<g id="Layer_2" display="none">
</g>
</svg>
