<?xml version="1.0" encoding="utf-8"?>
<!-- Generator: Adobe Illustrator 21.1.0, SVG Export Plug-In . SVG Version: 6.00 Build 0)  -->
<svg version="1.2" baseProfile="tiny" xmlns="http://www.w3.org/2000/svg" xmlns:xlink="http://www.w3.org/1999/xlink" x="0px"
	 y="0px" viewBox="0 0 334 334" xml:space="preserve">
<g id="Layer_1">
	<g>
		<path fill="#ADADAD" d="M0,315.22778v7.25122c3.70587,3.97583,7.55157,7.81836,11.53027,11.521h7.2608
			C12.16266,328.1189,5.88763,321.8501,0,315.22778z"/>
		<path fill="#ADADAD" d="M120.43658,0h-15.98297C56.7182,17.69092,18.5415,55.23267,0,102.55151v14.9895
			C17.15332,60.53857,62.8642,15.79272,120.43658,0z"/>
		<path fill="#ADADAD" d="M0,329.5686V334h4.43445C2.93652,332.54272,1.45844,331.06543,0,329.5686z"/>
		<path fill="#ADADAD" d="M91.53235,0H80.26532C46.12988,17.61377,18.0459,45.36328,0,79.24023v10.92188
			C18.64746,50.21729,51.26184,18.05396,91.53235,0z"/>
		<path fill="#ADADAD" d="M0,300.05518v7.70386C7.99872,317.23071,16.78809,326.01123,26.26831,334h7.71246
			C21.42212,323.99512,10.01868,312.60229,0,300.05518z"/>
		<path fill="#ADADAD" d="M0,217.46094v14.98999C18.19916,278.89624,55.31622,315.91943,101.82037,334h15.10852
			C61.01135,317.37866,16.80347,273.30078,0,217.46094z"/>
		<circle fill="#ADADAD" cx="166.33154" cy="167.50122" r="2.44702"/>
		<path fill="#ADADAD" d="M0,265.73877v9.27637C15.29706,298.59766,35.46619,318.73877,59.07526,334h9.28485
			C40.23065,317.38159,16.65912,293.84277,0,265.73877z"/>
		<path fill="#ADADAD" d="M0,283.75708v8.32446C11.92523,307.9646,26.06647,322.09326,41.96417,334h8.35474
			C30.75397,320.32642,13.70148,303.30029,0,283.75708z"/>
		<path fill="#ADADAD" d="M0,244.84009v10.92188C17.70953,289.00757,45.0907,316.34497,78.36749,334h10.98077
			C50.08411,315.77246,18.30872,284.05908,0,244.84009z"/>
		<path fill="#ADADAD" d="M70.05408,0h-9.40436C36.36346,15.3772,15.63556,35.88281,0,59.9873v9.27612
			C16.99371,40.59497,41.17401,16.66748,70.05408,0z"/>
		<path fill="#ADADAD" d="M334,53.14429v-8.45117C321.47003,27.63379,306.4057,12.55029,289.36224,0h-8.43994
			C301.72748,14.27588,319.75055,32.31982,334,53.14429z"/>
		<path fill="#ADADAD" d="M334,36.58325v-7.79834C325.32782,18.32202,315.69592,8.68311,305.24237,0h-7.77991
			C311.06738,10.67285,323.34253,22.96582,334,36.58325z"/>
		<path fill="#ADADAD" d="M334,71.50366v-9.45142C318.2204,37.05396,297.01178,15.81421,272.0376,0h-9.41992
			C292.25165,17.10107,316.94867,41.83765,334,71.50366z"/>
		<path fill="#ADADAD" d="M334,6.75635V0h-6.75281C329.54333,2.20654,331.79553,4.45825,334,6.75635z"/>
		<path fill="#ADADAD" d="M334,21.24341v-7.33276C329.56812,9.0769,324.92981,4.43652,320.10052,0h-7.32477
			C320.31555,6.59961,327.40802,13.69678,334,21.24341z"/>
		<path fill="#ADADAD" d="M19.92053,0h-7.31329C8.24347,4.00903,4.04034,8.18921,0,12.52368v7.25098
			C6.22211,12.77588,12.87341,6.16821,19.92053,0z"/>
		<path fill="#ADADAD" d="M166.33154,155.2666c-6.7373,0-12.21826,5.48828-12.21826,12.23438
			c0,6.74707,5.48096,12.23535,12.21826,12.23535c6.74658,0,12.23535-5.48828,12.23535-12.23535
			C178.56689,160.75488,173.07812,155.2666,166.33154,155.2666z M166.33154,174.84277c-4.04785,0-7.34082-3.29395-7.34082-7.3418
			s3.29297-7.34082,7.34082-7.34082s7.34082,3.29297,7.34082,7.34082S170.37939,174.84277,166.33154,174.84277z"/>
		<path fill="#ADADAD" d="M51.76459,0h-8.43018C26.88147,12.11548,12.26495,26.58545,0,42.9209v8.32471
			C14.03809,31.22217,31.59314,13.83984,51.76459,0z"/>
		<path fill="#ADADAD" d="M334,122.22339v-16.16162C315.99884,57.09131,277.11993,18.12622,228.20947,0h-15.98291
			C271.36646,16.22266,317.98993,62.99683,334,122.22339z"/>
		<path fill="#ADADAD" d="M334,93.08472V81.74219C316.01746,46.72705,287.38275,18.04663,252.40546,0h-11.27472
			C282.37946,18.49268,315.59882,51.78662,334,93.08472z"/>
		<path fill="#ADADAD" d="M5.46094,0H0v5.43384C1.79224,3.59448,3.60919,1.77954,5.46094,0z"/>
		<path fill="#ADADAD" d="M166.36475,67.20996c-55.29199,0-100.27588,44.99023-100.27588,100.29102
			c0,55.30176,44.98389,100.29297,100.27588,100.29297c55.30127,0,100.29248-44.99121,100.29248-100.29297
			C266.65723,112.2002,221.66602,67.20996,166.36475,67.20996z M166.36475,262.90039
			c-52.60254,0-95.39795-42.7959-95.39795-95.39941c0-52.60254,42.79541-95.39844,95.39795-95.39844
			c52.60303,0,95.39844,42.7959,95.39844,95.39844C261.76318,220.10449,218.96777,262.90039,166.36475,262.90039z"/>
		<path fill="#ADADAD" d="M334,228.94092v-16.16235C318.30786,270.82935,273.20581,316.91675,215.73425,334h15.10846
			C278.51306,315.46606,316.3233,277.02905,334,228.94092z"/>
		<path fill="#ADADAD" d="M334,186.7644v-38.52686C325.18579,71.02246,264.06482,9.46899,187.04742,0h-41.4317
			C71.74384,9.08228,12.49445,66.0813,0,138.8584v57.28516C12.10156,266.63257,68.06586,322.31543,138.69421,334h55.27484
			C267.70239,321.80176,325.4516,261.65088,334,186.7644z M166.39795,331.38184c-90.37305,0-163.89648-73.5166-163.89648-163.88086
			c0-90.36328,73.52344-163.87988,163.89648-163.87988c90.36377,0,163.87988,73.5166,163.87988,163.87988
			C330.27783,257.86523,256.76172,331.38184,166.39795,331.38184z"/>
		<path fill="#ADADAD" d="M166.38135,28.07422c-76.87109,0-139.41064,62.54688-139.41064,139.42676
			c0,76.88086,62.53955,139.42773,139.41064,139.42773c76.88037,0,139.42725-62.54688,139.42725-139.42773
			C305.80859,90.62109,243.26172,28.07422,166.38135,28.07422z M166.38135,302.03516
			c-74.18164,0-134.53271-60.35156-134.53271-134.53418c0-74.18164,60.35107-134.5332,134.53271-134.5332
			c74.18213,0,134.5332,60.35156,134.5332,134.5332C300.91455,241.68359,240.56348,302.03516,166.38135,302.03516z"/>
		<path fill="#ADADAD" d="M166.39795,18.30371c-82.27734,0-149.21484,66.92969-149.21484,149.19727
			c0,82.26855,66.9375,149.19824,149.21484,149.19824c82.26855,0,149.19873-66.92969,149.19873-149.19824
			C315.59668,85.2334,248.6665,18.30371,166.39795,18.30371z M166.38135,311.82324
			c-79.56982,0-144.3042-64.74316-144.3042-144.32227S86.81152,23.17969,166.38135,23.17969
			c79.5791,0,144.3208,64.74219,144.3208,144.32129S245.96045,311.82324,166.38135,311.82324z"/>
		<path fill="#ADADAD" d="M334,253.26001v-11.34277C315.92517,282.4834,283.55035,315.32153,243.31482,334h10.98865
			C288.41644,315.90283,316.34454,287.63843,334,253.26001z"/>
		<path fill="#ADADAD" d="M166.39795,8.51562c-87.67432,0-159.00293,71.32031-159.00293,158.98535
			S78.72363,326.4873,166.39795,326.4873c87.66504,0,158.98633-71.32129,158.98633-158.98633S254.06299,8.51562,166.39795,8.51562z
			 M166.39795,321.59375c-84.97559,0-154.1084-69.12598-154.1084-154.09277s69.13281-154.0918,154.1084-154.0918
			c84.9668,0,154.09229,69.125,154.09229,154.0918S251.36475,321.59375,166.39795,321.59375z"/>
		<path fill="#ADADAD" d="M334,321.09229v-7.33325c-6.26074,7.16748-12.97668,13.92554-20.09479,20.24097h7.2724
			C325.61908,329.86719,329.89966,325.56421,334,321.09229z"/>
		<path fill="#ADADAD" d="M334,328.24585c-1.87335,1.95312-3.78644,3.86719-5.72626,5.75415H334V328.24585z"/>
		<path fill="#ADADAD" d="M334,272.9502v-9.45166C317.27588,292.59546,293.19031,316.94043,264.31183,334h9.30017
			C297.90472,318.29565,318.55255,297.42212,334,272.9502z"/>
		<path fill="#ADADAD" d="M334,290.30908v-8.45068c-13.91821,20.34033-31.43744,38.02686-51.63214,52.1416h8.36462
			C307.21704,321.65356,321.80505,306.91235,334,290.30908z"/>
		<path fill="#ADADAD" d="M334,306.21777v-7.79883c-10.32764,13.19629-22.18024,25.1416-35.28424,35.58105h7.71222
			C316.42279,325.57764,325.6582,316.28223,334,306.21777z"/>
		<path fill="#ADADAD" d="M166.36475,96.57324c-39.11914,0-70.94531,31.81836-70.94531,70.92773
			c0,39.11035,31.82617,70.92871,70.94531,70.92871c39.11035,0,70.9292-31.81836,70.9292-70.92871
			C237.29395,128.3916,205.4751,96.57324,166.36475,96.57324z M166.34814,233.55371
			c-36.41162,0-66.03467-29.63086-66.03467-66.05273c0-36.41992,29.62305-66.05078,66.03467-66.05078
			c36.4209,0,66.05127,29.63086,66.05127,66.05078C232.39941,203.92285,202.76904,233.55371,166.34814,233.55371z"/>
		<path fill="#ADADAD" d="M166.34814,145.49609c-12.14355,0-22.02295,9.87109-22.02295,22.00488s9.87939,22.00586,22.02295,22.00586
			c12.13428,0,22.00635-9.87207,22.00635-22.00586S178.48242,145.49609,166.34814,145.49609z M166.33154,184.63086
			c-9.43555,0-17.11182-7.68457-17.11182-17.12988c0-9.44434,7.67627-17.12891,17.11182-17.12891
			c9.44482,0,17.12891,7.68457,17.12891,17.12891C183.46045,176.94629,175.77637,184.63086,166.33154,184.63086z"/>
		<path fill="#ADADAD" d="M166.38135,37.8623c-71.4834,0-129.63916,58.15527-129.63916,129.63867
			s58.15576,129.63965,129.63916,129.63965S296.021,238.98438,296.021,167.50098S237.86475,37.8623,166.38135,37.8623z
			 M166.38135,292.24707c-68.78467,0-124.74512-55.96094-124.74512-124.74609c0-68.78418,55.96045-124.74512,124.74512-124.74512
			S291.12646,98.7168,291.12646,167.50098C291.12646,236.28613,235.16602,292.24707,166.38135,292.24707z"/>
		<path fill="#ADADAD" d="M166.34814,106.34473c-33.71338,0-61.14111,27.43457-61.14111,61.15625
			c0,33.72266,27.42773,61.1582,61.14111,61.1582c33.72217,0,61.15771-27.43555,61.15771-61.1582
			C227.50586,133.7793,200.07031,106.34473,166.34814,106.34473z M166.34814,223.76562
			c-31.02393,0-56.26318-25.24023-56.26318-56.26465c0-31.02344,25.23926-56.26367,56.26318-56.26367
			s56.26367,25.24023,56.26367,56.26367C222.61182,198.52539,197.37207,223.76562,166.34814,223.76562z"/>
		<path fill="#ADADAD" d="M166.34814,125.91992c-22.92822,0-41.58203,18.65332-41.58203,41.58105
			c0,22.92871,18.65381,41.58203,41.58203,41.58203s41.58203-18.65332,41.58203-41.58203
			C207.93018,144.57324,189.27637,125.91992,166.34814,125.91992z M166.34814,204.18945
			c-20.22949,0-36.6875-16.45898-36.6875-36.68848s16.45801-36.6875,36.6875-36.6875c20.22998,0,36.68799,16.45801,36.68799,36.6875
			S186.57812,204.18945,166.34814,204.18945z"/>
		<path fill="#ADADAD" d="M166.34814,135.70801c-17.53125,0-31.79395,14.26172-31.79395,31.79297
			s14.2627,31.79395,31.79395,31.79395s31.79443-14.2627,31.79443-31.79395S183.87939,135.70801,166.34814,135.70801z
			 M166.34814,194.40137c-14.8418,0-26.9165-12.06738-26.9165-26.90039c0-14.83203,12.07471-26.89941,26.9165-26.89941
			c14.83252,0,26.8999,12.06738,26.8999,26.89941C193.24805,182.33398,181.18066,194.40137,166.34814,194.40137z"/>
		<path fill="#ADADAD" d="M166.34814,116.13184c-28.3252,0-51.36963,23.04395-51.36963,51.36914
			c0,28.32617,23.04443,51.37012,51.36963,51.37012c28.32568,0,51.37012-23.04395,51.37012-51.37012
			C217.71826,139.17578,194.67383,116.13184,166.34814,116.13184z M166.34814,213.97754
			c-25.62695,0-46.47559-20.84961-46.47559-46.47656s20.84863-46.47559,46.47559-46.47559s46.47559,20.84863,46.47559,46.47559
			S191.9751,213.97754,166.34814,213.97754z"/>
		<path fill="#ADADAD" d="M166.36475,86.78516c-44.50732,0-80.7168,36.20898-80.7168,80.71582
			c0,44.50781,36.20947,80.7168,80.7168,80.7168s80.7168-36.20898,80.7168-80.7168
			C247.08154,122.99414,210.87207,86.78516,166.36475,86.78516z M166.36475,243.32422
			c-41.81787,0-75.83887-34.01465-75.83887-75.82324s34.021-75.82227,75.83887-75.82227
			c41.80908,0,75.82275,34.01367,75.82275,75.82227S208.17383,243.32422,166.36475,243.32422z"/>
		<path fill="#ADADAD" d="M166.38135,57.43848c-60.69824,0-110.08008,49.37402-110.08008,110.0625
			c0,60.68945,49.38184,110.06348,110.08008,110.06348c60.68945,0,110.06396-49.37402,110.06396-110.06348
			C276.44531,106.8125,227.0708,57.43848,166.38135,57.43848z M166.36475,272.68848
			c-57.99072,0-105.16943-47.1875-105.16943-105.1875c0-57.99902,47.17871-105.18555,105.16943-105.18555
			c58,0,105.18604,47.18652,105.18604,105.18555C271.55078,225.50098,224.36475,272.68848,166.36475,272.68848z"/>
		<path fill="#ADADAD" d="M166.38135,47.65039c-66.08643,0-119.85156,53.76465-119.85156,119.85059
			c0,66.08691,53.76514,119.85156,119.85156,119.85156s119.85156-53.76465,119.85156-119.85156
			C286.23291,101.41504,232.46777,47.65039,166.38135,47.65039z M166.38135,282.45898
			c-63.39697,0-114.97363-51.57031-114.97363-114.95801S102.98438,52.54395,166.38135,52.54395
			c63.3877,0,114.95752,51.56934,114.95752,114.95703S229.76904,282.45898,166.38135,282.45898z"/>
		<path fill="#ADADAD" d="M166.36475,76.99707c-49.9043,0-90.50439,40.59961-90.50439,90.50391s40.6001,90.50488,90.50439,90.50488
			s90.50488-40.60059,90.50488-90.50488S216.26904,76.99707,166.36475,76.99707z M166.36475,253.1123
			c-47.20605,0-85.61035-38.40527-85.61035-85.61133c0-47.20508,38.4043-85.61035,85.61035-85.61035
			s85.61035,38.40527,85.61035,85.61035C251.9751,214.70703,213.5708,253.1123,166.36475,253.1123z"/>
		<path fill="#ADADAD" d="M35.23401,0h-7.78009C17.51807,8.25317,8.3327,17.37646,0,27.24365v7.70361
			C10.35248,21.98193,22.17786,10.24243,35.23401,0z"/>
		<path fill="#525252" d="M166.33154,160.16016c-4.04785,0-7.34082,3.29297-7.34082,7.34082s3.29297,7.3418,7.34082,7.3418
			s7.34082-3.29395,7.34082-7.3418S170.37939,160.16016,166.33154,160.16016z M166.33154,169.94824
			c-1.34912,0-2.44727-1.09766-2.44727-2.44727c0-1.34863,1.09814-2.44629,2.44727-2.44629s2.44727,1.09766,2.44727,2.44629
			C168.77881,168.85059,167.68066,169.94824,166.33154,169.94824z"/>
		<path fill="#525252" d="M166.33154,150.37207c-9.43555,0-17.11182,7.68457-17.11182,17.12891
			c0,9.44531,7.67627,17.12988,17.11182,17.12988c9.44482,0,17.12891-7.68457,17.12891-17.12988
			C183.46045,158.05664,175.77637,150.37207,166.33154,150.37207z M166.33154,179.73633
			c-6.7373,0-12.21826-5.48828-12.21826-12.23535c0-6.74609,5.48096-12.23438,12.21826-12.23438
			c6.74658,0,12.23535,5.48828,12.23535,12.23438C178.56689,174.24805,173.07812,179.73633,166.33154,179.73633z"/>
		<path fill="#525252" d="M166.34814,140.60156c-14.8418,0-26.9165,12.06738-26.9165,26.89941
			c0,14.83301,12.07471,26.90039,26.9165,26.90039c14.83252,0,26.8999-12.06738,26.8999-26.90039
			C193.24805,152.66895,181.18066,140.60156,166.34814,140.60156z M166.34814,189.50684
			c-12.14355,0-22.02295-9.87207-22.02295-22.00586s9.87939-22.00488,22.02295-22.00488
			c12.13428,0,22.00635,9.87109,22.00635,22.00488S178.48242,189.50684,166.34814,189.50684z"/>
		<path fill="#525252" d="M166.34814,130.81348c-20.22949,0-36.6875,16.45801-36.6875,36.6875s16.45801,36.68848,36.6875,36.68848
			c20.22998,0,36.68799-16.45898,36.68799-36.68848S186.57812,130.81348,166.34814,130.81348z M166.34814,199.29492
			c-17.53125,0-31.79395-14.2627-31.79395-31.79395s14.2627-31.79297,31.79395-31.79297s31.79443,14.26172,31.79443,31.79297
			S183.87939,199.29492,166.34814,199.29492z"/>
		<path fill="#525252" d="M166.34814,121.02539c-25.62695,0-46.47559,20.84863-46.47559,46.47559
			s20.84863,46.47656,46.47559,46.47656s46.47559-20.84961,46.47559-46.47656S191.9751,121.02539,166.34814,121.02539z
			 M166.34814,209.08301c-22.92822,0-41.58203-18.65332-41.58203-41.58203c0-22.92773,18.65381-41.58105,41.58203-41.58105
			s41.58203,18.65332,41.58203,41.58105C207.93018,190.42969,189.27637,209.08301,166.34814,209.08301z"/>
		<path fill="#525252" d="M166.34814,111.2373c-31.02393,0-56.26318,25.24023-56.26318,56.26367
			c0,31.02441,25.23926,56.26465,56.26318,56.26465s56.26367-25.24023,56.26367-56.26465
			C222.61182,136.47754,197.37207,111.2373,166.34814,111.2373z M166.34814,218.87109
			c-28.3252,0-51.36963-23.04395-51.36963-51.37012c0-28.3252,23.04443-51.36914,51.36963-51.36914
			c28.32568,0,51.37012,23.04395,51.37012,51.36914C217.71826,195.82715,194.67383,218.87109,166.34814,218.87109z"/>
		<path fill="#525252" d="M166.34814,101.4502c-36.41162,0-66.03467,29.63086-66.03467,66.05078
			c0,36.42188,29.62305,66.05273,66.03467,66.05273c36.4209,0,66.05127-29.63086,66.05127-66.05273
			C232.39941,131.08105,202.76904,101.4502,166.34814,101.4502z M166.34814,228.65918
			c-33.71338,0-61.14111-27.43555-61.14111-61.1582c0-33.72168,27.42773-61.15625,61.14111-61.15625
			c33.72217,0,61.15771,27.43457,61.15771,61.15625C227.50586,201.22363,200.07031,228.65918,166.34814,228.65918z"/>
		<path fill="#525252" d="M166.36475,91.67871c-41.81787,0-75.83887,34.01367-75.83887,75.82227s34.021,75.82324,75.83887,75.82324
			c41.80908,0,75.82275-34.01465,75.82275-75.82324S208.17383,91.67871,166.36475,91.67871z M166.36475,238.42969
			c-39.11914,0-70.94531-31.81836-70.94531-70.92871c0-39.10938,31.82617-70.92773,70.94531-70.92773
			c39.11035,0,70.9292,31.81836,70.9292,70.92773C237.29395,206.61133,205.4751,238.42969,166.36475,238.42969z"/>
		<path fill="#525252" d="M166.36475,81.89062c-47.20605,0-85.61035,38.40527-85.61035,85.61035
			c0,47.20605,38.4043,85.61133,85.61035,85.61133s85.61035-38.40527,85.61035-85.61133
			C251.9751,120.2959,213.5708,81.89062,166.36475,81.89062z M166.36475,248.21777c-44.50732,0-80.7168-36.20898-80.7168-80.7168
			c0-44.50684,36.20947-80.71582,80.7168-80.71582s80.7168,36.20898,80.7168,80.71582
			C247.08154,212.00879,210.87207,248.21777,166.36475,248.21777z"/>
		<path fill="#525252" d="M166.36475,72.10254c-52.60254,0-95.39795,42.7959-95.39795,95.39844
			c0,52.60352,42.79541,95.39941,95.39795,95.39941c52.60303,0,95.39844-42.7959,95.39844-95.39941
			C261.76318,114.89844,218.96777,72.10254,166.36475,72.10254z M166.36475,258.00586
			c-49.9043,0-90.50439-40.60059-90.50439-90.50488s40.6001-90.50391,90.50439-90.50391s90.50488,40.59961,90.50488,90.50391
			S216.26904,258.00586,166.36475,258.00586z"/>
		<path fill="#525252" d="M166.36475,62.31543c-57.99072,0-105.16943,47.18652-105.16943,105.18555
			c0,58,47.17871,105.1875,105.16943,105.1875c58,0,105.18604-47.1875,105.18604-105.1875
			C271.55078,109.50195,224.36475,62.31543,166.36475,62.31543z M166.36475,267.79395
			c-55.29199,0-100.27588-44.99121-100.27588-100.29297c0-55.30078,44.98389-100.29102,100.27588-100.29102
			c55.30127,0,100.29248,44.99023,100.29248,100.29102C266.65723,222.80273,221.66602,267.79395,166.36475,267.79395z"/>
		<path fill="#525252" d="M166.38135,52.54395c-63.39697,0-114.97363,51.56934-114.97363,114.95703
			s51.57666,114.95801,114.97363,114.95801c63.3877,0,114.95752-51.57031,114.95752-114.95801
			S229.76904,52.54395,166.38135,52.54395z M166.38135,277.56445c-60.69824,0-110.08008-49.37402-110.08008-110.06348
			c0-60.68848,49.38184-110.0625,110.08008-110.0625c60.68945,0,110.06396,49.37402,110.06396,110.0625
			C276.44531,228.19043,227.0708,277.56445,166.38135,277.56445z"/>
		<path fill="#525252" d="M166.38135,42.75586c-68.78467,0-124.74512,55.96094-124.74512,124.74512
			c0,68.78516,55.96045,124.74609,124.74512,124.74609s124.74512-55.96094,124.74512-124.74609
			C291.12646,98.7168,235.16602,42.75586,166.38135,42.75586z M166.38135,287.35254
			c-66.08643,0-119.85156-53.76465-119.85156-119.85156c0-66.08594,53.76514-119.85059,119.85156-119.85059
			s119.85156,53.76465,119.85156,119.85059C286.23291,233.58789,232.46777,287.35254,166.38135,287.35254z"/>
		<path fill="#525252" d="M166.38135,32.96777c-74.18164,0-134.53271,60.35156-134.53271,134.5332
			c0,74.18262,60.35107,134.53418,134.53271,134.53418c74.18213,0,134.5332-60.35156,134.5332-134.53418
			C300.91455,93.31934,240.56348,32.96777,166.38135,32.96777z M166.38135,297.14062
			c-71.4834,0-129.63916-58.15625-129.63916-129.63965S94.89795,37.8623,166.38135,37.8623S296.021,96.01758,296.021,167.50098
			S237.86475,297.14062,166.38135,297.14062z"/>
		<path fill="#525252" d="M166.38135,23.17969c-79.56982,0-144.3042,64.74219-144.3042,144.32129
			s64.73438,144.32227,144.3042,144.32227c79.5791,0,144.3208-64.74316,144.3208-144.32227S245.96045,23.17969,166.38135,23.17969z
			 M166.38135,306.92871c-76.87109,0-139.41064-62.54688-139.41064-139.42773c0-76.87988,62.53955-139.42676,139.41064-139.42676
			c76.88037,0,139.42725,62.54688,139.42725,139.42676C305.80859,244.38184,243.26172,306.92871,166.38135,306.92871z"/>
		<path fill="#525252" d="M166.39795,13.40918c-84.97559,0-154.1084,69.125-154.1084,154.0918
			s69.13281,154.09277,154.1084,154.09277c84.9668,0,154.09229-69.12598,154.09229-154.09277S251.36475,13.40918,166.39795,13.40918
			z M166.39795,316.69922c-82.27734,0-149.21484-66.92969-149.21484-149.19824c0-82.26758,66.9375-149.19727,149.21484-149.19727
			c82.26855,0,149.19873,66.92969,149.19873,149.19727C315.59668,249.76953,248.6665,316.69922,166.39795,316.69922z"/>
		<path fill="#525252" d="M166.39795,3.62109c-90.37305,0-163.89648,73.5166-163.89648,163.87988
			c0,90.36426,73.52344,163.88086,163.89648,163.88086c90.36377,0,163.87988-73.5166,163.87988-163.88086
			C330.27783,77.1377,256.76172,3.62109,166.39795,3.62109z M166.39795,326.4873
			c-87.67432,0-159.00293-71.32129-159.00293-158.98633S78.72363,8.51562,166.39795,8.51562
			c87.66504,0,158.98633,71.32031,158.98633,158.98535S254.06299,326.4873,166.39795,326.4873z"/>
		<path fill="#525252" d="M145.61572,0h-25.17914C62.8642,15.79272,17.15332,60.53857,0,117.54102v21.31738
			C12.49445,66.0813,71.74384,9.08228,145.61572,0z"/>
		<path fill="#525252" d="M0,196.14355v21.31738C16.80347,273.30078,61.01135,317.37866,116.92889,334h21.76532
			C68.06586,322.31543,12.10156,266.63257,0,196.14355z"/>
		<path fill="#525252" d="M334,212.77856V186.7644C325.4516,261.65088,267.70239,321.80176,193.96906,334h21.7652
			C273.20581,316.91675,318.30786,270.82935,334,212.77856z"/>
		<path fill="#525252" d="M334,148.23755v-26.01416C317.98993,62.99683,271.36646,16.22266,212.22656,0h-25.17914
			C264.06482,9.46899,325.18579,71.02246,334,148.23755z"/>
		<path fill="#525252" d="M0,232.45093v12.38916C18.30872,284.05908,50.08411,315.77246,89.34827,334h12.47211
			C55.31622,315.91943,18.19916,278.89624,0,232.45093z"/>
		<path fill="#525252" d="M334,106.06177V93.08472C315.59882,51.78662,282.37946,18.49268,241.13074,0h-12.92126
			C277.11993,18.12622,315.99884,57.09131,334,106.06177z"/>
		<path fill="#525252" d="M104.45361,0H91.53235C51.26184,18.05396,18.64746,50.21729,0,90.16211v12.3894
			C18.5415,55.23267,56.7182,17.69092,104.45361,0z"/>
		<path fill="#525252" d="M334,241.91724v-12.97632C316.3233,277.02905,278.51306,315.46606,230.84271,334h12.47211
			C283.55035,315.32153,315.92517,282.4834,334,241.91724z"/>
		<path fill="#525252" d="M334,81.74219V71.50366C316.94867,41.83765,292.25165,17.10107,262.61768,0h-10.21222
			C287.38275,18.04663,316.01746,46.72705,334,81.74219z"/>
		<path fill="#525252" d="M334,263.49854v-10.23853C316.34454,287.63843,288.41644,315.90283,254.30347,334h10.00836
			C293.19031,316.94043,317.27588,292.59546,334,263.49854z"/>
		<path fill="#525252" d="M0,255.76196v9.97681C16.65912,293.84277,40.23065,317.38159,68.36011,334h10.00739
			C45.0907,316.34497,17.70953,289.00757,0,255.76196z"/>
		<path fill="#525252" d="M80.26532,0H70.05408C41.17401,16.66748,16.99371,40.59497,0,69.26343v9.97681
			C18.0459,45.36328,46.12988,17.61377,80.26532,0z"/>
		<path fill="#525252" d="M334,62.05225v-8.90796C319.75055,32.31982,301.72748,14.27588,280.9223,0h-8.8847
			C297.01178,15.81421,318.2204,37.05396,334,62.05225z"/>
		<path fill="#525252" d="M334,281.8584v-8.9082c-15.44745,24.47192-36.09528,45.34546-60.388,61.0498h8.75586
			C302.56256,319.88525,320.08179,302.19873,334,281.8584z"/>
		<path fill="#525252" d="M60.64972,0h-8.88513C31.59314,13.83984,14.03809,31.22217,0,51.24561v8.7417
			C15.63556,35.88281,36.36346,15.3772,60.64972,0z"/>
		<path fill="#525252" d="M0,275.01514v8.74194C13.70148,303.30029,30.75397,320.32642,50.31891,334h8.75635
			C35.46619,318.73877,15.29706,298.59766,0,275.01514z"/>
		<path fill="#525252" d="M0,292.08154v7.97363C10.01868,312.60229,21.42212,323.99512,33.98077,334h7.9834
			C26.06647,322.09326,11.92523,307.9646,0,292.08154z"/>
		<path fill="#525252" d="M334,44.69312v-8.10986C323.34253,22.96582,311.06738,10.67285,297.46246,0h-8.10022
			C306.4057,12.55029,321.47003,27.63379,334,44.69312z"/>
		<path fill="#525252" d="M334,298.41895v-8.10986C321.80505,306.91235,307.21704,321.65356,290.73248,334h7.98328
			C311.81976,323.56055,323.67236,311.61523,334,298.41895z"/>
		<path fill="#525252" d="M43.33441,0h-8.1004C22.17786,10.24243,10.35248,21.98193,0,34.94727v7.97363
			C12.26495,26.58545,26.88147,12.11548,43.33441,0z"/>
		<path fill="#525252" d="M334,28.78491v-7.5415C327.40802,13.69678,320.31555,6.59961,312.77576,0h-7.53339
			C315.69592,8.68311,325.32782,18.32202,334,28.78491z"/>
		<path fill="#525252" d="M334,313.75903v-7.54126c-8.3418,10.06445-17.57721,19.35986-27.57202,27.78223h7.47723
			C321.02332,327.68457,327.73926,320.92651,334,313.75903z"/>
		<path fill="#525252" d="M27.45392,0h-7.53339C12.87341,6.16821,6.22211,12.77588,0,19.77466v7.46899
			C8.3327,17.37646,17.51807,8.25317,27.45392,0z"/>
		<path fill="#525252" d="M0,307.75903v7.46875C5.88763,321.8501,12.16266,328.1189,18.79108,334h7.47723
			C16.78809,326.01123,7.99872,317.23071,0,307.75903z"/>
		<path fill="#525252" d="M0,322.479v7.0896c1.45844,1.49683,2.93652,2.97412,4.43445,4.4314h7.09583
			C7.55157,330.29736,3.70587,326.45483,0,322.479z"/>
		<path fill="#525252" d="M334,328.24585v-7.15356c-4.10034,4.47192-8.38092,8.7749-12.82239,12.90771h7.09613
			C330.21356,332.11304,332.12665,330.19897,334,328.24585z"/>
		<path fill="#525252" d="M334,13.91064v-7.1543c-2.20447-2.2981-4.45667-4.5498-6.75281-6.75635h-7.14667
			C324.92981,4.43652,329.56812,9.0769,334,13.91064z"/>
		<path fill="#525252" d="M12.60724,0h-7.1463C3.60919,1.77954,1.79224,3.59448,0,5.43384v7.08984
			C4.04034,8.18921,8.24347,4.00903,12.60724,0z"/>
	</g>
</g>
<g id="Layer_3" display="none">
</g>
<g id="Layer_2" display="none">
</g>
</svg>
