<?xml version="1.0" encoding="utf-8"?>
<!-- Generator: Adobe Illustrator 21.1.0, SVG Export Plug-In . SVG Version: 6.00 Build 0)  -->
<svg version="1.2" baseProfile="tiny" xmlns="http://www.w3.org/2000/svg" xmlns:xlink="http://www.w3.org/1999/xlink" x="0px"
	 y="0px" viewBox="0 0 334 334" xml:space="preserve">
<g id="Layer_1">
	<g>
		<path fill="#898989" d="M0,310.43326v23.40216h23.55029C15.12976,326.63162,7.25098,318.81229,0,310.43326z"/>
		<path fill="#898989" d="M166.33105,34.69869c-72.76758,0-131.96875,59.20117-131.96875,131.96924
			c0,72.76855,59.20117,131.96974,131.96875,131.96974c72.76855,0,131.96973-59.20119,131.96973-131.96974
			C298.30078,93.89986,239.09961,34.69869,166.33105,34.69869z M166.33105,269.3071
			c-56.60449,0-102.65527-46.04347-102.65527-102.63918c0-56.59521,46.05078-102.63866,102.65527-102.63866
			c56.5957,0,102.63965,46.04346,102.63965,102.63866C268.9707,223.26363,222.92676,269.3071,166.33105,269.3071z"/>
		<path fill="#898989" d="M309.1228,333.83542H334v-24.96857C326.38269,317.83487,318.06372,326.1871,309.1228,333.83542z"/>
		<path fill="#898989" d="M22.96033-0.00004H0v22.90308C7.0824,14.71877,14.7605,7.0646,22.96033-0.00004z"/>
		<path fill="#898989" d="M334,257.30551V76.03072c-17.32825-31.92688-43.51611-58.36945-75.23523-76.03076H73.90552
			C42.98022,17.22085,17.323,42.79623,0,73.65878v186.01868c17.48975,31.15955,43.47217,56.93396,74.797,74.15796h183.07617
			C289.99438,316.17514,316.50916,289.53207,334,257.30551z M166.33105,327.96774
			c-88.94043,0-161.29883-72.3589-161.29883-161.29982S77.39062,5.36861,166.33105,5.36861
			c88.94141,0,161.2998,72.3584,161.2998,161.29932S255.27246,327.96774,166.33105,327.96774z"/>
		<path fill="#898989" d="M166.33105,152.00288c-8.08594,0-14.66504,6.57861-14.66504,14.66504s6.5791,14.66553,14.66504,14.66553
			c8.08691,0,14.66602-6.5791,14.66602-14.66553S174.41797,152.00288,166.33105,152.00288z"/>
		<path fill="#898989" d="M334,24.46938V-0.00004h-24.28711C318.4314,7.51089,326.54944,15.69771,334,24.46938z"/>
		<path fill="#898989" d="M166.33105,93.35934c-40.43164,0-73.3252,32.88623-73.3252,73.30859
			c0,40.42285,32.89355,73.30908,73.3252,73.30908c40.42285,0,73.30957-32.88623,73.30957-73.30908
			C239.64062,126.24557,206.75391,93.35934,166.33105,93.35934z M166.33105,210.66353
			c-24.25879,0-43.99512-19.73633-43.99512-43.99561c0-24.25879,19.73633-43.99511,43.99512-43.99511
			c24.25977,0,43.99609,19.73632,43.99609,43.99511C210.32715,190.9272,190.59082,210.66353,166.33105,210.66353z"/>
		<path fill="#767676" d="M166.33105,122.67281c-24.25879,0-43.99512,19.73632-43.99512,43.99511
			c0,24.25928,19.73633,43.99561,43.99512,43.99561c24.25977,0,43.99609-19.73633,43.99609-43.99561
			C210.32715,142.40913,190.59082,122.67281,166.33105,122.67281z M166.33105,181.33345
			c-8.08594,0-14.66504-6.5791-14.66504-14.66553s6.5791-14.66504,14.66504-14.66504c8.08691,0,14.66602,6.57861,14.66602,14.66504
			S174.41797,181.33345,166.33105,181.33345z"/>
		<path fill="#767676" d="M166.33105,64.02926c-56.60449,0-102.65527,46.04346-102.65527,102.63866
			c0,56.5957,46.05078,102.63918,102.65527,102.63918c56.5957,0,102.63965-46.04347,102.63965-102.63918
			C268.9707,110.07272,222.92676,64.02926,166.33105,64.02926z M166.33105,239.97701c-40.43164,0-73.3252-32.88623-73.3252-73.30908
			c0-40.42236,32.89355-73.30859,73.3252-73.30859c40.42285,0,73.30957,32.88623,73.30957,73.30859
			C239.64062,207.09077,206.75391,239.97701,166.33105,239.97701z"/>
		<path fill="#767676" d="M166.33105,5.36861c-88.94043,0-161.29883,72.3584-161.29883,161.29932
			s72.3584,161.29982,161.29883,161.29982c88.94141,0,161.2998-72.3589,161.2998-161.29982S255.27246,5.36861,166.33105,5.36861z
			 M166.33105,298.63766c-72.76758,0-131.96875-59.20119-131.96875-131.96974c0-72.76806,59.20117-131.96924,131.96875-131.96924
			c72.76855,0,131.96973,59.20117,131.96973,131.96924C298.30078,239.43648,239.09961,298.63766,166.33105,298.63766z"/>
		<path fill="#767676" d="M0,259.67746v50.7558c7.25098,8.37903,15.12976,16.19836,23.55029,23.40216
			c0.06445,0.05518,0.12988,0.10944,0.19458,0.16455h51.34607c-0.09851-0.05396-0.19543-0.11047-0.29395-0.16455
			C43.47217,316.61142,17.48975,290.83701,0,259.67746z"/>
		<path fill="#767676" d="M334,308.86685v-51.56134c-17.49084,32.22656-44.00562,58.86963-76.12683,76.52991
			c-0.09851,0.05408-0.19543,0.1106-0.29407,0.16455h51.34924c0.06458-0.05511,0.13-0.10938,0.19446-0.16455
			C318.06372,326.1871,326.38269,317.83487,334,308.86685z"/>
		<path fill="#767676" d="M73.90552-0.00004H22.96033C14.7605,7.0646,7.0824,14.71877,0,22.90304v50.75574
			C17.323,42.79623,42.98022,17.22085,73.90552-0.00004z"/>
		<path fill="#767676" d="M334,76.03072V24.46938c-7.45056-8.77167-15.5686-16.9585-24.28711-24.46942h-50.94812
			C290.48389,17.66128,316.67175,44.10384,334,76.03072z"/>
	</g>
</g>
<g id="Layer_3" display="none">
</g>
<g id="Layer_2" display="none">
</g>
</svg>
