<?xml version="1.0" encoding="utf-8"?>
<!-- Generator: Adobe Illustrator 21.1.0, SVG Export Plug-In . SVG Version: 6.00 Build 0)  -->
<svg version="1.2" baseProfile="tiny" xmlns="http://www.w3.org/2000/svg" xmlns:xlink="http://www.w3.org/1999/xlink" x="0px"
	 y="0px" viewBox="0 0 334 334" xml:space="preserve">
<g id="Layer_1">
	<g>
		<path fill="#FFFFFF" d="M167,268.16016c56.24072,0,101.99561-45.75488,101.99561-101.99609
			c0-56.24023-45.75488-101.99512-101.99561-101.99512c-56.25,0-102.0127,45.75488-102.0127,101.99512
			C64.9873,222.40527,110.75,268.16016,167,268.16016z M167,72.31934c51.74658,0,93.84521,42.09863,93.84521,93.84473
			c0,51.74707-42.09863,93.8457-93.84521,93.8457s-93.84521-42.09863-93.84521-93.8457
			C73.15479,114.41797,115.25342,72.31934,167,72.31934z"/>
		<path fill="#FFFFFF" d="M167,219.2041c29.24609,0,53.03955-23.79395,53.03955-53.04004S196.24609,113.125,167,113.125
			c-29.24658,0-53.04004,23.79297-53.04004,53.03906S137.75342,219.2041,167,219.2041z M167,121.27539
			c24.75195,0,44.88916,20.13672,44.88916,44.88867S191.75195,211.05371,167,211.05371s-44.88916-20.1377-44.88916-44.88965
			S142.24805,121.27539,167,121.27539z"/>
		<path fill="#FFFFFF" d="M167,235.52246c38.24463,0,69.3584-31.11426,69.3584-69.3584S205.24463,96.80566,167,96.80566
			s-69.3584,31.11426-69.3584,69.3584S128.75537,235.52246,167,235.52246z M167,104.95703
			c33.75,0,61.20752,27.45703,61.20752,61.20703S200.75,227.37207,167,227.37207s-61.20801-27.45801-61.20801-61.20801
			S133.25,104.95703,167,104.95703z"/>
		<path fill="#FFFFFF" d="M167,284.47852c65.23877,0,118.31445-53.0752,118.31445-118.31445S232.23877,47.84961,167,47.84961
			c-65.24805,0-118.33105,53.0752-118.33105,118.31445S101.75195,284.47852,167,284.47852z M167,56.00098
			c60.74414,0,110.16357,49.41895,110.16357,110.16309S227.74414,276.32812,167,276.32812
			c-60.75391,0-110.18066-49.41992-110.18066-110.16406S106.24609,56.00098,167,56.00098z"/>
		<path fill="#FFFFFF" d="M167,251.8418c47.24268,0,85.67725-38.43457,85.67725-85.67773
			c0-47.24219-38.43457-85.67676-85.67725-85.67676s-85.67725,38.43457-85.67725,85.67676
			C81.32275,213.40723,119.75732,251.8418,167,251.8418z M167,88.6377c42.74805,0,77.52637,34.77832,77.52637,77.52637
			S209.74805,243.69043,167,243.69043s-77.52637-34.77832-77.52637-77.52637S124.25195,88.6377,167,88.6377z"/>
		<path fill="#FFFFFF" d="M167,333.45215c88.99243,0,161.96722-69.85229,167-157.60669v-19.36279
			C329.33691,75.17529,266.3443,9.24829,186.32764,0H147.6723C67.65808,9.24805,4.66669,75.17114,0,156.4751v19.37793
			C5.03668,263.604,78.01013,333.45215,167,333.45215z M166.9834,7.02734c87.74805,0,159.13672,71.38867,159.13672,159.13672
			S254.73145,325.30078,166.9834,325.30078c-87.73926,0-159.12012-71.38867-159.12012-159.13672S79.24414,7.02734,166.9834,7.02734z
			"/>
		<path fill="#FFFFFF" d="M0,315.89795v11.95361c2.0202,2.08569,4.07306,4.13916,6.16931,6.14844h12.03851
			C11.80182,328.31445,5.72076,322.27197,0,315.89795z"/>
		<path fill="#FFFFFF" d="M166.9834,300.81445c74.24609,0,134.6499-60.4043,134.6499-134.65039
			S241.22949,31.51465,166.9834,31.51465c-74.2373,0-134.6333,60.40332-134.6333,134.64941S92.74609,300.81445,166.9834,300.81445z
			 M167,39.68164c69.74268,0,126.48242,56.74023,126.48242,126.48242S236.74268,292.64648,167,292.64648
			c-69.75195,0-126.49902-56.74023-126.49902-126.48242S97.24805,39.68164,167,39.68164z"/>
		<path fill="#FFFFFF" d="M166.9834,317.13281c83.24463,0,150.96875-67.72461,150.96875-150.96875
			S250.22803,15.19531,166.9834,15.19531c-83.23535,0-150.95215,67.72461-150.95215,150.96875
			S83.74805,317.13281,166.9834,317.13281z M166.9834,23.34668c78.75,0,142.81787,64.06738,142.81787,142.81738
			S245.7334,308.98242,166.9834,308.98242c-78.74072,0-142.80127-64.06836-142.80127-142.81836S88.24268,23.34668,166.9834,23.34668
			z"/>
		<path fill="#FFFFFF" d="M334,16.43115V4.48914C332.53101,2.97217,331.04041,1.47681,329.53101,0h-11.85632
			C323.3952,5.19214,328.8396,10.68164,334,16.43115z"/>
		<path fill="#FFFFFF" d="M110.62482,0H88.94916C49.73669,18.49316,18.08301,50.45996,0,89.90015v22.44336
			C17.01691,59.66748,58.30225,17.79956,110.62482,0z"/>
		<path fill="#FFFFFF" d="M334,112.34497V89.90015C315.91699,50.45996,284.26331,18.49316,245.05084,0h-21.6759
			C275.69781,17.79968,316.9834,59.66821,334,112.34497z"/>
		<path fill="#FFFFFF" d="M41.87738,0H28.7738C18.3031,8.72485,8.66309,18.41382,0,28.9375v13.21387
			C11.8833,26.19031,25.99829,11.98682,41.87738,0z"/>
		<path fill="#FFFFFF" d="M0,290.17676v13.21436C9.22119,314.59277,19.55121,324.84644,30.81036,334h13.3222
			C27.33405,321.66919,12.44214,306.88843,0,290.17676z"/>
		<path fill="#FFFFFF" d="M16.32513,0H4.45758C2.95209,1.47278,1.46533,2.96423,0,4.47705v11.95386
			C5.16034,10.6814,10.60468,5.19202,16.32513,0z"/>
		<path fill="#FFFFFF" d="M71.33984,0H55.95007C33.7627,14.87671,14.7124,34.07739,0,56.38293v15.59802
			C16.91998,42.09753,41.62054,17.17578,71.33984,0z"/>
		<path fill="#FFFFFF" d="M167,170.24805c2.25195,0,4.0835-1.83203,4.0835-4.08398c0-2.25098-1.83154-4.08301-4.0835-4.08301
			c-2.24268,0-4.06689,1.83203-4.06689,4.08301C162.93311,168.41602,164.75732,170.24805,167,170.24805z"/>
		<path fill="#FFFFFF" d="M167,186.56641c11.25,0,20.40234-9.15234,20.40234-20.40234S178.25,145.76172,167,145.76172
			c-11.24072,0-20.38574,9.15234-20.38574,20.40234S155.75928,186.56641,167,186.56641z M167,153.91309
			c6.75537,0,12.25146,5.49609,12.25146,12.25098c0,6.75586-5.49609,12.25195-12.25146,12.25195
			c-6.74609,0-12.23486-5.49609-12.23486-12.25195C154.76514,159.40918,160.25391,153.91309,167,153.91309z"/>
		<path fill="#FFFFFF" d="M167,202.88574c20.24805,0,36.72119-16.47363,36.72119-36.72168S187.24805,129.44336,167,129.44336
			s-36.72119,16.47266-36.72119,36.7207S146.75195,202.88574,167,202.88574z M167,137.59375
			c15.75342,0,28.57031,12.81641,28.57031,28.57031S182.75342,194.73438,167,194.73438
			c-15.74463,0-28.55371-12.81641-28.55371-28.57031S151.25537,137.59375,167,137.59375z"/>
		<path fill="#FFFFFF" d="M334,42.15137V28.93811C325.33685,18.41431,315.69672,8.7251,305.22583,0h-13.10321
			C308.00171,11.98682,322.1167,26.19031,334,42.15137z"/>
		<path fill="#FFFFFF" d="M334,71.98096V56.38293C319.2876,34.07739,300.2373,14.87671,278.04993,0h-15.38977
			C292.37946,17.17578,317.08002,42.09753,334,71.98096z"/>
		<path fill="#FFFFFF" d="M334,242.42871v-22.44507C316.42371,274.39331,272.95209,317.26465,218.17383,334h23.23578
			C282.3028,315.79883,315.36035,283.08301,334,242.42871z"/>
		<path fill="#FFFFFF" d="M0,219.98511v22.4436C18.63965,283.08301,51.6972,315.79883,92.59039,334h23.23553
			C61.04797,317.26489,17.57666,274.39404,0,219.98511z"/>
		<path fill="#FFFFFF" d="M334,275.94531v-15.59766C316.52045,291.21973,290.73199,316.78833,259.69067,334h15.82153
			C298.78516,318.90137,318.72986,299.09644,334,275.94531z"/>
		<path fill="#FFFFFF" d="M334,327.83936v-11.94165c-5.72083,6.37402-11.80188,12.41675-18.20801,18.10229h12.02734
			C329.91943,331.98682,331.9762,329.9292,334,327.83936z"/>
		<path fill="#FFFFFF" d="M334,303.39038v-13.21362C321.55786,306.88843,306.66595,321.66919,289.86743,334h13.32178
			C314.44849,324.84619,324.77869,314.59253,334,303.39038z"/>
		<path fill="#FFFFFF" d="M0,260.34766v15.59766C15.27014,299.09644,35.21484,318.90137,58.48779,334h15.82153
			C43.26801,316.78833,17.47955,291.21973,0,260.34766z"/>
		<path d="M167,178.41602c6.75537,0,12.25146-5.49609,12.25146-12.25195c0-6.75488-5.49609-12.25098-12.25146-12.25098
			c-6.74609,0-12.23486,5.49609-12.23486,12.25098C154.76514,172.91992,160.25391,178.41602,167,178.41602z M167,162.08105
			c2.25195,0,4.0835,1.83203,4.0835,4.08301c0,2.25195-1.83154,4.08398-4.0835,4.08398c-2.24268,0-4.06689-1.83203-4.06689-4.08398
			C162.93311,163.91309,164.75732,162.08105,167,162.08105z"/>
		<path d="M167,194.73438c15.75342,0,28.57031-12.81641,28.57031-28.57031S182.75342,137.59375,167,137.59375
			c-15.74463,0-28.55371,12.81641-28.55371,28.57031S151.25537,194.73438,167,194.73438z M167,145.76172
			c11.25,0,20.40234,9.15234,20.40234,20.40234S178.25,186.56641,167,186.56641c-11.24072,0-20.38574-9.15234-20.38574-20.40234
			S155.75928,145.76172,167,145.76172z"/>
		<path d="M167,211.05371c24.75195,0,44.88916-20.1377,44.88916-44.88965S191.75195,121.27539,167,121.27539
			s-44.88916,20.13672-44.88916,44.88867S142.24805,211.05371,167,211.05371z M167,129.44336
			c20.24805,0,36.72119,16.47266,36.72119,36.7207S187.24805,202.88574,167,202.88574s-36.72119-16.47363-36.72119-36.72168
			S146.75195,129.44336,167,129.44336z"/>
		<path d="M167,227.37207c33.75,0,61.20752-27.45801,61.20752-61.20801S200.75,104.95703,167,104.95703
			s-61.20801,27.45703-61.20801,61.20703S133.25,227.37207,167,227.37207z M167,113.125
			c29.24609,0,53.03955,23.79297,53.03955,53.03906S196.24609,219.2041,167,219.2041
			c-29.24658,0-53.04004-23.79395-53.04004-53.04004S137.75342,113.125,167,113.125z"/>
		<path d="M167,243.69043c42.74805,0,77.52637-34.77832,77.52637-77.52637S209.74805,88.6377,167,88.6377
			s-77.52637,34.77832-77.52637,77.52637S124.25195,243.69043,167,243.69043z M167,96.80566
			c38.24463,0,69.3584,31.11426,69.3584,69.3584s-31.11377,69.3584-69.3584,69.3584s-69.3584-31.11426-69.3584-69.3584
			S128.75537,96.80566,167,96.80566z"/>
		<path d="M167,260.00977c51.74658,0,93.84521-42.09863,93.84521-93.8457c0-51.74609-42.09863-93.84473-93.84521-93.84473
			s-93.84521,42.09863-93.84521,93.84473C73.15479,217.91113,115.25342,260.00977,167,260.00977z M167,80.4873
			c47.24268,0,85.67725,38.43457,85.67725,85.67676c0,47.24316-38.43457,85.67773-85.67725,85.67773
			s-85.67725-38.43457-85.67725-85.67773C81.32275,118.92188,119.75732,80.4873,167,80.4873z"/>
		<path d="M167,276.32812c60.74414,0,110.16357-49.41992,110.16357-110.16406S227.74414,56.00098,167,56.00098
			c-60.75391,0-110.18066,49.41895-110.18066,110.16309S106.24609,276.32812,167,276.32812z M167,64.16895
			c56.24072,0,101.99561,45.75488,101.99561,101.99512c0,56.24121-45.75488,101.99609-101.99561,101.99609
			c-56.25,0-102.0127-45.75488-102.0127-101.99609C64.9873,109.92383,110.75,64.16895,167,64.16895z"/>
		<path d="M167,292.64648c69.74268,0,126.48242-56.74023,126.48242-126.48242S236.74268,39.68164,167,39.68164
			c-69.75195,0-126.49902,56.74023-126.49902,126.48242S97.24805,292.64648,167,292.64648z M167,47.84961
			c65.23877,0,118.31445,53.0752,118.31445,118.31445S232.23877,284.47852,167,284.47852
			c-65.24805,0-118.33105-53.0752-118.33105-118.31445S101.75195,47.84961,167,47.84961z"/>
		<path d="M166.9834,308.98242c78.75,0,142.81787-64.06836,142.81787-142.81836S245.7334,23.34668,166.9834,23.34668
			c-78.74072,0-142.80127,64.06738-142.80127,142.81738S88.24268,308.98242,166.9834,308.98242z M166.9834,31.51465
			c74.24609,0,134.6499,60.40332,134.6499,134.64941s-60.40381,134.65039-134.6499,134.65039
			c-74.2373,0-134.6333-60.4043-134.6333-134.65039S92.74609,31.51465,166.9834,31.51465z"/>
		<path d="M166.9834,325.30078c87.74805,0,159.13672-71.38867,159.13672-159.13672S254.73145,7.02734,166.9834,7.02734
			c-87.73926,0-159.12012,71.38867-159.12012,159.13672S79.24414,325.30078,166.9834,325.30078z M166.9834,15.19531
			c83.24463,0,150.96875,67.72461,150.96875,150.96875S250.22803,317.13281,166.9834,317.13281
			c-83.23535,0-150.95215-67.72461-150.95215-150.96875S83.74805,15.19531,166.9834,15.19531z"/>
		<path d="M334,219.98364v-44.13818c-5.03278,87.75439-78.00757,157.60669-167,157.60669
			c-88.98987,0-161.96332-69.84814-167-157.59912v44.13208C17.57666,274.39404,61.04797,317.26489,115.82593,334h102.3479
			C272.95209,317.26465,316.42371,274.39331,334,219.98364z"/>
		<path d="M147.6723,0h-37.04749C58.30225,17.79956,17.01691,59.66748,0,112.34351v44.13159
			C4.66669,75.17114,67.65808,9.24805,147.6723,0z"/>
		<path d="M334,156.48267v-44.1377C316.9834,59.66821,275.69781,17.79968,223.37494,0h-37.0473
			C266.3443,9.24829,329.33691,75.17529,334,156.48267z"/>
		<path d="M334,260.34766v-17.91895c-18.63965,40.6543-51.6972,73.37012-92.59039,91.57129h18.28107
			C290.73199,316.78833,316.52045,291.21973,334,260.34766z"/>
		<path d="M0,242.42871v17.91895C17.47955,291.21973,43.26801,316.78833,74.30933,334h18.28107
			C51.6972,315.79883,18.63965,283.08301,0,242.42871z"/>
		<path d="M88.94916,0H71.33984C41.62054,17.17578,16.91998,42.09753,0,71.98096v17.91919
			C18.08301,50.45996,49.73669,18.49316,88.94916,0z"/>
		<path d="M334,89.90015V71.98096C317.08002,42.09753,292.37946,17.17578,262.66016,0h-17.60931
			C284.26331,18.49316,315.91699,50.45996,334,89.90015z"/>
		<path d="M55.95007,0H41.87738C25.99829,11.98682,11.8833,26.19031,0,42.15137v14.23157
			C14.7124,34.07739,33.7627,14.87671,55.95007,0z"/>
		<path d="M0,275.94531v14.23145C12.44214,306.88843,27.33405,321.66919,44.13257,334h14.35522
			C35.21484,318.90137,15.27014,299.09644,0,275.94531z"/>
		<path d="M334,290.17676v-14.23145C318.72986,299.09644,298.78516,318.90137,275.51221,334h14.35522
			C306.66595,321.66919,321.55786,306.88843,334,290.17676z"/>
		<path d="M334,56.38293V42.15137C322.1167,26.19031,308.00171,11.98682,292.12262,0h-14.07269
			C300.2373,14.87671,319.2876,34.07739,334,56.38293z"/>
		<path d="M334,315.89771v-12.50732c-9.22131,11.20215-19.55151,21.45581-30.81079,30.60962h12.60278
			C322.19812,328.31445,328.27917,322.27173,334,315.89771z"/>
		<path d="M334,28.93811V16.43115C328.8396,10.68164,323.3952,5.19214,317.67468,0h-12.44885
			C315.69672,8.7251,325.33685,18.41431,334,28.93811z"/>
		<path d="M28.7738,0H16.32513C10.60468,5.19202,5.16034,10.6814,0,16.43091V28.9375C8.66309,18.41382,18.3031,8.72485,28.7738,0z"
			/>
		<path d="M0,303.39111v12.50684C5.72076,322.27197,11.80182,328.31445,18.20782,334h12.60254
			C19.55121,324.84644,9.22119,314.59277,0,303.39111z"/>
		<path d="M4.45758,0H0v4.47705C1.46533,2.96423,2.95209,1.47278,4.45758,0z"/>
		<path d="M327.81934,334H334v-6.16064C331.9762,329.9292,329.91943,331.98682,327.81934,334z"/>
		<path d="M334,4.48914V0h-4.46899C331.04041,1.47681,332.53101,2.97217,334,4.48914z"/>
		<path d="M0,327.85156V334h6.16931C4.07306,331.99072,2.0202,329.93726,0,327.85156z"/>
	</g>
</g>
<g id="Layer_3" display="none">
</g>
<g id="Layer_2" display="none">
</g>
</svg>
