<?xml version="1.0" encoding="utf-8"?>
<!-- Generator: Adobe Illustrator 21.1.0, SVG Export Plug-In . SVG Version: 6.00 Build 0)  -->
<svg version="1.2" baseProfile="tiny" xmlns="http://www.w3.org/2000/svg" xmlns:xlink="http://www.w3.org/1999/xlink" x="0px"
	 y="0px" viewBox="0 0 334 334" xml:space="preserve">
<g id="Layer_1">
	<g>
		<path fill="#838383" d="M37.59644,0H27.5769C17.58252,8.40918,8.34717,17.69141,0,27.73975v10.12012
			C10.89844,23.72217,23.53418,10.99097,37.59644,0z"/>
		<path fill="#838383" d="M119.07202,0H99.94214C54.3501,18.58032,18.02002,55.31885,0,101.19312v20.06909
			C15.84131,63.02881,61.26953,16.86768,119.07202,0z"/>
		<path fill="#838383" d="M0,315.59863v9.36011c2.91919,3.09399,5.91772,6.11182,9.00195,9.04126h9.32861
			C11.87305,328.2229,5.75342,322.07788,0,315.59863z"/>
		<path fill="#838383" d="M59.28345,0H48.12109C29.52173,13.36914,13.23755,29.76367,0,48.46289v11.27905
			C15.29419,35.87402,35.54639,15.47876,59.28345,0z"/>
		<path fill="#838383" d="M167.68555,138.40527c-15.68457,0-28.44531,12.75195-28.44531,28.42773
			s12.76074,28.42871,28.44531,28.42871c15.67578,0,28.42773-12.75293,28.42773-28.42871S183.36133,138.40527,167.68555,138.40527z
			 M167.66797,188.94824c-12.19336,0-22.11426-9.9209-22.11426-22.11523c0-12.19336,9.9209-22.11426,22.11426-22.11426
			c12.19434,0,22.11523,9.9209,22.11523,22.11426C189.7832,179.02734,179.8623,188.94824,167.66797,188.94824z"/>
		<path fill="#838383" d="M84.64795,0H71.31201C41.6333,17.21362,16.95044,42.11914,0,71.96875v13.53857
			C18.00488,48.53369,47.88623,18.37183,84.64795,0z"/>
		<path fill="#838383" d="M167.73633,37.30371c-71.42383,0-129.53027,58.10645-129.53027,129.5293
			c0,71.42383,58.10645,129.53027,129.53027,129.53027S297.2666,238.25684,297.2666,166.83301
			C297.2666,95.41016,239.16016,37.30371,167.73633,37.30371z M167.73535,290.03418
			c-67.94141,0-123.2168-55.26758-123.2168-123.20117c0-67.93262,55.27539-123.2002,123.2168-123.2002
			c67.93359,0,123.20117,55.26758,123.20117,123.2002C290.93652,234.7666,235.66895,290.03418,167.73535,290.03418z"/>
		<path fill="#838383" d="M167.73535,49.94727c-64.45996,0-116.90234,52.43457-116.90234,116.88574
			c0,64.45215,52.44238,116.88672,116.90234,116.88672c64.45215,0,116.88672-52.43457,116.88672-116.88672
			C284.62207,102.38184,232.1875,49.94727,167.73535,49.94727z M167.71875,277.40723
			c-60.96094,0-110.55664-49.60352-110.55664-110.57422c0-60.96973,49.5957-110.57324,110.55664-110.57324
			c60.96973,0,110.57324,49.60352,110.57324,110.57324C278.29199,227.80371,228.68848,277.40723,167.71875,277.40723z"/>
		<path fill="#838383" d="M167.70215,113.13379c-29.61914,0-53.71582,24.08887-53.71582,53.69922
			c0,29.62012,24.09668,53.7168,53.71582,53.7168c29.61035,0,53.69922-24.09668,53.69922-53.7168
			C221.40137,137.22266,197.3125,113.13379,167.70215,113.13379z M167.68555,214.21973
			c-26.12891,0-47.38672-21.25781-47.38672-47.38672c0-26.12793,21.25781-47.38574,47.38672-47.38574
			s47.38672,21.25781,47.38672,47.38574C215.07227,192.96191,193.81445,214.21973,167.68555,214.21973z"/>
		<path fill="#838383" d="M167.71875,75.21875c-50.5166,0-91.61426,41.09766-91.61426,91.61426s41.09766,91.61523,91.61426,91.61523
			s91.61523-41.09863,91.61523-91.61523S218.23535,75.21875,167.71875,75.21875z M167.70215,252.13574
			c-47.02637,0-85.28516-38.2666-85.28516-85.30273c0-47.03516,38.25879-85.30176,85.28516-85.30176
			c47.03516,0,85.30176,38.2666,85.30176,85.30176C253.00391,213.86914,214.7373,252.13574,167.70215,252.13574z"/>
		<path fill="#838383" d="M167.66797,163.67676c-1.75,0-3.17285,1.41602-3.17285,3.15625c0,1.74121,1.42285,3.15723,3.17285,3.15723
			c1.74121,0,3.15723-1.41602,3.15723-3.15723C170.8252,165.09277,169.40918,163.67676,167.66797,163.67676z"/>
		<path fill="#838383" d="M167.71875,62.57422c-57.47949,0-104.24219,46.77051-104.24219,104.25879
			c0,57.48926,46.7627,104.25977,104.24219,104.25977c57.48828,0,104.25879-46.77051,104.25879-104.25977
			C271.97754,109.34473,225.20703,62.57422,167.71875,62.57422z M167.71875,264.7627
			c-53.99805,0-97.92871-43.93164-97.92871-97.92969S113.7207,68.9043,167.71875,68.9043s97.92969,43.93066,97.92969,97.92871
			S221.7168,264.7627,167.71875,264.7627z"/>
		<path fill="#838383" d="M167.70215,87.8457c-43.54492,0-78.9707,35.43359-78.9707,78.9873
			c0,43.55469,35.42578,78.98828,78.9707,78.98828c43.55371,0,78.9873-35.43359,78.9873-78.98828
			C246.68945,123.2793,211.25586,87.8457,167.70215,87.8457z M167.70215,239.49121c-40.06348,0-72.6582-32.59473-72.6582-72.6582
			s32.59473-72.65723,72.6582-72.65723s72.6582,32.59375,72.6582,72.65723S207.76562,239.49121,167.70215,239.49121z"/>
		<path fill="#838383" d="M0,212.40381v20.06982C18.12744,278.62109,54.78174,315.52686,100.75586,334h19.43652
			C61.85522,317.40527,15.94385,271.01416,0,212.40381z"/>
		<path fill="#838383" d="M167.70215,100.49023c-36.58203,0-66.34375,29.76074-66.34375,66.34277
			s29.76172,66.34375,66.34375,66.34375s66.34375-29.76172,66.34375-66.34375S204.28418,100.49023,167.70215,100.49023z
			 M167.70215,226.86426c-33.10059,0-60.03027-26.92969-60.03027-60.03125c0-33.0918,26.92969-60.01367,60.03027-60.01367
			c33.0918,0,60.01367,26.92188,60.01367,60.01367C227.71582,199.93457,200.79395,226.86426,167.70215,226.86426z"/>
		<path fill="#838383" d="M0,273.92432v11.27905C13.34668,304.05664,29.78687,320.5708,48.57764,334h11.21143
			C35.83301,318.48145,15.40308,297.96265,0,273.92432z"/>
		<path fill="#838383" d="M167.66797,151.0332c-8.71191,0-15.7998,7.08789-15.7998,15.7998
			c0,8.71289,7.08789,15.80078,15.7998,15.80078c8.71289,0,15.80078-7.08789,15.80078-15.80078
			C183.46875,158.12109,176.38086,151.0332,167.66797,151.0332z M167.66797,176.30469c-5.23145,0-9.4873-4.24902-9.4873-9.47168
			c0-5.22168,4.25586-9.4707,9.4873-9.4707c5.22266,0,9.47168,4.24902,9.47168,9.4707
			C177.13965,172.05566,172.89062,176.30469,167.66797,176.30469z"/>
		<path fill="#838383" d="M0,248.15918V261.698C17.05835,291.73779,41.94482,316.77539,71.87646,334h13.44092
			C48.24878,315.66064,18.11401,285.35742,0,248.15918z"/>
		<path fill="#838383" d="M0,295.80688V305.927C8.45703,316.10767,17.82422,325.50342,27.9707,334h10.06006
			C23.79541,322.93262,11.00977,310.08911,0,295.80688z"/>
		<path fill="#838383" d="M167.68555,125.76172c-22.64746,0-41.07227,18.42383-41.07227,41.07129
			s18.4248,41.07227,41.07227,41.07227s41.07227-18.4248,41.07227-41.07227S190.33301,125.76172,167.68555,125.76172z
			 M167.68555,201.57617c-19.16602,0-34.75977-15.58594-34.75977-34.74316c0-19.15625,15.59375-34.74219,34.75977-34.74219
			c19.15625,0,34.74219,15.58594,34.74219,34.74219C202.42773,185.99023,186.8418,201.57617,167.68555,201.57617z"/>
		<path fill="#838383" d="M334,326.46045v-9.26587c-5.33691,5.89673-10.98755,11.50269-16.91553,16.80542h9.33936
			C329.00757,331.5459,331.53174,329.03052,334,326.46045z"/>
		<path fill="#838383" d="M17.95532,0H8.64526C5.68506,2.82349,2.80737,5.73218,0,8.70776v9.3606
			C5.64209,11.71411,11.63525,5.67944,17.95532,0z"/>
		<path fill="#838383" d="M334,235.8457v-18.72852C316.92383,273.4939,271.91846,317.85278,215.14844,334h19.4668
			C279.46313,315.97949,315.43652,280.41602,334,235.8457z"/>
		<path fill="#838383" d="M334,264.09131v-13.177C315.75684,286.85352,286.20264,316.11572,250.05371,334h13.44873
			C292.63745,317.23535,316.99023,293.06714,334,264.09131z"/>
		<path fill="#838383" d="M334,116.54883V97.8208C315.54932,53.52148,279.89746,18.12231,235.42896,0H216.2688
			C272.50854,16.41016,317.03662,60.54492,334,116.54883z"/>
		<path fill="#838383" d="M334,16.47241V7.20605C331.64453,4.75342,329.24121,2.34717,326.78052,0h-9.32056
			C323.25146,5.2041,328.77539,10.69971,334,16.47241z"/>
		<path fill="#838383" d="M167.66797,12.03223c-85.35742,0-154.80078,69.44336-154.80078,154.80078
			c0,85.3584,69.44336,154.80176,154.80078,154.80176c85.3584,0,154.80176-69.44336,154.80176-154.80176
			C322.46973,81.47559,253.02637,12.03223,167.66797,12.03223z M167.66797,315.30566
			c-81.87695,0-148.48828-66.60449-148.48828-148.47266c0-81.86719,66.61133-148.47168,148.48828-148.47168
			c81.86816,0,148.47266,66.60449,148.47266,148.47168C316.14062,248.70117,249.53613,315.30566,167.66797,315.30566z"/>
		<path fill="#838383" d="M334,307.60229v-9.97485C323.31396,311.18506,311.00391,323.40283,297.37354,334h10.07056
			C317.03027,325.97314,325.91553,317.13843,334,307.60229z"/>
		<path fill="#838383" d="M167.66797,24.67578c-78.39551,0-142.17383,63.77148-142.17383,142.15723
			c0,78.38672,63.77832,142.1582,142.17383,142.1582c78.38672,0,142.1582-63.77148,142.1582-142.1582
			C309.82617,88.44727,246.05469,24.67578,167.66797,24.67578z M167.73633,302.67773
			c-74.90527,0-135.84473-60.93945-135.84473-135.84473c0-74.9043,60.93945-135.84375,135.84473-135.84375
			s135.84473,60.93945,135.84473,135.84375C303.58105,241.73828,242.6416,302.67773,167.73633,302.67773z"/>
		<path fill="#838383" d="M334,82.75244v-13.177C317.10107,40.78809,292.95068,16.75122,264.06689,0h-13.34375
			C286.56738,17.91333,315.86938,47.0354,334,82.75244z"/>
		<path fill="#838383" d="M334,287.14844v-11.11719C318.76343,299.15967,298.84302,318.93848,275.59033,334h11.23633
			C304.9668,321.03589,320.90942,305.19141,334,287.14844z"/>
		<path fill="#838383" d="M334,186.09277v-38.51953C324.95264,68.93994,261.22412,6.7146,181.91455,0H153.4231
			C67.74609,7.25439,0.23926,79.302,0.23926,166.83301c0,89.12012,69.979,162.19287,157.86694,167.16699h19.12476
			C258.70361,329.38965,324.77539,266.26831,334,186.09277z M167.66797,327.94922
			c-88.83887,0-161.11523-72.27637-161.11523-161.11621c0-88.83887,72.27637-161.11523,161.11523-161.11523
			c88.83984,0,161.11621,72.27637,161.11621,161.11523C328.78418,255.67285,256.50781,327.94922,167.66797,327.94922z"/>
		<path fill="#838383" d="M334,36.03931v-9.97485C326.02661,16.65967,317.27344,7.93848,307.83789,0h-10.03003
			C311.2666,10.51904,323.42676,22.625,334,36.03931z"/>
		<path fill="#838383" d="M334,57.63525V46.51807C321.02026,28.62744,305.2334,12.90234,287.2832,0h-11.18701
			C299.1311,15.01978,318.87451,34.67554,334,57.63525z"/>
		<path fill="#7C7C7C" d="M167.66797,157.3623c-5.23145,0-9.4873,4.24902-9.4873,9.4707c0,5.22266,4.25586,9.47168,9.4873,9.47168
			c5.22266,0,9.47168-4.24902,9.47168-9.47168C177.13965,161.61133,172.89062,157.3623,167.66797,157.3623z M167.66797,169.99023
			c-1.75,0-3.17285-1.41602-3.17285-3.15723c0-1.74023,1.42285-3.15625,3.17285-3.15625c1.74121,0,3.15723,1.41602,3.15723,3.15625
			C170.8252,168.57422,169.40918,169.99023,167.66797,169.99023z"/>
		<path fill="#7C7C7C" d="M167.66797,144.71875c-12.19336,0-22.11426,9.9209-22.11426,22.11426
			c0,12.19434,9.9209,22.11523,22.11426,22.11523c12.19434,0,22.11523-9.9209,22.11523-22.11523
			C189.7832,154.63965,179.8623,144.71875,167.66797,144.71875z M167.66797,182.63379c-8.71191,0-15.7998-7.08789-15.7998-15.80078
			c0-8.71191,7.08789-15.7998,15.7998-15.7998c8.71289,0,15.80078,7.08789,15.80078,15.7998
			C183.46875,175.5459,176.38086,182.63379,167.66797,182.63379z"/>
		<path fill="#7C7C7C" d="M167.68555,132.09082c-19.16602,0-34.75977,15.58594-34.75977,34.74219
			c0,19.15723,15.59375,34.74316,34.75977,34.74316c19.15625,0,34.74219-15.58594,34.74219-34.74316
			C202.42773,147.67676,186.8418,132.09082,167.68555,132.09082z M167.68555,195.26172
			c-15.68457,0-28.44531-12.75293-28.44531-28.42871s12.76074-28.42773,28.44531-28.42773
			c15.67578,0,28.42773,12.75195,28.42773,28.42773S183.36133,195.26172,167.68555,195.26172z"/>
		<path fill="#7C7C7C" d="M167.68555,119.44727c-26.12891,0-47.38672,21.25781-47.38672,47.38574
			c0,26.12891,21.25781,47.38672,47.38672,47.38672s47.38672-21.25781,47.38672-47.38672
			C215.07227,140.70508,193.81445,119.44727,167.68555,119.44727z M167.68555,207.90527
			c-22.64746,0-41.07227-18.4248-41.07227-41.07227s18.4248-41.07129,41.07227-41.07129s41.07227,18.42383,41.07227,41.07129
			S190.33301,207.90527,167.68555,207.90527z"/>
		<path fill="#7C7C7C" d="M167.70215,106.81934c-33.10059,0-60.03027,26.92188-60.03027,60.01367
			c0,33.10156,26.92969,60.03125,60.03027,60.03125c33.0918,0,60.01367-26.92969,60.01367-60.03125
			C227.71582,133.74121,200.79395,106.81934,167.70215,106.81934z M167.70215,220.5498
			c-29.61914,0-53.71582-24.09668-53.71582-53.7168c0-29.61035,24.09668-53.69922,53.71582-53.69922
			c29.61035,0,53.69922,24.08887,53.69922,53.69922C221.40137,196.45312,197.3125,220.5498,167.70215,220.5498z"/>
		<path fill="#7C7C7C" d="M167.70215,94.17578c-40.06348,0-72.6582,32.59375-72.6582,72.65723s32.59473,72.6582,72.6582,72.6582
			s72.6582-32.59473,72.6582-72.6582S207.76562,94.17578,167.70215,94.17578z M167.70215,233.17676
			c-36.58203,0-66.34375-29.76172-66.34375-66.34375s29.76172-66.34277,66.34375-66.34277s66.34375,29.76074,66.34375,66.34277
			S204.28418,233.17676,167.70215,233.17676z"/>
		<path fill="#7C7C7C" d="M167.70215,81.53125c-47.02637,0-85.28516,38.2666-85.28516,85.30176
			c0,47.03613,38.25879,85.30273,85.28516,85.30273c47.03516,0,85.30176-38.2666,85.30176-85.30273
			C253.00391,119.79785,214.7373,81.53125,167.70215,81.53125z M167.70215,245.82129c-43.54492,0-78.9707-35.43359-78.9707-78.98828
			c0-43.55371,35.42578-78.9873,78.9707-78.9873c43.55371,0,78.9873,35.43359,78.9873,78.9873
			C246.68945,210.3877,211.25586,245.82129,167.70215,245.82129z"/>
		<path fill="#7C7C7C" d="M167.71875,68.9043c-53.99805,0-97.92871,43.93066-97.92871,97.92871s43.93066,97.92969,97.92871,97.92969
			s97.92969-43.93164,97.92969-97.92969S221.7168,68.9043,167.71875,68.9043z M167.71875,258.44824
			c-50.5166,0-91.61426-41.09863-91.61426-91.61523s41.09766-91.61426,91.61426-91.61426s91.61523,41.09766,91.61523,91.61426
			S218.23535,258.44824,167.71875,258.44824z"/>
		<path fill="#7C7C7C" d="M167.71875,56.25977c-60.96094,0-110.55664,49.60352-110.55664,110.57324
			c0,60.9707,49.5957,110.57422,110.55664,110.57422c60.96973,0,110.57324-49.60352,110.57324-110.57422
			C278.29199,105.86328,228.68848,56.25977,167.71875,56.25977z M167.71875,271.09277
			c-57.47949,0-104.24219-46.77051-104.24219-104.25977c0-57.48828,46.7627-104.25879,104.24219-104.25879
			c57.48828,0,104.25879,46.77051,104.25879,104.25879C271.97754,224.32227,225.20703,271.09277,167.71875,271.09277z"/>
		<path fill="#7C7C7C" d="M167.73535,43.63281c-67.94141,0-123.2168,55.26758-123.2168,123.2002
			c0,67.93359,55.27539,123.20117,123.2168,123.20117c67.93359,0,123.20117-55.26758,123.20117-123.20117
			C290.93652,98.90039,235.66895,43.63281,167.73535,43.63281z M167.73535,283.71973
			c-64.45996,0-116.90234-52.43457-116.90234-116.88672c0-64.45117,52.44238-116.88574,116.90234-116.88574
			c64.45215,0,116.88672,52.43457,116.88672,116.88574C284.62207,231.28516,232.1875,283.71973,167.73535,283.71973z"/>
		<path fill="#7C7C7C" d="M167.73633,30.98926c-74.90527,0-135.84473,60.93945-135.84473,135.84375
			c0,74.90527,60.93945,135.84473,135.84473,135.84473s135.84473-60.93945,135.84473-135.84473
			C303.58105,91.92871,242.6416,30.98926,167.73633,30.98926z M167.73633,296.36328
			c-71.42383,0-129.53027-58.10645-129.53027-129.53027c0-71.42285,58.10645-129.5293,129.53027-129.5293
			S297.2666,95.41016,297.2666,166.83301C297.2666,238.25684,239.16016,296.36328,167.73633,296.36328z"/>
		<path fill="#7C7C7C" d="M167.66797,18.36133c-81.87695,0-148.48828,66.60449-148.48828,148.47168
			c0,81.86816,66.61133,148.47266,148.48828,148.47266c81.86816,0,148.47266-66.60449,148.47266-148.47266
			C316.14062,84.96582,249.53613,18.36133,167.66797,18.36133z M167.66797,308.99121
			c-78.39551,0-142.17383-63.77148-142.17383-142.1582c0-78.38574,63.77832-142.15723,142.17383-142.15723
			c78.38672,0,142.1582,63.77148,142.1582,142.15723C309.82617,245.21973,246.05469,308.99121,167.66797,308.99121z"/>
		<path fill="#7C7C7C" d="M167.66797,5.71777c-88.83887,0-161.11523,72.27637-161.11523,161.11523
			c0,88.83984,72.27637,161.11621,161.11523,161.11621c88.83984,0,161.11621-72.27637,161.11621-161.11621
			C328.78418,77.99414,256.50781,5.71777,167.66797,5.71777z M167.66797,321.63477
			c-85.35742,0-154.80078-69.44336-154.80078-154.80176c0-85.35742,69.44336-154.80078,154.80078-154.80078
			c85.3584,0,154.80176,69.44336,154.80176,154.80078C322.46973,252.19141,253.02637,321.63477,167.66797,321.63477z"/>
		<path fill="#7C7C7C" d="M334,147.57324v-31.02441C317.03662,60.54492,272.50854,16.41016,216.2688,0h-34.35425
			C261.22412,6.7146,324.95264,68.93994,334,147.57324z"/>
		<path fill="#7C7C7C" d="M334,217.11719v-31.02441C324.77539,266.26831,258.70361,329.38965,177.23096,334h37.91748
			C271.91846,317.85278,316.92383,273.4939,334,217.11719z"/>
		<path fill="#7C7C7C" d="M0.23926,166.83301C0.23926,79.302,67.74609,7.25439,153.4231,0h-34.35107
			C61.26953,16.86768,15.84131,63.02881,0,121.26221v91.1416C15.94385,271.01416,61.85522,317.40527,120.19238,334h37.91382
			C70.21826,329.02588,0.23926,255.95312,0.23926,166.83301z"/>
		<path fill="#7C7C7C" d="M334,97.8208V82.75244C315.86938,47.0354,286.56738,17.91333,250.72314,0h-15.29419
			C279.89746,18.12231,315.54932,53.52148,334,97.8208z"/>
		<path fill="#7C7C7C" d="M99.94214,0H84.64795C47.88623,18.37183,18.00488,48.53369,0,85.50732v15.68579
			C18.02002,55.31885,54.3501,18.58032,99.94214,0z"/>
		<path fill="#7C7C7C" d="M334,250.91431v-15.0686c-18.56348,44.57031-54.53687,80.13379-99.38477,98.1543h15.43848
			C286.20264,316.11572,315.75684,286.85352,334,250.91431z"/>
		<path fill="#7C7C7C" d="M0,232.47363v15.68555C18.11401,285.35742,48.24878,315.66064,85.31738,334h15.43848
			C54.78174,315.52686,18.12744,278.62109,0,232.47363z"/>
		<path fill="#7C7C7C" d="M334,69.57544V57.63525C318.87451,34.67554,299.1311,15.01978,276.09619,0h-12.0293
			C292.95068,16.75122,317.10107,40.78809,334,69.57544z"/>
		<path fill="#7C7C7C" d="M0,261.698v12.22632C15.40308,297.96265,35.83301,318.48145,59.78906,334h12.0874
			C41.94482,316.77539,17.05835,291.73779,0,261.698z"/>
		<path fill="#7C7C7C" d="M71.31201,0H59.28345C35.54639,15.47876,15.29419,35.87402,0,59.74194v12.22681
			C16.95044,42.11914,41.6333,17.21362,71.31201,0z"/>
		<path fill="#7C7C7C" d="M334,276.03125v-11.93994C316.99023,293.06714,292.63745,317.23535,263.50244,334h12.08789
			C298.84302,318.93848,318.76343,299.15967,334,276.03125z"/>
		<path fill="#7C7C7C" d="M334,46.51807V36.03931C323.42676,22.625,311.2666,10.51904,297.80786,0H287.2832
			C305.2334,12.90234,321.02026,28.62744,334,46.51807z"/>
		<path fill="#7C7C7C" d="M0,285.20337v10.60352C11.00977,310.08911,23.79541,322.93262,38.03076,334h10.54688
			C29.78687,320.5708,13.34668,304.05664,0,285.20337z"/>
		<path fill="#7C7C7C" d="M48.12109,0H37.59644C23.53418,10.99097,10.89844,23.72217,0,37.85986v10.60303
			C13.23755,29.76367,29.52173,13.36914,48.12109,0z"/>
		<path fill="#7C7C7C" d="M334,297.62744v-10.479C320.90942,305.19141,304.9668,321.03589,286.82666,334h10.54688
			C311.00391,323.40283,323.31396,311.18506,334,297.62744z"/>
		<path fill="#7C7C7C" d="M334,317.19458v-9.59229c-8.08447,9.53613-16.96973,18.37085-26.55591,26.39771h9.64038
			C323.01245,328.69727,328.66309,323.09131,334,317.19458z"/>
		<path fill="#7C7C7C" d="M0,305.927v9.67163C5.75342,322.07788,11.87305,328.2229,18.33057,334h9.64014
			C17.82422,325.50342,8.45703,316.10767,0,305.927z"/>
		<path fill="#7C7C7C" d="M334,26.06445v-9.59204C328.77539,10.69971,323.25146,5.2041,317.45996,0h-9.62207
			C317.27344,7.93848,326.02661,16.65967,334,26.06445z"/>
		<path fill="#7C7C7C" d="M27.5769,0h-9.62158C11.63525,5.67944,5.64209,11.71411,0,18.06836v9.67139
			C8.34717,17.69141,17.58252,8.40918,27.5769,0z"/>
		<path fill="#7C7C7C" d="M334,326.46045c-2.46826,2.57007-4.99243,5.08545-7.57617,7.53955H334V326.46045z"/>
		<path fill="#7C7C7C" d="M8.64526,0H0v8.70776C2.80737,5.73218,5.68506,2.82349,8.64526,0z"/>
		<path fill="#7C7C7C" d="M0,324.95874V334h9.00195C5.91772,331.07056,2.91919,328.05273,0,324.95874z"/>
		<path fill="#7C7C7C" d="M334,7.20605V0h-7.21948C329.24121,2.34717,331.64453,4.75342,334,7.20605z"/>
	</g>
</g>
<g id="Layer_3" display="none">
</g>
<g id="Layer_2" display="none">
</g>
</svg>
