<?xml version="1.0" encoding="utf-8"?>
<!-- Generator: Adobe Illustrator 21.1.0, SVG Export Plug-In . SVG Version: 6.00 Build 0)  -->
<svg version="1.2" baseProfile="tiny" xmlns="http://www.w3.org/2000/svg" xmlns:xlink="http://www.w3.org/1999/xlink" x="0px"
	 y="0px" viewBox="0 0 334 334" xml:space="preserve">
<g id="Layer_1">
	<g>
		<path fill="#828282" d="M334,196.90784v-61.48633C321.75781,68.4892,270.2959,15.08838,204.39062,0h-76.11328
			C64.51758,14.59851,14.28223,65.06348,0,128.94733v74.43475C14.89087,269.98828,68.86426,322.00861,136.49878,334h59.66919
			C265.98633,321.62262,321.25317,266.59979,334,196.90784z M166.33203,298.73535
			c-73.09961,0-132.57031-59.4707-132.57031-132.57074c0-73.09961,59.4707-132.57031,132.57031-132.57031
			S298.90332,93.065,298.90332,166.16461C298.90332,239.26465,239.43164,298.73535,166.33203,298.73535z"/>
		<path fill="#828282" d="M334,42.65717V0h-42.14941C307.85889,12.12231,322.06641,26.49982,334,42.65717z"/>
		<path fill="#828282" d="M166.33203,71.47614c-52.21094,0-94.6875,42.47705-94.6875,94.68848
			c0,52.21136,42.47656,94.6889,94.6875,94.6889c52.21191,0,94.68848-42.47754,94.68848-94.6889
			C261.02051,113.95319,218.54395,71.47614,166.33203,71.47614z M166.33203,222.98779
			c-31.32324,0-56.80664-25.49072-56.80664-56.82318c0-31.33203,25.4834-56.82275,56.80664-56.82275
			c31.33203,0,56.82324,25.49072,56.82324,56.82275C223.15527,197.49707,197.66406,222.98779,166.33203,222.98779z"/>
		<path fill="#828282" d="M0,291.44861V334h43.06323C26.73462,321.97333,12.21582,307.62885,0,291.44861z"/>
		<path fill="#828282" d="M166.33203,147.22369c-10.43457,0-18.92383,8.49707-18.92383,18.94092
			c0,10.44427,8.48926,18.94135,18.92383,18.94135c10.44434,0,18.94043-8.49707,18.94043-18.94135
			C185.27246,155.72076,176.77637,147.22369,166.33203,147.22369z"/>
		<path fill="#828282" d="M40.82349,0H0v40.88116C11.65454,25.44421,25.40479,11.67676,40.82349,0z"/>
		<path fill="#828282" d="M289.6106,334H334v-44.32745C321.51294,306.57935,306.53491,321.53546,289.6106,334z"/>
		<path fill="#7D7D7D" d="M166.33203,109.34186c-31.32324,0-56.80664,25.49072-56.80664,56.82275
			c0,31.33246,25.4834,56.82318,56.80664,56.82318c31.33203,0,56.82324-25.49072,56.82324-56.82318
			C223.15527,134.83258,197.66406,109.34186,166.33203,109.34186z M166.33203,185.10596
			c-10.43457,0-18.92383-8.49707-18.92383-18.94135c0-10.44385,8.48926-18.94092,18.92383-18.94092
			c10.44434,0,18.94043,8.49707,18.94043,18.94092C185.27246,176.60889,176.77637,185.10596,166.33203,185.10596z"/>
		<path fill="#7D7D7D" d="M166.33203,33.5943c-73.09961,0-132.57031,59.4707-132.57031,132.57031
			c0,73.10004,59.4707,132.57074,132.57031,132.57074s132.57129-59.4707,132.57129-132.57074
			C298.90332,93.065,239.43164,33.5943,166.33203,33.5943z M166.33203,260.85352c-52.21094,0-94.6875-42.47754-94.6875-94.6889
			c0-52.21143,42.47656-94.68848,94.6875-94.68848c52.21191,0,94.68848,42.47705,94.68848,94.68848
			C261.02051,218.37598,218.54395,260.85352,166.33203,260.85352z"/>
		<path fill="#7D7D7D" d="M334,289.67255v-92.76471C321.25317,266.59979,265.98633,321.62262,196.16797,334h93.44263
			C306.53491,321.53546,321.51294,306.57935,334,289.67255z"/>
		<path fill="#7D7D7D" d="M334,135.42151V42.65717C322.06641,26.49982,307.85889,12.12231,291.85059,0h-87.45996
			C270.2959,15.08838,321.75781,68.4892,334,135.42151z"/>
		<path fill="#7D7D7D" d="M128.27734,0H40.82349C25.40479,11.67676,11.65454,25.44421,0,40.88116v88.06616
			C14.28223,65.06348,64.51758,14.59851,128.27734,0z"/>
		<path fill="#7D7D7D" d="M0,203.38208v88.06653C12.21582,307.62885,26.73462,321.97333,43.06323,334h93.43555
			C68.86426,322.00861,14.89087,269.98828,0,203.38208z"/>
	</g>
</g>
<g id="Layer_3" display="none">
</g>
<g id="Layer_2" display="none">
</g>
</svg>
