<?xml version="1.0" encoding="utf-8"?>
<!-- Generator: Adobe Illustrator 21.1.0, SVG Export Plug-In . SVG Version: 6.00 Build 0)  -->
<svg version="1.2" baseProfile="tiny" xmlns="http://www.w3.org/2000/svg" xmlns:xlink="http://www.w3.org/1999/xlink" x="0px"
	 y="0px" viewBox="0 0 334 334" xml:space="preserve">
<g id="Layer_1">
	<g>
		<path fill="#ADADAD" d="M0,222.03833v21.81982C18.75476,283.84863,51.50995,316.01318,91.92194,334h23.23578
			C61.06958,317.47559,17.99707,275.47314,0,222.03833z"/>
		<path fill="#ADADAD" d="M166.33154,186.56641c11.25,0,20.40234-9.15234,20.40234-20.40234s-9.15234-20.40234-20.40234-20.40234
			c-11.24072,0-20.38574,9.15234-20.38574,20.40234S155.09082,186.56641,166.33154,186.56641z M166.33154,153.91309
			c6.75586,0,12.25195,5.49609,12.25195,12.25098c0,6.75586-5.49609,12.25195-12.25195,12.25195
			c-6.74609,0-12.23486-5.49609-12.23486-12.25195C154.09668,159.40918,159.58545,153.91309,166.33154,153.91309z"/>
		<path fill="#ADADAD" d="M0,316.65088v11.88525c1.80585,1.84912,3.63489,3.67529,5.50085,5.46387h12.0387
			C11.38452,328.53711,5.52362,322.75049,0,316.65088z"/>
		<path fill="#ADADAD" d="M166.33154,235.52246c38.24463,0,69.3584-31.11426,69.3584-69.3584s-31.11377-69.3584-69.3584-69.3584
			s-69.3584,31.11426-69.3584,69.3584S128.08691,235.52246,166.33154,235.52246z M166.33154,104.95703
			c33.75,0,61.20752,27.45703,61.20752,61.20703s-27.45752,61.20801-61.20752,61.20801s-61.20801-27.45801-61.20801-61.20801
			S132.58154,104.95703,166.33154,104.95703z"/>
		<path fill="#ADADAD" d="M166.33154,202.88574c20.24805,0,36.72119-16.47363,36.72119-36.72168s-16.47314-36.7207-36.72119-36.7207
			s-36.72119,16.47266-36.72119,36.7207S146.0835,202.88574,166.33154,202.88574z M166.33154,137.59375
			c15.75342,0,28.57031,12.81641,28.57031,28.57031s-12.81689,28.57031-28.57031,28.57031
			c-15.74463,0-28.55371-12.81641-28.55371-28.57031S150.58691,137.59375,166.33154,137.59375z"/>
		<path fill="#ADADAD" d="M166.33154,251.8418c47.24268,0,85.67725-38.43457,85.67725-85.67773
			c0-47.24219-38.43457-85.67676-85.67725-85.67676S80.6543,118.92188,80.6543,166.16406
			C80.6543,213.40723,119.08887,251.8418,166.33154,251.8418z M166.33154,88.6377c42.74805,0,77.52637,34.77832,77.52637,77.52637
			s-34.77832,77.52637-77.52637,77.52637s-77.52637-34.77832-77.52637-77.52637S123.5835,88.6377,166.33154,88.6377z"/>
		<path fill="#ADADAD" d="M166.31445,317.13281c83.24463,0,150.96875-67.72461,150.96875-150.96875
			S249.55908,15.19531,166.31445,15.19531c-83.23535,0-150.95166,67.72461-150.95166,150.96875
			S83.0791,317.13281,166.31445,317.13281z M166.31445,23.34668c78.75,0,142.81787,64.06738,142.81787,142.81738
			s-64.06787,142.81836-142.81787,142.81836c-78.74072,0-142.80127-64.06836-142.80127-142.81836
			S87.57373,23.34668,166.31445,23.34668z"/>
		<path fill="#ADADAD" d="M166.31445,300.81445c74.24609,0,134.6499-60.4043,134.6499-134.65039
			S240.56055,31.51465,166.31445,31.51465c-74.2373,0-134.6333,60.40332-134.6333,134.64941S92.07715,300.81445,166.31445,300.81445
			z M166.33154,39.68164c69.74268,0,126.48242,56.74023,126.48242,126.48242s-56.73975,126.48242-126.48242,126.48242
			c-69.75195,0-126.49951-56.74023-126.49951-126.48242S96.57959,39.68164,166.33154,39.68164z"/>
		<path fill="#ADADAD" d="M166.33154,333.45215c92.24268,0,167.2876-75.04492,167.2876-167.28809
			c0-85.70508-64.78906-156.55127-147.9599-166.16406h-38.65533C69.69019,8.93591,8.26807,70.78491,0,148.29688v35.73438
			C8.94647,267.90405,80.12439,333.45215,166.33154,333.45215z M166.31445,7.02734
			c87.74805,0,159.13672,71.38867,159.13672,159.13672S254.0625,325.30078,166.31445,325.30078
			c-87.73877,0-159.11963-71.38867-159.11963-159.13672S78.57568,7.02734,166.31445,7.02734z"/>
		<path fill="#ADADAD" d="M166.33154,284.47852c65.23877,0,118.31445-53.0752,118.31445-118.31445
			S231.57031,47.84961,166.33154,47.84961C101.08301,47.84961,48,100.9248,48,166.16406S101.08301,284.47852,166.33154,284.47852z
			 M166.33154,56.00098c60.74414,0,110.16357,49.41895,110.16357,110.16309s-49.41943,110.16406-110.16357,110.16406
			c-60.75391,0-110.18066-49.41992-110.18066-110.16406S105.57764,56.00098,166.33154,56.00098z"/>
		<path fill="#ADADAD" d="M0,291.06836v13.12402C9.05164,315.08154,19.15314,325.06592,30.14233,334h13.32178
			C26.96509,321.88892,12.30573,307.41455,0,291.06836z"/>
		<path fill="#ADADAD" d="M0,261.54199v15.41797C15.18164,299.67627,34.88623,319.12183,57.81934,334h15.82153
			C42.9986,317.00977,17.46527,291.88232,0,261.54199z"/>
		<path fill="#ADADAD" d="M166.33154,170.24805c2.25195,0,4.08398-1.83203,4.08398-4.08398
			c0-2.25098-1.83203-4.08301-4.08398-4.08301c-2.24268,0-4.06689,1.83203-4.06689,4.08301
			C162.26465,168.41602,164.08887,170.24805,166.33154,170.24805z"/>
		<path fill="#ADADAD" d="M166.33154,268.16016c56.24072,0,101.99561-45.75488,101.99561-101.99609
			c0-56.24023-45.75488-101.99512-101.99561-101.99512c-56.25,0-102.0127,45.75488-102.0127,101.99512
			C64.31885,222.40527,110.08154,268.16016,166.33154,268.16016z M166.33154,72.31934
			c51.74658,0,93.84521,42.09863,93.84521,93.84473c0,51.74707-42.09863,93.8457-93.84521,93.8457
			s-93.84521-42.09863-93.84521-93.8457C72.48633,114.41797,114.58496,72.31934,166.33154,72.31934z"/>
		<path fill="#ADADAD" d="M166.33154,219.2041c29.24609,0,53.03955-23.79395,53.03955-53.04004S195.57764,113.125,166.33154,113.125
			c-29.24658,0-53.04004,23.79297-53.04004,53.03906S137.08496,219.2041,166.33154,219.2041z M166.33154,121.27539
			c24.75195,0,44.88916,20.13672,44.88916,44.88867s-20.13721,44.88965-44.88916,44.88965s-44.88916-20.1377-44.88916-44.88965
			S141.57959,121.27539,166.33154,121.27539z"/>
		<path fill="#ADADAD" d="M41.20892,0H28.10571C17.90222,8.50232,8.4903,17.92236,0,28.13623v13.12354
			C11.74298,25.66113,25.62628,11.76318,41.20892,0z"/>
		<path fill="#ADADAD" d="M334,327.15479v-12.00977c-5.91577,6.65039-12.21924,12.94653-18.87628,18.85498h12.02716
			C329.48126,331.76611,331.76373,329.48291,334,327.15479z"/>
		<path fill="#ADADAD" d="M15.65686,0H3.78912C2.5116,1.24976,1.24866,2.51392,0,3.79248v11.8855
			C4.96039,10.20044,10.18488,4.96655,15.65686,0z"/>
		<path fill="#ADADAD" d="M334,114.43018V91.37354C316.03473,51.25635,284.08221,18.7229,244.38239,0h-21.67566
			C275.71948,18.03442,317.40997,60.77271,334,114.43018z"/>
		<path fill="#ADADAD" d="M334,43.06714V29.76709C325.16333,18.92505,315.30121,8.95215,304.55774,0h-13.10358
			C307.63477,12.21448,321.9776,26.73535,334,43.06714z"/>
		<path fill="#ADADAD" d="M334,302.56152v-13.30054C321.42273,306.34644,306.30219,321.44556,289.19897,334h13.3222
			C314.05585,324.62231,324.60846,314.08447,334,302.56152z"/>
		<path fill="#ADADAD" d="M334,240.95508v-23.05664C316.8714,273.29834,272.98315,317.05127,217.50562,334h23.23553
			C282.12744,315.57959,315.48853,282.29224,334,240.95508z"/>
		<path fill="#ADADAD" d="M334,274.93066v-15.77734C316.51276,290.55981,290.46265,316.56714,259.02222,334h15.82153
			C298.45654,318.68066,318.64581,298.51855,334,274.93066z"/>
		<path fill="#ADADAD" d="M70.67139,0H55.28162C33.43054,14.65112,14.6189,33.4939,0,55.36829v15.41833
			C16.89893,41.43066,41.3468,16.94763,70.67139,0z"/>
		<path fill="#ADADAD" d="M334,17.18408V5.17371c-1.68378-1.75293-3.40002-3.474-5.13745-5.17371h-11.85614
			C322.9754,5.4176,328.64197,11.16064,334,17.18408z"/>
		<path fill="#ADADAD" d="M109.9566,0H88.2807C49.54388,18.2688,18.18805,49.68872,0,88.4707v21.81958
			C17.41669,58.5791,58.31464,17.56812,109.9566,0z"/>
		<path fill="#ADADAD" d="M334,73.17529V57.39758C319.19855,34.65857,299.90515,15.10217,277.38147,0H261.9917
			C292.10571,17.40381,317.06543,42.76172,334,73.17529z"/>
		<path fill="#525252" d="M166.33154,178.41602c6.75586,0,12.25195-5.49609,12.25195-12.25195
			c0-6.75488-5.49609-12.25098-12.25195-12.25098c-6.74609,0-12.23486,5.49609-12.23486,12.25098
			C154.09668,172.91992,159.58545,178.41602,166.33154,178.41602z M166.33154,162.08105c2.25195,0,4.08398,1.83203,4.08398,4.08301
			c0,2.25195-1.83203,4.08398-4.08398,4.08398c-2.24268,0-4.06689-1.83203-4.06689-4.08398
			C162.26465,163.91309,164.08887,162.08105,166.33154,162.08105z"/>
		<path fill="#525252" d="M166.33154,194.73438c15.75342,0,28.57031-12.81641,28.57031-28.57031
			s-12.81689-28.57031-28.57031-28.57031c-15.74463,0-28.55371,12.81641-28.55371,28.57031S150.58691,194.73438,166.33154,194.73438
			z M166.33154,145.76172c11.25,0,20.40234,9.15234,20.40234,20.40234s-9.15234,20.40234-20.40234,20.40234
			c-11.24072,0-20.38574-9.15234-20.38574-20.40234S155.09082,145.76172,166.33154,145.76172z"/>
		<path fill="#525252" d="M166.33154,211.05371c24.75195,0,44.88916-20.1377,44.88916-44.88965
			s-20.13721-44.88867-44.88916-44.88867s-44.88916,20.13672-44.88916,44.88867S141.57959,211.05371,166.33154,211.05371z
			 M166.33154,129.44336c20.24805,0,36.72119,16.47266,36.72119,36.7207s-16.47314,36.72168-36.72119,36.72168
			s-36.72119-16.47363-36.72119-36.72168S146.0835,129.44336,166.33154,129.44336z"/>
		<path fill="#525252" d="M166.33154,227.37207c33.75,0,61.20752-27.45801,61.20752-61.20801s-27.45752-61.20703-61.20752-61.20703
			s-61.20801,27.45703-61.20801,61.20703S132.58154,227.37207,166.33154,227.37207z M166.33154,113.125
			c29.24609,0,53.03955,23.79297,53.03955,53.03906s-23.79346,53.04004-53.03955,53.04004
			c-29.24658,0-53.04004-23.79395-53.04004-53.04004S137.08496,113.125,166.33154,113.125z"/>
		<path fill="#525252" d="M166.33154,243.69043c42.74805,0,77.52637-34.77832,77.52637-77.52637
			S209.07959,88.6377,166.33154,88.6377s-77.52637,34.77832-77.52637,77.52637S123.5835,243.69043,166.33154,243.69043z
			 M166.33154,96.80566c38.24463,0,69.3584,31.11426,69.3584,69.3584s-31.11377,69.3584-69.3584,69.3584
			s-69.3584-31.11426-69.3584-69.3584S128.08691,96.80566,166.33154,96.80566z"/>
		<path fill="#525252" d="M166.33154,260.00977c51.74658,0,93.84521-42.09863,93.84521-93.8457
			c0-51.74609-42.09863-93.84473-93.84521-93.84473s-93.84521,42.09863-93.84521,93.84473
			C72.48633,217.91113,114.58496,260.00977,166.33154,260.00977z M166.33154,80.4873
			c47.24268,0,85.67725,38.43457,85.67725,85.67676c0,47.24316-38.43457,85.67773-85.67725,85.67773
			S80.6543,213.40723,80.6543,166.16406C80.6543,118.92188,119.08887,80.4873,166.33154,80.4873z"/>
		<path fill="#525252" d="M166.33154,276.32812c60.74414,0,110.16357-49.41992,110.16357-110.16406
			S227.07568,56.00098,166.33154,56.00098c-60.75391,0-110.18066,49.41895-110.18066,110.16309
			S105.57764,276.32812,166.33154,276.32812z M166.33154,64.16895c56.24072,0,101.99561,45.75488,101.99561,101.99512
			c0,56.24121-45.75488,101.99609-101.99561,101.99609c-56.25,0-102.0127-45.75488-102.0127-101.99609
			C64.31885,109.92383,110.08154,64.16895,166.33154,64.16895z"/>
		<path fill="#525252" d="M166.33154,292.64648c69.74268,0,126.48242-56.74023,126.48242-126.48242
			S236.07422,39.68164,166.33154,39.68164c-69.75195,0-126.49951,56.74023-126.49951,126.48242
			S96.57959,292.64648,166.33154,292.64648z M166.33154,47.84961c65.23877,0,118.31445,53.0752,118.31445,118.31445
			s-53.07568,118.31445-118.31445,118.31445C101.08301,284.47852,48,231.40332,48,166.16406S101.08301,47.84961,166.33154,47.84961z
			"/>
		<path fill="#525252" d="M166.31445,308.98242c78.75,0,142.81787-64.06836,142.81787-142.81836
			S245.06445,23.34668,166.31445,23.34668c-78.74072,0-142.80127,64.06738-142.80127,142.81738
			S87.57373,308.98242,166.31445,308.98242z M166.31445,31.51465c74.24609,0,134.6499,60.40332,134.6499,134.64941
			s-60.40381,134.65039-134.6499,134.65039c-74.2373,0-134.6333-60.4043-134.6333-134.65039S92.07715,31.51465,166.31445,31.51465z"
			/>
		<path fill="#525252" d="M166.31445,325.30078c87.74805,0,159.13672-71.38867,159.13672-159.13672
			S254.0625,7.02734,166.31445,7.02734c-87.73877,0-159.11963,71.38867-159.11963,159.13672S78.57568,325.30078,166.31445,325.30078
			z M166.31445,15.19531c83.24463,0,150.96875,67.72461,150.96875,150.96875s-67.72412,150.96875-150.96875,150.96875
			c-83.23535,0-150.95166-67.72461-150.95166-150.96875S83.0791,15.19531,166.31445,15.19531z"/>
		<path fill="#525252" d="M334,217.89844V114.43018C317.40997,60.77271,275.71948,18.03442,222.70673,0h-37.04749
			c83.17084,9.61279,147.9599,80.45898,147.9599,166.16406c0,92.24316-75.04492,167.28809-167.2876,167.28809
			c-86.20715,0-157.38507-65.5481-166.33154-149.4209v38.00708C17.99707,275.47314,61.06958,317.47559,115.15771,334h102.3479
			C272.98315,317.05127,316.8714,273.29834,334,217.89844z"/>
		<path fill="#525252" d="M147.00391,0h-37.0473C58.31464,17.56812,17.41669,58.5791,0,110.29028v38.00659
			C8.26807,70.78491,69.69019,8.93591,147.00391,0z"/>
		<path fill="#525252" d="M0,243.85815v17.68384C17.46527,291.88232,42.9986,317.00977,73.64087,334h18.28107
			C51.50995,316.01318,18.75476,283.84863,0,243.85815z"/>
		<path fill="#525252" d="M334,91.37354V73.17529C317.06543,42.76172,292.10571,17.40381,261.9917,0h-17.60931
			C284.08221,18.7229,316.03473,51.25635,334,91.37354z"/>
		<path fill="#525252" d="M88.2807,0H70.67139C41.3468,16.94763,16.89893,41.43066,0,70.78662V88.4707
			C18.18805,49.68872,49.54388,18.2688,88.2807,0z"/>
		<path fill="#525252" d="M334,259.15332v-18.19824C315.48853,282.29224,282.12744,315.57959,240.74115,334h18.28107
			C290.46265,316.56714,316.51276,290.55981,334,259.15332z"/>
		<path fill="#525252" d="M334,289.26099v-14.33032c-15.35419,23.58789-35.54346,43.75-59.15625,59.06934h14.35522
			C306.30219,321.44556,321.42273,306.34644,334,289.26099z"/>
		<path fill="#525252" d="M334,57.39758V43.06714C321.9776,26.73535,307.63477,12.21448,291.45416,0h-14.07269
			C299.90515,15.10217,319.19855,34.65857,334,57.39758z"/>
		<path fill="#525252" d="M0,276.95996v14.1084C12.30573,307.41455,26.96509,321.88892,43.46411,334h14.35522
			C34.88623,319.12183,15.18164,299.67627,0,276.95996z"/>
		<path fill="#525252" d="M55.28162,0H41.20892C25.62628,11.76318,11.74298,25.66113,0,41.25977v14.10852
			C14.6189,33.4939,33.43054,14.65112,55.28162,0z"/>
		<path fill="#525252" d="M0,304.19238v12.4585C5.52362,322.75049,11.38452,328.53711,17.53955,334h12.60278
			C19.15314,325.06592,9.05164,315.08154,0,304.19238z"/>
		<path fill="#525252" d="M334,315.14502v-12.5835c-9.39154,11.52295-19.94415,22.06079-31.47882,31.43848h12.60254
			C321.78076,328.09155,328.08423,321.79541,334,315.14502z"/>
		<path fill="#525252" d="M334,29.76709V17.18408C328.64197,11.16064,322.9754,5.4176,317.00641,0h-12.44867
			C315.30121,8.95215,325.16333,18.92505,334,29.76709z"/>
		<path fill="#525252" d="M28.10571,0H15.65686C10.18488,4.96655,4.96039,10.20044,0,15.67798v12.45825
			C8.4903,17.92236,17.90222,8.50232,28.10571,0z"/>
		<path fill="#525252" d="M327.15088,334H334v-6.84521C331.76373,329.48291,329.48126,331.76611,327.15088,334z"/>
		<path fill="#525252" d="M3.78912,0H0v3.79248C1.24866,2.51392,2.5116,1.24976,3.78912,0z"/>
		<path fill="#525252" d="M0,328.53613V334h5.50085C3.63489,332.21143,1.80585,330.38525,0,328.53613z"/>
		<path fill="#525252" d="M334,5.17371V0h-5.13745C330.59998,1.69971,332.31622,3.42078,334,5.17371z"/>
	</g>
</g>
<g id="Layer_3" display="none">
</g>
<g id="Layer_2" display="none">
</g>
</svg>
