<?xml version="1.0" encoding="utf-8"?>
<!-- Generator: Adobe Illustrator 21.1.0, SVG Export Plug-In . SVG Version: 6.00 Build 0)  -->
<svg version="1.2" baseProfile="tiny" xmlns="http://www.w3.org/2000/svg" xmlns:xlink="http://www.w3.org/1999/xlink" x="0px"
	 y="0px" viewBox="0 0 334 334" xml:space="preserve">
<g id="Layer_1">
	<g>
		<path fill="#CCCCCC" d="M42.15985,0H0v42.67596C11.93549,26.51099,26.14655,12.12701,42.15985,0z"/>
		<path fill="#CCCCCC" d="M167.66797,147.22369c-10.43457,0-18.92432,8.49707-18.92432,18.94092
			c0,10.44427,8.48975,18.94135,18.92432,18.94135c10.44385,0,18.94092-8.49707,18.94092-18.94135
			C186.60889,155.72076,178.11182,147.22369,167.66797,147.22369z"/>
		<path fill="#CCCCCC" d="M334,40.86438V0h-40.81378C308.60059,11.67255,322.34723,25.43427,334,40.86438z"/>
		<path fill="#CCCCCC" d="M290.94629,334H334v-42.53467C321.78601,307.63867,307.27039,321.97748,290.94629,334z"/>
		<path fill="#CCCCCC" d="M167.66797,71.47614c-52.21143,0-94.68848,42.47705-94.68848,94.68848
			c0,52.21136,42.47705,94.6889,94.68848,94.6889s94.68848-42.47754,94.68848-94.6889
			C262.35645,113.95319,219.87939,71.47614,167.66797,71.47614z M167.66797,222.98779
			c-31.32324,0-56.80615-25.49072-56.80615-56.82318c0-31.33203,25.48291-56.82275,56.80615-56.82275
			c31.33203,0,56.82275,25.49072,56.82275,56.82275C224.49072,197.49707,199,222.98779,167.66797,222.98779z"/>
		<path fill="#CCCCCC" d="M334,203.4585v-74.58759C319.69324,65.02313,269.4671,14.59271,205.72656,0H129.6131
			C63.68665,15.0946,12.21368,68.53296,0,135.50403v61.32129C12.71704,266.55646,67.99542,321.61774,137.83472,334h59.66943
			C265.11969,322.01318,319.08337,270.02814,334,203.4585z M167.66797,298.73535c-73.09961,0-132.57031-59.4707-132.57031-132.57074
			c0-73.09961,59.4707-132.57031,132.57031-132.57031S300.23828,93.065,300.23828,166.16461
			C300.23828,239.26465,240.76758,298.73535,167.66797,298.73535z"/>
		<path fill="#CCCCCC" d="M0,289.65375V334h44.39954C27.4704,321.53088,12.48877,306.56818,0,289.65375z"/>
		<path fill="#333333" d="M167.66797,109.34186c-31.32324,0-56.80615,25.49072-56.80615,56.82275
			c0,31.33246,25.48291,56.82318,56.80615,56.82318c31.33203,0,56.82275-25.49072,56.82275-56.82318
			C224.49072,134.83258,199,109.34186,167.66797,109.34186z M167.66797,185.10596c-10.43457,0-18.92432-8.49707-18.92432-18.94135
			c0-10.44385,8.48975-18.94092,18.92432-18.94092c10.44385,0,18.94092,8.49707,18.94092,18.94092
			C186.60889,176.60889,178.11182,185.10596,167.66797,185.10596z"/>
		<path fill="#333333" d="M167.66797,33.5943c-73.09961,0-132.57031,59.4707-132.57031,132.57031
			c0,73.10004,59.4707,132.57074,132.57031,132.57074s132.57031-59.4707,132.57031-132.57074
			C300.23828,93.065,240.76758,33.5943,167.66797,33.5943z M167.66797,260.85352c-52.21143,0-94.68848-42.47754-94.68848-94.6889
			c0-52.21143,42.47705-94.68848,94.68848-94.68848s94.68848,42.47705,94.68848,94.68848
			C262.35645,218.37598,219.87939,260.85352,167.66797,260.85352z"/>
		<path fill="#333333" d="M129.6131,0H42.15985C26.14655,12.12701,11.93549,26.51099,0,42.67596v92.82806
			C12.21368,68.53296,63.68665,15.0946,129.6131,0z"/>
		<path fill="#333333" d="M334,291.46533V203.4585C319.08337,270.02814,265.11969,322.01318,197.50415,334h93.44214
			C307.27039,321.97748,321.78601,307.63867,334,291.46533z"/>
		<path fill="#333333" d="M334,128.87091V40.86438C322.34723,25.43427,308.60059,11.67255,293.18622,0h-87.45966
			C269.4671,14.59271,319.69324,65.02313,334,128.87091z"/>
		<path fill="#333333" d="M0,196.82532v92.82843C12.48877,306.56818,27.4704,321.53088,44.39954,334h93.43518
			C67.99542,321.61774,12.71704,266.55646,0,196.82532z"/>
	</g>
</g>
<g id="Layer_3" display="none">
</g>
<g id="Layer_2" display="none">
</g>
</svg>
