<?xml version="1.0" encoding="utf-8"?>
<!-- Generator: Adobe Illustrator 21.1.0, SVG Export Plug-In . SVG Version: 6.00 Build 0)  -->
<svg version="1.2" baseProfile="tiny" xmlns="http://www.w3.org/2000/svg" xmlns:xlink="http://www.w3.org/1999/xlink" x="0px"
	 y="0px" viewBox="0 0 334 334" xml:space="preserve">
<g id="Layer_1">
	<g>
		<circle fill="#909090" cx="167.66821" cy="167.50073" r="5.27002"/>
		<path fill="#909090" d="M0,244.30762v22.60767C16.30237,294.30566,39.11438,317.38843,66.29822,334H88.3623
			C49.45068,315.39111,18.04175,283.53589,0,244.30762z"/>
		<path fill="#909090" d="M334,46.93567V29.75769C324.98535,18.89062,314.92468,8.92358,303.97998,0h-17.34814
			C304.84717,12.97461,320.85498,28.85083,334,46.93567z"/>
		<path fill="#909090" d="M167.66797,141.15137c-14.52881,0-26.34863,11.82031-26.34863,26.34961
			c0,14.52832,11.81982,26.34863,26.34863,26.34863s26.34912-11.82031,26.34912-26.34863
			C194.01709,152.97168,182.19678,141.15137,167.66797,141.15137z M167.66797,183.30957
			c-8.7168,0-15.80859-7.0918-15.80859-15.80859c0-8.71777,7.0918-15.80957,15.80859-15.80957
			c8.71777,0,15.80957,7.0918,15.80957,15.80957C183.47754,176.21777,176.38574,183.30957,167.66797,183.30957z"/>
		<path fill="#909090" d="M167.66846,98.99414c-37.7749,0-68.50732,30.73242-68.50732,68.50684s30.73242,68.50684,68.50732,68.50684
			s68.50684-30.73242,68.50684-68.50684S205.44336,98.99414,167.66846,98.99414z M167.66797,225.46777
			c-31.96289,0-57.9668-26.00391-57.9668-57.9668c0-31.96387,26.00391-57.96777,57.9668-57.96777
			c31.96338,0,57.96729,26.00391,57.96729,57.96777C225.63525,199.46387,199.63135,225.46777,167.66797,225.46777z"/>
		<path fill="#909090" d="M0,286.22778v17.37769C9.02075,314.69702,19.10962,324.88635,30.12231,334h17.20923
			C29.07312,320.76709,13.0603,304.61792,0,286.22778z"/>
		<path fill="#909090" d="M167.66846,77.91504c-49.39795,0-89.58594,40.18848-89.58594,89.58594
			s40.18799,89.58594,89.58594,89.58594s89.58594-40.18848,89.58594-89.58594S217.06641,77.91504,167.66846,77.91504z
			 M167.66846,246.54688c-43.58643,0-79.04639-35.45996-79.04639-79.0459s35.45996-79.0459,79.04639-79.0459
			s79.0459,35.45996,79.0459,79.0459S211.25488,246.54688,167.66846,246.54688z"/>
		<path fill="#909090" d="M15.21375,0H0v15.22632C4.82849,9.91455,9.90723,4.83423,15.21375,0z"/>
		<path fill="#909090" d="M334,13.79126V0h-13.87781C324.94556,4.39404,329.57019,9.00122,334,13.79126z"/>
		<path fill="#909090" d="M334,87.83813V65.86401C317.45776,38.8916,294.54126,16.23706,267.36438,0h-22.53271
			C283.77649,18.0127,315.42432,49.20898,334,87.83813z"/>
		<path fill="#909090" d="M48.70386,0h-17.3479C19.86499,9.3689,9.35498,19.8938,0,31.39636v17.37756
			C13.38843,29.92188,29.87134,13.41431,48.70386,0z"/>
		<path fill="#909090" d="M0,319.77539V334h14.13782C9.22278,329.46436,4.49878,324.72461,0,319.77539z"/>
		<path fill="#909090" d="M90.50415,0H67.97144C40.05249,16.68042,16.63489,40.13745,0,68.08655v22.60779
			C18.37109,50.74951,50.6051,18.4541,90.50415,0z"/>
		<path fill="#909090" d="M167.66797,120.07227c-26.15186,0-47.42773,21.27637-47.42773,47.42871
			c0,26.15137,21.27588,47.42773,47.42773,47.42773s47.42822-21.27637,47.42822-47.42773
			C215.09619,141.34863,193.81982,120.07227,167.66797,120.07227z M167.66797,204.38867
			c-20.33984,0-36.8877-16.54785-36.8877-36.8877c0-20.34082,16.54785-36.88867,36.8877-36.88867
			c20.34033,0,36.88818,16.54785,36.88818,36.88867C204.55615,187.84082,188.0083,204.38867,167.66797,204.38867z"/>
		<path fill="#909090" d="M334,269.13794v-21.97437C315.76562,285.08301,284.9375,315.84424,246.97351,334h22.06409
			C295.48413,317.83887,317.79736,295.55627,334,269.13794z"/>
		<path fill="#909090" d="M167.66846,14.67773c-84.26709,0-152.82324,68.55664-152.82324,152.82324
			s68.55615,152.82227,152.82324,152.82227c84.2666,0,152.82275-68.55566,152.82275-152.82227
			S251.93506,14.67773,167.66846,14.67773z M167.66846,309.78418c-78.45557,0-142.2832-63.82812-142.2832-142.2832
			s63.82764-142.2832,142.2832-142.2832s142.2832,63.82812,142.2832,142.2832S246.12402,309.78418,167.66846,309.78418z"/>
		<path fill="#909090" d="M167.66846,56.83594c-61.021,0-110.66504,49.64453-110.66504,110.66504
			s49.64404,110.66504,110.66504,110.66504S278.3335,228.52148,278.3335,167.50098S228.68945,56.83594,167.66846,56.83594z
			 M167.66846,267.62598c-55.20947,0-100.125-44.91602-100.125-100.125s44.91553-100.125,100.125-100.125
			s100.125,44.91602,100.125,100.125S222.87793,267.62598,167.66846,267.62598z"/>
		<path fill="#909090" d="M334,218.27783V116.72412C316.73364,60.27539,271.46399,15.94458,214.45654,0h-93.57715
			C62.33118,16.37561,16.16602,62.6936,0,121.32812v92.3457C15.84912,271.15845,60.53357,316.8009,117.45117,334h100.43359
			C273.27454,317.26245,317.0813,273.58948,334,218.27783z M167.66846,330.8623c-90.07861,0-163.3623-73.2832-163.3623-163.36133
			S77.58984,4.13867,167.66846,4.13867c90.07812,0,163.36182,73.28418,163.36182,163.3623S257.74658,330.8623,167.66846,330.8623z"
			/>
		<path fill="#909090" d="M334,321.21045c-4.09717,4.43018-8.36719,8.69714-12.80188,12.78955H334V321.21045z"/>
		<path fill="#909090" d="M167.66846,35.75684c-72.64404,0-131.74414,59.10059-131.74414,131.74414
			s59.1001,131.74414,131.74414,131.74414S299.4126,240.14453,299.4126,167.50098S240.3125,35.75684,167.66846,35.75684z
			 M167.66846,288.70508c-66.83252,0-121.2041-54.37207-121.2041-121.2041s54.37158-121.2041,121.2041-121.2041
			s121.2041,54.37207,121.2041,121.2041S234.50098,288.70508,167.66846,288.70508z"/>
		<path fill="#909090" d="M334,305.24414v-17.17798C321.18799,305.69287,305.64929,321.21167,288.00427,334h17.20935
			C315.68335,325.33569,325.32349,315.70337,334,305.24414z"/>
		<path fill="#6F6F6F" d="M167.66797,151.69141c-8.7168,0-15.80859,7.0918-15.80859,15.80957
			c0,8.7168,7.0918,15.80859,15.80859,15.80859c8.71777,0,15.80957-7.0918,15.80957-15.80859
			C183.47754,158.7832,176.38574,151.69141,167.66797,151.69141z M167.66797,172.77051c-2.90527,0-5.26953-2.36426-5.26953-5.26953
			c0-2.90625,2.36426-5.27051,5.26953-5.27051c2.90625,0,5.27051,2.36426,5.27051,5.27051
			C172.93848,170.40625,170.57422,172.77051,167.66797,172.77051z"/>
		<path fill="#6F6F6F" d="M167.66797,130.6123c-20.33984,0-36.8877,16.54785-36.8877,36.88867
			c0,20.33984,16.54785,36.8877,36.8877,36.8877c20.34033,0,36.88818-16.54785,36.88818-36.8877
			C204.55615,147.16016,188.0083,130.6123,167.66797,130.6123z M167.66797,193.84961
			c-14.52881,0-26.34863-11.82031-26.34863-26.34863c0-14.5293,11.81982-26.34961,26.34863-26.34961
			s26.34912,11.82031,26.34912,26.34961C194.01709,182.0293,182.19678,193.84961,167.66797,193.84961z"/>
		<path fill="#6F6F6F" d="M167.66797,109.5332c-31.96289,0-57.9668,26.00391-57.9668,57.96777
			c0,31.96289,26.00391,57.9668,57.9668,57.9668c31.96338,0,57.96729-26.00391,57.96729-57.9668
			C225.63525,135.53711,199.63135,109.5332,167.66797,109.5332z M167.66797,214.92871
			c-26.15186,0-47.42773-21.27637-47.42773-47.42773c0-26.15234,21.27588-47.42871,47.42773-47.42871
			s47.42822,21.27637,47.42822,47.42871C215.09619,193.65234,193.81982,214.92871,167.66797,214.92871z"/>
		<path fill="#6F6F6F" d="M167.66846,88.45508c-43.58643,0-79.04639,35.45996-79.04639,79.0459s35.45996,79.0459,79.04639,79.0459
			s79.0459-35.45996,79.0459-79.0459S211.25488,88.45508,167.66846,88.45508z M167.66846,236.00781
			c-37.7749,0-68.50732-30.73242-68.50732-68.50684s30.73242-68.50684,68.50732-68.50684s68.50684,30.73242,68.50684,68.50684
			S205.44336,236.00781,167.66846,236.00781z"/>
		<path fill="#6F6F6F" d="M167.66846,67.37598c-55.20947,0-100.125,44.91602-100.125,100.125s44.91553,100.125,100.125,100.125
			s100.125-44.91602,100.125-100.125S222.87793,67.37598,167.66846,67.37598z M167.66846,257.08691
			c-49.39795,0-89.58594-40.18848-89.58594-89.58594s40.18799-89.58594,89.58594-89.58594s89.58594,40.18848,89.58594,89.58594
			S217.06641,257.08691,167.66846,257.08691z"/>
		<path fill="#6F6F6F" d="M167.66846,46.29688c-66.83252,0-121.2041,54.37207-121.2041,121.2041
			s54.37158,121.2041,121.2041,121.2041s121.2041-54.37207,121.2041-121.2041S234.50098,46.29688,167.66846,46.29688z
			 M167.66846,278.16602c-61.021,0-110.66504-49.64453-110.66504-110.66504S106.64746,56.83594,167.66846,56.83594
			S278.3335,106.48047,278.3335,167.50098S228.68945,278.16602,167.66846,278.16602z"/>
		<path fill="#6F6F6F" d="M167.66846,25.21777c-78.45557,0-142.2832,63.82812-142.2832,142.2832
			s63.82764,142.2832,142.2832,142.2832s142.2832-63.82812,142.2832-142.2832S246.12402,25.21777,167.66846,25.21777z
			 M167.66846,299.24512c-72.64404,0-131.74414-59.10059-131.74414-131.74414S95.02441,35.75684,167.66846,35.75684
			S299.4126,94.85742,299.4126,167.50098S240.3125,299.24512,167.66846,299.24512z"/>
		<path fill="#6F6F6F" d="M167.66846,4.13867c-90.07861,0-163.3623,73.28418-163.3623,163.3623
			S77.58984,330.8623,167.66846,330.8623c90.07812,0,163.36182-73.2832,163.36182-163.36133S257.74658,4.13867,167.66846,4.13867z
			 M167.66846,320.32324c-84.26709,0-152.82324-68.55566-152.82324-152.82227S83.40137,14.67773,167.66846,14.67773
			c84.2666,0,152.82275,68.55664,152.82275,152.82324S251.93506,320.32324,167.66846,320.32324z"/>
		<path fill="#6F6F6F" d="M0,213.67383v30.63379C18.04175,283.53589,49.45068,315.39111,88.3623,334h29.08887
			C60.53357,316.8009,15.84912,271.15845,0,213.67383z"/>
		<path fill="#6F6F6F" d="M334,116.72412V87.83813C315.42432,49.20898,283.77649,18.0127,244.83167,0h-30.37512
			C271.46399,15.94458,316.73364,60.27539,334,116.72412z"/>
		<path fill="#6F6F6F" d="M334,247.16357v-28.88574C317.0813,273.58948,273.27454,317.26245,217.88477,334h29.08875
			C284.9375,315.84424,315.76562,285.08301,334,247.16357z"/>
		<path fill="#6F6F6F" d="M120.87939,0H90.50415C50.6051,18.4541,18.37109,50.74951,0,90.69434v30.63379
			C16.16602,62.6936,62.33118,16.37561,120.87939,0z"/>
		<path fill="#6F6F6F" d="M334,65.86401V46.93567C320.85498,28.85083,304.84717,12.97461,286.63184,0h-19.26746
			C294.54126,16.23706,317.45776,38.8916,334,65.86401z"/>
		<path fill="#6F6F6F" d="M67.97144,0H48.70386C29.87134,13.41431,13.38843,29.92188,0,48.77393v19.31262
			C16.63489,40.13745,40.05249,16.68042,67.97144,0z"/>
		<path fill="#6F6F6F" d="M334,288.06616v-18.92822C317.79736,295.55627,295.48413,317.83887,269.0376,334h18.96667
			C305.64929,321.21167,321.18799,305.69287,334,288.06616z"/>
		<path fill="#6F6F6F" d="M0,266.91528v19.3125C13.0603,304.61792,29.07312,320.76709,47.33154,334h18.96667
			C39.11438,317.38843,16.30237,294.30566,0,266.91528z"/>
		<path fill="#6F6F6F" d="M0,303.60547v16.16992C4.49878,324.72461,9.22278,329.46436,14.13782,334h15.9845
			C19.10962,324.88635,9.02075,314.69702,0,303.60547z"/>
		<path fill="#6F6F6F" d="M334,321.21045v-15.96631c-8.67651,10.45923-18.31665,20.09155-28.78638,28.75586h15.9845
			C325.63281,329.90759,329.90283,325.64062,334,321.21045z"/>
		<path fill="#6F6F6F" d="M334,29.75769V13.79126C329.57019,9.00122,324.94556,4.39404,320.12219,0h-16.14221
			C314.92468,8.92358,324.98535,18.89062,334,29.75769z"/>
		<path fill="#6F6F6F" d="M31.35596,0H15.21375C9.90723,4.83423,4.82849,9.91455,0,15.22632v16.17004
			C9.35498,19.8938,19.86499,9.3689,31.35596,0z"/>
	</g>
</g>
<g id="Layer_3" display="none">
</g>
<g id="Layer_2" display="none">
</g>
</svg>
