<?xml version="1.0" encoding="utf-8"?>
<!-- Generator: Adobe Illustrator 21.1.0, SVG Export Plug-In . SVG Version: 6.00 Build 0)  -->
<svg version="1.2" baseProfile="tiny" xmlns="http://www.w3.org/2000/svg" xmlns:xlink="http://www.w3.org/1999/xlink" x="0px"
	 y="0px" viewBox="0 0 334 334" xml:space="preserve">
<g id="Layer_1">
	<g>
		<circle fill="#CCCCCC" cx="167.66797" cy="167.50073" r="5.27002"/>
		<path fill="#CCCCCC" d="M0,244.30762v22.60767C16.30237,294.30566,39.11438,317.38843,66.29822,334H88.3623
			C49.45068,315.39111,18.04169,283.53589,0,244.30762z"/>
		<path fill="#CCCCCC" d="M334,305.24438v-17.17786C321.18793,305.69312,305.64935,321.21167,288.00446,334h17.20935
			C315.68359,325.33569,325.32343,315.70361,334,305.24438z"/>
		<path fill="#CCCCCC" d="M0,286.22778v17.37793C9.02075,314.69727,19.1095,324.88647,30.12213,334h17.20935
			C29.07312,320.76709,13.0603,304.61792,0,286.22778z"/>
		<path fill="#CCCCCC" d="M321.19836,334H334v-12.78931C329.90295,325.64087,325.633,329.90771,321.19836,334z"/>
		<path fill="#CCCCCC" d="M167.66797,56.83594c-61.021,0-110.66504,49.64453-110.66504,110.66504
			s49.64404,110.66504,110.66504,110.66504s110.66504-49.64453,110.66504-110.66504S228.68896,56.83594,167.66797,56.83594z
			 M167.66797,267.62598c-55.20947,0-100.125-44.91602-100.125-100.125s44.91553-100.125,100.125-100.125
			s100.125,44.91602,100.125,100.125S222.87744,267.62598,167.66797,267.62598z"/>
		<path fill="#CCCCCC" d="M167.66797,14.67773c-84.2666,0-152.82275,68.55664-152.82275,152.82324
			s68.55615,152.82227,152.82275,152.82227c84.26709,0,152.82324-68.55566,152.82324-152.82227
			S251.93506,14.67773,167.66797,14.67773z M167.66797,309.78418c-78.45557,0-142.2832-63.82812-142.2832-142.2832
			s63.82764-142.2832,142.2832-142.2832s142.2832,63.82812,142.2832,142.2832S246.12354,309.78418,167.66797,309.78418z"/>
		<path fill="#CCCCCC" d="M334,46.9353V29.75732C324.98529,18.8905,314.92474,8.92346,303.98016,0h-17.34814
			C304.84729,12.97461,320.85492,28.85046,334,46.9353z"/>
		<path fill="#CCCCCC" d="M167.66797,141.15137c-14.52881,0-26.34912,11.82031-26.34912,26.34961
			c0,14.52832,11.82031,26.34863,26.34912,26.34863s26.34912-11.82031,26.34912-26.34863
			C194.01709,152.97168,182.19678,141.15137,167.66797,141.15137z M167.66797,183.30957
			c-8.71729,0-15.80908-7.0918-15.80908-15.80859c0-8.71777,7.0918-15.80957,15.80908-15.80957s15.80908,7.0918,15.80908,15.80957
			C183.47705,176.21777,176.38525,183.30957,167.66797,183.30957z"/>
		<path fill="#CCCCCC" d="M334,269.13843v-21.974C315.7655,285.0835,284.93738,315.84448,246.97363,334h22.06409
			C295.48401,317.83911,317.79742,295.55664,334,269.13843z"/>
		<path fill="#CCCCCC" d="M334,218.2793V116.72266C316.73315,60.27466,271.46356,15.94458,214.45648,0h-93.57703
			C62.33118,16.37561,16.16608,62.6936,0,121.32812v92.3457C15.84906,271.15845,60.53357,316.8009,117.45123,334H217.8847
			C273.27411,317.2627,317.08093,273.59033,334,218.2793z M167.66797,330.8623c-90.07812,0-163.36182-73.2832-163.36182-163.36133
			S77.58984,4.13867,167.66797,4.13867c90.07861,0,163.3623,73.28418,163.3623,163.3623S257.74658,330.8623,167.66797,330.8623z"/>
		<path fill="#CCCCCC" d="M167.66797,120.07227c-26.15186,0-47.42822,21.27637-47.42822,47.42871
			c0,26.15137,21.27637,47.42773,47.42822,47.42773s47.42822-21.27637,47.42822-47.42773
			C215.09619,141.34863,193.81982,120.07227,167.66797,120.07227z M167.66797,204.38867
			c-20.34033,0-36.88818-16.54785-36.88818-36.8877c0-20.34082,16.54785-36.88867,36.88818-36.88867
			s36.88818,16.54785,36.88818,36.88867C204.55615,187.84082,188.0083,204.38867,167.66797,204.38867z"/>
		<path fill="#CCCCCC" d="M167.66797,77.91504c-49.39795,0-89.58594,40.18848-89.58594,89.58594
			s40.18799,89.58594,89.58594,89.58594s89.58594-40.18848,89.58594-89.58594S217.06592,77.91504,167.66797,77.91504z
			 M167.66797,246.54688c-43.58643,0-79.0459-35.45996-79.0459-79.0459s35.45947-79.0459,79.0459-79.0459
			s79.0459,35.45996,79.0459,79.0459S211.25439,246.54688,167.66797,246.54688z"/>
		<path fill="#CCCCCC" d="M167.66797,98.99414c-37.7749,0-68.50684,30.73242-68.50684,68.50684s30.73193,68.50684,68.50684,68.50684
			s68.50684-30.73242,68.50684-68.50684S205.44287,98.99414,167.66797,98.99414z M167.66797,225.46777
			c-31.96338,0-57.96729-26.00391-57.96729-57.9668c0-31.96387,26.00391-57.96777,57.96729-57.96777
			s57.96729,26.00391,57.96729,57.96777C225.63525,199.46387,199.63135,225.46777,167.66797,225.46777z"/>
		<path fill="#CCCCCC" d="M167.66797,35.75684c-72.64404,0-131.74414,59.10059-131.74414,131.74414
			s59.1001,131.74414,131.74414,131.74414s131.74414-59.10059,131.74414-131.74414S240.31201,35.75684,167.66797,35.75684z
			 M167.66797,288.70508c-66.83252,0-121.2041-54.37207-121.2041-121.2041s54.37158-121.2041,121.2041-121.2041
			s121.2041,54.37207,121.2041,121.2041S234.50049,288.70508,167.66797,288.70508z"/>
		<path fill="#CCCCCC" d="M15.2135,0H0v15.22607C4.82849,9.91431,9.90698,4.83423,15.2135,0z"/>
		<path fill="#CCCCCC" d="M334,13.79102V0h-13.87756C324.94574,4.39404,329.57025,9.00098,334,13.79102z"/>
		<path fill="#CCCCCC" d="M334,87.8374V65.86328C317.4577,38.89124,294.54114,16.23694,267.3645,0h-22.53278
			C283.77637,18.0127,315.42419,49.2085,334,87.8374z"/>
		<path fill="#CCCCCC" d="M48.70392,0H31.35577C19.86499,9.3689,9.35498,19.89355,0,31.396v17.37793
			C13.38837,29.92188,29.8714,13.41431,48.70392,0z"/>
		<path fill="#CCCCCC" d="M90.50421,0H67.97144C40.05249,16.68042,16.63489,40.13745,0,68.08655v22.60779
			C18.37115,50.74951,50.6051,18.4541,90.50421,0z"/>
		<path fill="#CCCCCC" d="M0,319.77563V334h14.13757C9.22266,329.46436,4.49884,324.72461,0,319.77563z"/>
		<path fill="#333333" d="M167.66797,130.6123c-20.34033,0-36.88818,16.54785-36.88818,36.88867
			c0,20.33984,16.54785,36.8877,36.88818,36.8877s36.88818-16.54785,36.88818-36.8877
			C204.55615,147.16016,188.0083,130.6123,167.66797,130.6123z M167.66797,193.84961
			c-14.52881,0-26.34912-11.82031-26.34912-26.34863c0-14.5293,11.82031-26.34961,26.34912-26.34961
			s26.34912,11.82031,26.34912,26.34961C194.01709,182.0293,182.19678,193.84961,167.66797,193.84961z"/>
		<path fill="#333333" d="M167.66797,109.5332c-31.96338,0-57.96729,26.00391-57.96729,57.96777
			c0,31.96289,26.00391,57.9668,57.96729,57.9668s57.96729-26.00391,57.96729-57.9668
			C225.63525,135.53711,199.63135,109.5332,167.66797,109.5332z M167.66797,214.92871
			c-26.15186,0-47.42822-21.27637-47.42822-47.42773c0-26.15234,21.27637-47.42871,47.42822-47.42871
			s47.42822,21.27637,47.42822,47.42871C215.09619,193.65234,193.81982,214.92871,167.66797,214.92871z"/>
		<path fill="#333333" d="M167.66797,88.45508c-43.58643,0-79.0459,35.45996-79.0459,79.0459s35.45947,79.0459,79.0459,79.0459
			s79.0459-35.45996,79.0459-79.0459S211.25439,88.45508,167.66797,88.45508z M167.66797,236.00781
			c-37.7749,0-68.50684-30.73242-68.50684-68.50684s30.73193-68.50684,68.50684-68.50684s68.50684,30.73242,68.50684,68.50684
			S205.44287,236.00781,167.66797,236.00781z"/>
		<path fill="#333333" d="M167.66797,67.37598c-55.20947,0-100.125,44.91602-100.125,100.125s44.91553,100.125,100.125,100.125
			s100.125-44.91602,100.125-100.125S222.87744,67.37598,167.66797,67.37598z M167.66797,257.08691
			c-49.39795,0-89.58594-40.18848-89.58594-89.58594s40.18799-89.58594,89.58594-89.58594s89.58594,40.18848,89.58594,89.58594
			S217.06592,257.08691,167.66797,257.08691z"/>
		<path fill="#333333" d="M167.66797,46.29688c-66.83252,0-121.2041,54.37207-121.2041,121.2041
			s54.37158,121.2041,121.2041,121.2041s121.2041-54.37207,121.2041-121.2041S234.50049,46.29688,167.66797,46.29688z
			 M167.66797,278.16602c-61.021,0-110.66504-49.64453-110.66504-110.66504S106.64697,56.83594,167.66797,56.83594
			s110.66504,49.64453,110.66504,110.66504S228.68896,278.16602,167.66797,278.16602z"/>
		<path fill="#333333" d="M167.66797,25.21777c-78.45557,0-142.2832,63.82812-142.2832,142.2832
			s63.82764,142.2832,142.2832,142.2832s142.2832-63.82812,142.2832-142.2832S246.12354,25.21777,167.66797,25.21777z
			 M167.66797,299.24512c-72.64404,0-131.74414-59.10059-131.74414-131.74414S95.02393,35.75684,167.66797,35.75684
			s131.74414,59.10059,131.74414,131.74414S240.31201,299.24512,167.66797,299.24512z"/>
		<path fill="#333333" d="M167.66797,4.13867c-90.07812,0-163.36182,73.28418-163.36182,163.3623
			S77.58984,330.8623,167.66797,330.8623c90.07861,0,163.3623-73.2832,163.3623-163.36133S257.74658,4.13867,167.66797,4.13867z
			 M167.66797,320.32324c-84.2666,0-152.82275-68.55566-152.82275-152.82227S83.40137,14.67773,167.66797,14.67773
			c84.26709,0,152.82324,68.55664,152.82324,152.82324S251.93506,320.32324,167.66797,320.32324z"/>
		<path fill="#333333" d="M334,116.72266V87.8374C315.42419,49.2085,283.77637,18.0127,244.83173,0h-30.37524
			C271.46356,15.94458,316.73315,60.27466,334,116.72266z"/>
		<path fill="#333333" d="M0,213.67383v30.63379C18.04169,283.53589,49.45068,315.39111,88.3623,334h29.08893
			C60.53357,316.8009,15.84906,271.15845,0,213.67383z"/>
		<path fill="#333333" d="M120.87946,0H90.50421C50.6051,18.4541,18.37115,50.74951,0,90.69434v30.63379
			C16.16608,62.6936,62.33118,16.37561,120.87946,0z"/>
		<path fill="#333333" d="M334,247.16443V218.2793C317.08093,273.59033,273.27411,317.2627,217.8847,334h29.08893
			C284.93738,315.84448,315.7655,285.0835,334,247.16443z"/>
		<path fill="#333333" d="M67.97144,0H48.70392C29.8714,13.41431,13.38837,29.92188,0,48.77393v19.31262
			C16.63489,40.13745,40.05249,16.68042,67.97144,0z"/>
		<path fill="#333333" d="M334,65.86328V46.9353C320.85492,28.85046,304.84729,12.97461,286.63202,0H267.3645
			C294.54114,16.23694,317.4577,38.89124,334,65.86328z"/>
		<path fill="#333333" d="M0,266.91528v19.3125C13.0603,304.61792,29.07312,320.76709,47.33148,334h18.96674
			C39.11438,317.38843,16.30237,294.30566,0,266.91528z"/>
		<path fill="#333333" d="M334,288.06653v-18.9281C317.79742,295.55664,295.48401,317.83911,269.03772,334h18.96674
			C305.64935,321.21167,321.18793,305.69312,334,288.06653z"/>
		<path fill="#333333" d="M334,321.21069v-15.96631c-8.67657,10.45923-18.31641,20.09131-28.78619,28.75562h15.98456
			C325.633,329.90771,329.90295,325.64087,334,321.21069z"/>
		<path fill="#333333" d="M0,303.60571v16.16992C4.49884,324.72461,9.22266,329.46436,14.13757,334h15.98456
			C19.1095,324.88647,9.02075,314.69727,0,303.60571z"/>
		<path fill="#333333" d="M334,29.75732V13.79102C329.57025,9.00098,324.94574,4.39404,320.12244,0h-16.14227
			C314.92474,8.92346,324.98529,18.8905,334,29.75732z"/>
		<path fill="#333333" d="M31.35577,0H15.2135C9.90698,4.83423,4.82849,9.91431,0,15.22607V31.396
			C9.35498,19.89355,19.86499,9.3689,31.35577,0z"/>
		<path fill="#333333" d="M167.66797,151.69141c-8.71729,0-15.80908,7.0918-15.80908,15.80957
			c0,8.7168,7.0918,15.80859,15.80908,15.80859s15.80908-7.0918,15.80908-15.80859
			C183.47705,158.7832,176.38525,151.69141,167.66797,151.69141z M167.66797,172.77051c-2.90576,0-5.27002-2.36426-5.27002-5.26953
			c0-2.90625,2.36426-5.27051,5.27002-5.27051s5.27002,2.36426,5.27002,5.27051
			C172.93799,170.40625,170.57373,172.77051,167.66797,172.77051z"/>
	</g>
</g>
<g id="Layer_3" display="none">
</g>
<g id="Layer_2" display="none">
</g>
</svg>
