<?xml version="1.0" encoding="utf-8"?>
<!-- Generator: Adobe Illustrator 21.1.0, SVG Export Plug-In . SVG Version: 6.00 Build 0)  -->
<svg version="1.2" baseProfile="tiny" xmlns="http://www.w3.org/2000/svg" xmlns:xlink="http://www.w3.org/1999/xlink" x="0px"
	 y="0px" viewBox="0 0 334 334" xml:space="preserve">
<g id="Layer_1">
	<g>
		<path fill="#858585" d="M334,41.74194V0h-41.48145C308.22607,11.89441,322.20703,25.9541,334,41.74194z"/>
		<path fill="#858585" d="M166.99902,71.47614c-52.21094,0-94.6875,42.47705-94.6875,94.68848
			c0,52.21136,42.47656,94.6889,94.6875,94.6889c52.21191,0,94.68848-42.47754,94.68848-94.6889
			C261.6875,113.95319,219.21094,71.47614,166.99902,71.47614z M166.99902,222.98779
			c-31.32324,0-56.80664-25.49072-56.80664-56.82318c0-31.33203,25.4834-56.82275,56.80664-56.82275
			c31.33301,0,56.82422,25.49072,56.82422,56.82275C223.82324,197.49707,198.33203,222.98779,166.99902,222.98779z"/>
		<path fill="#858585" d="M166.99902,147.22369c-10.43457,0-18.92383,8.49707-18.92383,18.94092
			c0,10.44427,8.48926,18.94135,18.92383,18.94135c10.44434,0,18.94141-8.49707,18.94141-18.94135
			C185.94043,155.72076,177.44336,147.22369,166.99902,147.22369z"/>
		<path fill="#858585" d="M41.49146,0H0v41.76001C11.79492,25.9649,25.7793,11.89893,41.49146,0z"/>
		<path fill="#858585" d="M290.27856,334H334v-43.41223C321.64941,307.12183,306.89868,321.7594,290.27856,334z"/>
		<path fill="#858585" d="M334,200.38538v-68.44135C320.63892,66.64362,269.81982,14.82629,205.05859,0h-76.1134
			C64.16284,14.8327,13.33325,66.6886,0,132.02887v68.27167C13.89246,268.38123,68.49146,321.8241,137.16675,334h59.66968
			C265.49023,321.8291,320.07837,268.42572,334,200.38538z M166.99902,298.73535c-73.09961,0-132.57031-59.4707-132.57031-132.57074
			c0-73.09961,59.4707-132.57031,132.57031-132.57031S299.57031,93.065,299.57031,166.16461
			C299.57031,239.26465,240.09863,298.73535,166.99902,298.73535z"/>
		<path fill="#858585" d="M0,290.5697V334h43.7312C27.1062,321.755,12.35217,307.11115,0,290.5697z"/>
		<path fill="#7A7A7A" d="M166.99902,109.34186c-31.32324,0-56.80664,25.49072-56.80664,56.82275
			c0,31.33246,25.4834,56.82318,56.80664,56.82318c31.33301,0,56.82422-25.49072,56.82422-56.82318
			C223.82324,134.83258,198.33203,109.34186,166.99902,109.34186z M166.99902,185.10596
			c-10.43457,0-18.92383-8.49707-18.92383-18.94135c0-10.44385,8.48926-18.94092,18.92383-18.94092
			c10.44434,0,18.94141,8.49707,18.94141,18.94092C185.94043,176.60889,177.44336,185.10596,166.99902,185.10596z"/>
		<path fill="#7A7A7A" d="M166.99902,33.5943c-73.09961,0-132.57031,59.4707-132.57031,132.57031
			c0,73.10004,59.4707,132.57074,132.57031,132.57074s132.57129-59.4707,132.57129-132.57074
			C299.57031,93.065,240.09863,33.5943,166.99902,33.5943z M166.99902,260.85352c-52.21094,0-94.6875-42.47754-94.6875-94.6889
			c0-52.21143,42.47656-94.68848,94.6875-94.68848c52.21191,0,94.68848,42.47705,94.68848,94.68848
			C261.6875,218.37598,219.21094,260.85352,166.99902,260.85352z"/>
		<path fill="#7A7A7A" d="M128.94519,0H41.49146C25.7793,11.89893,11.79492,25.9649,0,41.76001v90.26886
			C13.33325,66.6886,64.16284,14.8327,128.94519,0z"/>
		<path fill="#7A7A7A" d="M334,290.58777v-90.20239C320.07837,268.42572,265.49023,321.8291,196.83643,334h93.44214
			C306.89868,321.7594,321.64941,307.12183,334,290.58777z"/>
		<path fill="#7A7A7A" d="M334,131.94403V41.74194C322.20703,25.9541,308.22607,11.89441,292.51855,0h-87.45996
			C269.81982,14.82629,320.63892,66.64362,334,131.94403z"/>
		<path fill="#7A7A7A" d="M0,200.30054v90.26917C12.35217,307.11115,27.1062,321.755,43.7312,334h93.43555
			C68.49146,321.8241,13.89246,268.38123,0,200.30054z"/>
	</g>
</g>
<g id="Layer_3" display="none">
</g>
<g id="Layer_2" display="none">
</g>
</svg>
