<?xml version="1.0" encoding="utf-8"?>
<!-- Generator: Adobe Illustrator 21.1.0, SVG Export Plug-In . SVG Version: 6.00 Build 0)  -->
<svg version="1.2" baseProfile="tiny" xmlns="http://www.w3.org/2000/svg" xmlns:xlink="http://www.w3.org/1999/xlink" x="0px"
	 y="0px" viewBox="0 0 334 334" xml:space="preserve">
<g id="Layer_1">
	<g>
		<path fill="#828282" d="M166.33203,170.24805c2.25195,0,4.08398-1.83203,4.08398-4.08398
			c0-2.25098-1.83203-4.08301-4.08398-4.08301c-2.24219,0-4.06641,1.83203-4.06641,4.08301
			C162.26562,168.41602,164.08984,170.24805,166.33203,170.24805z"/>
		<path fill="#828282" d="M166.33203,251.8418c47.24316,0,85.67773-38.43457,85.67773-85.67773
			c0-47.24219-38.43457-85.67676-85.67773-85.67676c-47.24219,0-85.67676,38.43457-85.67676,85.67676
			C80.65527,213.40723,119.08984,251.8418,166.33203,251.8418z M166.33203,88.6377c42.74805,0,77.52637,34.77832,77.52637,77.52637
			s-34.77832,77.52637-77.52637,77.52637s-77.52637-34.77832-77.52637-77.52637S123.58398,88.6377,166.33203,88.6377z"/>
		<path fill="#828282" d="M109.95703,0H88.28149C49.54395,18.26904,18.18799,49.68994,0,88.47266v21.81909
			C17.41626,58.57983,58.3147,17.56824,109.95703,0z"/>
		<path fill="#828282" d="M166.33203,186.56641c11.25,0,20.40234-9.15234,20.40234-20.40234s-9.15234-20.40234-20.40234-20.40234
			c-11.24121,0-20.38574,9.15234-20.38574,20.40234S155.09082,186.56641,166.33203,186.56641z M166.33203,153.91309
			c6.75586,0,12.25195,5.49609,12.25195,12.25098c0,6.75586-5.49609,12.25195-12.25195,12.25195
			c-6.74609,0-12.23438-5.49609-12.23438-12.25195C154.09766,159.40918,159.58594,153.91309,166.33203,153.91309z"/>
		<path fill="#828282" d="M166.33203,235.52246c38.24414,0,69.3584-31.11426,69.3584-69.3584s-31.11426-69.3584-69.3584-69.3584
			s-69.3584,31.11426-69.3584,69.3584S128.08789,235.52246,166.33203,235.52246z M166.33203,104.95703
			c33.75,0,61.20801,27.45703,61.20801,61.20703s-27.45801,61.20801-61.20801,61.20801s-61.20801-27.45801-61.20801-61.20801
			S132.58203,104.95703,166.33203,104.95703z"/>
		<path fill="#828282" d="M166.33203,219.2041c29.24609,0,53.04004-23.79395,53.04004-53.04004S195.57812,113.125,166.33203,113.125
			s-53.04004,23.79297-53.04004,53.03906S137.08594,219.2041,166.33203,219.2041z M166.33203,121.27539
			c24.75195,0,44.88965,20.13672,44.88965,44.88867s-20.1377,44.88965-44.88965,44.88965s-44.88867-20.1377-44.88867-44.88965
			S141.58008,121.27539,166.33203,121.27539z"/>
		<path fill="#828282" d="M70.67212,0H55.28174C33.43066,14.65137,14.6189,33.49414,0,55.3689v15.41943
			C16.89893,41.43164,41.34717,16.948,70.67212,0z"/>
		<path fill="#828282" d="M334,73.17358V57.39673C319.19873,34.65808,299.90552,15.10205,277.38232,0h-15.38965
			C292.10596,17.40356,317.06543,42.76074,334,73.17358z"/>
		<path fill="#828282" d="M41.20923,0H28.10596C17.90234,8.50244,8.49048,17.92261,0,28.1366v13.12366
			C11.74316,25.6615,25.62646,11.76318,41.20923,0z"/>
		<path fill="#828282" d="M334,17.18298V5.17285C332.31641,3.42017,330.60059,1.69946,328.86328,0h-11.85596
			C322.97607,5.41724,328.64209,11.15991,334,17.18298z"/>
		<path fill="#828282" d="M334,43.06628V29.76611C325.16357,18.92444,315.30176,8.9519,304.55859,0h-13.10376
			C307.63501,12.21436,321.97778,26.73486,334,43.06628z"/>
		<path fill="#828282" d="M15.65747,0H3.78979C2.51221,1.25,1.24902,2.5144,0,3.79321v11.88562
			C4.96069,10.20093,10.1853,4.9668,15.65747,0z"/>
		<path fill="#828282" d="M334,114.43018V91.37134C316.03467,51.25513,284.08252,18.72266,244.3833,0h-21.67627
			C275.71948,18.03442,317.40991,60.77271,334,114.43018z"/>
		<path fill="#828282" d="M166.33203,202.88574c20.24805,0,36.72168-16.47363,36.72168-36.72168s-16.47363-36.7207-36.72168-36.7207
			s-36.7207,16.47266-36.7207,36.7207S146.08398,202.88574,166.33203,202.88574z M166.33203,137.59375
			c15.75391,0,28.57031,12.81641,28.57031,28.57031s-12.81641,28.57031-28.57031,28.57031
			c-15.74414,0-28.55371-12.81641-28.55371-28.57031S150.58789,137.59375,166.33203,137.59375z"/>
		<path fill="#828282" d="M334,240.95728v-23.05884C316.87134,273.29834,272.98315,317.05127,217.50586,334h23.23608
			C282.12769,315.57983,315.48828,282.29346,334,240.95728z"/>
		<path fill="#828282" d="M334,274.9314v-15.77612C316.5127,290.56079,290.46289,316.56738,259.02295,334h15.82153
			C298.45703,318.68091,318.646,298.51929,334,274.9314z"/>
		<path fill="#828282" d="M0,222.03687v21.81909C18.75464,283.84766,51.51025,316.0127,91.92285,334h23.23535
			C61.06958,317.47559,17.99658,275.47241,0,222.03687z"/>
		<path fill="#828282" d="M334,302.5625v-13.30078C321.42285,306.34692,306.30249,321.4458,289.19971,334h13.32227
			C314.05615,324.62256,324.60864,314.08496,334,302.5625z"/>
		<path fill="#828282" d="M334,327.15576V315.146c-5.91553,6.6499-12.21875,12.9458-18.87549,18.854h12.0271
			C329.48169,331.76636,331.76392,329.4834,334,327.15576z"/>
		<path fill="#828282" d="M0,261.54053v15.4187C15.18164,299.67603,34.88623,319.12158,57.81958,334H73.6416
			C42.99902,317.00928,17.46533,291.88135,0,261.54053z"/>
		<path fill="#828282" d="M0,316.65015v11.88525c1.80615,1.84937,3.63525,3.67578,5.50146,5.4646h12.03882
			C11.38501,328.53687,5.52393,322.75,0,316.65015z"/>
		<path fill="#828282" d="M166.31543,300.81445c74.24609,0,134.65039-60.4043,134.65039-134.65039
			S240.56152,31.51465,166.31543,31.51465c-74.2373,0-134.63281,60.40332-134.63281,134.64941
			S92.07812,300.81445,166.31543,300.81445z M166.33203,39.68164c69.74219,0,126.48242,56.74023,126.48242,126.48242
			s-56.74023,126.48242-126.48242,126.48242c-69.75195,0-126.49902-56.74023-126.49902-126.48242
			S96.58008,39.68164,166.33203,39.68164z"/>
		<path fill="#828282" d="M166.31543,317.13281c83.24414,0,150.96875-67.72461,150.96875-150.96875
			S249.55957,15.19531,166.31543,15.19531c-83.23438,0-150.95117,67.72461-150.95117,150.96875
			S83.08105,317.13281,166.31543,317.13281z M166.31543,23.34668c78.75,0,142.81836,64.06738,142.81836,142.81738
			s-64.06836,142.81836-142.81836,142.81836c-78.74023,0-142.80078-64.06836-142.80078-142.81836
			S87.5752,23.34668,166.31543,23.34668z"/>
		<path fill="#828282" d="M166.33203,284.47852c65.23926,0,118.31445-53.0752,118.31445-118.31445
			S231.57129,47.84961,166.33203,47.84961c-65.24805,0-118.33105,53.0752-118.33105,118.31445
			S101.08398,284.47852,166.33203,284.47852z M166.33203,56.00098c60.74414,0,110.16406,49.41895,110.16406,110.16309
			s-49.41992,110.16406-110.16406,110.16406c-60.75391,0-110.18066-49.41992-110.18066-110.16406
			S105.57812,56.00098,166.33203,56.00098z"/>
		<path fill="#828282" d="M166.33203,268.16016c56.24121,0,101.99609-45.75488,101.99609-101.99609
			c0-56.24023-45.75488-101.99512-101.99609-101.99512c-56.25,0-102.0127,45.75488-102.0127,101.99512
			C64.31934,222.40527,110.08203,268.16016,166.33203,268.16016z M166.33203,72.31934c51.74707,0,93.8457,42.09863,93.8457,93.84473
			c0,51.74707-42.09863,93.8457-93.8457,93.8457c-51.74609,0-93.84473-42.09863-93.84473-93.8457
			C72.4873,114.41797,114.58594,72.31934,166.33203,72.31934z"/>
		<path fill="#828282" d="M0,291.06787v13.12402C9.05176,315.0813,19.15332,325.06567,30.14258,334h13.32178
			C26.96533,321.88892,12.30566,307.41406,0,291.06787z"/>
		<path fill="#828282" d="M166.33203,333.45215c92.24219,0,167.28711-75.04492,167.28711-167.28809
			C333.61914,80.45898,268.83008,9.61279,185.65967,0h-38.65527C69.6897,8.93604,8.26636,70.78735,0,148.30127v35.72559
			C8.94458,267.90186,80.12378,333.45215,166.33203,333.45215z M166.31543,7.02734
			c87.74805,0,159.13672,71.38867,159.13672,159.13672s-71.38867,159.13672-159.13672,159.13672
			c-87.73828,0-159.11914-71.38867-159.11914-159.13672S78.57715,7.02734,166.31543,7.02734z"/>
		<path fill="#7D7D7D" d="M166.33203,178.41602c6.75586,0,12.25195-5.49609,12.25195-12.25195
			c0-6.75488-5.49609-12.25098-12.25195-12.25098c-6.74609,0-12.23438,5.49609-12.23438,12.25098
			C154.09766,172.91992,159.58594,178.41602,166.33203,178.41602z M166.33203,162.08105c2.25195,0,4.08398,1.83203,4.08398,4.08301
			c0,2.25195-1.83203,4.08398-4.08398,4.08398c-2.24219,0-4.06641-1.83203-4.06641-4.08398
			C162.26562,163.91309,164.08984,162.08105,166.33203,162.08105z"/>
		<path fill="#7D7D7D" d="M166.33203,194.73438c15.75391,0,28.57031-12.81641,28.57031-28.57031
			s-12.81641-28.57031-28.57031-28.57031c-15.74414,0-28.55371,12.81641-28.55371,28.57031S150.58789,194.73438,166.33203,194.73438
			z M166.33203,145.76172c11.25,0,20.40234,9.15234,20.40234,20.40234s-9.15234,20.40234-20.40234,20.40234
			c-11.24121,0-20.38574-9.15234-20.38574-20.40234S155.09082,145.76172,166.33203,145.76172z"/>
		<path fill="#7D7D7D" d="M166.33203,211.05371c24.75195,0,44.88965-20.1377,44.88965-44.88965s-20.1377-44.88867-44.88965-44.88867
			s-44.88867,20.13672-44.88867,44.88867S141.58008,211.05371,166.33203,211.05371z M166.33203,129.44336
			c20.24805,0,36.72168,16.47266,36.72168,36.7207s-16.47363,36.72168-36.72168,36.72168s-36.7207-16.47363-36.7207-36.72168
			S146.08398,129.44336,166.33203,129.44336z"/>
		<path fill="#7D7D7D" d="M166.33203,227.37207c33.75,0,61.20801-27.45801,61.20801-61.20801s-27.45801-61.20703-61.20801-61.20703
			s-61.20801,27.45703-61.20801,61.20703S132.58203,227.37207,166.33203,227.37207z M166.33203,113.125
			c29.24609,0,53.04004,23.79297,53.04004,53.03906s-23.79395,53.04004-53.04004,53.04004s-53.04004-23.79395-53.04004-53.04004
			S137.08594,113.125,166.33203,113.125z"/>
		<path fill="#7D7D7D" d="M166.33203,243.69043c42.74805,0,77.52637-34.77832,77.52637-77.52637
			S209.08008,88.6377,166.33203,88.6377s-77.52637,34.77832-77.52637,77.52637S123.58398,243.69043,166.33203,243.69043z
			 M166.33203,96.80566c38.24414,0,69.3584,31.11426,69.3584,69.3584s-31.11426,69.3584-69.3584,69.3584
			s-69.3584-31.11426-69.3584-69.3584S128.08789,96.80566,166.33203,96.80566z"/>
		<path fill="#7D7D7D" d="M166.33203,260.00977c51.74707,0,93.8457-42.09863,93.8457-93.8457
			c0-51.74609-42.09863-93.84473-93.8457-93.84473c-51.74609,0-93.84473,42.09863-93.84473,93.84473
			C72.4873,217.91113,114.58594,260.00977,166.33203,260.00977z M166.33203,80.4873c47.24316,0,85.67773,38.43457,85.67773,85.67676
			c0,47.24316-38.43457,85.67773-85.67773,85.67773c-47.24219,0-85.67676-38.43457-85.67676-85.67773
			C80.65527,118.92188,119.08984,80.4873,166.33203,80.4873z"/>
		<path fill="#7D7D7D" d="M166.33203,276.32812c60.74414,0,110.16406-49.41992,110.16406-110.16406
			S227.07617,56.00098,166.33203,56.00098c-60.75391,0-110.18066,49.41895-110.18066,110.16309
			S105.57812,276.32812,166.33203,276.32812z M166.33203,64.16895c56.24121,0,101.99609,45.75488,101.99609,101.99512
			c0,56.24121-45.75488,101.99609-101.99609,101.99609c-56.25,0-102.0127-45.75488-102.0127-101.99609
			C64.31934,109.92383,110.08203,64.16895,166.33203,64.16895z"/>
		<path fill="#7D7D7D" d="M166.33203,292.64648c69.74219,0,126.48242-56.74023,126.48242-126.48242
			S236.07422,39.68164,166.33203,39.68164c-69.75195,0-126.49902,56.74023-126.49902,126.48242
			S96.58008,292.64648,166.33203,292.64648z M166.33203,47.84961c65.23926,0,118.31445,53.0752,118.31445,118.31445
			s-53.0752,118.31445-118.31445,118.31445c-65.24805,0-118.33105-53.0752-118.33105-118.31445
			S101.08398,47.84961,166.33203,47.84961z"/>
		<path fill="#7D7D7D" d="M166.31543,308.98242c78.75,0,142.81836-64.06836,142.81836-142.81836
			S245.06543,23.34668,166.31543,23.34668c-78.74023,0-142.80078,64.06738-142.80078,142.81738
			S87.5752,308.98242,166.31543,308.98242z M166.31543,31.51465c74.24609,0,134.65039,60.40332,134.65039,134.64941
			s-60.4043,134.65039-134.65039,134.65039c-74.2373,0-134.63281-60.4043-134.63281-134.65039S92.07812,31.51465,166.31543,31.51465
			z"/>
		<path fill="#7D7D7D" d="M166.31543,325.30078c87.74805,0,159.13672-71.38867,159.13672-159.13672
			S254.06348,7.02734,166.31543,7.02734c-87.73828,0-159.11914,71.38867-159.11914,159.13672
			S78.57715,325.30078,166.31543,325.30078z M166.31543,15.19531c83.24414,0,150.96875,67.72461,150.96875,150.96875
			s-67.72461,150.96875-150.96875,150.96875c-83.23438,0-150.95117-67.72461-150.95117-150.96875
			S83.08105,15.19531,166.31543,15.19531z"/>
		<path fill="#7D7D7D" d="M334,217.89844V114.43018C317.40991,60.77271,275.71948,18.03442,222.70703,0h-37.04736
			c83.17041,9.61279,147.95947,80.45898,147.95947,166.16406c0,92.24316-75.04492,167.28809-167.28711,167.28809
			C80.12378,333.45215,8.94458,267.90186,0,184.02686v38.01001C17.99658,275.47241,61.06958,317.47559,115.1582,334h102.34766
			C272.98315,317.05127,316.87134,273.29834,334,217.89844z"/>
		<path fill="#7D7D7D" d="M147.00439,0h-37.04736C58.3147,17.56824,17.41626,58.57983,0,110.29175v38.00952
			C8.26636,70.78735,69.6897,8.93604,147.00439,0z"/>
		<path fill="#7D7D7D" d="M334,91.37134V73.17358C317.06543,42.76074,292.10596,17.40356,261.99268,0H244.3833
			C284.08252,18.72266,316.03467,51.25513,334,91.37134z"/>
		<path fill="#7D7D7D" d="M0,243.85596v17.68457C17.46533,291.88135,42.99902,317.00928,73.6416,334h18.28125
			C51.51025,316.0127,18.75464,283.84766,0,243.85596z"/>
		<path fill="#7D7D7D" d="M88.28149,0H70.67212C41.34717,16.948,16.89893,41.43164,0,70.78833v17.68433
			C18.18799,49.68994,49.54395,18.26904,88.28149,0z"/>
		<path fill="#7D7D7D" d="M334,259.15527v-18.198C315.48828,282.29346,282.12769,315.57983,240.74194,334h18.28101
			C290.46289,316.56738,316.5127,290.56079,334,259.15527z"/>
		<path fill="#7D7D7D" d="M0,276.95923v14.10864C12.30566,307.41406,26.96533,321.88892,43.46436,334h14.35522
			C34.88623,319.12158,15.18164,299.67603,0,276.95923z"/>
		<path fill="#7D7D7D" d="M334,289.26172V274.9314c-15.354,23.58789-35.54297,43.74951-59.15552,59.0686h14.35522
			C306.30249,321.4458,321.42285,306.34692,334,289.26172z"/>
		<path fill="#7D7D7D" d="M55.28174,0H41.20923C25.62646,11.76318,11.74316,25.6615,0,41.26025V55.3689
			C14.6189,33.49414,33.43066,14.65137,55.28174,0z"/>
		<path fill="#7D7D7D" d="M334,57.39673V43.06628C321.97778,26.73486,307.63501,12.21436,291.45483,0h-14.07251
			C299.90552,15.10205,319.19873,34.65808,334,57.39673z"/>
		<path fill="#7D7D7D" d="M0,304.19189v12.45825C5.52393,322.75,11.38501,328.53687,17.54028,334h12.60229
			C19.15332,325.06567,9.05176,315.0813,0,304.19189z"/>
		<path fill="#7D7D7D" d="M334,315.146v-12.5835c-9.39136,11.52246-19.94385,22.06006-31.47803,31.4375h12.60254
			C321.78125,328.0918,328.08447,321.7959,334,315.146z"/>
		<path fill="#7D7D7D" d="M28.10596,0H15.65747C10.1853,4.9668,4.96069,10.20093,0,15.67883V28.1366
			C8.49048,17.92261,17.90234,8.50244,28.10596,0z"/>
		<path fill="#7D7D7D" d="M334,29.76611V17.18298C328.64209,11.15991,322.97607,5.41724,317.00732,0h-12.44873
			C315.30176,8.9519,325.16357,18.92444,334,29.76611z"/>
		<path fill="#7D7D7D" d="M334,327.15576c-2.23608,2.32764-4.51831,4.6106-6.84839,6.84424H334V327.15576z"/>
		<path fill="#7D7D7D" d="M0,328.5354V334h5.50146C3.63525,332.21118,1.80615,330.38477,0,328.5354z"/>
		<path fill="#7D7D7D" d="M3.78979,0H0v3.79321C1.24902,2.5144,2.51221,1.25,3.78979,0z"/>
		<path fill="#7D7D7D" d="M334,5.17285V0h-5.13672C330.60059,1.69946,332.31641,3.42017,334,5.17285z"/>
	</g>
</g>
<g id="Layer_3" display="none">
</g>
<g id="Layer_2" display="none">
</g>
</svg>
