<?xml version="1.0" encoding="utf-8"?>
<!-- Generator: Adobe Illustrator 21.1.0, SVG Export Plug-In . SVG Version: 6.00 Build 0)  -->
<svg version="1.2" baseProfile="tiny" xmlns="http://www.w3.org/2000/svg" xmlns:xlink="http://www.w3.org/1999/xlink" x="0px"
	 y="0px" viewBox="0 0 334 334" xml:space="preserve">
<g id="Layer_1">
	<g>
		<path fill="#909090" d="M310.46021,333.83542H334v-23.38757C326.75195,318.82138,318.87659,326.63577,310.46021,333.83542z"/>
		<path fill="#909090" d="M167.66797,152.00288c-8.08643,0-14.66504,6.57861-14.66504,14.66504s6.57861,14.66553,14.66504,14.66553
			s14.66553-6.5791,14.66553-14.66553S175.75439,152.00288,167.66797,152.00288z"/>
		<path fill="#909090" d="M167.66797,34.69869c-72.76807,0-131.96924,59.20117-131.96924,131.96924
			c0,72.76855,59.20117,131.96974,131.96924,131.96974c72.76855,0,131.96973-59.20119,131.96973-131.96974
			C299.6377,93.89986,240.43652,34.69869,167.66797,34.69869z M167.66797,269.3071
			c-56.60449,0-102.65527-46.04347-102.65527-102.63918c0-56.59521,46.05078-102.63866,102.65527-102.63866
			c56.5957,0,102.63916,46.04346,102.63916,102.63866C270.30713,223.26363,224.26367,269.3071,167.66797,269.3071z"/>
		<path fill="#909090" d="M0,308.85263v24.98279h24.88721C15.94238,326.18307,7.62012,317.82602,0,308.85263z"/>
		<path fill="#909090" d="M334,259.70316V73.63308c-17.32446-30.85101-42.97827-56.41699-73.89771-73.63312H75.24268
			C43.51758,17.66616,17.32666,44.11855,0,76.05727v181.22168c17.48914,32.23834,44.00684,58.89136,76.13416,76.55646h183.07654
			C290.52966,316.61618,316.50879,290.85123,334,259.70316z M167.66797,327.96774
			c-88.94092,0-161.29932-72.3589-161.29932-161.29982S78.72705,5.36861,167.66797,5.36861s161.2998,72.3584,161.2998,161.29932
			S256.60889,327.96774,167.66797,327.96774z"/>
		<path fill="#909090" d="M167.66797,93.35934c-40.43164,0-73.3252,32.88623-73.3252,73.30859
			c0,40.42285,32.89355,73.30908,73.3252,73.30908c40.42285,0,73.30908-32.88623,73.30908-73.30908
			C240.97705,126.24557,208.09082,93.35934,167.66797,93.35934z M167.66797,210.66353
			c-24.25879,0-43.99512-19.73633-43.99512-43.99561c0-24.25879,19.73633-43.99511,43.99512-43.99511
			c24.25928,0,43.99561,19.73632,43.99561,43.99511C211.66357,190.9272,191.92725,210.66353,167.66797,210.66353z"/>
		<path fill="#909090" d="M334,22.88845V-0.00004h-22.94971C319.24597,7.06045,326.92053,14.70962,334,22.88845z"/>
		<path fill="#909090" d="M24.29736-0.00004H0V24.4836C7.45337,15.70656,15.57471,7.51491,24.29736-0.00004z"/>
		<path fill="#6F6F6F" d="M167.66797,122.67281c-24.25879,0-43.99512,19.73632-43.99512,43.99511
			c0,24.25928,19.73633,43.99561,43.99512,43.99561c24.25928,0,43.99561-19.73633,43.99561-43.99561
			C211.66357,142.40913,191.92725,122.67281,167.66797,122.67281z M167.66797,181.33345
			c-8.08643,0-14.66504-6.5791-14.66504-14.66553s6.57861-14.66504,14.66504-14.66504s14.66553,6.57861,14.66553,14.66504
			S175.75439,181.33345,167.66797,181.33345z"/>
		<path fill="#6F6F6F" d="M167.66797,64.02926c-56.60449,0-102.65527,46.04346-102.65527,102.63866
			c0,56.5957,46.05078,102.63918,102.65527,102.63918c56.5957,0,102.63916-46.04347,102.63916-102.63918
			C270.30713,110.07272,224.26367,64.02926,167.66797,64.02926z M167.66797,239.97701
			c-40.43164,0-73.3252-32.88623-73.3252-73.30908c0-40.42236,32.89355-73.30859,73.3252-73.30859
			c40.42285,0,73.30908,32.88623,73.30908,73.30859C240.97705,207.09077,208.09082,239.97701,167.66797,239.97701z"/>
		<path fill="#6F6F6F" d="M167.66797,5.36861c-88.94092,0-161.29932,72.3584-161.29932,161.29932
			s72.3584,161.29982,161.29932,161.29982s161.2998-72.3589,161.2998-161.29982S256.60889,5.36861,167.66797,5.36861z
			 M167.66797,298.63766c-72.76807,0-131.96924-59.20119-131.96924-131.96974c0-72.76806,59.20117-131.96924,131.96924-131.96924
			c72.76855,0,131.96973,59.20117,131.96973,131.96924C299.6377,239.43648,240.43652,298.63766,167.66797,298.63766z"/>
		<path fill="#6F6F6F" d="M75.24268-0.00004H24.29736C15.57471,7.51491,7.45337,15.70656,0,24.4836v51.57367
			C17.32666,44.11855,43.51758,17.66616,75.24268-0.00004z"/>
		<path fill="#6F6F6F" d="M334,73.63308V22.88845c-7.07947-8.17883-14.75403-15.828-22.94971-22.88849h-50.948
			C291.02173,17.21609,316.67554,42.78207,334,73.63308z"/>
		<path fill="#6F6F6F" d="M334,310.44785v-50.74469c-17.49121,31.14807-43.47034,56.91302-74.78931,74.13226
			c-0.09839,0.05408-0.19543,0.1106-0.29395,0.16455h51.349c0.06458-0.05511,0.13-0.10938,0.19446-0.16455
			C318.87659,326.63577,326.75195,318.82138,334,310.44785z"/>
		<path fill="#6F6F6F" d="M0,257.27896v51.57367c7.62012,8.97339,15.94238,17.33044,24.88721,24.98279
			c0.0647,0.05518,0.12988,0.10944,0.19458,0.16455H76.4281c-0.09851-0.05396-0.19543-0.11047-0.29395-0.16455
			C44.00684,316.17032,17.48914,289.5173,0,257.27896z"/>
	</g>
</g>
<g id="Layer_3" display="none">
</g>
<g id="Layer_2" display="none">
</g>
</svg>
