<?xml version="1.0" encoding="utf-8"?>
<!-- Generator: Adobe Illustrator 21.1.0, SVG Export Plug-In . SVG Version: 6.00 Build 0)  -->
<svg version="1.2" baseProfile="tiny" xmlns="http://www.w3.org/2000/svg" xmlns:xlink="http://www.w3.org/1999/xlink" x="0px"
	 y="0px" viewBox="0 0 334 334" xml:space="preserve">
<g id="Layer_1">
	<g>
		<path fill="#828282" d="M334,15.66943v-5.59985C330.77979,6.61426,327.4624,3.25146,324.03687,0h-5.55371
			C323.90625,4.96802,329.08325,10.19897,334,15.66943z"/>
		<path fill="#828282" d="M0,306.53809v5.79297C6.78418,320.04517,14.08862,327.29028,21.86914,334h5.85767
			C17.68628,325.69043,8.41064,316.49121,0,306.53809z"/>
		<path fill="#828282" d="M0,294.50391v6.08984C9.9873,312.93115,21.31006,324.14355,33.75659,334h6.18774
			C24.93848,322.66919,11.49854,309.37451,0,294.50391z"/>
		<path fill="#828282" d="M0,281.73242v6.47925C12.9375,305.79858,28.58667,321.271,46.33496,334h6.58154
			C32.23486,319.97534,14.2793,302.22607,0,281.73242z"/>
		<path fill="#828282" d="M0,318.02026v5.53247C3.40332,327.14893,6.92627,330.62939,10.55371,334h5.58813
			C10.5,328.9436,5.10889,323.61377,0,318.02026z"/>
		<path fill="#828282" d="M97.38428,0h-9.32349C49.44482,18.26733,18.17871,49.604,0,88.26978v9.34644
			C18.21216,53.5918,53.40967,18.31543,97.38428,0z"/>
		<path fill="#828282" d="M0,329.0061V334h5.02856C3.32568,332.3623,1.65259,330.69434,0,329.0061z"/>
		<path fill="#828282" d="M120.55957,0h-12.59595C57.57324,17.75415,17.61597,57.80859,0,108.25903v12.80054
			C15.90967,62.44141,62.04102,16.1416,120.55957,0z"/>
		<path fill="#828282" d="M166.34863,149.11914c-9.39941,0-17.0459,7.64648-17.0459,17.0459s7.64648,17.0459,17.0459,17.0459
			s17.0459-7.64648,17.0459-17.0459S175.74805,149.11914,166.34863,149.11914z M166.34863,179.41895
			c-7.31738,0-13.27051-5.94531-13.27051-13.25391c0-7.30762,5.95312-13.25293,13.27051-13.25293
			c7.30859,0,13.25391,5.94531,13.25391,13.25293C179.60254,173.47363,173.65723,179.41895,166.34863,179.41895z"/>
		<circle fill="#828282" cx="166.33203" cy="166.16528" r="1.89624"/>
		<path fill="#828282" d="M166.34863,156.70312c-5.22656,0-9.47949,4.24512-9.47949,9.46191
			c0,5.21777,4.25293,9.46289,9.47949,9.46289c5.21777,0,9.46289-4.24512,9.46289-9.46289
			C175.81152,160.94824,171.56641,156.70312,166.34863,156.70312z M166.33203,171.85254c-3.13672,0-5.6875-2.55078-5.6875-5.6875
			c0-3.13574,2.55078-5.68652,5.6875-5.68652s5.6875,2.55078,5.6875,5.68652
			C172.01953,169.30176,169.46875,171.85254,166.33203,171.85254z"/>
		<path fill="#828282" d="M0,211.27075v12.80078C18.19092,276.16895,60.2041,317.18311,112.92847,334h14.15356
			C65.48291,319.59521,16.49658,272.05127,0,211.27075z"/>
		<path fill="#828282" d="M79.56738,0h-7.85938C41.85107,17.07178,17.01611,41.95605,0,71.84692v7.88428
			C17.74121,45.72559,45.60327,17.8103,79.56738,0z"/>
		<path fill="#828282" d="M0,234.71436v9.34595C18.74463,283.92944,51.40283,316.00928,91.68652,334h9.85229
			C55.62988,316.21484,18.78223,280.11694,0,234.71436z"/>
		<path fill="#828282" d="M0,252.59888v7.88501C17.57935,291.3645,43.50488,316.90063,74.69019,334h8.14062
			C47.38843,316.29126,18.30615,287.6875,0,252.59888z"/>
		<path fill="#828282" d="M0,267.92969v7.03833C15.52368,298.62427,35.94531,318.78931,59.82202,334h7.23853
			C39.70459,317.75488,16.63672,295.02246,0,267.92969z"/>
		<path fill="#828282" d="M334,66.53101v-7.22949C318.87842,35.66357,298.89209,15.42993,275.47217,0h-7.0459
			C295.27661,16.55225,317.82837,39.42554,334,66.53101z"/>
		<path fill="#828282" d="M334,100.87939v-9.79541C316.03369,51.12402,284.18652,18.70898,244.63647,0h-9.32983
			C280.35938,18.76611,316.20312,55.33594,334,100.87939z"/>
		<path fill="#828282" d="M334,82.27832v-8.13745C316.96265,43.229,291.62891,17.50659,261.0144,0h-7.88452
			C287.93799,18.25293,316.33643,47.11987,334,82.27832z"/>
		<path fill="#828282" d="M334,52.42773v-6.59717C321.37915,28.30029,306.08081,12.82373,288.70752,0h-6.48633
			C302.49707,14.17969,320.07227,31.96509,334,52.42773z"/>
		<path fill="#828282" d="M64.29517,0H57.2583C34.48364,15.00488,14.96436,34.55835,0,57.36206v7.03857
			C16.07324,38.2251,38.14844,16.11743,64.29517,0z"/>
		<path fill="#828282" d="M334,27.25366v-5.86865C327.42725,13.78613,320.3396,6.64624,312.80615,0h-5.79492
			C316.78052,8.28076,325.81836,17.39844,334,27.25366z"/>
		<path fill="#828282" d="M334,39.45508v-6.18433C324.26733,21.02075,313.22168,9.86157,301.07959,0h-6.09351
			C309.65576,11.37988,322.78345,24.65381,334,39.45508z"/>
		<path fill="#828282" d="M37.76709,0h-6.08301C20.05176,9.44751,9.4292,20.08862,0,31.73633v6.08984
			C10.93921,23.6792,23.63696,10.96045,37.76709,0z"/>
		<path fill="#828282" d="M50.50928,0h-6.46265C27.24023,12.4043,12.37793,27.29199,0,44.11841v6.47925
			C13.72119,30.90527,30.8418,13.75439,50.50928,0z"/>
		<path fill="#828282" d="M25.75244,0h-5.78369C12.89795,6.23853,6.22705,12.91821,0,19.99902v5.79297
			C7.85425,16.49707,16.46997,7.86816,25.75244,0z"/>
		<path fill="#828282" d="M14.29199,0H8.76001C5.76123,2.84619,2.8418,5.77441,0,8.77734v5.53247
			C4.54858,9.32983,9.31885,4.55615,14.29199,0z"/>
		<path fill="#828282" d="M334,4.55615V0h-4.52148C331.00562,1.49902,332.5144,3.01611,334,4.55615z"/>
		<path fill="#828282" d="M3.31836,0H0v3.32397C1.09521,2.20508,2.20093,1.09692,3.31836,0z"/>
		<path fill="#828282" d="M334,126.22852v-14.04248C317.12256,59.89136,276.41431,18.2124,224.72827,0h-12.61938
			C272.34326,16.61353,319.45801,65.17236,334,126.22852z"/>
		<path fill="#828282" d="M334,183.5293v-34.72852C326.24658,73.38403,268.56104,12.55713,194.65088,0h-56.63525
			C67.36206,12.00488,11.54639,68.13135,0,138.94409v54.44189C12.23462,268.41919,74.17285,326.96362,150.79932,334h31.06689
			C261.82617,326.6582,325.80493,263.24316,334,183.5293z M166.44824,330.93066c-90.85254,0-164.76562-73.91309-164.76562-164.76562
			c0-90.85156,73.91309-164.76465,164.76562-164.76465c90.85156,0,164.76465,73.91309,164.76465,164.76465
			C331.21289,257.01758,257.2998,330.93066,166.44824,330.93066z"/>
		<path fill="#828282" d="M166.36523,141.55273c-13.58008,0-24.62891,11.04102-24.62891,24.6123s11.04883,24.6123,24.62891,24.6123
			c13.57129,0,24.6123-11.04102,24.6123-24.6123S179.93652,141.55273,166.36523,141.55273z M166.34863,187.00195
			c-11.48926,0-20.83691-9.34766-20.83691-20.83691s9.34766-20.83691,20.83691-20.83691s20.83691,9.34766,20.83691,20.83691
			S177.83789,187.00195,166.34863,187.00195z"/>
		<path fill="#828282" d="M334,241.24609v-9.79492C315.65967,278.38623,278.15259,315.79053,231.15259,334h9.85815
			C282.23926,315.58716,315.48755,282.42065,334,241.24609z"/>
		<path fill="#828282" d="M166.44824,5.19141c-88.76172,0-160.97461,72.21289-160.97461,160.97363
			c0,88.76172,72.21289,160.97461,160.97461,160.97461c88.76074,0,160.97363-72.21289,160.97363-160.97461
			C327.42188,77.4043,255.20898,5.19141,166.44824,5.19141z M166.43164,323.36426
			c-86.6709,0-157.18262-70.51953-157.18262-157.19922S79.76074,8.9668,166.43164,8.9668
			c86.67969,0,157.19824,70.51855,157.19824,157.19824S253.11133,323.36426,166.43164,323.36426z"/>
		<path fill="#828282" d="M166.43164,20.34082c-80.4082,0-145.8252,65.41699-145.8252,145.82422
			s65.41699,145.82422,145.8252,145.82422c80.40723,0,145.82422-65.41699,145.82422-145.82422
			S246.83887,20.34082,166.43164,20.34082z M166.41504,308.21387c-78.31738,0-142.0332-63.72266-142.0332-142.04883
			S88.09766,24.11621,166.41504,24.11621c78.32617,0,142.04883,63.72266,142.04883,142.04883
			S244.74121,308.21387,166.41504,308.21387z"/>
		<path fill="#828282" d="M334,258.18994v-8.13818C315.78735,286.30273,286.1626,315.86475,249.86646,334h8.16602
			C289.98389,316.479,316.4126,290.09985,334,258.18994z"/>
		<path fill="#828282" d="M166.41504,27.90723c-76.22656,0-138.24219,62.02246-138.24219,138.25781
			s62.01562,138.25781,138.24219,138.25781c76.23535,0,138.25781-62.02246,138.25781-138.25781
			S242.65039,27.90723,166.41504,27.90723z M166.41504,300.63086c-74.14551,0-134.4668-60.32129-134.4668-134.46582
			S92.26953,31.69922,166.41504,31.69922c74.14453,0,134.46582,60.32129,134.46582,134.46582
			S240.55957,300.63086,166.41504,300.63086z"/>
		<path fill="#828282" d="M166.43164,12.75781c-84.58008,0-153.3916,68.81836-153.3916,153.40723
			c0,84.58984,68.81152,153.4082,153.3916,153.4082c84.58887,0,153.40723-68.81836,153.40723-153.4082
			C319.83887,81.57617,251.02051,12.75781,166.43164,12.75781z M166.43164,315.78027
			c-82.49902,0-149.61621-67.11719-149.61621-149.61523S83.93262,16.5498,166.43164,16.5498
			c82.49805,0,149.61523,67.11719,149.61523,149.61523S248.92969,315.78027,166.43164,315.78027z"/>
		<path fill="#828282" d="M334,273.02856v-7.22925C317.27661,293.82983,293.72803,317.33154,265.66113,334h7.24731
			C297.43701,318.37402,318.32861,297.52588,334,273.02856z"/>
		<path fill="#828282" d="M334,322.2605v-5.59985c-5.47217,6.08838-11.27051,11.87598-17.36694,17.33936h5.61011
			C326.30176,330.22876,330.2229,326.31323,334,322.2605z"/>
		<path fill="#828282" d="M334,333.19849v-5.42456c-2.03882,2.11353-4.11523,4.19043-6.23169,6.22607h5.42456
			C333.46191,333.73267,333.73242,333.46704,334,333.19849z"/>
		<path fill="#828282" d="M334,310.94507v-5.86865c-8.73218,10.5188-18.43091,20.20728-28.96313,28.92358h5.86865
			C319.15332,326.8877,326.87549,319.18213,334,310.94507z"/>
		<path fill="#828282" d="M334,299.05933V292.875c-11.76904,15.53027-25.64014,29.38159-41.19092,41.125h6.198
			C311.96875,323.73584,323.71533,312.00415,334,299.05933z"/>
		<path fill="#828282" d="M334,286.49951v-6.59717C319.52246,301.17236,301.11035,319.55835,279.81396,334h6.60547
			C304.74023,320.85913,320.82739,304.79639,334,286.49951z"/>
		<path fill="#828282" d="M334,220.14453v-14.04297C318.93677,269.34619,268.92676,319.18945,205.58569,334h14.17822
			C273.80103,316.7627,316.58545,274.10327,334,220.14453z"/>
		<path fill="#828282" d="M166.33203,111.2373c-30.27832,0-54.91113,24.64062-54.91113,54.92773
			s24.63281,54.92773,54.91113,54.92773c30.28711,0,54.92773-24.64062,54.92773-54.92773S196.61914,111.2373,166.33203,111.2373z
			 M166.33203,217.30078c-28.19629,0-51.13574-22.93945-51.13574-51.13574s22.93945-51.13574,51.13574-51.13574
			s51.13574,22.93945,51.13574,51.13574S194.52832,217.30078,166.33203,217.30078z"/>
		<path fill="#828282" d="M166.33203,118.82031c-26.10547,0-47.34473,21.23926-47.34473,47.34473
			s21.23926,47.34473,47.34473,47.34473s47.34473-21.23926,47.34473-47.34473S192.4375,118.82031,166.33203,118.82031z
			 M166.38184,209.71777c-24.02441,0-43.56934-19.53711-43.56934-43.55273s19.54492-43.55273,43.56934-43.55273
			c24.01562,0,43.55273,19.53711,43.55273,43.55273S190.39746,209.71777,166.38184,209.71777z"/>
		<path fill="#828282" d="M166.36523,88.52148c-42.8125,0-77.64355,34.83105-77.64355,77.64355s34.83105,77.64355,77.64355,77.64355
			s77.64355-34.83105,77.64355-77.64355S209.17773,88.52148,166.36523,88.52148z M166.34863,240.0332
			c-40.72168,0-73.85156-33.13672-73.85156-73.86816s33.12988-73.86816,73.85156-73.86816
			c40.73145,0,73.86816,33.13672,73.86816,73.86816S207.08008,240.0332,166.34863,240.0332z"/>
		<path fill="#828282" d="M166.34863,96.08789c-38.63184,0-70.06055,31.43652-70.06055,70.07715
			s31.42871,70.07715,70.06055,70.07715c38.64062,0,70.07715-31.43652,70.07715-70.07715S204.98926,96.08789,166.34863,96.08789z
			 M166.34863,232.4502c-36.5498,0-66.28516-29.73535-66.28516-66.28516s29.73535-66.28516,66.28516-66.28516
			s66.28516,29.73535,66.28516,66.28516S202.89844,232.4502,166.34863,232.4502z"/>
		<path fill="#828282" d="M166.36523,133.96973c-17.75195,0-32.19531,14.44336-32.19531,32.19531
			s14.44336,32.19531,32.19531,32.19531s32.19531-14.44336,32.19531-32.19531S184.11719,133.96973,166.36523,133.96973z
			 M166.36523,194.56836c-15.6709,0-28.41992-12.74121-28.41992-28.40332s12.74902-28.40332,28.41992-28.40332
			c15.66211,0,28.40332,12.74121,28.40332,28.40332S182.02734,194.56836,166.36523,194.56836z"/>
		<path fill="#828282" d="M166.38184,126.40332c-21.93359,0-39.77832,17.83691-39.77832,39.76172
			s17.84473,39.76172,39.77832,39.76172c21.9248,0,39.76172-17.83691,39.76172-39.76172S188.30664,126.40332,166.38184,126.40332z
			 M166.36523,202.15137c-19.84277,0-35.98633-16.14355-35.98633-35.98633s16.14355-35.98633,35.98633-35.98633
			s35.98633,16.14355,35.98633,35.98633S186.20801,202.15137,166.36523,202.15137z"/>
		<path fill="#828282" d="M166.39844,58.22266c-59.52832,0-107.95898,48.42285-107.95898,107.94238
			s48.43066,107.94238,107.95898,107.94238c59.51953,0,107.94238-48.42285,107.94238-107.94238
			S225.91797,58.22266,166.39844,58.22266z M166.38184,270.33203c-57.43848,0-104.16699-46.72852-104.16699-104.16699
			S108.94336,61.99805,166.38184,61.99805s104.16699,46.72852,104.16699,104.16699S223.82031,270.33203,166.38184,270.33203z"/>
		<path fill="#828282" d="M166.36523,80.93848c-46.98438,0-85.20996,38.23242-85.20996,85.22656
			s38.22559,85.22656,85.20996,85.22656c46.99414,0,85.22656-38.23242,85.22656-85.22656S213.35938,80.93848,166.36523,80.93848z
			 M166.36523,247.59961c-44.90332,0-81.43457-36.53125-81.43457-81.43457s36.53125-81.43457,81.43457-81.43457
			s81.43457,36.53125,81.43457,81.43457S211.26855,247.59961,166.36523,247.59961z"/>
		<path fill="#828282" d="M166.39844,50.63965c-63.70117,0-115.52539,51.82422-115.52539,115.52539
			s51.82422,115.52539,115.52539,115.52539s115.52539-51.82422,115.52539-115.52539S230.09961,50.63965,166.39844,50.63965z
			 M166.39844,277.89844c-61.61914,0-111.75-50.12305-111.75-111.7334s50.13086-111.7334,111.75-111.7334
			c61.61035,0,111.7334,50.12305,111.7334,111.7334S228.00879,277.89844,166.39844,277.89844z"/>
		<path fill="#828282" d="M166.41504,43.07324c-67.88281,0-123.10938,55.21875-123.10938,123.0918
			s55.22656,123.0918,123.10938,123.0918c67.87305,0,123.0918-55.21875,123.0918-123.0918S234.28809,43.07324,166.41504,43.07324z
			 M166.39844,285.48145c-65.79102,0-119.31641-53.52539-119.31641-119.31641S100.60742,46.84863,166.39844,46.84863
			s119.31641,53.52539,119.31641,119.31641S232.18945,285.48145,166.39844,285.48145z"/>
		<path fill="#828282" d="M166.41504,35.49023c-72.05469,0-130.67578,58.62109-130.67578,130.6748
			s58.62109,130.6748,130.67578,130.6748c72.05371,0,130.6748-58.62109,130.6748-130.6748S238.46875,35.49023,166.41504,35.49023z
			 M166.41504,293.04785c-69.97363,0-126.90039-56.91895-126.90039-126.88281S96.44141,39.28223,166.41504,39.28223
			c69.96387,0,126.88281,56.91895,126.88281,126.88281S236.37891,293.04785,166.41504,293.04785z"/>
		<path fill="#828282" d="M166.38184,73.37207c-51.1748,0-92.80957,41.62695-92.80957,92.79297s41.63477,92.79297,92.80957,92.79297
			c51.16602,0,92.79297-41.62695,92.79297-92.79297S217.54785,73.37207,166.38184,73.37207z M166.36523,255.18262
			c-49.0752,0-89.00098-39.93262-89.00098-89.01758s39.92578-89.01758,89.00098-89.01758
			c49.08496,0,89.01758,39.93262,89.01758,89.01758S215.4502,255.18262,166.36523,255.18262z"/>
		<path fill="#828282" d="M166.38184,65.78906c-55.34766,0-100.37598,45.02832-100.37598,100.37598
			s45.02832,100.37598,100.37598,100.37598s100.37598-45.02832,100.37598-100.37598S221.72949,65.78906,166.38184,65.78906z
			 M166.38184,262.74902c-53.26562,0-96.60059-43.32715-96.60059-96.58398s43.33496-96.58398,96.60059-96.58398
			c53.25684,0,96.58398,43.32715,96.58398,96.58398S219.63867,262.74902,166.38184,262.74902z"/>
		<path fill="#828282" d="M166.34863,103.6709c-34.45898,0-62.49414,28.03516-62.49414,62.49414
			s28.03516,62.49414,62.49414,62.49414s62.49414-28.03516,62.49414-62.49414S200.80762,103.6709,166.34863,103.6709z
			 M166.33203,224.88379c-32.36816,0-58.70215-26.34082-58.70215-58.71875s26.33398-58.71875,58.70215-58.71875
			c32.37793,0,58.71875,26.34082,58.71875,58.71875S198.70996,224.88379,166.33203,224.88379z"/>
		<path fill="#7D7D7D" d="M166.33203,160.47852c-3.13672,0-5.6875,2.55078-5.6875,5.68652c0,3.13672,2.55078,5.6875,5.6875,5.6875
			s5.6875-2.55078,5.6875-5.6875C172.01953,163.0293,169.46875,160.47852,166.33203,160.47852z M166.33203,168.06152
			c-1.0459,0-1.89648-0.85059-1.89648-1.89648c0-1.04492,0.85059-1.89551,1.89648-1.89551s1.89648,0.85059,1.89648,1.89551
			C168.22852,167.21094,167.37793,168.06152,166.33203,168.06152z"/>
		<path fill="#7D7D7D" d="M166.34863,152.91211c-7.31738,0-13.27051,5.94531-13.27051,13.25293
			c0,7.30859,5.95312,13.25391,13.27051,13.25391c7.30859,0,13.25391-5.94531,13.25391-13.25391
			C179.60254,158.85742,173.65723,152.91211,166.34863,152.91211z M166.34863,175.62793c-5.22656,0-9.47949-4.24512-9.47949-9.46289
			c0-5.2168,4.25293-9.46191,9.47949-9.46191c5.21777,0,9.46289,4.24512,9.46289,9.46191
			C175.81152,171.38281,171.56641,175.62793,166.34863,175.62793z"/>
		<path fill="#7D7D7D" d="M166.34863,145.32812c-11.48926,0-20.83691,9.34766-20.83691,20.83691s9.34766,20.83691,20.83691,20.83691
			s20.83691-9.34766,20.83691-20.83691S177.83789,145.32812,166.34863,145.32812z M166.34863,183.21094
			c-9.39941,0-17.0459-7.64648-17.0459-17.0459s7.64648-17.0459,17.0459-17.0459s17.0459,7.64648,17.0459,17.0459
			S175.74805,183.21094,166.34863,183.21094z"/>
		<path fill="#7D7D7D" d="M166.36523,137.76172c-15.6709,0-28.41992,12.74121-28.41992,28.40332
			s12.74902,28.40332,28.41992,28.40332c15.66211,0,28.40332-12.74121,28.40332-28.40332S182.02734,137.76172,166.36523,137.76172z
			 M166.36523,190.77734c-13.58008,0-24.62891-11.04102-24.62891-24.6123s11.04883-24.6123,24.62891-24.6123
			c13.57129,0,24.6123,11.04102,24.6123,24.6123S179.93652,190.77734,166.36523,190.77734z"/>
		<path fill="#7D7D7D" d="M166.36523,130.17871c-19.84277,0-35.98633,16.14355-35.98633,35.98633
			s16.14355,35.98633,35.98633,35.98633s35.98633-16.14355,35.98633-35.98633S186.20801,130.17871,166.36523,130.17871z
			 M166.36523,198.36035c-17.75195,0-32.19531-14.44336-32.19531-32.19531s14.44336-32.19531,32.19531-32.19531
			s32.19531,14.44336,32.19531,32.19531S184.11719,198.36035,166.36523,198.36035z"/>
		<path fill="#7D7D7D" d="M166.38184,122.6123c-24.02441,0-43.56934,19.53711-43.56934,43.55273
			s19.54492,43.55273,43.56934,43.55273c24.01562,0,43.55273-19.53711,43.55273-43.55273S190.39746,122.6123,166.38184,122.6123z
			 M166.38184,205.92676c-21.93359,0-39.77832-17.83691-39.77832-39.76172s17.84473-39.76172,39.77832-39.76172
			c21.9248,0,39.76172,17.83691,39.76172,39.76172S188.30664,205.92676,166.38184,205.92676z"/>
		<path fill="#7D7D7D" d="M166.33203,115.0293c-28.19629,0-51.13574,22.93945-51.13574,51.13574
			s22.93945,51.13574,51.13574,51.13574s51.13574-22.93945,51.13574-51.13574S194.52832,115.0293,166.33203,115.0293z
			 M166.33203,213.50977c-26.10547,0-47.34473-21.23926-47.34473-47.34473s21.23926-47.34473,47.34473-47.34473
			s47.34473,21.23926,47.34473,47.34473S192.4375,213.50977,166.33203,213.50977z"/>
		<path fill="#7D7D7D" d="M166.33203,107.44629c-32.36816,0-58.70215,26.34082-58.70215,58.71875
			s26.33398,58.71875,58.70215,58.71875c32.37793,0,58.71875-26.34082,58.71875-58.71875S198.70996,107.44629,166.33203,107.44629z
			 M166.33203,221.09277c-30.27832,0-54.91113-24.64062-54.91113-54.92773s24.63281-54.92773,54.91113-54.92773
			c30.28711,0,54.92773,24.64062,54.92773,54.92773S196.61914,221.09277,166.33203,221.09277z"/>
		<path fill="#7D7D7D" d="M166.34863,99.87988c-36.5498,0-66.28516,29.73535-66.28516,66.28516s29.73535,66.28516,66.28516,66.28516
			s66.28516-29.73535,66.28516-66.28516S202.89844,99.87988,166.34863,99.87988z M166.34863,228.65918
			c-34.45898,0-62.49414-28.03516-62.49414-62.49414s28.03516-62.49414,62.49414-62.49414s62.49414,28.03516,62.49414,62.49414
			S200.80762,228.65918,166.34863,228.65918z"/>
		<path fill="#7D7D7D" d="M166.34863,92.29688c-40.72168,0-73.85156,33.13672-73.85156,73.86816
			s33.12988,73.86816,73.85156,73.86816c40.73145,0,73.86816-33.13672,73.86816-73.86816S207.08008,92.29688,166.34863,92.29688z
			 M166.34863,236.24219c-38.63184,0-70.06055-31.43652-70.06055-70.07715s31.42871-70.07715,70.06055-70.07715
			c38.64062,0,70.07715,31.43652,70.07715,70.07715S204.98926,236.24219,166.34863,236.24219z"/>
		<path fill="#7D7D7D" d="M166.36523,84.73047c-44.90332,0-81.43457,36.53125-81.43457,81.43457
			s36.53125,81.43457,81.43457,81.43457s81.43457-36.53125,81.43457-81.43457S211.26855,84.73047,166.36523,84.73047z
			 M166.36523,243.80859c-42.8125,0-77.64355-34.83105-77.64355-77.64355s34.83105-77.64355,77.64355-77.64355
			s77.64355,34.83105,77.64355,77.64355S209.17773,243.80859,166.36523,243.80859z"/>
		<path fill="#7D7D7D" d="M166.36523,77.14746c-49.0752,0-89.00098,39.93262-89.00098,89.01758s39.92578,89.01758,89.00098,89.01758
			c49.08496,0,89.01758-39.93262,89.01758-89.01758S215.4502,77.14746,166.36523,77.14746z M166.36523,251.3916
			c-46.98438,0-85.20996-38.23242-85.20996-85.22656s38.22559-85.22656,85.20996-85.22656
			c46.99414,0,85.22656,38.23242,85.22656,85.22656S213.35938,251.3916,166.36523,251.3916z"/>
		<path fill="#7D7D7D" d="M166.38184,69.58105c-53.26562,0-96.60059,43.32715-96.60059,96.58398
			s43.33496,96.58398,96.60059,96.58398c53.25684,0,96.58398-43.32715,96.58398-96.58398S219.63867,69.58105,166.38184,69.58105z
			 M166.38184,258.95801c-51.1748,0-92.80957-41.62695-92.80957-92.79297s41.63477-92.79297,92.80957-92.79297
			c51.16602,0,92.79297,41.62695,92.79297,92.79297S217.54785,258.95801,166.38184,258.95801z"/>
		<path fill="#7D7D7D" d="M166.38184,61.99805c-57.43848,0-104.16699,46.72852-104.16699,104.16699
			s46.72852,104.16699,104.16699,104.16699s104.16699-46.72852,104.16699-104.16699S223.82031,61.99805,166.38184,61.99805z
			 M166.38184,266.54102c-55.34766,0-100.37598-45.02832-100.37598-100.37598S111.03418,65.78906,166.38184,65.78906
			s100.37598,45.02832,100.37598,100.37598S221.72949,266.54102,166.38184,266.54102z"/>
		<path fill="#7D7D7D" d="M166.39844,54.43164c-61.61914,0-111.75,50.12305-111.75,111.7334s50.13086,111.7334,111.75,111.7334
			c61.61035,0,111.7334-50.12305,111.7334-111.7334S228.00879,54.43164,166.39844,54.43164z M166.39844,274.10742
			c-59.52832,0-107.95898-48.42285-107.95898-107.94238S106.87012,58.22266,166.39844,58.22266
			c59.51953,0,107.94238,48.42285,107.94238,107.94238S225.91797,274.10742,166.39844,274.10742z"/>
		<path fill="#7D7D7D" d="M166.39844,46.84863c-65.79102,0-119.31641,53.52539-119.31641,119.31641
			s53.52539,119.31641,119.31641,119.31641s119.31641-53.52539,119.31641-119.31641S232.18945,46.84863,166.39844,46.84863z
			 M166.39844,281.69043c-63.70117,0-115.52539-51.82422-115.52539-115.52539S102.69727,50.63965,166.39844,50.63965
			s115.52539,51.82422,115.52539,115.52539S230.09961,281.69043,166.39844,281.69043z"/>
		<path fill="#7D7D7D" d="M166.41504,39.28223c-69.97363,0-126.90039,56.91895-126.90039,126.88281
			s56.92676,126.88281,126.90039,126.88281c69.96387,0,126.88281-56.91895,126.88281-126.88281
			S236.37891,39.28223,166.41504,39.28223z M166.41504,289.25684c-67.88281,0-123.10938-55.21875-123.10938-123.0918
			s55.22656-123.0918,123.10938-123.0918c67.87305,0,123.0918,55.21875,123.0918,123.0918S234.28809,289.25684,166.41504,289.25684z
			"/>
		<path fill="#7D7D7D" d="M166.41504,31.69922c-74.14551,0-134.4668,60.32129-134.4668,134.46582
			s60.32129,134.46582,134.4668,134.46582c74.14453,0,134.46582-60.32129,134.46582-134.46582
			S240.55957,31.69922,166.41504,31.69922z M166.41504,296.83984c-72.05469,0-130.67578-58.62109-130.67578-130.6748
			s58.62109-130.6748,130.67578-130.6748c72.05371,0,130.6748,58.62109,130.6748,130.6748S238.46875,296.83984,166.41504,296.83984z
			"/>
		<path fill="#7D7D7D" d="M166.41504,24.11621c-78.31738,0-142.0332,63.72266-142.0332,142.04883
			s63.71582,142.04883,142.0332,142.04883c78.32617,0,142.04883-63.72266,142.04883-142.04883
			S244.74121,24.11621,166.41504,24.11621z M166.41504,304.42285c-76.22656,0-138.24219-62.02246-138.24219-138.25781
			S90.18848,27.90723,166.41504,27.90723c76.23535,0,138.25781,62.02246,138.25781,138.25781
			S242.65039,304.42285,166.41504,304.42285z"/>
		<path fill="#7D7D7D" d="M166.43164,16.5498c-82.49902,0-149.61621,67.11719-149.61621,149.61523
			s67.11719,149.61523,149.61621,149.61523c82.49805,0,149.61523-67.11719,149.61523-149.61523S248.92969,16.5498,166.43164,16.5498
			z M166.43164,311.98926c-80.4082,0-145.8252-65.41699-145.8252-145.82422S86.02344,20.34082,166.43164,20.34082
			c80.40723,0,145.82422,65.41699,145.82422,145.82422S246.83887,311.98926,166.43164,311.98926z"/>
		<path fill="#7D7D7D" d="M166.43164,8.9668c-86.6709,0-157.18262,70.51855-157.18262,157.19824
			s70.51172,157.19922,157.18262,157.19922c86.67969,0,157.19824-70.51953,157.19824-157.19922S253.11133,8.9668,166.43164,8.9668z
			 M166.43164,319.57324c-84.58008,0-153.3916-68.81836-153.3916-153.4082c0-84.58887,68.81152-153.40723,153.3916-153.40723
			c84.58887,0,153.40723,68.81836,153.40723,153.40723C319.83887,250.75488,251.02051,319.57324,166.43164,319.57324z"/>
		<path fill="#7D7D7D" d="M166.44824,1.40039c-90.85254,0-164.76562,73.91309-164.76562,164.76465
			c0,90.85254,73.91309,164.76562,164.76562,164.76562c90.85156,0,164.76465-73.91309,164.76465-164.76562
			C331.21289,75.31348,257.2998,1.40039,166.44824,1.40039z M166.44824,327.13965
			c-88.76172,0-160.97461-72.21289-160.97461-160.97461c0-88.76074,72.21289-160.97363,160.97461-160.97363
			c88.76074,0,160.97363,72.21289,160.97363,160.97363C327.42188,254.92676,255.20898,327.13965,166.44824,327.13965z"/>
		<path fill="#7D7D7D" d="M0,193.38599v17.88477C16.49658,272.05127,65.48291,319.59521,127.08203,334h23.71729
			C74.17285,326.96362,12.23462,268.41919,0,193.38599z"/>
		<path fill="#7D7D7D" d="M334,148.80078v-22.57227C319.45801,65.17236,272.34326,16.61353,212.10889,0h-17.45801
			C268.56104,12.55713,326.24658,73.38403,334,148.80078z"/>
		<path fill="#7D7D7D" d="M138.01562,0h-17.45605C62.04102,16.1416,15.90967,62.44141,0,121.05957v17.88452
			C11.54639,68.13135,67.36206,12.00488,138.01562,0z"/>
		<path fill="#7D7D7D" d="M334,206.10156V183.5293C325.80493,263.24316,261.82617,326.6582,181.86621,334h23.71948
			C268.92676,319.18945,318.93677,269.34619,334,206.10156z"/>
		<path fill="#7D7D7D" d="M0,224.07153v10.64282C18.78223,280.11694,55.62988,316.21484,101.53882,334h11.38965
			C60.2041,317.18311,18.19092,276.16895,0,224.07153z"/>
		<path fill="#7D7D7D" d="M107.96362,0H97.38428C53.40967,18.31543,18.21216,53.5918,0,97.61621v10.64282
			C17.61597,57.80859,57.57324,17.75415,107.96362,0z"/>
		<path fill="#7D7D7D" d="M334,231.45117v-11.30664C316.58545,274.10327,273.80103,316.7627,219.76392,334h11.38867
			C278.15259,315.79053,315.65967,278.38623,334,231.45117z"/>
		<path fill="#7D7D7D" d="M334,112.18604v-11.30664C316.20312,55.33594,280.35938,18.76611,235.30664,0h-10.57837
			C276.41431,18.2124,317.12256,59.89136,334,112.18604z"/>
		<path fill="#7D7D7D" d="M334,250.05176v-8.80566C315.48755,282.42065,282.23926,315.58716,241.01074,334h8.85571
			C286.1626,315.86475,315.78735,286.30273,334,250.05176z"/>
		<path fill="#7D7D7D" d="M0,244.0603v8.53857C18.30615,287.6875,47.38843,316.29126,82.83081,334h8.85571
			C51.40283,316.00928,18.74463,283.92944,0,244.0603z"/>
		<path fill="#7D7D7D" d="M334,91.08398v-8.80566C316.33643,47.11987,287.93799,18.25293,253.12988,0h-8.49341
			C284.18652,18.70898,316.03369,51.12402,334,91.08398z"/>
		<path fill="#7D7D7D" d="M88.06079,0h-8.49341C45.60327,17.8103,17.74121,45.72559,0,79.7312v8.53857
			C18.17871,49.604,49.44482,18.26733,88.06079,0z"/>
		<path fill="#7D7D7D" d="M334,74.14087v-7.60986C317.82837,39.42554,295.27661,16.55225,268.42627,0h-7.41187
			C291.62891,17.50659,316.96265,43.229,334,74.14087z"/>
		<path fill="#7D7D7D" d="M334,265.79932v-7.60938C316.4126,290.09985,289.98389,316.479,258.03247,334h7.62866
			C293.72803,317.33154,317.27661,293.82983,334,265.79932z"/>
		<path fill="#7D7D7D" d="M71.70801,0h-7.41284C38.14844,16.11743,16.07324,38.2251,0,64.40063v7.44629
			C17.01611,41.95605,41.85107,17.07178,71.70801,0z"/>
		<path fill="#7D7D7D" d="M0,260.48389v7.4458C16.63672,295.02246,39.70459,317.75488,67.06055,334h7.62964
			C43.50488,316.90063,17.57935,291.3645,0,260.48389z"/>
		<path fill="#7D7D7D" d="M334,59.30151v-6.87378C320.07227,31.96509,302.49707,14.17969,282.22119,0h-6.74902
			C298.89209,15.42993,318.87842,35.66357,334,59.30151z"/>
		<path fill="#7D7D7D" d="M0,274.96802v6.7644C14.2793,302.22607,32.23486,319.97534,52.9165,334h6.90552
			C35.94531,318.78931,15.52368,298.62427,0,274.96802z"/>
		<path fill="#7D7D7D" d="M57.2583,0h-6.74902C30.8418,13.75439,13.72119,30.90527,0,50.59766v6.7644
			C14.96436,34.55835,34.48364,15.00488,57.2583,0z"/>
		<path fill="#7D7D7D" d="M334,279.90234v-6.87378C318.32861,297.52588,297.43701,318.37402,272.90845,334h6.90552
			C301.11035,319.55835,319.52246,301.17236,334,279.90234z"/>
		<path fill="#7D7D7D" d="M334,292.875v-6.37549C320.82739,304.79639,304.74023,320.85913,286.41943,334h6.38965
			C308.35986,322.25659,322.23096,308.40527,334,292.875z"/>
		<path fill="#7D7D7D" d="M334,45.83057v-6.37549C322.78345,24.65381,309.65576,11.37988,294.98608,0h-6.27856
			C306.08081,12.82373,321.37915,28.30029,334,45.83057z"/>
		<path fill="#7D7D7D" d="M0,288.21167v6.29224C11.49854,309.37451,24.93848,322.66919,39.94434,334h6.39062
			C28.58667,321.271,12.9375,305.79858,0,288.21167z"/>
		<path fill="#7D7D7D" d="M44.04663,0h-6.27954C23.63696,10.96045,10.93921,23.6792,0,37.82617v6.29224
			C12.37793,27.29199,27.24023,12.4043,44.04663,0z"/>
		<path fill="#7D7D7D" d="M334,305.07642v-6.01709C323.71533,312.00415,311.96875,323.73584,299.00708,334h6.02979
			C315.56909,325.28369,325.26782,315.59521,334,305.07642z"/>
		<path fill="#7D7D7D" d="M31.68408,0h-5.93164C16.46997,7.86816,7.85425,16.49707,0,25.79199v5.94434
			C9.4292,20.08862,20.05176,9.44751,31.68408,0z"/>
		<path fill="#7D7D7D" d="M0,300.59375v5.94434C8.41064,316.49121,17.68628,325.69043,27.72681,334h6.02979
			C21.31006,324.14355,9.9873,312.93115,0,300.59375z"/>
		<path fill="#7D7D7D" d="M334,33.27075v-6.01709C325.81836,17.39844,316.78052,8.28076,307.01123,0h-5.93164
			C313.22168,9.86157,324.26733,21.02075,334,33.27075z"/>
		<path fill="#7D7D7D" d="M334,316.66064v-5.71558c-7.12451,8.23706-14.84668,15.94263-23.09448,23.05493h5.72754
			C322.72949,328.53662,328.52783,322.74902,334,316.66064z"/>
		<path fill="#7D7D7D" d="M334,21.38501v-5.71558C329.08325,10.19897,323.90625,4.96802,318.48315,0h-5.677
			C320.3396,6.64624,327.42725,13.78613,334,21.38501z"/>
		<path fill="#7D7D7D" d="M19.96875,0h-5.67676C9.31885,4.55615,4.54858,9.32983,0,14.30981v5.68921
			C6.22705,12.91821,12.89795,6.23853,19.96875,0z"/>
		<path fill="#7D7D7D" d="M0,312.33105v5.68921C5.10889,323.61377,10.5,328.9436,16.14185,334h5.72729
			C14.08862,327.29028,6.78418,320.04517,0,312.33105z"/>
		<path fill="#7D7D7D" d="M0,323.55273v5.45337c1.65259,1.68823,3.32568,3.3562,5.02856,4.9939h5.52515
			C6.92627,330.62939,3.40332,327.14893,0,323.55273z"/>
		<path fill="#7D7D7D" d="M8.76001,0H3.31836C2.20093,1.09692,1.09521,2.20508,0,3.32397v5.45337
			C2.8418,5.77441,5.76123,2.84619,8.76001,0z"/>
		<path fill="#7D7D7D" d="M334,327.77393v-5.51343c-3.7771,4.05273-7.69824,7.96826-11.75684,11.7395h5.52515
			C329.88477,331.96436,331.96118,329.88745,334,327.77393z"/>
		<path fill="#7D7D7D" d="M334,10.06958V4.55615C332.5144,3.01611,331.00562,1.49902,329.47852,0h-5.44165
			C327.4624,3.25146,330.77979,6.61426,334,10.06958z"/>
		<path fill="#7D7D7D" d="M334,333.19849c-0.26758,0.26855-0.53809,0.53418-0.80713,0.80151H334V333.19849z"/>
	</g>
</g>
<g id="Layer_3" display="none">
</g>
<g id="Layer_2" display="none">
</g>
</svg>
