<?xml version="1.0" encoding="utf-8"?>
<!-- Generator: Adobe Illustrator 21.1.0, SVG Export Plug-In . SVG Version: 6.00 Build 0)  -->
<svg version="1.2" baseProfile="tiny" xmlns="http://www.w3.org/2000/svg" xmlns:xlink="http://www.w3.org/1999/xlink" x="0px"
	 y="0px" viewBox="0 0 334 334" xml:space="preserve">
<g id="Layer_1">
	<g>
		<path fill="#909090" d="M334,14.18921V8.63428C331.20044,5.68115,328.32446,2.80151,325.37305,0h-5.55347
			C324.75232,4.51904,329.48462,9.25293,334,14.18921z"/>
		<path fill="#909090" d="M167.71875,205.92676c21.92432,0,39.76074-17.83691,39.76074-39.76172
			s-17.83643-39.76172-39.76074-39.76172c-21.93359,0-39.77783,17.83691-39.77783,39.76172S145.78516,205.92676,167.71875,205.92676
			z M167.70166,130.17871c19.84326,0,35.98682,16.14355,35.98682,35.98633s-16.14355,35.98633-35.98682,35.98633
			c-19.84277,0-35.98633-16.14355-35.98633-35.98633S147.85889,130.17871,167.70166,130.17871z"/>
		<path fill="#909090" d="M334,3.18774V0h-3.1853C331.88672,1.05225,332.94824,2.11499,334,3.18774z"/>
		<path fill="#909090" d="M167.70166,198.36035c17.75244,0,32.19482-14.44336,32.19482-32.19531
			s-14.44238-32.19531-32.19482-32.19531c-17.75195,0-32.19434,14.44336-32.19434,32.19531S149.94971,198.36035,167.70166,198.36035
			z M167.70166,137.76172c15.66162,0,28.40381,12.74121,28.40381,28.40332s-12.74219,28.40332-28.40381,28.40332
			c-15.6709,0-28.41992-12.74121-28.41992-28.40332S152.03076,137.76172,167.70166,137.76172z"/>
		<path fill="#909090" d="M167.70166,190.77734c13.57129,0,24.61182-11.04102,24.61182-24.6123s-11.04053-24.6123-24.61182-24.6123
			c-13.58008,0-24.62793,11.04102-24.62793,24.6123S154.12158,190.77734,167.70166,190.77734z M167.68506,145.32812
			c11.48926,0,20.83691,9.34766,20.83691,20.83691s-9.34766,20.83691-20.83691,20.83691s-20.83691-9.34766-20.83691-20.83691
			S156.1958,145.32812,167.68506,145.32812z"/>
		<path fill="#909090" d="M167.68506,175.62793c5.21729,0,9.46191-4.24512,9.46191-9.46289
			c0-5.2168-4.24463-9.46191-9.46191-9.46191c-5.22656,0-9.47852,4.24512-9.47852,9.46191
			C158.20654,171.38281,162.4585,175.62793,167.68506,175.62793z M167.66797,160.47852c3.13623,0,5.68799,2.55078,5.68799,5.68652
			c0,3.13672-2.55176,5.6875-5.68799,5.6875c-3.13574,0-5.6875-2.55078-5.6875-5.6875
			C161.98047,163.0293,164.53223,160.47852,167.66797,160.47852z"/>
		<path fill="#909090" d="M167.68506,183.21094c9.39893,0,17.04492-7.64648,17.04492-17.0459s-7.646-17.0459-17.04492-17.0459
			s-17.04492,7.64648-17.04492,17.0459S158.28613,183.21094,167.68506,183.21094z M167.68506,152.91211
			c7.30811,0,13.25391,5.94531,13.25391,13.25293c0,7.30859-5.9458,13.25391-13.25391,13.25391
			c-7.31738,0-13.27051-5.94531-13.27051-13.25391C154.41455,158.85742,160.36768,152.91211,167.68506,152.91211z"/>
		<path fill="#909090" d="M167.75195,243.80859c42.8125,0,77.64307-34.83105,77.64307-77.64355
			s-34.83057-77.64355-77.64307-77.64355s-77.64258,34.83105-77.64258,77.64355S124.93945,243.80859,167.75195,243.80859z
			 M167.73535,92.29688c40.73096,0,73.86865,33.13672,73.86865,73.86816s-33.1377,73.86816-73.86865,73.86816
			c-40.72217,0-73.85205-33.13672-73.85205-73.86816S127.01318,92.29688,167.73535,92.29688z"/>
		<path fill="#909090" d="M167.73535,236.24219c38.64062,0,70.07666-31.43652,70.07666-70.07715
			s-31.43604-70.07715-70.07666-70.07715c-38.63135,0-70.06006,31.43652-70.06006,70.07715S129.104,236.24219,167.73535,236.24219z
			 M167.73535,99.87988c36.5498,0,66.28564,29.73535,66.28564,66.28516s-29.73584,66.28516-66.28564,66.28516
			s-66.28564-29.73535-66.28564-66.28516S131.18555,99.87988,167.73535,99.87988z"/>
		<circle fill="#909090" cx="167.66809" cy="166.16528" r="1.89587"/>
		<path fill="#909090" d="M167.75195,251.3916c46.99414,0,85.22656-38.23242,85.22656-85.22656
			s-38.23242-85.22656-85.22656-85.22656c-46.98438,0-85.20898,38.23242-85.20898,85.22656S120.76758,251.3916,167.75195,251.3916z
			 M167.75195,84.73047c44.90332,0,81.43506,36.53125,81.43506,81.43457s-36.53174,81.43457-81.43506,81.43457
			c-44.90283,0-81.43457-36.53125-81.43457-81.43457S122.84912,84.73047,167.75195,84.73047z"/>
		<path fill="#909090" d="M206.92163,334h14.1781C273.80298,317.18823,315.802,276.1936,334,224.11865v-12.79077
			C317.48657,272.08105,268.50708,319.59985,206.92163,334z"/>
		<path fill="#909090" d="M167.73535,228.65918c34.45947,0,62.49365-28.03516,62.49365-62.49414
			s-28.03418-62.49414-62.49365-62.49414s-62.49365,28.03516-62.49365,62.49414S133.27588,228.65918,167.73535,228.65918z
			 M167.71875,107.44629c32.37793,0,58.71924,26.34082,58.71924,58.71875s-26.34131,58.71875-58.71924,58.71875
			c-32.36865,0-58.70264-26.34082-58.70264-58.71875S135.3501,107.44629,167.71875,107.44629z"/>
		<path fill="#909090" d="M167.71875,221.09277c30.28711,0,54.92725-24.64062,54.92725-54.92773
			s-24.64014-54.92773-54.92725-54.92773c-30.27783,0-54.91064,24.64062-54.91064,54.92773S137.44092,221.09277,167.71875,221.09277
			z M167.71875,115.0293c28.19629,0,51.13574,22.93945,51.13574,51.13574s-22.93945,51.13574-51.13574,51.13574
			s-51.13623-22.93945-51.13623-51.13574S139.52246,115.0293,167.71875,115.0293z"/>
		<path fill="#909090" d="M167.71875,213.50977c26.10547,0,47.34375-21.23926,47.34375-47.34473
			s-21.23828-47.34473-47.34375-47.34473c-26.10596,0-47.34424,21.23926-47.34424,47.34473S141.61279,213.50977,167.71875,213.50977
			z M167.71875,122.6123c24.01514,0,43.55273,19.53711,43.55273,43.55273s-19.5376,43.55273-43.55273,43.55273
			c-24.02441,0-43.56982-19.53711-43.56982-43.55273S143.69434,122.6123,167.71875,122.6123z"/>
		<path fill="#909090" d="M232.48853,334h9.85876c40.25964-17.98022,72.90283-50.03223,91.65271-89.86816v-9.37598
			C315.21436,280.13916,278.37878,316.22021,232.48853,334z"/>
		<path fill="#909090" d="M15.62866,0h-5.53149C6.62415,3.29663,3.26196,6.70752,0,10.21362v5.58325
			C4.95007,10.28027,10.16418,5.00635,15.62866,0z"/>
		<path fill="#909090" d="M121.89551,0h-12.59534C57.59033,18.21899,16.86768,59.92212,0,112.24365v14.05298
			C14.52173,65.20825,61.64465,16.61963,121.89551,0z"/>
		<path fill="#909090" d="M334,79.66821v-7.91431C316.98706,41.9043,292.17383,17.0542,262.35034,0h-7.88416
			C288.40918,17.79932,316.25757,45.69092,334,79.66821z"/>
		<path fill="#909090" d="M4.65503,0H0v4.69287C1.52856,3.10547,3.08252,1.5437,4.65503,0z"/>
		<path fill="#909090" d="M334,121.0022v-12.79028C316.37732,57.78369,276.43359,17.74854,226.06421,0h-12.61938
			C271.94971,16.13647,318.07422,62.41113,334,121.0022z"/>
		<path fill="#909090" d="M334,37.71313V31.6123C324.59583,20.01294,314.00708,9.41406,302.41602,0h-6.09338
			C310.41431,10.9314,323.0813,23.61133,334,37.71313z"/>
		<path fill="#909090" d="M334,64.31689v-7.05615C319.04443,34.50049,299.54956,14.98242,276.80859,0h-7.04578
			C295.87939,16.1001,317.9325,38.17822,334,64.31689z"/>
		<path fill="#909090" d="M334,50.50171V44c-12.3595-16.77783-27.19092-31.62476-43.95654-44h-6.48608
			C303.19312,13.73218,320.29004,30.84961,334,50.50171z"/>
		<path fill="#909090" d="M334,97.57471v-9.37646C315.81641,49.56567,284.56519,18.2561,245.97314,0h-9.33057
			C280.599,18.30957,315.78467,53.56958,334,97.57471z"/>
		<path fill="#909090" d="M80.90369,0h-7.85876C42.39624,17.52441,17.03906,43.28174,0,74.23584v8.10938
			C17.66138,47.15674,46.07324,18.2644,80.90369,0z"/>
		<path fill="#909090" d="M65.63184,0h-7.03674C35.13977,15.45312,15.12964,35.72583,0,59.40967v7.21021
			C16.17664,39.47559,38.75,16.57031,65.63184,0z"/>
		<path fill="#909090" d="M98.72095,0h-9.32397C49.82178,18.72119,17.95996,51.16602,0,91.16162v9.76611
			C17.79224,55.36182,53.64844,18.77271,98.72095,0z"/>
		<path fill="#909090" d="M27.08923,0h-5.78369C13.729,6.68506,6.60449,13.87061,0,21.51929v5.85303
			C8.20776,17.47119,17.28027,8.31445,27.08923,0z"/>
		<path fill="#909090" d="M167.76904,258.95801c51.16602,0,92.79248-41.62695,92.79248-92.79297
			s-41.62646-92.79297-92.79248-92.79297c-51.17529,0-92.80957,41.62695-92.80957,92.79297S116.59375,258.95801,167.76904,258.95801
			z M167.75195,77.14746c49.08496,0,89.01855,39.93262,89.01855,89.01758s-39.93359,89.01758-89.01855,89.01758
			c-49.0752,0-89.00098-39.93262-89.00098-89.01758S118.67676,77.14746,167.75195,77.14746z"/>
		<path fill="#909090" d="M39.104,0h-6.08276C20.8374,9.89551,9.75696,21.09668,0,33.396v6.17236
			C11.23633,24.72119,24.39526,11.40894,39.104,0z"/>
		<path fill="#909090" d="M334,25.67407v-5.80176C327.80444,12.83862,321.17139,6.20117,314.14258,0h-5.79517
			C317.5907,7.83496,326.17261,16.42407,334,25.67407z"/>
		<path fill="#909090" d="M51.8457,0h-6.46191C27.96912,12.85327,12.63843,28.37061,0,45.95044v6.57349
			C13.93823,32.02075,31.53784,14.20215,51.8457,0z"/>
		<path fill="#909090" d="M266.9978,334h7.24707C298.0874,318.81104,318.4845,298.68164,334,275.06934v-7.05566
			C317.3689,295.06934,294.323,317.77197,266.9978,334z"/>
		<path fill="#909090" d="M306.37329,334h5.86853c7.73828-6.67285,15.00513-13.87573,21.75818-21.54224v-5.80176
			C325.61584,316.56396,316.37402,325.72339,306.37329,334z"/>
		<path fill="#909090" d="M294.14575,334h6.19775c12.40491-9.82349,23.6936-20.99365,33.65649-33.28223v-6.10083
			C322.52148,309.44189,309.1123,322.69775,294.14575,334z"/>
		<path fill="#909090" d="M281.15039,334h6.6051C305.4624,321.29956,321.08057,305.86816,334,288.33008v-6.50171
			C319.73145,302.28125,301.7998,319.99707,281.15039,334z"/>
		<path fill="#909090" d="M47.67188,334h6.58093C32.92407,319.53638,14.48743,301.11719,0,279.80615v6.57349
			C13.18982,304.72632,29.3092,320.83032,47.67188,334z"/>
		<path fill="#909090" d="M251.20276,334h8.16589c31.15137-17.08228,57.05457-42.58398,74.63135-73.4231v-7.91504
			C315.69214,287.72168,286.62378,316.30176,251.20276,334z"/>
		<path fill="#909090" d="M35.09375,334h6.18726C25.69104,322.22803,11.78833,308.33813,0,292.76172v6.17236
			C10.30835,311.92871,22.09009,323.70264,35.09375,334z"/>
		<path fill="#909090" d="M11.89087,334h5.58765C11.34045,328.49878,5.505,322.66797,0,316.5332v5.58325
			C3.81836,326.2207,7.7843,330.18408,11.89087,334z"/>
		<path fill="#909090" d="M0.95288,334h5.41235C4.20276,331.91992,2.0813,329.79834,0,327.63721v5.41211
			C0.31641,333.36719,0.63452,333.68359,0.95288,334z"/>
		<path fill="#909090" d="M23.20605,334h5.85742C18.49121,325.25049,8.75806,315.52246,0,304.95776v5.85303
			C7.15576,319.0979,14.91455,326.84961,23.20605,334z"/>
		<path fill="#909090" d="M61.15869,334h7.23853C40.29834,317.31396,16.72803,293.78027,0,265.71045v7.20996
			C15.67883,297.46411,36.59436,318.35107,61.15869,334z"/>
		<path fill="#909090" d="M329.10449,334H334v-4.85767C332.39062,330.78394,330.76147,332.40625,329.10449,334z"/>
		<path fill="#909090" d="M317.96948,334h5.60999c3.57959-3.32617,7.05896-6.7583,10.42053-10.3042v-5.55493
			C328.92383,323.68994,323.57068,328.98047,317.96948,334z"/>
		<path fill="#909090" d="M167.78564,281.69043c63.70117,0,115.52539-51.82422,115.52539-115.52539
			S231.48682,50.63965,167.78564,50.63965c-63.70068,0-115.5249,51.82422-115.5249,115.52539
			S104.08496,281.69043,167.78564,281.69043z M167.78564,54.43164c61.61035,0,111.73389,50.12305,111.73389,111.7334
			s-50.12354,111.7334-111.73389,111.7334c-61.61914,0-111.75049-50.12305-111.75049-111.7334S106.1665,54.43164,167.78564,54.43164
			z"/>
		<path fill="#909090" d="M167.81934,311.98926c80.40771,0,145.82422-65.41699,145.82422-145.82422
			S248.22705,20.34082,167.81934,20.34082S21.99512,85.75781,21.99512,166.16504S87.41162,311.98926,167.81934,311.98926z
			 M167.80273,24.11621c78.32617,0,142.04932,63.72266,142.04932,142.04883s-63.72314,142.04883-142.04932,142.04883
			c-78.31738,0-142.0332-63.72266-142.0332-142.04883S89.48535,24.11621,167.80273,24.11621z"/>
		<path fill="#909090" d="M167.81934,319.57324c84.58936,0,153.40723-68.81836,153.40723-153.4082
			c0-84.58887-68.81787-153.40723-153.40723-153.40723c-84.58008,0-153.39062,68.81836-153.39062,153.40723
			C14.42871,250.75488,83.23926,319.57324,167.81934,319.57324z M167.81934,16.5498
			c82.49854,0,149.61621,67.11719,149.61621,149.61523s-67.11768,149.61523-149.61621,149.61523
			S18.20312,248.66309,18.20312,166.16504S85.3208,16.5498,167.81934,16.5498z"/>
		<path fill="#909090" d="M114.26501,334h14.15295C65.06042,319.18408,15.04187,269.31055,0,206.03345v14.05347
			C17.40417,274.07275,60.20361,316.75659,114.26501,334z"/>
		<path fill="#909090" d="M152.13525,334h31.06689C259.80322,326.96655,321.72717,268.46899,334,193.48169v-54.6333
			C322.41772,68.08057,266.61523,11.99951,195.98682,0h-56.63501C65.39795,12.56592,7.68823,73.46826,0,148.95776v34.41455
			C8.12598,263.15991,72.13098,326.65332,152.13525,334z M167.83594,1.40039c90.85205,0,164.76562,73.91309,164.76562,164.76465
			c0,90.85254-73.91357,164.76562-164.76562,164.76562S3.07031,257.01758,3.07031,166.16504
			C3.07031,75.31348,76.98389,1.40039,167.83594,1.40039z"/>
		<path fill="#909090" d="M167.80273,304.42285c76.23535,0,138.25732-62.02246,138.25732-138.25781
			S244.03809,27.90723,167.80273,27.90723c-76.22656,0-138.24121,62.02246-138.24121,138.25781
			S91.57617,304.42285,167.80273,304.42285z M167.80273,31.69922c74.14502,0,134.46631,60.32129,134.46631,134.46582
			s-60.32129,134.46582-134.46631,134.46582s-134.4668-60.32129-134.4668-134.46582S93.65771,31.69922,167.80273,31.69922z"/>
		<path fill="#909090" d="M167.80273,289.25684c67.87305,0,123.09131-55.21875,123.09131-123.0918
			s-55.21826-123.0918-123.09131-123.0918c-67.88232,0-123.1084,55.21875-123.1084,123.0918S99.92041,289.25684,167.80273,289.25684
			z M167.78564,46.84863c65.7915,0,119.31738,53.52539,119.31738,119.31641s-53.52588,119.31641-119.31738,119.31641
			S48.46875,231.95605,48.46875,166.16504S101.99414,46.84863,167.78564,46.84863z"/>
		<path fill="#909090" d="M167.78564,274.10742c59.51953,0,107.94189-48.42285,107.94189-107.94238
			S227.30518,58.22266,167.78564,58.22266c-59.52881,0-107.9585,48.42285-107.9585,107.94238
			S108.25684,274.10742,167.78564,274.10742z M167.76904,61.99805c57.43799,0,104.16748,46.72852,104.16748,104.16699
			s-46.72949,104.16699-104.16748,104.16699S63.60156,223.60352,63.60156,166.16504S110.33105,61.99805,167.76904,61.99805z"/>
		<path fill="#909090" d="M167.80273,296.83984c72.0542,0,130.67432-58.62109,130.67432-130.6748
			s-58.62012-130.6748-130.67432-130.6748c-72.05469,0-130.6748,58.62109-130.6748,130.6748S95.74805,296.83984,167.80273,296.83984
			z M167.80273,39.28223c69.96338,0,126.8833,56.91895,126.8833,126.88281s-56.91992,126.88281-126.8833,126.88281
			c-69.97314,0-126.90039-56.91895-126.90039-126.88281S97.82959,39.28223,167.80273,39.28223z"/>
		<path fill="#909090" d="M167.76904,266.54102c55.34717,0,100.37549-45.02832,100.37549-100.37598
			S223.11621,65.78906,167.76904,65.78906S67.39355,110.81738,67.39355,166.16504S112.42188,266.54102,167.76904,266.54102z
			 M167.76904,69.58105c53.25684,0,96.58447,43.32715,96.58447,96.58398s-43.32764,96.58398-96.58447,96.58398
			c-53.26611,0-96.60156-43.32715-96.60156-96.58398S114.50293,69.58105,167.76904,69.58105z"/>
		<path fill="#909090" d="M93.02283,334h9.85266C55.85522,315.78418,18.33545,278.3606,0,231.40283v9.76562
			C18.50537,282.37891,51.76855,315.57568,93.02283,334z"/>
		<path fill="#909090" d="M167.83594,327.13965c88.76123,0,160.97363-72.21289,160.97363-160.97461
			c0-88.76074-72.2124-160.97363-160.97363-160.97363S6.8623,77.4043,6.8623,166.16504
			C6.8623,254.92676,79.07471,327.13965,167.83594,327.13965z M167.81934,8.9668c86.67969,0,157.19922,70.51855,157.19922,157.19824
			s-70.51953,157.19922-157.19922,157.19922c-86.67041,0-157.18262-70.51953-157.18262-157.19922S81.14893,8.9668,167.81934,8.9668z
			"/>
		<path fill="#909090" d="M76.0271,334h8.14014C47.84863,315.85352,18.20984,286.26611,0,249.98486v8.10986
			C17.58862,290.04761,44.04126,316.46167,76.0271,334z"/>
		<path fill="#6F6F6F" d="M167.66797,171.85254c3.13623,0,5.68799-2.55078,5.68799-5.6875
			c0-3.13574-2.55176-5.68652-5.68799-5.68652c-3.13574,0-5.6875,2.55078-5.6875,5.68652
			C161.98047,169.30176,164.53223,171.85254,167.66797,171.85254z M167.66797,164.26953c1.04541,0,1.896,0.85059,1.896,1.89551
			c0,1.0459-0.85059,1.89648-1.896,1.89648s-1.89551-0.85059-1.89551-1.89648
			C165.77246,165.12012,166.62256,164.26953,167.66797,164.26953z"/>
		<path fill="#6F6F6F" d="M167.68506,179.41895c7.30811,0,13.25391-5.94531,13.25391-13.25391
			c0-7.30762-5.9458-13.25293-13.25391-13.25293c-7.31738,0-13.27051,5.94531-13.27051,13.25293
			C154.41455,173.47363,160.36768,179.41895,167.68506,179.41895z M167.68506,156.70312c5.21729,0,9.46191,4.24512,9.46191,9.46191
			c0,5.21777-4.24463,9.46289-9.46191,9.46289c-5.22656,0-9.47852-4.24512-9.47852-9.46289
			C158.20654,160.94824,162.4585,156.70312,167.68506,156.70312z"/>
		<path fill="#6F6F6F" d="M167.68506,187.00195c11.48926,0,20.83691-9.34766,20.83691-20.83691s-9.34766-20.83691-20.83691-20.83691
			s-20.83691,9.34766-20.83691,20.83691S156.1958,187.00195,167.68506,187.00195z M167.68506,149.11914
			c9.39893,0,17.04492,7.64648,17.04492,17.0459s-7.646,17.0459-17.04492,17.0459s-17.04492-7.64648-17.04492-17.0459
			S158.28613,149.11914,167.68506,149.11914z"/>
		<path fill="#6F6F6F" d="M167.70166,194.56836c15.66162,0,28.40381-12.74121,28.40381-28.40332
			s-12.74219-28.40332-28.40381-28.40332c-15.6709,0-28.41992,12.74121-28.41992,28.40332S152.03076,194.56836,167.70166,194.56836z
			 M167.70166,141.55273c13.57129,0,24.61182,11.04102,24.61182,24.6123s-11.04053,24.6123-24.61182,24.6123
			c-13.58008,0-24.62793-11.04102-24.62793-24.6123S154.12158,141.55273,167.70166,141.55273z"/>
		<path fill="#6F6F6F" d="M167.70166,202.15137c19.84326,0,35.98682-16.14355,35.98682-35.98633
			s-16.14355-35.98633-35.98682-35.98633c-19.84277,0-35.98633,16.14355-35.98633,35.98633S147.85889,202.15137,167.70166,202.15137
			z M167.70166,133.96973c17.75244,0,32.19482,14.44336,32.19482,32.19531s-14.44238,32.19531-32.19482,32.19531
			c-17.75195,0-32.19434-14.44336-32.19434-32.19531S149.94971,133.96973,167.70166,133.96973z"/>
		<path fill="#6F6F6F" d="M167.71875,209.71777c24.01514,0,43.55273-19.53711,43.55273-43.55273
			s-19.5376-43.55273-43.55273-43.55273c-24.02441,0-43.56982,19.53711-43.56982,43.55273S143.69434,209.71777,167.71875,209.71777z
			 M167.71875,126.40332c21.92432,0,39.76074,17.83691,39.76074,39.76172s-17.83643,39.76172-39.76074,39.76172
			c-21.93359,0-39.77783-17.83691-39.77783-39.76172S145.78516,126.40332,167.71875,126.40332z"/>
		<path fill="#6F6F6F" d="M167.71875,217.30078c28.19629,0,51.13574-22.93945,51.13574-51.13574
			s-22.93945-51.13574-51.13574-51.13574s-51.13623,22.93945-51.13623,51.13574S139.52246,217.30078,167.71875,217.30078z
			 M167.71875,118.82031c26.10547,0,47.34375,21.23926,47.34375,47.34473s-21.23828,47.34473-47.34375,47.34473
			c-26.10596,0-47.34424-21.23926-47.34424-47.34473S141.61279,118.82031,167.71875,118.82031z"/>
		<path fill="#6F6F6F" d="M167.71875,224.88379c32.37793,0,58.71924-26.34082,58.71924-58.71875
			s-26.34131-58.71875-58.71924-58.71875c-32.36865,0-58.70264,26.34082-58.70264,58.71875S135.3501,224.88379,167.71875,224.88379z
			 M167.71875,111.2373c30.28711,0,54.92725,24.64062,54.92725,54.92773s-24.64014,54.92773-54.92725,54.92773
			c-30.27783,0-54.91064-24.64062-54.91064-54.92773S137.44092,111.2373,167.71875,111.2373z"/>
		<path fill="#6F6F6F" d="M167.73535,232.4502c36.5498,0,66.28564-29.73535,66.28564-66.28516s-29.73584-66.28516-66.28564-66.28516
			s-66.28564,29.73535-66.28564,66.28516S131.18555,232.4502,167.73535,232.4502z M167.73535,103.6709
			c34.45947,0,62.49365,28.03516,62.49365,62.49414s-28.03418,62.49414-62.49365,62.49414s-62.49365-28.03516-62.49365-62.49414
			S133.27588,103.6709,167.73535,103.6709z"/>
		<path fill="#6F6F6F" d="M167.73535,240.0332c40.73096,0,73.86865-33.13672,73.86865-73.86816s-33.1377-73.86816-73.86865-73.86816
			c-40.72217,0-73.85205,33.13672-73.85205,73.86816S127.01318,240.0332,167.73535,240.0332z M167.73535,96.08789
			c38.64062,0,70.07666,31.43652,70.07666,70.07715s-31.43604,70.07715-70.07666,70.07715
			c-38.63135,0-70.06006-31.43652-70.06006-70.07715S129.104,96.08789,167.73535,96.08789z"/>
		<path fill="#6F6F6F" d="M167.75195,247.59961c44.90332,0,81.43506-36.53125,81.43506-81.43457
			s-36.53174-81.43457-81.43506-81.43457c-44.90283,0-81.43457,36.53125-81.43457,81.43457S122.84912,247.59961,167.75195,247.59961
			z M167.75195,88.52148c42.8125,0,77.64307,34.83105,77.64307,77.64355s-34.83057,77.64355-77.64307,77.64355
			s-77.64258-34.83105-77.64258-77.64355S124.93945,88.52148,167.75195,88.52148z"/>
		<path fill="#6F6F6F" d="M167.75195,255.18262c49.08496,0,89.01855-39.93262,89.01855-89.01758
			s-39.93359-89.01758-89.01855-89.01758c-49.0752,0-89.00098,39.93262-89.00098,89.01758S118.67676,255.18262,167.75195,255.18262z
			 M167.75195,80.93848c46.99414,0,85.22656,38.23242,85.22656,85.22656s-38.23242,85.22656-85.22656,85.22656
			c-46.98438,0-85.20898-38.23242-85.20898-85.22656S120.76758,80.93848,167.75195,80.93848z"/>
		<path fill="#6F6F6F" d="M167.76904,262.74902c53.25684,0,96.58447-43.32715,96.58447-96.58398
			s-43.32764-96.58398-96.58447-96.58398c-53.26611,0-96.60156,43.32715-96.60156,96.58398S114.50293,262.74902,167.76904,262.74902
			z M167.76904,73.37207c51.16602,0,92.79248,41.62695,92.79248,92.79297s-41.62646,92.79297-92.79248,92.79297
			c-51.17529,0-92.80957-41.62695-92.80957-92.79297S116.59375,73.37207,167.76904,73.37207z"/>
		<path fill="#6F6F6F" d="M167.76904,270.33203c57.43799,0,104.16748-46.72852,104.16748-104.16699
			S225.20703,61.99805,167.76904,61.99805S63.60156,108.72656,63.60156,166.16504S110.33105,270.33203,167.76904,270.33203z
			 M167.76904,65.78906c55.34717,0,100.37549,45.02832,100.37549,100.37598s-45.02832,100.37598-100.37549,100.37598
			S67.39355,221.5127,67.39355,166.16504S112.42188,65.78906,167.76904,65.78906z"/>
		<path fill="#6F6F6F" d="M167.78564,277.89844c61.61035,0,111.73389-50.12305,111.73389-111.7334
			S229.396,54.43164,167.78564,54.43164c-61.61914,0-111.75049,50.12305-111.75049,111.7334S106.1665,277.89844,167.78564,277.89844
			z M167.78564,58.22266c59.51953,0,107.94189,48.42285,107.94189,107.94238s-48.42236,107.94238-107.94189,107.94238
			c-59.52881,0-107.9585-48.42285-107.9585-107.94238S108.25684,58.22266,167.78564,58.22266z"/>
		<path fill="#6F6F6F" d="M167.78564,285.48145c65.7915,0,119.31738-53.52539,119.31738-119.31641
			S233.57715,46.84863,167.78564,46.84863S48.46875,100.37402,48.46875,166.16504S101.99414,285.48145,167.78564,285.48145z
			 M167.78564,50.63965c63.70117,0,115.52539,51.82422,115.52539,115.52539s-51.82422,115.52539-115.52539,115.52539
			c-63.70068,0-115.5249-51.82422-115.5249-115.52539S104.08496,50.63965,167.78564,50.63965z"/>
		<path fill="#6F6F6F" d="M167.80273,293.04785c69.96338,0,126.8833-56.91895,126.8833-126.88281
			S237.76611,39.28223,167.80273,39.28223c-69.97314,0-126.90039,56.91895-126.90039,126.88281
			S97.82959,293.04785,167.80273,293.04785z M167.80273,43.07324c67.87305,0,123.09131,55.21875,123.09131,123.0918
			s-55.21826,123.0918-123.09131,123.0918c-67.88232,0-123.1084-55.21875-123.1084-123.0918S99.92041,43.07324,167.80273,43.07324z"
			/>
		<path fill="#6F6F6F" d="M167.80273,300.63086c74.14502,0,134.46631-60.32129,134.46631-134.46582
			S241.94775,31.69922,167.80273,31.69922S33.33594,92.02051,33.33594,166.16504S93.65771,300.63086,167.80273,300.63086z
			 M167.80273,35.49023c72.0542,0,130.67432,58.62109,130.67432,130.6748s-58.62012,130.6748-130.67432,130.6748
			c-72.05469,0-130.6748-58.62109-130.6748-130.6748S95.74805,35.49023,167.80273,35.49023z"/>
		<path fill="#6F6F6F" d="M167.80273,308.21387c78.32617,0,142.04932-63.72266,142.04932-142.04883
			S246.12891,24.11621,167.80273,24.11621c-78.31738,0-142.0332,63.72266-142.0332,142.04883
			S89.48535,308.21387,167.80273,308.21387z M167.80273,27.90723c76.23535,0,138.25732,62.02246,138.25732,138.25781
			s-62.02197,138.25781-138.25732,138.25781c-76.22656,0-138.24121-62.02246-138.24121-138.25781
			S91.57617,27.90723,167.80273,27.90723z"/>
		<path fill="#6F6F6F" d="M167.81934,315.78027c82.49854,0,149.61621-67.11719,149.61621-149.61523
			S250.31787,16.5498,167.81934,16.5498S18.20312,83.66699,18.20312,166.16504S85.3208,315.78027,167.81934,315.78027z
			 M167.81934,20.34082c80.40771,0,145.82422,65.41699,145.82422,145.82422s-65.4165,145.82422-145.82422,145.82422
			S21.99512,246.57227,21.99512,166.16504S87.41162,20.34082,167.81934,20.34082z"/>
		<path fill="#6F6F6F" d="M167.81934,323.36426c86.67969,0,157.19922-70.51953,157.19922-157.19922
			S254.49902,8.9668,167.81934,8.9668c-86.67041,0-157.18262,70.51855-157.18262,157.19824S81.14893,323.36426,167.81934,323.36426z
			 M167.81934,12.75781c84.58936,0,153.40723,68.81836,153.40723,153.40723c0,84.58984-68.81787,153.4082-153.40723,153.4082
			c-84.58008,0-153.39062-68.81836-153.39062-153.4082C14.42871,81.57617,83.23926,12.75781,167.81934,12.75781z"/>
		<path fill="#6F6F6F" d="M167.83594,330.93066c90.85205,0,164.76562-73.91309,164.76562-164.76562
			c0-90.85156-73.91357-164.76465-164.76562-164.76465S3.07031,75.31348,3.07031,166.16504
			C3.07031,257.01758,76.98389,330.93066,167.83594,330.93066z M167.83594,5.19141
			c88.76123,0,160.97363,72.21289,160.97363,160.97363c0,88.76172-72.2124,160.97461-160.97363,160.97461
			S6.8623,254.92676,6.8623,166.16504C6.8623,77.4043,79.07471,5.19141,167.83594,5.19141z"/>
		<path fill="#6F6F6F" d="M334,138.84839V121.0022C318.07422,62.41113,271.94971,16.13647,213.44482,0h-17.45801
			C266.61523,11.99951,322.41772,68.08057,334,138.84839z"/>
		<path fill="#6F6F6F" d="M139.35181,0h-17.4563C61.64465,16.61963,14.52173,65.20825,0,126.29663v22.66113
			C7.68823,73.46826,65.39795,12.56592,139.35181,0z"/>
		<path fill="#6F6F6F" d="M128.41797,334h23.71729C72.13098,326.65332,8.12598,263.15991,0,183.37231v22.66113
			C15.04187,269.31055,65.06042,319.18408,128.41797,334z"/>
		<path fill="#6F6F6F" d="M183.20215,334h23.71948C268.50708,319.59985,317.48657,272.08105,334,211.32788v-17.84619
			C321.72717,268.46899,259.80322,326.96655,183.20215,334z"/>
		<path fill="#6F6F6F" d="M334,108.21191V97.57471C315.78467,53.56958,280.599,18.30957,236.64258,0h-10.57837
			C276.43359,17.74854,316.37732,57.78369,334,108.21191z"/>
		<path fill="#6F6F6F" d="M221.09973,334h11.38879C278.37878,316.22021,315.21436,280.13916,334,234.75586v-10.63721
			C315.802,276.1936,273.80298,317.18823,221.09973,334z"/>
		<path fill="#6F6F6F" d="M109.30017,0H98.72095C53.64844,18.77271,17.79224,55.36182,0,100.92773v11.31592
			C16.86768,59.92212,57.59033,18.21899,109.30017,0z"/>
		<path fill="#6F6F6F" d="M102.87549,334h11.38953C60.20361,316.75659,17.40417,274.07275,0,220.08691v11.31592
			C18.33545,278.3606,55.85522,315.78418,102.87549,334z"/>
		<path fill="#6F6F6F" d="M334,88.19824v-8.53003C316.25757,45.69092,288.40918,17.79932,254.46619,0h-8.49304
			C284.56519,18.2561,315.81641,49.56567,334,88.19824z"/>
		<path fill="#6F6F6F" d="M89.39697,0h-8.49329C46.07324,18.2644,17.66138,47.15674,0,82.34521v8.81641
			C17.95996,51.16602,49.82178,18.72119,89.39697,0z"/>
		<path fill="#6F6F6F" d="M84.16724,334h8.85559C51.76855,315.57568,18.50537,282.37891,0,241.16846v8.81641
			C18.20984,286.26611,47.84863,315.85352,84.16724,334z"/>
		<path fill="#6F6F6F" d="M242.34729,334h8.85547c35.42102-17.69824,64.48938-46.27832,82.79724-81.33813v-8.53003
			C315.25012,283.96777,282.60693,316.01978,242.34729,334z"/>
		<path fill="#6F6F6F" d="M68.39722,334h7.62988C44.04126,316.46167,17.58862,290.04761,0,258.09473v7.61572
			C16.72803,293.78027,40.29834,317.31396,68.39722,334z"/>
		<path fill="#6F6F6F" d="M73.04492,0h-7.41309C38.75,16.57031,16.17664,39.47559,0,66.61987v7.61597
			C17.03906,43.28174,42.39624,17.52441,73.04492,0z"/>
		<path fill="#6F6F6F" d="M334,71.75391v-7.43701C317.9325,38.17822,295.87939,16.1001,269.76282,0h-7.41248
			C292.17383,17.0542,316.98706,41.9043,334,71.75391z"/>
		<path fill="#6F6F6F" d="M259.36865,334h7.62915C294.323,317.77197,317.3689,295.06934,334,268.01367v-7.43677
			C316.42322,291.41602,290.52002,316.91772,259.36865,334z"/>
		<path fill="#6F6F6F" d="M58.59509,0H51.8457C31.53784,14.20215,13.93823,32.02075,0,52.52393v6.88574
			C15.12964,35.72583,35.13977,15.45312,58.59509,0z"/>
		<path fill="#6F6F6F" d="M274.24487,334h6.90552C301.7998,319.99707,319.73145,302.28125,334,281.82837v-6.75903
			C318.4845,298.68164,298.0874,318.81104,274.24487,334z"/>
		<path fill="#6F6F6F" d="M334,57.26074v-6.75903C320.29004,30.84961,303.19312,13.73218,283.55737,0h-6.74878
			C299.54956,14.98242,319.04443,34.50049,334,57.26074z"/>
		<path fill="#6F6F6F" d="M54.25281,334h6.90588C36.59436,318.35107,15.67883,297.46411,0,272.92041v6.88574
			C14.48743,301.11719,32.92407,319.53638,54.25281,334z"/>
		<path fill="#6F6F6F" d="M45.38379,0H39.104C24.39526,11.40894,11.23633,24.72119,0,39.56836v6.38208
			C12.63843,28.37061,27.96912,12.85327,45.38379,0z"/>
		<path fill="#6F6F6F" d="M287.75549,334h6.39026C309.1123,322.69775,322.52148,309.44189,334,294.61694v-6.28687
			C321.08057,305.86816,305.4624,321.29956,287.75549,334z"/>
		<path fill="#6F6F6F" d="M41.28101,334h6.39087C29.3092,320.83032,13.18982,304.72632,0,286.37964v6.38208
			C11.78833,308.33813,25.69104,322.22803,41.28101,334z"/>
		<path fill="#6F6F6F" d="M334,44v-6.28687C323.0813,23.61133,310.41431,10.9314,296.32263,0h-6.27917
			C306.80908,12.37524,321.6405,27.22217,334,44z"/>
		<path fill="#6F6F6F" d="M33.02124,0h-5.93201C17.28027,8.31445,8.20776,17.47119,0,27.37231V33.396
			C9.75696,21.09668,20.8374,9.89551,33.02124,0z"/>
		<path fill="#6F6F6F" d="M300.34351,334h6.02979c10.00073-8.27661,19.24255-17.43604,27.62671-27.34399v-5.93823
			C324.03711,313.00635,312.74841,324.17651,300.34351,334z"/>
		<path fill="#6F6F6F" d="M29.06348,334h6.03027C22.09009,323.70264,10.30835,311.92871,0,298.93408v6.02368
			C8.75806,315.52246,18.49121,325.25049,29.06348,334z"/>
		<path fill="#6F6F6F" d="M334,31.6123v-5.93823C326.17261,16.42407,317.5907,7.83496,308.34741,0h-5.9314
			C314.00708,9.41406,324.59583,20.01294,334,31.6123z"/>
		<path fill="#6F6F6F" d="M334,19.87231v-5.68311C329.48462,9.25293,324.75232,4.51904,319.81958,0h-5.677
			C321.17139,6.20117,327.80444,12.83862,334,19.87231z"/>
		<path fill="#6F6F6F" d="M17.47852,334h5.72754C14.91455,326.84961,7.15576,319.0979,0,310.81079v5.72241
			C5.505,322.66797,11.34045,328.49878,17.47852,334z"/>
		<path fill="#6F6F6F" d="M21.30554,0h-5.67688C10.16418,5.00635,4.95007,10.28027,0,15.79688v5.72241
			C6.60449,13.87061,13.729,6.68506,21.30554,0z"/>
		<path fill="#6F6F6F" d="M312.24182,334h5.72766c5.6012-5.01953,10.95435-10.31006,16.03052-15.85913v-5.68311
			C327.24695,320.12427,319.9801,327.32715,312.24182,334z"/>
		<path fill="#6F6F6F" d="M6.36523,334h5.52563C7.7843,330.18408,3.81836,326.2207,0,322.11646v5.52075
			C2.0813,329.79834,4.20276,331.91992,6.36523,334z"/>
		<path fill="#6F6F6F" d="M334,8.63428V3.18774c-1.05176-1.07275-2.11328-2.1355-3.1853-3.18774h-5.44165
			C328.32446,2.80151,331.20044,5.68115,334,8.63428z"/>
		<path fill="#6F6F6F" d="M323.57947,334h5.52502c1.65698-1.59375,3.28613-3.21606,4.89551-4.85767v-5.44653
			C330.63843,327.2417,327.15906,330.67383,323.57947,334z"/>
		<path fill="#6F6F6F" d="M10.09717,0H4.65503C3.08252,1.5437,1.52856,3.10547,0,4.69287v5.52075
			C3.26196,6.70752,6.62415,3.29663,10.09717,0z"/>
		<path fill="#6F6F6F" d="M0,333.04932V334h0.95288C0.63452,333.68359,0.31641,333.36719,0,333.04932z"/>
	</g>
</g>
<g id="Layer_3" display="none">
</g>
<g id="Layer_2" display="none">
</g>
</svg>
