<?xml version="1.0" encoding="utf-8"?>
<!-- Generator: Adobe Illustrator 21.1.0, SVG Export Plug-In . SVG Version: 6.00 Build 0)  -->
<svg version="1.2" baseProfile="tiny" xmlns="http://www.w3.org/2000/svg" xmlns:xlink="http://www.w3.org/1999/xlink" x="0px"
	 y="0px" viewBox="0 0 334 334" xml:space="preserve">
<g id="Layer_1">
	<g>
		<path fill="#838383" d="M0,197.37415v65.6463C16.77759,292.35565,41.0332,316.88184,70.14746,334h61.73633
			C64.69165,319.57324,12.08569,265.3949,0,197.37415z"/>
		<path fill="#838383" d="M0,303.04688V334h30.67139C19.43799,324.7406,9.16431,314.3609,0,303.04688z"/>
		<path fill="#838383" d="M167.66797,110.73633c-31.30957,0-56.78125,25.46436-56.78125,56.76465
			s25.47168,56.76465,56.78125,56.76465c31.30078,0,56.76562-25.46436,56.76562-56.76465S198.96875,110.73633,167.66797,110.73633z
			 M167.66797,201.5498c-18.78418,0-34.06543-15.27441-34.06543-34.04883s15.28125-34.04883,34.06543-34.04883
			c18.77539,0,34.0498,15.27441,34.0498,34.04883S186.44336,201.5498,167.66797,201.5498z"/>
		<path fill="#838383" d="M167.66797,156.15137c-6.26758,0-11.36621,5.09131-11.36621,11.34961s5.09863,11.34961,11.36621,11.34961
			c6.25879,0,11.35059-5.09131,11.35059-11.34961S173.92676,156.15137,167.66797,156.15137z"/>
		<path fill="#838383" d="M31.91479,0H0v31.95508C9.49927,20.22742,20.19922,9.51337,31.91479,0z"/>
		<path fill="#838383" d="M136.89404,0H71.8501C41.97607,17.15607,17.10474,42.07428,0,71.98151v65.6463
			C12.38477,67.92462,67.31689,12.75171,136.89404,0z"/>
		<path fill="#838383" d="M334,30.29944V0h-30.57812C314.58691,9.06622,324.83984,19.21411,334,30.29944z"/>
		<path fill="#838383" d="M334,265.30511v-61.25024C319.75537,268.92249,268.42896,320.04907,203.45264,334h61.73633
			C293.54297,317.32904,317.28198,293.62793,334,265.30511z"/>
		<path fill="#838383" d="M304.66528,334H334v-29.29749C325.17871,315.37762,315.35156,325.19171,304.66528,334z"/>
		<path fill="#838383" d="M334,130.94708V69.69684C316.94727,40.80695,292.59521,16.71643,263.48657,0h-65.04443
			C265.78052,12.34125,319.39111,64.42023,334,130.94708z"/>
		<path fill="#838383" d="M167.66797,19.90625c-81.38379,0-147.59473,66.21094-147.59473,147.59473
			S86.28418,315.0957,167.66797,315.0957c81.38477,0,147.5957-66.21094,147.5957-147.59473S249.05273,19.90625,167.66797,19.90625z
			 M167.66797,292.37988c-68.86719,0-124.89551-56.02051-124.89551-124.87891S98.80078,42.62207,167.66797,42.62207
			c68.8584,0,124.87891,56.02051,124.87891,124.87891S236.52637,292.37988,167.66797,292.37988z"/>
		<path fill="#838383" d="M167.66797,65.32129c-56.35156,0-102.19629,45.8374-102.19629,102.17969
			s45.84473,102.17969,102.19629,102.17969c56.3418,0,102.17969-45.8374,102.17969-102.17969S224.00977,65.32129,167.66797,65.32129
			z M167.66797,246.96484c-43.8252,0-79.48047-35.64746-79.48047-79.46387s35.65527-79.46387,79.48047-79.46387
			c43.81738,0,79.46484,35.64746,79.46484,79.46387S211.48535,246.96484,167.66797,246.96484z"/>
		<path fill="#7C7C7C" d="M167.66797,133.45215c-18.78418,0-34.06543,15.27441-34.06543,34.04883
			s15.28125,34.04883,34.06543,34.04883c18.77539,0,34.0498-15.27441,34.0498-34.04883S186.44336,133.45215,167.66797,133.45215z
			 M167.66797,178.85059c-6.26758,0-11.36621-5.09131-11.36621-11.34961s5.09863-11.34961,11.36621-11.34961
			c6.25879,0,11.35059,5.09131,11.35059,11.34961S173.92676,178.85059,167.66797,178.85059z"/>
		<path fill="#7C7C7C" d="M167.66797,88.03711c-43.8252,0-79.48047,35.64746-79.48047,79.46387s35.65527,79.46387,79.48047,79.46387
			c43.81738,0,79.46484-35.64746,79.46484-79.46387S211.48535,88.03711,167.66797,88.03711z M167.66797,224.26562
			c-31.30957,0-56.78125-25.46436-56.78125-56.76465s25.47168-56.76465,56.78125-56.76465
			c31.30078,0,56.76562,25.46436,56.76562,56.76465S198.96875,224.26562,167.66797,224.26562z"/>
		<path fill="#7C7C7C" d="M167.66797,42.62207c-68.86719,0-124.89551,56.02051-124.89551,124.87891
			s56.02832,124.87891,124.89551,124.87891c68.8584,0,124.87891-56.02051,124.87891-124.87891
			S236.52637,42.62207,167.66797,42.62207z M167.66797,269.68066c-56.35156,0-102.19629-45.8374-102.19629-102.17969
			S111.31641,65.32129,167.66797,65.32129c56.3418,0,102.17969,45.8374,102.17969,102.17969
			S224.00977,269.68066,167.66797,269.68066z"/>
		<path fill="#7C7C7C" d="M334,204.05487v-73.10779C319.39111,64.42023,265.78052,12.34125,198.44214,0h-61.5481
			C67.31689,12.75171,12.38477,67.92462,0,137.62781v59.74634C12.08569,265.3949,64.69165,319.57324,131.88379,334h71.56885
			C268.42896,320.04907,319.75537,268.92249,334,204.05487z M167.66797,315.0957
			c-81.38379,0-147.59473-66.21094-147.59473-147.59473S86.28418,19.90625,167.66797,19.90625
			c81.38477,0,147.5957,66.21094,147.5957,147.59473S249.05273,315.0957,167.66797,315.0957z"/>
		<path fill="#7C7C7C" d="M334,304.70251v-39.3974C317.28198,293.62793,293.54297,317.32904,265.18896,334h39.47632
			C315.35156,325.19171,325.17871,315.37762,334,304.70251z"/>
		<path fill="#7C7C7C" d="M71.8501,0h-39.9353C20.19922,9.51337,9.49927,20.22742,0,31.95508v40.02643
			C17.10474,42.07428,41.97607,17.15607,71.8501,0z"/>
		<path fill="#7C7C7C" d="M0,263.02045v40.02643C9.16431,314.3609,19.43799,324.7406,30.67139,334h39.47607
			C41.0332,316.88184,16.77759,292.35565,0,263.02045z"/>
		<path fill="#7C7C7C" d="M334,69.69684v-39.3974C324.83984,19.21411,314.58691,9.06622,303.42188,0h-39.9353
			C292.59521,16.71643,316.94727,40.80695,334,69.69684z"/>
	</g>
</g>
<g id="Layer_3" display="none">
</g>
<g id="Layer_2" display="none">
</g>
</svg>
