<?xml version="1.0" encoding="utf-8"?>
<!-- Generator: Adobe Illustrator 21.1.0, SVG Export Plug-In . SVG Version: 6.00 Build 0)  -->
<svg version="1.2" baseProfile="tiny" xmlns="http://www.w3.org/2000/svg" xmlns:xlink="http://www.w3.org/1999/xlink" x="0px"
	 y="0px" viewBox="0 0 334 334" xml:space="preserve">
<g id="Layer_1">
	<g>
		<path fill="#FFFFFF" d="M23.62885-0.00004H0v23.6933C7.26917,15.21364,15.1676,7.28976,23.62885-0.00004z"/>
		<path fill="#FFFFFF" d="M0,309.64297v24.19244h24.21881C15.53613,326.40732,7.43683,318.31815,0,309.64297z"/>
		<path fill="#FFFFFF" d="M167,152.00288c-8.08643,0-14.66553,6.57861-14.66553,14.66504s6.5791,14.66553,14.66553,14.66553
			s14.66504-6.5791,14.66504-14.66553S175.08643,152.00288,167,152.00288z"/>
		<path fill="#FFFFFF" d="M309.79199,333.83542H334v-24.17749C326.56616,318.32755,318.4704,326.41159,309.79199,333.83542z"/>
		<path fill="#FFFFFF" d="M167,93.35934c-40.43213,0-73.32568,32.88623-73.32568,73.30859
			c0,40.42285,32.89355,73.30908,73.32568,73.30908c40.42236,0,73.30859-32.88623,73.30859-73.30908
			C240.30859,126.24557,207.42236,93.35934,167,93.35934z M167,210.66353c-24.25928,0-43.99561-19.73633-43.99561-43.99561
			c0-24.25879,19.73633-43.99511,43.99561-43.99511s43.99512,19.73632,43.99512,43.99511
			C210.99512,190.9272,191.25928,210.66353,167,210.66353z"/>
		<path fill="#FFFFFF" d="M334,258.50955V74.82668c-17.32965-31.38586-43.24811-57.38873-74.56604-74.82672H74.57422
			C43.25031,17.44277,17.32825,43.45516,0,74.85275v183.63074c17.49286,31.69598,43.74091,57.90814,75.4657,75.35193h183.07666
			C290.26117,316.39639,316.50568,290.19376,334,258.50955z M167,327.96774c-88.94092,0-161.29932-72.3589-161.29932-161.29982
			S78.05908,5.36861,167,5.36861s161.29932,72.3584,161.29932,161.29932S255.94092,327.96774,167,327.96774z"/>
		<path fill="#FFFFFF" d="M167,34.69869c-72.76807,0-131.96924,59.20117-131.96924,131.96924
			c0,72.76855,59.20117,131.96974,131.96924,131.96974s131.96924-59.20119,131.96924-131.96974
			C298.96924,93.89986,239.76807,34.69869,167,34.69869z M167,269.3071c-56.60449,0-102.65576-46.04347-102.65576-102.63918
			c0-56.59521,46.05127-102.63866,102.65576-102.63866c56.59521,0,102.63867,46.04346,102.63867,102.63866
			C269.63867,223.26363,223.59521,269.3071,167,269.3071z"/>
		<path fill="#FFFFFF" d="M334,23.67837V-0.00004h-23.61798C318.83893,7.28548,326.73383,15.20431,334,23.67837z"/>
		<path d="M167,122.67281c-24.25928,0-43.99561,19.73632-43.99561,43.99511c0,24.25928,19.73633,43.99561,43.99561,43.99561
			s43.99512-19.73633,43.99512-43.99561C210.99512,142.40913,191.25928,122.67281,167,122.67281z M167,181.33345
			c-8.08643,0-14.66553-6.5791-14.66553-14.66553s6.5791-14.66504,14.66553-14.66504s14.66504,6.57861,14.66504,14.66504
			S175.08643,181.33345,167,181.33345z"/>
		<path d="M167,64.02926c-56.60449,0-102.65576,46.04346-102.65576,102.63866c0,56.5957,46.05127,102.63918,102.65576,102.63918
			c56.59521,0,102.63867-46.04347,102.63867-102.63918C269.63867,110.07272,223.59521,64.02926,167,64.02926z M167,239.97701
			c-40.43213,0-73.32568-32.88623-73.32568-73.30908c0-40.42236,32.89355-73.30859,73.32568-73.30859
			c40.42236,0,73.30859,32.88623,73.30859,73.30859C240.30859,207.09077,207.42236,239.97701,167,239.97701z"/>
		<path d="M167,5.36861c-88.94092,0-161.29932,72.3584-161.29932,161.29932S78.05908,327.96774,167,327.96774
			s161.29932-72.3589,161.29932-161.29982S255.94092,5.36861,167,5.36861z M167,298.63766
			c-72.76807,0-131.96924-59.20119-131.96924-131.96974C35.03076,93.89986,94.23193,34.69869,167,34.69869
			s131.96924,59.20117,131.96924,131.96924C298.96924,239.43648,239.76807,298.63766,167,298.63766z"/>
		<path d="M334,309.65793v-51.14838c-17.49432,31.6842-43.73883,57.88684-75.45764,75.32587
			c-0.09845,0.05408-0.19543,0.1106-0.29401,0.16455h51.34912c0.06458-0.05511,0.13-0.10938,0.19452-0.16455
			C318.4704,326.41159,326.56616,318.32755,334,309.65793z"/>
		<path d="M0,258.48349v51.15948c7.43683,8.67517,15.53613,16.76434,24.21881,24.19244
			c0.06458,0.05518,0.12988,0.10944,0.19452,0.16455h51.34631c-0.09857-0.05396-0.1955-0.11047-0.29395-0.16455
			C43.74091,316.39163,17.49286,290.17947,0,258.48349z"/>
		<path d="M334,74.82668V23.67837c-7.26617-8.47406-15.16107-16.39288-23.61798-23.67841h-50.94806
			C290.75189,17.43795,316.67035,43.44082,334,74.82668z"/>
		<path d="M74.57422-0.00004H23.62885C15.1676,7.28976,7.26917,15.21364,0,23.69326v51.15948
			C17.32825,43.45516,43.25031,17.44277,74.57422-0.00004z"/>
	</g>
</g>
<g id="Layer_3" display="none">
</g>
<g id="Layer_2" display="none">
</g>
</svg>
