<?xml version="1.0" encoding="utf-8"?>
<!-- Generator: Adobe Illustrator 21.1.0, SVG Export Plug-In . SVG Version: 6.00 Build 0)  -->
<svg version="1.2" baseProfile="tiny" xmlns="http://www.w3.org/2000/svg" xmlns:xlink="http://www.w3.org/1999/xlink" x="0px"
	 y="0px" viewBox="0 0 334 334" xml:space="preserve">
<g id="Layer_1">
	<g>
		<path fill="#898989" d="M334,122.22192v-16.15771C315.99927,57.09277,277.11987,18.12646,228.20874,0h-15.98267
			C271.36572,16.22266,317.98926,62.99609,334,122.22192z"/>
		<path fill="#898989" d="M0,244.83936v10.92261C17.70947,289.00757,45.0907,316.34497,78.36743,334h10.98071
			C50.08398,315.77246,18.30859,284.05884,0,244.83936z"/>
		<path fill="#898989" d="M166.38086,28.07422c-76.87109,0-139.41016,62.54688-139.41016,139.42676
			c0,76.88086,62.53906,139.42773,139.41016,139.42773c76.87988,0,139.42676-62.54688,139.42676-139.42773
			C305.80762,90.62109,243.26074,28.07422,166.38086,28.07422z M166.38086,302.03516
			c-74.18164,0-134.5332-60.35156-134.5332-134.53418c0-74.18164,60.35156-134.5332,134.5332-134.5332
			c74.18262,0,134.53418,60.35156,134.53418,134.5332C300.91504,241.68359,240.56348,302.03516,166.38086,302.03516z"/>
		<path fill="#898989" d="M166.38086,37.8623c-71.4834,0-129.63867,58.15527-129.63867,129.63867
			s58.15527,129.63965,129.63867,129.63965s129.63965-58.15625,129.63965-129.63965S237.86426,37.8623,166.38086,37.8623z
			 M166.38086,292.24707c-68.78418,0-124.74512-55.96094-124.74512-124.74609c0-68.78418,55.96094-124.74512,124.74512-124.74512
			c68.78516,0,124.74609,55.96094,124.74609,124.74512C291.12695,236.28613,235.16602,292.24707,166.38086,292.24707z"/>
		<path fill="#898989" d="M166.38086,57.43848c-60.69824,0-110.0791,49.37402-110.0791,110.0625
			c0,60.68945,49.38086,110.06348,110.0791,110.06348c60.68945,0,110.06348-49.37402,110.06348-110.06348
			C276.44434,106.8125,227.07031,57.43848,166.38086,57.43848z M166.36426,272.68848
			c-57.99121,0-105.16992-47.1875-105.16992-105.1875c0-57.99902,47.17871-105.18555,105.16992-105.18555
			c58,0,105.18652,47.18652,105.18652,105.18555C271.55078,225.50098,224.36426,272.68848,166.36426,272.68848z"/>
		<path fill="#898989" d="M166.38086,47.65039c-66.08594,0-119.85059,53.76465-119.85059,119.85059
			c0,66.08691,53.76465,119.85156,119.85059,119.85156c66.08691,0,119.85156-53.76465,119.85156-119.85156
			C286.23242,101.41504,232.46777,47.65039,166.38086,47.65039z M166.38086,282.45898
			c-63.39648,0-114.97363-51.57031-114.97363-114.95801S102.98438,52.54395,166.38086,52.54395
			c63.3877,0,114.95801,51.56934,114.95801,114.95703S229.76855,282.45898,166.38086,282.45898z"/>
		<path fill="#898989" d="M0,265.73926v9.27588C15.29712,298.59766,35.46606,318.73877,59.0752,334h9.28442
			C40.23022,317.38159,16.65906,293.84326,0,265.73926z"/>
		<path fill="#898989" d="M334,186.76025V148.2417C325.1875,71.02466,264.06567,9.46924,187.04688,0h-41.43164
			C71.74316,9.08228,12.49438,66.0813,0,138.85815v57.28564C12.10156,266.63257,68.06506,322.31543,138.6936,334h55.2749
			C267.70337,321.80151,325.45325,261.64868,334,186.76025z M166.39746,331.38184
			c-90.37305,0-163.89648-73.5166-163.89648-163.88086c0-90.36328,73.52344-163.87988,163.89648-163.87988
			c90.36426,0,163.88086,73.5166,163.88086,163.87988C330.27832,257.86523,256.76172,331.38184,166.39746,331.38184z"/>
		<path fill="#898989" d="M0,283.75732v8.32446C11.92505,307.96484,26.06616,322.09326,41.96362,334h8.35498
			C30.75378,320.32666,13.70142,303.30054,0,283.75732z"/>
		<path fill="#898989" d="M166.36426,67.20996c-55.29199,0-100.27539,44.99023-100.27539,100.29102
			c0,55.30176,44.9834,100.29297,100.27539,100.29297c55.30176,0,100.29199-44.99121,100.29199-100.29297
			C266.65625,112.2002,221.66602,67.20996,166.36426,67.20996z M166.36426,262.90039
			c-52.60254,0-95.39844-42.7959-95.39844-95.39941c0-52.60254,42.7959-95.39844,95.39844-95.39844
			c52.60352,0,95.39941,42.7959,95.39941,95.39844C261.76367,220.10449,218.96777,262.90039,166.36426,262.90039z"/>
		<path fill="#898989" d="M334,228.93823v-16.15796C318.30725,270.83008,273.20508,316.91699,215.73389,334h15.10815
			C278.51306,315.46582,316.32373,277.02759,334,228.93823z"/>
		<path fill="#898989" d="M166.39746,18.30371c-82.27734,0-149.21484,66.92969-149.21484,149.19727
			c0,82.26855,66.9375,149.19824,149.21484,149.19824c82.26855,0,149.19824-66.92969,149.19824-149.19824
			C315.5957,85.2334,248.66602,18.30371,166.39746,18.30371z M166.38086,311.82324
			c-79.56934,0-144.30469-64.74316-144.30469-144.32227S86.81152,23.17969,166.38086,23.17969
			c79.5791,0,144.32129,64.74219,144.32129,144.32129S245.95996,311.82324,166.38086,311.82324z"/>
		<path fill="#898989" d="M166.39746,8.51562c-87.67383,0-159.00195,71.32031-159.00195,158.98535
			S78.72363,326.4873,166.39746,326.4873c87.66504,0,158.98633-71.32129,158.98633-158.98633S254.0625,8.51562,166.39746,8.51562z
			 M166.39746,321.59375c-84.97559,0-154.10938-69.12598-154.10938-154.09277s69.13379-154.0918,154.10938-154.0918
			c84.9668,0,154.09277,69.125,154.09277,154.0918S251.36426,321.59375,166.39746,321.59375z"/>
		<path fill="#898989" d="M166.34766,106.34473c-33.71289,0-61.14062,27.43457-61.14062,61.15625
			c0,33.72266,27.42773,61.1582,61.14062,61.1582c33.72266,0,61.15723-27.43555,61.15723-61.1582
			C227.50488,133.7793,200.07031,106.34473,166.34766,106.34473z M166.34766,223.76562
			c-31.02344,0-56.26367-25.24023-56.26367-56.26465c0-31.02344,25.24023-56.26367,56.26367-56.26367
			s56.26367,25.24023,56.26367,56.26367C222.61133,198.52539,197.37109,223.76562,166.34766,223.76562z"/>
		<path fill="#898989" d="M166.34766,145.49609c-12.14355,0-22.02246,9.87109-22.02246,22.00488s9.87891,22.00586,22.02246,22.00586
			c12.13379,0,22.00586-9.87207,22.00586-22.00586S178.48145,145.49609,166.34766,145.49609z M166.33105,184.63086
			c-9.43555,0-17.1123-7.68457-17.1123-17.12988c0-9.44434,7.67676-17.12891,17.1123-17.12891
			c9.44434,0,17.12891,7.68457,17.12891,17.12891C183.45996,176.94629,175.77539,184.63086,166.33105,184.63086z"/>
		<path fill="#898989" d="M166.34766,116.13184c-28.3252,0-51.36914,23.04395-51.36914,51.36914
			c0,28.32617,23.04395,51.37012,51.36914,51.37012s51.36914-23.04395,51.36914-51.37012
			C217.7168,139.17578,194.67285,116.13184,166.34766,116.13184z M166.34766,213.97754
			c-25.62695,0-46.47559-20.84961-46.47559-46.47656s20.84863-46.47559,46.47559-46.47559s46.47656,20.84863,46.47656,46.47559
			S191.97461,213.97754,166.34766,213.97754z"/>
		<path fill="#898989" d="M166.34766,135.70801c-17.53125,0-31.79297,14.26172-31.79297,31.79297
			s14.26172,31.79395,31.79297,31.79395s31.79395-14.2627,31.79395-31.79395S183.87891,135.70801,166.34766,135.70801z
			 M166.34766,194.40137c-14.8418,0-26.91699-12.06738-26.91699-26.90039c0-14.83203,12.0752-26.89941,26.91699-26.89941
			c14.83301,0,26.90039,12.06738,26.90039,26.89941C193.24805,182.33398,181.18066,194.40137,166.34766,194.40137z"/>
		<path fill="#898989" d="M166.36426,96.57324c-39.11914,0-70.94434,31.81836-70.94434,70.92773
			c0,39.11035,31.8252,70.92871,70.94434,70.92871c39.11035,0,70.92871-31.81836,70.92871-70.92871
			C237.29297,128.3916,205.47461,96.57324,166.36426,96.57324z M166.34766,233.55371
			c-36.41211,0-66.03516-29.63086-66.03516-66.05273c0-36.41992,29.62305-66.05078,66.03516-66.05078
			c36.4209,0,66.05176,29.63086,66.05176,66.05078C232.39941,203.92285,202.76855,233.55371,166.34766,233.55371z"/>
		<path fill="#898989" d="M0,217.46118v14.98853C18.19885,278.89575,55.31592,315.91943,101.82019,334h15.10828
			C61.01123,317.37866,16.80347,273.30078,0,217.46118z"/>
		<path fill="#898989" d="M166.33105,155.2666c-6.7373,0-12.21777,5.48828-12.21777,12.23438
			c0,6.74707,5.48047,12.23535,12.21777,12.23535c6.74609,0,12.23438-5.48828,12.23438-12.23535
			C178.56543,160.75488,173.07715,155.2666,166.33105,155.2666z M166.33105,174.84277c-4.04785,0-7.34082-3.29395-7.34082-7.3418
			s3.29297-7.34082,7.34082-7.34082s7.3418,3.29297,7.3418,7.34082S170.37891,174.84277,166.33105,174.84277z"/>
		<circle fill="#898989" cx="166.3313" cy="167.50122" r="2.44678"/>
		<path fill="#898989" d="M166.36426,76.99707c-49.9043,0-90.50391,40.59961-90.50391,90.50391s40.59961,90.50488,90.50391,90.50488
			s90.50488-40.60059,90.50488-90.50488S216.26855,76.99707,166.36426,76.99707z M166.36426,253.1123
			c-47.20508,0-85.61035-38.40527-85.61035-85.61133c0-47.20508,38.40527-85.61035,85.61035-85.61035
			c47.20605,0,85.61133,38.40527,85.61133,85.61035C251.97559,214.70703,213.57031,253.1123,166.36426,253.1123z"/>
		<path fill="#898989" d="M166.36426,86.78516c-44.50684,0-80.71582,36.20898-80.71582,80.71582
			c0,44.50781,36.20898,80.7168,80.71582,80.7168c44.50781,0,80.7168-36.20898,80.7168-80.7168
			C247.08105,122.99414,210.87207,86.78516,166.36426,86.78516z M166.36426,243.32422
			c-41.81738,0-75.83887-34.01465-75.83887-75.82324s34.02148-75.82227,75.83887-75.82227
			c41.80859,0,75.82324,34.01367,75.82324,75.82227S208.17285,243.32422,166.36426,243.32422z"/>
		<path fill="#898989" d="M166.34766,125.91992c-22.92773,0-41.58105,18.65332-41.58105,41.58105
			c0,22.92871,18.65332,41.58203,41.58105,41.58203c22.92871,0,41.58203-18.65332,41.58203-41.58203
			C207.92969,144.57324,189.27637,125.91992,166.34766,125.91992z M166.34766,204.18945
			c-20.22949,0-36.6875-16.45898-36.6875-36.68848s16.45801-36.6875,36.6875-36.6875s36.68848,16.45801,36.68848,36.6875
			S186.57715,204.18945,166.34766,204.18945z"/>
		<path fill="#898989" d="M120.43616,0h-15.98279C56.7179,17.69092,18.54126,55.2334,0,102.55273v14.98804
			C17.15332,60.53857,62.86389,15.79272,120.43616,0z"/>
		<path fill="#898989" d="M91.53223,0H80.26514C46.12988,17.61377,18.0459,45.36328,0,79.24023v10.92261
			C18.64722,50.21777,51.26172,18.0542,91.53223,0z"/>
		<path fill="#898989" d="M0,315.22754v7.25171C3.70581,326.45483,7.55151,330.29736,11.53027,334h7.26099
			C12.16284,328.1189,5.8877,321.8501,0,315.22754z"/>
		<path fill="#898989" d="M334,53.14404v-8.4502C321.46997,27.63428,306.40552,12.55029,289.36182,0h-8.43945
			C301.72729,14.27588,319.75049,32.31958,334,53.14404z"/>
		<path fill="#898989" d="M70.05347,0h-9.40381C36.3634,15.3772,15.63562,35.88281,0,59.9873v9.27588
			C16.99365,40.59473,41.17358,16.66724,70.05347,0z"/>
		<path fill="#898989" d="M0,329.56909V334h4.43396C2.93616,332.54297,1.45825,331.06567,0,329.56909z"/>
		<path fill="#898989" d="M5.46045,0H0v5.43335C1.79211,3.59424,3.60889,1.7793,5.46045,0z"/>
		<path fill="#898989" d="M51.76428,0h-8.43042C26.8811,12.11523,12.26489,26.58496,0,42.92041v8.32495
			C14.03809,31.22217,31.59302,13.83984,51.76428,0z"/>
		<path fill="#898989" d="M19.92065,0h-7.31348C8.24341,4.00903,4.04028,8.18896,0,12.52344v7.25146
			C6.22217,12.77612,12.87354,6.16846,19.92065,0z"/>
		<path fill="#898989" d="M334,71.50391v-9.45093C318.22034,37.05444,297.0116,15.81445,272.03711,0h-9.42004
			C292.25122,17.10107,316.94849,41.83789,334,71.50391z"/>
		<path fill="#898989" d="M35.23364,0h-7.77979C17.51807,8.25317,8.33264,17.37671,0,27.24365v7.70337
			C10.35242,21.98193,22.17773,10.24243,35.23364,0z"/>
		<path fill="#898989" d="M334,290.30859v-8.44971C320.08179,302.19922,302.5625,319.88525,282.36792,334h8.36401
			C307.2168,321.65332,321.80493,306.91211,334,290.30859z"/>
		<path fill="#898989" d="M334,21.24292v-7.33154C329.56787,9.07739,324.92944,4.43677,320.09985,0h-7.32373
			C320.3158,6.59937,327.4082,13.69653,334,21.24292z"/>
		<path fill="#898989" d="M334,253.2583v-11.34106C315.92505,282.4834,283.55029,315.32153,243.3147,334h10.98816
			C288.41626,315.90283,316.34473,287.6377,334,253.2583z"/>
		<path fill="#898989" d="M334,272.94922v-9.45117C317.27576,292.59521,293.18994,316.94043,264.31128,334h9.30029
			C297.90454,318.29541,318.55249,297.42163,334,272.94922z"/>
		<path fill="#898989" d="M334,6.75684V0h-6.75317C329.54321,2.20654,331.79541,4.4585,334,6.75684z"/>
		<path fill="#898989" d="M334,306.21802v-7.79883C323.67236,311.61523,311.8197,323.56055,298.71558,334h7.71252
			C316.42285,325.57764,325.6582,316.28223,334,306.21802z"/>
		<path fill="#898989" d="M334,36.58325v-7.79858C325.32788,18.32178,315.69604,8.68311,305.24243,0h-7.78003
			C311.06726,10.67285,323.34253,22.96582,334,36.58325z"/>
		<path fill="#898989" d="M334,328.24561c-1.87341,1.95312-3.78662,3.86719-5.72656,5.75439H334V328.24561z"/>
		<path fill="#898989" d="M334,321.09131v-7.33179c-6.26062,7.16724-12.97644,13.92505-20.09448,20.24048h7.27136
			C325.61865,329.8667,329.89941,325.56372,334,321.09131z"/>
		<path fill="#898989" d="M0,300.05518v7.70386C7.99866,317.23071,16.78796,326.01123,26.26819,334h7.71228
			C21.422,323.99512,10.01855,312.60254,0,300.05518z"/>
		<path fill="#898989" d="M334,93.08472V81.74365C316.01758,46.72778,287.38257,18.04688,252.40479,0h-11.27417
			C282.37939,18.49268,315.59888,51.78662,334,93.08472z"/>
		<path fill="#767676" d="M166.33105,160.16016c-4.04785,0-7.34082,3.29297-7.34082,7.34082s3.29297,7.3418,7.34082,7.3418
			s7.3418-3.29395,7.3418-7.3418S170.37891,160.16016,166.33105,160.16016z M166.33105,169.94824
			c-1.34863,0-2.44629-1.09766-2.44629-2.44727c0-1.34863,1.09766-2.44629,2.44629-2.44629
			c1.34961,0,2.44727,1.09766,2.44727,2.44629C168.77832,168.85059,167.68066,169.94824,166.33105,169.94824z"/>
		<path fill="#767676" d="M166.33105,150.37207c-9.43555,0-17.1123,7.68457-17.1123,17.12891
			c0,9.44531,7.67676,17.12988,17.1123,17.12988c9.44434,0,17.12891-7.68457,17.12891-17.12988
			C183.45996,158.05664,175.77539,150.37207,166.33105,150.37207z M166.33105,179.73633
			c-6.7373,0-12.21777-5.48828-12.21777-12.23535c0-6.74609,5.48047-12.23438,12.21777-12.23438
			c6.74609,0,12.23438,5.48828,12.23438,12.23438C178.56543,174.24805,173.07715,179.73633,166.33105,179.73633z"/>
		<path fill="#767676" d="M166.34766,140.60156c-14.8418,0-26.91699,12.06738-26.91699,26.89941
			c0,14.83301,12.0752,26.90039,26.91699,26.90039c14.83301,0,26.90039-12.06738,26.90039-26.90039
			C193.24805,152.66895,181.18066,140.60156,166.34766,140.60156z M166.34766,189.50684
			c-12.14355,0-22.02246-9.87207-22.02246-22.00586s9.87891-22.00488,22.02246-22.00488
			c12.13379,0,22.00586,9.87109,22.00586,22.00488S178.48145,189.50684,166.34766,189.50684z"/>
		<path fill="#767676" d="M166.34766,130.81348c-20.22949,0-36.6875,16.45801-36.6875,36.6875s16.45801,36.68848,36.6875,36.68848
			s36.68848-16.45898,36.68848-36.68848S186.57715,130.81348,166.34766,130.81348z M166.34766,199.29492
			c-17.53125,0-31.79297-14.2627-31.79297-31.79395s14.26172-31.79297,31.79297-31.79297s31.79395,14.26172,31.79395,31.79297
			S183.87891,199.29492,166.34766,199.29492z"/>
		<path fill="#767676" d="M166.34766,121.02539c-25.62695,0-46.47559,20.84863-46.47559,46.47559
			s20.84863,46.47656,46.47559,46.47656s46.47656-20.84961,46.47656-46.47656S191.97461,121.02539,166.34766,121.02539z
			 M166.34766,209.08301c-22.92773,0-41.58105-18.65332-41.58105-41.58203c0-22.92773,18.65332-41.58105,41.58105-41.58105
			c22.92871,0,41.58203,18.65332,41.58203,41.58105C207.92969,190.42969,189.27637,209.08301,166.34766,209.08301z"/>
		<path fill="#767676" d="M166.34766,111.2373c-31.02344,0-56.26367,25.24023-56.26367,56.26367
			c0,31.02441,25.24023,56.26465,56.26367,56.26465s56.26367-25.24023,56.26367-56.26465
			C222.61133,136.47754,197.37109,111.2373,166.34766,111.2373z M166.34766,218.87109
			c-28.3252,0-51.36914-23.04395-51.36914-51.37012c0-28.3252,23.04395-51.36914,51.36914-51.36914
			s51.36914,23.04395,51.36914,51.36914C217.7168,195.82715,194.67285,218.87109,166.34766,218.87109z"/>
		<path fill="#767676" d="M166.34766,101.4502c-36.41211,0-66.03516,29.63086-66.03516,66.05078
			c0,36.42188,29.62305,66.05273,66.03516,66.05273c36.4209,0,66.05176-29.63086,66.05176-66.05273
			C232.39941,131.08105,202.76855,101.4502,166.34766,101.4502z M166.34766,228.65918
			c-33.71289,0-61.14062-27.43555-61.14062-61.1582c0-33.72168,27.42773-61.15625,61.14062-61.15625
			c33.72266,0,61.15723,27.43457,61.15723,61.15625C227.50488,201.22363,200.07031,228.65918,166.34766,228.65918z"/>
		<path fill="#767676" d="M166.36426,91.67871c-41.81738,0-75.83887,34.01367-75.83887,75.82227
			s34.02148,75.82324,75.83887,75.82324c41.80859,0,75.82324-34.01465,75.82324-75.82324S208.17285,91.67871,166.36426,91.67871z
			 M166.36426,238.42969c-39.11914,0-70.94434-31.81836-70.94434-70.92871c0-39.10938,31.8252-70.92773,70.94434-70.92773
			c39.11035,0,70.92871,31.81836,70.92871,70.92773C237.29297,206.61133,205.47461,238.42969,166.36426,238.42969z"/>
		<path fill="#767676" d="M166.36426,81.89062c-47.20508,0-85.61035,38.40527-85.61035,85.61035
			c0,47.20605,38.40527,85.61133,85.61035,85.61133c47.20605,0,85.61133-38.40527,85.61133-85.61133
			C251.97559,120.2959,213.57031,81.89062,166.36426,81.89062z M166.36426,248.21777
			c-44.50684,0-80.71582-36.20898-80.71582-80.7168c0-44.50684,36.20898-80.71582,80.71582-80.71582
			c44.50781,0,80.7168,36.20898,80.7168,80.71582C247.08105,212.00879,210.87207,248.21777,166.36426,248.21777z"/>
		<path fill="#767676" d="M166.36426,72.10254c-52.60254,0-95.39844,42.7959-95.39844,95.39844
			c0,52.60352,42.7959,95.39941,95.39844,95.39941c52.60352,0,95.39941-42.7959,95.39941-95.39941
			C261.76367,114.89844,218.96777,72.10254,166.36426,72.10254z M166.36426,258.00586
			c-49.9043,0-90.50391-40.60059-90.50391-90.50488s40.59961-90.50391,90.50391-90.50391s90.50488,40.59961,90.50488,90.50391
			S216.26855,258.00586,166.36426,258.00586z"/>
		<path fill="#767676" d="M166.36426,62.31543c-57.99121,0-105.16992,47.18652-105.16992,105.18555
			c0,58,47.17871,105.1875,105.16992,105.1875c58,0,105.18652-47.1875,105.18652-105.1875
			C271.55078,109.50195,224.36426,62.31543,166.36426,62.31543z M166.36426,267.79395
			c-55.29199,0-100.27539-44.99121-100.27539-100.29297c0-55.30078,44.9834-100.29102,100.27539-100.29102
			c55.30176,0,100.29199,44.99023,100.29199,100.29102C266.65625,222.80273,221.66602,267.79395,166.36426,267.79395z"/>
		<path fill="#767676" d="M166.38086,52.54395c-63.39648,0-114.97363,51.56934-114.97363,114.95703
			s51.57715,114.95801,114.97363,114.95801c63.3877,0,114.95801-51.57031,114.95801-114.95801
			S229.76855,52.54395,166.38086,52.54395z M166.38086,277.56445c-60.69824,0-110.0791-49.37402-110.0791-110.06348
			c0-60.68848,49.38086-110.0625,110.0791-110.0625c60.68945,0,110.06348,49.37402,110.06348,110.0625
			C276.44434,228.19043,227.07031,277.56445,166.38086,277.56445z"/>
		<path fill="#767676" d="M166.38086,42.75586c-68.78418,0-124.74512,55.96094-124.74512,124.74512
			c0,68.78516,55.96094,124.74609,124.74512,124.74609c68.78516,0,124.74609-55.96094,124.74609-124.74609
			C291.12695,98.7168,235.16602,42.75586,166.38086,42.75586z M166.38086,287.35254
			c-66.08594,0-119.85059-53.76465-119.85059-119.85156c0-66.08594,53.76465-119.85059,119.85059-119.85059
			c66.08691,0,119.85156,53.76465,119.85156,119.85059C286.23242,233.58789,232.46777,287.35254,166.38086,287.35254z"/>
		<path fill="#767676" d="M166.38086,32.96777c-74.18164,0-134.5332,60.35156-134.5332,134.5332
			c0,74.18262,60.35156,134.53418,134.5332,134.53418c74.18262,0,134.53418-60.35156,134.53418-134.53418
			C300.91504,93.31934,240.56348,32.96777,166.38086,32.96777z M166.38086,297.14062
			c-71.4834,0-129.63867-58.15625-129.63867-129.63965S94.89746,37.8623,166.38086,37.8623s129.63965,58.15527,129.63965,129.63867
			S237.86426,297.14062,166.38086,297.14062z"/>
		<path fill="#767676" d="M166.38086,23.17969c-79.56934,0-144.30469,64.74219-144.30469,144.32129
			s64.73535,144.32227,144.30469,144.32227c79.5791,0,144.32129-64.74316,144.32129-144.32227
			S245.95996,23.17969,166.38086,23.17969z M166.38086,306.92871c-76.87109,0-139.41016-62.54688-139.41016-139.42773
			c0-76.87988,62.53906-139.42676,139.41016-139.42676c76.87988,0,139.42676,62.54688,139.42676,139.42676
			C305.80762,244.38184,243.26074,306.92871,166.38086,306.92871z"/>
		<path fill="#767676" d="M166.39746,13.40918c-84.97559,0-154.10938,69.125-154.10938,154.0918
			s69.13379,154.09277,154.10938,154.09277c84.9668,0,154.09277-69.12598,154.09277-154.09277
			S251.36426,13.40918,166.39746,13.40918z M166.39746,316.69922c-82.27734,0-149.21484-66.92969-149.21484-149.19824
			c0-82.26758,66.9375-149.19727,149.21484-149.19727c82.26855,0,149.19824,66.92969,149.19824,149.19727
			C315.5957,249.76953,248.66602,316.69922,166.39746,316.69922z"/>
		<path fill="#767676" d="M166.39746,3.62109c-90.37305,0-163.89648,73.5166-163.89648,163.87988
			c0,90.36426,73.52344,163.88086,163.89648,163.88086c90.36426,0,163.88086-73.5166,163.88086-163.88086
			C330.27832,77.1377,256.76172,3.62109,166.39746,3.62109z M166.39746,326.4873
			c-87.67383,0-159.00195-71.32129-159.00195-158.98633S78.72363,8.51562,166.39746,8.51562
			c87.66504,0,158.98633,71.32031,158.98633,158.98535S254.0625,326.4873,166.39746,326.4873z"/>
		<path fill="#767676" d="M334,212.78027v-26.02002C325.45325,261.64868,267.70337,321.80151,193.96851,334h21.76538
			C273.20508,316.91699,318.30725,270.83008,334,212.78027z"/>
		<path fill="#767676" d="M0,196.1438v21.31738C16.80347,273.30078,61.01123,317.37866,116.92847,334h21.76514
			C68.06506,322.31543,12.10156,266.63257,0,196.1438z"/>
		<path fill="#767676" d="M145.61523,0h-25.17908C62.86389,15.79272,17.15332,60.53857,0,117.54077v21.31738
			C12.49438,66.0813,71.74316,9.08228,145.61523,0z"/>
		<path fill="#767676" d="M334,148.2417v-26.01978C317.98926,62.99609,271.36572,16.22266,212.22607,0h-25.1792
			C264.06567,9.46924,325.1875,71.02466,334,148.2417z"/>
		<path fill="#767676" d="M334,106.06421V93.08472C315.59888,51.78662,282.37939,18.49268,241.13062,0h-12.92188
			C277.11987,18.12646,315.99927,57.09277,334,106.06421z"/>
		<path fill="#767676" d="M0,232.44971v12.38965C18.30859,284.05884,50.08398,315.77246,89.34814,334h12.47205
			C55.31592,315.91943,18.19885,278.89575,0,232.44971z"/>
		<path fill="#767676" d="M104.45337,0H91.53223C51.26172,18.0542,18.64722,50.21777,0,90.16284v12.38989
			C18.54126,55.2334,56.7179,17.69092,104.45337,0z"/>
		<path fill="#767676" d="M334,241.91724v-12.979C316.32373,277.02759,278.51306,315.46582,230.84204,334h12.47266
			C283.55029,315.32153,315.92505,282.4834,334,241.91724z"/>
		<path fill="#767676" d="M334,263.49805V253.2583C316.34473,287.6377,288.41626,315.90283,254.30286,334h10.00842
			C293.18994,316.94043,317.27576,292.59521,334,263.49805z"/>
		<path fill="#767676" d="M80.26514,0H70.05347C41.17358,16.66724,16.99365,40.59473,0,69.26318v9.97705
			C18.0459,45.36328,46.12988,17.61377,80.26514,0z"/>
		<path fill="#767676" d="M0,255.76196v9.97729C16.65906,293.84326,40.23022,317.38159,68.35962,334h10.00781
			C45.0907,316.34497,17.70947,289.00757,0,255.76196z"/>
		<path fill="#767676" d="M334,81.74365V71.50391C316.94849,41.83789,292.25122,17.10107,262.61707,0h-10.21228
			C287.38257,18.04688,316.01758,46.72778,334,81.74365z"/>
		<path fill="#767676" d="M60.64966,0h-8.88538C31.59302,13.83984,14.03809,31.22217,0,51.24536v8.74194
			C15.63562,35.88281,36.3634,15.3772,60.64966,0z"/>
		<path fill="#767676" d="M334,62.05298v-8.90894C319.75049,32.31958,301.72729,14.27588,280.92236,0h-8.88525
			C297.0116,15.81445,318.22034,37.05444,334,62.05298z"/>
		<path fill="#767676" d="M0,275.01514v8.74219C13.70142,303.30054,30.75378,320.32666,50.3186,334h8.75659
			C35.46606,318.73877,15.29712,298.59766,0,275.01514z"/>
		<path fill="#767676" d="M334,281.85889v-8.90967C318.55249,297.42163,297.90454,318.29541,273.61157,334h8.75635
			C302.5625,319.88525,320.08179,302.19922,334,281.85889z"/>
		<path fill="#767676" d="M334,298.41919v-8.1106C321.80493,306.91211,307.2168,321.65332,290.73193,334h7.98364
			C311.8197,323.56055,323.67236,311.61523,334,298.41919z"/>
		<path fill="#767676" d="M334,44.69385v-8.1106C323.34253,22.96582,311.06726,10.67285,297.4624,0h-8.10059
			C306.40552,12.55029,321.46997,27.63428,334,44.69385z"/>
		<path fill="#767676" d="M43.33386,0h-8.10022C22.17773,10.24243,10.35242,21.98193,0,34.94702v7.97339
			C12.26489,26.58496,26.8811,12.11523,43.33386,0z"/>
		<path fill="#767676" d="M0,292.08179v7.97339C10.01855,312.60254,21.422,323.99512,33.98047,334h7.98315
			C26.06616,322.09326,11.92505,307.96484,0,292.08179z"/>
		<path fill="#767676" d="M0,307.75903v7.46851C5.8877,321.8501,12.16284,328.1189,18.79126,334h7.47693
			C16.78796,326.01123,7.99866,317.23071,0,307.75903z"/>
		<path fill="#767676" d="M334,313.75952v-7.5415c-8.3418,10.06421-17.57715,19.35962-27.5719,27.78198h7.47742
			C321.02356,327.68457,327.73938,320.92676,334,313.75952z"/>
		<path fill="#767676" d="M334,28.78467v-7.54175C327.4082,13.69653,320.3158,6.59937,312.77612,0h-7.53369
			C315.69604,8.68311,325.32788,18.32178,334,28.78467z"/>
		<path fill="#767676" d="M27.45386,0h-7.5332C12.87354,6.16846,6.22217,12.77612,0,19.7749v7.46875
			C8.33264,17.37671,17.51807,8.25317,27.45386,0z"/>
		<path fill="#767676" d="M334,328.24561v-7.1543c-4.10059,4.47241-8.38135,8.77539-12.82312,12.90869h7.09656
			C330.21338,332.11279,332.12659,330.19873,334,328.24561z"/>
		<path fill="#767676" d="M0,322.47925v7.08984c1.45825,1.49658,2.93616,2.97388,4.43396,4.43091h7.09631
			C7.55151,330.29736,3.70581,326.45483,0,322.47925z"/>
		<path fill="#767676" d="M12.60718,0H5.46045C3.60889,1.7793,1.79211,3.59424,0,5.43335v7.09009
			C4.04028,8.18896,8.24341,4.00903,12.60718,0z"/>
		<path fill="#767676" d="M334,13.91138V6.75684C331.79541,4.4585,329.54321,2.20654,327.24683,0h-7.14697
			C324.92944,4.43677,329.56787,9.07739,334,13.91138z"/>
	</g>
</g>
<g id="Layer_3" display="none">
</g>
<g id="Layer_2" display="none">
</g>
</svg>
