<?xml version="1.0" encoding="utf-8"?>
<!-- Generator: Adobe Illustrator 21.1.0, SVG Export Plug-In . SVG Version: 6.00 Build 0)  -->
<svg version="1.2" baseProfile="tiny" xmlns="http://www.w3.org/2000/svg" xmlns:xlink="http://www.w3.org/1999/xlink" x="0px"
	 y="0px" viewBox="0 0 334 334" xml:space="preserve">
<g id="Layer_1">
	<g>
		<path fill="#838383" d="M334,25.67432v-5.80176C327.8042,12.83887,321.17114,6.20117,314.14209,0h-5.79492
			C317.59033,7.83496,326.17261,16.42432,334,25.67432z"/>
		<path fill="#838383" d="M334,3.18799V0h-3.18555C331.88672,1.05249,332.94824,2.11523,334,3.18799z"/>
		<path fill="#838383" d="M334,14.18945V8.63477C331.20044,5.6814,328.32422,2.80151,325.3728,0h-5.55371
			C324.75195,4.51904,329.48462,9.25317,334,14.18945z"/>
		<path fill="#838383" d="M251.20239,334h8.16602c31.15161-17.08228,57.05493-42.58398,74.63159-73.4231v-7.91528
			C315.69189,287.72168,286.62354,316.30176,251.20239,334z"/>
		<path fill="#838383" d="M232.48853,334h9.85815C282.60645,316.01978,315.25,283.96753,334,244.13135v-9.37329
			C315.21387,280.14014,278.37842,316.22046,232.48853,334z"/>
		<path fill="#838383" d="M206.92163,334h14.17822C273.80249,317.18848,315.80151,276.19482,334,224.12134v-12.79175
			C317.48608,272.08203,268.50635,319.6001,206.92163,334z"/>
		<path fill="#838383" d="M39.10303,0h-6.08301C20.83691,9.89502,9.75684,21.0957,0,33.39453v6.17285
			C11.23633,24.7207,24.39478,11.40869,39.10303,0z"/>
		<path fill="#838383" d="M51.8457,0h-6.46313C27.96851,12.85278,12.63818,28.36963,0,45.94873v6.57568
			C13.93823,32.021,31.5376,14.20239,51.8457,0z"/>
		<path fill="#838383" d="M121.89575,0H109.2998C57.59033,18.21875,16.86792,59.92139,0,112.24219v14.0564
			C14.521,65.20947,61.64453,16.61987,121.89575,0z"/>
		<path fill="#838383" d="M334,37.71362v-6.10083C324.5957,20.01318,314.00684,9.41406,302.41553,0h-6.09351
			C310.41382,10.9314,323.08105,23.61133,334,37.71362z"/>
		<path fill="#838383" d="M98.7207,0h-9.32373C49.82178,18.72119,17.95996,51.16602,0,91.16162v9.76709
			C17.79199,55.3623,53.64819,18.77295,98.7207,0z"/>
		<path fill="#838383" d="M334,97.57275v-9.37402C315.81641,49.56592,284.56494,18.2561,245.97241,0h-9.32983
			C280.59888,18.30933,315.78418,53.56836,334,97.57275z"/>
		<path fill="#838383" d="M80.90356,0h-7.85889C42.39624,17.52441,17.03906,43.28125,0,74.23535v8.11133
			C17.66113,47.15747,46.073,18.26465,80.90356,0z"/>
		<path fill="#838383" d="M334,121.00049v-12.79126C316.37695,57.78223,276.43311,17.74829,226.06421,0h-12.61938
			C271.94922,16.13623,318.07373,62.41016,334,121.00049z"/>
		<path fill="#838383" d="M15.62793,0h-5.53198C6.62329,3.29614,3.26147,6.70654,0,10.21216v5.58374
			C4.94995,10.27979,10.16357,5.0061,15.62793,0z"/>
		<path fill="#838383" d="M334,79.66846v-7.91455C316.98706,41.9043,292.17383,17.0542,262.35034,0h-7.88452
			C288.40894,17.79932,316.25732,45.69116,334,79.66846z"/>
		<path fill="#838383" d="M4.6543,0H0v4.69214C1.52832,3.10522,3.08203,1.54346,4.6543,0z"/>
		<path fill="#838383" d="M334,50.50195V44c-12.35962-16.77783-27.19092-31.62476-43.95654-44h-6.48633
			C303.19287,13.73218,320.29004,30.84961,334,50.50195z"/>
		<path fill="#838383" d="M334,64.31714v-7.05591C319.04443,34.50098,299.54932,14.98267,276.80811,0h-7.0459
			C295.87915,16.1001,317.93237,38.17822,334,64.31714z"/>
		<path fill="#838383" d="M27.08838,0h-5.78369C13.72827,6.68457,6.60425,13.86963,0,21.51807v5.85352
			C8.20752,17.4707,17.27979,8.31396,27.08838,0z"/>
		<path fill="#838383" d="M65.63184,0h-7.03711C35.13965,15.45312,15.12939,35.72534,0,59.40869v7.21191
			C16.17676,39.47583,38.75,16.57056,65.63184,0z"/>
		<path fill="#838383" d="M317.96899,334h5.61011c3.57983-3.32617,7.05933-6.7583,10.4209-10.30469v-5.55469
			C328.92383,323.68994,323.57031,328.98022,317.96899,334z"/>
		<path fill="#838383" d="M167.83398,327.13965c88.76074,0,160.97363-72.21289,160.97363-160.97461
			c0-88.76074-72.21289-160.97363-160.97363-160.97363c-88.76172,0-160.97461,72.21289-160.97461,160.97363
			C6.85938,254.92676,79.07227,327.13965,167.83398,327.13965z M167.81738,8.9668
			c86.67969,0,157.19824,70.51855,157.19824,157.19824s-70.51855,157.19922-157.19824,157.19922
			c-86.6709,0-157.18262-70.51953-157.18262-157.19922S81.14648,8.9668,167.81738,8.9668z"/>
		<path fill="#838383" d="M152.13525,334h31.06689C259.80225,326.9668,321.72583,268.47021,334,193.48462v-54.63916
			C322.4165,68.0791,266.6145,11.99927,195.98682,0h-56.63501C65.39917,12.56543,7.69019,73.46582,0,148.95288v34.42432
			C8.12817,263.1626,72.13208,326.65356,152.13525,334z M167.83398,1.40039c90.85156,0,164.76465,73.91309,164.76465,164.76465
			c0,90.85254-73.91309,164.76562-164.76465,164.76562c-90.85254,0-164.76562-73.91309-164.76562-164.76562
			C3.06836,75.31348,76.98145,1.40039,167.83398,1.40039z"/>
		<path fill="#838383" d="M93.02246,334h9.85278C55.85498,315.78418,18.33521,278.35986,0,231.40186v9.7666
			C18.50537,282.37891,51.76855,315.57568,93.02246,334z"/>
		<path fill="#838383" d="M76.02686,334h8.14014C47.84839,315.85352,18.20947,286.26538,0,249.9834v8.11206
			C17.58862,290.04785,44.04126,316.46191,76.02686,334z"/>
		<path fill="#838383" d="M114.26465,334h14.15356C65.06006,319.18384,15.04126,269.30957,0,206.03149v14.05688
			C17.4043,274.07373,60.20361,316.75684,114.26465,334z"/>
		<path fill="#838383" d="M167.81738,319.57324c84.58887,0,153.40723-68.81836,153.40723-153.4082
			c0-84.58887-68.81836-153.40723-153.40723-153.40723c-84.58008,0-153.3916,68.81836-153.3916,153.40723
			C14.42578,250.75488,83.2373,319.57324,167.81738,319.57324z M167.81738,16.5498
			c82.49805,0,149.61523,67.11719,149.61523,149.61523s-67.11719,149.61523-149.61523,149.61523
			c-82.49902,0-149.61621-67.11719-149.61621-149.61523S85.31836,16.5498,167.81738,16.5498z"/>
		<path fill="#838383" d="M266.99707,334h7.24731c23.84277-15.18896,44.23999-35.3186,59.75562-58.93115v-7.05566
			C317.36865,295.06909,294.32275,317.77173,266.99707,334z"/>
		<path fill="#838383" d="M167.81738,311.98926c80.40723,0,145.82422-65.41699,145.82422-145.82422
			S248.22461,20.34082,167.81738,20.34082c-80.4082,0-145.8252,65.41699-145.8252,145.82422S87.40918,311.98926,167.81738,311.98926
			z M167.80078,24.11621c78.32617,0,142.04883,63.72266,142.04883,142.04883s-63.72266,142.04883-142.04883,142.04883
			c-78.31738,0-142.0332-63.72266-142.0332-142.04883S89.4834,24.11621,167.80078,24.11621z"/>
		<path fill="#838383" d="M167.80078,289.25684c67.87305,0,123.0918-55.21875,123.0918-123.0918
			s-55.21875-123.0918-123.0918-123.0918c-67.88184,0-123.1084,55.21875-123.1084,123.0918S99.91895,289.25684,167.80078,289.25684z
			 M167.78418,46.84863c65.79102,0,119.31641,53.52539,119.31641,119.31641S233.5752,285.48145,167.78418,285.48145
			S48.46777,231.95605,48.46777,166.16504S101.99316,46.84863,167.78418,46.84863z"/>
		<path fill="#838383" d="M167.80078,304.42285c76.23535,0,138.25781-62.02246,138.25781-138.25781
			S244.03613,27.90723,167.80078,27.90723c-76.22656,0-138.24219,62.02246-138.24219,138.25781
			S91.57422,304.42285,167.80078,304.42285z M167.80078,31.69922c74.14453,0,134.46582,60.32129,134.46582,134.46582
			s-60.32129,134.46582-134.46582,134.46582c-74.14551,0-134.4668-60.32129-134.4668-134.46582
			S93.65527,31.69922,167.80078,31.69922z"/>
		<path fill="#838383" d="M11.88965,334h5.58813C11.33984,328.49902,5.50488,322.6687,0,316.53418v5.58374
			C3.81787,326.22144,7.78369,330.18457,11.88965,334z"/>
		<path fill="#838383" d="M0.95166,334H6.3645c-2.16211-2.07959-4.28345-4.20117-6.3645-6.36206v5.41235
			C0.31616,333.36816,0.63379,333.68408,0.95166,334z"/>
		<path fill="#838383" d="M329.10425,334H334v-4.85791C332.39038,330.78369,330.76123,332.40625,329.10425,334z"/>
		<path fill="#838383" d="M61.1582,334h7.23877C40.29834,317.31372,16.72803,293.77979,0,265.70996v7.21143
			C15.67871,297.4646,36.59424,318.35132,61.1582,334z"/>
		<path fill="#838383" d="M294.14502,334h6.198c12.40503-9.82349,23.69409-20.9939,33.65698-33.28271v-6.10083
			C322.52148,309.44165,309.11182,322.69775,294.14502,334z"/>
		<path fill="#838383" d="M281.1499,334h6.60547c17.70703-12.70044,33.3252-28.13184,46.24463-45.66992v-6.50195
			C319.7312,302.28125,301.79956,319.99707,281.1499,334z"/>
		<path fill="#838383" d="M35.09253,334h6.18774C25.69043,322.22803,11.78809,308.33862,0,292.7627v6.17285
			C10.30811,311.92969,22.08936,323.70288,35.09253,334z"/>
		<path fill="#838383" d="M47.6709,334h6.58179C32.92383,319.53638,14.4873,301.11694,0,279.80566v6.57568
			C13.18945,304.72754,29.30859,320.83057,47.6709,334z"/>
		<path fill="#838383" d="M23.20508,334h5.85767C18.49072,325.25098,8.75781,315.52319,0,304.9585v5.85352
			C7.15552,319.09863,14.91382,326.84985,23.20508,334z"/>
		<path fill="#838383" d="M167.78418,281.69043c63.70117,0,115.52539-51.82422,115.52539-115.52539
			S231.48535,50.63965,167.78418,50.63965S52.25879,102.46387,52.25879,166.16504S104.08301,281.69043,167.78418,281.69043z
			 M167.78418,54.43164c61.61035,0,111.7334,50.12305,111.7334,111.7334s-50.12305,111.7334-111.7334,111.7334
			c-61.61914,0-111.75-50.12305-111.75-111.7334S106.16504,54.43164,167.78418,54.43164z"/>
		<path fill="#838383" d="M167.80078,296.83984c72.05371,0,130.6748-58.62109,130.6748-130.6748
			s-58.62109-130.6748-130.6748-130.6748c-72.05469,0-130.67578,58.62109-130.67578,130.6748
			S95.74609,296.83984,167.80078,296.83984z M167.80078,39.28223c69.96387,0,126.88281,56.91895,126.88281,126.88281
			s-56.91895,126.88281-126.88281,126.88281c-69.97266,0-126.89941-56.91895-126.89941-126.88281
			S97.82812,39.28223,167.80078,39.28223z"/>
		<path fill="#838383" d="M167.71777,213.50977c26.10547,0,47.34473-21.23926,47.34473-47.34473
			s-21.23926-47.34473-47.34473-47.34473s-47.34473,21.23926-47.34473,47.34473S141.6123,213.50977,167.71777,213.50977z
			 M167.71777,122.6123c24.01562,0,43.55273,19.53711,43.55273,43.55273s-19.53711,43.55273-43.55273,43.55273
			c-24.02441,0-43.56934-19.53711-43.56934-43.55273S143.69336,122.6123,167.71777,122.6123z"/>
		<path fill="#838383" d="M167.70117,190.77734c13.57129,0,24.6123-11.04102,24.6123-24.6123s-11.04102-24.6123-24.6123-24.6123
			c-13.58008,0-24.62793,11.04102-24.62793,24.6123S154.12109,190.77734,167.70117,190.77734z M167.68457,145.32812
			c11.48926,0,20.83691,9.34766,20.83691,20.83691s-9.34766,20.83691-20.83691,20.83691s-20.83594-9.34766-20.83594-20.83691
			S156.19531,145.32812,167.68457,145.32812z"/>
		<path fill="#838383" d="M167.70117,198.36035c17.75195,0,32.19531-14.44336,32.19531-32.19531
			s-14.44336-32.19531-32.19531-32.19531s-32.19434,14.44336-32.19434,32.19531S149.94922,198.36035,167.70117,198.36035z
			 M167.70117,137.76172c15.66211,0,28.40332,12.74121,28.40332,28.40332s-12.74121,28.40332-28.40332,28.40332
			c-15.66992,0-28.41895-12.74121-28.41895-28.40332S152.03125,137.76172,167.70117,137.76172z"/>
		<path fill="#838383" d="M167.71777,205.92676c21.9248,0,39.76172-17.83691,39.76172-39.76172
			s-17.83691-39.76172-39.76172-39.76172c-21.93359,0-39.77832,17.83691-39.77832,39.76172S145.78418,205.92676,167.71777,205.92676
			z M167.70117,130.17871c19.84277,0,35.98633,16.14355,35.98633,35.98633s-16.14355,35.98633-35.98633,35.98633
			s-35.98535-16.14355-35.98535-35.98633S147.8584,130.17871,167.70117,130.17871z"/>
		<path fill="#838383" d="M306.3728,334h5.86865c7.73853-6.67285,15.00537-13.87573,21.75854-21.54248v-5.80176
			C325.61572,316.56372,316.37378,325.72339,306.3728,334z"/>
		<path fill="#838383" d="M167.78418,274.10742c59.51953,0,107.94238-48.42285,107.94238-107.94238
			S227.30371,58.22266,167.78418,58.22266c-59.52832,0-107.95898,48.42285-107.95898,107.94238
			S108.25586,274.10742,167.78418,274.10742z M167.76758,61.99805c57.43848,0,104.16699,46.72852,104.16699,104.16699
			s-46.72852,104.16699-104.16699,104.16699S63.60059,223.60352,63.60059,166.16504S110.3291,61.99805,167.76758,61.99805z"/>
		<path fill="#838383" d="M167.68457,175.62793c5.21777,0,9.46289-4.24512,9.46289-9.46289
			c0-5.2168-4.24512-9.46191-9.46289-9.46191c-5.22656,0-9.47852,4.24512-9.47852,9.46191
			C158.20605,171.38281,162.45801,175.62793,167.68457,175.62793z M167.66797,160.47852c3.13672,0,5.6875,2.55078,5.6875,5.68652
			c0,3.13672-2.55078,5.6875-5.6875,5.6875c-3.13574,0-5.68652-2.55078-5.68652-5.6875
			C161.98145,163.0293,164.53223,160.47852,167.66797,160.47852z"/>
		<circle fill="#838383" cx="167.66821" cy="166.16528" r="1.896"/>
		<path fill="#838383" d="M167.68457,183.21094c9.39941,0,17.0459-7.64648,17.0459-17.0459s-7.64648-17.0459-17.0459-17.0459
			c-9.39844,0-17.04492,7.64648-17.04492,17.0459S158.28613,183.21094,167.68457,183.21094z M167.68457,152.91211
			c7.30859,0,13.25391,5.94531,13.25391,13.25293c0,7.30859-5.94531,13.25391-13.25391,13.25391
			c-7.31738,0-13.26953-5.94531-13.26953-13.25391C154.41504,158.85742,160.36719,152.91211,167.68457,152.91211z"/>
		<path fill="#838383" d="M167.75098,243.80859c42.8125,0,77.64355-34.83105,77.64355-77.64355
			s-34.83105-77.64355-77.64355-77.64355s-77.64355,34.83105-77.64355,77.64355S124.93848,243.80859,167.75098,243.80859z
			 M167.73438,92.29688c40.73145,0,73.86816,33.13672,73.86816,73.86816s-33.13672,73.86816-73.86816,73.86816
			c-40.72168,0-73.85156-33.13672-73.85156-73.86816S127.0127,92.29688,167.73438,92.29688z"/>
		<path fill="#838383" d="M167.76758,258.95801c51.16602,0,92.79297-41.62695,92.79297-92.79297
			s-41.62695-92.79297-92.79297-92.79297c-51.1748,0-92.80957,41.62695-92.80957,92.79297S116.59277,258.95801,167.76758,258.95801z
			 M167.75098,77.14746c49.08496,0,89.01758,39.93262,89.01758,89.01758s-39.93262,89.01758-89.01758,89.01758
			S78.7334,215.25,78.7334,166.16504S118.66602,77.14746,167.75098,77.14746z"/>
		<path fill="#838383" d="M167.75098,251.3916c46.99414,0,85.22656-38.23242,85.22656-85.22656
			s-38.23242-85.22656-85.22656-85.22656s-85.22656,38.23242-85.22656,85.22656S120.75684,251.3916,167.75098,251.3916z
			 M167.75098,84.73047c44.90332,0,81.43457,36.53125,81.43457,81.43457s-36.53125,81.43457-81.43457,81.43457
			s-81.43457-36.53125-81.43457-81.43457S122.84766,84.73047,167.75098,84.73047z"/>
		<path fill="#838383" d="M167.71777,221.09277c30.28711,0,54.92773-24.64062,54.92773-54.92773
			s-24.64062-54.92773-54.92773-54.92773c-30.27832,0-54.91113,24.64062-54.91113,54.92773S137.43945,221.09277,167.71777,221.09277
			z M167.71777,115.0293c28.19629,0,51.13574,22.93945,51.13574,51.13574s-22.93945,51.13574-51.13574,51.13574
			s-51.13574-22.93945-51.13574-51.13574S139.52148,115.0293,167.71777,115.0293z"/>
		<path fill="#838383" d="M167.76758,266.54102c55.34766,0,100.37598-45.02832,100.37598-100.37598
			S223.11523,65.78906,167.76758,65.78906S67.3916,110.81738,67.3916,166.16504S112.41992,266.54102,167.76758,266.54102z
			 M167.76758,69.58105c53.25684,0,96.58398,43.32715,96.58398,96.58398s-43.32715,96.58398-96.58398,96.58398
			c-53.26562,0-96.60059-43.32715-96.60059-96.58398S114.50195,69.58105,167.76758,69.58105z"/>
		<path fill="#838383" d="M167.73438,228.65918c34.45898,0,62.49414-28.03516,62.49414-62.49414
			s-28.03516-62.49414-62.49414-62.49414s-62.49414,28.03516-62.49414,62.49414S133.27539,228.65918,167.73438,228.65918z
			 M167.71777,107.44629c32.37793,0,58.71875,26.34082,58.71875,58.71875s-26.34082,58.71875-58.71875,58.71875
			c-32.36816,0-58.70215-26.34082-58.70215-58.71875S135.34961,107.44629,167.71777,107.44629z"/>
		<path fill="#838383" d="M167.73438,236.24219c38.64062,0,70.07715-31.43652,70.07715-70.07715
			S206.375,96.08789,167.73438,96.08789c-38.63184,0-70.06055,31.43652-70.06055,70.07715S129.10254,236.24219,167.73438,236.24219z
			 M167.73438,99.87988c36.5498,0,66.28516,29.73535,66.28516,66.28516s-29.73535,66.28516-66.28516,66.28516
			s-66.28516-29.73535-66.28516-66.28516S131.18457,99.87988,167.73438,99.87988z"/>
		<path fill="#7C7C7C" d="M167.66797,171.85254c3.13672,0,5.6875-2.55078,5.6875-5.6875c0-3.13574-2.55078-5.68652-5.6875-5.68652
			c-3.13574,0-5.68652,2.55078-5.68652,5.68652C161.98145,169.30176,164.53223,171.85254,167.66797,171.85254z M167.66797,164.26953
			c1.0459,0,1.89648,0.85059,1.89648,1.89551c0,1.0459-0.85059,1.89648-1.89648,1.89648c-1.04492,0-1.89551-0.85059-1.89551-1.89648
			C165.77246,165.12012,166.62305,164.26953,167.66797,164.26953z"/>
		<path fill="#7C7C7C" d="M167.68457,179.41895c7.30859,0,13.25391-5.94531,13.25391-13.25391
			c0-7.30762-5.94531-13.25293-13.25391-13.25293c-7.31738,0-13.26953,5.94531-13.26953,13.25293
			C154.41504,173.47363,160.36719,179.41895,167.68457,179.41895z M167.68457,156.70312c5.21777,0,9.46289,4.24512,9.46289,9.46191
			c0,5.21777-4.24512,9.46289-9.46289,9.46289c-5.22656,0-9.47852-4.24512-9.47852-9.46289
			C158.20605,160.94824,162.45801,156.70312,167.68457,156.70312z"/>
		<path fill="#7C7C7C" d="M167.68457,187.00195c11.48926,0,20.83691-9.34766,20.83691-20.83691s-9.34766-20.83691-20.83691-20.83691
			s-20.83594,9.34766-20.83594,20.83691S156.19531,187.00195,167.68457,187.00195z M167.68457,149.11914
			c9.39941,0,17.0459,7.64648,17.0459,17.0459s-7.64648,17.0459-17.0459,17.0459c-9.39844,0-17.04492-7.64648-17.04492-17.0459
			S158.28613,149.11914,167.68457,149.11914z"/>
		<path fill="#7C7C7C" d="M167.70117,194.56836c15.66211,0,28.40332-12.74121,28.40332-28.40332
			s-12.74121-28.40332-28.40332-28.40332c-15.66992,0-28.41895,12.74121-28.41895,28.40332S152.03125,194.56836,167.70117,194.56836
			z M167.70117,141.55273c13.57129,0,24.6123,11.04102,24.6123,24.6123s-11.04102,24.6123-24.6123,24.6123
			c-13.58008,0-24.62793-11.04102-24.62793-24.6123S154.12109,141.55273,167.70117,141.55273z"/>
		<path fill="#7C7C7C" d="M167.70117,202.15137c19.84277,0,35.98633-16.14355,35.98633-35.98633
			s-16.14355-35.98633-35.98633-35.98633s-35.98535,16.14355-35.98535,35.98633S147.8584,202.15137,167.70117,202.15137z
			 M167.70117,133.96973c17.75195,0,32.19531,14.44336,32.19531,32.19531s-14.44336,32.19531-32.19531,32.19531
			s-32.19434-14.44336-32.19434-32.19531S149.94922,133.96973,167.70117,133.96973z"/>
		<path fill="#7C7C7C" d="M167.71777,209.71777c24.01562,0,43.55273-19.53711,43.55273-43.55273
			s-19.53711-43.55273-43.55273-43.55273c-24.02441,0-43.56934,19.53711-43.56934,43.55273S143.69336,209.71777,167.71777,209.71777
			z M167.71777,126.40332c21.9248,0,39.76172,17.83691,39.76172,39.76172s-17.83691,39.76172-39.76172,39.76172
			c-21.93359,0-39.77832-17.83691-39.77832-39.76172S145.78418,126.40332,167.71777,126.40332z"/>
		<path fill="#7C7C7C" d="M167.71777,217.30078c28.19629,0,51.13574-22.93945,51.13574-51.13574
			s-22.93945-51.13574-51.13574-51.13574s-51.13574,22.93945-51.13574,51.13574S139.52148,217.30078,167.71777,217.30078z
			 M167.71777,118.82031c26.10547,0,47.34473,21.23926,47.34473,47.34473s-21.23926,47.34473-47.34473,47.34473
			s-47.34473-21.23926-47.34473-47.34473S141.6123,118.82031,167.71777,118.82031z"/>
		<path fill="#7C7C7C" d="M167.71777,224.88379c32.37793,0,58.71875-26.34082,58.71875-58.71875
			s-26.34082-58.71875-58.71875-58.71875c-32.36816,0-58.70215,26.34082-58.70215,58.71875S135.34961,224.88379,167.71777,224.88379
			z M167.71777,111.2373c30.28711,0,54.92773,24.64062,54.92773,54.92773s-24.64062,54.92773-54.92773,54.92773
			c-30.27832,0-54.91113-24.64062-54.91113-54.92773S137.43945,111.2373,167.71777,111.2373z"/>
		<path fill="#7C7C7C" d="M167.73438,232.4502c36.5498,0,66.28516-29.73535,66.28516-66.28516s-29.73535-66.28516-66.28516-66.28516
			s-66.28516,29.73535-66.28516,66.28516S131.18457,232.4502,167.73438,232.4502z M167.73438,103.6709
			c34.45898,0,62.49414,28.03516,62.49414,62.49414s-28.03516,62.49414-62.49414,62.49414s-62.49414-28.03516-62.49414-62.49414
			S133.27539,103.6709,167.73438,103.6709z"/>
		<path fill="#7C7C7C" d="M167.73438,240.0332c40.73145,0,73.86816-33.13672,73.86816-73.86816
			s-33.13672-73.86816-73.86816-73.86816c-40.72168,0-73.85156,33.13672-73.85156,73.86816S127.0127,240.0332,167.73438,240.0332z
			 M167.73438,96.08789c38.64062,0,70.07715,31.43652,70.07715,70.07715s-31.43652,70.07715-70.07715,70.07715
			c-38.63184,0-70.06055-31.43652-70.06055-70.07715S129.10254,96.08789,167.73438,96.08789z"/>
		<path fill="#7C7C7C" d="M167.75098,247.59961c44.90332,0,81.43457-36.53125,81.43457-81.43457
			s-36.53125-81.43457-81.43457-81.43457s-81.43457,36.53125-81.43457,81.43457S122.84766,247.59961,167.75098,247.59961z
			 M167.75098,88.52148c42.8125,0,77.64355,34.83105,77.64355,77.64355s-34.83105,77.64355-77.64355,77.64355
			s-77.64355-34.83105-77.64355-77.64355S124.93848,88.52148,167.75098,88.52148z"/>
		<path fill="#7C7C7C" d="M167.75098,255.18262c49.08496,0,89.01758-39.93262,89.01758-89.01758
			s-39.93262-89.01758-89.01758-89.01758S78.7334,117.08008,78.7334,166.16504S118.66602,255.18262,167.75098,255.18262z
			 M167.75098,80.93848c46.99414,0,85.22656,38.23242,85.22656,85.22656s-38.23242,85.22656-85.22656,85.22656
			s-85.22656-38.23242-85.22656-85.22656S120.75684,80.93848,167.75098,80.93848z"/>
		<path fill="#7C7C7C" d="M167.76758,262.74902c53.25684,0,96.58398-43.32715,96.58398-96.58398
			s-43.32715-96.58398-96.58398-96.58398c-53.26562,0-96.60059,43.32715-96.60059,96.58398S114.50195,262.74902,167.76758,262.74902
			z M167.76758,73.37207c51.16602,0,92.79297,41.62695,92.79297,92.79297s-41.62695,92.79297-92.79297,92.79297
			c-51.1748,0-92.80957-41.62695-92.80957-92.79297S116.59277,73.37207,167.76758,73.37207z"/>
		<path fill="#7C7C7C" d="M167.76758,270.33203c57.43848,0,104.16699-46.72852,104.16699-104.16699
			S225.20605,61.99805,167.76758,61.99805S63.60059,108.72656,63.60059,166.16504S110.3291,270.33203,167.76758,270.33203z
			 M167.76758,65.78906c55.34766,0,100.37598,45.02832,100.37598,100.37598s-45.02832,100.37598-100.37598,100.37598
			S67.3916,221.5127,67.3916,166.16504S112.41992,65.78906,167.76758,65.78906z"/>
		<path fill="#7C7C7C" d="M167.78418,277.89844c61.61035,0,111.7334-50.12305,111.7334-111.7334
			s-50.12305-111.7334-111.7334-111.7334c-61.61914,0-111.75,50.12305-111.75,111.7334S106.16504,277.89844,167.78418,277.89844z
			 M167.78418,58.22266c59.51953,0,107.94238,48.42285,107.94238,107.94238s-48.42285,107.94238-107.94238,107.94238
			c-59.52832,0-107.95898-48.42285-107.95898-107.94238S108.25586,58.22266,167.78418,58.22266z"/>
		<path fill="#7C7C7C" d="M167.78418,285.48145c65.79102,0,119.31641-53.52539,119.31641-119.31641
			S233.5752,46.84863,167.78418,46.84863S48.46777,100.37402,48.46777,166.16504S101.99316,285.48145,167.78418,285.48145z
			 M167.78418,50.63965c63.70117,0,115.52539,51.82422,115.52539,115.52539s-51.82422,115.52539-115.52539,115.52539
			S52.25879,229.86621,52.25879,166.16504S104.08301,50.63965,167.78418,50.63965z"/>
		<path fill="#7C7C7C" d="M167.80078,293.04785c69.96387,0,126.88281-56.91895,126.88281-126.88281
			S237.76465,39.28223,167.80078,39.28223c-69.97266,0-126.89941,56.91895-126.89941,126.88281
			S97.82812,293.04785,167.80078,293.04785z M167.80078,43.07324c67.87305,0,123.0918,55.21875,123.0918,123.0918
			s-55.21875,123.0918-123.0918,123.0918c-67.88184,0-123.1084-55.21875-123.1084-123.0918S99.91895,43.07324,167.80078,43.07324z"
			/>
		<path fill="#7C7C7C" d="M167.80078,300.63086c74.14453,0,134.46582-60.32129,134.46582-134.46582
			S241.94531,31.69922,167.80078,31.69922c-74.14551,0-134.4668,60.32129-134.4668,134.46582
			S93.65527,300.63086,167.80078,300.63086z M167.80078,35.49023c72.05371,0,130.6748,58.62109,130.6748,130.6748
			s-58.62109,130.6748-130.6748,130.6748c-72.05469,0-130.67578-58.62109-130.67578-130.6748S95.74609,35.49023,167.80078,35.49023z
			"/>
		<path fill="#7C7C7C" d="M167.80078,308.21387c78.32617,0,142.04883-63.72266,142.04883-142.04883
			S246.12695,24.11621,167.80078,24.11621c-78.31738,0-142.0332,63.72266-142.0332,142.04883S89.4834,308.21387,167.80078,308.21387
			z M167.80078,27.90723c76.23535,0,138.25781,62.02246,138.25781,138.25781s-62.02246,138.25781-138.25781,138.25781
			c-76.22656,0-138.24219-62.02246-138.24219-138.25781S91.57422,27.90723,167.80078,27.90723z"/>
		<path fill="#7C7C7C" d="M167.81738,315.78027c82.49805,0,149.61523-67.11719,149.61523-149.61523
			S250.31543,16.5498,167.81738,16.5498c-82.49902,0-149.61621,67.11719-149.61621,149.61523
			S85.31836,315.78027,167.81738,315.78027z M167.81738,20.34082c80.40723,0,145.82422,65.41699,145.82422,145.82422
			s-65.41699,145.82422-145.82422,145.82422c-80.4082,0-145.8252-65.41699-145.8252-145.82422S87.40918,20.34082,167.81738,20.34082
			z"/>
		<path fill="#7C7C7C" d="M167.81738,323.36426c86.67969,0,157.19824-70.51953,157.19824-157.19922
			S254.49707,8.9668,167.81738,8.9668c-86.6709,0-157.18262,70.51855-157.18262,157.19824S81.14648,323.36426,167.81738,323.36426z
			 M167.81738,12.75781c84.58887,0,153.40723,68.81836,153.40723,153.40723c0,84.58984-68.81836,153.4082-153.40723,153.4082
			c-84.58008,0-153.3916-68.81836-153.3916-153.4082C14.42578,81.57617,83.2373,12.75781,167.81738,12.75781z"/>
		<path fill="#7C7C7C" d="M167.83398,330.93066c90.85156,0,164.76465-73.91309,164.76465-164.76562
			c0-90.85156-73.91309-164.76465-164.76465-164.76465c-90.85254,0-164.76562,73.91309-164.76562,164.76465
			C3.06836,257.01758,76.98145,330.93066,167.83398,330.93066z M167.83398,5.19141
			c88.76074,0,160.97363,72.21289,160.97363,160.97363c0,88.76172-72.21289,160.97461-160.97363,160.97461
			c-88.76172,0-160.97461-72.21289-160.97461-160.97461C6.85938,77.4043,79.07227,5.19141,167.83398,5.19141z"/>
		<path fill="#7C7C7C" d="M183.20215,334h23.71948C268.50635,319.6001,317.48608,272.08203,334,211.32959v-17.84497
			C321.72583,268.47021,259.80225,326.9668,183.20215,334z"/>
		<path fill="#7C7C7C" d="M128.41821,334h23.71704C72.13208,326.65356,8.12817,263.1626,0,183.3772v22.6543
			C15.04126,269.30957,65.06006,319.18384,128.41821,334z"/>
		<path fill="#7C7C7C" d="M334,138.84546v-17.84497C318.07373,62.41016,271.94922,16.13623,213.44482,0h-17.45801
			C266.6145,11.99927,322.4165,68.0791,334,138.84546z"/>
		<path fill="#7C7C7C" d="M139.35181,0h-17.45605C61.64453,16.61987,14.521,65.20947,0,126.29858v22.6543
			C7.69019,73.46582,65.39917,12.56543,139.35181,0z"/>
		<path fill="#7C7C7C" d="M221.09985,334h11.38867C278.37842,316.22046,315.21387,280.14014,334,234.75806v-10.63672
			C315.80151,276.19482,273.80249,317.18848,221.09985,334z"/>
		<path fill="#7C7C7C" d="M334,108.20923V97.57275C315.78418,53.56836,280.59888,18.30933,236.64258,0h-10.57837
			C276.43311,17.74829,316.37695,57.78223,334,108.20923z"/>
		<path fill="#7C7C7C" d="M102.87524,334h11.3894C60.20361,316.75684,17.4043,274.07373,0,220.08838v11.31348
			C18.33521,278.35986,55.85498,315.78418,102.87524,334z"/>
		<path fill="#7C7C7C" d="M109.2998,0H98.7207C53.64819,18.77295,17.79199,55.3623,0,100.92871v11.31348
			C16.86792,59.92139,57.59033,18.21875,109.2998,0z"/>
		<path fill="#7C7C7C" d="M84.16699,334h8.85547C51.76855,315.57568,18.50537,282.37891,0,241.16846v8.81494
			C18.20947,286.26538,47.84839,315.85352,84.16699,334z"/>
		<path fill="#7C7C7C" d="M334,88.19873v-8.53027C316.25732,45.69116,288.40894,17.79932,254.46582,0h-8.49341
			C284.56494,18.2561,315.81641,49.56592,334,88.19873z"/>
		<path fill="#7C7C7C" d="M242.34668,334h8.85571c35.42114-17.69824,64.4895-46.27832,82.79761-81.33838v-8.53027
			C315.25,283.96753,282.60645,316.01978,242.34668,334z"/>
		<path fill="#7C7C7C" d="M89.39697,0h-8.49341C46.073,18.26465,17.66113,47.15747,0,82.34668v8.81494
			C17.95996,51.16602,49.82178,18.72119,89.39697,0z"/>
		<path fill="#7C7C7C" d="M259.36841,334h7.62866c27.32568-16.22827,50.37158-38.93091,67.00293-65.98682v-7.43628
			C316.42334,291.41602,290.52002,316.91772,259.36841,334z"/>
		<path fill="#7C7C7C" d="M73.04468,0h-7.41284C38.75,16.57056,16.17676,39.47583,0,66.62061v7.61475
			C17.03906,43.28125,42.39624,17.52441,73.04468,0z"/>
		<path fill="#7C7C7C" d="M334,71.75391v-7.43677C317.93237,38.17822,295.87915,16.1001,269.76221,0h-7.41187
			C292.17383,17.0542,316.98706,41.9043,334,71.75391z"/>
		<path fill="#7C7C7C" d="M68.39697,334h7.62988C44.04126,316.46191,17.58862,290.04785,0,258.09546v7.6145
			C16.72803,293.77979,40.29834,317.31372,68.39697,334z"/>
		<path fill="#7C7C7C" d="M274.24438,334h6.90552c20.64966-14.00293,38.5813-31.71875,52.8501-52.17188v-6.75928
			C318.48438,298.6814,298.08716,318.81104,274.24438,334z"/>
		<path fill="#7C7C7C" d="M54.25269,334h6.90552C36.59424,318.35132,15.67871,297.4646,0,272.92139v6.88428
			C14.4873,301.11694,32.92383,319.53638,54.25269,334z"/>
		<path fill="#7C7C7C" d="M334,57.26123v-6.75928C320.29004,30.84961,303.19287,13.73218,283.55713,0h-6.74902
			C299.54932,14.98267,319.04443,34.50098,334,57.26123z"/>
		<path fill="#7C7C7C" d="M58.59473,0H51.8457C31.5376,14.20239,13.93823,32.021,0,52.52441v6.88428
			C15.12939,35.72534,35.13965,15.45312,58.59473,0z"/>
		<path fill="#7C7C7C" d="M41.28027,334h6.39062C29.30859,320.83057,13.18945,304.72754,0,286.38135v6.38135
			C11.78809,308.33862,25.69043,322.22803,41.28027,334z"/>
		<path fill="#7C7C7C" d="M45.38257,0h-6.27954C24.39478,11.40869,11.23633,24.7207,0,39.56738v6.38135
			C12.63818,28.36963,27.96851,12.85278,45.38257,0z"/>
		<path fill="#7C7C7C" d="M287.75537,334h6.38965c14.9668-11.30225,28.37646-24.55835,39.85498-39.38354v-6.28638
			C321.08057,305.86816,305.4624,321.29956,287.75537,334z"/>
		<path fill="#7C7C7C" d="M334,44v-6.28638C323.08105,23.61133,310.41382,10.9314,296.32202,0h-6.27856
			C306.80908,12.37524,321.64038,27.22217,334,44z"/>
		<path fill="#7C7C7C" d="M334,31.61279v-5.93848C326.17261,16.42432,317.59033,7.83496,308.34717,0h-5.93164
			C314.00684,9.41406,324.5957,20.01318,334,31.61279z"/>
		<path fill="#7C7C7C" d="M29.06274,334h6.02979C22.08936,323.70288,10.30811,311.92969,0,298.93555v6.02295
			C8.75781,315.52319,18.49072,325.25098,29.06274,334z"/>
		<path fill="#7C7C7C" d="M300.34302,334h6.02979c10.00098-8.27661,19.24292-17.43628,27.6272-27.34424v-5.93848
			C324.03711,313.0061,312.74805,324.17651,300.34302,334z"/>
		<path fill="#7C7C7C" d="M33.02002,0h-5.93164C17.27979,8.31396,8.20752,17.4707,0,27.37158v6.02295
			C9.75684,21.0957,20.83691,9.89502,33.02002,0z"/>
		<path fill="#7C7C7C" d="M334,19.87256v-5.68311C329.48462,9.25317,324.75195,4.51904,319.81909,0h-5.677
			C321.17114,6.20117,327.8042,12.83887,334,19.87256z"/>
		<path fill="#7C7C7C" d="M312.24146,334h5.72754c5.60132-5.01978,10.95483-10.31006,16.03101-15.85938v-5.68311
			C327.24683,320.12427,319.97998,327.32715,312.24146,334z"/>
		<path fill="#7C7C7C" d="M21.30469,0h-5.67676C10.16357,5.0061,4.94995,10.27979,0,15.7959v5.72217
			C6.60425,13.86963,13.72827,6.68457,21.30469,0z"/>
		<path fill="#7C7C7C" d="M17.47778,334h5.72729C14.91382,326.84985,7.15552,319.09863,0,310.81201v5.72217
			C5.50488,322.6687,11.33984,328.49902,17.47778,334z"/>
		<path fill="#7C7C7C" d="M6.3645,334h5.52515C7.78369,330.18457,3.81787,326.22144,0,322.11792v5.52002
			C2.08105,329.79883,4.20239,331.92041,6.3645,334z"/>
		<path fill="#7C7C7C" d="M323.5791,334h5.52515c1.65698-1.59375,3.28613-3.21631,4.89575-4.85791v-5.44678
			C330.63843,327.2417,327.15894,330.67383,323.5791,334z"/>
		<path fill="#7C7C7C" d="M334,8.63477V3.18799c-1.05176-1.07275-2.11328-2.1355-3.18555-3.18799h-5.44165
			C328.32422,2.80151,331.20044,5.6814,334,8.63477z"/>
		<path fill="#7C7C7C" d="M10.09595,0H4.6543C3.08203,1.54346,1.52832,3.10522,0,4.69214v5.52002
			C3.26147,6.70654,6.62329,3.29614,10.09595,0z"/>
		<path fill="#7C7C7C" d="M0,333.05029V334h0.95166C0.63379,333.68408,0.31616,333.36816,0,333.05029z"/>
	</g>
</g>
<g id="Layer_3" display="none">
</g>
<g id="Layer_2" display="none">
</g>
</svg>
