<?xml version="1.0" encoding="utf-8"?>
<!-- Generator: Adobe Illustrator 21.1.0, SVG Export Plug-In . SVG Version: 6.00 Build 0)  -->
<svg version="1.2" baseProfile="tiny" xmlns="http://www.w3.org/2000/svg" xmlns:xlink="http://www.w3.org/1999/xlink" x="0px"
	 y="0px" viewBox="0 0 334 334" xml:space="preserve">
<g id="Layer_1">
	<g>
		<path fill="#818181" d="M334,307.00781v-7.74072C323.83057,312.12744,312.20679,323.78467,299.38428,334h7.71191
			C316.82739,325.7998,325.83276,316.76733,334,307.00781z"/>
		<path fill="#818181" d="M0,328.88477V334h5.10229C3.37598,332.32056,1.67383,330.61646,0,328.88477z"/>
		<path fill="#818181" d="M0,314.47485v7.28638C3.91089,325.99316,7.98047,330.07471,12.19849,334h7.26099
			C12.58008,327.89624,6.08008,321.37573,0,314.47485z"/>
		<path fill="#818181" d="M121.10498,0h-15.98267C56.79932,17.90869,18.27881,56.16406,0,104.30786v15.47388
			C16.61743,61.71118,62.77881,15.99951,121.10498,0z"/>
		<path fill="#818181" d="M167.0332,76.99707c-49.9043,0-90.50391,40.59961-90.50391,90.50391s40.59961,90.50488,90.50391,90.50488
			s90.50391-40.60059,90.50391-90.50488S216.9375,76.99707,167.0332,76.99707z M167.0332,253.1123
			c-47.20508,0-85.61035-38.40527-85.61035-85.61133c0-47.20508,38.40527-85.61035,85.61035-85.61035
			c47.20605,0,85.61133,38.40527,85.61133,85.61035C252.64453,214.70703,214.23926,253.1123,167.0332,253.1123z"/>
		<path fill="#818181" d="M0,299.22583v7.74268C8.17578,316.74316,17.19287,325.78882,26.93701,334h7.71191
			C21.81274,323.77368,10.17749,312.10254,0,299.22583z"/>
		<path fill="#818181" d="M0,264.6106v9.37866C15.37524,298.01562,35.79175,318.51733,59.74365,334h9.28442
			C40.52222,317.15918,16.69409,293.21387,0,264.6106z"/>
		<path fill="#818181" d="M0,282.79468v8.38403c12.06445,16.25,26.4353,30.68994,42.63257,42.82129h8.35449
			C31.10205,320.10278,13.81396,302.74097,0,282.79468z"/>
		<path fill="#818181" d="M334,119.78174v-15.47388C315.72119,56.16406,277.20068,17.90869,228.87769,0h-15.98267
			C271.22119,15.99951,317.38257,61.71118,334,119.78174z"/>
		<path fill="#818181" d="M20.58887,0h-7.31348C8.6709,4.23022,4.2439,8.64941,0,13.24146v7.28613
			C6.41284,13.24902,13.28931,6.3894,20.58887,0z"/>
		<path fill="#818181" d="M6.12866,0H0v6.11768C2.0061,4.04199,4.04736,2.00024,6.12866,0z"/>
		<path fill="#818181" d="M70.72217,0h-9.4043C36.68677,15.5957,15.71069,36.46289,0,61.01294v9.37866
			C17.0249,41.22168,41.46313,16.88599,70.72217,0z"/>
		<path fill="#818181" d="M0,243.41162v11.08521C17.68506,288.31396,45.33765,316.12158,79.03564,334h10.98071
			C50.27539,315.55127,18.19897,283.29053,0,243.41162z"/>
		<path fill="#818181" d="M334,91.59058V80.47754C315.98096,46.03906,287.62695,17.82788,253.07373,0h-11.27417
			C282.55029,18.26929,315.46826,50.98267,334,91.59058z"/>
		<path fill="#818181" d="M35.90234,0h-7.77979C17.92114,8.47363,8.50806,17.86255,0,28.03418v7.74219
			C10.50928,22.47998,22.56665,10.46167,35.90234,0z"/>
		<path fill="#818181" d="M52.43262,0h-8.42969C27.24829,12.3374,12.40186,27.11938,0,43.82349v8.38452
			C14.14795,31.77954,31.93921,14.06104,52.43262,0z"/>
		<path fill="#818181" d="M167.0166,106.34473c-33.71289,0-61.14062,27.43457-61.14062,61.15625
			c0,33.72266,27.42773,61.1582,61.14062,61.1582c33.72266,0,61.15723-27.43555,61.15723-61.1582
			C228.17383,133.7793,200.73926,106.34473,167.0166,106.34473z M167.0166,223.76562
			c-31.02344,0-56.26367-25.24023-56.26367-56.26465c0-31.02344,25.24023-56.26367,56.26367-56.26367
			s56.26367,25.24023,56.26367,56.26367C223.28027,198.52539,198.04004,223.76562,167.0166,223.76562z"/>
		<path fill="#818181" d="M167.0332,96.57324c-39.11914,0-70.94434,31.81836-70.94434,70.92773
			c0,39.11035,31.8252,70.92871,70.94434,70.92871c39.11035,0,70.92871-31.81836,70.92871-70.92871
			C237.96191,128.3916,206.14355,96.57324,167.0332,96.57324z M167.0166,233.55371c-36.41211,0-66.03516-29.63086-66.03516-66.05273
			c0-36.41992,29.62305-66.05078,66.03516-66.05078c36.4209,0,66.05176,29.63086,66.05176,66.05078
			C233.06836,203.92285,203.4375,233.55371,167.0166,233.55371z"/>
		<path fill="#818181" d="M167.0498,47.65039c-66.08594,0-119.85059,53.76465-119.85059,119.85059
			c0,66.08691,53.76465,119.85156,119.85059,119.85156c66.08691,0,119.85156-53.76465,119.85156-119.85156
			C286.90137,101.41504,233.13672,47.65039,167.0498,47.65039z M167.0498,282.45898
			c-63.39746,0-114.97461-51.57031-114.97461-114.95801S103.65234,52.54395,167.0498,52.54395
			c63.3877,0,114.95801,51.56934,114.95801,114.95703S230.4375,282.45898,167.0498,282.45898z"/>
		<path fill="#818181" d="M167.0498,57.43848c-60.69824,0-110.08008,49.37402-110.08008,110.0625
			c0,60.68945,49.38184,110.06348,110.08008,110.06348c60.68945,0,110.06348-49.37402,110.06348-110.06348
			C277.11328,106.8125,227.73926,57.43848,167.0498,57.43848z M167.0332,272.68848
			c-57.99121,0-105.16992-47.1875-105.16992-105.1875c0-57.99902,47.17871-105.18555,105.16992-105.18555
			c58,0,105.18652,47.18652,105.18652,105.18555C272.21973,225.50098,225.0332,272.68848,167.0332,272.68848z"/>
		<path fill="#818181" d="M167.0332,86.78516c-44.50684,0-80.71582,36.20898-80.71582,80.71582
			c0,44.50781,36.20898,80.7168,80.71582,80.7168c44.50781,0,80.7168-36.20898,80.7168-80.7168
			C247.75,122.99414,211.54102,86.78516,167.0332,86.78516z M167.0332,243.32422c-41.81738,0-75.83887-34.01465-75.83887-75.82324
			s34.02148-75.82227,75.83887-75.82227c41.80859,0,75.82324,34.01367,75.82324,75.82227S208.8418,243.32422,167.0332,243.32422z"/>
		<path fill="#818181" d="M167.0332,67.20996c-55.29199,0-100.27539,44.99023-100.27539,100.29102
			c0,55.30176,44.9834,100.29297,100.27539,100.29297c55.30176,0,100.29199-44.99121,100.29199-100.29297
			C267.3252,112.2002,222.33496,67.20996,167.0332,67.20996z M167.0332,262.90039c-52.60254,0-95.39844-42.7959-95.39844-95.39941
			c0-52.60254,42.7959-95.39844,95.39844-95.39844s95.39844,42.7959,95.39844,95.39844
			C262.43164,220.10449,219.63574,262.90039,167.0332,262.90039z"/>
		<circle fill="#818181" cx="167.00024" cy="167.50122" r="2.44678"/>
		<path fill="#818181" d="M167.0166,145.49609c-12.14355,0-22.02246,9.87109-22.02246,22.00488s9.87891,22.00586,22.02246,22.00586
			c12.13379,0,22.00586-9.87207,22.00586-22.00586S179.15039,145.49609,167.0166,145.49609z M167,184.63086
			c-9.43555,0-17.1123-7.68457-17.1123-17.12988c0-9.44434,7.67676-17.12891,17.1123-17.12891
			c9.44434,0,17.12891,7.68457,17.12891,17.12891C184.12891,176.94629,176.44434,184.63086,167,184.63086z"/>
		<path fill="#818181" d="M167,155.2666c-6.7373,0-12.21777,5.48828-12.21777,12.23438
			c0,6.74707,5.48047,12.23535,12.21777,12.23535c6.74609,0,12.23438-5.48828,12.23438-12.23535
			C179.23438,160.75488,173.74609,155.2666,167,155.2666z M167,174.84277c-4.04785,0-7.34082-3.29395-7.34082-7.3418
			s3.29297-7.34082,7.34082-7.34082s7.3418,3.29297,7.3418,7.34082S171.04785,174.84277,167,174.84277z"/>
		<path fill="#818181" d="M0,215.22021v15.47437C17.94531,277.96045,55.40161,315.69263,102.48901,334h15.10815
			C60.93262,317.15649,16.28296,272.12183,0,215.22021z"/>
		<path fill="#818181" d="M167.0166,116.13184c-28.3252,0-51.36914,23.04395-51.36914,51.36914
			c0,28.32617,23.04395,51.37012,51.36914,51.37012s51.36914-23.04395,51.36914-51.37012
			C218.38574,139.17578,195.3418,116.13184,167.0166,116.13184z M167.0166,213.97754
			c-25.62695,0-46.47559-20.84961-46.47559-46.47656s20.84863-46.47559,46.47559-46.47559s46.47656,20.84863,46.47656,46.47559
			S192.64355,213.97754,167.0166,213.97754z"/>
		<path fill="#818181" d="M167.0166,125.91992c-22.92773,0-41.58105,18.65332-41.58105,41.58105
			c0,22.92871,18.65332,41.58203,41.58105,41.58203c22.92871,0,41.58203-18.65332,41.58203-41.58203
			C208.59863,144.57324,189.94531,125.91992,167.0166,125.91992z M167.0166,204.18945
			c-20.22949,0-36.6875-16.45898-36.6875-36.68848s16.45801-36.6875,36.6875-36.6875s36.68848,16.45801,36.68848,36.6875
			S187.24609,204.18945,167.0166,204.18945z"/>
		<path fill="#818181" d="M167.0166,135.70801c-17.53125,0-31.79297,14.26172-31.79297,31.79297
			s14.26172,31.79395,31.79297,31.79395s31.79395-14.2627,31.79395-31.79395S184.54785,135.70801,167.0166,135.70801z
			 M167.0166,194.40137c-14.8418,0-26.91699-12.06738-26.91699-26.90039c0-14.83203,12.0752-26.89941,26.91699-26.89941
			c14.83301,0,26.90039,12.06738,26.90039,26.89941C193.91699,182.33398,181.84961,194.40137,167.0166,194.40137z"/>
		<path fill="#818181" d="M92.20044,0H80.93359C46.37402,17.83252,18.0166,46.05396,0,80.50537v11.08521
			C18.53174,50.98267,51.44971,18.26929,92.20044,0z"/>
		<path fill="#818181" d="M334,230.69458v-15.47437C317.71704,272.12183,273.06738,317.15649,216.40283,334h15.10815
			C278.59839,315.69263,316.05469,277.96045,334,230.69458z"/>
		<path fill="#818181" d="M334,70.36768v-9.38525C318.29297,36.44556,297.3252,15.58936,272.70605,0h-9.41992
			C292.53931,16.88135,316.97412,41.20825,334,70.36768z"/>
		<path fill="#818181" d="M334,274.01978v-9.38501c-16.69482,28.59253-40.51953,52.5293-69.01978,69.36523h9.30029
			C298.22021,318.52393,318.62817,298.03296,334,274.01978z"/>
		<path fill="#818181" d="M167.06641,8.51562c-87.67383,0-159.00195,71.32031-159.00195,158.98535
			S79.39258,326.4873,167.06641,326.4873c87.66504,0,158.98633-71.32129,158.98633-158.98633S254.73145,8.51562,167.06641,8.51562z
			 M167.06641,321.59375c-84.97559,0-154.10938-69.12598-154.10938-154.09277s69.13379-154.0918,154.10938-154.0918
			c84.9668,0,154.09277,69.125,154.09277,154.0918S252.0332,321.59375,167.06641,321.59375z"/>
		<path fill="#818181" d="M334,191.92407v-48.84619C323.11206,68.29346,263.00977,9.25708,187.71582,0h-41.43164
			C70.99023,9.25708,10.88794,68.29346,0,143.07788v48.84619C10.552,264.40186,67.33057,322.08325,139.36255,334h55.2749
			C266.66943,322.08325,323.448,264.40186,334,191.92407z M167.06641,331.38184c-90.37305,0-163.89648-73.5166-163.89648-163.88086
			c0-90.36328,73.52344-163.87988,163.89648-163.87988c90.36426,0,163.88086,73.5166,163.88086,163.87988
			C330.94727,257.86523,257.43066,331.38184,167.06641,331.38184z"/>
		<path fill="#818181" d="M334,328.93066c-1.65942,1.71606-3.34644,3.40479-5.05762,5.06934H334V328.93066z"/>
		<path fill="#818181" d="M334,291.22412V282.823c-13.80957,19.93433-31.08911,37.28638-50.96313,51.177h8.36377
			C307.58301,321.87988,321.94238,307.45557,334,291.22412z"/>
		<path fill="#818181" d="M334,321.81006v-7.29785c-6.07056,6.88721-12.55933,13.39502-19.42627,19.48779h7.27197
			C326.04785,330.08984,330.10254,326.02441,334,321.81006z"/>
		<path fill="#818181" d="M334,254.52441v-11.11279C315.80103,283.29053,283.72461,315.55127,243.98364,334h10.98804
			C288.66357,316.12646,316.31299,288.3291,334,254.52441z"/>
		<path fill="#818181" d="M167.06641,18.30371c-82.27734,0-149.21484,66.92969-149.21484,149.19727
			c0,82.26855,66.9375,149.19824,149.21484,149.19824c82.26855,0,149.19824-66.92969,149.19824-149.19824
			C316.26465,85.2334,249.33496,18.30371,167.06641,18.30371z M167.0498,311.82324
			c-79.56934,0-144.30469-64.74316-144.30469-144.32227S87.48047,23.17969,167.0498,23.17969
			c79.5791,0,144.32129,64.74219,144.32129,144.32129S246.62891,311.82324,167.0498,311.82324z"/>
		<path fill="#818181" d="M334,52.17969v-8.40161C321.60498,27.09253,306.76978,12.32642,290.03027,0h-8.43896
			C302.07373,14.05444,319.85645,31.76318,334,52.17969z"/>
		<path fill="#818181" d="M334,20.49023v-7.29736C329.76953,8.61841,325.35742,4.21533,320.7688,0h-7.32446
			C320.73145,6.37842,327.59668,13.22559,334,20.49023z"/>
		<path fill="#818181" d="M334,35.73535v-7.74023C325.50049,17.83838,316.09888,8.46289,305.91064,0h-7.77979
			C311.45264,10.45068,323.49854,22.45532,334,35.73535z"/>
		<path fill="#818181" d="M167.0498,28.07422c-76.87109,0-139.41016,62.54688-139.41016,139.42676
			c0,76.88086,62.53906,139.42773,139.41016,139.42773c76.87988,0,139.42676-62.54688,139.42676-139.42773
			C306.47656,90.62109,243.92969,28.07422,167.0498,28.07422z M167.0498,302.03516
			c-74.18164,0-134.5332-60.35156-134.5332-134.53418c0-74.18164,60.35156-134.5332,134.5332-134.5332
			c74.18262,0,134.53418,60.35156,134.53418,134.5332C301.58398,241.68359,241.23242,302.03516,167.0498,302.03516z"/>
		<path fill="#818181" d="M334,6.07178V0h-6.08423C329.98193,1.98535,332.00806,4.01172,334,6.07178z"/>
		<path fill="#818181" d="M167.0498,37.8623c-71.4834,0-129.63867,58.15527-129.63867,129.63867
			S95.56641,297.14062,167.0498,297.14062s129.63965-58.15625,129.63965-129.63965S238.5332,37.8623,167.0498,37.8623z
			 M167.0498,292.24707c-68.78418,0-124.74512-55.96094-124.74512-124.74609c0-68.78418,55.96094-124.74512,124.74512-124.74512
			c68.78516,0,124.74609,55.96094,124.74609,124.74512C291.7959,236.28613,235.83496,292.24707,167.0498,292.24707z"/>
		<path fill="#7E7E7E" d="M167,160.16016c-4.04785,0-7.34082,3.29297-7.34082,7.34082s3.29297,7.3418,7.34082,7.3418
			s7.3418-3.29395,7.3418-7.3418S171.04785,160.16016,167,160.16016z M167,169.94824c-1.34863,0-2.44629-1.09766-2.44629-2.44727
			c0-1.34863,1.09766-2.44629,2.44629-2.44629c1.34961,0,2.44727,1.09766,2.44727,2.44629
			C169.44727,168.85059,168.34961,169.94824,167,169.94824z"/>
		<path fill="#7E7E7E" d="M167,150.37207c-9.43555,0-17.1123,7.68457-17.1123,17.12891c0,9.44531,7.67676,17.12988,17.1123,17.12988
			c9.44434,0,17.12891-7.68457,17.12891-17.12988C184.12891,158.05664,176.44434,150.37207,167,150.37207z M167,179.73633
			c-6.7373,0-12.21777-5.48828-12.21777-12.23535c0-6.74609,5.48047-12.23438,12.21777-12.23438
			c6.74609,0,12.23438,5.48828,12.23438,12.23438C179.23438,174.24805,173.74609,179.73633,167,179.73633z"/>
		<path fill="#7E7E7E" d="M167.0166,140.60156c-14.8418,0-26.91699,12.06738-26.91699,26.89941
			c0,14.83301,12.0752,26.90039,26.91699,26.90039c14.83301,0,26.90039-12.06738,26.90039-26.90039
			C193.91699,152.66895,181.84961,140.60156,167.0166,140.60156z M167.0166,189.50684
			c-12.14355,0-22.02246-9.87207-22.02246-22.00586s9.87891-22.00488,22.02246-22.00488
			c12.13379,0,22.00586,9.87109,22.00586,22.00488S179.15039,189.50684,167.0166,189.50684z"/>
		<path fill="#7E7E7E" d="M167.0166,130.81348c-20.22949,0-36.6875,16.45801-36.6875,36.6875s16.45801,36.68848,36.6875,36.68848
			s36.68848-16.45898,36.68848-36.68848S187.24609,130.81348,167.0166,130.81348z M167.0166,199.29492
			c-17.53125,0-31.79297-14.2627-31.79297-31.79395s14.26172-31.79297,31.79297-31.79297s31.79395,14.26172,31.79395,31.79297
			S184.54785,199.29492,167.0166,199.29492z"/>
		<path fill="#7E7E7E" d="M167.0166,121.02539c-25.62695,0-46.47559,20.84863-46.47559,46.47559
			s20.84863,46.47656,46.47559,46.47656s46.47656-20.84961,46.47656-46.47656S192.64355,121.02539,167.0166,121.02539z
			 M167.0166,209.08301c-22.92773,0-41.58105-18.65332-41.58105-41.58203c0-22.92773,18.65332-41.58105,41.58105-41.58105
			c22.92871,0,41.58203,18.65332,41.58203,41.58105C208.59863,190.42969,189.94531,209.08301,167.0166,209.08301z"/>
		<path fill="#7E7E7E" d="M167.0166,111.2373c-31.02344,0-56.26367,25.24023-56.26367,56.26367
			c0,31.02441,25.24023,56.26465,56.26367,56.26465s56.26367-25.24023,56.26367-56.26465
			C223.28027,136.47754,198.04004,111.2373,167.0166,111.2373z M167.0166,218.87109c-28.3252,0-51.36914-23.04395-51.36914-51.37012
			c0-28.3252,23.04395-51.36914,51.36914-51.36914s51.36914,23.04395,51.36914,51.36914
			C218.38574,195.82715,195.3418,218.87109,167.0166,218.87109z"/>
		<path fill="#7E7E7E" d="M167.0166,101.4502c-36.41211,0-66.03516,29.63086-66.03516,66.05078
			c0,36.42188,29.62305,66.05273,66.03516,66.05273c36.4209,0,66.05176-29.63086,66.05176-66.05273
			C233.06836,131.08105,203.4375,101.4502,167.0166,101.4502z M167.0166,228.65918c-33.71289,0-61.14062-27.43555-61.14062-61.1582
			c0-33.72168,27.42773-61.15625,61.14062-61.15625c33.72266,0,61.15723,27.43457,61.15723,61.15625
			C228.17383,201.22363,200.73926,228.65918,167.0166,228.65918z"/>
		<path fill="#7E7E7E" d="M167.0332,91.67871c-41.81738,0-75.83887,34.01367-75.83887,75.82227s34.02148,75.82324,75.83887,75.82324
			c41.80859,0,75.82324-34.01465,75.82324-75.82324S208.8418,91.67871,167.0332,91.67871z M167.0332,238.42969
			c-39.11914,0-70.94434-31.81836-70.94434-70.92871c0-39.10938,31.8252-70.92773,70.94434-70.92773
			c39.11035,0,70.92871,31.81836,70.92871,70.92773C237.96191,206.61133,206.14355,238.42969,167.0332,238.42969z"/>
		<path fill="#7E7E7E" d="M167.0332,81.89062c-47.20508,0-85.61035,38.40527-85.61035,85.61035
			c0,47.20605,38.40527,85.61133,85.61035,85.61133c47.20605,0,85.61133-38.40527,85.61133-85.61133
			C252.64453,120.2959,214.23926,81.89062,167.0332,81.89062z M167.0332,248.21777c-44.50684,0-80.71582-36.20898-80.71582-80.7168
			c0-44.50684,36.20898-80.71582,80.71582-80.71582c44.50781,0,80.7168,36.20898,80.7168,80.71582
			C247.75,212.00879,211.54102,248.21777,167.0332,248.21777z"/>
		<path fill="#7E7E7E" d="M167.0332,72.10254c-52.60254,0-95.39844,42.7959-95.39844,95.39844
			c0,52.60352,42.7959,95.39941,95.39844,95.39941s95.39844-42.7959,95.39844-95.39941
			C262.43164,114.89844,219.63574,72.10254,167.0332,72.10254z M167.0332,258.00586c-49.9043,0-90.50391-40.60059-90.50391-90.50488
			s40.59961-90.50391,90.50391-90.50391s90.50391,40.59961,90.50391,90.50391S216.9375,258.00586,167.0332,258.00586z"/>
		<path fill="#7E7E7E" d="M167.0332,62.31543c-57.99121,0-105.16992,47.18652-105.16992,105.18555
			c0,58,47.17871,105.1875,105.16992,105.1875c58,0,105.18652-47.1875,105.18652-105.1875
			C272.21973,109.50195,225.0332,62.31543,167.0332,62.31543z M167.0332,267.79395
			c-55.29199,0-100.27539-44.99121-100.27539-100.29297c0-55.30078,44.9834-100.29102,100.27539-100.29102
			c55.30176,0,100.29199,44.99023,100.29199,100.29102C267.3252,222.80273,222.33496,267.79395,167.0332,267.79395z"/>
		<path fill="#7E7E7E" d="M167.0498,52.54395c-63.39746,0-114.97461,51.56934-114.97461,114.95703
			s51.57715,114.95801,114.97461,114.95801c63.3877,0,114.95801-51.57031,114.95801-114.95801S230.4375,52.54395,167.0498,52.54395z
			 M167.0498,277.56445c-60.69824,0-110.08008-49.37402-110.08008-110.06348c0-60.68848,49.38184-110.0625,110.08008-110.0625
			c60.68945,0,110.06348,49.37402,110.06348,110.0625C277.11328,228.19043,227.73926,277.56445,167.0498,277.56445z"/>
		<path fill="#7E7E7E" d="M167.0498,42.75586c-68.78418,0-124.74512,55.96094-124.74512,124.74512
			c0,68.78516,55.96094,124.74609,124.74512,124.74609c68.78516,0,124.74609-55.96094,124.74609-124.74609
			C291.7959,98.7168,235.83496,42.75586,167.0498,42.75586z M167.0498,287.35254
			c-66.08594,0-119.85059-53.76465-119.85059-119.85156c0-66.08594,53.76465-119.85059,119.85059-119.85059
			c66.08691,0,119.85156,53.76465,119.85156,119.85059C286.90137,233.58789,233.13672,287.35254,167.0498,287.35254z"/>
		<path fill="#7E7E7E" d="M167.0498,32.96777c-74.18164,0-134.5332,60.35156-134.5332,134.5332
			c0,74.18262,60.35156,134.53418,134.5332,134.53418c74.18262,0,134.53418-60.35156,134.53418-134.53418
			C301.58398,93.31934,241.23242,32.96777,167.0498,32.96777z M167.0498,297.14062
			c-71.4834,0-129.63867-58.15625-129.63867-129.63965S95.56641,37.8623,167.0498,37.8623s129.63965,58.15527,129.63965,129.63867
			S238.5332,297.14062,167.0498,297.14062z"/>
		<path fill="#7E7E7E" d="M167.0498,23.17969c-79.56934,0-144.30469,64.74219-144.30469,144.32129
			S87.48047,311.82324,167.0498,311.82324c79.5791,0,144.32129-64.74316,144.32129-144.32227S246.62891,23.17969,167.0498,23.17969z
			 M167.0498,306.92871c-76.87109,0-139.41016-62.54688-139.41016-139.42773c0-76.87988,62.53906-139.42676,139.41016-139.42676
			c76.87988,0,139.42676,62.54688,139.42676,139.42676C306.47656,244.38184,243.92969,306.92871,167.0498,306.92871z"/>
		<path fill="#7E7E7E" d="M167.06641,13.40918c-84.97559,0-154.10938,69.125-154.10938,154.0918
			s69.13379,154.09277,154.10938,154.09277c84.9668,0,154.09277-69.12598,154.09277-154.09277S252.0332,13.40918,167.06641,13.40918
			z M167.06641,316.69922c-82.27734,0-149.21484-66.92969-149.21484-149.19824c0-82.26758,66.9375-149.19727,149.21484-149.19727
			c82.26855,0,149.19824,66.92969,149.19824,149.19727C316.26465,249.76953,249.33496,316.69922,167.06641,316.69922z"/>
		<path fill="#7E7E7E" d="M167.06641,3.62109c-90.37305,0-163.89648,73.5166-163.89648,163.87988
			c0,90.36426,73.52344,163.88086,163.89648,163.88086c90.36426,0,163.88086-73.5166,163.88086-163.88086
			C330.94727,77.1377,257.43066,3.62109,167.06641,3.62109z M167.06641,326.4873
			c-87.67383,0-159.00195-71.32129-159.00195-158.98633S79.39258,8.51562,167.06641,8.51562
			c87.66504,0,158.98633,71.32031,158.98633,158.98535S254.73145,326.4873,167.06641,326.4873z"/>
		<path fill="#7E7E7E" d="M334,215.22021v-23.29614C323.448,264.40186,266.66943,322.08325,194.63745,334h21.76538
			C273.06738,317.15649,317.71704,272.12183,334,215.22021z"/>
		<path fill="#7E7E7E" d="M146.28418,0h-25.1792C62.77881,15.99951,16.61743,61.71118,0,119.78174v23.29614
			C10.88794,68.29346,70.99023,9.25708,146.28418,0z"/>
		<path fill="#7E7E7E" d="M334,143.07788v-23.29614C317.38257,61.71118,271.22119,15.99951,212.89502,0h-25.1792
			C263.00977,9.25708,323.11206,68.29346,334,143.07788z"/>
		<path fill="#7E7E7E" d="M0,191.92407v23.29614C16.28296,272.12183,60.93262,317.15649,117.59717,334h21.76538
			C67.33057,322.08325,10.552,264.40186,0,191.92407z"/>
		<path fill="#7E7E7E" d="M334,243.41162v-12.71704C316.05469,277.96045,278.59839,315.69263,231.51099,334h12.47266
			C283.72461,315.55127,315.80103,283.29053,334,243.41162z"/>
		<path fill="#7E7E7E" d="M105.12231,0H92.20044C51.44971,18.26929,18.53174,50.98267,0,91.59058v12.71729
			C18.27881,56.16406,56.79932,17.90869,105.12231,0z"/>
		<path fill="#7E7E7E" d="M0,230.69458v12.71704C18.19897,283.29053,50.27539,315.55127,90.01636,334h12.47266
			C55.40161,315.69263,17.94531,277.96045,0,230.69458z"/>
		<path fill="#7E7E7E" d="M334,104.30786V91.59058C315.46826,50.98267,282.55029,18.26929,241.79956,0h-12.92188
			C277.20068,17.90869,315.72119,56.16406,334,104.30786z"/>
		<path fill="#7E7E7E" d="M334,80.47754V70.36768C316.97412,41.20825,292.53931,16.88135,263.28613,0h-10.2124
			C287.62695,17.82788,315.98096,46.03906,334,80.47754z"/>
		<path fill="#7E7E7E" d="M334,264.63477v-10.11035C316.31299,288.3291,288.66357,316.12646,254.97168,334h10.00854
			C293.48047,317.16406,317.30518,293.22729,334,264.63477z"/>
		<path fill="#7E7E7E" d="M0,254.49683v10.11377C16.69409,293.21387,40.52222,317.15918,69.02808,334h10.00757
			C45.33765,316.12158,17.68506,288.31396,0,254.49683z"/>
		<path fill="#7E7E7E" d="M80.93359,0H70.72217C41.46313,16.88599,17.0249,41.22168,0,70.3916v10.11377
			C18.0166,46.05396,46.37402,17.83252,80.93359,0z"/>
		<path fill="#7E7E7E" d="M334,60.98242v-8.80273C319.85645,31.76318,302.07373,14.05444,281.59131,0h-8.88525
			C297.3252,15.58936,318.29297,36.44556,334,60.98242z"/>
		<path fill="#7E7E7E" d="M334,282.823v-8.80322C318.62817,298.03296,298.22021,318.52393,274.28052,334h8.75635
			C302.91089,320.10938,320.19043,302.75732,334,282.823z"/>
		<path fill="#7E7E7E" d="M0,273.98926v8.80542C13.81396,302.74097,31.10205,320.10278,50.98706,334h8.75659
			C35.79175,318.51733,15.37524,298.01562,0,273.98926z"/>
		<path fill="#7E7E7E" d="M61.31787,0h-8.88525C31.93921,14.06104,14.14795,31.77954,0,52.20801v8.80493
			C15.71069,36.46289,36.68677,15.5957,61.31787,0z"/>
		<path fill="#7E7E7E" d="M44.00293,0h-8.10059C22.56665,10.46167,10.50928,22.47998,0,35.77637v8.04712
			C12.40186,27.11938,27.24829,12.3374,44.00293,0z"/>
		<path fill="#7E7E7E" d="M334,299.26709v-8.04297C321.94238,307.45557,307.58301,321.87988,291.40063,334h7.98364
			C312.20679,323.78467,323.83057,312.12744,334,299.26709z"/>
		<path fill="#7E7E7E" d="M334,43.77808v-8.04272C323.49854,22.45532,311.45264,10.45068,298.13086,0h-8.10059
			C306.76978,12.32642,321.60498,27.09253,334,43.77808z"/>
		<path fill="#7E7E7E" d="M0,291.17871v8.04712C10.17749,312.10254,21.81274,323.77368,34.64893,334h7.98364
			C26.4353,321.86865,12.06445,307.42871,0,291.17871z"/>
		<path fill="#7E7E7E" d="M334,314.51221v-7.50439c-8.16724,9.75952-17.17261,18.79199-26.90381,26.99219h7.47754
			C321.44067,327.90723,327.92944,321.39941,334,314.51221z"/>
		<path fill="#7E7E7E" d="M28.12256,0h-7.53369C13.28931,6.3894,6.41284,13.24902,0,20.52759v7.50659
			C8.50806,17.86255,17.92114,8.47363,28.12256,0z"/>
		<path fill="#7E7E7E" d="M0,306.96851v7.50635C6.08008,321.37573,12.58008,327.89624,19.45947,334h7.47754
			C17.19287,325.78882,8.17578,316.74316,0,306.96851z"/>
		<path fill="#7E7E7E" d="M334,27.99512v-7.50488C327.59668,13.22559,320.73145,6.37842,313.44434,0h-7.53369
			C316.09888,8.46289,325.50049,17.83838,334,27.99512z"/>
		<path fill="#7E7E7E" d="M334,328.93066v-7.12061c-3.89746,4.21436-7.95215,8.27979-12.1543,12.18994h7.09668
			C330.65356,332.33545,332.34058,330.64673,334,328.93066z"/>
		<path fill="#7E7E7E" d="M13.27539,0H6.12866C4.04736,2.00024,2.0061,4.04199,0,6.11768v7.12378
			C4.2439,8.64941,8.6709,4.23022,13.27539,0z"/>
		<path fill="#7E7E7E" d="M0,321.76123v7.12354c1.67383,1.73169,3.37598,3.43579,5.10229,5.11523h7.09619
			C7.98047,330.07471,3.91089,325.99316,0,321.76123z"/>
		<path fill="#7E7E7E" d="M334,13.19287V6.07178C332.00806,4.01172,329.98193,1.98535,327.91577,0h-7.14697
			C325.35742,4.21533,329.76953,8.61841,334,13.19287z"/>
	</g>
</g>
<g id="Layer_3" display="none">
</g>
<g id="Layer_2" display="none">
</g>
</svg>
