<?xml version="1.0" encoding="utf-8"?>
<!-- Generator: Adobe Illustrator 21.1.0, SVG Export Plug-In . SVG Version: 6.00 Build 0)  -->
<svg version="1.2" baseProfile="tiny" xmlns="http://www.w3.org/2000/svg" xmlns:xlink="http://www.w3.org/1999/xlink" x="0px"
	 y="0px" viewBox="0 0 334 334" xml:space="preserve">
<g id="Layer_1">
	<g>
		<path fill="#ADADAD" d="M166.33154,14.67773c-84.2666,0-152.82275,68.55664-152.82275,152.82324
			s68.55615,152.82227,152.82275,152.82227c84.26709,0,152.82324-68.55566,152.82324-152.82227
			S250.59863,14.67773,166.33154,14.67773z M166.33154,309.78418c-78.45508,0-142.28271-63.82812-142.28271-142.2832
			s63.82764-142.2832,142.28271-142.2832c78.45557,0,142.2832,63.82812,142.2832,142.2832S244.78711,309.78418,166.33154,309.78418z
			"/>
		<path fill="#ADADAD" d="M47.36749,0H30.01935C19.07495,8.92334,9.01459,18.89014,0,29.75684v17.17773
			C13.14502,28.8501,29.15247,12.97437,47.36749,0z"/>
		<path fill="#ADADAD" d="M166.33154,141.15137c-14.52881,0-26.34912,11.82031-26.34912,26.34961
			c0,14.52832,11.82031,26.34863,26.34912,26.34863s26.34912-11.82031,26.34912-26.34863
			C192.68066,152.97168,180.86035,141.15137,166.33154,141.15137z M166.33154,183.30957
			c-8.71729,0-15.80908-7.0918-15.80908-15.80859c0-8.71777,7.0918-15.80957,15.80908-15.80957s15.80908,7.0918,15.80908,15.80957
			C182.14062,176.21777,175.04883,183.30957,166.33154,183.30957z"/>
		<path fill="#ADADAD" d="M166.33154,120.07227c-26.15186,0-47.42773,21.27637-47.42773,47.42871
			c0,26.15137,21.27588,47.42773,47.42773,47.42773s47.42822-21.27637,47.42822-47.42773
			C213.75977,141.34863,192.4834,120.07227,166.33154,120.07227z M166.33154,204.38867
			c-20.34033,0-36.88818-16.54785-36.88818-36.8877c0-20.34082,16.54785-36.88867,36.88818-36.88867
			s36.88818,16.54785,36.88818,36.88867C203.21973,187.84082,186.67188,204.38867,166.33154,204.38867z"/>
		<path fill="#ADADAD" d="M334,303.60522v-17.37817C320.93958,304.61743,304.92664,320.76685,286.66803,334h17.20935
			C314.89026,324.88623,324.97913,314.6969,334,303.60522z"/>
		<path fill="#ADADAD" d="M334,213.67383v-92.3457C317.83386,62.6936,271.66876,16.37561,213.1203,0h-93.57727
			C62.5365,15.94434,17.26721,60.27368,0,116.72095v101.56006C16.91943,273.59119,60.72595,317.26282,116.11481,334h100.43372
			C273.46643,316.8009,318.15088,271.15845,334,213.67383z M166.33154,330.8623c-90.07812,0-163.36182-73.2832-163.36182-163.36133
			S76.25342,4.13867,166.33154,4.13867c90.07861,0,163.3623,73.28418,163.3623,163.3623S256.41016,330.8623,166.33154,330.8623z"/>
		<path fill="#ADADAD" d="M334,266.91443v-22.60681c-18.04175,39.22827-49.45081,71.0835-88.36249,89.69238h22.06378
			C294.88538,317.38818,317.69763,294.30518,334,266.91443z"/>
		<path fill="#ADADAD" d="M0,247.16553v21.97363C16.20258,295.55701,38.51575,317.83911,64.96179,334h22.06409
			C49.06244,315.8446,18.23456,285.08398,0,247.16553z"/>
		<path fill="#ADADAD" d="M166.33154,98.99414c-37.7749,0-68.50684,30.73242-68.50684,68.50684s30.73193,68.50684,68.50684,68.50684
			s68.50732-30.73242,68.50732-68.50684S204.10645,98.99414,166.33154,98.99414z M166.33154,225.46777
			c-31.96289,0-57.9668-26.00391-57.9668-57.9668c0-31.96387,26.00391-57.96777,57.9668-57.96777
			c31.96338,0,57.96729,26.00391,57.96729,57.96777C224.29883,199.46387,198.29492,225.46777,166.33154,225.46777z"/>
		<path fill="#ADADAD" d="M334,90.69434V68.0874C317.36511,40.13794,293.94733,16.68066,266.02808,0h-22.53247
			C283.39484,18.4541,315.62878,50.74951,334,90.69434z"/>
		<path fill="#ADADAD" d="M334,319.77502c-4.49896,4.94934-9.22296,9.68921-14.13806,14.22498H334V319.77502z"/>
		<path fill="#ADADAD" d="M166.33154,77.91504c-49.39795,0-89.58594,40.18848-89.58594,89.58594
			s40.18799,89.58594,89.58594,89.58594s89.58594-40.18848,89.58594-89.58594S215.72949,77.91504,166.33154,77.91504z
			 M166.33154,246.54688c-43.58594,0-79.0459-35.45996-79.0459-79.0459s35.45996-79.0459,79.0459-79.0459
			c43.58643,0,79.04639,35.45996,79.04639,79.0459S209.91797,246.54688,166.33154,246.54688z"/>
		<path fill="#ADADAD" d="M166.33154,35.75684c-72.64355,0-131.74365,59.10059-131.74365,131.74414
			s59.1001,131.74414,131.74365,131.74414c72.64404,0,131.74414-59.10059,131.74414-131.74414
			S238.97559,35.75684,166.33154,35.75684z M166.33154,288.70508c-66.83252,0-121.2041-54.37207-121.2041-121.2041
			s54.37158-121.2041,121.2041-121.2041s121.2041,54.37207,121.2041,121.2041S233.16406,288.70508,166.33154,288.70508z"/>
		<path fill="#ADADAD" d="M13.87708,0H0v13.79053C4.42957,9.00073,9.05396,4.3938,13.87708,0z"/>
		<path fill="#ADADAD" d="M334,48.77466V31.39661C324.6449,19.8938,314.13477,9.36902,302.64374,0h-17.34814
			C304.12836,13.41443,320.61151,29.92224,334,48.77466z"/>
		<circle fill="#ADADAD" cx="166.33154" cy="167.50073" r="5.27002"/>
		<path fill="#ADADAD" d="M0,288.06714V305.245C8.67645,315.70398,18.31616,325.33594,28.78571,334h17.20935
			C28.3504,321.21191,12.81201,305.69336,0,288.06714z"/>
		<path fill="#ADADAD" d="M166.33154,56.83594c-61.021,0-110.66504,49.64453-110.66504,110.66504
			s49.64404,110.66504,110.66504,110.66504s110.66504-49.64453,110.66504-110.66504S227.35254,56.83594,166.33154,56.83594z
			 M166.33154,267.62598c-55.20947,0-100.125-44.91602-100.125-100.125s44.91553-100.125,100.125-100.125
			s100.125,44.91602,100.125,100.125S221.54102,267.62598,166.33154,267.62598z"/>
		<path fill="#ADADAD" d="M334,15.22668V0h-15.21399C324.09271,4.83423,329.17139,9.91479,334,15.22668z"/>
		<path fill="#ADADAD" d="M0,321.21118V334h12.80115C8.3667,329.90784,4.09686,325.64124,0,321.21118z"/>
		<path fill="#ADADAD" d="M89.16779,0H66.63501C39.45862,16.23682,16.5423,38.89087,0,65.86255v21.97388
			C18.57587,49.20801,50.22351,18.01245,89.16779,0z"/>
		<path fill="#525252" d="M166.33154,151.69141c-8.71729,0-15.80908,7.0918-15.80908,15.80957
			c0,8.7168,7.0918,15.80859,15.80908,15.80859s15.80908-7.0918,15.80908-15.80859
			C182.14062,158.7832,175.04883,151.69141,166.33154,151.69141z M166.33154,172.77051c-2.90576,0-5.27002-2.36426-5.27002-5.26953
			c0-2.90625,2.36426-5.27051,5.27002-5.27051s5.27002,2.36426,5.27002,5.27051
			C171.60156,170.40625,169.2373,172.77051,166.33154,172.77051z"/>
		<path fill="#525252" d="M166.33154,130.6123c-20.34033,0-36.88818,16.54785-36.88818,36.88867
			c0,20.33984,16.54785,36.8877,36.88818,36.8877s36.88818-16.54785,36.88818-36.8877
			C203.21973,147.16016,186.67188,130.6123,166.33154,130.6123z M166.33154,193.84961
			c-14.52881,0-26.34912-11.82031-26.34912-26.34863c0-14.5293,11.82031-26.34961,26.34912-26.34961
			s26.34912,11.82031,26.34912,26.34961C192.68066,182.0293,180.86035,193.84961,166.33154,193.84961z"/>
		<path fill="#525252" d="M166.33154,109.5332c-31.96289,0-57.9668,26.00391-57.9668,57.96777
			c0,31.96289,26.00391,57.9668,57.9668,57.9668c31.96338,0,57.96729-26.00391,57.96729-57.9668
			C224.29883,135.53711,198.29492,109.5332,166.33154,109.5332z M166.33154,214.92871
			c-26.15186,0-47.42773-21.27637-47.42773-47.42773c0-26.15234,21.27588-47.42871,47.42773-47.42871
			s47.42822,21.27637,47.42822,47.42871C213.75977,193.65234,192.4834,214.92871,166.33154,214.92871z"/>
		<path fill="#525252" d="M166.33154,88.45508c-43.58594,0-79.0459,35.45996-79.0459,79.0459s35.45996,79.0459,79.0459,79.0459
			c43.58643,0,79.04639-35.45996,79.04639-79.0459S209.91797,88.45508,166.33154,88.45508z M166.33154,236.00781
			c-37.7749,0-68.50684-30.73242-68.50684-68.50684s30.73193-68.50684,68.50684-68.50684s68.50732,30.73242,68.50732,68.50684
			S204.10645,236.00781,166.33154,236.00781z"/>
		<path fill="#525252" d="M166.33154,67.37598c-55.20947,0-100.125,44.91602-100.125,100.125s44.91553,100.125,100.125,100.125
			s100.125-44.91602,100.125-100.125S221.54102,67.37598,166.33154,67.37598z M166.33154,257.08691
			c-49.39795,0-89.58594-40.18848-89.58594-89.58594s40.18799-89.58594,89.58594-89.58594s89.58594,40.18848,89.58594,89.58594
			S215.72949,257.08691,166.33154,257.08691z"/>
		<path fill="#525252" d="M166.33154,46.29688c-66.83252,0-121.2041,54.37207-121.2041,121.2041
			s54.37158,121.2041,121.2041,121.2041s121.2041-54.37207,121.2041-121.2041S233.16406,46.29688,166.33154,46.29688z
			 M166.33154,278.16602c-61.021,0-110.66504-49.64453-110.66504-110.66504S105.31055,56.83594,166.33154,56.83594
			s110.66504,49.64453,110.66504,110.66504S227.35254,278.16602,166.33154,278.16602z"/>
		<path fill="#525252" d="M166.33154,25.21777c-78.45508,0-142.28271,63.82812-142.28271,142.2832
			s63.82764,142.2832,142.28271,142.2832c78.45557,0,142.2832-63.82812,142.2832-142.2832S244.78711,25.21777,166.33154,25.21777z
			 M166.33154,299.24512c-72.64355,0-131.74365-59.10059-131.74365-131.74414S93.68799,35.75684,166.33154,35.75684
			c72.64404,0,131.74414,59.10059,131.74414,131.74414S238.97559,299.24512,166.33154,299.24512z"/>
		<path fill="#525252" d="M166.33154,4.13867c-90.07812,0-163.36182,73.28418-163.36182,163.3623
			S76.25342,330.8623,166.33154,330.8623c90.07861,0,163.3623-73.2832,163.3623-163.36133S256.41016,4.13867,166.33154,4.13867z
			 M166.33154,320.32324c-84.2666,0-152.82275-68.55566-152.82275-152.82227S82.06494,14.67773,166.33154,14.67773
			c84.26709,0,152.82324,68.55664,152.82324,152.82324S250.59863,320.32324,166.33154,320.32324z"/>
		<path fill="#525252" d="M334,121.32812V90.69434C315.62878,50.74951,283.39484,18.4541,243.49561,0H213.1203
			C271.66876,16.37561,317.83386,62.6936,334,121.32812z"/>
		<path fill="#525252" d="M0,218.28101v28.88452C18.23456,285.08398,49.06244,315.8446,87.02588,334h29.08893
			C60.72595,317.26282,16.91943,273.59119,0,218.28101z"/>
		<path fill="#525252" d="M334,244.30762v-30.63379C318.15088,271.15845,273.46643,316.8009,216.54852,334h29.08899
			C284.54919,315.39111,315.95825,283.53589,334,244.30762z"/>
		<path fill="#525252" d="M119.54303,0H89.16779C50.22351,18.01245,18.57587,49.20801,0,87.83643v28.88452
			C17.26721,60.27368,62.5365,15.94434,119.54303,0z"/>
		<path fill="#525252" d="M0,269.13916v18.92798C12.81201,305.69336,28.3504,321.21191,45.99506,334h18.96674
			C38.51575,317.83911,16.20258,295.55701,0,269.13916z"/>
		<path fill="#525252" d="M334,68.0874V48.77466C320.61151,29.92224,304.12836,13.41443,285.29559,0h-19.26752
			C293.94733,16.68066,317.36511,40.13794,334,68.0874z"/>
		<path fill="#525252" d="M334,286.22705v-19.31262C317.69763,294.30518,294.88538,317.38818,267.70129,334h18.96674
			C304.92664,320.76685,320.93958,304.61743,334,286.22705z"/>
		<path fill="#525252" d="M66.63501,0H47.36749C29.15247,12.97437,13.14502,28.8501,0,46.93457v18.92798
			C16.5423,38.89087,39.45862,16.23682,66.63501,0z"/>
		<path fill="#525252" d="M0,305.245v15.96619C4.09686,325.64124,8.3667,329.90784,12.80115,334h15.98456
			C18.31616,325.33594,8.67645,315.70398,0,305.245z"/>
		<path fill="#525252" d="M30.01935,0H13.87708C9.05396,4.3938,4.42957,9.00073,0,13.79053v15.96631
			C9.01459,18.89014,19.07495,8.92334,30.01935,0z"/>
		<path fill="#525252" d="M334,319.77502v-16.1698C324.97913,314.6969,314.89026,324.88623,303.87738,334h15.98456
			C324.77704,329.46423,329.50104,324.72437,334,319.77502z"/>
		<path fill="#525252" d="M334,31.39661V15.22668C329.17139,9.91479,324.09271,4.83423,318.78601,0h-16.14227
			C314.13477,9.36902,324.6449,19.8938,334,31.39661z"/>
	</g>
</g>
<g id="Layer_3" display="none">
</g>
<g id="Layer_2" display="none">
</g>
</svg>
