<?xml version="1.0" encoding="utf-8"?>
<!-- Generator: Adobe Illustrator 21.1.0, SVG Export Plug-In . SVG Version: 6.00 Build 0)  -->
<svg version="1.2" baseProfile="tiny" xmlns="http://www.w3.org/2000/svg" xmlns:xlink="http://www.w3.org/1999/xlink" x="0px"
	 y="0px" viewBox="0 0 334 334" xml:space="preserve">
<g id="Layer_1">
	<g>
		<path fill="#CCCCCC" d="M334,265.30353v-61.25317C319.75684,268.9201,268.42957,320.04877,203.45227,334h61.73615
			C293.5426,317.32874,317.28198,293.62701,334,265.30353z"/>
		<path fill="#CCCCCC" d="M167.66797,110.73633c-31.30908,0-56.78125,25.46436-56.78125,56.76465
			s25.47217,56.76465,56.78125,56.76465c31.30029,0,56.76465-25.46436,56.76465-56.76465S198.96826,110.73633,167.66797,110.73633z
			 M167.66797,201.5498c-18.78369,0-34.06543-15.27441-34.06543-34.04883s15.28174-34.04883,34.06543-34.04883
			c18.77441,0,34.04883,15.27441,34.04883,34.04883S186.44238,201.5498,167.66797,201.5498z"/>
		<path fill="#CCCCCC" d="M0,197.37415v65.6463C16.77759,292.35565,41.03326,316.88184,70.14752,334h61.73615
			C64.69171,319.57324,12.08575,265.3949,0,197.37415z"/>
		<path fill="#CCCCCC" d="M334,30.30054V0h-30.57892C314.58655,9.06653,324.83966,19.21472,334,30.30054z"/>
		<path fill="#CCCCCC" d="M304.66455,334H334v-29.29858C325.17865,315.37695,315.35101,325.19141,304.66455,334z"/>
		<path fill="#CCCCCC" d="M167.66797,19.90625c-81.38379,0-147.59473,66.21094-147.59473,147.59473
			S86.28418,315.0957,167.66797,315.0957S315.2627,248.88477,315.2627,167.50098S249.05176,19.90625,167.66797,19.90625z
			 M167.66797,292.37988c-68.86768,0-124.89551-56.02051-124.89551-124.87891S98.80029,42.62207,167.66797,42.62207
			c68.8584,0,124.87891,56.02051,124.87891,124.87891S236.52637,292.37988,167.66797,292.37988z"/>
		<path fill="#CCCCCC" d="M167.66797,65.32129c-56.35107,0-102.19629,45.8374-102.19629,102.17969
			s45.84521,102.17969,102.19629,102.17969c56.34229,0,102.17969-45.8374,102.17969-102.17969
			S224.01025,65.32129,167.66797,65.32129z M167.66797,246.96484c-43.82568,0-79.48047-35.64746-79.48047-79.46387
			s35.65479-79.46387,79.48047-79.46387c43.81641,0,79.46387,35.64746,79.46387,79.46387S211.48438,246.96484,167.66797,246.96484z"
			/>
		<path fill="#CCCCCC" d="M167.66797,156.15137c-6.26758,0-11.36621,5.09131-11.36621,11.34961s5.09863,11.34961,11.36621,11.34961
			c6.2583,0,11.34961-5.09131,11.34961-11.34961S173.92627,156.15137,167.66797,156.15137z"/>
		<path fill="#CCCCCC" d="M31.91486,0H0v31.95508C9.49927,20.22742,20.1991,9.51337,31.91486,0z"/>
		<path fill="#CCCCCC" d="M0,303.04688V334h30.67139C19.43799,324.7406,9.16425,314.3609,0,303.04688z"/>
		<path fill="#CCCCCC" d="M334,130.9516V69.69843C316.94727,40.80786,292.59497,16.71674,263.48584,0h-65.04401
			C265.78113,12.34155,319.39252,64.42261,334,130.9516z"/>
		<path fill="#CCCCCC" d="M136.8941,0H71.8501C41.97595,17.15607,17.10474,42.07428,0,71.98151v65.6463
			C12.38464,67.92462,67.31689,12.75171,136.8941,0z"/>
		<path fill="#333333" d="M167.66797,133.45215c-18.78369,0-34.06543,15.27441-34.06543,34.04883
			s15.28174,34.04883,34.06543,34.04883c18.77441,0,34.04883-15.27441,34.04883-34.04883S186.44238,133.45215,167.66797,133.45215z
			 M167.66797,178.85059c-6.26758,0-11.36621-5.09131-11.36621-11.34961s5.09863-11.34961,11.36621-11.34961
			c6.2583,0,11.34961,5.09131,11.34961,11.34961S173.92627,178.85059,167.66797,178.85059z"/>
		<path fill="#333333" d="M167.66797,88.03711c-43.82568,0-79.48047,35.64746-79.48047,79.46387
			s35.65479,79.46387,79.48047,79.46387c43.81641,0,79.46387-35.64746,79.46387-79.46387S211.48438,88.03711,167.66797,88.03711z
			 M167.66797,224.26562c-31.30908,0-56.78125-25.46436-56.78125-56.76465s25.47217-56.76465,56.78125-56.76465
			c31.30029,0,56.76465,25.46436,56.76465,56.76465S198.96826,224.26562,167.66797,224.26562z"/>
		<path fill="#333333" d="M167.66797,42.62207c-68.86768,0-124.89551,56.02051-124.89551,124.87891
			s56.02783,124.87891,124.89551,124.87891c68.8584,0,124.87891-56.02051,124.87891-124.87891
			S236.52637,42.62207,167.66797,42.62207z M167.66797,269.68066c-56.35107,0-102.19629-45.8374-102.19629-102.17969
			S111.31689,65.32129,167.66797,65.32129c56.34229,0,102.17969,45.8374,102.17969,102.17969
			S224.01025,269.68066,167.66797,269.68066z"/>
		<path fill="#333333" d="M334,204.05035V130.9516C319.39252,64.42261,265.78113,12.34155,198.44183,0H136.8941
			C67.31689,12.75171,12.38464,67.92462,0,137.62781v59.74634C12.08575,265.3949,64.69171,319.57324,131.88367,334h71.5686
			C268.42957,320.04877,319.75684,268.9201,334,204.05035z M167.66797,315.0957c-81.38379,0-147.59473-66.21094-147.59473-147.59473
			S86.28418,19.90625,167.66797,19.90625S315.2627,86.11719,315.2627,167.50098S249.05176,315.0957,167.66797,315.0957z"/>
		<path fill="#333333" d="M334,304.70142v-39.39789C317.28198,293.62701,293.5426,317.32874,265.18842,334h39.47614
			C315.35101,325.19141,325.17865,315.37695,334,304.70142z"/>
		<path fill="#333333" d="M334,69.69843V30.30054C324.83966,19.21472,314.58655,9.06653,303.42108,0h-39.93524
			C292.59497,16.71674,316.94727,40.80786,334,69.69843z"/>
		<path fill="#333333" d="M71.8501,0H31.91486C20.1991,9.51337,9.49927,20.22742,0,31.95508v40.02643
			C17.10474,42.07428,41.97595,17.15607,71.8501,0z"/>
		<path fill="#333333" d="M0,263.02045v40.02643C9.16425,314.3609,19.43799,324.7406,30.67139,334h39.47614
			C41.03326,316.88184,16.77759,292.35565,0,263.02045z"/>
	</g>
</g>
<g id="Layer_3" display="none">
</g>
<g id="Layer_2" display="none">
</g>
</svg>
