<?xml version="1.0" encoding="utf-8"?>
<!-- Generator: Adobe Illustrator 21.1.0, SVG Export Plug-In . SVG Version: 6.00 Build 0)  -->
<svg version="1.2" baseProfile="tiny" xmlns="http://www.w3.org/2000/svg" xmlns:xlink="http://www.w3.org/1999/xlink" x="0px"
	 y="0px" viewBox="0 0 334 334" xml:space="preserve">
<g id="Layer_1">
	<g>
		<path fill="#9B9B9B" d="M0,243.45984v28.45691C15.81433,296.96362,37.10077,318.21997,62.17017,334h28.53632
			C50.7182,315.67383,18.40076,283.40955,0,243.45984z"/>
		<path fill="#9B9B9B" d="M166.99951,132.80127c-18.76514,0-34.03174,15.2666-34.03174,34.03174s15.2666,34.03174,34.03174,34.03174
			s34.03174-15.2666,34.03174-34.03174S185.76465,132.80127,166.99951,132.80127z M166.99951,187.25244
			c-11.25928,0-20.41943-9.16016-20.41943-20.41943s9.16016-20.41943,20.41943-20.41943s20.41943,9.16016,20.41943,20.41943
			S178.25879,187.25244,166.99951,187.25244z"/>
		<path fill="#9B9B9B" d="M89.99042,0H61.63593C36.79755,15.74512,15.70221,36.88013,0,61.74951v28.4563
			C18.29047,50.49524,50.33337,18.38232,89.99042,0z"/>
		<circle fill="#9B9B9B" cx="166.99951" cy="166.83301" r="6.80615"/>
		<path fill="#9B9B9B" d="M37.9873,0H16.7876C10.90137,5.30579,5.29846,10.91858,0,16.81152v21.2334
			C10.99957,23.8125,23.77173,11.0199,37.9873,0z"/>
		<path fill="#9B9B9B" d="M334,38.02808V16.7981C328.70459,10.90991,323.10522,5.30176,317.22302,0h-21.20081
			C310.2334,11.01562,323.00244,23.80249,334,38.02808z"/>
		<path fill="#9B9B9B" d="M334,90.17346V61.72778C318.29785,36.8678,297.20581,15.7406,272.37244,0H244.0166
			C283.6665,18.3772,315.70532,50.47791,334,90.17346z"/>
		<path fill="#9B9B9B" d="M166.99951,105.57568c-33.77734,0-61.25732,27.47998-61.25732,61.25732
			s27.47998,61.25732,61.25732,61.25732c33.77783,0,61.25781-27.47998,61.25781-61.25732S200.77734,105.57568,166.99951,105.57568z
			 M166.99951,214.47803c-26.27148,0-47.64502-21.37354-47.64502-47.64502s21.37354-47.64502,47.64502-47.64502
			s47.64502,21.37354,47.64502,47.64502S193.271,214.47803,166.99951,214.47803z"/>
		<path fill="#9B9B9B" d="M334,271.93848v-28.44629C315.59497,283.42688,283.28162,315.67883,243.30054,334h28.5376
			C296.90247,318.22461,318.18579,296.97595,334,271.93848z"/>
		<path fill="#9B9B9B" d="M334,316.86792v-21.22974C322.89062,310.00854,309.97241,322.90894,295.5874,334h21.25928
			C322.86548,328.59912,328.59253,322.88074,334,316.86792z"/>
		<path fill="#9B9B9B" d="M334,199.50549V134.1604C320.8418,66.78003,267.80078,13.50049,200.54187,0h-67.08044
			C66.18085,13.5061,13.12897,66.82483,0,134.24536v65.17517C13.24188,267.4209,67.09839,321.07031,135.20227,334h63.59863
			C266.88306,321.07581,320.72852,267.46558,334,199.50549z M166.99951,323.38086
			c-86.31152,0-156.53125-70.22705-156.53125-156.54785S80.68799,10.28516,166.99951,10.28516
			c86.3208,0,156.54785,70.22705,156.54785,156.54785S253.32031,323.38086,166.99951,323.38086z"/>
		<path fill="#9B9B9B" d="M166.99951,78.3501c-48.79004,0-88.4834,39.69336-88.4834,88.48291s39.69336,88.48291,88.4834,88.48291
			s88.4834-39.69336,88.4834-88.48291S215.78955,78.3501,166.99951,78.3501z M166.99951,241.70361
			c-41.28369,0-74.87061-33.58691-74.87061-74.87061s33.58691-74.87061,74.87061-74.87061s74.87109,33.58691,74.87109,74.87061
			S208.2832,241.70361,166.99951,241.70361z"/>
		<path fill="#9B9B9B" d="M166.99951,23.89844c-78.80518,0-142.91797,64.12012-142.91797,142.93457
			s64.11279,142.93457,142.91797,142.93457c78.81445,0,142.93457-64.12012,142.93457-142.93457
			S245.81396,23.89844,166.99951,23.89844z M166.99951,296.15527c-71.30859,0-129.32227-58.01367-129.32227-129.32227
			c0-71.30811,58.01367-129.32178,129.32227-129.32178S296.32178,95.5249,296.32178,166.83301
			C296.32178,238.1416,238.30811,296.15527,166.99951,296.15527z"/>
		<path fill="#9B9B9B" d="M166.99951,51.12451c-63.80225,0-115.70898,51.90625-115.70898,115.7085
			s51.90674,115.70898,115.70898,115.70898S282.7085,230.63525,282.7085,166.83301S230.80176,51.12451,166.99951,51.12451z
			 M166.99951,268.9292c-56.29639,0-102.09668-45.80029-102.09668-102.09619S110.70312,64.73682,166.99951,64.73682
			s102.09668,45.80029,102.09668,102.09619S223.2959,268.9292,166.99951,268.9292z"/>
		<path fill="#9B9B9B" d="M0,295.62134v21.23303C5.41064,322.87207,11.14105,328.59521,17.164,334h21.25818
			C24.03271,322.90454,11.11127,309.99841,0,295.62134z"/>
		<path fill="#646464" d="M166.99951,146.41357c-11.25928,0-20.41943,9.16016-20.41943,20.41943s9.16016,20.41943,20.41943,20.41943
			s20.41943-9.16016,20.41943-20.41943S178.25879,146.41357,166.99951,146.41357z M166.99951,173.63916
			c-3.75293,0-6.80615-3.05322-6.80615-6.80615s3.05322-6.80615,6.80615-6.80615s6.80615,3.05322,6.80615,6.80615
			S170.75244,173.63916,166.99951,173.63916z"/>
		<path fill="#646464" d="M166.99951,119.18799c-26.27148,0-47.64502,21.37354-47.64502,47.64502
			s21.37354,47.64502,47.64502,47.64502s47.64502-21.37354,47.64502-47.64502S193.271,119.18799,166.99951,119.18799z
			 M166.99951,200.86475c-18.76514,0-34.03174-15.2666-34.03174-34.03174s15.2666-34.03174,34.03174-34.03174
			s34.03174,15.2666,34.03174,34.03174S185.76465,200.86475,166.99951,200.86475z"/>
		<path fill="#646464" d="M166.99951,91.9624c-41.28369,0-74.87061,33.58691-74.87061,74.87061s33.58691,74.87061,74.87061,74.87061
			s74.87109-33.58691,74.87109-74.87061S208.2832,91.9624,166.99951,91.9624z M166.99951,228.09033
			c-33.77734,0-61.25732-27.47998-61.25732-61.25732s27.47998-61.25732,61.25732-61.25732
			c33.77783,0,61.25781,27.47998,61.25781,61.25732S200.77734,228.09033,166.99951,228.09033z"/>
		<path fill="#646464" d="M166.99951,64.73682c-56.29639,0-102.09668,45.80029-102.09668,102.09619
			S110.70312,268.9292,166.99951,268.9292s102.09668-45.80029,102.09668-102.09619S223.2959,64.73682,166.99951,64.73682z
			 M166.99951,255.31592c-48.79004,0-88.4834-39.69336-88.4834-88.48291s39.69336-88.48291,88.4834-88.48291
			s88.4834,39.69336,88.4834,88.48291S215.78955,255.31592,166.99951,255.31592z"/>
		<path fill="#646464" d="M166.99951,37.51123c-71.30859,0-129.32227,58.01367-129.32227,129.32178
			c0,71.30859,58.01367,129.32227,129.32227,129.32227s129.32227-58.01367,129.32227-129.32227
			C296.32178,95.5249,238.30811,37.51123,166.99951,37.51123z M166.99951,282.54199
			c-63.80225,0-115.70898-51.90674-115.70898-115.70898s51.90674-115.7085,115.70898-115.7085
			s115.70898,51.90625,115.70898,115.7085S230.80176,282.54199,166.99951,282.54199z"/>
		<path fill="#646464" d="M166.99951,10.28516c-86.31152,0-156.53125,70.22705-156.53125,156.54785
			s70.21973,156.54785,156.53125,156.54785c86.3208,0,156.54785-70.22705,156.54785-156.54785
			S253.32031,10.28516,166.99951,10.28516z M166.99951,309.76758c-78.80518,0-142.91797-64.12012-142.91797-142.93457
			S88.19434,23.89844,166.99951,23.89844c78.81445,0,142.93457,64.12012,142.93457,142.93457
			S245.81396,309.76758,166.99951,309.76758z"/>
		<path fill="#646464" d="M133.46143,0H89.99042C50.33337,18.38232,18.29047,50.49524,0,90.20581v44.03955
			C13.12897,66.82483,66.18085,13.5061,133.46143,0z"/>
		<path fill="#646464" d="M334,134.1604V90.17346C315.70532,50.47791,283.6665,18.3772,244.0166,0h-43.47473
			C267.80078,13.50049,320.8418,66.78003,334,134.1604z"/>
		<path fill="#646464" d="M334,243.49219v-43.98669C320.72852,267.46558,266.88306,321.07581,198.8009,334h44.49963
			C283.28162,315.67883,315.59497,283.42688,334,243.49219z"/>
		<path fill="#646464" d="M0,199.42053v44.03931C18.40076,283.40955,50.7182,315.67383,90.70648,334h44.49579
			C67.09839,321.07031,13.24188,267.4209,0,199.42053z"/>
		<path fill="#646464" d="M0,271.91675v23.70459C11.11127,309.99841,24.03271,322.90454,38.42218,334h23.74799
			C37.10077,318.21997,15.81433,296.96362,0,271.91675z"/>
		<path fill="#646464" d="M334,61.72778V38.02808C323.00244,23.80249,310.2334,11.01562,296.02222,0h-23.64978
			C297.20581,15.7406,318.29785,36.8678,334,61.72778z"/>
		<path fill="#646464" d="M334,295.63818v-23.69971C318.18579,296.97595,296.90247,318.22461,271.83813,334h23.74927
			C309.97241,322.90894,322.89062,310.00854,334,295.63818z"/>
		<path fill="#646464" d="M61.63593,0H37.9873C23.77173,11.0199,10.99957,23.8125,0,38.04492v23.70459
			C15.70221,36.88013,36.79755,15.74512,61.63593,0z"/>
		<path fill="#646464" d="M334,16.7981V0h-16.77698C323.10522,5.30176,328.70459,10.90991,334,16.7981z"/>
		<path fill="#646464" d="M334,316.86792c-5.40747,6.01282-11.13452,11.7312-17.15332,17.13208H334V316.86792z"/>
		<path fill="#646464" d="M0,316.85437V334h17.164C11.14105,328.59521,5.41064,322.87207,0,316.85437z"/>
		<path fill="#646464" d="M16.7876,0H0v16.81152C5.29846,10.91858,10.90137,5.30579,16.7876,0z"/>
	</g>
</g>
<g id="Layer_3" display="none">
</g>
<g id="Layer_2" display="none">
</g>
</svg>
