<?xml version="1.0" encoding="utf-8"?>
<!-- Generator: Adobe Illustrator 21.1.0, SVG Export Plug-In . SVG Version: 6.00 Build 0)  -->
<svg version="1.2" baseProfile="tiny" xmlns="http://www.w3.org/2000/svg" xmlns:xlink="http://www.w3.org/1999/xlink" x="0px"
	 y="0px" viewBox="0 0 334 334" xml:space="preserve">
<g id="Layer_1">
	<g>
		<path fill="#818181" d="M0,287.15173v17.28333C8.84888,315.20703,18.71484,325.11279,29.4541,334h17.20923
			C28.71265,320.99023,12.93774,305.15771,0,287.15173z"/>
		<path fill="#818181" d="M320.53076,334H334v-13.50635C329.70117,325.18213,325.20532,329.68616,320.53076,334z"/>
		<path fill="#818181" d="M0,245.73511v22.30933C16.25488,294.94202,38.81934,317.61621,65.63013,334h22.06421
			C49.25659,315.61768,18.14282,284.30786,0,245.73511z"/>
		<path fill="#818181" d="M334,268.04443v-22.30762c-18.14307,38.57202-49.25684,69.8811-87.69434,88.26318h22.06421
			C295.18066,317.61621,317.74512,294.94202,334,268.04443z"/>
		<path fill="#818181" d="M89.83643,0h-22.5332C39.75977,16.45605,16.59082,39.50354,0,66.95728V89.2666
			C18.47827,49.98083,50.41431,18.23352,89.83643,0z"/>
		<path fill="#818181" d="M0,320.49365V334h13.46924C8.79468,329.68616,4.29883,325.18213,0,320.49365z"/>
		<path fill="#818181" d="M334,304.43506v-17.28333c-12.93774,18.00598-28.71265,33.8385-46.66333,46.84827h17.20923
			C315.28516,325.11279,325.15112,315.20703,334,304.43506z"/>
		<path fill="#818181" d="M166.99902,14.67773c-84.2666,0-152.82227,68.55664-152.82227,152.82324
			s68.55566,152.82227,152.82227,152.82227s152.82324-68.55566,152.82324-152.82227S251.26562,14.67773,166.99902,14.67773z
			 M167,309.78418c-78.45508,0-142.2832-63.82812-142.2832-142.2832S88.54492,25.21777,167,25.21777
			s142.28223,63.82812,142.28223,142.2832S245.45508,309.78418,167,309.78418z"/>
		<path fill="#818181" d="M167,35.75684c-72.64355,0-131.74414,59.10059-131.74414,131.74414S94.35645,299.24512,167,299.24512
			s131.74316-59.10059,131.74316-131.74414S239.64355,35.75684,167,35.75684z M167,288.70508
			c-66.83203,0-121.2041-54.37207-121.2041-121.2041S100.16797,46.29688,167,46.29688s121.2041,54.37207,121.2041,121.2041
			S233.83203,288.70508,167,288.70508z"/>
		<path fill="#818181" d="M167,56.83594c-61.02051,0-110.66504,49.64453-110.66504,110.66504S105.97949,278.16602,167,278.16602
			s110.66504-49.64453,110.66504-110.66504S228.02051,56.83594,167,56.83594z M167,267.62598
			c-55.20898,0-100.125-44.91602-100.125-100.125S111.79102,67.37598,167,67.37598s100.125,44.91602,100.125,100.125
			S222.20898,267.62598,167,267.62598z"/>
		<path fill="#818181" d="M334,216.04028v-97.07861C317.25635,61.44873,271.54736,16.15479,213.78857,0h-93.57715
			C62.4519,16.15503,16.74268,61.45044,0,118.9646v97.07275C16.40991,272.4082,60.64771,317.03711,116.7832,334H217.2168
			C273.35156,317.03748,317.58936,272.40991,334,216.04028z M166.99902,330.8623c-90.07812,0-163.36133-73.2832-163.36133-163.36133
			S76.9209,4.13867,166.99902,4.13867s163.3623,73.28418,163.3623,163.3623S257.07715,330.8623,166.99902,330.8623z"/>
		<path fill="#818181" d="M167,120.07227c-26.15137,0-47.42773,21.27637-47.42773,47.42871
			c0,26.15137,21.27637,47.42773,47.42773,47.42773s47.42773-21.27637,47.42773-47.42773
			C214.42773,141.34863,193.15137,120.07227,167,120.07227z M167,204.38867c-20.33984,0-36.8877-16.54785-36.8877-36.8877
			c0-20.34082,16.54785-36.88867,36.8877-36.88867s36.8877,16.54785,36.8877,36.88867
			C203.8877,187.84082,187.33984,204.38867,167,204.38867z"/>
		<path fill="#818181" d="M334,47.8501V30.56665C324.81494,19.38525,314.52808,9.14453,303.3125,0h-17.34814
			C304.48706,13.1936,320.73169,29.38403,334,47.8501z"/>
		<circle fill="#818181" cx="167.00024" cy="167.50073" r="5.27002"/>
		<path fill="#818181" d="M167,77.91504c-49.39746,0-89.58594,40.18848-89.58594,89.58594S117.60254,257.08691,167,257.08691
			s89.58594-40.18848,89.58594-89.58594S216.39746,77.91504,167,77.91504z M167,246.54688
			c-43.58594,0-79.0459-35.45996-79.0459-79.0459S123.41406,88.45508,167,88.45508s79.0459,35.45996,79.0459,79.0459
			S210.58594,246.54688,167,246.54688z"/>
		<path fill="#818181" d="M167,98.99414c-37.77441,0-68.50684,30.73242-68.50684,68.50684S129.22559,236.00781,167,236.00781
			s68.50684-30.73242,68.50684-68.50684S204.77441,98.99414,167,98.99414z M167,225.46777
			c-31.96289,0-57.9668-26.00391-57.9668-57.9668c0-31.96387,26.00391-57.96777,57.9668-57.96777s57.9668,26.00391,57.9668,57.96777
			C224.9668,199.46387,198.96289,225.46777,167,225.46777z"/>
		<path fill="#818181" d="M167,141.15137c-14.52832,0-26.34863,11.82031-26.34863,26.34961
			c0,14.52832,11.82031,26.34863,26.34863,26.34863s26.34863-11.82031,26.34863-26.34863
			C193.34863,152.97168,181.52832,141.15137,167,141.15137z M167,183.30957c-8.7168,0-15.80859-7.0918-15.80859-15.80859
			c0-8.71777,7.0918-15.80957,15.80859-15.80957c8.71777,0,15.80957,7.0918,15.80957,15.80957
			C182.80957,176.21777,175.71777,183.30957,167,183.30957z"/>
		<path fill="#818181" d="M48.03564,0H30.6875C19.47192,9.14453,9.18506,19.38525,0,30.56665V47.8501
			C13.26831,29.38403,29.51294,13.1936,48.03564,0z"/>
		<path fill="#818181" d="M14.54541,0H0v14.50806C4.63013,9.45825,9.48047,4.61401,14.54541,0z"/>
		<path fill="#818181" d="M334,89.26489V66.95728C317.40918,39.50354,294.24023,16.45605,266.69678,0h-22.53296
			C283.58545,18.23315,315.52148,49.97986,334,89.26489z"/>
		<path fill="#818181" d="M334,14.50806V0h-14.54541C324.51953,4.61401,329.36987,9.45825,334,14.50806z"/>
		<path fill="#7E7E7E" d="M167,151.69141c-8.7168,0-15.80859,7.0918-15.80859,15.80957c0,8.7168,7.0918,15.80859,15.80859,15.80859
			c8.71777,0,15.80957-7.0918,15.80957-15.80859C182.80957,158.7832,175.71777,151.69141,167,151.69141z M167,172.77051
			c-2.90527,0-5.26953-2.36426-5.26953-5.26953c0-2.90625,2.36426-5.27051,5.26953-5.27051
			c2.90625,0,5.27051,2.36426,5.27051,5.27051C172.27051,170.40625,169.90625,172.77051,167,172.77051z"/>
		<path fill="#7E7E7E" d="M167,130.6123c-20.33984,0-36.8877,16.54785-36.8877,36.88867
			c0,20.33984,16.54785,36.8877,36.8877,36.8877s36.8877-16.54785,36.8877-36.8877
			C203.8877,147.16016,187.33984,130.6123,167,130.6123z M167,193.84961c-14.52832,0-26.34863-11.82031-26.34863-26.34863
			c0-14.5293,11.82031-26.34961,26.34863-26.34961s26.34863,11.82031,26.34863,26.34961
			C193.34863,182.0293,181.52832,193.84961,167,193.84961z"/>
		<path fill="#7E7E7E" d="M167,109.5332c-31.96289,0-57.9668,26.00391-57.9668,57.96777
			c0,31.96289,26.00391,57.9668,57.9668,57.9668s57.9668-26.00391,57.9668-57.9668
			C224.9668,135.53711,198.96289,109.5332,167,109.5332z M167,214.92871c-26.15137,0-47.42773-21.27637-47.42773-47.42773
			c0-26.15234,21.27637-47.42871,47.42773-47.42871s47.42773,21.27637,47.42773,47.42871
			C214.42773,193.65234,193.15137,214.92871,167,214.92871z"/>
		<path fill="#7E7E7E" d="M167,88.45508c-43.58594,0-79.0459,35.45996-79.0459,79.0459s35.45996,79.0459,79.0459,79.0459
			s79.0459-35.45996,79.0459-79.0459S210.58594,88.45508,167,88.45508z M167,236.00781
			c-37.77441,0-68.50684-30.73242-68.50684-68.50684S129.22559,98.99414,167,98.99414s68.50684,30.73242,68.50684,68.50684
			S204.77441,236.00781,167,236.00781z"/>
		<path fill="#7E7E7E" d="M167,67.37598c-55.20898,0-100.125,44.91602-100.125,100.125s44.91602,100.125,100.125,100.125
			s100.125-44.91602,100.125-100.125S222.20898,67.37598,167,67.37598z M167,257.08691
			c-49.39746,0-89.58594-40.18848-89.58594-89.58594S117.60254,77.91504,167,77.91504s89.58594,40.18848,89.58594,89.58594
			S216.39746,257.08691,167,257.08691z"/>
		<path fill="#7E7E7E" d="M167,46.29688c-66.83203,0-121.2041,54.37207-121.2041,121.2041S100.16797,288.70508,167,288.70508
			s121.2041-54.37207,121.2041-121.2041S233.83203,46.29688,167,46.29688z M167,278.16602
			c-61.02051,0-110.66504-49.64453-110.66504-110.66504S105.97949,56.83594,167,56.83594s110.66504,49.64453,110.66504,110.66504
			S228.02051,278.16602,167,278.16602z"/>
		<path fill="#7E7E7E" d="M167,25.21777c-78.45508,0-142.2832,63.82812-142.2832,142.2832S88.54492,309.78418,167,309.78418
			s142.28223-63.82812,142.28223-142.2832S245.45508,25.21777,167,25.21777z M167,299.24512
			c-72.64355,0-131.74414-59.10059-131.74414-131.74414S94.35645,35.75684,167,35.75684s131.74316,59.10059,131.74316,131.74414
			S239.64355,299.24512,167,299.24512z"/>
		<path fill="#7E7E7E" d="M166.99902,4.13867C76.9209,4.13867,3.6377,77.42285,3.6377,167.50098
			S76.9209,330.8623,166.99902,330.8623s163.3623-73.2832,163.3623-163.36133S257.07715,4.13867,166.99902,4.13867z
			 M166.99902,320.32324c-84.2666,0-152.82227-68.55566-152.82227-152.82227S82.73242,14.67773,166.99902,14.67773
			s152.82324,68.55664,152.82324,152.82324S251.26562,320.32324,166.99902,320.32324z"/>
		<path fill="#7E7E7E" d="M334,118.96167V89.26489C315.52148,49.97986,283.58545,18.23315,244.16382,0h-30.37524
			C271.54736,16.15479,317.25635,61.44873,334,118.96167z"/>
		<path fill="#7E7E7E" d="M0,216.03735v29.69775C18.14282,284.30786,49.25659,315.61768,87.69434,334h29.08887
			C60.64771,317.03711,16.40991,272.4082,0,216.03735z"/>
		<path fill="#7E7E7E" d="M120.21143,0h-30.375C50.41431,18.23352,18.47827,49.98083,0,89.2666v29.698
			C16.74268,61.45044,62.4519,16.15503,120.21143,0z"/>
		<path fill="#7E7E7E" d="M334,245.73682v-29.69653C317.58936,272.40991,273.35156,317.03748,217.2168,334h29.08887
			C284.74316,315.61792,315.85693,284.30884,334,245.73682z"/>
		<path fill="#7E7E7E" d="M334,66.95728V47.8501C320.73169,29.38403,304.48706,13.1936,285.96436,0h-19.26758
			C294.24023,16.45605,317.40918,39.50354,334,66.95728z"/>
		<path fill="#7E7E7E" d="M334,287.15173v-19.1073C317.74512,294.94202,295.18066,317.61621,268.36987,334h18.9668
			C305.28735,320.99023,321.06226,305.15771,334,287.15173z"/>
		<path fill="#7E7E7E" d="M67.30322,0H48.03564C29.51294,13.1936,13.26831,29.38403,0,47.8501v19.10718
			C16.59082,39.50354,39.75977,16.45605,67.30322,0z"/>
		<path fill="#7E7E7E" d="M0,268.04443v19.1073C12.93774,305.15771,28.71265,320.99023,46.66333,334h18.9668
			C38.81934,317.61621,16.25488,294.94202,0,268.04443z"/>
		<path fill="#7E7E7E" d="M334,320.49365v-16.05859c-8.84888,10.77197-18.71484,20.67773-29.4541,29.56494h15.98486
			C325.20532,329.68616,329.70117,325.18213,334,320.49365z"/>
		<path fill="#7E7E7E" d="M334,30.56665V14.50806C329.36987,9.45825,324.51953,4.61401,319.45459,0H303.3125
			C314.52808,9.14453,324.81494,19.38525,334,30.56665z"/>
		<path fill="#7E7E7E" d="M30.6875,0H14.54541C9.48047,4.61401,4.63013,9.45825,0,14.50806v16.05859
			C9.18506,19.38525,19.47192,9.14453,30.6875,0z"/>
		<path fill="#7E7E7E" d="M0,304.43506v16.05859c4.29883,4.68848,8.79468,9.1925,13.46924,13.50635H29.4541
			C18.71484,325.11279,8.84888,315.20703,0,304.43506z"/>
	</g>
</g>
<g id="Layer_3" display="none">
</g>
<g id="Layer_2" display="none">
</g>
</svg>
