<?xml version="1.0" encoding="utf-8"?>
<!-- Generator: Adobe Illustrator 21.1.0, SVG Export Plug-In . SVG Version: 6.00 Build 0)  -->
<svg version="1.2" baseProfile="tiny" xmlns="http://www.w3.org/2000/svg" xmlns:xlink="http://www.w3.org/1999/xlink" x="0px"
	 y="0px" viewBox="0 0 334 334" xml:space="preserve">
<g id="Layer_1">
	<g>
		<path fill="#898989" d="M166.33105,14.67773c-84.2666,0-152.82324,68.55664-152.82324,152.82324
			s68.55664,152.82227,152.82324,152.82227s152.82227-68.55566,152.82227-152.82227S250.59766,14.67773,166.33105,14.67773z
			 M166.33105,309.78418c-78.45508,0-142.2832-63.82812-142.2832-142.2832s63.82812-142.2832,142.2832-142.2832
			s142.2832,63.82812,142.2832,142.2832S244.78613,309.78418,166.33105,309.78418z"/>
		<circle fill="#898989" cx="166.3313" cy="167.50073" r="5.27002"/>
		<path fill="#898989" d="M13.87683,0H0v13.79028C4.42944,9.00061,9.05371,4.3938,13.87683,0z"/>
		<path fill="#898989" d="M334,48.7749V31.39685C324.64478,19.89404,314.13452,9.36914,302.64343,0h-17.34814
			C304.12817,13.41443,320.61145,29.92236,334,48.7749z"/>
		<path fill="#898989" d="M166.33105,141.15137c-14.52832,0-26.34863,11.82031-26.34863,26.34961
			c0,14.52832,11.82031,26.34863,26.34863,26.34863c14.5293,0,26.34961-11.82031,26.34961-26.34863
			C192.68066,152.97168,180.86035,141.15137,166.33105,141.15137z M166.33105,183.30957
			c-8.7168,0-15.80859-7.0918-15.80859-15.80859c0-8.71777,7.0918-15.80957,15.80859-15.80957
			c8.71777,0,15.80957,7.0918,15.80957,15.80957C182.14062,176.21777,175.04883,183.30957,166.33105,183.30957z"/>
		<path fill="#898989" d="M334,90.69556V68.08765C317.36499,40.13794,293.94702,16.68066,266.02771,0h-22.53284
			C283.39453,18.45435,315.62866,50.75012,334,90.69556z"/>
		<path fill="#898989" d="M334,266.91431V244.3064c-18.04175,39.22876-49.45117,71.08459-88.36328,89.6936h22.06421
			C294.88513,317.38818,317.69751,294.30518,334,266.91431z"/>
		<path fill="#898989" d="M0,288.06738v17.17773C8.67639,315.7041,18.31592,325.33594,28.7854,334h17.20935
			C28.35022,321.21191,12.81177,305.6936,0,288.06738z"/>
		<path fill="#898989" d="M0,321.21143V334h12.8009C8.36658,329.90796,4.0968,325.64136,0,321.21143z"/>
		<path fill="#898989" d="M334,319.7749c-4.49902,4.94934-9.22314,9.68921-14.13831,14.2251H334V319.7749z"/>
		<path fill="#898989" d="M0,247.16577v21.97363C16.20251,295.55713,38.5155,317.83923,64.96143,334h22.06409
			C49.06226,315.84473,18.23438,285.08411,0,247.16577z"/>
		<path fill="#898989" d="M89.16736,0H66.63464C39.45837,16.23682,16.54224,38.89062,0,65.8623v21.97388
			C18.57581,49.20776,50.22327,18.01245,89.16736,0z"/>
		<path fill="#898989" d="M47.36719,0H30.01904C19.07471,8.92334,9.01453,18.89001,0,29.75659v17.17773
			C13.1449,28.84998,29.15234,12.97437,47.36719,0z"/>
		<path fill="#898989" d="M334,303.60498v-17.37817C320.93945,304.61743,304.92651,320.76685,286.66772,334h17.20935
			C314.89001,324.88623,324.979,314.69678,334,303.60498z"/>
		<path fill="#898989" d="M166.33105,77.91504c-49.39746,0-89.58594,40.18848-89.58594,89.58594
			s40.18848,89.58594,89.58594,89.58594s89.58594-40.18848,89.58594-89.58594S215.72852,77.91504,166.33105,77.91504z
			 M166.33105,246.54688c-43.58594,0-79.0459-35.45996-79.0459-79.0459s35.45996-79.0459,79.0459-79.0459
			s79.0459,35.45996,79.0459,79.0459S209.91699,246.54688,166.33105,246.54688z"/>
		<path fill="#898989" d="M166.33105,98.99414c-37.77441,0-68.50684,30.73242-68.50684,68.50684
			s30.73242,68.50684,68.50684,68.50684s68.50684-30.73242,68.50684-68.50684S204.10547,98.99414,166.33105,98.99414z
			 M166.33105,225.46777c-31.96289,0-57.9668-26.00391-57.9668-57.9668c0-31.96387,26.00391-57.96777,57.9668-57.96777
			c31.96387,0,57.96777,26.00391,57.96777,57.96777C224.29883,199.46387,198.29492,225.46777,166.33105,225.46777z"/>
		<path fill="#898989" d="M166.33105,56.83594c-61.02051,0-110.66504,49.64453-110.66504,110.66504
			s49.64453,110.66504,110.66504,110.66504s110.66504-49.64453,110.66504-110.66504S227.35156,56.83594,166.33105,56.83594z
			 M166.33105,267.62598c-55.20898,0-100.125-44.91602-100.125-100.125s44.91602-100.125,100.125-100.125
			s100.125,44.91602,100.125,100.125S221.54004,267.62598,166.33105,267.62598z"/>
		<path fill="#898989" d="M166.33105,35.75684c-72.64355,0-131.74414,59.10059-131.74414,131.74414
			S93.6875,299.24512,166.33105,299.24512S298.0752,240.14453,298.0752,167.50098S238.97461,35.75684,166.33105,35.75684z
			 M166.33105,288.70508c-66.83203,0-121.2041-54.37207-121.2041-121.2041s54.37207-121.2041,121.2041-121.2041
			s121.2041,54.37207,121.2041,121.2041S233.16309,288.70508,166.33105,288.70508z"/>
		<path fill="#898989" d="M334,15.22681V0h-15.21423C324.09253,4.83435,329.17139,9.91479,334,15.22681z"/>
		<path fill="#898989" d="M166.33105,120.07227c-26.15137,0-47.42773,21.27637-47.42773,47.42871
			c0,26.15137,21.27637,47.42773,47.42773,47.42773c26.15234,0,47.42871-21.27637,47.42871-47.42773
			C213.75977,141.34863,192.4834,120.07227,166.33105,120.07227z M166.33105,204.38867
			c-20.33984,0-36.8877-16.54785-36.8877-36.8877c0-20.34082,16.54785-36.88867,36.8877-36.88867
			c20.34082,0,36.88867,16.54785,36.88867,36.88867C203.21973,187.84082,186.67188,204.38867,166.33105,204.38867z"/>
		<path fill="#898989" d="M334,213.67188v-92.3418C317.83423,62.69458,271.6687,16.37573,213.11963,0h-93.57715
			C62.53613,15.94434,17.26721,60.27368,0,116.72083v101.56018C16.91943,273.59131,60.72559,317.26294,116.11426,334h100.43359
			C273.46631,316.80066,318.15137,271.15747,334,213.67188z M166.33105,330.8623c-90.07812,0-163.3623-73.2832-163.3623-163.36133
			S76.25293,4.13867,166.33105,4.13867s163.36133,73.28418,163.36133,163.3623S256.40918,330.8623,166.33105,330.8623z"/>
		<path fill="#767676" d="M166.33105,151.69141c-8.7168,0-15.80859,7.0918-15.80859,15.80957
			c0,8.7168,7.0918,15.80859,15.80859,15.80859c8.71777,0,15.80957-7.0918,15.80957-15.80859
			C182.14062,158.7832,175.04883,151.69141,166.33105,151.69141z M166.33105,172.77051c-2.90527,0-5.26953-2.36426-5.26953-5.26953
			c0-2.90625,2.36426-5.27051,5.26953-5.27051c2.90625,0,5.27051,2.36426,5.27051,5.27051
			C171.60156,170.40625,169.2373,172.77051,166.33105,172.77051z"/>
		<path fill="#767676" d="M166.33105,130.6123c-20.33984,0-36.8877,16.54785-36.8877,36.88867
			c0,20.33984,16.54785,36.8877,36.8877,36.8877c20.34082,0,36.88867-16.54785,36.88867-36.8877
			C203.21973,147.16016,186.67188,130.6123,166.33105,130.6123z M166.33105,193.84961
			c-14.52832,0-26.34863-11.82031-26.34863-26.34863c0-14.5293,11.82031-26.34961,26.34863-26.34961
			c14.5293,0,26.34961,11.82031,26.34961,26.34961C192.68066,182.0293,180.86035,193.84961,166.33105,193.84961z"/>
		<path fill="#767676" d="M166.33105,109.5332c-31.96289,0-57.9668,26.00391-57.9668,57.96777
			c0,31.96289,26.00391,57.9668,57.9668,57.9668c31.96387,0,57.96777-26.00391,57.96777-57.9668
			C224.29883,135.53711,198.29492,109.5332,166.33105,109.5332z M166.33105,214.92871
			c-26.15137,0-47.42773-21.27637-47.42773-47.42773c0-26.15234,21.27637-47.42871,47.42773-47.42871
			c26.15234,0,47.42871,21.27637,47.42871,47.42871C213.75977,193.65234,192.4834,214.92871,166.33105,214.92871z"/>
		<path fill="#767676" d="M166.33105,88.45508c-43.58594,0-79.0459,35.45996-79.0459,79.0459s35.45996,79.0459,79.0459,79.0459
			s79.0459-35.45996,79.0459-79.0459S209.91699,88.45508,166.33105,88.45508z M166.33105,236.00781
			c-37.77441,0-68.50684-30.73242-68.50684-68.50684s30.73242-68.50684,68.50684-68.50684s68.50684,30.73242,68.50684,68.50684
			S204.10547,236.00781,166.33105,236.00781z"/>
		<path fill="#767676" d="M166.33105,67.37598c-55.20898,0-100.125,44.91602-100.125,100.125s44.91602,100.125,100.125,100.125
			s100.125-44.91602,100.125-100.125S221.54004,67.37598,166.33105,67.37598z M166.33105,257.08691
			c-49.39746,0-89.58594-40.18848-89.58594-89.58594s40.18848-89.58594,89.58594-89.58594s89.58594,40.18848,89.58594,89.58594
			S215.72852,257.08691,166.33105,257.08691z"/>
		<path fill="#767676" d="M166.33105,46.29688c-66.83203,0-121.2041,54.37207-121.2041,121.2041
			s54.37207,121.2041,121.2041,121.2041s121.2041-54.37207,121.2041-121.2041S233.16309,46.29688,166.33105,46.29688z
			 M166.33105,278.16602c-61.02051,0-110.66504-49.64453-110.66504-110.66504S105.31055,56.83594,166.33105,56.83594
			s110.66504,49.64453,110.66504,110.66504S227.35156,278.16602,166.33105,278.16602z"/>
		<path fill="#767676" d="M166.33105,25.21777c-78.45508,0-142.2832,63.82812-142.2832,142.2832
			s63.82812,142.2832,142.2832,142.2832s142.2832-63.82812,142.2832-142.2832S244.78613,25.21777,166.33105,25.21777z
			 M166.33105,299.24512c-72.64355,0-131.74414-59.10059-131.74414-131.74414S93.6875,35.75684,166.33105,35.75684
			S298.0752,94.85742,298.0752,167.50098S238.97461,299.24512,166.33105,299.24512z"/>
		<path fill="#767676" d="M166.33105,4.13867c-90.07812,0-163.3623,73.28418-163.3623,163.3623
			S76.25293,330.8623,166.33105,330.8623s163.36133-73.2832,163.36133-163.36133S256.40918,4.13867,166.33105,4.13867z
			 M166.33105,320.32324c-84.2666,0-152.82324-68.55566-152.82324-152.82227S82.06445,14.67773,166.33105,14.67773
			s152.82227,68.55664,152.82227,152.82324S250.59766,320.32324,166.33105,320.32324z"/>
		<path fill="#767676" d="M0,218.28101v28.88477C18.23438,285.08411,49.06226,315.84473,87.02551,334h29.08875
			C60.72559,317.26294,16.91943,273.59131,0,218.28101z"/>
		<path fill="#767676" d="M334,244.3064v-30.63452C318.15137,271.15747,273.46631,316.80066,216.54785,334h29.08887
			C284.54883,315.39099,315.95825,283.53516,334,244.3064z"/>
		<path fill="#767676" d="M334,121.33008V90.69556C315.62866,50.75012,283.39453,18.45435,243.49487,0h-30.37524
			C271.6687,16.37573,317.83423,62.69458,334,121.33008z"/>
		<path fill="#767676" d="M119.54248,0H89.16736C50.22327,18.01245,18.57581,49.20776,0,87.83618v28.88464
			C17.26721,60.27368,62.53613,15.94434,119.54248,0z"/>
		<path fill="#767676" d="M334,286.22681v-19.3125C317.69751,294.30518,294.88513,317.38818,267.70093,334h18.9668
			C304.92651,320.76685,320.93945,304.61743,334,286.22681z"/>
		<path fill="#767676" d="M334,68.08765V48.7749C320.61145,29.92236,304.12817,13.41443,285.29529,0h-19.26758
			C293.94702,16.68066,317.36499,40.13794,334,68.08765z"/>
		<path fill="#767676" d="M0,269.1394v18.92798C12.81177,305.6936,28.35022,321.21191,45.99475,334h18.96667
			C38.5155,317.83923,16.20251,295.55713,0,269.1394z"/>
		<path fill="#767676" d="M66.63464,0H47.36719C29.15234,12.97437,13.1449,28.84998,0,46.93433V65.8623
			C16.54224,38.89062,39.45837,16.23682,66.63464,0z"/>
		<path fill="#767676" d="M334,319.7749v-16.16992c-9.021,11.0918-19.10999,21.28125-30.12292,30.39502h15.98462
			C324.77686,329.46411,329.50098,324.72424,334,319.7749z"/>
		<path fill="#767676" d="M0,305.24512v15.96631C4.0968,325.64136,8.36658,329.90796,12.8009,334h15.9845
			C18.31592,325.33594,8.67639,315.7041,0,305.24512z"/>
		<path fill="#767676" d="M30.01904,0H13.87683C9.05371,4.3938,4.42944,9.00061,0,13.79028v15.96631
			C9.01453,18.89001,19.07471,8.92334,30.01904,0z"/>
		<path fill="#767676" d="M334,31.39685V15.22681C329.17139,9.91479,324.09253,4.83435,318.78577,0h-16.14233
			C314.13452,9.36914,324.64478,19.89404,334,31.39685z"/>
	</g>
</g>
<g id="Layer_3" display="none">
</g>
<g id="Layer_2" display="none">
</g>
</svg>
