<?xml version="1.0" encoding="utf-8"?>
<!-- Generator: Adobe Illustrator 21.1.0, SVG Export Plug-In . SVG Version: 6.00 Build 0)  -->
<svg version="1.2" baseProfile="tiny" xmlns="http://www.w3.org/2000/svg" xmlns:xlink="http://www.w3.org/1999/xlink" x="0px"
	 y="0px" viewBox="0 0 334 334" xml:space="preserve">
<g id="Layer_1">
	<g>
		<path fill="#898989" d="M166.33105,174.95898c4.84961,0,8.79492-3.94531,8.79492-8.79443s-3.94531-8.79395-8.79492-8.79395
			c-4.83984,0-8.77734,3.94482-8.77734,8.79395S161.49121,174.95898,166.33105,174.95898z"/>
		<path fill="#898989" d="M166.33105,210.11816c24.23633,0,43.9541-19.71777,43.9541-43.95361s-19.71777-43.95361-43.9541-43.95361
			c-24.22656,0-43.93652,19.71777-43.93652,43.95361S142.10449,210.11816,166.33105,210.11816z M166.33105,139.78271
			c14.54785,0,26.38281,11.83496,26.38281,26.38184c0,14.54736-11.83496,26.38232-26.38281,26.38232
			c-14.53809,0-26.36523-11.83496-26.36523-26.38232C139.96582,151.61768,151.79297,139.78271,166.33105,139.78271z"/>
		<path fill="#898989" d="M334,53.30194V24.28223C326.63086,15.58655,318.61035,7.4599,309.99463,0h-28.62781
			C302.03235,14.35065,319.91333,32.44214,334,53.30194z"/>
		<path fill="#898989" d="M51.28613,0H22.646C14.56055,7.00134,6.9917,14.58325,0,22.67731v28.67212
			C13.87451,31.31476,31.26917,13.89923,51.28613,0z"/>
		<path fill="#898989" d="M166.33105,245.27783c43.62305,0,79.11328-35.49023,79.11328-79.11328
			s-35.49023-79.11279-79.11328-79.11279s-79.11328,35.48975-79.11328,79.11279S122.70801,245.27783,166.33105,245.27783z
			 M166.33105,104.62305c33.93457,0,61.54199,27.60742,61.54199,61.5415s-27.60742,61.5415-61.54199,61.5415
			c-33.9248,0-61.52441-27.60742-61.52441-61.5415S132.40625,104.62305,166.33105,104.62305z"/>
		<path fill="#898989" d="M149.37378,0H85.97253C48.52979,18.1778,18.1123,48.64001,0,86.11774v64.96387
			C7.14673,71.62317,70.1676,8.02301,149.37378,0z"/>
		<path fill="#898989" d="M334,308.04736v-29.01978C319.36365,300.70117,300.63794,319.39526,278.94141,334h29.07849
			C317.38184,326.08325,326.07349,317.40076,334,308.04736z"/>
		<path fill="#898989" d="M334,243.32507V89.00409C316.07434,50.20721,285.0769,18.64142,246.68262,0h-63.39417
			c84.16138,8.52484,150.06311,79.79285,150.06311,166.16455c0,92.09521-74.9248,167.02002-167.02051,167.02002
			C79.3208,333.18457,7.6499,266.30066,0,181.24756v64.96387C18.68066,284.86523,50.45288,316.05249,89.5199,334h153.6156
			C283.16528,315.60864,315.52588,283.30908,334,243.32507z"/>
		<path fill="#898989" d="M166.33105,315.59668c82.39746,0,149.43262-67.03516,149.43262-149.43213
			S248.72852,16.73242,166.33105,16.73242c-82.39648,0-149.43164,67.03516-149.43164,149.43213
			S83.93457,315.59668,166.33105,315.59668z M166.33105,34.3042c72.70898,0,131.86133,59.15234,131.86133,131.86035
			c0,72.7085-59.15234,131.86084-131.86133,131.86084c-72.70801,0-131.86035-59.15234-131.86035-131.86084
			C34.4707,93.45654,93.62305,34.3042,166.33105,34.3042z"/>
		<path fill="#898989" d="M0,280.97998v28.67224C7.55518,318.39868,15.79443,326.53564,24.62061,334h29.09131
			C32.67041,319.8374,14.43335,301.82178,0,280.97998z"/>
		<path fill="#898989" d="M166.33105,280.4375c63.01074,0,114.27344-51.2627,114.27344-114.27295
			c0-63.00977-51.2627-114.27246-114.27344-114.27246c-63.00977,0-114.27246,51.2627-114.27246,114.27246
			C52.05859,229.1748,103.32129,280.4375,166.33105,280.4375z M166.33105,69.46387c53.32129,0,96.70117,43.37988,96.70117,96.70068
			c0,53.32129-43.37988,96.70117-96.70117,96.70117s-96.70117-43.37988-96.70117-96.70117
			C69.62988,112.84375,113.00977,69.46387,166.33105,69.46387z"/>
		<polygon fill="#898989" points="334,333.99243 333.99231,334 334,334 		"/>
		<path fill="#767676" d="M166.33105,192.54688c14.54785,0,26.38281-11.83496,26.38281-26.38232
			c0-14.54688-11.83496-26.38184-26.38281-26.38184c-14.53809,0-26.36523,11.83496-26.36523,26.38184
			C139.96582,180.71191,151.79297,192.54688,166.33105,192.54688z M166.33105,157.37061c4.84961,0,8.79492,3.94482,8.79492,8.79395
			s-3.94531,8.79443-8.79492,8.79443c-4.83984,0-8.77734-3.94531-8.77734-8.79443S161.49121,157.37061,166.33105,157.37061z"/>
		<path fill="#767676" d="M166.33105,227.70605c33.93457,0,61.54199-27.60742,61.54199-61.5415s-27.60742-61.5415-61.54199-61.5415
			c-33.9248,0-61.52441,27.60742-61.52441,61.5415S132.40625,227.70605,166.33105,227.70605z M166.33105,122.21094
			c24.23633,0,43.9541,19.71777,43.9541,43.95361s-19.71777,43.95361-43.9541,43.95361
			c-24.22656,0-43.93652-19.71777-43.93652-43.95361S142.10449,122.21094,166.33105,122.21094z"/>
		<path fill="#767676" d="M166.33105,262.86572c53.32129,0,96.70117-43.37988,96.70117-96.70117
			c0-53.3208-43.37988-96.70068-96.70117-96.70068s-96.70117,43.37988-96.70117,96.70068
			C69.62988,219.48584,113.00977,262.86572,166.33105,262.86572z M166.33105,87.05176
			c43.62305,0,79.11328,35.48975,79.11328,79.11279s-35.49023,79.11328-79.11328,79.11328s-79.11328-35.49023-79.11328-79.11328
			S122.70801,87.05176,166.33105,87.05176z"/>
		<path fill="#767676" d="M166.33105,298.02539c72.70898,0,131.86133-59.15234,131.86133-131.86084
			c0-72.70801-59.15234-131.86035-131.86133-131.86035c-72.70801,0-131.86035,59.15234-131.86035,131.86035
			C34.4707,238.87305,93.62305,298.02539,166.33105,298.02539z M166.33105,51.89209
			c63.01074,0,114.27344,51.2627,114.27344,114.27246c0,63.01025-51.2627,114.27295-114.27344,114.27295
			c-63.00977,0-114.27246-51.2627-114.27246-114.27295C52.05859,103.15479,103.32129,51.89209,166.33105,51.89209z"/>
		<path fill="#767676" d="M166.33105,333.18457c92.0957,0,167.02051-74.9248,167.02051-167.02002
			c0-86.3717-65.90173-157.63971-150.06311-166.16455h-33.91467C70.1676,8.02301,7.14673,71.62317,0,151.0816v30.16595
			C7.6499,266.30066,79.3208,333.18457,166.33105,333.18457z M166.33105,16.73242
			c82.39746,0,149.43262,67.03516,149.43262,149.43213s-67.03516,149.43213-149.43262,149.43213
			c-82.39648,0-149.43164-67.03516-149.43164-149.43213S83.93457,16.73242,166.33105,16.73242z"/>
		<path fill="#767676" d="M334,279.02759v-35.70251C315.52588,283.30908,283.16528,315.60864,243.1355,334h35.80591
			C300.63794,319.39526,319.36365,300.70117,334,279.02759z"/>
		<path fill="#767676" d="M334,89.00409V53.30194C319.91333,32.44214,302.03235,14.35065,281.36682,0h-34.6842
			C285.0769,18.64142,316.07434,50.20721,334,89.00409z"/>
		<path fill="#767676" d="M85.97253,0h-34.6864C31.26917,13.89923,13.87451,31.31476,0,51.34943v34.76831
			C18.1123,48.64001,48.52979,18.1778,85.97253,0z"/>
		<path fill="#767676" d="M0,246.21143v34.76855C14.43335,301.82178,32.67041,319.8374,53.71191,334H89.5199
			C50.45288,316.05249,18.68066,284.86523,0,246.21143z"/>
		<path fill="#767676" d="M334,308.04736c-7.92651,9.35339-16.61816,18.03589-25.9801,25.95264h25.97241
			c0.00256-0.00256,0.00513-0.005,0.00769-0.00757V308.04736z"/>
		<path fill="#767676" d="M0,309.65222V334h24.62061C15.79443,326.53564,7.55518,318.39868,0,309.65222z"/>
		<path fill="#767676" d="M22.646,0H0v22.67731C6.9917,14.58325,14.56055,7.00134,22.646,0z"/>
		<path fill="#767676" d="M334,24.28223V0h-24.00537C318.61035,7.4599,326.63086,15.58655,334,24.28223z"/>
	</g>
</g>
<g id="Layer_3" display="none">
</g>
<g id="Layer_2" display="none">
</g>
</svg>
