<?xml version="1.0" encoding="utf-8"?>
<!-- Generator: Adobe Illustrator 21.1.0, SVG Export Plug-In . SVG Version: 6.00 Build 0)  -->
<svg version="1.2" baseProfile="tiny" xmlns="http://www.w3.org/2000/svg" xmlns:xlink="http://www.w3.org/1999/xlink" x="0px"
	 y="0px" viewBox="0 0 334 334" xml:space="preserve">
<g id="Layer_1">
	<g>
		<path fill="#828282" d="M0,250.8457v13.16357C17.01025,293.02173,41.37988,317.21948,70.53979,334h13.44067
			C47.80859,316.10449,18.24048,286.81592,0,250.8457z"/>
		<path fill="#828282" d="M0,297.54272v9.9646C8.10547,317.07959,17.01709,325.94653,26.63428,334h10.06055
			C23.03564,323.38062,10.70166,311.13428,0,297.54272z"/>
		<path fill="#828282" d="M0,317.10449v9.2644c2.49658,2.60229,5.05127,5.14771,7.66602,7.6311h9.32812
			C11.03687,328.67041,5.36011,323.03394,0,317.10449z"/>
		<path fill="#828282" d="M0,275.9585v11.09619C13.10327,305.13672,29.07031,321.01343,47.2417,334h11.21094
			C35.17749,318.92285,15.24146,299.11816,0,275.9585z"/>
		<path fill="#828282" d="M0,217.06079v18.70142C18.55322,280.37134,54.54321,315.96826,99.41895,334h19.4375
			C62.073,317.84741,17.06152,273.46436,0,217.06079z"/>
		<path fill="#828282" d="M166.39941,37.30371c-71.42383,0-129.53027,58.10645-129.53027,129.5293
			c0,71.42383,58.10645,129.53027,129.53027,129.53027s129.53027-58.10645,129.53027-129.53027
			C295.92969,95.41016,237.82324,37.30371,166.39941,37.30371z M166.39941,290.03418
			c-67.94141,0-123.2168-55.26758-123.2168-123.20117c0-67.93262,55.27539-123.2002,123.2168-123.2002
			c67.93359,0,123.20117,55.26758,123.20117,123.2002C289.60059,234.7666,234.33301,290.03418,166.39941,290.03418z"/>
		<path fill="#828282" d="M166.39941,49.94727c-64.45996,0-116.90234,52.43457-116.90234,116.88574
			c0,64.45215,52.44238,116.88672,116.90234,116.88672c64.45215,0,116.88672-52.43457,116.88672-116.88672
			C283.28613,102.38184,230.85156,49.94727,166.39941,49.94727z M166.38281,277.40723
			c-60.96094,0-110.55664-49.60352-110.55664-110.57422c0-60.96973,49.5957-110.57324,110.55664-110.57324
			c60.96973,0,110.57324,49.60352,110.57324,110.57324C276.95605,227.80371,227.35254,277.40723,166.38281,277.40723z"/>
		<path fill="#828282" d="M166.38281,62.57422c-57.47949,0-104.24219,46.77051-104.24219,104.25879
			c0,57.48926,46.7627,104.25977,104.24219,104.25977c57.48828,0,104.25879-46.77051,104.25879-104.25977
			C270.6416,109.34473,223.87109,62.57422,166.38281,62.57422z M166.38281,264.7627
			c-53.99805,0-97.92969-43.93164-97.92969-97.92969s43.93164-97.92871,97.92969-97.92871s97.92871,43.93066,97.92871,97.92871
			S220.38086,264.7627,166.38281,264.7627z"/>
		<path fill="#828282" d="M166.38281,75.21875c-50.5166,0-91.61523,41.09766-91.61523,91.61426s41.09863,91.61523,91.61523,91.61523
			s91.61426-41.09863,91.61426-91.61523S216.89941,75.21875,166.38281,75.21875z M166.36621,252.13574
			c-47.02637,0-85.28516-38.2666-85.28516-85.30273c0-47.03516,38.25879-85.30176,85.28516-85.30176
			c47.03516,0,85.30176,38.2666,85.30176,85.30176C251.66797,213.86914,213.40137,252.13574,166.36621,252.13574z"/>
		<path fill="#828282" d="M334,232.56323v-20.09692C318.03882,271.04736,272.13477,317.41138,213.8125,334h19.46582
			C279.2229,315.53906,315.86035,278.66919,334,232.56323z"/>
		<path fill="#828282" d="M333.77832,166.83301C333.77832,79.302,266.26465,7.25439,180.57861,0h-28.49146
			C72.73462,6.71899,8.98145,69.02026,0,147.7251v38.21582C9.15747,266.18848,75.25439,329.38672,156.77026,334h19.12476
			C263.79199,329.02588,333.77832,255.95312,333.77832,166.83301z M166.41602,327.94922
			c-88.83887,0-161.11523-72.27637-161.11523-161.11621c0-88.83887,72.27637-161.11523,161.11523-161.11523
			c88.83984,0,161.11621,72.27637,161.11621,161.11523C327.53223,255.67285,255.25586,327.94922,166.41602,327.94922z"/>
		<path fill="#828282" d="M166.41602,24.67578c-78.39551,0-142.17383,63.77148-142.17383,142.15723
			c0,78.38672,63.77832,142.1582,142.17383,142.1582c78.38672,0,142.1582-63.77148,142.1582-142.1582
			C308.57422,88.44727,244.80273,24.67578,166.41602,24.67578z M166.39941,302.67773
			c-74.90527,0-135.84473-60.93945-135.84473-135.84473c0-74.9043,60.93945-135.84375,135.84473-135.84375
			s135.84473,60.93945,135.84473,135.84375C302.24414,241.73828,241.30469,302.67773,166.39941,302.67773z"/>
		<path fill="#828282" d="M166.36621,113.13379c-29.62012,0-53.7168,24.08887-53.7168,53.69922
			c0,29.62012,24.09668,53.7168,53.7168,53.7168c29.61035,0,53.69922-24.09668,53.69922-53.7168
			C220.06543,137.22266,195.97656,113.13379,166.36621,113.13379z M166.34863,214.21973
			c-26.12793,0-47.38574-21.25781-47.38574-47.38672c0-26.12793,21.25781-47.38574,47.38574-47.38574
			c26.12891,0,47.38672,21.25781,47.38672,47.38574C213.73535,192.96191,192.47754,214.21973,166.34863,214.21973z"/>
		<path fill="#828282" d="M166.36621,87.8457c-43.54492,0-78.9707,35.43359-78.9707,78.9873
			c0,43.55469,35.42578,78.98828,78.9707,78.98828c43.55371,0,78.9873-35.43359,78.9873-78.98828
			C245.35352,123.2793,209.91992,87.8457,166.36621,87.8457z M166.36621,239.49121c-40.06348,0-72.6582-32.59473-72.6582-72.6582
			s32.59473-72.65723,72.6582-72.65723s72.65723,32.59375,72.65723,72.65723S206.42969,239.49121,166.36621,239.49121z"/>
		<path fill="#828282" d="M166.33203,151.0332c-8.71289,0-15.80078,7.08789-15.80078,15.7998
			c0,8.71289,7.08789,15.80078,15.80078,15.80078s15.80078-7.08789,15.80078-15.80078
			C182.13281,158.12109,175.04492,151.0332,166.33203,151.0332z M166.33203,176.30469c-5.23145,0-9.4873-4.24902-9.4873-9.47168
			c0-5.22168,4.25586-9.4707,9.4873-9.4707c5.22168,0,9.4707,4.24902,9.4707,9.4707
			C175.80273,172.05566,171.55371,176.30469,166.33203,176.30469z"/>
		<path fill="#828282" d="M166.34863,125.76172c-22.64746,0-41.07129,18.42383-41.07129,41.07129
			s18.42383,41.07227,41.07129,41.07227s41.07227-18.4248,41.07227-41.07227S188.99609,125.76172,166.34863,125.76172z
			 M166.34863,201.57617c-19.16602,0-34.75879-15.58594-34.75879-34.74316c0-19.15625,15.59277-34.74219,34.75879-34.74219
			c19.15723,0,34.74316,15.58594,34.74316,34.74219C201.0918,185.99023,185.50586,201.57617,166.34863,201.57617z"/>
		<path fill="#828282" d="M166.34863,138.40527c-15.68457,0-28.44434,12.75195-28.44434,28.42773
			s12.75977,28.42871,28.44434,28.42871c15.67578,0,28.42871-12.75293,28.42871-28.42871S182.02441,138.40527,166.34863,138.40527z
			 M166.33203,188.94824c-12.19434,0-22.11523-9.9209-22.11523-22.11523c0-12.19336,9.9209-22.11426,22.11523-22.11426
			s22.11523,9.9209,22.11523,22.11426C188.44727,179.02734,178.52637,188.94824,166.33203,188.94824z"/>
		<path fill="#828282" d="M166.33203,163.67676c-1.75,0-3.17285,1.41602-3.17285,3.15625c0,1.74121,1.42285,3.15723,3.17285,3.15723
			c1.74023,0,3.15625-1.41602,3.15625-3.15723C169.48828,165.09277,168.07227,163.67676,166.33203,163.67676z"/>
		<path fill="#828282" d="M166.36621,100.49023c-36.58203,0-66.34375,29.76074-66.34375,66.34277
			s29.76172,66.34375,66.34375,66.34375s66.34277-29.76172,66.34277-66.34375S202.94824,100.49023,166.36621,100.49023z
			 M166.36621,226.86426c-33.10156,0-60.03125-26.92969-60.03125-60.03125c0-33.0918,26.92969-60.01367,60.03125-60.01367
			c33.0918,0,60.01367,26.92188,60.01367,60.01367C226.37988,199.93457,199.45801,226.86426,166.36621,226.86426z"/>
		<path fill="#828282" d="M334,37.77148V27.64404C325.67334,17.63281,316.46509,8.38232,306.50195,0h-10.03027
			C310.50464,10.96826,323.11719,23.66919,334,37.77148z"/>
		<path fill="#828282" d="M334,325.05469v-9.36523C328.26978,322.13525,322.17651,328.25,315.74854,334h9.33936
			C328.14038,331.10059,331.10938,328.11523,334,325.05469z"/>
		<path fill="#828282" d="M334,306.02295v-10.12769C323.00586,310.14209,310.24316,322.95532,296.03735,334h10.0708
			C316.22314,325.53027,325.56348,316.16626,334,306.02295z"/>
		<path fill="#828282" d="M334,261.78516v-13.55737C315.88232,285.39453,285.76245,315.67212,248.7168,334h13.44946
			C292.07153,316.79199,316.94165,291.78638,334,261.78516z"/>
		<path fill="#828282" d="M16.6189,0H7.30933C4.81763,2.37646,2.38379,4.81299,0,7.29761v9.26489
			C5.24805,10.75708,10.79785,5.23096,16.6189,0z"/>
		<path fill="#828282" d="M334,285.30103v-11.29956C318.60107,298.00684,298.18652,318.49805,274.25391,334h11.23633
			C304.24878,320.59399,320.66577,304.11401,334,285.30103z"/>
		<path fill="#828282" d="M334,121.19971v-20.09644C315.96777,55.27075,279.65454,18.56836,234.09204,0h-19.15918
			C272.72021,16.86182,318.1416,62.99585,334,121.19971z"/>
		<path fill="#828282" d="M166.41602,12.03223c-85.35742,0-154.80078,69.44336-154.80078,154.80078
			c0,85.3584,69.44336,154.80176,154.80078,154.80176c85.3584,0,154.80176-69.44336,154.80176-154.80176
			C321.21777,81.47559,251.77441,12.03223,166.41602,12.03223z M166.41602,315.30566
			c-81.87695,0-148.48828-66.60449-148.48828-148.47266c0-81.86719,66.61133-148.47168,148.48828-148.47168
			c81.86816,0,148.47266,66.60449,148.47266,148.47168C314.88867,248.70117,248.28418,315.30566,166.41602,315.30566z"/>
		<path fill="#828282" d="M334,59.66504V48.36548C320.7749,29.7063,304.51416,13.34619,285.94702,0h-11.18726
			C298.47339,15.46216,318.71021,35.82983,334,59.66504z"/>
		<path fill="#828282" d="M334,17.97754V8.61182C331.22119,5.66943,328.37305,2.79346,325.44458,0h-9.32056
			C322.41455,5.65234,328.38086,11.65674,334,17.97754z"/>
		<path fill="#828282" d="M117.73608,0H98.60522C54.10889,18.13379,18.44067,53.56592,0,97.9043v18.70093
			C16.94873,60.57471,61.48315,16.41553,117.73608,0z"/>
		<path fill="#828282" d="M334,85.43872V71.88135C317.0498,42.07056,292.38306,17.19678,262.73071,0h-13.34448
			C286.125,18.36035,315.99146,48.49634,334,85.43872z"/>
		<path fill="#828282" d="M57.94678,0H46.78516C28.80371,12.92505,12.99268,28.68237,0,46.61182v11.09619
			C15.13037,34.71704,34.8894,15.03564,57.94678,0z"/>
		<path fill="#828282" d="M36.2605,0H26.24072C16.77393,7.96509,7.99438,16.71826,0,26.15967v9.96436
			C10.58887,22.67578,22.77319,10.5415,36.2605,0z"/>
		<path fill="#828282" d="M83.31104,0H69.97534C41.06665,16.76709,16.8999,40.8335,0,69.65723v13.16382
			C18.12793,47.073,47.44385,17.9248,83.31104,0z"/>
		<path fill="#7D7D7D" d="M166.33203,157.3623c-5.23145,0-9.4873,4.24902-9.4873,9.4707c0,5.22266,4.25586,9.47168,9.4873,9.47168
			c5.22168,0,9.4707-4.24902,9.4707-9.47168C175.80273,161.61133,171.55371,157.3623,166.33203,157.3623z M166.33203,169.99023
			c-1.75,0-3.17285-1.41602-3.17285-3.15723c0-1.74023,1.42285-3.15625,3.17285-3.15625c1.74023,0,3.15625,1.41602,3.15625,3.15625
			C169.48828,168.57422,168.07227,169.99023,166.33203,169.99023z"/>
		<path fill="#7D7D7D" d="M166.33203,144.71875c-12.19434,0-22.11523,9.9209-22.11523,22.11426
			c0,12.19434,9.9209,22.11523,22.11523,22.11523s22.11523-9.9209,22.11523-22.11523
			C188.44727,154.63965,178.52637,144.71875,166.33203,144.71875z M166.33203,182.63379
			c-8.71289,0-15.80078-7.08789-15.80078-15.80078c0-8.71191,7.08789-15.7998,15.80078-15.7998s15.80078,7.08789,15.80078,15.7998
			C182.13281,175.5459,175.04492,182.63379,166.33203,182.63379z"/>
		<path fill="#7D7D7D" d="M166.34863,132.09082c-19.16602,0-34.75879,15.58594-34.75879,34.74219
			c0,19.15723,15.59277,34.74316,34.75879,34.74316c19.15723,0,34.74316-15.58594,34.74316-34.74316
			C201.0918,147.67676,185.50586,132.09082,166.34863,132.09082z M166.34863,195.26172
			c-15.68457,0-28.44434-12.75293-28.44434-28.42871s12.75977-28.42773,28.44434-28.42773
			c15.67578,0,28.42871,12.75195,28.42871,28.42773S182.02441,195.26172,166.34863,195.26172z"/>
		<path fill="#7D7D7D" d="M166.34863,119.44727c-26.12793,0-47.38574,21.25781-47.38574,47.38574
			c0,26.12891,21.25781,47.38672,47.38574,47.38672c26.12891,0,47.38672-21.25781,47.38672-47.38672
			C213.73535,140.70508,192.47754,119.44727,166.34863,119.44727z M166.34863,207.90527
			c-22.64746,0-41.07129-18.4248-41.07129-41.07227s18.42383-41.07129,41.07129-41.07129s41.07227,18.42383,41.07227,41.07129
			S188.99609,207.90527,166.34863,207.90527z"/>
		<path fill="#7D7D7D" d="M166.36621,106.81934c-33.10156,0-60.03125,26.92188-60.03125,60.01367
			c0,33.10156,26.92969,60.03125,60.03125,60.03125c33.0918,0,60.01367-26.92969,60.01367-60.03125
			C226.37988,133.74121,199.45801,106.81934,166.36621,106.81934z M166.36621,220.5498
			c-29.62012,0-53.7168-24.09668-53.7168-53.7168c0-29.61035,24.09668-53.69922,53.7168-53.69922
			c29.61035,0,53.69922,24.08887,53.69922,53.69922C220.06543,196.45312,195.97656,220.5498,166.36621,220.5498z"/>
		<path fill="#7D7D7D" d="M166.36621,94.17578c-40.06348,0-72.6582,32.59375-72.6582,72.65723s32.59473,72.6582,72.6582,72.6582
			s72.65723-32.59473,72.65723-72.6582S206.42969,94.17578,166.36621,94.17578z M166.36621,233.17676
			c-36.58203,0-66.34375-29.76172-66.34375-66.34375s29.76172-66.34277,66.34375-66.34277s66.34277,29.76074,66.34277,66.34277
			S202.94824,233.17676,166.36621,233.17676z"/>
		<path fill="#7D7D7D" d="M166.36621,81.53125c-47.02637,0-85.28516,38.2666-85.28516,85.30176
			c0,47.03613,38.25879,85.30273,85.28516,85.30273c47.03516,0,85.30176-38.2666,85.30176-85.30273
			C251.66797,119.79785,213.40137,81.53125,166.36621,81.53125z M166.36621,245.82129
			c-43.54492,0-78.9707-35.43359-78.9707-78.98828c0-43.55371,35.42578-78.9873,78.9707-78.9873
			c43.55371,0,78.9873,35.43359,78.9873,78.9873C245.35352,210.3877,209.91992,245.82129,166.36621,245.82129z"/>
		<path fill="#7D7D7D" d="M166.38281,68.9043c-53.99805,0-97.92969,43.93066-97.92969,97.92871s43.93164,97.92969,97.92969,97.92969
			s97.92871-43.93164,97.92871-97.92969S220.38086,68.9043,166.38281,68.9043z M166.38281,258.44824
			c-50.5166,0-91.61523-41.09863-91.61523-91.61523s41.09863-91.61426,91.61523-91.61426s91.61426,41.09766,91.61426,91.61426
			S216.89941,258.44824,166.38281,258.44824z"/>
		<path fill="#7D7D7D" d="M166.38281,56.25977c-60.96094,0-110.55664,49.60352-110.55664,110.57324
			c0,60.9707,49.5957,110.57422,110.55664,110.57422c60.96973,0,110.57324-49.60352,110.57324-110.57422
			C276.95605,105.86328,227.35254,56.25977,166.38281,56.25977z M166.38281,271.09277
			c-57.47949,0-104.24219-46.77051-104.24219-104.25977c0-57.48828,46.7627-104.25879,104.24219-104.25879
			c57.48828,0,104.25879,46.77051,104.25879,104.25879C270.6416,224.32227,223.87109,271.09277,166.38281,271.09277z"/>
		<path fill="#7D7D7D" d="M166.39941,43.63281c-67.94141,0-123.2168,55.26758-123.2168,123.2002
			c0,67.93359,55.27539,123.20117,123.2168,123.20117c67.93359,0,123.20117-55.26758,123.20117-123.20117
			C289.60059,98.90039,234.33301,43.63281,166.39941,43.63281z M166.39941,283.71973
			c-64.45996,0-116.90234-52.43457-116.90234-116.88672c0-64.45117,52.44238-116.88574,116.90234-116.88574
			c64.45215,0,116.88672,52.43457,116.88672,116.88574C283.28613,231.28516,230.85156,283.71973,166.39941,283.71973z"/>
		<path fill="#7D7D7D" d="M166.39941,30.98926c-74.90527,0-135.84473,60.93945-135.84473,135.84375
			c0,74.90527,60.93945,135.84473,135.84473,135.84473s135.84473-60.93945,135.84473-135.84473
			C302.24414,91.92871,241.30469,30.98926,166.39941,30.98926z M166.39941,296.36328
			c-71.42383,0-129.53027-58.10645-129.53027-129.53027c0-71.42285,58.10645-129.5293,129.53027-129.5293
			s129.53027,58.10645,129.53027,129.5293C295.92969,238.25684,237.82324,296.36328,166.39941,296.36328z"/>
		<path fill="#7D7D7D" d="M166.41602,18.36133c-81.87695,0-148.48828,66.60449-148.48828,148.47168
			c0,81.86816,66.61133,148.47266,148.48828,148.47266c81.86816,0,148.47266-66.60449,148.47266-148.47266
			C314.88867,84.96582,248.28418,18.36133,166.41602,18.36133z M166.41602,308.99121
			c-78.39551,0-142.17383-63.77148-142.17383-142.1582c0-78.38574,63.77832-142.15723,142.17383-142.15723
			c78.38672,0,142.1582,63.77148,142.1582,142.15723C308.57422,245.21973,244.80273,308.99121,166.41602,308.99121z"/>
		<path fill="#7D7D7D" d="M166.41602,5.71777c-88.83887,0-161.11523,72.27637-161.11523,161.11523
			c0,88.83984,72.27637,161.11621,161.11523,161.11621c88.83984,0,161.11621-72.27637,161.11621-161.11621
			C327.53223,77.99414,255.25586,5.71777,166.41602,5.71777z M166.41602,321.63477
			c-85.35742,0-154.80078-69.44336-154.80078-154.80176c0-85.35742,69.44336-154.80078,154.80078-154.80078
			c85.3584,0,154.80176,69.44336,154.80176,154.80078C321.21777,252.19141,251.77441,321.63477,166.41602,321.63477z"/>
		<path fill="#7D7D7D" d="M334,212.46631v-91.2666C318.1416,62.99585,272.72021,16.86182,214.93286,0h-34.35425
			c85.68604,7.25439,153.19971,79.302,153.19971,166.83301c0,89.12012-69.98633,162.19287-157.8833,167.16699h37.91748
			C272.13477,317.41138,318.03882,271.04736,334,212.46631z"/>
		<path fill="#7D7D7D" d="M0,185.94092v31.11987C17.06152,273.46436,62.073,317.84741,118.85645,334h37.91382
			C75.25439,329.38672,9.15747,266.18848,0,185.94092z"/>
		<path fill="#7D7D7D" d="M152.08716,0h-34.35107C61.48315,16.41553,16.94873,60.57471,0,116.60522v31.11987
			C8.98145,69.02026,72.73462,6.71899,152.08716,0z"/>
		<path fill="#7D7D7D" d="M98.60522,0H83.31104C47.44385,17.9248,18.12793,47.073,0,82.82104V97.9043
			C18.44067,53.56592,54.10889,18.13379,98.60522,0z"/>
		<path fill="#7D7D7D" d="M334,248.22778v-15.66455C315.86035,278.66919,279.2229,315.53906,233.27832,334h15.43848
			C285.76245,315.67212,315.88232,285.39453,334,248.22778z"/>
		<path fill="#7D7D7D" d="M334,101.10327V85.43872C315.99146,48.49634,286.125,18.36035,249.38623,0h-15.29419
			C279.65454,18.56836,315.96777,55.27075,334,101.10327z"/>
		<path fill="#7D7D7D" d="M0,235.76221v15.0835C18.24048,286.81592,47.80859,316.10449,83.98047,334h15.43848
			C54.54321,315.96826,18.55322,280.37134,0,235.76221z"/>
		<path fill="#7D7D7D" d="M334,71.88135V59.66504C318.71021,35.82983,298.47339,15.46216,274.75977,0h-12.02905
			C292.38306,17.19678,317.0498,42.07056,334,71.88135z"/>
		<path fill="#7D7D7D" d="M334,274.00146v-12.21631C316.94165,291.78638,292.07153,316.79199,262.16626,334h12.08765
			C298.18652,318.49805,318.60107,298.00684,334,274.00146z"/>
		<path fill="#7D7D7D" d="M0,264.00928v11.94922C15.24146,299.11816,35.17749,318.92285,58.45264,334h12.08716
			C41.37988,317.21948,17.01025,293.02173,0,264.00928z"/>
		<path fill="#7D7D7D" d="M69.97534,0H57.94678C34.8894,15.03564,15.13037,34.71704,0,57.70801v11.94922
			C16.8999,40.8335,41.06665,16.76709,69.97534,0z"/>
		<path fill="#7D7D7D" d="M46.78516,0H36.2605C22.77319,10.5415,10.58887,22.67578,0,36.12402v10.48779
			C12.99268,28.68237,28.80371,12.92505,46.78516,0z"/>
		<path fill="#7D7D7D" d="M0,287.05469v10.48804C10.70166,311.13428,23.03564,323.38062,36.69482,334H47.2417
			C29.07031,321.01343,13.10327,305.13672,0,287.05469z"/>
		<path fill="#7D7D7D" d="M334,295.89526v-10.59424C320.66577,304.11401,304.24878,320.59399,285.49023,334h10.54712
			C310.24316,322.95532,323.00586,310.14209,334,295.89526z"/>
		<path fill="#7D7D7D" d="M334,48.36548V37.77148C323.11719,23.66919,310.50464,10.96826,296.47168,0h-10.52466
			C304.51416,13.34619,320.7749,29.7063,334,48.36548z"/>
		<path fill="#7D7D7D" d="M334,27.64404v-9.6665C328.38086,11.65674,322.41455,5.65234,316.12402,0h-9.62207
			C316.46509,8.38232,325.67334,17.63281,334,27.64404z"/>
		<path fill="#7D7D7D" d="M0,307.50732v9.59717C5.36011,323.03394,11.03687,328.67041,16.99414,334h9.64014
			C17.01709,325.94653,8.10547,317.07959,0,307.50732z"/>
		<path fill="#7D7D7D" d="M334,315.68945v-9.6665c-8.43652,10.14331-17.77686,19.50732-27.89185,27.97705h9.64038
			C322.17651,328.25,328.26978,322.13525,334,315.68945z"/>
		<path fill="#7D7D7D" d="M26.24072,0H16.6189C10.79785,5.23096,5.24805,10.75708,0,16.5625v9.59717
			C7.99438,16.71826,16.77393,7.96509,26.24072,0z"/>
		<path fill="#7D7D7D" d="M334,325.05469c-2.89062,3.06055-5.85962,6.0459-8.91211,8.94531H334V325.05469z"/>
		<path fill="#7D7D7D" d="M7.30933,0H0v7.29761C2.38379,4.81299,4.81763,2.37646,7.30933,0z"/>
		<path fill="#7D7D7D" d="M0,326.3689V334h7.66602C5.05127,331.5166,2.49658,328.97119,0,326.3689z"/>
		<path fill="#7D7D7D" d="M334,8.61182V0h-8.55542C328.37305,2.79346,331.22119,5.66943,334,8.61182z"/>
	</g>
</g>
<g id="Layer_3" display="none">
</g>
<g id="Layer_2" display="none">
</g>
</svg>
