<?xml version="1.0" encoding="utf-8"?>
<!-- Generator: Adobe Illustrator 21.1.0, SVG Export Plug-In . SVG Version: 6.00 Build 0)  -->
<svg version="1.2" baseProfile="tiny" xmlns="http://www.w3.org/2000/svg" xmlns:xlink="http://www.w3.org/1999/xlink" x="0px"
	 y="0px" viewBox="0 0 334 334" xml:space="preserve">
<g id="Layer_1">
	<g>
		<path fill="#818181" d="M167.0166,156.70312c-5.22656,0-9.47852,4.24512-9.47852,9.46191
			c0,5.21777,4.25195,9.46289,9.47852,9.46289c5.21777,0,9.46289-4.24512,9.46289-9.46289
			C176.47949,160.94824,172.23438,156.70312,167.0166,156.70312z M167,171.85254c-3.13574,0-5.68652-2.55078-5.68652-5.6875
			c0-3.13574,2.55078-5.68652,5.68652-5.68652c3.13672,0,5.6875,2.55078,5.6875,5.68652
			C172.6875,169.30176,170.13672,171.85254,167,171.85254z"/>
		<path fill="#818181" d="M0,280.76953v6.5271C13.06543,305.26196,28.94775,321.05078,47.00293,334h6.58154
			C32.57935,319.75586,14.3855,301.67065,0,280.76953z"/>
		<path fill="#818181" d="M0,293.6333v6.13135C10.14917,312.4292,21.69971,323.92334,34.42456,334h6.18774
			C25.31445,322.44873,11.64502,308.85547,0,293.6333z"/>
		<path fill="#818181" d="M0,305.74829v5.83008C6.97021,319.57642,14.50244,327.07129,22.53711,334h5.85767
			C18.08862,325.4707,8.58545,316.00635,0,305.74829z"/>
		<path fill="#818181" d="M0,317.28687v5.54834C3.61157,326.68433,7.35498,330.40698,11.22168,334h5.58813
			C10.92188,328.7229,5.30664,323.14795,0,317.28687z"/>
		<path fill="#818181" d="M0,266.83984v7.11426C15.60327,298.0498,36.27173,318.57178,60.48999,334h7.23853
			C40.00586,317.53735,16.68457,294.41382,0,266.83984z"/>
		<path fill="#818181" d="M0,233.08008v9.55176C18.63135,283.16357,51.59033,315.79443,92.35449,334h9.85278
			C55.74902,316.00171,18.56787,279.25049,0,233.08008z"/>
		<path fill="#818181" d="M0,208.76245v13.37891C17.81787,275.15601,60.22168,316.97559,113.59668,334h14.15356
			C65.30591,319.39746,15.81445,270.74243,0,208.76245z"/>
		<path fill="#818181" d="M0,328.32202v5.40088c0.09375,0.09326,0.18994,0.18384,0.28369,0.2771h5.41284
			C3.76416,332.14111,1.86768,330.24561,0,328.32202z"/>
		<path fill="#818181" d="M0,251.32715v7.96338C17.5874,290.70557,43.77295,316.6814,75.35815,334h8.14062
			C47.62744,316.07715,18.2627,286.99854,0,251.32715z"/>
		<path fill="#818181" d="M121.22778,0h-12.59595C57.59961,17.98022,17.26172,58.83008,0,110.18921v13.37866
			C15.25952,63.76294,61.87646,16.37158,121.22778,0z"/>
		<circle fill="#818181" cx="167.00024" cy="166.16528" r="1.896"/>
		<path fill="#818181" d="M38.43506,0h-6.08301C20.44434,9.67139,9.59448,20.59326,0,32.56543v6.13135
			C11.08936,24.20093,24.01587,11.18457,38.43506,0z"/>
		<path fill="#818181" d="M51.17725,0H44.7146C27.60449,12.62842,12.50977,27.83179,0,45.03345v6.5271
			C13.83179,31.46387,31.1897,13.97827,51.17725,0z"/>
		<path fill="#818181" d="M14.95996,0H9.42798C6.19238,3.07129,3.05273,6.24146,0,9.49487v5.54834
			C4.74902,9.79785,9.74316,4.77954,14.95996,0z"/>
		<path fill="#818181" d="M26.42041,0h-5.78369C13.31445,6.46045,6.41602,13.38965,0,20.75171v5.83008
			C8.03223,16.98486,16.875,8.09131,26.42041,0z"/>
		<path fill="#818181" d="M98.05273,0h-9.32397C49.6377,18.49194,18.07544,50.37549,0,89.69824v9.55225
			C18.01099,54.46484,53.53516,18.5415,98.05273,0z"/>
		<path fill="#818181" d="M80.23535,0h-7.85938C42.12354,17.29785,17.03076,42.61938,0,73.04028v7.96265
			C17.70605,46.41919,45.84717,18.03271,80.23535,0z"/>
		<path fill="#818181" d="M64.96313,0h-7.03687C34.81348,15.22754,15.04883,35.13647,0,58.37598v7.1145
			C16.12695,38.83789,38.45361,16.34082,64.96313,0z"/>
		<path fill="#818181" d="M167.0498,111.2373c-30.27832,0-54.91113,24.64062-54.91113,54.92773s24.63281,54.92773,54.91113,54.92773
			c30.28711,0,54.92773-24.64062,54.92773-54.92773S197.33691,111.2373,167.0498,111.2373z M167.0498,217.30078
			c-28.19629,0-51.13574-22.93945-51.13574-51.13574s22.93945-51.13574,51.13574-51.13574s51.13574,22.93945,51.13574,51.13574
			S195.24609,217.30078,167.0498,217.30078z"/>
		<path fill="#818181" d="M167.08301,80.93848c-46.98438,0-85.20996,38.23242-85.20996,85.22656
			s38.22559,85.22656,85.20996,85.22656c46.99414,0,85.22656-38.23242,85.22656-85.22656S214.07715,80.93848,167.08301,80.93848z
			 M167.08301,247.59961c-44.90332,0-81.43457-36.53125-81.43457-81.43457s36.53125-81.43457,81.43457-81.43457
			s81.43457,36.53125,81.43457,81.43457S211.98633,247.59961,167.08301,247.59961z"/>
		<path fill="#818181" d="M167.13184,27.90723c-76.22656,0-138.24121,62.02246-138.24121,138.25781
			s62.01465,138.25781,138.24121,138.25781c76.23633,0,138.25879-62.02246,138.25879-138.25781
			S243.36816,27.90723,167.13184,27.90723z M167.13184,300.63086c-74.14453,0-134.46582-60.32129-134.46582-134.46582
			S92.9873,31.69922,167.13184,31.69922c74.14551,0,134.4668,60.32129,134.4668,134.46582S241.27734,300.63086,167.13184,300.63086z
			"/>
		<path fill="#818181" d="M167.13184,35.49023c-72.05371,0-130.6748,58.62109-130.6748,130.6748
			s58.62109,130.6748,130.6748,130.6748c72.05469,0,130.67578-58.62109,130.67578-130.6748S239.18652,35.49023,167.13184,35.49023z
			 M167.13281,293.04785c-69.97363,0-126.90039-56.91895-126.90039-126.88281S97.15918,39.28223,167.13281,39.28223
			c69.96387,0,126.88281,56.91895,126.88281,126.88281S237.09668,293.04785,167.13281,293.04785z"/>
		<path fill="#818181" d="M167.08301,88.52148c-42.8125,0-77.64355,34.83105-77.64355,77.64355s34.83105,77.64355,77.64355,77.64355
			s77.64355-34.83105,77.64355-77.64355S209.89551,88.52148,167.08301,88.52148z M167.06641,240.0332
			c-40.72168,0-73.85156-33.13672-73.85156-73.86816s33.12988-73.86816,73.85156-73.86816
			c40.73145,0,73.86816,33.13672,73.86816,73.86816S207.79785,240.0332,167.06641,240.0332z"/>
		<path fill="#818181" d="M167.09961,73.37207c-51.1748,0-92.80957,41.62695-92.80957,92.79297s41.63477,92.79297,92.80957,92.79297
			c51.16602,0,92.79297-41.62695,92.79297-92.79297S218.26562,73.37207,167.09961,73.37207z M167.08301,255.18262
			c-49.0752,0-89.00098-39.93262-89.00098-89.01758s39.92578-89.01758,89.00098-89.01758
			c49.08496,0,89.01758,39.93262,89.01758,89.01758S216.16797,255.18262,167.08301,255.18262z"/>
		<path fill="#818181" d="M167.09961,65.78906c-55.34766,0-100.37598,45.02832-100.37598,100.37598
			s45.02832,100.37598,100.37598,100.37598s100.37598-45.02832,100.37598-100.37598S222.44727,65.78906,167.09961,65.78906z
			 M167.09961,262.74902c-53.26562,0-96.60059-43.32715-96.60059-96.58398s43.33496-96.58398,96.60059-96.58398
			c53.25684,0,96.58398,43.32715,96.58398,96.58398S220.35645,262.74902,167.09961,262.74902z"/>
		<path fill="#818181" d="M167.11621,50.63965c-63.70117,0-115.52637,51.82422-115.52637,115.52539
			s51.8252,115.52539,115.52637,115.52539S282.6416,229.86621,282.6416,166.16504S230.81738,50.63965,167.11621,50.63965z
			 M167.11621,277.89844c-61.61914,0-111.75-50.12305-111.75-111.7334s50.13086-111.7334,111.75-111.7334
			c61.61035,0,111.7334,50.12305,111.7334,111.7334S228.72656,277.89844,167.11621,277.89844z"/>
		<path fill="#818181" d="M167.14844,20.34082c-80.40723,0-145.82422,65.41699-145.82422,145.82422
			s65.41699,145.82422,145.82422,145.82422c80.4082,0,145.8252-65.41699,145.8252-145.82422S247.55664,20.34082,167.14844,20.34082z
			 M167.13184,308.21387c-78.31738,0-142.03223-63.72266-142.03223-142.04883S88.81445,24.11621,167.13184,24.11621
			c78.32715,0,142.0498,63.72266,142.0498,142.04883S245.45898,308.21387,167.13184,308.21387z"/>
		<path fill="#818181" d="M167.13281,43.07324c-67.88281,0-123.10938,55.21875-123.10938,123.0918
			S99.25,289.25684,167.13281,289.25684c67.87305,0,123.0918-55.21875,123.0918-123.0918S235.00586,43.07324,167.13281,43.07324z
			 M167.11621,285.48145c-65.79199,0-119.31738-53.52539-119.31738-119.31641S101.32422,46.84863,167.11621,46.84863
			c65.79102,0,119.31641,53.52539,119.31641,119.31641S232.90723,285.48145,167.11621,285.48145z"/>
		<path fill="#818181" d="M167.0332,126.40332c-21.9248,0-39.76172,17.83691-39.76172,39.76172s17.83691,39.76172,39.76172,39.76172
			c21.93359,0,39.77832-17.83691,39.77832-39.76172S188.9668,126.40332,167.0332,126.40332z M167.0332,202.15137
			c-19.84277,0-35.98535-16.14355-35.98535-35.98633s16.14258-35.98633,35.98535-35.98633s35.98633,16.14355,35.98633,35.98633
			S186.87598,202.15137,167.0332,202.15137z"/>
		<path fill="#818181" d="M167.0166,149.11914c-9.39844,0-17.04492,7.64648-17.04492,17.0459s7.64648,17.0459,17.04492,17.0459
			c9.39941,0,17.0459-7.64648,17.0459-17.0459S176.41602,149.11914,167.0166,149.11914z M167.0166,179.41895
			c-7.31738,0-13.26953-5.94531-13.26953-13.25391c0-7.30762,5.95215-13.25293,13.26953-13.25293
			c7.30859,0,13.25391,5.94531,13.25391,13.25293C180.27051,173.47363,174.3252,179.41895,167.0166,179.41895z"/>
		<path fill="#818181" d="M167.06641,96.08789c-38.63184,0-70.06055,31.43652-70.06055,70.07715
			s31.42871,70.07715,70.06055,70.07715c38.64062,0,70.07715-31.43652,70.07715-70.07715S205.70703,96.08789,167.06641,96.08789z
			 M167.06641,232.4502c-36.5498,0-66.28516-29.73535-66.28516-66.28516s29.73535-66.28516,66.28516-66.28516
			s66.28516,29.73535,66.28516,66.28516S203.61621,232.4502,167.06641,232.4502z"/>
		<path fill="#818181" d="M167.0332,133.96973c-17.75195,0-32.19434,14.44336-32.19434,32.19531
			s14.44238,32.19531,32.19434,32.19531s32.19531-14.44336,32.19531-32.19531S184.78516,133.96973,167.0332,133.96973z
			 M167.0332,194.56836c-15.66992,0-28.41895-12.74121-28.41895-28.40332s12.74902-28.40332,28.41895-28.40332
			c15.66211,0,28.40332,12.74121,28.40332,28.40332S182.69531,194.56836,167.0332,194.56836z"/>
		<path fill="#818181" d="M167.0332,141.55273c-13.58008,0-24.62793,11.04102-24.62793,24.6123s11.04785,24.6123,24.62793,24.6123
			c13.57129,0,24.6123-11.04102,24.6123-24.6123S180.60449,141.55273,167.0332,141.55273z M167.0166,187.00195
			c-11.48926,0-20.83594-9.34766-20.83594-20.83691s9.34668-20.83691,20.83594-20.83691s20.83691,9.34766,20.83691,20.83691
			S178.50586,187.00195,167.0166,187.00195z"/>
		<path fill="#818181" d="M167.0498,118.82031c-26.10547,0-47.34473,21.23926-47.34473,47.34473
			s21.23926,47.34473,47.34473,47.34473s47.34473-21.23926,47.34473-47.34473S193.15527,118.82031,167.0498,118.82031z
			 M167.0332,209.71777c-24.01562,0-43.55273-19.53711-43.55273-43.55273s19.53711-43.55273,43.55273-43.55273
			c24.02441,0,43.56934,19.53711,43.56934,43.55273S191.05762,209.71777,167.0332,209.71777z"/>
		<path fill="#818181" d="M167.14844,12.75781c-84.58008,0-153.39062,68.81836-153.39062,153.40723
			c0,84.58984,68.81055,153.4082,153.39062,153.4082c84.58984,0,153.4082-68.81836,153.4082-153.4082
			C320.55664,81.57617,251.73828,12.75781,167.14844,12.75781z M167.14844,315.78027
			c-82.49805,0-149.61523-67.11719-149.61523-149.61523S84.65039,16.5498,167.14844,16.5498
			c82.49902,0,149.61621,67.11719,149.61621,149.61523S249.64746,315.78027,167.14844,315.78027z"/>
		<path fill="#818181" d="M3.98633,0H0v4.00806C1.31274,2.65601,2.6416,1.32007,3.98633,0z"/>
		<path fill="#818181" d="M167.06641,103.6709c-34.45898,0-62.49414,28.03516-62.49414,62.49414
			s28.03516,62.49414,62.49414,62.49414s62.49414-28.03516,62.49414-62.49414S201.52539,103.6709,167.06641,103.6709z
			 M167.0498,224.88379c-32.36816,0-58.70215-26.34082-58.70215-58.71875s26.33398-58.71875,58.70215-58.71875
			c32.37793,0,58.71875,26.34082,58.71875,58.71875S199.42773,224.88379,167.0498,224.88379z"/>
		<path fill="#818181" d="M334,242.70288v-9.5769C315.42773,279.2749,278.25952,316.00781,231.82056,334h9.85815
			C282.41895,315.80518,315.36279,283.20166,334,242.70288z"/>
		<path fill="#818181" d="M334,287.41479v-6.54956c-14.375,20.86035-32.54492,38.9126-53.51807,53.13477h6.60547
			C305.10132,321.07935,320.95215,305.33105,334,287.41479z"/>
		<path fill="#818181" d="M334,274.05493v-7.12695C317.32056,294.46313,294.02026,317.55469,266.3291,334h7.24731
			C297.76074,318.59326,318.40454,298.10693,334,274.05493z"/>
		<path fill="#818181" d="M334,222.19775v-13.36572C318.16479,270.77905,268.68115,319.40283,206.25366,334h14.17822
			C273.78296,316.98169,316.17261,275.18579,334,222.19775z"/>
		<path fill="#818181" d="M167.11621,58.22266c-59.52832,0-107.95898,48.42285-107.95898,107.94238
			s48.43066,107.94238,107.95898,107.94238c59.51953,0,107.94238-48.42285,107.94238-107.94238
			S226.63574,58.22266,167.11621,58.22266z M167.09961,270.33203c-57.43848,0-104.16699-46.72852-104.16699-104.16699
			S109.66113,61.99805,167.09961,61.99805S271.2666,108.72656,271.2666,166.16504S224.53809,270.33203,167.09961,270.33203z"/>
		<path fill="#818181" d="M334,189.03467v-45.73926C324.07275,70.43945,267.42065,12.24976,195.31885,0h-56.63501
			C66.5481,12.25684,9.87866,70.50537,0,143.41943v45.49121C10.45508,266.08105,73.32373,326.82422,151.46729,334h31.06689
			C260.64331,326.82812,323.49292,266.146,334,189.03467z M167.16504,330.93066c-90.85156,0-164.76465-73.91309-164.76465-164.76562
			c0-90.85156,73.91309-164.76465,164.76465-164.76465c90.85254,0,164.76562,73.91309,164.76562,164.76465
			C331.93066,257.01758,258.01758,330.93066,167.16504,330.93066z"/>
		<path fill="#818181" d="M334,299.88818v-6.14233c-11.62549,15.17651-25.26416,28.7312-40.52295,40.25415h6.198
			C312.3584,323.95605,323.87476,312.50391,334,299.88818z"/>
		<path fill="#818181" d="M334,123.49805v-13.36523C316.72925,58.7998,276.40527,17.97363,225.39624,0h-12.61938
			C272.11133,16.36523,318.7207,63.72607,334,123.49805z"/>
		<path fill="#818181" d="M334,328.45801c-1.8252,1.87671-3.677,3.72705-5.56372,5.54199h5.42456
			c0.0459-0.04565,0.09326-0.09009,0.13916-0.13574V328.45801z"/>
		<path fill="#818181" d="M334,322.97803v-5.56494c-5.27344,5.81543-10.85229,11.34741-16.69897,16.58691h5.61011
			C326.73022,330.45117,330.42969,326.77637,334,322.97803z"/>
		<path fill="#818181" d="M334,311.70483v-5.83862c-8.55957,10.21216-18.02856,19.63721-28.29517,28.13379h5.86865
			C319.56592,327.10791,327.06055,319.65503,334,311.70483z"/>
		<path fill="#818181" d="M334,259.3833v-7.98926C315.73486,287.03516,286.3833,316.08813,250.53442,334h8.16602
			C290.25195,316.69849,316.41455,290.75684,334,259.3833z"/>
		<path fill="#818181" d="M334,65.40234v-7.1272C318.95947,35.0791,299.21924,15.20532,276.14014,0h-7.0459
			C295.57275,16.323,317.87842,38.78809,334,65.40234z"/>
		<path fill="#818181" d="M167.16504,5.19141C78.4043,5.19141,6.19141,77.4043,6.19141,166.16504
			c0,88.76172,72.21289,160.97461,160.97363,160.97461c88.76172,0,160.97461-72.21289,160.97461-160.97461
			C328.13965,77.4043,255.92676,5.19141,167.16504,5.19141z M167.14844,323.36426
			c-86.66992,0-157.18164-70.51953-157.18164-157.19922S80.47852,8.9668,167.14844,8.9668
			c86.67969,0,157.19922,70.51855,157.19922,157.19824S253.82812,323.36426,167.14844,323.36426z"/>
		<path fill="#818181" d="M334,51.46484v-6.54956C321.50806,27.76221,306.44482,12.59961,289.37549,0h-6.48633
			C302.84497,13.95605,320.1792,31.40869,334,51.46484z"/>
		<path fill="#818181" d="M334,99.20459V89.6272C315.91919,50.33716,284.37183,18.48071,245.30444,0h-9.32983
			C280.47314,18.53516,315.98486,54.44043,334,99.20459z"/>
		<path fill="#818181" d="M334,80.93604v-7.98877C316.97168,42.56787,291.90137,17.28027,261.68237,0h-7.88452
			C288.16406,18.021,316.29199,46.38232,334,80.93604z"/>
		<path fill="#818181" d="M334,38.58423v-6.14233C324.43018,20.51807,313.61426,9.63794,301.74756,0h-6.09351
			C310.03491,11.15576,322.93066,24.13379,334,38.58423z"/>
		<path fill="#818181" d="M334,14.91699V9.35205C330.98901,6.14893,327.89331,3.02637,324.70483,0h-5.55371
			C324.3269,4.7417,329.28467,9.7168,334,14.91699z"/>
		<path fill="#818181" d="M334,26.46387v-5.83862C327.61523,13.31055,320.75464,6.4231,313.47412,0h-5.79492
			C317.18555,8.05786,325.99414,16.91235,334,26.46387z"/>
		<path fill="#818181" d="M334,3.87207V0h-3.85352C331.44604,1.27563,332.73047,2.56641,334,3.87207z"/>
		<path fill="#7E7E7E" d="M167,160.47852c-3.13574,0-5.68652,2.55078-5.68652,5.68652c0,3.13672,2.55078,5.6875,5.68652,5.6875
			c3.13672,0,5.6875-2.55078,5.6875-5.6875C172.6875,163.0293,170.13672,160.47852,167,160.47852z M167,168.06152
			c-1.04492,0-1.89551-0.85059-1.89551-1.89648c0-1.04492,0.85059-1.89551,1.89551-1.89551
			c1.0459,0,1.89648,0.85059,1.89648,1.89551C168.89648,167.21094,168.0459,168.06152,167,168.06152z"/>
		<path fill="#7E7E7E" d="M167.0166,152.91211c-7.31738,0-13.26953,5.94531-13.26953,13.25293
			c0,7.30859,5.95215,13.25391,13.26953,13.25391c7.30859,0,13.25391-5.94531,13.25391-13.25391
			C180.27051,158.85742,174.3252,152.91211,167.0166,152.91211z M167.0166,175.62793c-5.22656,0-9.47852-4.24512-9.47852-9.46289
			c0-5.2168,4.25195-9.46191,9.47852-9.46191c5.21777,0,9.46289,4.24512,9.46289,9.46191
			C176.47949,171.38281,172.23438,175.62793,167.0166,175.62793z"/>
		<path fill="#7E7E7E" d="M167.0166,145.32812c-11.48926,0-20.83594,9.34766-20.83594,20.83691s9.34668,20.83691,20.83594,20.83691
			s20.83691-9.34766,20.83691-20.83691S178.50586,145.32812,167.0166,145.32812z M167.0166,183.21094
			c-9.39844,0-17.04492-7.64648-17.04492-17.0459s7.64648-17.0459,17.04492-17.0459c9.39941,0,17.0459,7.64648,17.0459,17.0459
			S176.41602,183.21094,167.0166,183.21094z"/>
		<path fill="#7E7E7E" d="M167.0332,137.76172c-15.66992,0-28.41895,12.74121-28.41895,28.40332
			s12.74902,28.40332,28.41895,28.40332c15.66211,0,28.40332-12.74121,28.40332-28.40332S182.69531,137.76172,167.0332,137.76172z
			 M167.0332,190.77734c-13.58008,0-24.62793-11.04102-24.62793-24.6123s11.04785-24.6123,24.62793-24.6123
			c13.57129,0,24.6123,11.04102,24.6123,24.6123S180.60449,190.77734,167.0332,190.77734z"/>
		<path fill="#7E7E7E" d="M167.0332,130.17871c-19.84277,0-35.98535,16.14355-35.98535,35.98633
			s16.14258,35.98633,35.98535,35.98633s35.98633-16.14355,35.98633-35.98633S186.87598,130.17871,167.0332,130.17871z
			 M167.0332,198.36035c-17.75195,0-32.19434-14.44336-32.19434-32.19531s14.44238-32.19531,32.19434-32.19531
			s32.19531,14.44336,32.19531,32.19531S184.78516,198.36035,167.0332,198.36035z"/>
		<path fill="#7E7E7E" d="M167.0332,122.6123c-24.01562,0-43.55273,19.53711-43.55273,43.55273s19.53711,43.55273,43.55273,43.55273
			c24.02441,0,43.56934-19.53711,43.56934-43.55273S191.05762,122.6123,167.0332,122.6123z M167.0332,205.92676
			c-21.9248,0-39.76172-17.83691-39.76172-39.76172s17.83691-39.76172,39.76172-39.76172
			c21.93359,0,39.77832,17.83691,39.77832,39.76172S188.9668,205.92676,167.0332,205.92676z"/>
		<path fill="#7E7E7E" d="M167.0498,115.0293c-28.19629,0-51.13574,22.93945-51.13574,51.13574s22.93945,51.13574,51.13574,51.13574
			s51.13574-22.93945,51.13574-51.13574S195.24609,115.0293,167.0498,115.0293z M167.0498,213.50977
			c-26.10547,0-47.34473-21.23926-47.34473-47.34473s21.23926-47.34473,47.34473-47.34473s47.34473,21.23926,47.34473,47.34473
			S193.15527,213.50977,167.0498,213.50977z"/>
		<path fill="#7E7E7E" d="M167.0498,107.44629c-32.36816,0-58.70215,26.34082-58.70215,58.71875
			s26.33398,58.71875,58.70215,58.71875c32.37793,0,58.71875-26.34082,58.71875-58.71875S199.42773,107.44629,167.0498,107.44629z
			 M167.0498,221.09277c-30.27832,0-54.91113-24.64062-54.91113-54.92773s24.63281-54.92773,54.91113-54.92773
			c30.28711,0,54.92773,24.64062,54.92773,54.92773S197.33691,221.09277,167.0498,221.09277z"/>
		<path fill="#7E7E7E" d="M167.06641,99.87988c-36.5498,0-66.28516,29.73535-66.28516,66.28516s29.73535,66.28516,66.28516,66.28516
			s66.28516-29.73535,66.28516-66.28516S203.61621,99.87988,167.06641,99.87988z M167.06641,228.65918
			c-34.45898,0-62.49414-28.03516-62.49414-62.49414s28.03516-62.49414,62.49414-62.49414s62.49414,28.03516,62.49414,62.49414
			S201.52539,228.65918,167.06641,228.65918z"/>
		<path fill="#7E7E7E" d="M167.06641,92.29688c-40.72168,0-73.85156,33.13672-73.85156,73.86816
			s33.12988,73.86816,73.85156,73.86816c40.73145,0,73.86816-33.13672,73.86816-73.86816S207.79785,92.29688,167.06641,92.29688z
			 M167.06641,236.24219c-38.63184,0-70.06055-31.43652-70.06055-70.07715s31.42871-70.07715,70.06055-70.07715
			c38.64062,0,70.07715,31.43652,70.07715,70.07715S205.70703,236.24219,167.06641,236.24219z"/>
		<path fill="#7E7E7E" d="M167.08301,84.73047c-44.90332,0-81.43457,36.53125-81.43457,81.43457
			s36.53125,81.43457,81.43457,81.43457s81.43457-36.53125,81.43457-81.43457S211.98633,84.73047,167.08301,84.73047z
			 M167.08301,243.80859c-42.8125,0-77.64355-34.83105-77.64355-77.64355s34.83105-77.64355,77.64355-77.64355
			s77.64355,34.83105,77.64355,77.64355S209.89551,243.80859,167.08301,243.80859z"/>
		<path fill="#7E7E7E" d="M167.08301,77.14746c-49.0752,0-89.00098,39.93262-89.00098,89.01758s39.92578,89.01758,89.00098,89.01758
			c49.08496,0,89.01758-39.93262,89.01758-89.01758S216.16797,77.14746,167.08301,77.14746z M167.08301,251.3916
			c-46.98438,0-85.20996-38.23242-85.20996-85.22656s38.22559-85.22656,85.20996-85.22656
			c46.99414,0,85.22656,38.23242,85.22656,85.22656S214.07715,251.3916,167.08301,251.3916z"/>
		<path fill="#7E7E7E" d="M167.09961,69.58105c-53.26562,0-96.60059,43.32715-96.60059,96.58398
			s43.33496,96.58398,96.60059,96.58398c53.25684,0,96.58398-43.32715,96.58398-96.58398S220.35645,69.58105,167.09961,69.58105z
			 M167.09961,258.95801c-51.1748,0-92.80957-41.62695-92.80957-92.79297s41.63477-92.79297,92.80957-92.79297
			c51.16602,0,92.79297,41.62695,92.79297,92.79297S218.26562,258.95801,167.09961,258.95801z"/>
		<path fill="#7E7E7E" d="M167.09961,61.99805c-57.43848,0-104.16699,46.72852-104.16699,104.16699
			s46.72852,104.16699,104.16699,104.16699S271.2666,223.60352,271.2666,166.16504S224.53809,61.99805,167.09961,61.99805z
			 M167.09961,266.54102c-55.34766,0-100.37598-45.02832-100.37598-100.37598S111.75195,65.78906,167.09961,65.78906
			s100.37598,45.02832,100.37598,100.37598S222.44727,266.54102,167.09961,266.54102z"/>
		<path fill="#7E7E7E" d="M167.11621,54.43164c-61.61914,0-111.75,50.12305-111.75,111.7334s50.13086,111.7334,111.75,111.7334
			c61.61035,0,111.7334-50.12305,111.7334-111.7334S228.72656,54.43164,167.11621,54.43164z M167.11621,274.10742
			c-59.52832,0-107.95898-48.42285-107.95898-107.94238S107.58789,58.22266,167.11621,58.22266
			c59.51953,0,107.94238,48.42285,107.94238,107.94238S226.63574,274.10742,167.11621,274.10742z"/>
		<path fill="#7E7E7E" d="M167.11621,46.84863c-65.79199,0-119.31738,53.52539-119.31738,119.31641
			s53.52539,119.31641,119.31738,119.31641c65.79102,0,119.31641-53.52539,119.31641-119.31641
			S232.90723,46.84863,167.11621,46.84863z M167.11621,281.69043c-63.70117,0-115.52637-51.82422-115.52637-115.52539
			s51.8252-115.52539,115.52637-115.52539S282.6416,102.46387,282.6416,166.16504S230.81738,281.69043,167.11621,281.69043z"/>
		<path fill="#7E7E7E" d="M167.13281,39.28223c-69.97363,0-126.90039,56.91895-126.90039,126.88281
			s56.92676,126.88281,126.90039,126.88281c69.96387,0,126.88281-56.91895,126.88281-126.88281
			S237.09668,39.28223,167.13281,39.28223z M167.13281,289.25684c-67.88281,0-123.10938-55.21875-123.10938-123.0918
			S99.25,43.07324,167.13281,43.07324c67.87305,0,123.0918,55.21875,123.0918,123.0918S235.00586,289.25684,167.13281,289.25684z"/>
		<path fill="#7E7E7E" d="M167.13184,31.69922c-74.14453,0-134.46582,60.32129-134.46582,134.46582
			S92.9873,300.63086,167.13184,300.63086c74.14551,0,134.4668-60.32129,134.4668-134.46582S241.27734,31.69922,167.13184,31.69922z
			 M167.13184,296.83984c-72.05371,0-130.6748-58.62109-130.6748-130.6748s58.62109-130.6748,130.6748-130.6748
			c72.05469,0,130.67578,58.62109,130.67578,130.6748S239.18652,296.83984,167.13184,296.83984z"/>
		<path fill="#7E7E7E" d="M167.13184,24.11621c-78.31738,0-142.03223,63.72266-142.03223,142.04883
			s63.71484,142.04883,142.03223,142.04883c78.32715,0,142.0498-63.72266,142.0498-142.04883S245.45898,24.11621,167.13184,24.11621
			z M167.13184,304.42285c-76.22656,0-138.24121-62.02246-138.24121-138.25781S90.90527,27.90723,167.13184,27.90723
			c76.23633,0,138.25879,62.02246,138.25879,138.25781S243.36816,304.42285,167.13184,304.42285z"/>
		<path fill="#7E7E7E" d="M167.14844,16.5498c-82.49805,0-149.61523,67.11719-149.61523,149.61523
			s67.11719,149.61523,149.61523,149.61523c82.49902,0,149.61621-67.11719,149.61621-149.61523S249.64746,16.5498,167.14844,16.5498
			z M167.14844,311.98926c-80.40723,0-145.82422-65.41699-145.82422-145.82422S86.74121,20.34082,167.14844,20.34082
			c80.4082,0,145.8252,65.41699,145.8252,145.82422S247.55664,311.98926,167.14844,311.98926z"/>
		<path fill="#7E7E7E" d="M167.14844,8.9668C80.47852,8.9668,9.9668,79.48535,9.9668,166.16504
			s70.51172,157.19922,157.18164,157.19922c86.67969,0,157.19922-70.51953,157.19922-157.19922S253.82812,8.9668,167.14844,8.9668z
			 M167.14844,319.57324c-84.58008,0-153.39062-68.81836-153.39062-153.4082c0-84.58887,68.81055-153.40723,153.39062-153.40723
			c84.58984,0,153.4082,68.81836,153.4082,153.40723C320.55664,250.75488,251.73828,319.57324,167.14844,319.57324z"/>
		<path fill="#7E7E7E" d="M167.16504,1.40039c-90.85156,0-164.76465,73.91309-164.76465,164.76465
			c0,90.85254,73.91309,164.76562,164.76465,164.76562c90.85254,0,164.76562-73.91309,164.76562-164.76562
			C331.93066,75.31348,258.01758,1.40039,167.16504,1.40039z M167.16504,327.13965
			c-88.76074,0-160.97363-72.21289-160.97363-160.97461c0-88.76074,72.21289-160.97363,160.97363-160.97363
			c88.76172,0,160.97461,72.21289,160.97461,160.97363C328.13965,254.92676,255.92676,327.13965,167.16504,327.13965z"/>
		<path fill="#7E7E7E" d="M0,188.91064v19.85181C15.81445,270.74243,65.30591,319.39746,127.75024,334h23.71704
			C73.32373,326.82422,10.45508,266.08105,0,188.91064z"/>
		<path fill="#7E7E7E" d="M334,143.29541v-19.79736C318.7207,63.72607,272.11133,16.36523,212.77686,0h-17.45801
			C267.42065,12.24976,324.07275,70.43945,334,143.29541z"/>
		<path fill="#7E7E7E" d="M334,208.83203v-19.79736C323.49292,266.146,260.64331,326.82812,182.53418,334h23.71948
			C268.68115,319.40283,318.16479,270.77905,334,208.83203z"/>
		<path fill="#7E7E7E" d="M138.68384,0h-17.45605C61.87646,16.37158,15.25952,63.76294,0,123.56787v19.85156
			C9.87866,70.50537,66.5481,12.25684,138.68384,0z"/>
		<path fill="#7E7E7E" d="M334,233.12598v-10.92822C316.17261,275.18579,273.78296,316.98169,220.43188,334h11.38867
			C278.25952,316.00781,315.42773,279.2749,334,233.12598z"/>
		<path fill="#7E7E7E" d="M0,222.14136v10.93872C18.56787,279.25049,55.74902,316.00171,102.20728,334h11.3894
			C60.22168,316.97559,17.81787,275.15601,0,222.14136z"/>
		<path fill="#7E7E7E" d="M108.63184,0h-10.5791C53.53516,18.5415,18.01099,54.46484,0,99.25049v10.93872
			C17.26172,58.83008,57.59961,17.98022,108.63184,0z"/>
		<path fill="#7E7E7E" d="M334,110.13281V99.20459C315.98486,54.44043,280.47314,18.53516,235.97461,0h-10.57837
			C276.40527,17.97363,316.72925,58.7998,334,110.13281z"/>
		<path fill="#7E7E7E" d="M334,251.39404v-8.69116C315.36279,283.20166,282.41895,315.80518,241.67871,334h8.85571
			C286.3833,316.08813,315.73486,287.03516,334,251.39404z"/>
		<path fill="#7E7E7E" d="M334,89.6272v-8.69116C316.29199,46.38232,288.16406,18.021,253.79785,0h-8.49341
			C284.37183,18.48071,315.91919,50.33716,334,89.6272z"/>
		<path fill="#7E7E7E" d="M0,242.63184v8.69531c18.2627,35.67139,47.62744,64.75,83.49878,82.67285h8.85571
			C51.59033,315.79443,18.63135,283.16357,0,242.63184z"/>
		<path fill="#7E7E7E" d="M88.72876,0h-8.49341C45.84717,18.03271,17.70605,46.41919,0,81.00293v8.69531
			C18.07544,50.37549,49.6377,18.49194,88.72876,0z"/>
		<path fill="#7E7E7E" d="M72.37598,0h-7.41284C38.45361,16.34082,16.12695,38.83789,0,65.49048v7.5498
			C17.03076,42.61938,42.12354,17.29785,72.37598,0z"/>
		<path fill="#7E7E7E" d="M334,72.94727v-7.54492C317.87842,38.78809,295.57275,16.323,269.09424,0h-7.41187
			C291.90137,17.28027,316.97168,42.56787,334,72.94727z"/>
		<path fill="#7E7E7E" d="M334,266.92798v-7.54468c-17.58545,31.37354-43.74805,57.31519-75.29956,74.6167h7.62866
			C294.02026,317.55469,317.32056,294.46313,334,266.92798z"/>
		<path fill="#7E7E7E" d="M0,259.29053v7.54932C16.68457,294.41382,40.00586,317.53735,67.72852,334h7.62964
			C43.77295,316.6814,17.5874,290.70557,0,259.29053z"/>
		<path fill="#7E7E7E" d="M334,280.86523v-6.8103c-15.59546,24.052-36.23926,44.53833-60.42358,59.94507h6.90552
			C301.45508,319.77783,319.625,301.72559,334,280.86523z"/>
		<path fill="#7E7E7E" d="M0,273.9541v6.81543C14.3855,301.67065,32.57935,319.75586,53.58447,334h6.90552
			C36.27173,318.57178,15.60327,298.0498,0,273.9541z"/>
		<path fill="#7E7E7E" d="M57.92627,0h-6.74902C31.1897,13.97827,13.83179,31.46387,0,51.56055v6.81543
			C15.04883,35.13647,34.81348,15.22754,57.92627,0z"/>
		<path fill="#7E7E7E" d="M334,58.27515v-6.8103C320.1792,31.40869,302.84497,13.95605,282.88916,0h-6.74902
			C299.21924,15.20532,318.95947,35.0791,334,58.27515z"/>
		<path fill="#7E7E7E" d="M44.7146,0h-6.27954C24.01587,11.18457,11.08936,24.20093,0,38.69678v6.33667
			C12.50977,27.83179,27.60449,12.62842,44.7146,0z"/>
		<path fill="#7E7E7E" d="M334,293.74585v-6.33105C320.95215,305.33105,305.10132,321.07935,287.0874,334h6.38965
			C308.73584,322.47705,322.37451,308.92236,334,293.74585z"/>
		<path fill="#7E7E7E" d="M0,287.29663v6.33667C11.64502,308.85547,25.31445,322.44873,40.6123,334h6.39062
			C28.94775,321.05078,13.06543,305.26196,0,287.29663z"/>
		<path fill="#7E7E7E" d="M334,44.91528v-6.33105C322.93066,24.13379,310.03491,11.15576,295.65405,0h-6.27856
			C306.44482,12.59961,321.50806,27.76221,334,44.91528z"/>
		<path fill="#7E7E7E" d="M334,32.44189v-5.97803C325.99414,16.91235,317.18555,8.05786,307.6792,0h-5.93164
			C313.61426,9.63794,324.43018,20.51807,334,32.44189z"/>
		<path fill="#7E7E7E" d="M0,299.76465v5.98364C8.58545,316.00635,18.08862,325.4707,28.39478,334h6.02979
			C21.69971,323.92334,10.14917,312.4292,0,299.76465z"/>
		<path fill="#7E7E7E" d="M334,305.86621v-5.97803C323.87476,312.50391,312.3584,323.95605,299.67505,334h6.02979
			C315.97144,325.50342,325.44043,316.07837,334,305.86621z"/>
		<path fill="#7E7E7E" d="M32.35205,0h-5.93164C16.875,8.09131,8.03223,16.98486,0,26.58179v5.98364
			C9.59448,20.59326,20.44434,9.67139,32.35205,0z"/>
		<path fill="#7E7E7E" d="M334,317.41309v-5.70825c-6.93945,7.9502-14.43408,15.40308-22.42651,22.29517h5.72754
			C323.14771,328.7605,328.72656,323.22852,334,317.41309z"/>
		<path fill="#7E7E7E" d="M20.63672,0h-5.67676C9.74316,4.77954,4.74902,9.79785,0,15.04321v5.7085
			C6.41602,13.38965,13.31445,6.46045,20.63672,0z"/>
		<path fill="#7E7E7E" d="M334,20.62524v-5.70825C329.28467,9.7168,324.3269,4.7417,319.15112,0h-5.677
			C320.75464,6.4231,327.61523,13.31055,334,20.62524z"/>
		<path fill="#7E7E7E" d="M0,311.57837v5.7085C5.30664,323.14795,10.92188,328.7229,16.80981,334h5.72729
			C14.50244,327.07129,6.97021,319.57642,0,311.57837z"/>
		<path fill="#7E7E7E" d="M334,9.35205V3.87207C332.73047,2.56641,331.44604,1.27563,330.14648,0h-5.44165
			C327.89331,3.02637,330.98901,6.14893,334,9.35205z"/>
		<path fill="#7E7E7E" d="M0,322.83521v5.48682c1.86768,1.92358,3.76416,3.81909,5.69653,5.67798h5.52515
			C7.35498,330.40698,3.61157,326.68433,0,322.83521z"/>
		<path fill="#7E7E7E" d="M334,328.45801v-5.47998c-3.57031,3.79834-7.26978,7.47314-11.08887,11.02197h5.52515
			C330.323,332.18506,332.1748,330.33472,334,328.45801z"/>
		<path fill="#7E7E7E" d="M9.42798,0H3.98633C2.6416,1.32007,1.31274,2.65601,0,4.00806v5.48682
			C3.05273,6.24146,6.19238,3.07129,9.42798,0z"/>
		<path fill="#7E7E7E" d="M334,333.86426c-0.0459,0.04565-0.09326,0.09009-0.13916,0.13574H334V333.86426z"/>
		<path fill="#7E7E7E" d="M0,334h0.28369C0.18994,333.90674,0.09375,333.81616,0,333.7229V334z"/>
	</g>
</g>
<g id="Layer_3" display="none">
</g>
<g id="Layer_2" display="none">
</g>
</svg>
