<?xml version="1.0" encoding="utf-8"?>
<!-- Generator: Adobe Illustrator 21.1.0, SVG Export Plug-In . SVG Version: 6.00 Build 0)  -->
<svg version="1.2" baseProfile="tiny" xmlns="http://www.w3.org/2000/svg" xmlns:xlink="http://www.w3.org/1999/xlink" x="0px"
	 y="0px" viewBox="0 0 334 334" xml:space="preserve">
<g id="Layer_1">
	<g>
		<path fill="#9B9B9B" d="M0,315.89844v11.9541c2.0199,2.08521,4.07245,4.13843,6.1684,6.14746h12.03894
			C11.80151,328.31445,5.72064,322.27246,0,315.89844z"/>
		<path fill="#9B9B9B" d="M334,42.15198V28.93823C325.33679,18.41431,315.69653,8.7251,305.22571,0h-13.10364
			C308.00146,11.98706,322.11658,26.19067,334,42.15198z"/>
		<path fill="#9B9B9B" d="M166.99951,219.2041c29.24658,0,53.04004-23.79395,53.04004-53.04004S196.24609,113.125,166.99951,113.125
			c-29.24609,0-53.03955,23.79297-53.03955,53.03906S137.75342,219.2041,166.99951,219.2041z M166.99951,121.27539
			c24.75195,0,44.88916,20.13672,44.88916,44.88867s-20.13721,44.88965-44.88916,44.88965s-44.88916-20.1377-44.88916-44.88965
			S142.24756,121.27539,166.99951,121.27539z"/>
		<path fill="#9B9B9B" d="M166.99951,268.16016c56.24072,0,101.99561-45.75488,101.99561-101.99609
			c0-56.24023-45.75488-101.99512-101.99561-101.99512c-56.25,0-102.0127,45.75488-102.0127,101.99512
			C64.98682,222.40527,110.74951,268.16016,166.99951,268.16016z M166.99951,72.31934
			c51.74658,0,93.84521,42.09863,93.84521,93.84473c0,51.74707-42.09863,93.8457-93.84521,93.8457
			s-93.84521-42.09863-93.84521-93.8457C73.1543,114.41797,115.25293,72.31934,166.99951,72.31934z"/>
		<path fill="#9B9B9B" d="M166.99951,333.45215c88.99243,0,161.96777-69.85229,167.00049-157.60669v-19.36279
			C329.33691,75.17529,266.34399,9.24829,186.32715,0h-38.65527C67.65771,9.24805,4.66669,75.17114,0,156.4751v19.37793
			C5.03668,263.604,78.00964,333.45215,166.99951,333.45215z M166.98242,7.02734c87.74805,0,159.13672,71.38867,159.13672,159.13672
			s-71.38867,159.13672-159.13672,159.13672c-87.73877,0-159.11963-71.38867-159.11963-159.13672
			S79.24365,7.02734,166.98242,7.02734z"/>
		<path fill="#9B9B9B" d="M166.98242,317.13281c83.24463,0,150.96875-67.72461,150.96875-150.96875
			S250.22705,15.19531,166.98242,15.19531c-83.23535,0-150.95166,67.72461-150.95166,150.96875
			S83.74707,317.13281,166.98242,317.13281z M166.98291,23.34668c78.75,0,142.81787,64.06738,142.81787,142.81738
			s-64.06787,142.81836-142.81787,142.81836c-78.74072,0-142.80127-64.06836-142.80127-142.81836
			S88.24219,23.34668,166.98291,23.34668z"/>
		<path fill="#9B9B9B" d="M166.99951,202.88574c20.24805,0,36.72119-16.47363,36.72119-36.72168s-16.47314-36.7207-36.72119-36.7207
			s-36.72119,16.47266-36.72119,36.7207S146.75146,202.88574,166.99951,202.88574z M166.99951,137.59375
			c15.75342,0,28.57031,12.81641,28.57031,28.57031s-12.81689,28.57031-28.57031,28.57031
			c-15.74463,0-28.55371-12.81641-28.55371-28.57031S151.25488,137.59375,166.99951,137.59375z"/>
		<path fill="#9B9B9B" d="M166.98291,300.81445c74.24609,0,134.6499-60.4043,134.6499-134.65039
			S241.229,31.51465,166.98291,31.51465c-74.2373,0-134.6333,60.40332-134.6333,134.64941S92.74561,300.81445,166.98291,300.81445z
			 M166.99951,39.68164c69.74268,0,126.48242,56.74023,126.48242,126.48242s-56.73975,126.48242-126.48242,126.48242
			C97.24756,292.64648,40.5,235.90625,40.5,166.16406S97.24756,39.68164,166.99951,39.68164z"/>
		<path fill="#9B9B9B" d="M166.99951,284.47852c65.23877,0,118.31445-53.0752,118.31445-118.31445
			S232.23828,47.84961,166.99951,47.84961c-65.24854,0-118.33154,53.0752-118.33154,118.31445
			S101.75098,284.47852,166.99951,284.47852z M166.99951,56.00098c60.74414,0,110.16357,49.41895,110.16357,110.16309
			s-49.41943,110.16406-110.16357,110.16406c-60.75391,0-110.18066-49.41992-110.18066-110.16406
			S106.24561,56.00098,166.99951,56.00098z"/>
		<path fill="#9B9B9B" d="M166.99951,251.8418c47.24268,0,85.67725-38.43457,85.67725-85.67773
			c0-47.24219-38.43457-85.67676-85.67725-85.67676s-85.67725,38.43457-85.67725,85.67676
			C81.32227,213.40723,119.75684,251.8418,166.99951,251.8418z M166.99951,88.6377c42.74805,0,77.52637,34.77832,77.52637,77.52637
			s-34.77832,77.52637-77.52637,77.52637s-77.52637-34.77832-77.52637-77.52637S124.25146,88.6377,166.99951,88.6377z"/>
		<path fill="#9B9B9B" d="M334,16.4314V4.48962C332.53076,2.97253,331.04004,1.47681,329.53052,0h-11.8562
			C323.39502,5.19214,328.83948,10.68176,334,16.4314z"/>
		<path fill="#9B9B9B" d="M334,112.34497V89.90112C315.91711,50.46045,284.26318,18.49329,245.05029,0h-21.67554
			C275.69775,17.79968,316.9834,59.66821,334,112.34497z"/>
		<path fill="#9B9B9B" d="M16.32465,0H4.45667C2.95148,1.47241,1.46503,2.96362,0,4.47607v11.95435
			C5.16022,10.68103,10.60437,5.19189,16.32465,0z"/>
		<path fill="#9B9B9B" d="M334,71.98193V56.38367C319.28748,34.07776,300.23706,14.87683,278.04944,0h-15.38977
			C292.37927,17.17603,317.08008,42.0979,334,71.98193z"/>
		<path fill="#9B9B9B" d="M41.87689,0H28.77332C18.3028,8.72485,8.66296,18.41357,0,28.93701v13.21362
			C11.88318,26.18994,25.99805,11.98669,41.87689,0z"/>
		<path fill="#9B9B9B" d="M166.99951,186.56641c11.25,0,20.40234-9.15234,20.40234-20.40234s-9.15234-20.40234-20.40234-20.40234
			c-11.24072,0-20.38574,9.15234-20.38574,20.40234S155.75879,186.56641,166.99951,186.56641z M166.99951,153.91309
			c6.75586,0,12.25195,5.49609,12.25195,12.25098c0,6.75586-5.49609,12.25195-12.25195,12.25195
			c-6.74609,0-12.23486-5.49609-12.23486-12.25195C154.76465,159.40918,160.25342,153.91309,166.99951,153.91309z"/>
		<path fill="#9B9B9B" d="M110.62457,0h-21.6759C49.73651,18.49292,18.08313,50.45947,0,89.89905v22.44446
			C17.01685,59.66748,58.30219,17.79956,110.62457,0z"/>
		<path fill="#9B9B9B" d="M166.99951,170.24805c2.25195,0,4.08398-1.83203,4.08398-4.08398
			c0-2.25098-1.83203-4.08301-4.08398-4.08301c-2.24268,0-4.06689,1.83203-4.06689,4.08301
			C162.93262,168.41602,164.75684,170.24805,166.99951,170.24805z"/>
		<path fill="#9B9B9B" d="M71.33936,0H55.94958C33.76245,14.87646,14.71234,34.0769,0,56.3822v15.59802
			C16.91998,42.09705,41.62036,17.17554,71.33936,0z"/>
		<path fill="#9B9B9B" d="M166.99951,235.52246c38.24463,0,69.3584-31.11426,69.3584-69.3584s-31.11377-69.3584-69.3584-69.3584
			s-69.3584,31.11426-69.3584,69.3584S128.75488,235.52246,166.99951,235.52246z M166.99951,104.95703
			c33.75,0,61.20801,27.45703,61.20801,61.20703s-27.45801,61.20801-61.20801,61.20801s-61.20752-27.45801-61.20752-61.20801
			S133.24951,104.95703,166.99951,104.95703z"/>
		<path fill="#9B9B9B" d="M334,303.39038v-13.21411C321.55786,306.88794,306.66577,321.66895,289.86694,334h13.32227
			C314.44849,324.84619,324.77856,314.59229,334,303.39038z"/>
		<path fill="#9B9B9B" d="M0,260.34863v15.59717C15.27008,299.09668,35.2146,318.90137,58.4873,334h15.82153
			C43.26782,316.78857,17.47955,291.22021,0,260.34863z"/>
		<path fill="#9B9B9B" d="M334,242.42749v-22.44385C316.42371,274.39331,272.95203,317.26465,218.17358,334h23.2356
			C282.30273,315.79883,315.36047,283.08252,334,242.42749z"/>
		<path fill="#9B9B9B" d="M0,290.17749v13.21411C9.22113,314.59326,19.55096,324.84668,30.80988,334h13.3222
			C27.3338,321.66919,12.44202,306.88867,0,290.17749z"/>
		<path fill="#9B9B9B" d="M334,275.94434v-15.59741C316.52051,291.21924,290.73181,316.78809,259.69019,334h15.82153
			C298.78491,318.90112,318.72974,299.09595,334,275.94434z"/>
		<path fill="#9B9B9B" d="M0,219.98511v22.44458C18.63971,283.0835,51.69702,315.79907,92.5899,334h23.23578
			C61.04791,317.26489,17.5766,274.39404,0,219.98511z"/>
		<path fill="#9B9B9B" d="M334,327.83887v-11.94141c-5.72095,6.37402-11.80212,12.41675-18.20825,18.10254h12.0271
			C329.91919,331.98682,331.97607,329.92896,334,327.83887z"/>
		<path fill="#646464" d="M166.99951,178.41602c6.75586,0,12.25195-5.49609,12.25195-12.25195
			c0-6.75488-5.49609-12.25098-12.25195-12.25098c-6.74609,0-12.23486,5.49609-12.23486,12.25098
			C154.76465,172.91992,160.25342,178.41602,166.99951,178.41602z M166.99951,162.08105c2.25195,0,4.08398,1.83203,4.08398,4.08301
			c0,2.25195-1.83203,4.08398-4.08398,4.08398c-2.24268,0-4.06689-1.83203-4.06689-4.08398
			C162.93262,163.91309,164.75684,162.08105,166.99951,162.08105z"/>
		<path fill="#646464" d="M166.99951,194.73438c15.75342,0,28.57031-12.81641,28.57031-28.57031
			s-12.81689-28.57031-28.57031-28.57031c-15.74463,0-28.55371,12.81641-28.55371,28.57031S151.25488,194.73438,166.99951,194.73438
			z M166.99951,145.76172c11.25,0,20.40234,9.15234,20.40234,20.40234s-9.15234,20.40234-20.40234,20.40234
			c-11.24072,0-20.38574-9.15234-20.38574-20.40234S155.75879,145.76172,166.99951,145.76172z"/>
		<path fill="#646464" d="M166.99951,211.05371c24.75195,0,44.88916-20.1377,44.88916-44.88965
			s-20.13721-44.88867-44.88916-44.88867s-44.88916,20.13672-44.88916,44.88867S142.24756,211.05371,166.99951,211.05371z
			 M166.99951,129.44336c20.24805,0,36.72119,16.47266,36.72119,36.7207s-16.47314,36.72168-36.72119,36.72168
			s-36.72119-16.47363-36.72119-36.72168S146.75146,129.44336,166.99951,129.44336z"/>
		<path fill="#646464" d="M166.99951,227.37207c33.75,0,61.20801-27.45801,61.20801-61.20801s-27.45801-61.20703-61.20801-61.20703
			s-61.20752,27.45703-61.20752,61.20703S133.24951,227.37207,166.99951,227.37207z M166.99951,113.125
			c29.24658,0,53.04004,23.79297,53.04004,53.03906s-23.79346,53.04004-53.04004,53.04004
			c-29.24609,0-53.03955-23.79395-53.03955-53.04004S137.75342,113.125,166.99951,113.125z"/>
		<path fill="#646464" d="M166.99951,243.69043c42.74805,0,77.52637-34.77832,77.52637-77.52637
			S209.74756,88.6377,166.99951,88.6377s-77.52637,34.77832-77.52637,77.52637S124.25146,243.69043,166.99951,243.69043z
			 M166.99951,96.80566c38.24463,0,69.3584,31.11426,69.3584,69.3584s-31.11377,69.3584-69.3584,69.3584
			s-69.3584-31.11426-69.3584-69.3584S128.75488,96.80566,166.99951,96.80566z"/>
		<path fill="#646464" d="M166.99951,260.00977c51.74658,0,93.84521-42.09863,93.84521-93.8457
			c0-51.74609-42.09863-93.84473-93.84521-93.84473S73.1543,114.41797,73.1543,166.16406
			C73.1543,217.91113,115.25293,260.00977,166.99951,260.00977z M166.99951,80.4873c47.24268,0,85.67725,38.43457,85.67725,85.67676
			c0,47.24316-38.43457,85.67773-85.67725,85.67773s-85.67725-38.43457-85.67725-85.67773
			C81.32227,118.92188,119.75684,80.4873,166.99951,80.4873z"/>
		<path fill="#646464" d="M166.99951,276.32812c60.74414,0,110.16357-49.41992,110.16357-110.16406
			S227.74365,56.00098,166.99951,56.00098c-60.75391,0-110.18066,49.41895-110.18066,110.16309
			S106.24561,276.32812,166.99951,276.32812z M166.99951,64.16895c56.24072,0,101.99561,45.75488,101.99561,101.99512
			c0,56.24121-45.75488,101.99609-101.99561,101.99609c-56.25,0-102.0127-45.75488-102.0127-101.99609
			C64.98682,109.92383,110.74951,64.16895,166.99951,64.16895z"/>
		<path fill="#646464" d="M166.99951,292.64648c69.74268,0,126.48242-56.74023,126.48242-126.48242
			S236.74219,39.68164,166.99951,39.68164C97.24756,39.68164,40.5,96.42188,40.5,166.16406S97.24756,292.64648,166.99951,292.64648z
			 M166.99951,47.84961c65.23877,0,118.31445,53.0752,118.31445,118.31445s-53.07568,118.31445-118.31445,118.31445
			c-65.24854,0-118.33154-53.0752-118.33154-118.31445S101.75098,47.84961,166.99951,47.84961z"/>
		<path fill="#646464" d="M166.98291,308.98242c78.75,0,142.81787-64.06836,142.81787-142.81836
			S245.73291,23.34668,166.98291,23.34668c-78.74072,0-142.80127,64.06738-142.80127,142.81738
			S88.24219,308.98242,166.98291,308.98242z M166.98291,31.51465c74.24609,0,134.6499,60.40332,134.6499,134.64941
			S241.229,300.81445,166.98291,300.81445c-74.2373,0-134.6333-60.4043-134.6333-134.65039S92.74561,31.51465,166.98291,31.51465z"
			/>
		<path fill="#646464" d="M166.98242,325.30078c87.74805,0,159.13672-71.38867,159.13672-159.13672
			S254.73047,7.02734,166.98242,7.02734c-87.73877,0-159.11963,71.38867-159.11963,159.13672
			S79.24365,325.30078,166.98242,325.30078z M166.98242,15.19531c83.24463,0,150.96875,67.72461,150.96875,150.96875
			s-67.72412,150.96875-150.96875,150.96875c-83.23535,0-150.95166-67.72461-150.95166-150.96875
			S83.74707,15.19531,166.98242,15.19531z"/>
		<path fill="#646464" d="M334,219.98364v-44.13818c-5.03271,87.75439-78.00806,157.60669-167.00049,157.60669
			C78.00964,333.45215,5.03668,263.604,0,175.85303v44.13208C17.5766,274.39404,61.04791,317.26489,115.82568,334h102.3479
			C272.95203,317.26465,316.42371,274.39331,334,219.98364z"/>
		<path fill="#646464" d="M334,156.48267v-44.1377C316.9834,59.66821,275.69775,17.79968,223.37476,0h-37.04761
			C266.34399,9.24829,329.33691,75.17529,334,156.48267z"/>
		<path fill="#646464" d="M147.67188,0h-37.0473C58.30219,17.79956,17.01685,59.66748,0,112.34351v44.13159
			C4.66669,75.17114,67.65771,9.24805,147.67188,0z"/>
		<path fill="#646464" d="M334,260.34692v-17.91943C315.36047,283.08252,282.30273,315.79883,241.40918,334h18.28101
			C290.73181,316.78809,316.52051,291.21924,334,260.34692z"/>
		<path fill="#646464" d="M334,89.90112V71.98193C317.08008,42.0979,292.37927,17.17603,262.65967,0h-17.60938
			C284.26318,18.49329,315.91711,50.46045,334,89.90112z"/>
		<path fill="#646464" d="M0,242.42969v17.91895C17.47955,291.22021,43.26782,316.78857,74.30884,334H92.5899
			C51.69702,315.79907,18.63971,283.0835,0,242.42969z"/>
		<path fill="#646464" d="M88.94867,0H71.33936C41.62036,17.17554,16.91998,42.09705,0,71.98022v17.91882
			C18.08313,50.45947,49.73651,18.49292,88.94867,0z"/>
		<path fill="#646464" d="M0,275.9458v14.23169C12.44202,306.88867,27.3338,321.66919,44.13208,334H58.4873
			C35.2146,318.90137,15.27008,299.09668,0,275.9458z"/>
		<path fill="#646464" d="M334,290.17627v-14.23193C318.72974,299.09595,298.78491,318.90112,275.51172,334h14.35522
			C306.66577,321.66895,321.55786,306.88794,334,290.17627z"/>
		<path fill="#646464" d="M334,56.38367V42.15198C322.11658,26.19067,308.00146,11.98706,292.12207,0h-14.07263
			C300.23706,14.87683,319.28748,34.07776,334,56.38367z"/>
		<path fill="#646464" d="M55.94958,0H41.87689C25.99805,11.98669,11.88318,26.18994,0,42.15063V56.3822
			C14.71234,34.0769,33.76245,14.87646,55.94958,0z"/>
		<path fill="#646464" d="M334,315.89746v-12.50708c-9.22144,11.2019-19.55151,21.45581-30.81079,30.60962h12.60254
			C322.19788,328.31421,328.27905,322.27148,334,315.89746z"/>
		<path fill="#646464" d="M0,303.3916v12.50684C5.72064,322.27246,11.80151,328.31445,18.20734,334h12.60254
			C19.55096,324.84668,9.22113,314.59326,0,303.3916z"/>
		<path fill="#646464" d="M334,28.93823V16.4314C328.83948,10.68176,323.39502,5.19214,317.67432,0h-12.44861
			C315.69653,8.7251,325.33679,18.41431,334,28.93823z"/>
		<path fill="#646464" d="M28.77332,0H16.32465C10.60437,5.19189,5.16022,10.68103,0,16.43042v12.50659
			C8.66296,18.41357,18.3028,8.72485,28.77332,0z"/>
		<path fill="#646464" d="M0,327.85254V334h6.1684C4.07245,331.99097,2.0199,329.93774,0,327.85254z"/>
		<path fill="#646464" d="M4.45667,0H0v4.47607C1.46503,2.96362,2.95148,1.47241,4.45667,0z"/>
		<path fill="#646464" d="M327.81885,334H334v-6.16113C331.97607,329.92896,329.91919,331.98682,327.81885,334z"/>
		<path fill="#646464" d="M334,4.48962V0h-4.46948C331.04004,1.47681,332.53076,2.97253,334,4.48962z"/>
	</g>
</g>
<g id="Layer_3" display="none">
</g>
<g id="Layer_2" display="none">
</g>
</svg>
