<?xml version="1.0" encoding="utf-8"?>
<!-- Generator: Adobe Illustrator 21.1.0, SVG Export Plug-In . SVG Version: 6.00 Build 0)  -->
<svg version="1.2" baseProfile="tiny" xmlns="http://www.w3.org/2000/svg" xmlns:xlink="http://www.w3.org/1999/xlink" x="0px"
	 y="0px" viewBox="0 0 334 334" xml:space="preserve">
<g id="Layer_1">
	<g>
		<path fill="#818181" d="M167,110.73633c-31.30957,0-56.78125,25.46436-56.78125,56.76465S135.69043,224.26562,167,224.26562
			c31.2998,0,56.76465-25.46436,56.76465-56.76465S198.2998,110.73633,167,110.73633z M167,201.5498
			c-18.78418,0-34.06543-15.27441-34.06543-34.04883S148.21582,133.45215,167,133.45215
			c18.77441,0,34.04883,15.27441,34.04883,34.04883S185.77441,201.5498,167,201.5498z"/>
		<path fill="#818181" d="M167,65.32129c-56.35156,0-102.19629,45.8374-102.19629,102.17969S110.64844,269.68066,167,269.68066
			c56.3418,0,102.17969-45.8374,102.17969-102.17969S223.3418,65.32129,167,65.32129z M167,246.96484
			c-43.8252,0-79.48047-35.64746-79.48047-79.46387S123.1748,88.03711,167,88.03711c43.81641,0,79.46387,35.64746,79.46387,79.46387
			S210.81641,246.96484,167,246.96484z"/>
		<path fill="#818181" d="M167,19.90625c-81.38379,0-147.59473,66.21094-147.59473,147.59473S85.61621,315.0957,167,315.0957
			s147.59473-66.21094,147.59473-147.59473S248.38379,19.90625,167,19.90625z M167,292.37988
			c-68.86719,0-124.89551-56.02051-124.89551-124.87891S98.13281,42.62207,167,42.62207
			c68.8584,0,124.87891,56.02051,124.87891,124.87891S235.8584,292.37988,167,292.37988z"/>
		<path fill="#818181" d="M303.99658,334H334v-30.12415C325.00586,314.8692,314.95605,324.96625,303.99658,334z"/>
		<path fill="#818181" d="M334,264.17499v-63.29236C320.75562,267.25201,268.81616,319.82233,202.78418,334h61.73633
			C293.25146,317.10712,317.24951,292.99896,334,264.17499z"/>
		<path fill="#818181" d="M31.24683,0H0v31.1261C9.33105,19.72076,19.80664,9.28967,31.24683,0z"/>
		<path fill="#818181" d="M136.22607,0H71.18213C41.6936,16.93457,17.08154,41.43347,0,70.82697v63.29236
			C13.57788,66.07947,67.82129,12.53687,136.22607,0z"/>
		<path fill="#818181" d="M334,31.1261V0h-31.24683C314.19336,9.28967,324.66895,19.72076,334,31.1261z"/>
		<path fill="#818181" d="M334,134.11932V70.82697C316.91846,41.43347,292.3064,16.93457,262.81787,0h-65.04395
			C266.17871,12.53687,320.42212,66.07947,334,134.11932z"/>
		<path fill="#818181" d="M0,303.87585V334h30.00342C19.04395,324.96625,8.99414,314.8692,0,303.87585z"/>
		<path fill="#818181" d="M0,200.88263v63.29236C16.75049,292.99896,40.74854,317.10712,69.47949,334h61.73633
			C65.18384,319.82233,13.24438,267.25201,0,200.88263z"/>
		<path fill="#818181" d="M167,156.15137c-6.26758,0-11.36621,5.09131-11.36621,11.34961S160.73242,178.85059,167,178.85059
			c6.25781,0,11.34961-5.09131,11.34961-11.34961S173.25781,156.15137,167,156.15137z"/>
		<path fill="#7E7E7E" d="M167,133.45215c-18.78418,0-34.06543,15.27441-34.06543,34.04883S148.21582,201.5498,167,201.5498
			c18.77441,0,34.04883-15.27441,34.04883-34.04883S185.77441,133.45215,167,133.45215z M167,178.85059
			c-6.26758,0-11.36621-5.09131-11.36621-11.34961S160.73242,156.15137,167,156.15137c6.25781,0,11.34961,5.09131,11.34961,11.34961
			S173.25781,178.85059,167,178.85059z"/>
		<path fill="#7E7E7E" d="M167,88.03711c-43.8252,0-79.48047,35.64746-79.48047,79.46387S123.1748,246.96484,167,246.96484
			c43.81641,0,79.46387-35.64746,79.46387-79.46387S210.81641,88.03711,167,88.03711z M167,224.26562
			c-31.30957,0-56.78125-25.46436-56.78125-56.76465S135.69043,110.73633,167,110.73633
			c31.2998,0,56.76465,25.46436,56.76465,56.76465S198.2998,224.26562,167,224.26562z"/>
		<path fill="#7E7E7E" d="M167,42.62207c-68.86719,0-124.89551,56.02051-124.89551,124.87891S98.13281,292.37988,167,292.37988
			c68.8584,0,124.87891-56.02051,124.87891-124.87891S235.8584,42.62207,167,42.62207z M167,269.68066
			c-56.35156,0-102.19629-45.8374-102.19629-102.17969S110.64844,65.32129,167,65.32129
			c56.3418,0,102.17969,45.8374,102.17969,102.17969S223.3418,269.68066,167,269.68066z"/>
		<path fill="#7E7E7E" d="M334,200.88263v-66.76331C320.42212,66.07947,266.17871,12.53687,197.77393,0h-61.54785
			C67.82129,12.53687,13.57788,66.07947,0,134.11932v66.76331C13.24438,267.25201,65.18384,319.82233,131.21582,334h71.56836
			C268.81616,319.82233,320.75562,267.25201,334,200.88263z M167,315.0957c-81.38379,0-147.59473-66.21094-147.59473-147.59473
			S85.61621,19.90625,167,19.90625s147.59473,66.21094,147.59473,147.59473S248.38379,315.0957,167,315.0957z"/>
		<path fill="#7E7E7E" d="M334,303.87585v-39.70087C317.24951,292.99896,293.25146,317.10712,264.52051,334h39.47607
			C314.95605,324.96625,325.00586,314.8692,334,303.87585z"/>
		<path fill="#7E7E7E" d="M71.18213,0h-39.9353C19.80664,9.28967,9.33105,19.72076,0,31.1261v39.70087
			C17.08154,41.43347,41.6936,16.93457,71.18213,0z"/>
		<path fill="#7E7E7E" d="M334,70.82697V31.1261C324.66895,19.72076,314.19336,9.28967,302.75317,0h-39.9353
			C292.3064,16.93457,316.91846,41.43347,334,70.82697z"/>
		<path fill="#7E7E7E" d="M0,264.17499v39.70087C8.99414,314.8692,19.04395,324.96625,30.00342,334h39.47607
			C40.74854,317.10712,16.75049,292.99896,0,264.17499z"/>
	</g>
</g>
<g id="Layer_3" display="none">
</g>
<g id="Layer_2" display="none">
</g>
</svg>
