<?xml version="1.0" encoding="utf-8"?>
<!-- Generator: Adobe Illustrator 21.1.0, SVG Export Plug-In . SVG Version: 6.00 Build 0)  -->
<svg version="1.2" baseProfile="tiny" xmlns="http://www.w3.org/2000/svg" xmlns:xlink="http://www.w3.org/1999/xlink" x="0px"
	 y="0px" viewBox="0 0 334 334" xml:space="preserve">
<g id="Layer_1">
	<g>
		<path fill="#858585" d="M167.01562,113.13379c-29.60938,0-53.69824,24.08887-53.69824,53.69922
			c0,29.62012,24.08887,53.7168,53.69824,53.7168c29.62012,0,53.7168-24.09668,53.7168-53.7168
			C220.73242,137.22266,196.63574,113.13379,167.01562,113.13379z M167.01562,214.21973
			c-26.12793,0-47.38574-21.25781-47.38574-47.38672c0-26.12793,21.25781-47.38574,47.38574-47.38574
			c26.12891,0,47.38672,21.25781,47.38672,47.38574C214.40234,192.96191,193.14453,214.21973,167.01562,214.21973z"/>
		<path fill="#858585" d="M167.0332,87.8457c-43.54492,0-78.9707,35.43359-78.9707,78.9873
			c0,43.55469,35.42578,78.98828,78.9707,78.98828c43.55371,0,78.9873-35.43359,78.9873-78.98828
			C246.02051,123.2793,210.58691,87.8457,167.0332,87.8457z M167.0332,239.49121c-40.06348,0-72.6582-32.59473-72.6582-72.6582
			s32.59473-72.65723,72.6582-72.65723s72.6582,32.59375,72.6582,72.65723S207.09668,239.49121,167.0332,239.49121z"/>
		<path fill="#858585" d="M334,262.96094v-13.39087c-18.18457,36.552-48.01758,66.32373-84.61523,84.42993h13.44873
			C292.34814,317.0166,316.96338,292.44116,334,262.96094z"/>
		<path fill="#858585" d="M167.0332,100.49023c-36.58203,0-66.34375,29.76074-66.34375,66.34277
			s29.76172,66.34375,66.34375,66.34375s66.34375-29.76172,66.34375-66.34375S203.61523,100.49023,167.0332,100.49023z
			 M167.01562,226.86426c-33.09082,0-60.0127-26.92969-60.0127-60.03125c0-33.0918,26.92188-60.01367,60.0127-60.01367
			c33.10156,0,60.03125,26.92188,60.03125,60.01367C227.04688,199.93457,200.11719,226.86426,167.01562,226.86426z"/>
		<path fill="#858585" d="M167.01562,125.76172c-22.64746,0-41.07129,18.42383-41.07129,41.07129
			s18.42383,41.07227,41.07129,41.07227s41.07227-18.4248,41.07227-41.07227S189.66309,125.76172,167.01562,125.76172z
			 M167.01562,201.57617c-19.16602,0-34.75879-15.58594-34.75879-34.74316c0-19.15625,15.59277-34.74219,34.75879-34.74219
			c19.15723,0,34.74316,15.58594,34.74316,34.74219C201.75879,185.99023,186.17285,201.57617,167.01562,201.57617z"/>
		<path fill="#858585" d="M167.01562,138.40527c-15.68457,0-28.44434,12.75195-28.44434,28.42773
			s12.75977,28.42871,28.44434,28.42871c15.67578,0,28.42871-12.75293,28.42871-28.42871S182.69141,138.40527,167.01562,138.40527z
			 M166.99902,188.94824c-12.19336,0-22.11426-9.9209-22.11426-22.11523c0-12.19336,9.9209-22.11426,22.11426-22.11426
			c12.19434,0,22.11523,9.9209,22.11523,22.11426C189.11426,179.02734,179.19336,188.94824,166.99902,188.94824z"/>
		<path fill="#858585" d="M36.92749,0H26.90796C17.17773,8.18701,8.17188,17.20557,0,26.94873v10.03906
			C10.74463,23.19727,23.15369,10.76538,36.92749,0z"/>
		<path fill="#858585" d="M167.06641,49.94727c-64.45996,0-116.90234,52.43457-116.90234,116.88574
			c0,64.45215,52.44238,116.88672,116.90234,116.88672c64.45215,0,116.88672-52.43457,116.88672-116.88672
			C283.95312,102.38184,231.51855,49.94727,167.06641,49.94727z M167.0498,277.40723
			c-60.96094,0-110.55664-49.60352-110.55664-110.57422c0-60.96973,49.5957-110.57324,110.55664-110.57324
			c60.96973,0,110.57324,49.60352,110.57324,110.57324C277.62305,227.80371,228.01953,277.40723,167.0498,277.40723z"/>
		<path fill="#858585" d="M334,234.21143v-19.33765C317.45044,272.31665,272.00195,317.63892,214.48047,334h19.46582
			C279.34082,315.76001,315.64111,279.54541,334,234.21143z"/>
		<path fill="#858585" d="M0,274.94434v11.19653C13.22571,304.604,29.43018,320.79419,47.90869,334h11.21191
			C35.50562,318.70264,15.32446,298.54126,0,274.94434z"/>
		<path fill="#858585" d="M167.0498,62.57422c-57.47949,0-104.24219,46.77051-104.24219,104.25879
			c0,57.48926,46.7627,104.25977,104.24219,104.25977c57.48828,0,104.25879-46.77051,104.25879-104.25977
			C271.30859,109.34473,224.53809,62.57422,167.0498,62.57422z M167.0498,264.7627c-53.99805,0-97.92969-43.93164-97.92969-97.92969
			S113.05176,68.9043,167.0498,68.9043s97.92969,43.93066,97.92969,97.92871S221.04785,264.7627,167.0498,264.7627z"/>
		<path fill="#858585" d="M167.0498,75.21875c-50.5166,0-91.61523,41.09766-91.61523,91.61426s41.09863,91.61523,91.61523,91.61523
			s91.61523-41.09863,91.61523-91.61523S217.56641,75.21875,167.0498,75.21875z M167.0332,252.13574
			c-47.02637,0-85.28516-38.2666-85.28516-85.30273c0-47.03516,38.25879-85.30176,85.28516-85.30176
			c47.03516,0,85.30176,38.2666,85.30176,85.30176C252.33496,213.86914,214.06836,252.13574,167.0332,252.13574z"/>
		<path fill="#858585" d="M17.28638,0H7.97632C5.25281,2.59766,2.59436,5.2627,0,7.98926v9.32544
			C5.44604,11.23608,11.21606,5.45508,17.28638,0z"/>
		<path fill="#858585" d="M0,316.35229v9.32495C2.70654,328.52173,5.48608,331.2959,8.33301,334h9.32861
			C11.45459,328.44678,5.55762,322.55542,0,316.35229z"/>
		<path fill="#858585" d="M0,214.82324v19.30688C18.34814,279.50244,54.66541,315.74902,100.08691,334h19.43701
			C61.99048,317.63428,16.53589,272.29028,0,214.82324z"/>
		<path fill="#858585" d="M167.08398,12.03223c-85.3584,0-154.80176,69.44336-154.80176,154.80078
			c0,85.3584,69.44336,154.80176,154.80176,154.80176s154.80176-69.44336,154.80176-154.80176
			C321.88574,81.47559,252.44238,12.03223,167.08398,12.03223z M167.08301,315.30566
			c-81.87695,0-148.48828-66.60449-148.48828-148.47266c0-81.86719,66.61133-148.47168,148.48828-148.47168
			c81.86816,0,148.47266,66.60449,148.47266,148.47168C315.55566,248.70117,248.95117,315.30566,167.08301,315.30566z"/>
		<path fill="#858585" d="M167.06641,37.30371c-71.42383,0-129.53027,58.10645-129.53027,129.5293
			c0,71.42383,58.10645,129.53027,129.53027,129.53027s129.53027-58.10645,129.53027-129.53027
			C296.59668,95.41016,238.49023,37.30371,167.06641,37.30371z M167.06641,290.03418
			c-67.94141,0-123.2168-55.26758-123.2168-123.20117c0-67.93262,55.27539-123.2002,123.2168-123.2002
			c67.93359,0,123.20117,55.26758,123.20117,123.2002C290.26758,234.7666,235,290.03418,167.06641,290.03418z"/>
		<path fill="#858585" d="M118.40356,0H99.27319C54.23254,18.35547,18.23828,54.43628,0,99.53638v19.3064
			C16.4281,61.75073,61.40259,16.63379,118.40356,0z"/>
		<path fill="#858585" d="M166.99902,151.0332c-8.71191,0-15.7998,7.08789-15.7998,15.7998
			c0,8.71289,7.08789,15.80078,15.7998,15.80078c8.71289,0,15.80078-7.08789,15.80078-15.80078
			C182.7998,158.12109,175.71191,151.0332,166.99902,151.0332z M166.99902,176.30469c-5.23145,0-9.4873-4.24902-9.4873-9.47168
			c0-5.22168,4.25586-9.4707,9.4873-9.4707c5.22266,0,9.47168,4.24902,9.47168,9.4707
			C176.4707,172.05566,172.22168,176.30469,166.99902,176.30469z"/>
		<path fill="#858585" d="M0,296.67896v10.03906C8.28235,316.59326,17.42017,325.72534,27.30176,334h10.05994
			C23.41553,323.15747,10.85669,310.61353,0,296.67896z"/>
		<path fill="#858585" d="M334,179.00732v-24.34863C328.08276,72.70459,262.92456,6.91504,181.24658,0h-28.4917
			C71.0033,6.92212,5.80469,72.83594,0,154.90356v23.85889C5.91504,262.3916,73.50537,329.25,157.43799,334h19.125
			C260.42188,329.25439,327.97021,262.52222,334,179.00732z M167.08398,327.94922
			c-88.83984,0-161.11621-72.27637-161.11621-161.11621c0-88.83887,72.27637-161.11523,161.11621-161.11523
			S328.2002,77.99414,328.2002,166.83301C328.2002,255.67285,255.92383,327.94922,167.08398,327.94922z"/>
		<path fill="#858585" d="M58.61475,0H47.45203C29.16443,13.14526,13.11597,29.21558,0,47.52563v11.19629
			C15.21436,35.29443,35.21826,15.25684,58.61475,0z"/>
		<path fill="#858585" d="M167.08301,24.67578c-78.39551,0-142.17383,63.77148-142.17383,142.15723
			c0,78.38672,63.77832,142.1582,142.17383,142.1582c78.38672,0,142.1582-63.77148,142.1582-142.1582
			C309.24121,88.44727,245.46973,24.67578,167.08301,24.67578z M167.06641,302.67773
			c-74.90527,0-135.84473-60.93945-135.84473-135.84473c0-74.9043,60.93945-135.84375,135.84473-135.84375
			s135.84473,60.93945,135.84473,135.84375C302.91113,241.73828,241.97168,302.67773,167.06641,302.67773z"/>
		<path fill="#858585" d="M166.99902,163.67676c-1.75,0-3.17285,1.41602-3.17285,3.15625c0,1.74121,1.42285,3.15723,3.17285,3.15723
			c1.74121,0,3.15723-1.41602,3.15723-3.15723C170.15625,165.09277,168.74023,163.67676,166.99902,163.67676z"/>
		<path fill="#858585" d="M83.97913,0H70.64331C41.35632,16.98657,16.92773,41.45947,0,70.78613v13.3772
			C18.07068,47.8042,47.66492,18.14819,83.97913,0z"/>
		<path fill="#858585" d="M0,249.50342v13.3772C17.03687,292.39673,41.6687,317.00122,71.20776,334h13.44067
			C48.02856,315.88281,18.18164,286.08594,0,249.50342z"/>
		<path fill="#858585" d="M334,325.771v-9.33008c-5.53491,6.1709-11.40625,12.03223-17.58447,17.55908h9.33936
			C328.5708,331.32544,331.32153,328.58325,334,325.771z"/>
		<path fill="#858585" d="M334,17.22607V7.89551C331.43384,5.20117,328.80396,2.56812,326.11157,0h-9.32056
			C322.83228,5.42871,328.57666,11.17969,334,17.22607z"/>
		<path fill="#858585" d="M334,286.23193v-11.21631C318.67993,298.58179,298.5144,318.71802,274.92139,334h11.23633
			C304.60547,320.81592,320.78613,304.65698,334,286.23193z"/>
		<path fill="#858585" d="M334,306.81152v-10.0459C323.15869,310.66577,310.62207,323.17969,296.70459,334h10.07056
			C316.62622,325.75146,325.73779,316.65063,334,306.81152z"/>
		<path fill="#858585" d="M334,118.79248v-19.3374C315.75122,54.39307,279.77368,18.34448,234.76001,0h-19.15918
			C272.59009,16.62891,317.55835,61.72437,334,118.79248z"/>
		<path fill="#858585" d="M334,36.90137v-10.0459C325.84839,17.14795,316.86865,8.16064,307.16895,0h-10.03003
			C310.88403,10.74316,323.27075,23.14502,334,36.90137z"/>
		<path fill="#858585" d="M334,84.09668V70.70557C317.07275,41.41479,292.66064,16.97095,263.39795,0H250.0542
			C286.34619,18.13721,315.92627,47.76782,334,84.09668z"/>
		<path fill="#858585" d="M334,58.65063V47.43457C320.896,29.1626,304.87158,13.12329,286.61426,0h-11.18701
			C298.80176,15.24121,318.79004,35.25391,334,58.65063z"/>
		<path fill="#7A7A7A" d="M166.99902,157.3623c-5.23145,0-9.4873,4.24902-9.4873,9.4707c0,5.22266,4.25586,9.47168,9.4873,9.47168
			c5.22266,0,9.47168-4.24902,9.47168-9.47168C176.4707,161.61133,172.22168,157.3623,166.99902,157.3623z M166.99902,169.99023
			c-1.75,0-3.17285-1.41602-3.17285-3.15723c0-1.74023,1.42285-3.15625,3.17285-3.15625c1.74121,0,3.15723,1.41602,3.15723,3.15625
			C170.15625,168.57422,168.74023,169.99023,166.99902,169.99023z"/>
		<path fill="#7A7A7A" d="M166.99902,144.71875c-12.19336,0-22.11426,9.9209-22.11426,22.11426
			c0,12.19434,9.9209,22.11523,22.11426,22.11523c12.19434,0,22.11523-9.9209,22.11523-22.11523
			C189.11426,154.63965,179.19336,144.71875,166.99902,144.71875z M166.99902,182.63379
			c-8.71191,0-15.7998-7.08789-15.7998-15.80078c0-8.71191,7.08789-15.7998,15.7998-15.7998
			c8.71289,0,15.80078,7.08789,15.80078,15.7998C182.7998,175.5459,175.71191,182.63379,166.99902,182.63379z"/>
		<path fill="#7A7A7A" d="M167.01562,132.09082c-19.16602,0-34.75879,15.58594-34.75879,34.74219
			c0,19.15723,15.59277,34.74316,34.75879,34.74316c19.15723,0,34.74316-15.58594,34.74316-34.74316
			C201.75879,147.67676,186.17285,132.09082,167.01562,132.09082z M167.01562,195.26172
			c-15.68457,0-28.44434-12.75293-28.44434-28.42871s12.75977-28.42773,28.44434-28.42773
			c15.67578,0,28.42871,12.75195,28.42871,28.42773S182.69141,195.26172,167.01562,195.26172z"/>
		<path fill="#7A7A7A" d="M167.01562,119.44727c-26.12793,0-47.38574,21.25781-47.38574,47.38574
			c0,26.12891,21.25781,47.38672,47.38574,47.38672c26.12891,0,47.38672-21.25781,47.38672-47.38672
			C214.40234,140.70508,193.14453,119.44727,167.01562,119.44727z M167.01562,207.90527
			c-22.64746,0-41.07129-18.4248-41.07129-41.07227s18.42383-41.07129,41.07129-41.07129s41.07227,18.42383,41.07227,41.07129
			S189.66309,207.90527,167.01562,207.90527z"/>
		<path fill="#7A7A7A" d="M167.01562,106.81934c-33.09082,0-60.0127,26.92188-60.0127,60.01367
			c0,33.10156,26.92188,60.03125,60.0127,60.03125c33.10156,0,60.03125-26.92969,60.03125-60.03125
			C227.04688,133.74121,200.11719,106.81934,167.01562,106.81934z M167.01562,220.5498
			c-29.60938,0-53.69824-24.09668-53.69824-53.7168c0-29.61035,24.08887-53.69922,53.69824-53.69922
			c29.62012,0,53.7168,24.08887,53.7168,53.69922C220.73242,196.45312,196.63574,220.5498,167.01562,220.5498z"/>
		<path fill="#7A7A7A" d="M167.0332,94.17578c-40.06348,0-72.6582,32.59375-72.6582,72.65723s32.59473,72.6582,72.6582,72.6582
			s72.6582-32.59473,72.6582-72.6582S207.09668,94.17578,167.0332,94.17578z M167.0332,233.17676
			c-36.58203,0-66.34375-29.76172-66.34375-66.34375s29.76172-66.34277,66.34375-66.34277s66.34375,29.76074,66.34375,66.34277
			S203.61523,233.17676,167.0332,233.17676z"/>
		<path fill="#7A7A7A" d="M167.0332,81.53125c-47.02637,0-85.28516,38.2666-85.28516,85.30176
			c0,47.03613,38.25879,85.30273,85.28516,85.30273c47.03516,0,85.30176-38.2666,85.30176-85.30273
			C252.33496,119.79785,214.06836,81.53125,167.0332,81.53125z M167.0332,245.82129c-43.54492,0-78.9707-35.43359-78.9707-78.98828
			c0-43.55371,35.42578-78.9873,78.9707-78.9873c43.55371,0,78.9873,35.43359,78.9873,78.9873
			C246.02051,210.3877,210.58691,245.82129,167.0332,245.82129z"/>
		<path fill="#7A7A7A" d="M167.0498,68.9043c-53.99805,0-97.92969,43.93066-97.92969,97.92871s43.93164,97.92969,97.92969,97.92969
			s97.92969-43.93164,97.92969-97.92969S221.04785,68.9043,167.0498,68.9043z M167.0498,258.44824
			c-50.5166,0-91.61523-41.09863-91.61523-91.61523s41.09863-91.61426,91.61523-91.61426s91.61523,41.09766,91.61523,91.61426
			S217.56641,258.44824,167.0498,258.44824z"/>
		<path fill="#7A7A7A" d="M167.0498,56.25977c-60.96094,0-110.55664,49.60352-110.55664,110.57324
			c0,60.9707,49.5957,110.57422,110.55664,110.57422c60.96973,0,110.57324-49.60352,110.57324-110.57422
			C277.62305,105.86328,228.01953,56.25977,167.0498,56.25977z M167.0498,271.09277
			c-57.47949,0-104.24219-46.77051-104.24219-104.25977c0-57.48828,46.7627-104.25879,104.24219-104.25879
			c57.48828,0,104.25879,46.77051,104.25879,104.25879C271.30859,224.32227,224.53809,271.09277,167.0498,271.09277z"/>
		<path fill="#7A7A7A" d="M167.06641,43.63281c-67.94141,0-123.2168,55.26758-123.2168,123.2002
			c0,67.93359,55.27539,123.20117,123.2168,123.20117c67.93359,0,123.20117-55.26758,123.20117-123.20117
			C290.26758,98.90039,235,43.63281,167.06641,43.63281z M167.06641,283.71973c-64.45996,0-116.90234-52.43457-116.90234-116.88672
			c0-64.45117,52.44238-116.88574,116.90234-116.88574c64.45215,0,116.88672,52.43457,116.88672,116.88574
			C283.95312,231.28516,231.51855,283.71973,167.06641,283.71973z"/>
		<path fill="#7A7A7A" d="M167.06641,30.98926c-74.90527,0-135.84473,60.93945-135.84473,135.84375
			c0,74.90527,60.93945,135.84473,135.84473,135.84473s135.84473-60.93945,135.84473-135.84473
			C302.91113,91.92871,241.97168,30.98926,167.06641,30.98926z M167.06641,296.36328
			c-71.42383,0-129.53027-58.10645-129.53027-129.53027c0-71.42285,58.10645-129.5293,129.53027-129.5293
			s129.53027,58.10645,129.53027,129.5293C296.59668,238.25684,238.49023,296.36328,167.06641,296.36328z"/>
		<path fill="#7A7A7A" d="M167.08301,18.36133c-81.87695,0-148.48828,66.60449-148.48828,148.47168
			c0,81.86816,66.61133,148.47266,148.48828,148.47266c81.86816,0,148.47266-66.60449,148.47266-148.47266
			C315.55566,84.96582,248.95117,18.36133,167.08301,18.36133z M167.08301,308.99121
			c-78.39551,0-142.17383-63.77148-142.17383-142.1582c0-78.38574,63.77832-142.15723,142.17383-142.15723
			c78.38672,0,142.1582,63.77148,142.1582,142.15723C309.24121,245.21973,245.46973,308.99121,167.08301,308.99121z"/>
		<path fill="#7A7A7A" d="M167.08398,5.71777c-88.83984,0-161.11621,72.27637-161.11621,161.11523
			c0,88.83984,72.27637,161.11621,161.11621,161.11621S328.2002,255.67285,328.2002,166.83301
			C328.2002,77.99414,255.92383,5.71777,167.08398,5.71777z M167.08398,321.63477
			c-85.3584,0-154.80176-69.44336-154.80176-154.80176c0-85.35742,69.44336-154.80078,154.80176-154.80078
			s154.80176,69.44336,154.80176,154.80078C321.88574,252.19141,252.44238,321.63477,167.08398,321.63477z"/>
		<path fill="#7A7A7A" d="M334,154.65869v-35.86621C317.55835,61.72437,272.59009,16.62891,215.60083,0h-34.35425
			C262.92456,6.91504,328.08276,72.70459,334,154.65869z"/>
		<path fill="#7A7A7A" d="M152.75488,0h-34.35132C61.40259,16.63379,16.4281,61.75073,0,118.84277v36.06079
			C5.80469,72.83594,71.0033,6.92212,152.75488,0z"/>
		<path fill="#7A7A7A" d="M334,214.87378v-35.86646C327.97021,262.52222,260.42188,329.25439,176.56299,334h37.91748
			C272.00195,317.63892,317.45044,272.31665,334,214.87378z"/>
		<path fill="#7A7A7A" d="M0,178.76245v36.06079C16.53589,272.29028,61.99048,317.63428,119.52393,334h37.91406
			C73.50537,329.25,5.91504,262.3916,0,178.76245z"/>
		<path fill="#7A7A7A" d="M334,249.57007v-15.35864C315.64111,279.54541,279.34082,315.76001,233.94629,334h15.43848
			C285.98242,315.8938,315.81543,286.12207,334,249.57007z"/>
		<path fill="#7A7A7A" d="M334,99.45508v-15.3584C315.92627,47.76782,286.34619,18.13721,250.0542,0h-15.29419
			C279.77368,18.34448,315.75122,54.39307,334,99.45508z"/>
		<path fill="#7A7A7A" d="M0,234.13013v15.37329C18.18164,286.08594,48.02856,315.88281,84.64844,334h15.43848
			C54.66541,315.74902,18.34814,279.50244,0,234.13013z"/>
		<path fill="#7A7A7A" d="M99.27319,0H83.97913C47.66492,18.14819,18.07068,47.8042,0,84.16333v15.37305
			C18.23828,54.43628,54.23254,18.35547,99.27319,0z"/>
		<path fill="#7A7A7A" d="M70.64331,0H58.61475C35.21826,15.25684,15.21436,35.29443,0,58.72192v12.06421
			C16.92773,41.45947,41.35632,16.98657,70.64331,0z"/>
		<path fill="#7A7A7A" d="M0,262.88062v12.06372C15.32446,298.54126,35.50562,318.70264,59.12061,334h12.08716
			C41.6687,317.00122,17.03687,292.39673,0,262.88062z"/>
		<path fill="#7A7A7A" d="M334,70.70557V58.65063C318.79004,35.25391,298.80176,15.24121,275.42725,0h-12.0293
			C292.66064,16.97095,317.07275,41.41479,334,70.70557z"/>
		<path fill="#7A7A7A" d="M334,275.01562v-12.05469C316.96338,292.44116,292.34814,317.0166,262.8335,334h12.08789
			C298.5144,318.71802,318.67993,298.58179,334,275.01562z"/>
		<path fill="#7A7A7A" d="M47.45203,0H36.92749C23.15369,10.76538,10.74463,23.19727,0,36.98779v10.53784
			C13.11597,29.21558,29.16443,13.14526,47.45203,0z"/>
		<path fill="#7A7A7A" d="M334,47.43457v-10.5332C323.27075,23.14502,310.88403,10.74316,297.13892,0h-10.52466
			C304.87158,13.12329,320.896,29.1626,334,47.43457z"/>
		<path fill="#7A7A7A" d="M334,296.76562v-10.53369C320.78613,304.65698,304.60547,320.81592,286.15771,334h10.54688
			C310.62207,323.17969,323.15869,310.66577,334,296.76562z"/>
		<path fill="#7A7A7A" d="M0,286.14087v10.53809C10.85669,310.61353,23.41553,323.15747,37.36169,334h10.547
			C29.43018,320.79419,13.22571,304.604,0,286.14087z"/>
		<path fill="#7A7A7A" d="M26.90796,0h-9.62158C11.21606,5.45508,5.44604,11.23608,0,17.3147v9.63403
			C8.17188,17.20557,17.17773,8.18701,26.90796,0z"/>
		<path fill="#7A7A7A" d="M334,26.85547v-9.62939C328.57666,11.17969,322.83228,5.42871,316.79102,0h-9.62207
			C316.86865,8.16064,325.84839,17.14795,334,26.85547z"/>
		<path fill="#7A7A7A" d="M0,306.71802v9.63428C5.55762,322.55542,11.45459,328.44678,17.66162,334h9.64014
			C17.42017,325.72534,8.28235,316.59326,0,306.71802z"/>
		<path fill="#7A7A7A" d="M334,316.44092v-9.62939c-8.26221,9.83911-17.37378,18.93994-27.22485,27.18848h9.64038
			C322.59375,328.47314,328.46509,322.61182,334,316.44092z"/>
		<path fill="#7A7A7A" d="M334,325.771c-2.67847,2.81226-5.4292,5.55444-8.24512,8.229H334V325.771z"/>
		<path fill="#7A7A7A" d="M0,325.67725V334h8.33301C5.48608,331.2959,2.70654,328.52173,0,325.67725z"/>
		<path fill="#7A7A7A" d="M334,7.89551V0h-7.88843C328.80396,2.56812,331.43384,5.20117,334,7.89551z"/>
		<path fill="#7A7A7A" d="M7.97632,0H0v7.98926C2.59436,5.2627,5.25281,2.59766,7.97632,0z"/>
	</g>
</g>
<g id="Layer_3" display="none">
</g>
<g id="Layer_2" display="none">
</g>
</svg>
