<?xml version="1.0" encoding="utf-8"?>
<!-- Generator: Adobe Illustrator 21.1.0, SVG Export Plug-In . SVG Version: 6.00 Build 0)  -->
<svg version="1.2" baseProfile="tiny" xmlns="http://www.w3.org/2000/svg" xmlns:xlink="http://www.w3.org/1999/xlink" x="0px"
	 y="0px" viewBox="0 0 334 334" xml:space="preserve">
<g id="Layer_1">
	<g>
		<path fill="#9B9B9B" d="M166.99951,147.22369c-10.43457,0-18.92432,8.49707-18.92432,18.94092
			c0,10.44427,8.48975,18.94135,18.92432,18.94135c10.44434,0,18.94141-8.49707,18.94141-18.94135
			C185.94092,155.72076,177.44385,147.22369,166.99951,147.22369z"/>
		<path fill="#9B9B9B" d="M166.99951,71.47614c-52.21143,0-94.68848,42.47705-94.68848,94.68848
			c0,52.21136,42.47705,94.6889,94.68848,94.6889s94.68896-42.47754,94.68896-94.6889
			C261.68848,113.95319,219.21094,71.47614,166.99951,71.47614z M166.99951,222.98779
			c-31.32324,0-56.80615-25.49072-56.80615-56.82318c0-31.33203,25.48291-56.82275,56.80615-56.82275
			c31.33252,0,56.82324,25.49072,56.82324,56.82275C223.82275,197.49707,198.33203,222.98779,166.99951,222.98779z"/>
		<path fill="#9B9B9B" d="M0,290.5697V334h43.73108C27.1062,321.755,12.35211,307.11115,0,290.5697z"/>
		<path fill="#9B9B9B" d="M41.49139,0H0v41.76001C11.79486,25.9649,25.77924,11.89893,41.49139,0z"/>
		<path fill="#9B9B9B" d="M334,41.74243V0h-41.48193C308.22583,11.89459,322.20691,25.95441,334,41.74243z"/>
		<path fill="#9B9B9B" d="M334,200.38757v-68.44574C320.63806,66.64246,269.81873,14.82611,205.05835,0h-76.11371
			C64.16376,14.83234,13.3349,66.68591,0,132.0238v68.2818C13.89417,268.38391,68.49255,321.8244,137.16626,334h59.66968
			C265.48901,321.82928,320.07751,268.42688,334,200.38757z M166.99951,298.73535
			c-73.09961,0-132.57031-59.4707-132.57031-132.57074c0-73.09961,59.4707-132.57031,132.57031-132.57031
			c73.1001,0,132.5708,59.4707,132.5708,132.57031C299.57031,239.26465,240.09961,298.73535,166.99951,298.73535z"/>
		<path fill="#9B9B9B" d="M290.2782,334H334v-43.41272C321.64941,307.12158,306.89856,321.75928,290.2782,334z"/>
		<path fill="#646464" d="M166.99951,109.34186c-31.32324,0-56.80615,25.49072-56.80615,56.82275
			c0,31.33246,25.48291,56.82318,56.80615,56.82318c31.33252,0,56.82324-25.49072,56.82324-56.82318
			C223.82275,134.83258,198.33203,109.34186,166.99951,109.34186z M166.99951,185.10596
			c-10.43457,0-18.92432-8.49707-18.92432-18.94135c0-10.44385,8.48975-18.94092,18.92432-18.94092
			c10.44434,0,18.94141,8.49707,18.94141,18.94092C185.94092,176.60889,177.44385,185.10596,166.99951,185.10596z"/>
		<path fill="#646464" d="M166.99951,33.5943C93.8999,33.5943,34.4292,93.065,34.4292,166.16461
			c0,73.10004,59.4707,132.57074,132.57031,132.57074c73.1001,0,132.5708-59.4707,132.5708-132.57074
			C299.57031,93.065,240.09961,33.5943,166.99951,33.5943z M166.99951,260.85352c-52.21143,0-94.68848-42.47754-94.68848-94.6889
			c0-52.21143,42.47705-94.68848,94.68848-94.68848s94.68896,42.47705,94.68896,94.68848
			C261.68848,218.37598,219.21094,260.85352,166.99951,260.85352z"/>
		<path fill="#646464" d="M334,290.58728v-90.19971C320.07751,268.42688,265.48901,321.82928,196.83594,334h93.44226
			C306.89856,321.75928,321.64941,307.12158,334,290.58728z"/>
		<path fill="#646464" d="M128.94464,0H41.49139C25.77924,11.89893,11.79486,25.9649,0,41.76001v90.26379
			C13.3349,66.68591,64.16376,14.83234,128.94464,0z"/>
		<path fill="#646464" d="M0,200.3056v90.2641C12.35211,307.11115,27.1062,321.755,43.73108,334h93.43518
			C68.49255,321.8244,13.89417,268.38391,0,200.3056z"/>
		<path fill="#646464" d="M334,131.94183v-90.1994C322.20691,25.95441,308.22583,11.89459,292.51807,0h-87.45972
			C269.81873,14.82611,320.63806,66.64246,334,131.94183z"/>
	</g>
</g>
<g id="Layer_3" display="none">
</g>
<g id="Layer_2" display="none">
</g>
</svg>
