<?xml version="1.0" encoding="utf-8"?>
<!-- Generator: Adobe Illustrator 21.1.0, SVG Export Plug-In . SVG Version: 6.00 Build 0)  -->
<svg version="1.2" baseProfile="tiny" xmlns="http://www.w3.org/2000/svg" xmlns:xlink="http://www.w3.org/1999/xlink" x="0px"
	 y="0px" viewBox="0 0 334 334" xml:space="preserve">
<g id="Layer_1">
	<g>
		<path fill="#898989" d="M166.33105,170.24805c2.25195,0,4.08398-1.83203,4.08398-4.08398
			c0-2.25098-1.83203-4.08301-4.08398-4.08301c-2.24219,0-4.06641,1.83203-4.06641,4.08301
			C162.26465,168.41602,164.08887,170.24805,166.33105,170.24805z"/>
		<path fill="#898989" d="M166.33203,219.2041c29.24609,0,53.04004-23.79395,53.04004-53.04004S195.57812,113.125,166.33203,113.125
			s-53.04004,23.79297-53.04004,53.03906S137.08594,219.2041,166.33203,219.2041z M166.33203,121.27539
			c24.75195,0,44.88867,20.13672,44.88867,44.88867s-20.13672,44.88965-44.88867,44.88965s-44.88965-20.1377-44.88965-44.88965
			S141.58008,121.27539,166.33203,121.27539z"/>
		<path fill="#898989" d="M166.33203,186.56641c11.25,0,20.40234-9.15234,20.40234-20.40234s-9.15234-20.40234-20.40234-20.40234
			c-11.24121,0-20.38672,9.15234-20.38672,20.40234S155.09082,186.56641,166.33203,186.56641z M166.33105,153.91309
			c6.75586,0,12.25195,5.49609,12.25195,12.25098c0,6.75586-5.49609,12.25195-12.25195,12.25195
			c-6.74609,0-12.23438-5.49609-12.23438-12.25195C154.09668,159.40918,159.58496,153.91309,166.33105,153.91309z"/>
		<path fill="#898989" d="M166.33203,202.88574c20.24805,0,36.7207-16.47363,36.7207-36.72168s-16.47266-36.7207-36.7207-36.7207
			s-36.72168,16.47266-36.72168,36.7207S146.08398,202.88574,166.33203,202.88574z M166.33203,137.59375
			c15.75391,0,28.57031,12.81641,28.57031,28.57031s-12.81641,28.57031-28.57031,28.57031
			c-15.74512,0-28.55469-12.81641-28.55469-28.57031S150.58691,137.59375,166.33203,137.59375z"/>
		<path fill="#898989" d="M166.33203,284.47852c65.23926,0,118.31445-53.0752,118.31445-118.31445
			S231.57129,47.84961,166.33203,47.84961c-65.24805,0-118.33105,53.0752-118.33105,118.31445
			S101.08398,284.47852,166.33203,284.47852z M166.33203,56.00098c60.74414,0,110.16406,49.41895,110.16406,110.16309
			s-49.41992,110.16406-110.16406,110.16406c-60.75391,0-110.18066-49.41992-110.18066-110.16406
			S105.57812,56.00098,166.33203,56.00098z"/>
		<path fill="#898989" d="M166.31543,300.81445c74.24609,0,134.65039-60.4043,134.65039-134.65039
			S240.56152,31.51465,166.31543,31.51465c-74.2373,0-134.63281,60.40332-134.63281,134.64941
			S92.07812,300.81445,166.31543,300.81445z M166.33203,39.68164c69.74219,0,126.48242,56.74023,126.48242,126.48242
			s-56.74023,126.48242-126.48242,126.48242c-69.75195,0-126.49902-56.74023-126.49902-126.48242
			S96.58008,39.68164,166.33203,39.68164z"/>
		<path fill="#898989" d="M166.33203,268.16016c56.24121,0,101.99609-45.75488,101.99609-101.99609
			c0-56.24023-45.75488-101.99512-101.99609-101.99512c-56.25,0-102.0127,45.75488-102.0127,101.99512
			C64.31934,222.40527,110.08203,268.16016,166.33203,268.16016z M166.33203,72.31934
			c51.74609,0,93.84473,42.09863,93.84473,93.84473c0,51.74707-42.09863,93.8457-93.84473,93.8457
			s-93.84473-42.09863-93.84473-93.8457C72.4873,114.41797,114.58594,72.31934,166.33203,72.31934z"/>
		<path fill="#898989" d="M166.33203,251.8418c47.24219,0,85.67676-38.43457,85.67676-85.67773
			c0-47.24219-38.43457-85.67676-85.67676-85.67676s-85.67676,38.43457-85.67676,85.67676
			C80.65527,213.40723,119.08984,251.8418,166.33203,251.8418z M166.33203,88.6377c42.74805,0,77.52637,34.77832,77.52637,77.52637
			s-34.77832,77.52637-77.52637,77.52637s-77.52637-34.77832-77.52637-77.52637S123.58398,88.6377,166.33203,88.6377z"/>
		<path fill="#898989" d="M109.95618,0H88.28064C49.5437,18.26892,18.18787,49.68921,0,88.47144v21.8186
			C17.4165,58.57898,58.31433,17.56812,109.95618,0z"/>
		<path fill="#898989" d="M334,43.06628V29.76685C325.16333,18.92493,315.30151,8.95215,304.55811,0h-13.10327
			C307.63501,12.21436,321.97778,26.73486,334,43.06628z"/>
		<path fill="#898989" d="M166.31543,317.13281c83.24414,0,150.96875-67.72461,150.96875-150.96875
			S249.55957,15.19531,166.31543,15.19531c-83.23535,0-150.95215,67.72461-150.95215,150.96875
			S83.08008,317.13281,166.31543,317.13281z M166.31543,23.34668c78.75,0,142.81836,64.06738,142.81836,142.81738
			s-64.06836,142.81836-142.81836,142.81836c-78.74023,0-142.80078-64.06836-142.80078-142.81836
			S87.5752,23.34668,166.31543,23.34668z"/>
		<path fill="#898989" d="M334,17.18396V5.17346C332.31628,3.42065,330.6001,1.69971,328.86279,0h-11.8562
			C322.97546,5.41748,328.64197,11.1604,334,17.18396z"/>
		<path fill="#898989" d="M334,114.43018V91.37354C316.03467,51.25635,284.08215,18.7229,244.3822,0h-21.67566
			C275.71948,18.03442,317.40991,60.77271,334,114.43018z"/>
		<path fill="#898989" d="M334,73.17529V57.39673C319.19873,34.65808,299.90552,15.10205,277.3822,0h-15.39062
			C292.10571,17.40381,317.06543,42.76172,334,73.17529z"/>
		<path fill="#898989" d="M70.67139,0H55.28186C33.43066,14.65137,14.6189,33.49414,0,55.3689v15.41833
			C16.89893,41.43091,41.34668,16.94775,70.67139,0z"/>
		<path fill="#898989" d="M41.20923,0H28.10596C17.90234,8.50244,8.49048,17.92261,0,28.1366v13.12366
			C11.74304,25.6615,25.62646,11.76318,41.20923,0z"/>
		<path fill="#898989" d="M15.65723,0H3.78931C2.51172,1.24976,1.24866,2.51404,0,3.79272v11.88574
			C4.96045,10.20068,10.18506,4.96655,15.65723,0z"/>
		<path fill="#898989" d="M166.33203,235.52246c38.24414,0,69.3584-31.11426,69.3584-69.3584s-31.11426-69.3584-69.3584-69.3584
			s-69.3584,31.11426-69.3584,69.3584S128.08789,235.52246,166.33203,235.52246z M166.33203,104.95703
			c33.75,0,61.20801,27.45703,61.20801,61.20703s-27.45801,61.20801-61.20801,61.20801s-61.20801-27.45801-61.20801-61.20801
			S132.58203,104.95703,166.33203,104.95703z"/>
		<path fill="#898989" d="M334,274.9314v-15.77808C316.5127,290.55981,290.46265,316.56714,259.02209,334h15.82239
			C298.45703,318.68091,318.646,298.51929,334,274.9314z"/>
		<path fill="#898989" d="M334,240.95508v-23.05664C316.87134,273.29834,272.98315,317.05127,217.50537,334h23.2356
			C282.12744,315.57959,315.48853,282.29224,334,240.95508z"/>
		<path fill="#898989" d="M334,302.56152v-13.2998C321.42285,306.34692,306.30249,321.4458,289.19971,334h13.32178
			C314.05615,324.62256,324.60852,314.08447,334,302.56152z"/>
		<path fill="#898989" d="M166.33105,333.45215c92.24316,0,167.28809-75.04492,167.28809-167.28809
			C333.61914,80.45898,268.83008,9.61279,185.65881,0h-38.6554C69.69141,8.93579,8.2699,70.78271,0,148.29272v35.74292
			C8.94849,267.90625,80.12573,333.45215,166.33105,333.45215z M166.31543,7.02734
			c87.74805,0,159.13672,71.38867,159.13672,159.13672s-71.38867,159.13672-159.13672,159.13672
			c-87.73926,0-159.12012-71.38867-159.12012-159.13672S78.57617,7.02734,166.31543,7.02734z"/>
		<path fill="#898989" d="M0,291.06787v13.12402C9.05176,315.0813,19.1532,325.06567,30.14258,334h13.32178
			C26.96533,321.88892,12.30579,307.41406,0,291.06787z"/>
		<path fill="#898989" d="M334,327.15527v-12.01025c-5.91577,6.65039-12.21912,12.94653-18.87622,18.85498h12.02734
			C329.48145,331.76611,331.76379,329.48315,334,327.15527z"/>
		<path fill="#898989" d="M0,222.03857v21.8186C18.75464,283.84814,51.50977,316.01294,91.92188,334h23.23535
			C61.06934,317.47559,17.99695,275.47339,0,222.03857z"/>
		<path fill="#898989" d="M0,316.65039v11.8855c1.80591,1.84937,3.63501,3.67554,5.50098,5.46411h12.03882
			C11.38464,328.53711,5.52368,322.75024,0,316.65039z"/>
		<path fill="#898989" d="M0,261.5415v15.41772C15.18164,299.67603,34.88623,319.12158,57.81958,334h15.82129
			C42.99854,317.00952,17.46521,291.88184,0,261.5415z"/>
		<path fill="#767676" d="M166.33105,178.41602c6.75586,0,12.25195-5.49609,12.25195-12.25195
			c0-6.75488-5.49609-12.25098-12.25195-12.25098c-6.74609,0-12.23438,5.49609-12.23438,12.25098
			C154.09668,172.91992,159.58496,178.41602,166.33105,178.41602z M166.33105,162.08105c2.25195,0,4.08398,1.83203,4.08398,4.08301
			c0,2.25195-1.83203,4.08398-4.08398,4.08398c-2.24219,0-4.06641-1.83203-4.06641-4.08398
			C162.26465,163.91309,164.08887,162.08105,166.33105,162.08105z"/>
		<path fill="#767676" d="M166.33203,194.73438c15.75391,0,28.57031-12.81641,28.57031-28.57031
			s-12.81641-28.57031-28.57031-28.57031c-15.74512,0-28.55469,12.81641-28.55469,28.57031S150.58691,194.73438,166.33203,194.73438
			z M166.33203,145.76172c11.25,0,20.40234,9.15234,20.40234,20.40234s-9.15234,20.40234-20.40234,20.40234
			c-11.24121,0-20.38672-9.15234-20.38672-20.40234S155.09082,145.76172,166.33203,145.76172z"/>
		<path fill="#767676" d="M166.33203,211.05371c24.75195,0,44.88867-20.1377,44.88867-44.88965
			s-20.13672-44.88867-44.88867-44.88867s-44.88965,20.13672-44.88965,44.88867S141.58008,211.05371,166.33203,211.05371z
			 M166.33203,129.44336c20.24805,0,36.7207,16.47266,36.7207,36.7207s-16.47266,36.72168-36.7207,36.72168
			s-36.72168-16.47363-36.72168-36.72168S146.08398,129.44336,166.33203,129.44336z"/>
		<path fill="#767676" d="M166.33203,227.37207c33.75,0,61.20801-27.45801,61.20801-61.20801s-27.45801-61.20703-61.20801-61.20703
			s-61.20801,27.45703-61.20801,61.20703S132.58203,227.37207,166.33203,227.37207z M166.33203,113.125
			c29.24609,0,53.04004,23.79297,53.04004,53.03906s-23.79395,53.04004-53.04004,53.04004s-53.04004-23.79395-53.04004-53.04004
			S137.08594,113.125,166.33203,113.125z"/>
		<path fill="#767676" d="M166.33203,243.69043c42.74805,0,77.52637-34.77832,77.52637-77.52637
			S209.08008,88.6377,166.33203,88.6377s-77.52637,34.77832-77.52637,77.52637S123.58398,243.69043,166.33203,243.69043z
			 M166.33203,96.80566c38.24414,0,69.3584,31.11426,69.3584,69.3584s-31.11426,69.3584-69.3584,69.3584
			s-69.3584-31.11426-69.3584-69.3584S128.08789,96.80566,166.33203,96.80566z"/>
		<path fill="#767676" d="M166.33203,260.00977c51.74609,0,93.84473-42.09863,93.84473-93.8457
			c0-51.74609-42.09863-93.84473-93.84473-93.84473S72.4873,114.41797,72.4873,166.16406
			C72.4873,217.91113,114.58594,260.00977,166.33203,260.00977z M166.33203,80.4873c47.24219,0,85.67676,38.43457,85.67676,85.67676
			c0,47.24316-38.43457,85.67773-85.67676,85.67773s-85.67676-38.43457-85.67676-85.67773
			C80.65527,118.92188,119.08984,80.4873,166.33203,80.4873z"/>
		<path fill="#767676" d="M166.33203,276.32812c60.74414,0,110.16406-49.41992,110.16406-110.16406
			S227.07617,56.00098,166.33203,56.00098c-60.75391,0-110.18066,49.41895-110.18066,110.16309
			S105.57812,276.32812,166.33203,276.32812z M166.33203,64.16895c56.24121,0,101.99609,45.75488,101.99609,101.99512
			c0,56.24121-45.75488,101.99609-101.99609,101.99609c-56.25,0-102.0127-45.75488-102.0127-101.99609
			C64.31934,109.92383,110.08203,64.16895,166.33203,64.16895z"/>
		<path fill="#767676" d="M166.33203,292.64648c69.74219,0,126.48242-56.74023,126.48242-126.48242
			S236.07422,39.68164,166.33203,39.68164c-69.75195,0-126.49902,56.74023-126.49902,126.48242
			S96.58008,292.64648,166.33203,292.64648z M166.33203,47.84961c65.23926,0,118.31445,53.0752,118.31445,118.31445
			s-53.0752,118.31445-118.31445,118.31445c-65.24805,0-118.33105-53.0752-118.33105-118.31445
			S101.08398,47.84961,166.33203,47.84961z"/>
		<path fill="#767676" d="M166.31543,308.98242c78.75,0,142.81836-64.06836,142.81836-142.81836
			S245.06543,23.34668,166.31543,23.34668c-78.74023,0-142.80078,64.06738-142.80078,142.81738
			S87.5752,308.98242,166.31543,308.98242z M166.31543,31.51465c74.24609,0,134.65039,60.40332,134.65039,134.64941
			s-60.4043,134.65039-134.65039,134.65039c-74.2373,0-134.63281-60.4043-134.63281-134.65039S92.07812,31.51465,166.31543,31.51465
			z"/>
		<path fill="#767676" d="M166.31543,325.30078c87.74805,0,159.13672-71.38867,159.13672-159.13672
			S254.06348,7.02734,166.31543,7.02734c-87.73926,0-159.12012,71.38867-159.12012,159.13672
			S78.57617,325.30078,166.31543,325.30078z M166.31543,15.19531c83.24414,0,150.96875,67.72461,150.96875,150.96875
			s-67.72461,150.96875-150.96875,150.96875c-83.23535,0-150.95215-67.72461-150.95215-150.96875
			S83.08008,15.19531,166.31543,15.19531z"/>
		<path fill="#767676" d="M334,217.89844V114.43018C317.40991,60.77271,275.71948,18.03442,222.70654,0h-37.04773
			c83.17126,9.61279,147.96033,80.45898,147.96033,166.16406c0,92.24316-75.04492,167.28809-167.28809,167.28809
			c-86.20532,0-157.38257-65.5459-166.33105-149.4165v38.00293C17.99695,275.47339,61.06934,317.47559,115.15723,334h102.34814
			C272.98315,317.05127,316.87134,273.29834,334,217.89844z"/>
		<path fill="#767676" d="M147.00342,0h-37.04724C58.31433,17.56812,17.4165,58.57898,0,110.29004v38.00269
			C8.2699,70.78271,69.69141,8.93579,147.00342,0z"/>
		<path fill="#767676" d="M334,259.15332v-18.19824C315.48853,282.29224,282.12744,315.57959,240.74097,334h18.28113
			C290.46265,316.56714,316.5127,290.55981,334,259.15332z"/>
		<path fill="#767676" d="M88.28064,0H70.67139C41.34668,16.94775,16.89893,41.43091,0,70.78723v17.6842
			C18.18787,49.68921,49.5437,18.26892,88.28064,0z"/>
		<path fill="#767676" d="M0,243.85718v17.68433C17.46521,291.88184,42.99854,317.00952,73.64087,334h18.28101
			C51.50977,316.01294,18.75464,283.84814,0,243.85718z"/>
		<path fill="#767676" d="M334,91.37354V73.17529C317.06543,42.76172,292.10571,17.40381,261.99158,0H244.3822
			C284.08215,18.7229,316.03467,51.25635,334,91.37354z"/>
		<path fill="#767676" d="M334,289.26172V274.9314c-15.354,23.58789-35.54297,43.74951-59.15552,59.0686h14.35522
			C306.30249,321.4458,321.42285,306.34692,334,289.26172z"/>
		<path fill="#767676" d="M0,276.95923v14.10864C12.30579,307.41406,26.96533,321.88892,43.46436,334h14.35522
			C34.88623,319.12158,15.18164,299.67603,0,276.95923z"/>
		<path fill="#767676" d="M334,57.39673V43.06628C321.97778,26.73486,307.63501,12.21436,291.45483,0H277.3822
			C299.90552,15.10205,319.19873,34.65808,334,57.39673z"/>
		<path fill="#767676" d="M55.28186,0H41.20923C25.62646,11.76318,11.74304,25.6615,0,41.26025V55.3689
			C14.6189,33.49414,33.43066,14.65137,55.28186,0z"/>
		<path fill="#767676" d="M334,29.76685V17.18396C328.64197,11.1604,322.97546,5.41748,317.00659,0h-12.44849
			C315.30151,8.95215,325.16333,18.92493,334,29.76685z"/>
		<path fill="#767676" d="M334,315.14502v-12.5835c-9.39148,11.52295-19.94385,22.06104-31.47852,31.43848h12.60229
			C321.78088,328.09155,328.08423,321.79541,334,315.14502z"/>
		<path fill="#767676" d="M28.10596,0H15.65723C10.18506,4.96655,4.96045,10.20068,0,15.67847V28.1366
			C8.49048,17.92261,17.90234,8.50244,28.10596,0z"/>
		<path fill="#767676" d="M0,304.19189v12.4585C5.52368,322.75024,11.38464,328.53711,17.53979,334h12.60278
			C19.1532,325.06567,9.05176,315.0813,0,304.19189z"/>
		<path fill="#767676" d="M327.15112,334H334v-6.84473C331.76379,329.48315,329.48145,331.76611,327.15112,334z"/>
		<path fill="#767676" d="M0,328.53589V334h5.50098C3.63501,332.21143,1.80591,330.38525,0,328.53589z"/>
		<path fill="#767676" d="M334,5.17346V0h-5.13721C330.6001,1.69971,332.31628,3.42065,334,5.17346z"/>
		<path fill="#767676" d="M3.78931,0H0v3.79272C1.24866,2.51404,2.51172,1.24976,3.78931,0z"/>
	</g>
</g>
<g id="Layer_3" display="none">
</g>
<g id="Layer_2" display="none">
</g>
</svg>
