<?xml version="1.0" encoding="utf-8"?>
<!-- Generator: Adobe Illustrator 21.1.0, SVG Export Plug-In . SVG Version: 6.00 Build 0)  -->
<svg version="1.2" baseProfile="tiny" xmlns="http://www.w3.org/2000/svg" xmlns:xlink="http://www.w3.org/1999/xlink" x="0px"
	 y="0px" viewBox="0 0 334 334" xml:space="preserve">
<g id="Layer_1">
	<g>
		<path fill="#CCCCCC" d="M21.25696,0h-7.31348C9.09827,4.45142,4.44507,9.10767,0,13.95898v7.32129
			C6.60107,13.71973,13.70477,6.61035,21.25696,0z"/>
		<path fill="#CCCCCC" d="M334,292.12451v-8.33984C320.30292,303.31641,303.25848,320.33301,283.70428,334h8.36462
			C307.95215,322.104,322.08154,307.98999,334,292.12451z"/>
		<path fill="#CCCCCC" d="M53.10101,0h-8.43054C27.61212,12.56128,12.53656,27.66016,0,44.73779v8.43408
			C14.2536,32.33545,32.28503,14.28223,53.10101,0z"/>
		<path fill="#CCCCCC" d="M334,69.23926v-9.28052C318.36786,35.8667,297.64862,15.37109,273.37402,0h-9.41992
			C292.82861,16.6626,317.00549,40.58154,334,69.23926z"/>
		<path fill="#CCCCCC" d="M36.57025,0h-7.77991C18.32379,8.69385,8.68054,18.3457,0,28.82373v7.80225
			C10.6651,22.99146,22.95123,10.68408,36.57025,0z"/>
		<path fill="#CCCCCC" d="M71.39014,0h-9.40399C36.99994,15.82031,15.7829,37.0708,0,62.08203v9.44653
			C17.05042,41.85156,41.75049,17.10571,71.39014,0z"/>
		<path fill="#CCCCCC" d="M6.79694,0H0v6.80225C2.21838,4.48779,4.4856,2.22119,6.79694,0z"/>
		<path fill="#CCCCCC" d="M167.73438,8.51562c-87.67432,0-159.00293,71.32031-159.00293,158.98535
			S80.06006,326.4873,167.73438,326.4873c87.66504,0,158.98633-71.32129,158.98633-158.98633S255.39941,8.51562,167.73438,8.51562z
			 M167.73438,321.59375c-84.97607,0-154.10889-69.12598-154.10889-154.09277S82.7583,13.40918,167.73438,13.40918
			c84.9668,0,154.0918,69.125,154.0918,154.0918S252.70117,321.59375,167.73438,321.59375z"/>
		<path fill="#CCCCCC" d="M334,275.04346v-9.28076c-16.65979,28.09375-40.22784,51.62354-68.35175,68.2373h9.30017
			C298.54602,318.74512,318.70642,298.61377,334,275.04346z"/>
		<path fill="#CCCCCC" d="M334,232.44971v-14.98877C317.19647,273.30078,272.98834,317.37866,217.07068,334h15.10846
			C278.68365,315.91943,315.80103,278.89551,334,232.44971z"/>
		<path fill="#CCCCCC" d="M334,196.14355V138.8584C321.50549,66.0813,262.2561,9.08228,188.38385,0h-41.43176
			C69.93616,9.46875,8.81598,71.02026,0,148.2334v38.53516C8.55011,261.65332,66.29852,321.802,140.03046,334h55.27502
			C265.93414,322.31543,321.89838,266.63257,334,196.14355z M167.73438,331.38184
			c-90.37305,0-163.89648-73.5166-163.89648-163.88086c0-90.36328,73.52344-163.87988,163.89648-163.87988
			c90.36377,0,163.87988,73.5166,163.87988,163.87988C331.61426,257.86523,258.09814,331.38184,167.73438,331.38184z"/>
		<path fill="#CCCCCC" d="M334,90.16309V79.21265C315.9519,45.34814,287.87115,17.60913,253.74188,0h-11.27472
			C282.73804,18.0542,315.3526,50.21802,334,90.16309z"/>
		<path fill="#CCCCCC" d="M334,255.78955v-10.95068C315.69135,284.05859,283.91571,315.77246,244.65125,334h10.98865
			C288.91052,316.34985,316.28839,289.02271,334,255.78955z"/>
		<path fill="#CCCCCC" d="M334,117.54126v-14.98853C315.45868,55.2334,277.28174,17.69092,229.5459,0h-15.98291
			C271.13562,15.79272,316.84662,60.53857,334,117.54126z"/>
		<path fill="#CCCCCC" d="M167.70117,76.99707c-49.9043,0-90.50488,40.59961-90.50488,90.50391s40.60059,90.50488,90.50488,90.50488
			s90.50439-40.60059,90.50439-90.50488S217.60547,76.99707,167.70117,76.99707z M167.70117,253.1123
			c-47.20605,0-85.61035-38.40527-85.61035-85.61133c0-47.20508,38.4043-85.61035,85.61035-85.61035
			s85.61035,38.40527,85.61035,85.61035C253.31152,214.70703,214.90723,253.1123,167.70117,253.1123z"/>
		<path fill="#CCCCCC" d="M167.68457,145.49609c-12.14355,0-22.02295,9.87109-22.02295,22.00488s9.87939,22.00586,22.02295,22.00586
			c12.13428,0,22.00635-9.87207,22.00635-22.00586S179.81885,145.49609,167.68457,145.49609z M167.66797,184.63086
			c-9.43555,0-17.11182-7.68457-17.11182-17.12988c0-9.44434,7.67627-17.12891,17.11182-17.12891
			c9.44482,0,17.12842,7.68457,17.12842,17.12891C184.79639,176.94629,177.11279,184.63086,167.66797,184.63086z"/>
		<path fill="#CCCCCC" d="M167.70117,86.78516c-44.50732,0-80.7168,36.20898-80.7168,80.71582
			c0,44.50781,36.20947,80.7168,80.7168,80.7168s80.7168-36.20898,80.7168-80.7168
			C248.41797,122.99414,212.2085,86.78516,167.70117,86.78516z M167.70117,243.32422
			c-41.81787,0-75.83936-34.01465-75.83936-75.82324s34.02148-75.82227,75.83936-75.82227
			c41.80859,0,75.82227,34.01367,75.82227,75.82227S209.50977,243.32422,167.70117,243.32422z"/>
		<path fill="#CCCCCC" d="M167.66797,155.2666c-6.7373,0-12.21826,5.48828-12.21826,12.23438
			c0,6.74707,5.48096,12.23535,12.21826,12.23535c6.74609,0,12.23486-5.48828,12.23486-12.23535
			C179.90283,160.75488,174.41406,155.2666,167.66797,155.2666z M167.66797,174.84277c-4.04785,0-7.34082-3.29395-7.34082-7.3418
			s3.29297-7.34082,7.34082-7.34082s7.34082,3.29297,7.34082,7.34082S171.71582,174.84277,167.66797,174.84277z"/>
		<circle fill="#CCCCCC" cx="167.66797" cy="167.50122" r="2.44702"/>
		<path fill="#CCCCCC" d="M0,212.78027v16.16187C17.67688,277.02954,55.48688,315.46631,103.1568,334h15.10846
			C60.79425,316.91699,15.69263,270.83032,0,212.78027z"/>
		<path fill="#CCCCCC" d="M0,241.91846v11.31445C17.65314,287.62378,45.58484,315.89819,79.70386,334h10.98083
			C50.44952,315.32178,18.07495,282.48389,0,241.91846z"/>
		<path fill="#CCCCCC" d="M167.68457,116.13184c-28.32568,0-51.37012,23.04395-51.37012,51.36914
			c0,28.32617,23.04443,51.37012,51.37012,51.37012c28.3252,0,51.36963-23.04395,51.36963-51.37012
			C219.0542,139.17578,196.00977,116.13184,167.68457,116.13184z M167.68457,213.97754
			c-25.62695,0-46.47559-20.84961-46.47559-46.47656s20.84863-46.47559,46.47559-46.47559s46.47559,20.84863,46.47559,46.47559
			S193.31152,213.97754,167.68457,213.97754z"/>
		<path fill="#CCCCCC" d="M167.68457,106.34473c-33.71338,0-61.14111,27.43457-61.14111,61.15625
			c0,33.72266,27.42773,61.1582,61.14111,61.1582c33.72217,0,61.15771-27.43555,61.15771-61.1582
			C228.84229,133.7793,201.40674,106.34473,167.68457,106.34473z M167.68457,223.76562
			c-31.02393,0-56.26367-25.24023-56.26367-56.26465c0-31.02344,25.23975-56.26367,56.26367-56.26367
			s56.26318,25.24023,56.26318,56.26367C223.94775,198.52539,198.7085,223.76562,167.68457,223.76562z"/>
		<path fill="#CCCCCC" d="M167.68457,125.91992c-22.92822,0-41.58203,18.65332-41.58203,41.58105
			c0,22.92871,18.65381,41.58203,41.58203,41.58203s41.58203-18.65332,41.58203-41.58203
			C209.2666,144.57324,190.61279,125.91992,167.68457,125.91992z M167.68457,204.18945
			c-20.22949,0-36.6875-16.45898-36.6875-36.68848s16.45801-36.6875,36.6875-36.6875s36.6875,16.45801,36.6875,36.6875
			S187.91406,204.18945,167.68457,204.18945z"/>
		<path fill="#CCCCCC" d="M167.70117,96.57324c-39.11963,0-70.9458,31.81836-70.9458,70.92773
			c0,39.11035,31.82617,70.92871,70.9458,70.92871c39.11035,0,70.92871-31.81836,70.92871-70.92871
			C238.62988,128.3916,206.81152,96.57324,167.70117,96.57324z M167.68457,233.55371
			c-36.41162,0-66.03467-29.63086-66.03467-66.05273c0-36.41992,29.62305-66.05078,66.03467-66.05078
			c36.4209,0,66.05127,29.63086,66.05127,66.05078C233.73584,203.92285,204.10547,233.55371,167.68457,233.55371z"/>
		<path fill="#CCCCCC" d="M167.68457,135.70801c-17.53125,0-31.79395,14.26172-31.79395,31.79297
			s14.2627,31.79395,31.79395,31.79395s31.79395-14.2627,31.79395-31.79395S185.21582,135.70801,167.68457,135.70801z
			 M167.68457,194.40137c-14.8418,0-26.9165-12.06738-26.9165-26.90039c0-14.83203,12.07471-26.89941,26.9165-26.89941
			c14.83252,0,26.8999,12.06738,26.8999,26.89941C194.58447,182.33398,182.51709,194.40137,167.68457,194.40137z"/>
		<path fill="#CCCCCC" d="M121.77295,0h-15.98291C56.88,18.12598,18.00128,57.09082,0,106.06055v16.16113
			C16.01056,62.99585,62.63367,16.22266,121.77295,0z"/>
		<path fill="#CCCCCC" d="M167.71777,47.65039c-66.08643,0-119.85156,53.76465-119.85156,119.85059
			c0,66.08691,53.76514,119.85156,119.85156,119.85156s119.85156-53.76465,119.85156-119.85156
			C287.56934,101.41504,233.8042,47.65039,167.71777,47.65039z M167.71777,282.45898
			c-63.39697,0-114.97412-51.57031-114.97412-114.95801S104.3208,52.54395,167.71777,52.54395
			c63.3877,0,114.95703,51.56934,114.95703,114.95703S231.10547,282.45898,167.71777,282.45898z"/>
		<path fill="#CCCCCC" d="M167.73438,18.30371c-82.27734,0-149.21533,66.92969-149.21533,149.19727
			c0,82.26855,66.93799,149.19824,149.21533,149.19824c82.26807,0,149.19824-66.92969,149.19824-149.19824
			C316.93262,85.2334,250.00244,18.30371,167.73438,18.30371z M167.71777,311.82324
			c-79.56982,0-144.3042-64.74316-144.3042-144.32227S88.14795,23.17969,167.71777,23.17969
			c79.5791,0,144.3208,64.74219,144.3208,144.32129S247.29688,311.82324,167.71777,311.82324z"/>
		<path fill="#CCCCCC" d="M167.71777,37.8623c-71.4834,0-129.63965,58.15527-129.63965,129.63867
			s58.15625,129.63965,129.63965,129.63965c71.48291,0,129.63916-58.15625,129.63916-129.63965S239.20068,37.8623,167.71777,37.8623
			z M167.71777,292.24707c-68.78467,0-124.74512-55.96094-124.74512-124.74609c0-68.78418,55.96045-124.74512,124.74512-124.74512
			S292.46289,98.7168,292.46289,167.50098C292.46289,236.28613,236.50244,292.24707,167.71777,292.24707z"/>
		<path fill="#CCCCCC" d="M92.86877,0H81.60168C46.61841,18.05127,17.9801,46.74146,0,81.76904v11.3147
			C18.40125,51.78589,51.62042,18.49243,92.86877,0z"/>
		<path fill="#CCCCCC" d="M167.71777,28.07422c-76.87109,0-139.41064,62.54688-139.41064,139.42676
			c0,76.88086,62.53955,139.42773,139.41064,139.42773c76.88037,0,139.42725-62.54688,139.42725-139.42773
			C307.14502,90.62109,244.59814,28.07422,167.71777,28.07422z M167.71777,302.03516
			c-74.18213,0-134.5332-60.35156-134.5332-134.53418c0-74.18164,60.35107-134.5332,134.5332-134.5332
			c74.18164,0,134.53271,60.35156,134.53271,134.5332C302.25049,241.68359,241.89941,302.03516,167.71777,302.03516z"/>
		<path fill="#CCCCCC" d="M0,313.72217v7.32178C4.11365,325.5332,8.4093,329.85205,12.86652,334h7.26099
			C12.99707,327.67358,6.26996,320.90332,0,313.72217z"/>
		<path fill="#CCCCCC" d="M0,328.2002V334h5.77045C3.81555,332.09814,1.88739,330.16919,0,328.2002z"/>
		<path fill="#CCCCCC" d="M167.71777,57.43848c-60.69873,0-110.08057,49.37402-110.08057,110.0625
			c0,60.68945,49.38184,110.06348,110.08057,110.06348c60.68896,0,110.06348-49.37402,110.06348-110.06348
			C277.78125,106.8125,228.40674,57.43848,167.71777,57.43848z M167.70117,272.68848
			c-57.99072,0-105.16943-47.1875-105.16943-105.1875c0-57.99902,47.17871-105.18555,105.16943-105.18555
			c58,0,105.18604,47.18652,105.18604,105.18555C272.88721,225.50098,225.70117,272.68848,167.70117,272.68848z"/>
		<path fill="#CCCCCC" d="M0,281.83105v8.43335C12.20166,306.88574,26.8009,321.64258,43.30023,334h8.3551
			C31.44989,319.87891,13.92236,302.18311,0,281.83105z"/>
		<path fill="#CCCCCC" d="M0,298.37646v7.80273C8.35028,316.25854,17.59705,325.56689,27.60474,334h7.71222
			C22.19891,323.54932,10.33539,311.58936,0,298.37646z"/>
		<path fill="#CCCCCC" d="M0,263.47363v9.44678C15.45074,297.40503,36.10712,318.28931,60.41168,334h9.28448
			C40.81201,316.93555,16.72327,292.58154,0,263.47363z"/>
		<path fill="#CCCCCC" d="M167.70117,67.20996c-55.29199,0-100.27588,44.99023-100.27588,100.29102
			c0,55.30176,44.98389,100.29297,100.27588,100.29297c55.30127,0,100.29248-44.99121,100.29248-100.29297
			C267.99365,112.2002,223.00244,67.20996,167.70117,67.20996z M167.70117,262.90039
			c-52.60303,0-95.39844-42.7959-95.39844-95.39941c0-52.60254,42.79541-95.39844,95.39844-95.39844
			c52.60254,0,95.39795,42.7959,95.39795,95.39844C263.09912,220.10449,220.30371,262.90039,167.70117,262.90039z"/>
		<path fill="#CCCCCC" d="M334,322.52759v-7.26294c-5.87811,6.60889-12.14221,12.86523-18.75836,18.73535h7.2724
			C326.47687,330.3125,330.30768,326.48608,334,322.52759z"/>
		<path fill="#CCCCCC" d="M334,5.38794V0h-5.41638C330.41998,1.76465,332.22205,3.56445,334,5.38794z"/>
		<path fill="#CCCCCC" d="M334,307.79785v-7.7019C323.9892,312.62695,312.59711,324.00586,300.05219,334h7.71222
			C317.23169,326.02222,326.01007,317.25464,334,307.79785z"/>
		<path fill="#CCCCCC" d="M334,329.6145c-1.44403,1.4812-2.9071,2.94312-4.38983,4.3855H334V329.6145z"/>
		<path fill="#CCCCCC" d="M334,34.90625v-7.70117C325.67596,17.35278,316.50165,8.24219,306.5788,0h-7.77991
			C311.84131,10.23169,323.65527,21.95728,334,34.90625z"/>
		<path fill="#CCCCCC" d="M334,19.73779v-7.2627C329.97308,8.15796,325.78479,3.99414,321.43695,0h-7.32477
			C321.14697,6.15747,327.78735,12.75269,334,19.73779z"/>
		<path fill="#CCCCCC" d="M334,51.21802v-8.34033C321.74176,26.56006,307.13702,12.10474,290.69867,0h-8.43994
			C302.41937,13.8335,319.96625,31.2063,334,51.21802z"/>
		<path fill="#333333" d="M167.66797,160.16016c-4.04785,0-7.34082,3.29297-7.34082,7.34082s3.29297,7.3418,7.34082,7.3418
			s7.34082-3.29395,7.34082-7.3418S171.71582,160.16016,167.66797,160.16016z M167.66797,169.94824
			c-1.34912,0-2.44727-1.09766-2.44727-2.44727c0-1.34863,1.09814-2.44629,2.44727-2.44629s2.44727,1.09766,2.44727,2.44629
			C170.11523,168.85059,169.01709,169.94824,167.66797,169.94824z"/>
		<path fill="#333333" d="M167.66797,150.37207c-9.43555,0-17.11182,7.68457-17.11182,17.12891
			c0,9.44531,7.67627,17.12988,17.11182,17.12988c9.44482,0,17.12842-7.68457,17.12842-17.12988
			C184.79639,158.05664,177.11279,150.37207,167.66797,150.37207z M167.66797,179.73633
			c-6.7373,0-12.21826-5.48828-12.21826-12.23535c0-6.74609,5.48096-12.23438,12.21826-12.23438
			c6.74609,0,12.23486,5.48828,12.23486,12.23438C179.90283,174.24805,174.41406,179.73633,167.66797,179.73633z"/>
		<path fill="#333333" d="M167.68457,140.60156c-14.8418,0-26.9165,12.06738-26.9165,26.89941
			c0,14.83301,12.07471,26.90039,26.9165,26.90039c14.83252,0,26.8999-12.06738,26.8999-26.90039
			C194.58447,152.66895,182.51709,140.60156,167.68457,140.60156z M167.68457,189.50684
			c-12.14355,0-22.02295-9.87207-22.02295-22.00586s9.87939-22.00488,22.02295-22.00488
			c12.13428,0,22.00635,9.87109,22.00635,22.00488S179.81885,189.50684,167.68457,189.50684z"/>
		<path fill="#333333" d="M167.68457,130.81348c-20.22949,0-36.6875,16.45801-36.6875,36.6875s16.45801,36.68848,36.6875,36.68848
			s36.6875-16.45898,36.6875-36.68848S187.91406,130.81348,167.68457,130.81348z M167.68457,199.29492
			c-17.53125,0-31.79395-14.2627-31.79395-31.79395s14.2627-31.79297,31.79395-31.79297s31.79395,14.26172,31.79395,31.79297
			S185.21582,199.29492,167.68457,199.29492z"/>
		<path fill="#333333" d="M167.68457,121.02539c-25.62695,0-46.47559,20.84863-46.47559,46.47559
			s20.84863,46.47656,46.47559,46.47656s46.47559-20.84961,46.47559-46.47656S193.31152,121.02539,167.68457,121.02539z
			 M167.68457,209.08301c-22.92822,0-41.58203-18.65332-41.58203-41.58203c0-22.92773,18.65381-41.58105,41.58203-41.58105
			s41.58203,18.65332,41.58203,41.58105C209.2666,190.42969,190.61279,209.08301,167.68457,209.08301z"/>
		<path fill="#333333" d="M167.68457,111.2373c-31.02393,0-56.26367,25.24023-56.26367,56.26367
			c0,31.02441,25.23975,56.26465,56.26367,56.26465s56.26318-25.24023,56.26318-56.26465
			C223.94775,136.47754,198.7085,111.2373,167.68457,111.2373z M167.68457,218.87109
			c-28.32568,0-51.37012-23.04395-51.37012-51.37012c0-28.3252,23.04443-51.36914,51.37012-51.36914
			c28.3252,0,51.36963,23.04395,51.36963,51.36914C219.0542,195.82715,196.00977,218.87109,167.68457,218.87109z"/>
		<path fill="#333333" d="M167.68457,101.4502c-36.41162,0-66.03467,29.63086-66.03467,66.05078
			c0,36.42188,29.62305,66.05273,66.03467,66.05273c36.4209,0,66.05127-29.63086,66.05127-66.05273
			C233.73584,131.08105,204.10547,101.4502,167.68457,101.4502z M167.68457,228.65918
			c-33.71338,0-61.14111-27.43555-61.14111-61.1582c0-33.72168,27.42773-61.15625,61.14111-61.15625
			c33.72217,0,61.15771,27.43457,61.15771,61.15625C228.84229,201.22363,201.40674,228.65918,167.68457,228.65918z"/>
		<path fill="#333333" d="M167.70117,91.67871c-41.81787,0-75.83936,34.01367-75.83936,75.82227
			s34.02148,75.82324,75.83936,75.82324c41.80859,0,75.82227-34.01465,75.82227-75.82324S209.50977,91.67871,167.70117,91.67871z
			 M167.70117,238.42969c-39.11963,0-70.9458-31.81836-70.9458-70.92871c0-39.10938,31.82617-70.92773,70.9458-70.92773
			c39.11035,0,70.92871,31.81836,70.92871,70.92773C238.62988,206.61133,206.81152,238.42969,167.70117,238.42969z"/>
		<path fill="#333333" d="M167.70117,81.89062c-47.20605,0-85.61035,38.40527-85.61035,85.61035
			c0,47.20605,38.4043,85.61133,85.61035,85.61133s85.61035-38.40527,85.61035-85.61133
			C253.31152,120.2959,214.90723,81.89062,167.70117,81.89062z M167.70117,248.21777c-44.50732,0-80.7168-36.20898-80.7168-80.7168
			c0-44.50684,36.20947-80.71582,80.7168-80.71582s80.7168,36.20898,80.7168,80.71582
			C248.41797,212.00879,212.2085,248.21777,167.70117,248.21777z"/>
		<path fill="#333333" d="M167.70117,72.10254c-52.60303,0-95.39844,42.7959-95.39844,95.39844
			c0,52.60352,42.79541,95.39941,95.39844,95.39941c52.60254,0,95.39795-42.7959,95.39795-95.39941
			C263.09912,114.89844,220.30371,72.10254,167.70117,72.10254z M167.70117,258.00586
			c-49.9043,0-90.50488-40.60059-90.50488-90.50488s40.60059-90.50391,90.50488-90.50391s90.50439,40.59961,90.50439,90.50391
			S217.60547,258.00586,167.70117,258.00586z"/>
		<path fill="#333333" d="M167.70117,62.31543c-57.99072,0-105.16943,47.18652-105.16943,105.18555
			c0,58,47.17871,105.1875,105.16943,105.1875c58,0,105.18604-47.1875,105.18604-105.1875
			C272.88721,109.50195,225.70117,62.31543,167.70117,62.31543z M167.70117,267.79395
			c-55.29199,0-100.27588-44.99121-100.27588-100.29297c0-55.30078,44.98389-100.29102,100.27588-100.29102
			c55.30127,0,100.29248,44.99023,100.29248,100.29102C267.99365,222.80273,223.00244,267.79395,167.70117,267.79395z"/>
		<path fill="#333333" d="M167.71777,52.54395c-63.39697,0-114.97412,51.56934-114.97412,114.95703
			s51.57715,114.95801,114.97412,114.95801c63.3877,0,114.95703-51.57031,114.95703-114.95801
			S231.10547,52.54395,167.71777,52.54395z M167.71777,277.56445c-60.69873,0-110.08057-49.37402-110.08057-110.06348
			c0-60.68848,49.38184-110.0625,110.08057-110.0625c60.68896,0,110.06348,49.37402,110.06348,110.0625
			C277.78125,228.19043,228.40674,277.56445,167.71777,277.56445z"/>
		<path fill="#333333" d="M167.71777,42.75586c-68.78467,0-124.74512,55.96094-124.74512,124.74512
			c0,68.78516,55.96045,124.74609,124.74512,124.74609s124.74512-55.96094,124.74512-124.74609
			C292.46289,98.7168,236.50244,42.75586,167.71777,42.75586z M167.71777,287.35254
			c-66.08643,0-119.85156-53.76465-119.85156-119.85156c0-66.08594,53.76514-119.85059,119.85156-119.85059
			s119.85156,53.76465,119.85156,119.85059C287.56934,233.58789,233.8042,287.35254,167.71777,287.35254z"/>
		<path fill="#333333" d="M167.71777,32.96777c-74.18213,0-134.5332,60.35156-134.5332,134.5332
			c0,74.18262,60.35107,134.53418,134.5332,134.53418c74.18164,0,134.53271-60.35156,134.53271-134.53418
			C302.25049,93.31934,241.89941,32.96777,167.71777,32.96777z M167.71777,297.14062
			c-71.4834,0-129.63965-58.15625-129.63965-129.63965S96.23438,37.8623,167.71777,37.8623
			c71.48291,0,129.63916,58.15527,129.63916,129.63867S239.20068,297.14062,167.71777,297.14062z"/>
		<path fill="#333333" d="M167.71777,23.17969c-79.56982,0-144.3042,64.74219-144.3042,144.32129
			s64.73438,144.32227,144.3042,144.32227c79.5791,0,144.3208-64.74316,144.3208-144.32227S247.29688,23.17969,167.71777,23.17969z
			 M167.71777,306.92871c-76.87109,0-139.41064-62.54688-139.41064-139.42773c0-76.87988,62.53955-139.42676,139.41064-139.42676
			c76.88037,0,139.42725,62.54688,139.42725,139.42676C307.14502,244.38184,244.59814,306.92871,167.71777,306.92871z"/>
		<path fill="#333333" d="M167.73438,13.40918c-84.97607,0-154.10889,69.125-154.10889,154.0918
			S82.7583,321.59375,167.73438,321.59375c84.9668,0,154.0918-69.12598,154.0918-154.09277S252.70117,13.40918,167.73438,13.40918z
			 M167.73438,316.69922c-82.27734,0-149.21533-66.92969-149.21533-149.19824c0-82.26758,66.93799-149.19727,149.21533-149.19727
			c82.26807,0,149.19824,66.92969,149.19824,149.19727C316.93262,249.76953,250.00244,316.69922,167.73438,316.69922z"/>
		<path fill="#333333" d="M167.73438,3.62109c-90.37305,0-163.89648,73.5166-163.89648,163.87988
			c0,90.36426,73.52344,163.88086,163.89648,163.88086c90.36377,0,163.87988-73.5166,163.87988-163.88086
			C331.61426,77.1377,258.09814,3.62109,167.73438,3.62109z M167.73438,326.4873
			c-87.67432,0-159.00293-71.32129-159.00293-158.98633S80.06006,8.51562,167.73438,8.51562
			c87.66504,0,158.98633,71.32031,158.98633,158.98535S255.39941,326.4873,167.73438,326.4873z"/>
		<path fill="#333333" d="M146.95209,0h-25.17914C62.63367,16.22266,16.01056,62.99585,0,122.22168v26.01172
			C8.81598,71.02026,69.93616,9.46875,146.95209,0z"/>
		<path fill="#333333" d="M0,186.76855v26.01172C15.69263,270.83032,60.79425,316.91699,118.26526,334h21.7652
			C66.29852,321.802,8.55011,261.65332,0,186.76855z"/>
		<path fill="#333333" d="M334,217.46094v-21.31738C321.89838,266.63257,265.93414,322.31543,195.30548,334h21.7652
			C272.98834,317.37866,317.19647,273.30078,334,217.46094z"/>
		<path fill="#333333" d="M334,138.8584v-21.31714C316.84662,60.53857,271.13562,15.79272,213.56299,0h-25.17914
			C262.2561,9.08228,321.50549,66.0813,334,138.8584z"/>
		<path fill="#333333" d="M0,228.94214v12.97632C18.07495,282.48389,50.44952,315.32178,90.68469,334h12.47211
			C55.48688,315.46631,17.67688,277.02954,0,228.94214z"/>
		<path fill="#333333" d="M334,244.83887v-12.38916C315.80103,278.89551,278.68365,315.91943,232.17914,334h12.47211
			C283.91571,315.77246,315.69135,284.05859,334,244.83887z"/>
		<path fill="#333333" d="M334,102.55273V90.16309C315.3526,50.21802,282.73804,18.0542,242.46716,0H229.5459
			C277.28174,17.69092,315.45868,55.2334,334,102.55273z"/>
		<path fill="#333333" d="M105.79004,0H92.86877C51.62042,18.49243,18.40125,51.78589,0,93.08374v12.97681
			C18.00128,57.09082,56.88,18.12598,105.79004,0z"/>
		<path fill="#333333" d="M0,253.23291v10.24072C16.72327,292.58154,40.81201,316.93555,69.69617,334h10.00769
			C45.58484,315.89819,17.65314,287.62378,0,253.23291z"/>
		<path fill="#333333" d="M334,79.21265v-9.97339C317.00549,40.58154,292.82861,16.6626,263.9541,0h-10.21222
			C287.87115,17.60913,315.9519,45.34814,334,79.21265z"/>
		<path fill="#333333" d="M334,265.7627v-9.97314c-17.71161,33.23315-45.08948,60.5603-78.36011,78.21045h10.00836
			C293.77216,317.38623,317.34021,293.85645,334,265.7627z"/>
		<path fill="#333333" d="M81.60168,0H71.39014C41.75049,17.10571,17.05042,41.85156,0,71.52856v10.24048
			C17.9801,46.74146,46.61841,18.05127,81.60168,0z"/>
		<path fill="#333333" d="M0,272.92041v8.91064C13.92236,302.18311,31.44989,319.87891,51.65533,334h8.75635
			C36.10712,318.28931,15.45074,297.40503,0,272.92041z"/>
		<path fill="#333333" d="M334,283.78467v-8.74121C318.70642,298.61377,298.54602,318.74512,274.94843,334h8.75586
			C303.25848,320.33301,320.30292,303.31641,334,283.78467z"/>
		<path fill="#333333" d="M334,59.95874v-8.74072C319.96625,31.2063,302.41937,13.8335,282.25873,0h-8.8847
			C297.64862,15.37109,318.36786,35.8667,334,59.95874z"/>
		<path fill="#333333" d="M61.98615,0h-8.88513C32.28503,14.28223,14.2536,32.33545,0,53.17188v8.91016
			C15.7829,37.0708,36.99994,15.82031,61.98615,0z"/>
		<path fill="#333333" d="M334,42.87769v-7.97144C323.65527,21.95728,311.84131,10.23169,298.79889,0h-8.10022
			C307.13702,12.10474,321.74176,26.56006,334,42.87769z"/>
		<path fill="#333333" d="M44.67047,0h-8.10022C22.95123,10.68408,10.6651,22.99146,0,36.62598v8.11182
			C12.53656,27.66016,27.61212,12.56128,44.67047,0z"/>
		<path fill="#333333" d="M0,290.2644v8.11206C10.33539,311.58936,22.19891,323.54932,35.31696,334h7.98328
			C26.8009,321.64258,12.20166,306.88574,0,290.2644z"/>
		<path fill="#333333" d="M334,300.09595v-7.97144C322.08154,307.98999,307.95215,322.104,292.06891,334h7.98328
			C312.59711,324.00586,323.9892,312.62695,334,300.09595z"/>
		<path fill="#333333" d="M28.79034,0h-7.53339C13.70477,6.61035,6.60107,13.71973,0,21.28027v7.54346
			C8.68054,18.3457,18.32379,8.69385,28.79034,0z"/>
		<path fill="#333333" d="M334,27.20508v-7.46729C327.78735,12.75269,321.14697,6.15747,314.11218,0h-7.53339
			C316.50165,8.24219,325.67596,17.35278,334,27.20508z"/>
		<path fill="#333333" d="M334,315.26465v-7.4668c-7.98993,9.45679-16.76831,18.22437-26.2356,26.20215h7.47723
			C321.85779,328.12988,328.12189,321.87354,334,315.26465z"/>
		<path fill="#333333" d="M0,306.1792v7.54297C6.26996,320.90332,12.99707,327.67358,20.1275,334h7.47723
			C17.59705,325.56689,8.35028,316.25854,0,306.1792z"/>
		<path fill="#333333" d="M0,321.04395v7.15625c1.88739,1.96899,3.81555,3.89795,5.77045,5.7998h7.09607
			C8.4093,329.85205,4.11365,325.5332,0,321.04395z"/>
		<path fill="#333333" d="M334,329.6145v-7.08691c-3.69232,3.9585-7.52313,7.78491-11.48596,11.47241h7.09613
			C331.0929,332.55762,332.55597,331.0957,334,329.6145z"/>
		<path fill="#333333" d="M334,12.4751V5.38794C332.22205,3.56445,330.41998,1.76465,328.58362,0h-7.14667
			C325.78479,3.99414,329.97308,8.15796,334,12.4751z"/>
		<path fill="#333333" d="M13.94348,0H6.79694C4.4856,2.22119,2.21838,4.48779,0,6.80225v7.15674
			C4.44507,9.10767,9.09827,4.45142,13.94348,0z"/>
	</g>
</g>
<g id="Layer_3" display="none">
</g>
<g id="Layer_2" display="none">
</g>
</svg>
