<?xml version="1.0" encoding="utf-8"?>
<!-- Generator: Adobe Illustrator 21.1.0, SVG Export Plug-In . SVG Version: 6.00 Build 0)  -->
<svg version="1.2" baseProfile="tiny" xmlns="http://www.w3.org/2000/svg" xmlns:xlink="http://www.w3.org/1999/xlink" x="0px"
	 y="0px" viewBox="0 0 334 334" xml:space="preserve">
<g id="Layer_1">
	<g>
		<path fill="#ADADAD" d="M30.57843,0H0v30.29993C9.16022,19.21436,19.41315,9.06635,30.57843,0z"/>
		<path fill="#ADADAD" d="M334,263.02039v-65.64917C321.91528,265.39325,269.30878,319.57306,202.11584,334h61.73651
			C292.96667,316.88184,317.22241,292.35565,334,263.02039z"/>
		<path fill="#ADADAD" d="M303.32831,334H334v-30.95337C324.83575,314.36072,314.56177,324.74054,303.32831,334z"/>
		<path fill="#ADADAD" d="M0,304.70203V334h29.33496C18.64868,325.19153,8.82123,315.37732,0,304.70203z"/>
		<path fill="#ADADAD" d="M334,137.63074V71.98157C316.89526,42.07434,292.02399,17.15607,262.14978,0h-65.04437
			C266.68359,12.75189,321.61639,67.92621,334,137.63074z"/>
		<path fill="#ADADAD" d="M0,204.05261v61.25177C16.71802,293.62756,40.45721,317.32886,68.8111,334h61.73615
			C65.57068,320.04889,14.24384,268.92126,0,204.05261z"/>
		<path fill="#ADADAD" d="M166.33154,65.32129c-56.35107,0-102.19629,45.8374-102.19629,102.17969
			s45.84521,102.17969,102.19629,102.17969c56.34229,0,102.17969-45.8374,102.17969-102.17969
			S222.67383,65.32129,166.33154,65.32129z M166.33154,246.96484c-43.82568,0-79.48047-35.64746-79.48047-79.46387
			s35.65479-79.46387,79.48047-79.46387c43.81641,0,79.46387,35.64746,79.46387,79.46387S210.14795,246.96484,166.33154,246.96484z"
			/>
		<path fill="#ADADAD" d="M166.33154,19.90625c-81.38379,0-147.59473,66.21094-147.59473,147.59473
			S84.94775,315.0957,166.33154,315.0957s147.59473-66.21094,147.59473-147.59473S247.71533,19.90625,166.33154,19.90625z
			 M166.33154,292.37988c-68.86768,0-124.89551-56.02051-124.89551-124.87891S97.46387,42.62207,166.33154,42.62207
			c68.8584,0,124.87891,56.02051,124.87891,124.87891S235.18994,292.37988,166.33154,292.37988z"/>
		<path fill="#ADADAD" d="M166.33154,110.73633c-31.30908,0-56.78125,25.46436-56.78125,56.76465
			s25.47217,56.76465,56.78125,56.76465c31.30029,0,56.76465-25.46436,56.76465-56.76465S197.63184,110.73633,166.33154,110.73633z
			 M166.33154,201.5498c-18.78369,0-34.06543-15.27441-34.06543-34.04883s15.28174-34.04883,34.06543-34.04883
			c18.77441,0,34.04883,15.27441,34.04883,34.04883S185.10596,201.5498,166.33154,201.5498z"/>
		<path fill="#ADADAD" d="M166.33154,156.15137c-6.26758,0-11.36621,5.09131-11.36621,11.34961s5.09863,11.34961,11.36621,11.34961
			c6.2583,0,11.34961-5.09131,11.34961-11.34961S172.58984,156.15137,166.33154,156.15137z"/>
		<path fill="#ADADAD" d="M334,31.95532V0h-31.91516C313.80066,9.51343,324.50073,20.2276,334,31.95532z"/>
		<path fill="#ADADAD" d="M135.55768,0H70.51367C41.40479,16.71661,17.05273,40.80737,0,69.69757v61.25177
			C14.60815,64.42145,68.21912,12.34143,135.55768,0z"/>
		<path fill="#525252" d="M166.33154,133.45215c-18.78369,0-34.06543,15.27441-34.06543,34.04883
			s15.28174,34.04883,34.06543,34.04883c18.77441,0,34.04883-15.27441,34.04883-34.04883S185.10596,133.45215,166.33154,133.45215z
			 M166.33154,178.85059c-6.26758,0-11.36621-5.09131-11.36621-11.34961s5.09863-11.34961,11.36621-11.34961
			c6.2583,0,11.34961,5.09131,11.34961,11.34961S172.58984,178.85059,166.33154,178.85059z"/>
		<path fill="#525252" d="M166.33154,88.03711c-43.82568,0-79.48047,35.64746-79.48047,79.46387
			s35.65479,79.46387,79.48047,79.46387c43.81641,0,79.46387-35.64746,79.46387-79.46387S210.14795,88.03711,166.33154,88.03711z
			 M166.33154,224.26562c-31.30908,0-56.78125-25.46436-56.78125-56.76465s25.47217-56.76465,56.78125-56.76465
			c31.30029,0,56.76465,25.46436,56.76465,56.76465S197.63184,224.26562,166.33154,224.26562z"/>
		<path fill="#525252" d="M166.33154,42.62207c-68.86768,0-124.89551,56.02051-124.89551,124.87891
			s56.02783,124.87891,124.89551,124.87891c68.8584,0,124.87891-56.02051,124.87891-124.87891
			S235.18994,42.62207,166.33154,42.62207z M166.33154,269.68066c-56.35107,0-102.19629-45.8374-102.19629-102.17969
			S109.98047,65.32129,166.33154,65.32129c56.34229,0,102.17969,45.8374,102.17969,102.17969
			S222.67383,269.68066,166.33154,269.68066z"/>
		<path fill="#525252" d="M334,197.37122v-59.74048C321.61639,67.92621,266.68359,12.75189,197.10541,0h-61.54773
			C68.21912,12.34143,14.60815,64.42145,0,130.94934v73.10327C14.24384,268.92126,65.57068,320.04889,130.54724,334h71.5686
			C269.30878,319.57306,321.91528,265.39325,334,197.37122z M166.33154,315.0957
			c-81.38379,0-147.59473-66.21094-147.59473-147.59473S84.94775,19.90625,166.33154,19.90625
			s147.59473,66.21094,147.59473,147.59473S247.71533,315.0957,166.33154,315.0957z"/>
		<path fill="#525252" d="M334,303.04663v-40.02625C317.22241,292.35565,292.96667,316.88184,263.85236,334h39.47595
			C314.56177,324.74054,324.83575,314.36072,334,303.04663z"/>
		<path fill="#525252" d="M70.51367,0H30.57843C19.41315,9.06635,9.16022,19.21436,0,30.29993v39.39764
			C17.05273,40.80737,41.40479,16.71661,70.51367,0z"/>
		<path fill="#525252" d="M0,265.30438v39.39764C8.82123,315.37732,18.64868,325.19153,29.33496,334H68.8111
			C40.45721,317.32886,16.71802,293.62756,0,265.30438z"/>
		<path fill="#525252" d="M334,71.98157V31.95532C324.50073,20.2276,313.80066,9.51343,302.08484,0h-39.93506
			C292.02399,17.15607,316.89526,42.07434,334,71.98157z"/>
	</g>
</g>
<g id="Layer_3" display="none">
</g>
<g id="Layer_2" display="none">
</g>
</svg>
