<?xml version="1.0" encoding="utf-8"?>
<!-- Generator: Adobe Illustrator 21.1.0, SVG Export Plug-In . SVG Version: 6.00 Build 0)  -->
<svg version="1.2" baseProfile="tiny" xmlns="http://www.w3.org/2000/svg" xmlns:xlink="http://www.w3.org/1999/xlink" x="0px"
	 y="0px" viewBox="0 0 334 334" xml:space="preserve">
<g id="Layer_1">
	<g>
		<path fill="#838383" d="M167.65234,317.13281c83.24414,0,150.96875-67.72461,150.96875-150.96875
			S250.89648,15.19531,167.65234,15.19531c-83.23535,0-150.95215,67.72461-150.95215,150.96875
			S84.41699,317.13281,167.65234,317.13281z M167.65234,23.34668c78.75,0,142.81836,64.06738,142.81836,142.81738
			s-64.06836,142.81836-142.81836,142.81836c-78.74121,0-142.80176-64.06836-142.80176-142.81836
			S88.91113,23.34668,167.65234,23.34668z"/>
		<path fill="#838383" d="M167.66895,284.47852c65.23926,0,118.31445-53.0752,118.31445-118.31445
			S232.9082,47.84961,167.66895,47.84961c-65.24805,0-118.33105,53.0752-118.33105,118.31445
			S102.4209,284.47852,167.66895,284.47852z M167.66895,56.00098c60.74414,0,110.16406,49.41895,110.16406,110.16309
			s-49.41992,110.16406-110.16406,110.16406c-60.75391,0-110.18066-49.41992-110.18066-110.16406
			S106.91504,56.00098,167.66895,56.00098z"/>
		<path fill="#838383" d="M16.98267,0H5.12622C3.39258,1.6958,1.68018,3.41296,0,5.16187v12.00842
			C5.35498,11.15186,11.01758,5.41345,16.98267,0z"/>
		<path fill="#838383" d="M0.38086,166.16406c0,92.24316,75.04492,167.28809,167.28711,167.28809
			c86.20605,0,157.38354-65.5459,166.33203-149.4165v-35.74292C325.72998,70.78271,264.30859,8.93579,186.99561,0h-38.65527
			C65.16992,9.61279,0.38086,80.45898,0.38086,166.16406z M167.65234,7.02734c87.74805,0,159.13672,71.38867,159.13672,159.13672
			s-71.38867,159.13672-159.13672,159.13672c-87.73926,0-159.12012-71.38867-159.12012-159.13672
			S79.91309,7.02734,167.65234,7.02734z"/>
		<path fill="#838383" d="M42.54614,0h-13.1145C18.69263,8.94775,8.83398,18.91516,0,29.75122v13.31641
			C12.02246,26.7356,26.36548,12.2146,42.54614,0z"/>
		<path fill="#838383" d="M167.65234,300.81445c74.24609,0,134.65039-60.4043,134.65039-134.65039
			S241.89844,31.51465,167.65234,31.51465c-74.2373,0-134.63379,60.40332-134.63379,134.64941
			S93.41504,300.81445,167.65234,300.81445z M167.66895,39.68164c69.74219,0,126.48242,56.74023,126.48242,126.48242
			s-56.74023,126.48242-126.48242,126.48242c-69.75195,0-126.49902-56.74023-126.49902-126.48242
			S97.91699,39.68164,167.66895,39.68164z"/>
		<path fill="#838383" d="M72.00806,0h-15.3894C34.09497,15.10229,14.80151,34.65881,0,57.39819v15.77698
			C16.93457,42.7616,41.89404,17.40381,72.00806,0z"/>
		<path fill="#838383" d="M334,304.19312v-13.12402C321.69434,307.41504,307.03516,321.88916,290.53662,334h13.32178
			C314.84741,325.06592,324.94849,315.08203,334,304.19312z"/>
		<path fill="#838383" d="M111.29297,0H89.61743C49.91772,18.7229,17.96533,51.25635,0,91.37354v23.05664
			C16.59009,60.77271,58.28052,18.03442,111.29297,0z"/>
		<path fill="#838383" d="M334,328.5249v-11.87378c-5.52344,6.09937-11.38428,11.88599-17.53931,17.34888h12.02783
			C330.35815,332.20776,332.19067,330.37793,334,328.5249z"/>
		<path fill="#838383" d="M334,243.85815v-21.81836C316.00269,275.47412,272.93018,317.47583,218.84229,334h23.2356
			C282.48999,316.01318,315.24512,283.84863,334,243.85815z"/>
		<path fill="#838383" d="M334,276.96069v-15.4187C316.53467,291.88232,291.00146,317.00977,260.35889,334h15.82251
			C299.11426,319.12207,318.8186,299.67676,334,276.96069z"/>
		<path fill="#838383" d="M0,289.2605v13.31689C9.38892,314.09424,19.93799,324.62671,31.46826,334h13.33301
			C27.698,321.44531,12.57739,306.34619,0,289.2605z"/>
		<path fill="#838383" d="M0,315.15869v12.00806c2.23267,2.32397,4.51147,4.60327,6.83789,6.83325h12.02759
			C12.2124,328.0957,5.9126,321.80396,0,315.15869z"/>
		<path fill="#838383" d="M0,217.89844v23.05664C18.51147,282.29224,51.87256,315.57959,93.25879,334h23.23535
			C61.01685,317.05127,17.12866,273.29834,0,217.89844z"/>
		<path fill="#838383" d="M0,259.15356v15.77637C15.35425,298.51855,35.54346,318.68066,59.15649,334h15.82104
			C43.53735,316.56714,17.4873,290.55981,0,259.15356z"/>
		<path fill="#838383" d="M167.66895,251.8418c47.24219,0,85.67676-38.43457,85.67676-85.67773
			c0-47.24219-38.43457-85.67676-85.67676-85.67676c-47.24316,0-85.67773,38.43457-85.67773,85.67676
			C81.99121,213.40723,120.42578,251.8418,167.66895,251.8418z M167.66895,88.6377c42.74805,0,77.52637,34.77832,77.52637,77.52637
			s-34.77832,77.52637-77.52637,77.52637s-77.52637-34.77832-77.52637-77.52637S124.9209,88.6377,167.66895,88.6377z"/>
		<path fill="#838383" d="M167.66797,186.56641c11.25098,0,20.40332-9.15234,20.40332-20.40234s-9.15234-20.40234-20.40332-20.40234
			c-11.24121,0-20.38574,9.15234-20.38574,20.40234S156.42676,186.56641,167.66797,186.56641z M167.66797,153.91309
			c6.75586,0,12.25195,5.49609,12.25195,12.25098c0,6.75586-5.49609,12.25195-12.25195,12.25195
			c-6.74609,0-12.23438-5.49609-12.23438-12.25195C155.43359,159.40918,160.92188,153.91309,167.66797,153.91309z"/>
		<path fill="#838383" d="M167.66797,170.24805c2.25195,0,4.08398-1.83203,4.08398-4.08398
			c0-2.25098-1.83203-4.08301-4.08398-4.08301c-2.24219,0-4.06641,1.83203-4.06641,4.08301
			C163.60156,168.41602,165.42578,170.24805,167.66797,170.24805z"/>
		<path fill="#838383" d="M334,110.28882V88.4707C315.81201,49.68872,284.45605,18.2688,245.71924,0h-21.67578
			C275.6853,17.56787,316.58301,58.57825,334,110.28882z"/>
		<path fill="#838383" d="M167.66797,202.88574c20.24805,0,36.72168-16.47363,36.72168-36.72168s-16.47363-36.7207-36.72168-36.7207
			s-36.7207,16.47266-36.7207,36.7207S147.41992,202.88574,167.66797,202.88574z M167.66797,137.59375
			c15.75391,0,28.57129,12.81641,28.57129,28.57031s-12.81738,28.57031-28.57129,28.57031
			c-15.74414,0-28.55371-12.81641-28.55371-28.57031S151.92383,137.59375,167.66797,137.59375z"/>
		<path fill="#838383" d="M167.66895,268.16016c56.24121,0,101.99609-45.75488,101.99609-101.99609
			c0-56.24023-45.75488-101.99512-101.99609-101.99512c-56.25,0-102.0127,45.75488-102.0127,101.99512
			C65.65625,222.40527,111.41895,268.16016,167.66895,268.16016z M167.66895,72.31934
			c51.74609,0,93.84473,42.09863,93.84473,93.84473c0,51.74707-42.09863,93.8457-93.84473,93.8457
			c-51.74707,0-93.8457-42.09863-93.8457-93.8457C73.82324,114.41797,115.92188,72.31934,167.66895,72.31934z"/>
		<path fill="#838383" d="M334,70.78662V55.36743C319.38135,33.49316,300.56982,14.651,278.71924,0h-15.39062
			C292.65308,16.94763,317.10107,41.43066,334,70.78662z"/>
		<path fill="#838383" d="M334,15.67773V3.80383C332.7478,2.52136,331.48145,1.25342,330.2002,0h-11.85669
			C323.81543,4.96643,329.03955,10.20032,334,15.67773z"/>
		<path fill="#838383" d="M167.66895,235.52246c38.24414,0,69.3584-31.11426,69.3584-69.3584s-31.11426-69.3584-69.3584-69.3584
			s-69.3584,31.11426-69.3584,69.3584S129.4248,235.52246,167.66895,235.52246z M167.66797,104.95703
			c33.75,0,61.20801,27.45703,61.20801,61.20703s-27.45801,61.20801-61.20801,61.20801s-61.20703-27.45801-61.20703-61.20801
			S133.91797,104.95703,167.66797,104.95703z"/>
		<path fill="#838383" d="M167.66797,219.2041c29.24609,0,53.04004-23.79395,53.04004-53.04004S196.91406,113.125,167.66797,113.125
			s-53.03906,23.79297-53.03906,53.03906S138.42188,219.2041,167.66797,219.2041z M167.66797,121.27539
			c24.75195,0,44.88965,20.13672,44.88965,44.88867s-20.1377,44.88965-44.88965,44.88965s-44.88867-20.1377-44.88867-44.88965
			S142.91602,121.27539,167.66797,121.27539z"/>
		<path fill="#838383" d="M334,41.25903V28.1355C325.50977,17.92188,316.09814,8.50208,305.89502,0h-13.10327
			C308.37402,11.76294,322.25708,25.66064,334,41.25903z"/>
		<path fill="#7C7C7C" d="M167.66797,178.41602c6.75586,0,12.25195-5.49609,12.25195-12.25195
			c0-6.75488-5.49609-12.25098-12.25195-12.25098c-6.74609,0-12.23438,5.49609-12.23438,12.25098
			C155.43359,172.91992,160.92188,178.41602,167.66797,178.41602z M167.66797,162.08105c2.25195,0,4.08398,1.83203,4.08398,4.08301
			c0,2.25195-1.83203,4.08398-4.08398,4.08398c-2.24219,0-4.06641-1.83203-4.06641-4.08398
			C163.60156,163.91309,165.42578,162.08105,167.66797,162.08105z"/>
		<path fill="#7C7C7C" d="M167.66797,194.73438c15.75391,0,28.57129-12.81641,28.57129-28.57031
			s-12.81738-28.57031-28.57129-28.57031c-15.74414,0-28.55371,12.81641-28.55371,28.57031S151.92383,194.73438,167.66797,194.73438
			z M167.66797,145.76172c11.25098,0,20.40332,9.15234,20.40332,20.40234s-9.15234,20.40234-20.40332,20.40234
			c-11.24121,0-20.38574-9.15234-20.38574-20.40234S156.42676,145.76172,167.66797,145.76172z"/>
		<path fill="#7C7C7C" d="M167.66797,211.05371c24.75195,0,44.88965-20.1377,44.88965-44.88965s-20.1377-44.88867-44.88965-44.88867
			s-44.88867,20.13672-44.88867,44.88867S142.91602,211.05371,167.66797,211.05371z M167.66797,129.44336
			c20.24805,0,36.72168,16.47266,36.72168,36.7207s-16.47363,36.72168-36.72168,36.72168s-36.7207-16.47363-36.7207-36.72168
			S147.41992,129.44336,167.66797,129.44336z"/>
		<path fill="#7C7C7C" d="M167.66797,227.37207c33.75,0,61.20801-27.45801,61.20801-61.20801s-27.45801-61.20703-61.20801-61.20703
			s-61.20703,27.45703-61.20703,61.20703S133.91797,227.37207,167.66797,227.37207z M167.66797,113.125
			c29.24609,0,53.04004,23.79297,53.04004,53.03906s-23.79395,53.04004-53.04004,53.04004s-53.03906-23.79395-53.03906-53.04004
			S138.42188,113.125,167.66797,113.125z"/>
		<path fill="#7C7C7C" d="M167.66895,243.69043c42.74805,0,77.52637-34.77832,77.52637-77.52637
			S210.41699,88.6377,167.66895,88.6377s-77.52637,34.77832-77.52637,77.52637S124.9209,243.69043,167.66895,243.69043z
			 M167.66895,96.80566c38.24414,0,69.3584,31.11426,69.3584,69.3584s-31.11426,69.3584-69.3584,69.3584
			s-69.3584-31.11426-69.3584-69.3584S129.4248,96.80566,167.66895,96.80566z"/>
		<path fill="#7C7C7C" d="M167.66895,260.00977c51.74609,0,93.84473-42.09863,93.84473-93.8457
			c0-51.74609-42.09863-93.84473-93.84473-93.84473c-51.74707,0-93.8457,42.09863-93.8457,93.84473
			C73.82324,217.91113,115.92188,260.00977,167.66895,260.00977z M167.66895,80.4873
			c47.24219,0,85.67676,38.43457,85.67676,85.67676c0,47.24316-38.43457,85.67773-85.67676,85.67773
			c-47.24316,0-85.67773-38.43457-85.67773-85.67773C81.99121,118.92188,120.42578,80.4873,167.66895,80.4873z"/>
		<path fill="#7C7C7C" d="M167.66895,276.32812c60.74414,0,110.16406-49.41992,110.16406-110.16406
			S228.41309,56.00098,167.66895,56.00098c-60.75391,0-110.18066,49.41895-110.18066,110.16309
			S106.91504,276.32812,167.66895,276.32812z M167.66895,64.16895c56.24121,0,101.99609,45.75488,101.99609,101.99512
			c0,56.24121-45.75488,101.99609-101.99609,101.99609c-56.25,0-102.0127-45.75488-102.0127-101.99609
			C65.65625,109.92383,111.41895,64.16895,167.66895,64.16895z"/>
		<path fill="#7C7C7C" d="M167.66895,292.64648c69.74219,0,126.48242-56.74023,126.48242-126.48242
			S237.41113,39.68164,167.66895,39.68164c-69.75195,0-126.49902,56.74023-126.49902,126.48242
			S97.91699,292.64648,167.66895,292.64648z M167.66895,47.84961c65.23926,0,118.31445,53.0752,118.31445,118.31445
			s-53.0752,118.31445-118.31445,118.31445c-65.24805,0-118.33105-53.0752-118.33105-118.31445
			S102.4209,47.84961,167.66895,47.84961z"/>
		<path fill="#7C7C7C" d="M167.65234,308.98242c78.75,0,142.81836-64.06836,142.81836-142.81836
			S246.40234,23.34668,167.65234,23.34668c-78.74121,0-142.80176,64.06738-142.80176,142.81738
			S88.91113,308.98242,167.65234,308.98242z M167.65234,31.51465c74.24609,0,134.65039,60.40332,134.65039,134.64941
			s-60.4043,134.65039-134.65039,134.65039c-74.2373,0-134.63379-60.4043-134.63379-134.65039S93.41504,31.51465,167.65234,31.51465
			z"/>
		<path fill="#7C7C7C" d="M167.65234,325.30078c87.74805,0,159.13672-71.38867,159.13672-159.13672
			S255.40039,7.02734,167.65234,7.02734c-87.73926,0-159.12012,71.38867-159.12012,159.13672
			S79.91309,325.30078,167.65234,325.30078z M167.65234,15.19531c83.24414,0,150.96875,67.72461,150.96875,150.96875
			s-67.72461,150.96875-150.96875,150.96875c-83.23535,0-150.95215-67.72461-150.95215-150.96875
			S84.41699,15.19531,167.65234,15.19531z"/>
		<path fill="#7C7C7C" d="M334,148.29272v-38.00391C316.58301,58.57825,275.6853,17.56787,224.04346,0h-37.04785
			C264.30859,8.93579,325.72998,70.78271,334,148.29272z"/>
		<path fill="#7C7C7C" d="M334,222.03979v-38.00415c-8.94849,83.87061-80.12598,149.4165-166.33203,149.4165
			c-92.24219,0-167.28711-75.04492-167.28711-167.28809C0.38086,80.45898,65.16992,9.61279,148.34033,0h-37.04736
			C58.28052,18.03442,16.59009,60.77271,0,114.43018v103.46826C17.12866,273.29834,61.01685,317.05127,116.49414,334h102.34814
			C272.93018,317.47583,316.00269,275.47412,334,222.03979z"/>
		<path fill="#7C7C7C" d="M0,240.95508v18.19849C17.4873,290.55981,43.53735,316.56714,74.97754,334h18.28125
			C51.87256,315.57959,18.51147,282.29224,0,240.95508z"/>
		<path fill="#7C7C7C" d="M334,88.4707V70.78662C317.10107,41.43066,292.65308,16.94763,263.32861,0h-17.60938
			C284.45605,18.2688,315.81201,49.68872,334,88.4707z"/>
		<path fill="#7C7C7C" d="M89.61743,0H72.00806C41.89404,17.40381,16.93457,42.7616,0,73.17517v18.19836
			C17.96533,51.25635,49.91772,18.7229,89.61743,0z"/>
		<path fill="#7C7C7C" d="M334,261.54199v-17.68384C315.24512,283.84863,282.48999,316.01318,242.07788,334h18.28101
			C291.00146,317.00977,316.53467,291.88232,334,261.54199z"/>
		<path fill="#7C7C7C" d="M334,291.06909v-14.1084C318.8186,299.67676,299.11426,319.12207,276.1814,334h14.35522
			C307.03516,321.88916,321.69434,307.41504,334,291.06909z"/>
		<path fill="#7C7C7C" d="M0,274.92993v14.33057C12.57739,306.34619,27.698,321.44531,44.80127,334h14.35522
			C35.54346,318.68066,15.35425,298.51855,0,274.92993z"/>
		<path fill="#7C7C7C" d="M334,55.36743v-14.1084C322.25708,25.66064,308.37402,11.76294,292.79175,0h-14.07251
			C300.56982,14.651,319.38135,33.49316,334,55.36743z"/>
		<path fill="#7C7C7C" d="M56.61865,0H42.54614C26.36548,12.2146,12.02246,26.7356,0,43.06763v14.33057
			C14.80151,34.65881,34.09497,15.10229,56.61865,0z"/>
		<path fill="#7C7C7C" d="M0,302.57739v12.5813C5.9126,321.80396,12.2124,328.0957,18.86548,334h12.60278
			C19.93799,324.62671,9.38892,314.09424,0,302.57739z"/>
		<path fill="#7C7C7C" d="M334,316.65112v-12.45801c-9.05151,10.88892-19.15259,20.8728-30.1416,29.80688h12.60229
			C322.61572,328.53711,328.47656,322.75049,334,316.65112z"/>
		<path fill="#7C7C7C" d="M334,28.1355V15.67773C329.03955,10.20032,323.81543,4.96643,318.34351,0h-12.44849
			C316.09814,8.50208,325.50977,17.92188,334,28.1355z"/>
		<path fill="#7C7C7C" d="M29.43164,0H16.98267C11.01758,5.41345,5.35498,11.15186,0,17.17029v12.58093
			C8.83398,18.91516,18.69263,8.94775,29.43164,0z"/>
		<path fill="#7C7C7C" d="M328.48853,334H334v-5.4751C332.19067,330.37793,330.35815,332.20776,328.48853,334z"/>
		<path fill="#7C7C7C" d="M334,3.80383V0h-3.7998C331.48145,1.25342,332.7478,2.52136,334,3.80383z"/>
		<path fill="#7C7C7C" d="M0,327.16675V334h6.83789C4.51147,331.77002,2.23267,329.49072,0,327.16675z"/>
		<path fill="#7C7C7C" d="M5.12622,0H0v5.16187C1.68018,3.41296,3.39258,1.6958,5.12622,0z"/>
	</g>
</g>
<g id="Layer_3" display="none">
</g>
<g id="Layer_2" display="none">
</g>
</svg>
