<?xml version="1.0" encoding="utf-8"?>
<!-- Generator: Adobe Illustrator 21.1.0, SVG Export Plug-In . SVG Version: 6.00 Build 0)  -->
<svg version="1.2" baseProfile="tiny" xmlns="http://www.w3.org/2000/svg" xmlns:xlink="http://www.w3.org/1999/xlink" x="0px"
	 y="0px" viewBox="0 0 334 334" xml:space="preserve">
<g id="Layer_1">
	<g>
		<path fill="#FFFFFF" d="M334,31.1261V0h-31.24689C314.19336,9.28967,324.66895,19.72076,334,31.1261z"/>
		<path fill="#FFFFFF" d="M167,65.32129c-56.35107,0-102.19629,45.8374-102.19629,102.17969S110.64893,269.68066,167,269.68066
			c56.34229,0,102.17969-45.8374,102.17969-102.17969S223.34229,65.32129,167,65.32129z M167,246.96484
			c-43.82568,0-79.48047-35.64746-79.48047-79.46387S123.17432,88.03711,167,88.03711
			c43.81641,0,79.46387,35.64746,79.46387,79.46387S210.81641,246.96484,167,246.96484z"/>
		<path fill="#FFFFFF" d="M0,200.88263v63.29236C16.75055,292.99896,40.74847,317.10712,69.47955,334h61.73615
			C65.18378,319.82233,13.24445,267.25201,0,200.88263z"/>
		<path fill="#FFFFFF" d="M31.24689,0H0v31.1261C9.33105,19.72076,19.80664,9.28967,31.24689,0z"/>
		<path fill="#FFFFFF" d="M0,303.87585V334h30.00342C19.04382,324.96625,8.99402,314.8692,0,303.87585z"/>
		<path fill="#FFFFFF" d="M136.22614,0H71.18213C41.69366,16.93457,17.08148,41.43347,0,70.82697v63.29236
			C13.57782,66.07947,67.82117,12.53687,136.22614,0z"/>
		<path fill="#FFFFFF" d="M167,19.90625c-81.38379,0-147.59473,66.21094-147.59473,147.59473S85.61621,315.0957,167,315.0957
			s147.59473-66.21094,147.59473-147.59473S248.38379,19.90625,167,19.90625z M167,292.37988
			c-68.86768,0-124.89551-56.02051-124.89551-124.87891S98.13232,42.62207,167,42.62207
			c68.8584,0,124.87891,56.02051,124.87891,124.87891S235.8584,292.37988,167,292.37988z"/>
		<path fill="#FFFFFF" d="M334,134.11932V70.82697C316.91852,41.43347,292.30634,16.93457,262.81787,0h-65.04401
			C266.17883,12.53687,320.42218,66.07947,334,134.11932z"/>
		<path fill="#FFFFFF" d="M167,156.15137c-6.26758,0-11.36621,5.09131-11.36621,11.34961S160.73242,178.85059,167,178.85059
			c6.2583,0,11.34961-5.09131,11.34961-11.34961S173.2583,156.15137,167,156.15137z"/>
		<path fill="#FFFFFF" d="M334,264.17499v-63.29236C320.75555,267.25201,268.81622,319.82233,202.7843,334h61.73615
			C293.25153,317.10712,317.24945,292.99896,334,264.17499z"/>
		<path fill="#FFFFFF" d="M303.99658,334H334v-30.12415C325.00598,314.8692,314.95618,324.96625,303.99658,334z"/>
		<path fill="#FFFFFF" d="M167,110.73633c-31.30908,0-56.78125,25.46436-56.78125,56.76465S135.69092,224.26562,167,224.26562
			c31.30029,0,56.76465-25.46436,56.76465-56.76465S198.30029,110.73633,167,110.73633z M167,201.5498
			c-18.78369,0-34.06543-15.27441-34.06543-34.04883S148.21631,133.45215,167,133.45215
			c18.77441,0,34.04883,15.27441,34.04883,34.04883S185.77441,201.5498,167,201.5498z"/>
		<path d="M167,88.03711c-43.82568,0-79.48047,35.64746-79.48047,79.46387S123.17432,246.96484,167,246.96484
			c43.81641,0,79.46387-35.64746,79.46387-79.46387S210.81641,88.03711,167,88.03711z M167,224.26562
			c-31.30908,0-56.78125-25.46436-56.78125-56.76465S135.69092,110.73633,167,110.73633
			c31.30029,0,56.76465,25.46436,56.76465,56.76465S198.30029,224.26562,167,224.26562z"/>
		<path d="M167,42.62207c-68.86768,0-124.89551,56.02051-124.89551,124.87891S98.13232,292.37988,167,292.37988
			c68.8584,0,124.87891-56.02051,124.87891-124.87891S235.8584,42.62207,167,42.62207z M167,269.68066
			c-56.35107,0-102.19629-45.8374-102.19629-102.17969S110.64893,65.32129,167,65.32129
			c56.34229,0,102.17969,45.8374,102.17969,102.17969S223.34229,269.68066,167,269.68066z"/>
		<path d="M334,200.88263v-66.76331C320.42218,66.07947,266.17883,12.53687,197.77386,0h-61.54773
			C67.82117,12.53687,13.57782,66.07947,0,134.11932v66.76331C13.24445,267.25201,65.18378,319.82233,131.2157,334h71.5686
			C268.81622,319.82233,320.75555,267.25201,334,200.88263z M167,315.0957c-81.38379,0-147.59473-66.21094-147.59473-147.59473
			S85.61621,19.90625,167,19.90625s147.59473,66.21094,147.59473,147.59473S248.38379,315.0957,167,315.0957z"/>
		<path d="M334,303.87585v-39.70087C317.24945,292.99896,293.25153,317.10712,264.52045,334h39.47614
			C314.95618,324.96625,325.00598,314.8692,334,303.87585z"/>
		<path d="M334,70.82697V31.1261C324.66895,19.72076,314.19336,9.28967,302.75311,0h-39.93524
			C292.30634,16.93457,316.91852,41.43347,334,70.82697z"/>
		<path d="M0,264.17499v39.70087C8.99402,314.8692,19.04382,324.96625,30.00342,334h39.47614
			C40.74847,317.10712,16.75055,292.99896,0,264.17499z"/>
		<path d="M71.18213,0H31.24689C19.80664,9.28967,9.33105,19.72076,0,31.1261v39.70087
			C17.08148,41.43347,41.69366,16.93457,71.18213,0z"/>
		<path d="M167,133.45215c-18.78369,0-34.06543,15.27441-34.06543,34.04883S148.21631,201.5498,167,201.5498
			c18.77441,0,34.04883-15.27441,34.04883-34.04883S185.77441,133.45215,167,133.45215z M167,178.85059
			c-6.26758,0-11.36621-5.09131-11.36621-11.34961S160.73242,156.15137,167,156.15137c6.2583,0,11.34961,5.09131,11.34961,11.34961
			S173.2583,178.85059,167,178.85059z"/>
	</g>
</g>
<g id="Layer_3" display="none">
</g>
<g id="Layer_2" display="none">
</g>
</svg>
