<?xml version="1.0" encoding="utf-8"?>
<!-- Generator: Adobe Illustrator 21.1.0, SVG Export Plug-In . SVG Version: 6.00 Build 0)  -->
<svg version="1.2" baseProfile="tiny" xmlns="http://www.w3.org/2000/svg" xmlns:xlink="http://www.w3.org/1999/xlink" x="0px"
	 y="0px" viewBox="0 0 334 334" xml:space="preserve">
<g id="Layer_1">
	<g>
		<path fill="#CCCCCC" d="M167.66797,132.80127c-18.76514,0-34.03174,15.2666-34.03174,34.03174s15.2666,34.03174,34.03174,34.03174
			s34.03174-15.2666,34.03174-34.03174S186.43311,132.80127,167.66797,132.80127z M167.66797,187.25244
			c-11.25928,0-20.41943-9.16016-20.41943-20.41943s9.16016-20.41943,20.41943-20.41943s20.41943,9.16016,20.41943,20.41943
			S178.92725,187.25244,167.66797,187.25244z"/>
		<path fill="#CCCCCC" d="M0,294.75v21.3512C5.60736,322.3938,11.55969,328.37097,17.83246,334h21.25818
			C24.41125,322.68103,11.26056,309.47681,0,294.75z"/>
		<path fill="#CCCCCC" d="M0,242.00708v28.83984C15.88086,296.35791,37.41339,317.99609,62.83862,334h28.53583
			C50.90161,315.4519,18.28131,282.62842,0,242.00708z"/>
		<path fill="#CCCCCC" d="M167.66797,105.57568c-33.77734,0-61.25732,27.47998-61.25732,61.25732
			s27.47998,61.25732,61.25732,61.25732s61.25732-27.47998,61.25732-61.25732S201.44531,105.57568,167.66797,105.57568z
			 M167.66797,214.47803c-26.27148,0-47.64502-21.37354-47.64502-47.64502s21.37354-47.64502,47.64502-47.64502
			s47.64502,21.37354,47.64502,47.64502S193.93945,214.47803,167.66797,214.47803z"/>
		<path fill="#CCCCCC" d="M334,88.74512V60.65869C318.37061,36.25928,297.51898,15.51575,273.04053,0h-28.3559
			C283.85748,18.15613,315.59955,49.70837,334,88.74512z"/>
		<path fill="#CCCCCC" d="M167.66797,78.3501c-48.78955,0-88.48291,39.69336-88.48291,88.48291s39.69336,88.48291,88.48291,88.48291
			c48.79004,0,88.4834-39.69336,88.4834-88.48291S216.45801,78.3501,167.66797,78.3501z M167.66797,241.70361
			c-41.28369,0-74.87061-33.58691-74.87061-74.87061s33.58691-74.87061,74.87061-74.87061s74.87061,33.58691,74.87061,74.87061
			S208.95166,241.70361,167.66797,241.70361z"/>
		<circle fill="#CCCCCC" cx="167.66797" cy="166.83301" r="6.80615"/>
		<path fill="#CCCCCC" d="M90.65839,0h-28.354C37.11096,15.97021,15.7699,37.48657,0,62.81934v28.83923
			C18.17303,51.27759,50.51788,18.60632,90.65839,0z"/>
		<path fill="#CCCCCC" d="M167.66797,51.12451c-63.80225,0-115.70898,51.90625-115.70898,115.7085
			s51.90674,115.70898,115.70898,115.70898s115.70898-51.90674,115.70898-115.70898S231.47021,51.12451,167.66797,51.12451z
			 M167.66797,268.9292c-56.2959,0-102.09619-45.80029-102.09619-102.09619S111.37207,64.73682,167.66797,64.73682
			c56.29639,0,102.09668,45.80029,102.09668,102.09619S223.96436,268.9292,167.66797,268.9292z"/>
		<path fill="#CCCCCC" d="M334,37.15759V16.0459C328.90411,10.42981,323.52399,5.07727,317.89087,0h-21.2005
			C310.61243,10.7915,323.15558,23.27856,334,37.15759z"/>
		<path fill="#CCCCCC" d="M334,317.62012v-21.11145C323.04309,310.53162,310.35083,323.1322,296.25543,334h21.25903
			C323.28381,328.82312,328.79138,323.36035,334,317.62012z"/>
		<path fill="#CCCCCC" d="M38.65576,0H17.45605C11.32056,5.53052,5.49573,11.39746,0,17.56482v21.35144
			C11.14954,24.33472,24.15088,11.24414,38.65576,0z"/>
		<path fill="#CCCCCC" d="M334,273.00757v-28.08704C315.48718,284.19531,283.47144,315.89795,243.96844,334h28.53778
			C297.2149,318.44836,318.25739,297.58362,334,273.00757z"/>
		<path fill="#CCCCCC" d="M167.66797,23.89844C88.86279,23.89844,24.75,88.01855,24.75,166.83301
			s64.11279,142.93457,142.91797,142.93457c78.81445,0,142.93457-64.12012,142.93457-142.93457
			S246.48242,23.89844,167.66797,23.89844z M167.66797,296.15527c-71.30859,0-129.32227-58.01367-129.32227-129.32227
			c0-71.30811,58.01367-129.32178,129.32227-129.32178S296.99023,95.5249,296.99023,166.83301
			C296.99023,238.1416,238.97656,296.15527,167.66797,296.15527z"/>
		<path fill="#CCCCCC" d="M334,202.75513v-71.84424C319.79437,65.07153,267.38367,13.28271,201.20984,0h-67.08044
			C65.64569,13.74768,11.90167,68.74365,0,137.87476v57.9165C12.0022,265.50635,66.55884,320.84119,135.87024,334h63.59863
			C266.46216,321.28247,319.6701,269.17017,334,202.75513z M167.66797,323.38086
			c-86.31152,0-156.53125-70.22705-156.53125-156.54785S81.35645,10.28516,167.66797,10.28516
			c86.3208,0,156.54785,70.22705,156.54785,156.54785S253.98877,323.38086,167.66797,323.38086z"/>
		<path fill="#333333" d="M167.66797,146.41357c-11.25928,0-20.41943,9.16016-20.41943,20.41943s9.16016,20.41943,20.41943,20.41943
			s20.41943-9.16016,20.41943-20.41943S178.92725,146.41357,167.66797,146.41357z M167.66797,173.63916
			c-3.75293,0-6.80615-3.05322-6.80615-6.80615s3.05322-6.80615,6.80615-6.80615s6.80615,3.05322,6.80615,6.80615
			S171.4209,173.63916,167.66797,173.63916z"/>
		<path fill="#333333" d="M167.66797,119.18799c-26.27148,0-47.64502,21.37354-47.64502,47.64502
			s21.37354,47.64502,47.64502,47.64502s47.64502-21.37354,47.64502-47.64502S193.93945,119.18799,167.66797,119.18799z
			 M167.66797,200.86475c-18.76514,0-34.03174-15.2666-34.03174-34.03174s15.2666-34.03174,34.03174-34.03174
			s34.03174,15.2666,34.03174,34.03174S186.43311,200.86475,167.66797,200.86475z"/>
		<path fill="#333333" d="M167.66797,91.9624c-41.28369,0-74.87061,33.58691-74.87061,74.87061s33.58691,74.87061,74.87061,74.87061
			s74.87061-33.58691,74.87061-74.87061S208.95166,91.9624,167.66797,91.9624z M167.66797,228.09033
			c-33.77734,0-61.25732-27.47998-61.25732-61.25732s27.47998-61.25732,61.25732-61.25732s61.25732,27.47998,61.25732,61.25732
			S201.44531,228.09033,167.66797,228.09033z"/>
		<path fill="#333333" d="M167.66797,64.73682c-56.2959,0-102.09619,45.80029-102.09619,102.09619
			S111.37207,268.9292,167.66797,268.9292c56.29639,0,102.09668-45.80029,102.09668-102.09619
			S223.96436,64.73682,167.66797,64.73682z M167.66797,255.31592c-48.78955,0-88.48291-39.69336-88.48291-88.48291
			s39.69336-88.48291,88.48291-88.48291c48.79004,0,88.4834,39.69336,88.4834,88.48291S216.45801,255.31592,167.66797,255.31592z"/>
		<path fill="#333333" d="M167.66797,37.51123c-71.30859,0-129.32227,58.01367-129.32227,129.32178
			c0,71.30859,58.01367,129.32227,129.32227,129.32227s129.32227-58.01367,129.32227-129.32227
			C296.99023,95.5249,238.97656,37.51123,167.66797,37.51123z M167.66797,282.54199
			c-63.80225,0-115.70898-51.90674-115.70898-115.70898s51.90674-115.7085,115.70898-115.7085
			s115.70898,51.90625,115.70898,115.7085S231.47021,282.54199,167.66797,282.54199z"/>
		<path fill="#333333" d="M167.66797,10.28516c-86.31152,0-156.53125,70.22705-156.53125,156.54785
			s70.21973,156.54785,156.53125,156.54785c86.3208,0,156.54785-70.22705,156.54785-156.54785
			S253.98877,10.28516,167.66797,10.28516z M167.66797,309.76758c-78.80518,0-142.91797-64.12012-142.91797-142.93457
			S88.86279,23.89844,167.66797,23.89844c78.81445,0,142.93457,64.12012,142.93457,142.93457
			S246.48242,309.76758,167.66797,309.76758z"/>
		<path fill="#333333" d="M0,195.79126v46.21582C18.28131,282.62842,50.90161,315.4519,91.37445,334h44.49579
			C66.55884,320.84119,12.0022,265.50635,0,195.79126z"/>
		<path fill="#333333" d="M134.12939,0H90.65839C50.51788,18.60632,18.17303,51.27759,0,91.65857v46.21619
			C11.90167,68.74365,65.64569,13.74768,134.12939,0z"/>
		<path fill="#333333" d="M334,130.91089V88.74512C315.59955,49.70837,283.85748,18.15613,244.68463,0h-43.47479
			C267.38367,13.28271,319.79437,65.07153,334,130.91089z"/>
		<path fill="#333333" d="M334,244.92053v-42.16541C319.6701,269.17017,266.46216,321.28247,199.46887,334h44.49957
			C283.47144,315.89795,315.48718,284.19531,334,244.92053z"/>
		<path fill="#333333" d="M334,296.50867v-23.5011c-15.74261,24.57605-36.7851,45.4408-61.49377,60.99243h23.74921
			C310.35083,323.1322,323.04309,310.53162,334,296.50867z"/>
		<path fill="#333333" d="M0,270.84692V294.75c11.26056,14.72681,24.41125,27.93103,39.09064,39.25h23.74799
			C37.41339,317.99609,15.88086,296.35791,0,270.84692z"/>
		<path fill="#333333" d="M62.30438,0H38.65576C24.15088,11.24414,11.14954,24.33472,0,38.91626v23.90308
			C15.7699,37.48657,37.11096,15.97021,62.30438,0z"/>
		<path fill="#333333" d="M334,60.65869v-23.5011C323.15558,23.27856,310.61243,10.7915,296.69037,0h-23.64984
			C297.51898,15.51575,318.37061,36.25928,334,60.65869z"/>
		<path fill="#333333" d="M17.45605,0H0v17.56482C5.49573,11.39746,11.32056,5.53052,17.45605,0z"/>
		<path fill="#333333" d="M334,317.62012c-5.20862,5.74023-10.71619,11.203-16.48553,16.37988H334V317.62012z"/>
		<path fill="#333333" d="M334,16.0459V0h-16.10913C323.52399,5.07727,328.90411,10.42981,334,16.0459z"/>
		<path fill="#333333" d="M0,316.1012V334h17.83246C11.55969,328.37097,5.60736,322.3938,0,316.1012z"/>
	</g>
</g>
<g id="Layer_3" display="none">
</g>
<g id="Layer_2" display="none">
</g>
</svg>
