<?xml version="1.0" encoding="utf-8"?>
<!-- Generator: Adobe Illustrator 21.1.0, SVG Export Plug-In . SVG Version: 6.00 Build 0)  -->
<svg version="1.2" baseProfile="tiny" xmlns="http://www.w3.org/2000/svg" xmlns:xlink="http://www.w3.org/1999/xlink" x="0px"
	 y="0px" viewBox="0 0 334 334" xml:space="preserve">
<g id="Layer_1">
	<g>
		<path fill="#858585" d="M309.7915,333.83542H334v-24.17834C326.56592,318.327,318.46997,326.41135,309.7915,333.83542z"/>
		<path fill="#858585" d="M334,258.50803V74.82821c-17.32959-31.38654-43.24829-57.39001-74.56641-74.82825H74.57422
			C43.25024,17.44277,17.32825,43.45516,0,74.85275v183.63074c17.49292,31.69598,43.74097,57.90814,75.4657,75.35193h183.07629
			C290.26099,316.39615,316.50586,290.19296,334,258.50803z M166.99902,327.96774
			c-88.94043,0-161.29883-72.3589-161.29883-161.29982S78.05859,5.36861,166.99902,5.36861
			c88.94141,0,161.2998,72.3584,161.2998,161.29932S255.94043,327.96774,166.99902,327.96774z"/>
		<path fill="#858585" d="M0,309.64297v24.19244h24.21875C15.53613,326.40732,7.43677,318.31815,0,309.64297z"/>
		<path fill="#858585" d="M166.99902,34.69869c-72.76758,0-131.96875,59.20117-131.96875,131.96924
			c0,72.76855,59.20117,131.96974,131.96875,131.96974c72.76855,0,131.96973-59.20119,131.96973-131.96974
			C298.96875,93.89986,239.76758,34.69869,166.99902,34.69869z M166.99902,269.3071
			c-56.60449,0-102.65527-46.04347-102.65527-102.63918c0-56.59521,46.05078-102.63866,102.65527-102.63866
			c56.5957,0,102.63965,46.04346,102.63965,102.63866C269.63867,223.26363,223.59473,269.3071,166.99902,269.3071z"/>
		<path fill="#858585" d="M23.62891-0.00004H0v23.6933C7.26917,15.21364,15.1676,7.28976,23.62891-0.00004z"/>
		<path fill="#858585" d="M166.99902,93.35934c-40.43164,0-73.3252,32.88623-73.3252,73.30859
			c0,40.42285,32.89355,73.30908,73.3252,73.30908c40.42285,0,73.30957-32.88623,73.30957-73.30908
			C240.30859,126.24557,207.42188,93.35934,166.99902,93.35934z M166.99902,210.66353
			c-24.25879,0-43.99512-19.73633-43.99512-43.99561c0-24.25879,19.73633-43.99511,43.99512-43.99511
			c24.25977,0,43.99609,19.73632,43.99609,43.99511C210.99512,190.9272,191.25879,210.66353,166.99902,210.66353z"/>
		<path fill="#858585" d="M166.99902,152.00288c-8.08594,0-14.66504,6.57861-14.66504,14.66504s6.5791,14.66553,14.66504,14.66553
			c8.08691,0,14.66602-6.5791,14.66602-14.66553S175.08594,152.00288,166.99902,152.00288z"/>
		<path fill="#858585" d="M334,23.67922V-0.00004h-23.61865C318.83862,7.28573,326.73364,15.20486,334,23.67922z"/>
		<path fill="#7A7A7A" d="M166.99902,122.67281c-24.25879,0-43.99512,19.73632-43.99512,43.99511
			c0,24.25928,19.73633,43.99561,43.99512,43.99561c24.25977,0,43.99609-19.73633,43.99609-43.99561
			C210.99512,142.40913,191.25879,122.67281,166.99902,122.67281z M166.99902,181.33345
			c-8.08594,0-14.66504-6.5791-14.66504-14.66553s6.5791-14.66504,14.66504-14.66504c8.08691,0,14.66602,6.57861,14.66602,14.66504
			S175.08594,181.33345,166.99902,181.33345z"/>
		<path fill="#7A7A7A" d="M166.99902,64.02926c-56.60449,0-102.65527,46.04346-102.65527,102.63866
			c0,56.5957,46.05078,102.63918,102.65527,102.63918c56.5957,0,102.63965-46.04347,102.63965-102.63918
			C269.63867,110.07272,223.59473,64.02926,166.99902,64.02926z M166.99902,239.97701
			c-40.43164,0-73.3252-32.88623-73.3252-73.30908c0-40.42236,32.89355-73.30859,73.3252-73.30859
			c40.42285,0,73.30957,32.88623,73.30957,73.30859C240.30859,207.09077,207.42188,239.97701,166.99902,239.97701z"/>
		<path fill="#7A7A7A" d="M166.99902,5.36861c-88.94043,0-161.29883,72.3584-161.29883,161.29932
			s72.3584,161.29982,161.29883,161.29982c88.94141,0,161.2998-72.3589,161.2998-161.29982S255.94043,5.36861,166.99902,5.36861z
			 M166.99902,298.63766c-72.76758,0-131.96875-59.20119-131.96875-131.96974c0-72.76806,59.20117-131.96924,131.96875-131.96924
			c72.76855,0,131.96973,59.20117,131.96973,131.96924C298.96875,239.43648,239.76758,298.63766,166.99902,298.63766z"/>
		<path fill="#7A7A7A" d="M334,309.65707v-51.14905c-17.49414,31.68494-43.73901,57.88812-75.45801,75.32739
			c-0.09863,0.05408-0.19556,0.1106-0.29419,0.16455h51.34912c0.0647-0.05511,0.12988-0.10938,0.19458-0.16455
			C318.46997,326.41135,326.56592,318.327,334,309.65707z"/>
		<path fill="#7A7A7A" d="M0,258.48349v51.15948c7.43677,8.67517,15.53613,16.76434,24.21875,24.19244
			c0.0647,0.05518,0.12988,0.10944,0.19458,0.16455h51.34631c-0.09851-0.05396-0.19543-0.11047-0.29395-0.16455
			C43.74097,316.39163,17.49292,290.17947,0,258.48349z"/>
		<path fill="#7A7A7A" d="M74.57422-0.00004H23.62891C15.1676,7.28976,7.26917,15.21364,0,23.69326v51.15948
			C17.32825,43.45516,43.25024,17.44277,74.57422-0.00004z"/>
		<path fill="#7A7A7A" d="M334,74.82821V23.67922c-7.26636-8.47437-15.16138-16.39349-23.61865-23.67926h-50.94775
			C290.75171,17.43819,316.67041,43.44167,334,74.82821z"/>
	</g>
</g>
<g id="Layer_3" display="none">
</g>
<g id="Layer_2" display="none">
</g>
</svg>
