<?xml version="1.0" encoding="utf-8"?>
<!-- Generator: Adobe Illustrator 21.1.0, SVG Export Plug-In . SVG Version: 6.00 Build 0)  -->
<svg version="1.2" baseProfile="tiny" xmlns="http://www.w3.org/2000/svg" xmlns:xlink="http://www.w3.org/1999/xlink" x="0px"
	 y="0px" viewBox="0 0 334 334" xml:space="preserve">
<g id="Layer_1">
	<g>
		<path fill="#828282" d="M334,266.91589v-22.60742C315.95801,283.53638,284.54932,315.39136,245.6377,334h22.06421
			C294.8855,317.38843,317.69751,294.30603,334,266.91589z"/>
		<path fill="#828282" d="M0,288.06689v17.17786C8.67651,315.70386,18.31641,325.33594,28.78613,334h17.20923
			C28.35059,321.21179,12.81201,305.69336,0,288.06689z"/>
		<path fill="#828282" d="M13.87744,0H0v13.79065C4.42969,9.00073,9.0542,4.3938,13.87744,0z"/>
		<path fill="#828282" d="M334,213.67542v-92.34888C317.8335,62.69263,271.66846,16.37549,213.12061,0h-93.57715
			C62.53687,15.94434,17.26709,60.2738,0,116.72095v101.55994C16.91943,273.59106,60.72607,317.26282,116.11523,334h100.43359
			C273.46606,316.80103,318.15039,271.15942,334,213.67542z M166.33105,330.8623c-90.07812,0-163.36133-73.2832-163.36133-163.36133
			S76.25293,4.13867,166.33105,4.13867s163.3623,73.28418,163.3623,163.3623S256.40918,330.8623,166.33105,330.8623z"/>
		<path fill="#828282" d="M47.36768,0H30.01953C19.0752,8.92334,9.01465,18.89038,0,29.75708v17.17773
			C13.14502,28.85034,29.15259,12.97449,47.36768,0z"/>
		<path fill="#828282" d="M334,303.60547v-17.3772C320.9397,304.61816,304.927,320.76721,286.6687,334h17.20898
			C314.89038,324.88635,324.97925,314.69702,334,303.60547z"/>
		<path fill="#828282" d="M0,321.21106V334h12.80127C8.36694,329.90771,4.09692,325.64111,0,321.21106z"/>
		<path fill="#828282" d="M166.33203,35.75684c-72.64355,0-131.74414,59.10059-131.74414,131.74414
			s59.10059,131.74414,131.74414,131.74414S298.0752,240.14453,298.0752,167.50098S238.97559,35.75684,166.33203,35.75684z
			 M166.33203,288.70508c-66.83203,0-121.2041-54.37207-121.2041-121.2041S99.5,46.29688,166.33203,46.29688
			s121.2041,54.37207,121.2041,121.2041S233.16406,288.70508,166.33203,288.70508z"/>
		<path fill="#828282" d="M334,48.77344V31.39636C324.64502,19.8938,314.13501,9.3689,302.64404,0h-17.34766
			C304.12866,13.41406,320.61157,29.92163,334,48.77344z"/>
		<path fill="#828282" d="M334,90.69336V68.08594C317.36499,40.13708,293.94751,16.6803,266.02881,0h-22.53296
			C283.39478,18.45398,315.62866,50.74902,334,90.69336z"/>
		<path fill="#828282" d="M166.33105,14.67773c-84.2666,0-152.82227,68.55664-152.82227,152.82324
			s68.55566,152.82227,152.82227,152.82227S319.1543,251.76758,319.1543,167.50098S250.59766,14.67773,166.33105,14.67773z
			 M166.33203,309.78418c-78.45508,0-142.2832-63.82812-142.2832-142.2832s63.82812-142.2832,142.2832-142.2832
			s142.28223,63.82812,142.28223,142.2832S244.78711,309.78418,166.33203,309.78418z"/>
		<path fill="#828282" d="M0,247.16528v21.97375C16.20264,295.55688,38.51611,317.83911,64.96216,334h22.06421
			C49.06274,315.8446,18.23462,285.08398,0,247.16528z"/>
		<circle fill="#828282" cx="166.33228" cy="167.50073" r="5.27002"/>
		<path fill="#828282" d="M166.33203,77.91504c-49.39746,0-89.58594,40.18848-89.58594,89.58594
			s40.18848,89.58594,89.58594,89.58594s89.58594-40.18848,89.58594-89.58594S215.72949,77.91504,166.33203,77.91504z
			 M166.33203,246.54688c-43.58594,0-79.0459-35.45996-79.0459-79.0459s35.45996-79.0459,79.0459-79.0459
			s79.0459,35.45996,79.0459,79.0459S209.91797,246.54688,166.33203,246.54688z"/>
		<path fill="#828282" d="M334,15.22632V0h-15.21387C324.09277,4.83423,329.17139,9.91455,334,15.22632z"/>
		<path fill="#828282" d="M166.33203,56.83594c-61.02051,0-110.66504,49.64453-110.66504,110.66504
			s49.64453,110.66504,110.66504,110.66504s110.66504-49.64453,110.66504-110.66504S227.35254,56.83594,166.33203,56.83594z
			 M166.33203,267.62598c-55.20898,0-100.125-44.91602-100.125-100.125s44.91602-100.125,100.125-100.125
			s100.125,44.91602,100.125,100.125S221.54102,267.62598,166.33203,267.62598z"/>
		<path fill="#828282" d="M89.16821,0H66.63525C39.45898,16.23682,16.54248,38.89087,0,65.86279v21.97363
			C18.57593,49.20801,50.22363,18.01245,89.16821,0z"/>
		<path fill="#828282" d="M334,319.77539c-4.49878,4.94922-9.22266,9.68896-14.1377,14.22461H334V319.77539z"/>
		<path fill="#828282" d="M166.33203,98.99414c-37.77441,0-68.50684,30.73242-68.50684,68.50684
			s30.73242,68.50684,68.50684,68.50684s68.50684-30.73242,68.50684-68.50684S204.10645,98.99414,166.33203,98.99414z
			 M166.33203,225.46777c-31.96289,0-57.9668-26.00391-57.9668-57.9668c0-31.96387,26.00391-57.96777,57.9668-57.96777
			s57.9668,26.00391,57.9668,57.96777C224.29883,199.46387,198.29492,225.46777,166.33203,225.46777z"/>
		<path fill="#828282" d="M166.33203,141.15137c-14.52832,0-26.34863,11.82031-26.34863,26.34961
			c0,14.52832,11.82031,26.34863,26.34863,26.34863c14.5293,0,26.34961-11.82031,26.34961-26.34863
			C192.68164,152.97168,180.86133,141.15137,166.33203,141.15137z M166.33203,183.30957
			c-8.7168,0-15.80859-7.0918-15.80859-15.80859c0-8.71777,7.0918-15.80957,15.80859-15.80957
			c8.71777,0,15.80957,7.0918,15.80957,15.80957C182.1416,176.21777,175.0498,183.30957,166.33203,183.30957z"/>
		<path fill="#828282" d="M166.33203,120.07227c-26.15137,0-47.42773,21.27637-47.42773,47.42871
			c0,26.15137,21.27637,47.42773,47.42773,47.42773s47.42773-21.27637,47.42773-47.42773
			C213.75977,141.34863,192.4834,120.07227,166.33203,120.07227z M166.33203,204.38867
			c-20.33984,0-36.8877-16.54785-36.8877-36.8877c0-20.34082,16.54785-36.88867,36.8877-36.88867
			c20.34082,0,36.88867,16.54785,36.88867,36.88867C203.2207,187.84082,186.67285,204.38867,166.33203,204.38867z"/>
		<path fill="#7D7D7D" d="M166.33203,151.69141c-8.7168,0-15.80859,7.0918-15.80859,15.80957
			c0,8.7168,7.0918,15.80859,15.80859,15.80859c8.71777,0,15.80957-7.0918,15.80957-15.80859
			C182.1416,158.7832,175.0498,151.69141,166.33203,151.69141z M166.33203,172.77051c-2.90527,0-5.26953-2.36426-5.26953-5.26953
			c0-2.90625,2.36426-5.27051,5.26953-5.27051c2.90625,0,5.27051,2.36426,5.27051,5.27051
			C171.60254,170.40625,169.23828,172.77051,166.33203,172.77051z"/>
		<path fill="#7D7D7D" d="M166.33203,130.6123c-20.33984,0-36.8877,16.54785-36.8877,36.88867
			c0,20.33984,16.54785,36.8877,36.8877,36.8877c20.34082,0,36.88867-16.54785,36.88867-36.8877
			C203.2207,147.16016,186.67285,130.6123,166.33203,130.6123z M166.33203,193.84961
			c-14.52832,0-26.34863-11.82031-26.34863-26.34863c0-14.5293,11.82031-26.34961,26.34863-26.34961
			c14.5293,0,26.34961,11.82031,26.34961,26.34961C192.68164,182.0293,180.86133,193.84961,166.33203,193.84961z"/>
		<path fill="#7D7D7D" d="M166.33203,109.5332c-31.96289,0-57.9668,26.00391-57.9668,57.96777
			c0,31.96289,26.00391,57.9668,57.9668,57.9668s57.9668-26.00391,57.9668-57.9668
			C224.29883,135.53711,198.29492,109.5332,166.33203,109.5332z M166.33203,214.92871
			c-26.15137,0-47.42773-21.27637-47.42773-47.42773c0-26.15234,21.27637-47.42871,47.42773-47.42871
			s47.42773,21.27637,47.42773,47.42871C213.75977,193.65234,192.4834,214.92871,166.33203,214.92871z"/>
		<path fill="#7D7D7D" d="M166.33203,88.45508c-43.58594,0-79.0459,35.45996-79.0459,79.0459s35.45996,79.0459,79.0459,79.0459
			s79.0459-35.45996,79.0459-79.0459S209.91797,88.45508,166.33203,88.45508z M166.33203,236.00781
			c-37.77441,0-68.50684-30.73242-68.50684-68.50684s30.73242-68.50684,68.50684-68.50684s68.50684,30.73242,68.50684,68.50684
			S204.10645,236.00781,166.33203,236.00781z"/>
		<path fill="#7D7D7D" d="M166.33203,67.37598c-55.20898,0-100.125,44.91602-100.125,100.125s44.91602,100.125,100.125,100.125
			s100.125-44.91602,100.125-100.125S221.54102,67.37598,166.33203,67.37598z M166.33203,257.08691
			c-49.39746,0-89.58594-40.18848-89.58594-89.58594s40.18848-89.58594,89.58594-89.58594s89.58594,40.18848,89.58594,89.58594
			S215.72949,257.08691,166.33203,257.08691z"/>
		<path fill="#7D7D7D" d="M166.33203,46.29688c-66.83203,0-121.2041,54.37207-121.2041,121.2041S99.5,288.70508,166.33203,288.70508
			s121.2041-54.37207,121.2041-121.2041S233.16406,46.29688,166.33203,46.29688z M166.33203,278.16602
			c-61.02051,0-110.66504-49.64453-110.66504-110.66504S105.31152,56.83594,166.33203,56.83594
			s110.66504,49.64453,110.66504,110.66504S227.35254,278.16602,166.33203,278.16602z"/>
		<path fill="#7D7D7D" d="M166.33203,25.21777c-78.45508,0-142.2832,63.82812-142.2832,142.2832
			s63.82812,142.2832,142.2832,142.2832s142.28223-63.82812,142.28223-142.2832S244.78711,25.21777,166.33203,25.21777z
			 M166.33203,299.24512c-72.64355,0-131.74414-59.10059-131.74414-131.74414S93.68848,35.75684,166.33203,35.75684
			S298.0752,94.85742,298.0752,167.50098S238.97559,299.24512,166.33203,299.24512z"/>
		<path fill="#7D7D7D" d="M166.33105,4.13867c-90.07812,0-163.36133,73.28418-163.36133,163.3623
			S76.25293,330.8623,166.33105,330.8623s163.3623-73.2832,163.3623-163.36133S256.40918,4.13867,166.33105,4.13867z
			 M166.33105,320.32324c-84.2666,0-152.82227-68.55566-152.82227-152.82227S82.06445,14.67773,166.33105,14.67773
			S319.1543,83.23438,319.1543,167.50098S250.59766,320.32324,166.33105,320.32324z"/>
		<path fill="#7D7D7D" d="M334,244.30847v-30.63306C318.15039,271.15942,273.46606,316.80103,216.54883,334h29.08887
			C284.54932,315.39136,315.95801,283.53638,334,244.30847z"/>
		<path fill="#7D7D7D" d="M0,218.28088v28.8844C18.23462,285.08398,49.06274,315.8446,87.02637,334h29.08887
			C60.72607,317.26282,16.91943,273.59106,0,218.28088z"/>
		<path fill="#7D7D7D" d="M334,121.32654V90.69336C315.62866,50.74902,283.39478,18.45398,243.49585,0h-30.37524
			C271.66846,16.37549,317.8335,62.69263,334,121.32654z"/>
		<path fill="#7D7D7D" d="M119.54346,0H89.16821C50.22363,18.01245,18.57593,49.20801,0,87.83643v28.88452
			C17.26709,60.2738,62.53687,15.94434,119.54346,0z"/>
		<path fill="#7D7D7D" d="M334,68.08594v-19.3125C320.61157,29.92163,304.12866,13.41406,285.29639,0h-19.26758
			C293.94751,16.6803,317.36499,40.13708,334,68.08594z"/>
		<path fill="#7D7D7D" d="M0,269.13904v18.92786C12.81201,305.69336,28.35059,321.21179,45.99536,334h18.9668
			C38.51611,317.83911,16.20264,295.55688,0,269.13904z"/>
		<path fill="#7D7D7D" d="M334,286.22827v-19.31238C317.69751,294.30603,294.8855,317.38843,267.7019,334h18.9668
			C304.927,320.76721,320.9397,304.61816,334,286.22827z"/>
		<path fill="#7D7D7D" d="M66.63525,0H47.36768C29.15259,12.97449,13.14502,28.85034,0,46.93481v18.92798
			C16.54248,38.89087,39.45898,16.23682,66.63525,0z"/>
		<path fill="#7D7D7D" d="M334,319.77539v-16.16992c-9.02075,11.09155-19.10962,21.28088-30.12231,30.39453h15.98462
			C324.77734,329.46436,329.50122,324.72461,334,319.77539z"/>
		<path fill="#7D7D7D" d="M30.01953,0H13.87744C9.0542,4.3938,4.42969,9.00073,0,13.79065v15.96643
			C9.01465,18.89038,19.0752,8.92334,30.01953,0z"/>
		<path fill="#7D7D7D" d="M0,305.24475v15.96631C4.09692,325.64111,8.36694,329.90771,12.80127,334h15.98486
			C18.31641,325.33594,8.67651,315.70386,0,305.24475z"/>
		<path fill="#7D7D7D" d="M334,31.39636V15.22632C329.17139,9.91455,324.09277,4.83423,318.78613,0h-16.14209
			C314.13501,9.3689,324.64502,19.8938,334,31.39636z"/>
	</g>
</g>
<g id="Layer_3" display="none">
</g>
<g id="Layer_2" display="none">
</g>
</svg>
