<?xml version="1.0" encoding="utf-8"?>
<!-- Generator: Adobe Illustrator 21.1.0, SVG Export Plug-In . SVG Version: 6.00 Build 0)  -->
<svg version="1.2" baseProfile="tiny" xmlns="http://www.w3.org/2000/svg" xmlns:xlink="http://www.w3.org/1999/xlink" x="0px"
	 y="0px" viewBox="0 0 334 334" xml:space="preserve">
<g id="Layer_1">
	<g>
		<path fill="#838383" d="M167.66797,315.59668c82.39746,0,149.43262-67.03516,149.43262-149.43213
			S250.06543,16.73242,167.66797,16.73242c-82.39648,0-149.43164,67.03516-149.43164,149.43213
			S85.27148,315.59668,167.66797,315.59668z M167.66797,34.3042c72.70898,0,131.86133,59.15234,131.86133,131.86035
			c0,72.7085-59.15234,131.86084-131.86133,131.86084c-72.70801,0-131.86035-59.15234-131.86035-131.86084
			C35.80762,93.45654,94.95996,34.3042,167.66797,34.3042z"/>
		<path fill="#838383" d="M334,246.1803v-64.93274c-7.6499,85.0531-79.3208,151.93701-166.33203,151.93701
			c-92.09473,0-167.01953-74.9248-167.01953-167.02002C0.64844,79.79285,66.55029,8.52484,150.71069,0H87.30933
			C48.92285,18.63593,17.92969,50.18866,0,88.96985v154.38953C18.47852,283.32751,50.83496,315.61389,90.85669,334h153.61572
			C283.54663,316.04761,315.323,284.84851,334,246.1803z"/>
		<path fill="#838383" d="M52.62305,0H23.98267C15.37573,7.45288,7.36279,15.57129,0,24.25769v29.02209
			C14.08569,32.42926,31.96289,14.34558,52.62305,0z"/>
		<path fill="#838383" d="M334,309.62793v-28.66846C319.56543,301.80994,301.32495,319.83276,280.27832,334h29.07861
			C318.19189,326.52881,326.43848,318.38354,334,309.62793z"/>
		<path fill="#838383" d="M0,279.04968v29.02209C7.92017,317.41602,16.60449,326.09009,25.95728,334h29.09131
			C33.35767,319.40015,14.6355,300.71411,0,279.04968z"/>
		<path fill="#838383" d="M334,51.36993V22.70166C327.00195,14.59851,319.42578,7.0083,311.33154,0h-28.62793
			C302.72607,13.90393,320.12427,31.32672,334,51.36993z"/>
		<path fill="#838383" d="M167.66797,245.27783c43.62305,0,79.11328-35.49023,79.11328-79.11328
			s-35.49023-79.11279-79.11328-79.11279s-79.1123,35.48975-79.1123,79.11279S124.04492,245.27783,167.66797,245.27783z
			 M167.66797,104.62305c33.93457,0,61.54199,27.60742,61.54199,61.5415s-27.60742,61.5415-61.54199,61.5415
			c-33.9248,0-61.52441-27.60742-61.52441-61.5415S133.74316,104.62305,167.66797,104.62305z"/>
		<path fill="#838383" d="M167.66797,210.11816c24.23633,0,43.9541-19.71777,43.9541-43.95361s-19.71777-43.95361-43.9541-43.95361
			c-24.22656,0-43.93652,19.71777-43.93652,43.95361S143.44141,210.11816,167.66797,210.11816z M167.66797,139.78271
			c14.54785,0,26.38281,11.83496,26.38281,26.38184c0,14.54736-11.83496,26.38232-26.38281,26.38232
			c-14.53809,0-26.36523-11.83496-26.36523-26.38232C141.30273,151.61768,153.12988,139.78271,167.66797,139.78271z"/>
		<path fill="#838383" d="M334,151.0816V86.14886C315.89111,48.65674,285.46948,18.18286,248.01953,0h-63.39404
			C263.83252,8.02301,326.85327,71.62317,334,151.0816z"/>
		<path fill="#838383" d="M167.66797,174.95898c4.84961,0,8.79492-3.94531,8.79492-8.79443s-3.94531-8.79395-8.79492-8.79395
			c-4.83984,0-8.77734,3.94482-8.77734,8.79395S162.82812,174.95898,167.66797,174.95898z"/>
		<path fill="#838383" d="M167.66797,280.4375c63.01074,0,114.27344-51.2627,114.27344-114.27295
			c0-63.00977-51.2627-114.27246-114.27344-114.27246c-63.00977,0-114.27246,51.2627-114.27246,114.27246
			C53.39551,229.1748,104.6582,280.4375,167.66797,280.4375z M167.66797,69.46387c53.32129,0,96.70117,43.37988,96.70117,96.70068
			c0,53.32129-43.37988,96.70117-96.70117,96.70117c-53.32031,0-96.7002-43.37988-96.7002-96.70117
			C70.96777,112.84375,114.34766,69.46387,167.66797,69.46387z"/>
		<path fill="#7C7C7C" d="M167.66797,192.54688c14.54785,0,26.38281-11.83496,26.38281-26.38232
			c0-14.54688-11.83496-26.38184-26.38281-26.38184c-14.53809,0-26.36523,11.83496-26.36523,26.38184
			C141.30273,180.71191,153.12988,192.54688,167.66797,192.54688z M167.66797,157.37061c4.84961,0,8.79492,3.94482,8.79492,8.79395
			s-3.94531,8.79443-8.79492,8.79443c-4.83984,0-8.77734-3.94531-8.77734-8.79443S162.82812,157.37061,167.66797,157.37061z"/>
		<path fill="#7C7C7C" d="M167.66797,227.70605c33.93457,0,61.54199-27.60742,61.54199-61.5415s-27.60742-61.5415-61.54199-61.5415
			c-33.9248,0-61.52441,27.60742-61.52441,61.5415S133.74316,227.70605,167.66797,227.70605z M167.66797,122.21094
			c24.23633,0,43.9541,19.71777,43.9541,43.95361s-19.71777,43.95361-43.9541,43.95361
			c-24.22656,0-43.93652-19.71777-43.93652-43.95361S143.44141,122.21094,167.66797,122.21094z"/>
		<path fill="#7C7C7C" d="M167.66797,262.86572c53.32129,0,96.70117-43.37988,96.70117-96.70117
			c0-53.3208-43.37988-96.70068-96.70117-96.70068c-53.32031,0-96.7002,43.37988-96.7002,96.70068
			C70.96777,219.48584,114.34766,262.86572,167.66797,262.86572z M167.66797,87.05176
			c43.62305,0,79.11328,35.48975,79.11328,79.11279s-35.49023,79.11328-79.11328,79.11328s-79.1123-35.49023-79.1123-79.11328
			S124.04492,87.05176,167.66797,87.05176z"/>
		<path fill="#7C7C7C" d="M167.66797,298.02539c72.70898,0,131.86133-59.15234,131.86133-131.86084
			c0-72.70801-59.15234-131.86035-131.86133-131.86035c-72.70801,0-131.86035,59.15234-131.86035,131.86035
			C35.80762,238.87305,94.95996,298.02539,167.66797,298.02539z M167.66797,51.89209
			c63.01074,0,114.27344,51.2627,114.27344,114.27246c0,63.01025-51.2627,114.27295-114.27344,114.27295
			c-63.00977,0-114.27246-51.2627-114.27246-114.27295C53.39551,103.15479,104.6582,51.89209,167.66797,51.89209z"/>
		<path fill="#7C7C7C" d="M0.64844,166.16455c0,92.09521,74.9248,167.02002,167.01953,167.02002
			c87.01123,0,158.68213-66.88391,166.33203-151.93701V151.0816C326.85327,71.62317,263.83252,8.02301,184.62549,0h-33.91479
			C66.55029,8.52484,0.64844,79.79285,0.64844,166.16455z M167.66797,16.73242c82.39746,0,149.43262,67.03516,149.43262,149.43213
			s-67.03516,149.43213-149.43262,149.43213c-82.39648,0-149.43164-67.03516-149.43164-149.43213
			S85.27148,16.73242,167.66797,16.73242z"/>
		<path fill="#7C7C7C" d="M87.30933,0H52.62305C31.96289,14.34558,14.08569,32.42926,0,53.27979v35.69006
			C17.92969,50.18866,48.92285,18.63593,87.30933,0z"/>
		<path fill="#7C7C7C" d="M334,86.14886V51.36993C320.12427,31.32672,302.72607,13.90393,282.70361,0h-34.68408
			C285.46948,18.18286,315.89111,48.65674,334,86.14886z"/>
		<path fill="#7C7C7C" d="M0,243.35938v35.69031C14.6355,300.71411,33.35767,319.40015,55.04858,334h35.80811
			C50.83496,315.61389,18.47852,283.32751,0,243.35938z"/>
		<path fill="#7C7C7C" d="M334,280.95947V246.1803c-18.677,38.66821-50.45337,69.86731-89.52759,87.8197h35.80591
			C301.32495,319.83276,319.56543,301.80994,334,280.95947z"/>
		<path fill="#7C7C7C" d="M0,308.07178V334h25.95728C16.60449,326.09009,7.92017,317.41602,0,308.07178z"/>
		<path fill="#7C7C7C" d="M334,22.70166V0h-22.66846C319.42578,7.0083,327.00195,14.59851,334,22.70166z"/>
		<path fill="#7C7C7C" d="M334,309.62793c-7.56152,8.75562-15.80811,16.90088-24.64307,24.37207H334V309.62793z"/>
		<path fill="#7C7C7C" d="M23.98267,0H0v24.25769C7.36279,15.57129,15.37573,7.45288,23.98267,0z"/>
	</g>
</g>
<g id="Layer_3" display="none">
</g>
<g id="Layer_2" display="none">
</g>
</svg>
