<?xml version="1.0" encoding="utf-8"?>
<!-- Generator: Adobe Illustrator 21.1.0, SVG Export Plug-In . SVG Version: 6.00 Build 0)  -->
<svg version="1.2" baseProfile="tiny" xmlns="http://www.w3.org/2000/svg" xmlns:xlink="http://www.w3.org/1999/xlink" x="0px"
	 y="0px" viewBox="0 0 334 334" xml:space="preserve">
<g id="Layer_1">
	<g>
		<path fill="#CCCCCC" d="M152.13525,334h31.06689C259.80414,326.96655,321.72827,268.46753,334,193.479v-54.62793
			C322.41876,68.08203,266.61615,11.99976,195.98688,0h-56.63513C65.39911,12.56543,7.69025,73.46582,0,148.95288v34.42432
			C8.12811,263.1626,72.13208,326.65356,152.13525,334z M167.83447,1.40039c90.85205,0,164.76562,73.91309,164.76562,164.76465
			c0,90.85254-73.91357,164.76562-164.76562,164.76562S3.06885,257.01758,3.06885,166.16504
			C3.06885,75.31348,76.98242,1.40039,167.83447,1.40039z"/>
		<path fill="#CCCCCC" d="M167.81787,319.57324c84.58936,0,153.40723-68.81836,153.40723-153.4082
			c0-84.58887-68.81787-153.40723-153.40723-153.40723c-84.58008,0-153.39062,68.81836-153.39062,153.40723
			C14.42725,250.75488,83.23779,319.57324,167.81787,319.57324z M167.81787,16.5498
			c82.49854,0,149.61621,67.11719,149.61621,149.61523s-67.11768,149.61523-149.61621,149.61523
			S18.20166,248.66309,18.20166,166.16504S85.31934,16.5498,167.81787,16.5498z"/>
		<path fill="#CCCCCC" d="M334,50.50146v-6.50073C321.64038,27.22241,306.8089,12.37549,290.04297,0h-6.48572
			C303.19287,13.73193,320.28998,30.84937,334,50.50146z"/>
		<path fill="#CCCCCC" d="M334,37.71289v-6.09961C324.59564,20.01343,314.00665,9.41431,302.41528,0h-6.0929
			C310.41406,10.93115,323.0813,23.61108,334,37.71289z"/>
		<path fill="#CCCCCC" d="M334,25.67432v-5.80127C327.80426,12.83911,321.17102,6.20117,314.14203,0h-5.79498
			C317.59045,7.83496,326.17255,16.42432,334,25.67432z"/>
		<path fill="#CCCCCC" d="M334,14.18945V8.63501C331.20026,5.6814,328.32416,2.80176,325.3725,0h-5.55328
			C324.75214,4.51904,329.4845,9.25293,334,14.18945z"/>
		<path fill="#CCCCCC" d="M334,3.18774V0h-3.18536C331.88678,1.05225,332.94824,2.11523,334,3.18774z"/>
		<path fill="#CCCCCC" d="M4.65454,0H0v4.69238C1.52832,3.10522,3.08221,1.54346,4.65454,0z"/>
		<path fill="#CCCCCC" d="M334,121.00049v-12.78857C316.37738,57.78369,276.43353,17.74854,226.0639,0h-12.61902
			C271.94934,16.13623,318.07373,62.41016,334,121.00049z"/>
		<path fill="#CCCCCC" d="M206.92169,334h14.1778C273.80286,317.18823,315.80206,276.1936,334,224.11865v-12.78906
			C317.48608,272.08203,268.50647,319.6001,206.92169,334z"/>
		<path fill="#CCCCCC" d="M334,64.31714v-7.05542C319.04443,34.50098,299.54938,14.98267,276.80811,0h-7.04584
			C295.87909,16.1001,317.93231,38.17822,334,64.31714z"/>
		<path fill="#CCCCCC" d="M15.62805,0H10.0965C6.62366,3.29639,3.26172,6.70703,0,10.21289v5.58325
			C4.94995,10.28003,10.16388,5.00635,15.62805,0z"/>
		<path fill="#CCCCCC" d="M334,79.66846v-7.91309C316.98706,41.90503,292.17371,17.05444,262.34979,0h-7.88397
			C288.409,17.79932,316.25739,45.69116,334,79.66846z"/>
		<path fill="#CCCCCC" d="M334,97.57275v-9.37305C315.81647,49.56641,284.56494,18.25635,245.97241,0h-9.32996
			C280.59857,18.30933,315.78418,53.5686,334,97.57275z"/>
		<path fill="#CCCCCC" d="M251.20239,334h8.16559c31.15186-17.08252,57.0553-42.58496,74.63202-73.4248v-7.91357
			C315.69202,287.72168,286.62354,316.30176,251.20239,334z"/>
		<path fill="#CCCCCC" d="M306.37286,334h5.86841c7.73853-6.67285,15.00549-13.87598,21.75873-21.54297v-5.80127
			C325.61578,316.56372,316.37378,325.72339,306.37286,334z"/>
		<path fill="#CCCCCC" d="M281.15021,334h6.60468C305.4621,321.29932,321.08044,305.86768,334,288.32935v-6.50073
			C319.73132,302.28149,301.79962,319.99707,281.15021,334z"/>
		<path fill="#CCCCCC" d="M294.14557,334h6.1972c12.40521-9.82373,23.69415-20.99414,33.65723-33.2832v-6.09961
			C322.52142,309.44189,309.11212,322.69775,294.14557,334z"/>
		<path fill="#CCCCCC" d="M167.83447,327.13965c88.76123,0,160.97363-72.21289,160.97363-160.97461
			c0-88.76074-72.2124-160.97363-160.97363-160.97363S6.86084,77.4043,6.86084,166.16504
			C6.86084,254.92676,79.07324,327.13965,167.83447,327.13965z M167.81787,8.9668
			c86.67969,0,157.19922,70.51855,157.19922,157.19824s-70.51953,157.19922-157.19922,157.19922
			c-86.67041,0-157.18262-70.51953-157.18262-157.19922S81.14746,8.9668,167.81787,8.9668z"/>
		<path fill="#CCCCCC" d="M61.15826,334h7.2384C40.2981,317.31396,16.72803,293.78052,0,265.71118v7.21021
			C15.67877,297.4646,36.59412,318.35132,61.15826,334z"/>
		<path fill="#CCCCCC" d="M329.10449,334H334v-4.85767C332.39044,330.78394,330.76154,332.40625,329.10449,334z"/>
		<path fill="#CCCCCC" d="M317.96912,334h5.6098c3.57977-3.32642,7.05939-6.75854,10.42108-10.30493v-5.55444
			C328.92377,323.68994,323.5705,328.98022,317.96912,334z"/>
		<path fill="#CCCCCC" d="M76.02661,334h8.14026C47.84845,315.85352,18.20959,286.26587,0,249.98438v8.11133
			C17.58862,290.0481,44.04108,316.46191,76.02661,334z"/>
		<path fill="#CCCCCC" d="M114.26453,334h14.1535C65.06104,319.18408,15.04254,269.31152,0,206.0354v14.05298
			C17.40442,274.07373,60.20367,316.75684,114.26453,334z"/>
		<path fill="#CCCCCC" d="M167.81787,311.98926c80.40771,0,145.82422-65.41699,145.82422-145.82422
			S248.22559,20.34082,167.81787,20.34082S21.99365,85.75781,21.99365,166.16504S87.41016,311.98926,167.81787,311.98926z
			 M167.80127,24.11621c78.32617,0,142.04932,63.72266,142.04932,142.04883s-63.72314,142.04883-142.04932,142.04883
			c-78.31738,0-142.0332-63.72266-142.0332-142.04883S89.48389,24.11621,167.80127,24.11621z"/>
		<path fill="#CCCCCC" d="M266.99719,334h7.24725c23.84277-15.18921,44.23999-35.3186,59.75555-58.93164v-7.05518
			C317.36871,295.06909,294.32269,317.77173,266.99719,334z"/>
		<path fill="#CCCCCC" d="M93.02252,334h9.85242C55.85516,315.78442,18.33563,278.36133,0,231.4043v9.76514
			C18.50555,282.37939,51.76862,315.57568,93.02252,334z"/>
		<path fill="#CCCCCC" d="M167.80127,289.25684c67.87305,0,123.09131-55.21875,123.09131-123.0918
			s-55.21826-123.0918-123.09131-123.0918c-67.88232,0-123.1084,55.21875-123.1084,123.0918S99.91895,289.25684,167.80127,289.25684
			z M167.78467,46.84863c65.7915,0,119.31689,53.52539,119.31689,119.31641s-53.52539,119.31641-119.31689,119.31641
			S48.46729,231.95605,48.46729,166.16504S101.99316,46.84863,167.78467,46.84863z"/>
		<path fill="#CCCCCC" d="M167.75098,243.80859c42.8125,0,77.64307-34.83105,77.64307-77.64355
			s-34.83057-77.64355-77.64307-77.64355S90.1084,123.35254,90.1084,166.16504S124.93848,243.80859,167.75098,243.80859z
			 M167.73438,92.29688c40.73096,0,73.86865,33.13672,73.86865,73.86816s-33.1377,73.86816-73.86865,73.86816
			c-40.72168,0-73.85156-33.13672-73.85156-73.86816S127.0127,92.29688,167.73438,92.29688z"/>
		<path fill="#CCCCCC" d="M167.75098,251.3916c46.99414,0,85.22656-38.23242,85.22656-85.22656
			s-38.23242-85.22656-85.22656-85.22656c-46.98438,0-85.20898,38.23242-85.20898,85.22656S120.7666,251.3916,167.75098,251.3916z
			 M167.75098,84.73047c44.90332,0,81.43506,36.53125,81.43506,81.43457s-36.53174,81.43457-81.43506,81.43457
			c-44.90283,0-81.43457-36.53125-81.43457-81.43457S122.84814,84.73047,167.75098,84.73047z"/>
		<path fill="#CCCCCC" d="M167.76807,258.95801c51.16602,0,92.79248-41.62695,92.79248-92.79297
			s-41.62646-92.79297-92.79248-92.79297c-51.17529,0-92.80957,41.62695-92.80957,92.79297S116.59277,258.95801,167.76807,258.95801
			z M167.75098,77.14746c49.08496,0,89.01855,39.93262,89.01855,89.01758s-39.93359,89.01758-89.01855,89.01758
			c-49.0752,0-89.00098-39.93262-89.00098-89.01758S118.67578,77.14746,167.75098,77.14746z"/>
		<path fill="#CCCCCC" d="M167.73438,236.24219c38.64062,0,70.07666-31.43652,70.07666-70.07715
			S206.375,96.08789,167.73438,96.08789c-38.63086,0-70.05957,31.43652-70.05957,70.07715S129.10352,236.24219,167.73438,236.24219z
			 M167.73438,99.87988c36.5498,0,66.28564,29.73535,66.28564,66.28516s-29.73584,66.28516-66.28564,66.28516
			s-66.28516-29.73535-66.28516-66.28516S131.18457,99.87988,167.73438,99.87988z"/>
		<path fill="#CCCCCC" d="M167.71777,221.09277c30.28711,0,54.92725-24.64062,54.92725-54.92773
			s-24.64014-54.92773-54.92725-54.92773c-30.27783,0-54.91016,24.64062-54.91016,54.92773S137.43994,221.09277,167.71777,221.09277
			z M167.71777,115.0293c28.19629,0,51.13623,22.93945,51.13623,51.13574s-22.93994,51.13574-51.13623,51.13574
			s-51.13574-22.93945-51.13574-51.13574S139.52148,115.0293,167.71777,115.0293z"/>
		<path fill="#CCCCCC" d="M167.71777,213.50977c26.10596,0,47.34424-21.23926,47.34424-47.34473
			s-21.23828-47.34473-47.34424-47.34473c-26.10547,0-47.34375,21.23926-47.34375,47.34473S141.6123,213.50977,167.71777,213.50977z
			 M167.71777,122.6123c24.01514,0,43.55322,19.53711,43.55322,43.55273s-19.53809,43.55273-43.55322,43.55273
			c-24.02393,0-43.56934-19.53711-43.56934-43.55273S143.69385,122.6123,167.71777,122.6123z"/>
		<path fill="#CCCCCC" d="M167.73438,228.65918c34.45947,0,62.49365-28.03516,62.49365-62.49414
			s-28.03418-62.49414-62.49365-62.49414c-34.45898,0-62.49316,28.03516-62.49316,62.49414S133.27539,228.65918,167.73438,228.65918
			z M167.71777,107.44629c32.37793,0,58.71924,26.34082,58.71924,58.71875s-26.34131,58.71875-58.71924,58.71875
			c-32.36816,0-58.70215-26.34082-58.70215-58.71875S135.34961,107.44629,167.71777,107.44629z"/>
		<path fill="#CCCCCC" d="M167.80127,296.83984c72.0542,0,130.67432-58.62109,130.67432-130.6748
			s-58.62012-130.6748-130.67432-130.6748c-72.05469,0-130.6748,58.62109-130.6748,130.6748S95.74658,296.83984,167.80127,296.83984
			z M167.80127,39.28223c69.96338,0,126.8833,56.91895,126.8833,126.88281s-56.91992,126.88281-126.8833,126.88281
			c-69.97314,0-126.90039-56.91895-126.90039-126.88281S97.82812,39.28223,167.80127,39.28223z"/>
		<path fill="#CCCCCC" d="M167.80127,304.42285c76.23535,0,138.25732-62.02246,138.25732-138.25781
			S244.03662,27.90723,167.80127,27.90723c-76.22656,0-138.24121,62.02246-138.24121,138.25781
			S91.57471,304.42285,167.80127,304.42285z M167.80127,31.69922c74.14502,0,134.46631,60.32129,134.46631,134.46582
			s-60.32129,134.46582-134.46631,134.46582s-134.4668-60.32129-134.4668-134.46582S93.65625,31.69922,167.80127,31.69922z"/>
		<path fill="#CCCCCC" d="M47.67133,334h6.58099C32.92383,319.53662,14.48737,301.11768,0,279.80664v6.57373
			C13.1897,304.72681,29.30884,320.83057,47.67133,334z"/>
		<path fill="#CCCCCC" d="M167.76807,266.54102c55.34717,0,100.37549-45.02832,100.37549-100.37598
			S223.11523,65.78906,167.76807,65.78906c-55.34766,0-100.37598,45.02832-100.37598,100.37598
			S112.42041,266.54102,167.76807,266.54102z M167.76807,69.58105c53.25684,0,96.58447,43.32715,96.58447,96.58398
			s-43.32764,96.58398-96.58447,96.58398c-53.26611,0-96.60156-43.32715-96.60156-96.58398S114.50195,69.58105,167.76807,69.58105z"
			/>
		<path fill="#CCCCCC" d="M167.78467,274.10742c59.51953,0,107.94189-48.42285,107.94189-107.94238
			S227.3042,58.22266,167.78467,58.22266c-59.52881,0-107.95898,48.42285-107.95898,107.94238
			S108.25586,274.10742,167.78467,274.10742z M167.76807,61.99805c57.43799,0,104.16748,46.72852,104.16748,104.16699
			s-46.72949,104.16699-104.16748,104.16699c-57.43848,0-104.16797-46.72852-104.16797-104.16699
			S110.32959,61.99805,167.76807,61.99805z"/>
		<path fill="#CCCCCC" d="M167.78467,281.69043c63.70068,0,115.5249-51.82422,115.5249-115.52539
			S231.48535,50.63965,167.78467,50.63965c-63.70117,0-115.52539,51.82422-115.52539,115.52539
			S104.0835,281.69043,167.78467,281.69043z M167.78467,54.43164c61.61035,0,111.73389,50.12305,111.73389,111.7334
			s-50.12354,111.7334-111.73389,111.7334c-61.61963,0-111.75098-50.12305-111.75098-111.7334
			S106.16504,54.43164,167.78467,54.43164z"/>
		<path fill="#CCCCCC" d="M98.7204,0h-9.32367C49.82178,18.72095,17.96008,51.16553,0,91.16064v9.76562
			C17.7923,55.36108,53.64832,18.77246,98.7204,0z"/>
		<path fill="#CCCCCC" d="M80.90344,0h-7.85895C42.39612,17.52441,17.03912,43.28125,0,74.23511v8.1106
			C17.66113,47.15698,46.07312,18.26465,80.90344,0z"/>
		<path fill="#CCCCCC" d="M27.08868,0h-5.78369C13.72864,6.68481,6.60437,13.87012,0,21.51855v5.85303
			C8.20764,17.4707,17.27997,8.31421,27.08868,0z"/>
		<path fill="#CCCCCC" d="M65.63141,0h-7.0368C35.13959,15.45312,15.12952,35.72534,0,59.40869v7.21045
			C16.17664,39.4751,38.74982,16.57031,65.63141,0z"/>
		<path fill="#CCCCCC" d="M121.89557,0h-12.59589C57.59045,18.21875,16.86798,59.92139,0,112.24219v14.05249
			C14.52222,65.20728,61.6452,16.61938,121.89557,0z"/>
		<path fill="#CCCCCC" d="M167.71777,205.92676c21.92432,0,39.76123-17.83691,39.76123-39.76172
			s-17.83691-39.76172-39.76123-39.76172c-21.93359,0-39.77734,17.83691-39.77734,39.76172S145.78418,205.92676,167.71777,205.92676
			z M167.70117,130.17871c19.84326,0,35.98682,16.14355,35.98682,35.98633s-16.14355,35.98633-35.98682,35.98633
			c-19.84277,0-35.98633-16.14355-35.98633-35.98633S147.8584,130.17871,167.70117,130.17871z"/>
		<path fill="#CCCCCC" d="M39.10333,0h-6.08282C20.83704,9.89526,9.75677,21.09595,0,33.39502v6.17261
			C11.23627,24.72095,24.39496,11.40869,39.10333,0z"/>
		<path fill="#CCCCCC" d="M51.84528,0h-6.46216C27.96881,12.85303,12.63837,28.37012,0,45.94971v6.57373
			C13.93817,32.02026,31.5376,14.20215,51.84528,0z"/>
		<circle fill="#CCCCCC" cx="167.66797" cy="166.16528" r="1.89575"/>
		<path fill="#CCCCCC" d="M167.70117,198.36035c17.75244,0,32.19482-14.44336,32.19482-32.19531
			s-14.44238-32.19531-32.19482-32.19531c-17.75195,0-32.19434,14.44336-32.19434,32.19531S149.94922,198.36035,167.70117,198.36035
			z M167.70117,137.76172c15.66162,0,28.40332,12.74121,28.40332,28.40332s-12.7417,28.40332-28.40332,28.40332
			c-15.6709,0-28.41992-12.74121-28.41992-28.40332S152.03027,137.76172,167.70117,137.76172z"/>
		<path fill="#CCCCCC" d="M167.70117,190.77734c13.5708,0,24.61133-11.04102,24.61133-24.6123s-11.04053-24.6123-24.61133-24.6123
			c-13.58008,0-24.62793,11.04102-24.62793,24.6123S154.12109,190.77734,167.70117,190.77734z M167.68457,145.32812
			c11.48926,0,20.83691,9.34766,20.83691,20.83691s-9.34766,20.83691-20.83691,20.83691s-20.83691-9.34766-20.83691-20.83691
			S156.19531,145.32812,167.68457,145.32812z"/>
		<path fill="#CCCCCC" d="M167.68457,175.62793c5.21729,0,9.46191-4.24512,9.46191-9.46289
			c0-5.2168-4.24463-9.46191-9.46191-9.46191c-5.22656,0-9.47852,4.24512-9.47852,9.46191
			C158.20605,171.38281,162.45801,175.62793,167.68457,175.62793z M167.66797,160.47852c3.13574,0,5.6875,2.55078,5.6875,5.68652
			c0,3.13672-2.55176,5.6875-5.6875,5.6875s-5.6875-2.55078-5.6875-5.6875
			C161.98047,163.0293,164.53223,160.47852,167.66797,160.47852z"/>
		<path fill="#CCCCCC" d="M167.68457,183.21094c9.39893,0,17.04492-7.64648,17.04492-17.0459s-7.646-17.0459-17.04492-17.0459
			s-17.04492,7.64648-17.04492,17.0459S158.28564,183.21094,167.68457,183.21094z M167.68457,152.91211
			c7.30811,0,13.25391,5.94531,13.25391,13.25293c0,7.30859-5.9458,13.25391-13.25391,13.25391
			c-7.31738,0-13.27051-5.94531-13.27051-13.25391C154.41406,158.85742,160.36719,152.91211,167.68457,152.91211z"/>
		<path fill="#CCCCCC" d="M232.4884,334h9.85822c40.26001-17.98047,72.9035-50.03296,91.65338-89.86963v-9.37256
			C315.21393,280.14014,278.3783,316.22046,232.4884,334z"/>
		<path fill="#CCCCCC" d="M35.09296,334h6.18738C25.69067,322.22803,11.78827,308.33862,0,292.76245v6.17261
			C10.30823,311.9292,22.08966,323.70264,35.09296,334z"/>
		<path fill="#CCCCCC" d="M11.89008,334h5.58795C11.34009,328.49902,5.50482,322.66846,0,316.53394v5.58325
			C3.81812,326.22119,7.78387,330.18457,11.89008,334z"/>
		<path fill="#CCCCCC" d="M0.95227,334h5.41241C4.20245,331.92017,2.08105,329.79883,0,327.6377v5.41211
			C0.31628,333.36768,0.63422,333.68384,0.95227,334z"/>
		<path fill="#CCCCCC" d="M23.20557,334h5.8573C18.49091,325.25073,8.75781,315.52295,0,304.9585v5.85303
			C7.15564,319.09839,14.91412,326.84961,23.20557,334z"/>
		<path fill="#333333" d="M167.66797,171.85254c3.13574,0,5.6875-2.55078,5.6875-5.6875c0-3.13574-2.55176-5.68652-5.6875-5.68652
			s-5.6875,2.55078-5.6875,5.68652C161.98047,169.30176,164.53223,171.85254,167.66797,171.85254z M167.66797,164.26953
			c1.04541,0,1.89551,0.85059,1.89551,1.89551c0,1.0459-0.8501,1.89648-1.89551,1.89648s-1.89551-0.85059-1.89551-1.89648
			C165.77246,165.12012,166.62256,164.26953,167.66797,164.26953z"/>
		<path fill="#333333" d="M167.68457,179.41895c7.30811,0,13.25391-5.94531,13.25391-13.25391
			c0-7.30762-5.9458-13.25293-13.25391-13.25293c-7.31738,0-13.27051,5.94531-13.27051,13.25293
			C154.41406,173.47363,160.36719,179.41895,167.68457,179.41895z M167.68457,156.70312c5.21729,0,9.46191,4.24512,9.46191,9.46191
			c0,5.21777-4.24463,9.46289-9.46191,9.46289c-5.22656,0-9.47852-4.24512-9.47852-9.46289
			C158.20605,160.94824,162.45801,156.70312,167.68457,156.70312z"/>
		<path fill="#333333" d="M167.68457,187.00195c11.48926,0,20.83691-9.34766,20.83691-20.83691s-9.34766-20.83691-20.83691-20.83691
			s-20.83691,9.34766-20.83691,20.83691S156.19531,187.00195,167.68457,187.00195z M167.68457,149.11914
			c9.39893,0,17.04492,7.64648,17.04492,17.0459s-7.646,17.0459-17.04492,17.0459s-17.04492-7.64648-17.04492-17.0459
			S158.28564,149.11914,167.68457,149.11914z"/>
		<path fill="#333333" d="M167.70117,194.56836c15.66162,0,28.40332-12.74121,28.40332-28.40332
			s-12.7417-28.40332-28.40332-28.40332c-15.6709,0-28.41992,12.74121-28.41992,28.40332S152.03027,194.56836,167.70117,194.56836z
			 M167.70117,141.55273c13.5708,0,24.61133,11.04102,24.61133,24.6123s-11.04053,24.6123-24.61133,24.6123
			c-13.58008,0-24.62793-11.04102-24.62793-24.6123S154.12109,141.55273,167.70117,141.55273z"/>
		<path fill="#333333" d="M167.70117,202.15137c19.84326,0,35.98682-16.14355,35.98682-35.98633
			s-16.14355-35.98633-35.98682-35.98633c-19.84277,0-35.98633,16.14355-35.98633,35.98633S147.8584,202.15137,167.70117,202.15137z
			 M167.70117,133.96973c17.75244,0,32.19482,14.44336,32.19482,32.19531s-14.44238,32.19531-32.19482,32.19531
			c-17.75195,0-32.19434-14.44336-32.19434-32.19531S149.94922,133.96973,167.70117,133.96973z"/>
		<path fill="#333333" d="M167.71777,209.71777c24.01514,0,43.55322-19.53711,43.55322-43.55273
			s-19.53809-43.55273-43.55322-43.55273c-24.02393,0-43.56934,19.53711-43.56934,43.55273S143.69385,209.71777,167.71777,209.71777
			z M167.71777,126.40332c21.92432,0,39.76123,17.83691,39.76123,39.76172s-17.83691,39.76172-39.76123,39.76172
			c-21.93359,0-39.77734-17.83691-39.77734-39.76172S145.78418,126.40332,167.71777,126.40332z"/>
		<path fill="#333333" d="M167.71777,217.30078c28.19629,0,51.13623-22.93945,51.13623-51.13574
			s-22.93994-51.13574-51.13623-51.13574s-51.13574,22.93945-51.13574,51.13574S139.52148,217.30078,167.71777,217.30078z
			 M167.71777,118.82031c26.10596,0,47.34424,21.23926,47.34424,47.34473s-21.23828,47.34473-47.34424,47.34473
			c-26.10547,0-47.34375-21.23926-47.34375-47.34473S141.6123,118.82031,167.71777,118.82031z"/>
		<path fill="#333333" d="M167.71777,224.88379c32.37793,0,58.71924-26.34082,58.71924-58.71875
			s-26.34131-58.71875-58.71924-58.71875c-32.36816,0-58.70215,26.34082-58.70215,58.71875S135.34961,224.88379,167.71777,224.88379
			z M167.71777,111.2373c30.28711,0,54.92725,24.64062,54.92725,54.92773s-24.64014,54.92773-54.92725,54.92773
			c-30.27783,0-54.91016-24.64062-54.91016-54.92773S137.43994,111.2373,167.71777,111.2373z"/>
		<path fill="#333333" d="M167.73438,232.4502c36.5498,0,66.28564-29.73535,66.28564-66.28516s-29.73584-66.28516-66.28564-66.28516
			s-66.28516,29.73535-66.28516,66.28516S131.18457,232.4502,167.73438,232.4502z M167.73438,103.6709
			c34.45947,0,62.49365,28.03516,62.49365,62.49414s-28.03418,62.49414-62.49365,62.49414
			c-34.45898,0-62.49316-28.03516-62.49316-62.49414S133.27539,103.6709,167.73438,103.6709z"/>
		<path fill="#333333" d="M167.73438,240.0332c40.73096,0,73.86865-33.13672,73.86865-73.86816s-33.1377-73.86816-73.86865-73.86816
			c-40.72168,0-73.85156,33.13672-73.85156,73.86816S127.0127,240.0332,167.73438,240.0332z M167.73438,96.08789
			c38.64062,0,70.07666,31.43652,70.07666,70.07715s-31.43604,70.07715-70.07666,70.07715
			c-38.63086,0-70.05957-31.43652-70.05957-70.07715S129.10352,96.08789,167.73438,96.08789z"/>
		<path fill="#333333" d="M167.75098,247.59961c44.90332,0,81.43506-36.53125,81.43506-81.43457
			s-36.53174-81.43457-81.43506-81.43457c-44.90283,0-81.43457,36.53125-81.43457,81.43457S122.84814,247.59961,167.75098,247.59961
			z M167.75098,88.52148c42.8125,0,77.64307,34.83105,77.64307,77.64355s-34.83057,77.64355-77.64307,77.64355
			S90.1084,208.97754,90.1084,166.16504S124.93848,88.52148,167.75098,88.52148z"/>
		<path fill="#333333" d="M167.75098,255.18262c49.08496,0,89.01855-39.93262,89.01855-89.01758
			s-39.93359-89.01758-89.01855-89.01758c-49.0752,0-89.00098,39.93262-89.00098,89.01758S118.67578,255.18262,167.75098,255.18262z
			 M167.75098,80.93848c46.99414,0,85.22656,38.23242,85.22656,85.22656s-38.23242,85.22656-85.22656,85.22656
			c-46.98438,0-85.20898-38.23242-85.20898-85.22656S120.7666,80.93848,167.75098,80.93848z"/>
		<path fill="#333333" d="M167.76807,262.74902c53.25684,0,96.58447-43.32715,96.58447-96.58398
			s-43.32764-96.58398-96.58447-96.58398c-53.26611,0-96.60156,43.32715-96.60156,96.58398S114.50195,262.74902,167.76807,262.74902
			z M167.76807,73.37207c51.16602,0,92.79248,41.62695,92.79248,92.79297s-41.62646,92.79297-92.79248,92.79297
			c-51.17529,0-92.80957-41.62695-92.80957-92.79297S116.59277,73.37207,167.76807,73.37207z"/>
		<path fill="#333333" d="M167.76807,270.33203c57.43799,0,104.16748-46.72852,104.16748-104.16699
			S225.20605,61.99805,167.76807,61.99805c-57.43848,0-104.16797,46.72852-104.16797,104.16699
			S110.32959,270.33203,167.76807,270.33203z M167.76807,65.78906c55.34717,0,100.37549,45.02832,100.37549,100.37598
			s-45.02832,100.37598-100.37549,100.37598c-55.34766,0-100.37598-45.02832-100.37598-100.37598
			S112.42041,65.78906,167.76807,65.78906z"/>
		<path fill="#333333" d="M167.78467,277.89844c61.61035,0,111.73389-50.12305,111.73389-111.7334
			s-50.12354-111.7334-111.73389-111.7334c-61.61963,0-111.75098,50.12305-111.75098,111.7334
			S106.16504,277.89844,167.78467,277.89844z M167.78467,58.22266c59.51953,0,107.94189,48.42285,107.94189,107.94238
			S227.3042,274.10742,167.78467,274.10742c-59.52881,0-107.95898-48.42285-107.95898-107.94238
			S108.25586,58.22266,167.78467,58.22266z"/>
		<path fill="#333333" d="M167.78467,285.48145c65.7915,0,119.31689-53.52539,119.31689-119.31641
			S233.57617,46.84863,167.78467,46.84863S48.46729,100.37402,48.46729,166.16504S101.99316,285.48145,167.78467,285.48145z
			 M167.78467,50.63965c63.70068,0,115.5249,51.82422,115.5249,115.52539s-51.82422,115.52539-115.5249,115.52539
			c-63.70117,0-115.52539-51.82422-115.52539-115.52539S104.0835,50.63965,167.78467,50.63965z"/>
		<path fill="#333333" d="M167.80127,293.04785c69.96338,0,126.8833-56.91895,126.8833-126.88281
			S237.76465,39.28223,167.80127,39.28223c-69.97314,0-126.90039,56.91895-126.90039,126.88281
			S97.82812,293.04785,167.80127,293.04785z M167.80127,43.07324c67.87305,0,123.09131,55.21875,123.09131,123.0918
			s-55.21826,123.0918-123.09131,123.0918c-67.88232,0-123.1084-55.21875-123.1084-123.0918S99.91895,43.07324,167.80127,43.07324z"
			/>
		<path fill="#333333" d="M167.80127,300.63086c74.14502,0,134.46631-60.32129,134.46631-134.46582
			S241.94629,31.69922,167.80127,31.69922S33.33447,92.02051,33.33447,166.16504S93.65625,300.63086,167.80127,300.63086z
			 M167.80127,35.49023c72.0542,0,130.67432,58.62109,130.67432,130.6748s-58.62012,130.6748-130.67432,130.6748
			c-72.05469,0-130.6748-58.62109-130.6748-130.6748S95.74658,35.49023,167.80127,35.49023z"/>
		<path fill="#333333" d="M167.80127,308.21387c78.32617,0,142.04932-63.72266,142.04932-142.04883
			S246.12744,24.11621,167.80127,24.11621c-78.31738,0-142.0332,63.72266-142.0332,142.04883
			S89.48389,308.21387,167.80127,308.21387z M167.80127,27.90723c76.23535,0,138.25732,62.02246,138.25732,138.25781
			s-62.02197,138.25781-138.25732,138.25781c-76.22656,0-138.24121-62.02246-138.24121-138.25781
			S91.57471,27.90723,167.80127,27.90723z"/>
		<path fill="#333333" d="M167.81787,315.78027c82.49854,0,149.61621-67.11719,149.61621-149.61523
			S250.31641,16.5498,167.81787,16.5498S18.20166,83.66699,18.20166,166.16504S85.31934,315.78027,167.81787,315.78027z
			 M167.81787,20.34082c80.40771,0,145.82422,65.41699,145.82422,145.82422s-65.4165,145.82422-145.82422,145.82422
			S21.99365,246.57227,21.99365,166.16504S87.41016,20.34082,167.81787,20.34082z"/>
		<path fill="#333333" d="M167.81787,323.36426c86.67969,0,157.19922-70.51953,157.19922-157.19922
			S254.49756,8.9668,167.81787,8.9668c-86.67041,0-157.18262,70.51855-157.18262,157.19824S81.14746,323.36426,167.81787,323.36426z
			 M167.81787,12.75781c84.58936,0,153.40723,68.81836,153.40723,153.40723c0,84.58984-68.81787,153.4082-153.40723,153.4082
			c-84.58008,0-153.39062-68.81836-153.39062-153.4082C14.42725,81.57617,83.23779,12.75781,167.81787,12.75781z"/>
		<path fill="#333333" d="M167.83447,330.93066c90.85205,0,164.76562-73.91309,164.76562-164.76562
			c0-90.85156-73.91357-164.76465-164.76562-164.76465S3.06885,75.31348,3.06885,166.16504
			C3.06885,257.01758,76.98242,330.93066,167.83447,330.93066z M167.83447,5.19141
			c88.76123,0,160.97363,72.21289,160.97363,160.97363c0,88.76172-72.2124,160.97461-160.97363,160.97461
			S6.86084,254.92676,6.86084,166.16504C6.86084,77.4043,79.07324,5.19141,167.83447,5.19141z"/>
		<path fill="#333333" d="M334,138.85107v-17.85059C318.07373,62.41016,271.94934,16.13623,213.44489,0h-17.45801
			C266.61615,11.99976,322.41876,68.08203,334,138.85107z"/>
		<path fill="#333333" d="M183.20215,334h23.71954C268.50647,319.6001,317.48608,272.08203,334,211.32959V193.479
			C321.72827,268.46753,259.80414,326.96655,183.20215,334z"/>
		<path fill="#333333" d="M128.41803,334h23.71722C72.13208,326.65356,8.12811,263.1626,0,183.3772v22.6582
			C15.04254,269.31152,65.06104,319.18408,128.41803,334z"/>
		<path fill="#333333" d="M139.35175,0h-17.45618C61.6452,16.61938,14.52222,65.20728,0,126.29468v22.6582
			C7.69025,73.46582,65.39911,12.56543,139.35175,0z"/>
		<path fill="#333333" d="M109.29968,0H98.7204C53.64832,18.77246,17.7923,55.36108,0,100.92627v11.31592
			C16.86798,59.92139,57.59045,18.21875,109.29968,0z"/>
		<path fill="#333333" d="M102.87494,334h11.38959C60.20367,316.75684,17.40442,274.07373,0,220.08838v11.31592
			C18.33563,278.36133,55.85516,315.78442,102.87494,334z"/>
		<path fill="#333333" d="M221.09949,334h11.38892C278.3783,316.22046,315.21393,280.14014,334,234.75781v-10.63916
			C315.80206,276.1936,273.80286,317.18823,221.09949,334z"/>
		<path fill="#333333" d="M334,108.21191V97.57275C315.78418,53.5686,280.59857,18.30933,236.64246,0H226.0639
			C276.43353,17.74854,316.37738,57.78369,334,108.21191z"/>
		<path fill="#333333" d="M84.16687,334h8.85565C51.76862,315.57568,18.50555,282.37939,0,241.16943v8.81494
			C18.20959,286.26587,47.84845,315.85352,84.16687,334z"/>
		<path fill="#333333" d="M89.39673,0h-8.49329C46.07312,18.26465,17.66113,47.15698,0,82.3457v8.81494
			C17.96008,51.16553,49.82178,18.72095,89.39673,0z"/>
		<path fill="#333333" d="M242.34662,334h8.85577c35.42114-17.69824,64.48962-46.27832,82.79761-81.33838v-8.53125
			C315.25012,283.96704,282.60663,316.01953,242.34662,334z"/>
		<path fill="#333333" d="M334,88.19971v-8.53125C316.25739,45.69116,288.409,17.79932,254.46582,0h-8.49341
			C284.56494,18.25635,315.81647,49.56641,334,88.19971z"/>
		<path fill="#333333" d="M259.36798,334h7.62921c27.3255-16.22827,50.37152-38.93091,67.00281-65.98682v-7.43799
			C316.42328,291.41504,290.51984,316.91748,259.36798,334z"/>
		<path fill="#333333" d="M68.39667,334h7.62994C44.04108,316.46191,17.58862,290.0481,0,258.0957v7.61548
			C16.72803,293.78052,40.2981,317.31396,68.39667,334z"/>
		<path fill="#333333" d="M334,71.75537v-7.43823C317.93231,38.17822,295.87909,16.1001,269.76227,0h-7.41248
			C292.17371,17.05444,316.98706,41.90503,334,71.75537z"/>
		<path fill="#333333" d="M73.04449,0h-7.41309C38.74982,16.57031,16.17664,39.4751,0,66.61914v7.61597
			C17.03912,43.28125,42.39612,17.52441,73.04449,0z"/>
		<path fill="#333333" d="M274.24445,334h6.90576c20.64941-14.00293,38.58112-31.71851,52.84979-52.17139v-6.76025
			C318.48444,298.6814,298.08722,318.81079,274.24445,334z"/>
		<path fill="#333333" d="M54.25232,334h6.90594C36.59412,318.35132,15.67877,297.4646,0,272.92139v6.88525
			C14.48737,301.11768,32.92383,319.53662,54.25232,334z"/>
		<path fill="#333333" d="M58.5946,0h-6.74933C31.5376,14.20215,13.93817,32.02026,0,52.52344v6.88525
			C15.12952,35.72534,35.13959,15.45312,58.5946,0z"/>
		<path fill="#333333" d="M334,57.26172v-6.76025C320.28998,30.84937,303.19287,13.73193,283.55725,0h-6.74915
			C299.54938,14.98267,319.04443,34.50098,334,57.26172z"/>
		<path fill="#333333" d="M41.28033,334h6.39099C29.30884,320.83057,13.1897,304.72681,0,286.38037v6.38208
			C11.78827,308.33862,25.69067,322.22803,41.28033,334z"/>
		<path fill="#333333" d="M334,44.00073v-6.28784C323.0813,23.61108,310.41406,10.93115,296.32239,0h-6.27942
			C306.8089,12.37549,321.64038,27.22241,334,44.00073z"/>
		<path fill="#333333" d="M287.75488,334h6.39069c14.96655-11.30225,28.37585-24.55811,39.85443-39.38281v-6.28784
			C321.08044,305.86768,305.4621,321.29932,287.75488,334z"/>
		<path fill="#333333" d="M45.38312,0h-6.27979C24.39496,11.40869,11.23627,24.72095,0,39.56763v6.38208
			C12.63837,28.37012,27.96881,12.85303,45.38312,0z"/>
		<path fill="#333333" d="M334,31.61328v-5.93896C326.17255,16.42432,317.59045,7.83496,308.34705,0h-5.93176
			C314.00665,9.41431,324.59564,20.01343,334,31.61328z"/>
		<path fill="#333333" d="M300.34277,334h6.03009c10.00092-8.27661,19.24292-17.43628,27.62714-27.34424v-5.93896
			C324.03693,313.00586,312.74799,324.17627,300.34277,334z"/>
		<path fill="#333333" d="M29.06287,334h6.03009C22.08966,323.70264,10.30823,311.9292,0,298.93506v6.02344
			C8.75781,315.52295,18.49091,325.25073,29.06287,334z"/>
		<path fill="#333333" d="M33.02051,0h-5.93182C17.27997,8.31421,8.20764,17.4707,0,27.37158v6.02344
			C9.75677,21.09595,20.83704,9.89526,33.02051,0z"/>
		<path fill="#333333" d="M17.47803,334h5.72754C14.91412,326.84961,7.15564,319.09839,0,310.81152v5.72241
			C5.50482,322.66846,11.34009,328.49902,17.47803,334z"/>
		<path fill="#333333" d="M312.24127,334h5.72784c5.60138-5.01978,10.95465-10.31006,16.03088-15.85938v-5.68359
			C327.24677,320.12402,319.9798,327.32715,312.24127,334z"/>
		<path fill="#333333" d="M21.30499,0h-5.67694C10.16388,5.00635,4.94995,10.28003,0,15.79614v5.72241
			C6.60437,13.87012,13.72864,6.68481,21.30499,0z"/>
		<path fill="#333333" d="M334,19.87305v-5.68359C329.4845,9.25293,324.75214,4.51904,319.81921,0h-5.67719
			C321.17102,6.20117,327.80426,12.83911,334,19.87305z"/>
		<path fill="#333333" d="M10.0965,0H4.65454C3.08221,1.54346,1.52832,3.10522,0,4.69238v5.52051
			C3.26172,6.70703,6.62366,3.29639,10.0965,0z"/>
		<path fill="#333333" d="M6.36469,334h5.52539C7.78387,330.18457,3.81812,326.22119,0,322.11719v5.52051
			C2.08105,329.79883,4.20245,331.92017,6.36469,334z"/>
		<path fill="#333333" d="M323.57892,334h5.52557c1.65704-1.59375,3.28595-3.21606,4.89551-4.85767v-5.44727
			C330.63831,327.24146,327.15869,330.67358,323.57892,334z"/>
		<path fill="#333333" d="M334,8.63501V3.18774c-1.05176-1.07251-2.11322-2.1355-3.18536-3.18774h-5.44214
			C328.32416,2.80176,331.20026,5.6814,334,8.63501z"/>
		<path fill="#333333" d="M0,333.0498V334h0.95227C0.63422,333.68384,0.31628,333.36768,0,333.0498z"/>
	</g>
</g>
<g id="Layer_3" display="none">
</g>
<g id="Layer_2" display="none">
</g>
</svg>
