<?xml version="1.0" encoding="utf-8"?>
<!-- Generator: Adobe Illustrator 21.1.0, SVG Export Plug-In . SVG Version: 6.00 Build 0)  -->
<svg version="1.2" baseProfile="tiny" xmlns="http://www.w3.org/2000/svg" xmlns:xlink="http://www.w3.org/1999/xlink" x="0px"
	 y="0px" viewBox="0 0 334 334" xml:space="preserve">
<g id="Layer_1">
	<g>
		<path fill="#828282" d="M22.96094-0.00004H0v22.90356C7.08252,14.71908,14.76074,7.06472,22.96094-0.00004z"/>
		<path fill="#828282" d="M0,310.43277v23.40265h23.55078C15.13013,326.63144,7.25098,318.81198,0,310.43277z"/>
		<path fill="#828282" d="M309.12378,333.83542H334v-24.96741C326.38281,317.83554,318.06421,326.18741,309.12378,333.83542z"/>
		<path fill="#828282" d="M166.33203,34.69869c-72.76855,0-131.96973,59.20117-131.96973,131.96924
			c0,72.76855,59.20117,131.96974,131.96973,131.96974s131.96973-59.20119,131.96973-131.96974
			C298.30176,93.89986,239.10059,34.69869,166.33203,34.69869z M166.33203,269.3071
			c-56.60449,0-102.65527-46.04347-102.65527-102.63918c0-56.59521,46.05078-102.63866,102.65527-102.63866
			c56.5957,0,102.63965,46.04346,102.63965,102.63866C268.97168,223.26363,222.92773,269.3071,166.33203,269.3071z"/>
		<path fill="#828282" d="M166.33203,93.35934c-40.43164,0-73.3252,32.88623-73.3252,73.30859
			c0,40.42285,32.89355,73.30908,73.3252,73.30908c40.42285,0,73.30957-32.88623,73.30957-73.30908
			C239.6416,126.24557,206.75488,93.35934,166.33203,93.35934z M166.33203,210.66353
			c-24.25879,0-43.99512-19.73633-43.99512-43.99561c0-24.25879,19.73633-43.99511,43.99512-43.99511
			s43.99512,19.73632,43.99512,43.99511C210.32715,190.9272,190.59082,210.66353,166.33203,210.66353z"/>
		<path fill="#828282" d="M166.33203,152.00288c-8.08594,0-14.66504,6.57861-14.66504,14.66504s6.5791,14.66553,14.66504,14.66553
			s14.66504-6.5791,14.66504-14.66553S174.41797,152.00288,166.33203,152.00288z"/>
		<path fill="#828282" d="M334,257.3074V76.02883c-17.32812-31.92609-43.51587-58.36786-75.23438-76.02887H73.90625
			C42.98071,17.22097,17.32324,42.79647,0,73.6592v186.01782c17.48975,31.15979,43.47266,56.93433,74.79785,74.15839h183.07617
			C289.99463,316.17545,316.50928,289.53311,334,257.3074z M166.33203,327.96774c-88.94141,0-161.2998-72.3589-161.2998-161.29982
			S77.39062,5.36861,166.33203,5.36861s161.2998,72.3584,161.2998,161.29932S255.27344,327.96774,166.33203,327.96774z"/>
		<path fill="#828282" d="M334,24.46822V-0.00004h-24.28613C318.43213,7.51058,326.5498,15.69698,334,24.46822z"/>
		<path fill="#7D7D7D" d="M166.33203,122.67281c-24.25879,0-43.99512,19.73632-43.99512,43.99511
			c0,24.25928,19.73633,43.99561,43.99512,43.99561s43.99512-19.73633,43.99512-43.99561
			C210.32715,142.40913,190.59082,122.67281,166.33203,122.67281z M166.33203,181.33345
			c-8.08594,0-14.66504-6.5791-14.66504-14.66553s6.5791-14.66504,14.66504-14.66504s14.66504,6.57861,14.66504,14.66504
			S174.41797,181.33345,166.33203,181.33345z"/>
		<path fill="#7D7D7D" d="M166.33203,64.02926c-56.60449,0-102.65527,46.04346-102.65527,102.63866
			c0,56.5957,46.05078,102.63918,102.65527,102.63918c56.5957,0,102.63965-46.04347,102.63965-102.63918
			C268.97168,110.07272,222.92773,64.02926,166.33203,64.02926z M166.33203,239.97701
			c-40.43164,0-73.3252-32.88623-73.3252-73.30908c0-40.42236,32.89355-73.30859,73.3252-73.30859
			c40.42285,0,73.30957,32.88623,73.30957,73.30859C239.6416,207.09077,206.75488,239.97701,166.33203,239.97701z"/>
		<path fill="#7D7D7D" d="M166.33203,5.36861c-88.94141,0-161.2998,72.3584-161.2998,161.29932
			s72.3584,161.29982,161.2998,161.29982s161.2998-72.3589,161.2998-161.29982S255.27344,5.36861,166.33203,5.36861z
			 M166.33203,298.63766c-72.76855,0-131.96973-59.20119-131.96973-131.96974c0-72.76806,59.20117-131.96924,131.96973-131.96924
			s131.96973,59.20117,131.96973,131.96924C298.30176,239.43648,239.10059,298.63766,166.33203,298.63766z"/>
		<path fill="#7D7D7D" d="M334,308.86801V257.3074c-17.49072,32.22571-44.00537,58.86804-76.12598,76.52802
			c-0.09839,0.05408-0.19531,0.1106-0.29395,0.16455h51.34912c0.0647-0.05511,0.13013-0.10938,0.19458-0.16455
			C318.06421,326.18741,326.38281,317.83554,334,308.86801z"/>
		<path fill="#7D7D7D" d="M334,76.02883V24.46822c-7.4502-8.77124-15.56787-16.95764-24.28613-24.46826h-50.94824
			C290.48413,17.66097,316.67188,44.10275,334,76.02883z"/>
		<path fill="#7D7D7D" d="M73.90625-0.00004H22.96094C14.76074,7.06472,7.08252,14.71908,0,22.90353V73.6592
			C17.32324,42.79647,42.98071,17.22097,73.90625-0.00004z"/>
		<path fill="#7D7D7D" d="M0,259.67703v50.75574c7.25098,8.37921,15.13013,16.19867,23.55078,23.40265
			c0.0647,0.05518,0.12988,0.10944,0.19458,0.16455H75.0918c-0.09863-0.05396-0.19556-0.11047-0.29395-0.16455
			C43.47266,316.61136,17.48975,290.83682,0,259.67703z"/>
	</g>
</g>
<g id="Layer_3" display="none">
</g>
<g id="Layer_2" display="none">
</g>
</svg>
