<?xml version="1.0" encoding="utf-8"?>
<!-- Generator: Adobe Illustrator 21.1.0, SVG Export Plug-In . SVG Version: 6.00 Build 0)  -->
<svg version="1.2" baseProfile="tiny" xmlns="http://www.w3.org/2000/svg" xmlns:xlink="http://www.w3.org/1999/xlink" x="0px"
	 y="0px" viewBox="0 0 334 334" xml:space="preserve">
<g id="Layer_1">
	<g>
		<path fill="#818181" d="M167,152.00288c-8.08594,0-14.66504,6.57861-14.66504,14.66504s6.5791,14.66553,14.66504,14.66553
			s14.66504-6.5791,14.66504-14.66553S175.08594,152.00288,167,152.00288z"/>
		<path fill="#818181" d="M167,34.69869c-72.76855,0-131.96973,59.20117-131.96973,131.96924
			c0,72.76855,59.20117,131.96974,131.96973,131.96974s131.96973-59.20119,131.96973-131.96974
			C298.96973,93.89986,239.76855,34.69869,167,34.69869z M167,269.3071c-56.60449,0-102.65527-46.04347-102.65527-102.63918
			c0-56.59521,46.05078-102.63866,102.65527-102.63866c56.5957,0,102.63965,46.04346,102.63965,102.63866
			C269.63965,223.26363,223.5957,269.3071,167,269.3071z"/>
		<path fill="#818181" d="M23.62891-0.00004H0v23.6933C7.26904,15.21364,15.16748,7.28976,23.62891-0.00004z"/>
		<path fill="#818181" d="M0,309.64297v24.19244h24.21875C15.53613,326.40732,7.43677,318.31815,0,309.64297z"/>
		<path fill="#818181" d="M167,93.35934c-40.43164,0-73.3252,32.88623-73.3252,73.30859
			c0,40.42285,32.89355,73.30908,73.3252,73.30908c40.42285,0,73.30957-32.88623,73.30957-73.30908
			C240.30957,126.24557,207.42285,93.35934,167,93.35934z M167,210.66353c-24.25879,0-43.99512-19.73633-43.99512-43.99561
			c0-24.25879,19.73633-43.99511,43.99512-43.99511s43.99512,19.73632,43.99512,43.99511
			C210.99512,190.9272,191.25879,210.66353,167,210.66353z"/>
		<path fill="#818181" d="M334,258.50931V74.82693c-17.32959-31.38599-43.24829-57.38898-74.56641-74.82697H74.57422
			C43.25024,17.44277,17.32812,43.45516,0,74.85275v183.63074c17.49292,31.69598,43.74097,57.90814,75.46582,75.35193h183.07617
			C290.26099,316.39633,316.50562,290.19363,334,258.50931z M167,327.96774c-88.94141,0-161.2998-72.3589-161.2998-161.29982
			S78.05859,5.36861,167,5.36861s161.2998,72.3584,161.2998,161.29932S255.94141,327.96774,167,327.96774z"/>
		<path fill="#818181" d="M309.79175,333.83542H334v-24.17767C326.56616,318.32736,318.47021,326.41153,309.79175,333.83542z"/>
		<path fill="#818181" d="M334,23.67855V-0.00004h-23.61816C318.83887,7.28554,326.73389,15.20443,334,23.67855z"/>
		<path fill="#7E7E7E" d="M167,122.67281c-24.25879,0-43.99512,19.73632-43.99512,43.99511
			c0,24.25928,19.73633,43.99561,43.99512,43.99561s43.99512-19.73633,43.99512-43.99561
			C210.99512,142.40913,191.25879,122.67281,167,122.67281z M167,181.33345c-8.08594,0-14.66504-6.5791-14.66504-14.66553
			s6.5791-14.66504,14.66504-14.66504s14.66504,6.57861,14.66504,14.66504S175.08594,181.33345,167,181.33345z"/>
		<path fill="#7E7E7E" d="M167,64.02926c-56.60449,0-102.65527,46.04346-102.65527,102.63866
			c0,56.5957,46.05078,102.63918,102.65527,102.63918c56.5957,0,102.63965-46.04347,102.63965-102.63918
			C269.63965,110.07272,223.5957,64.02926,167,64.02926z M167,239.97701c-40.43164,0-73.3252-32.88623-73.3252-73.30908
			c0-40.42236,32.89355-73.30859,73.3252-73.30859c40.42285,0,73.30957,32.88623,73.30957,73.30859
			C240.30957,207.09077,207.42285,239.97701,167,239.97701z"/>
		<path fill="#7E7E7E" d="M167,5.36861c-88.94141,0-161.2998,72.3584-161.2998,161.29932S78.05859,327.96774,167,327.96774
			s161.2998-72.3589,161.2998-161.29982S255.94141,5.36861,167,5.36861z M167,298.63766
			c-72.76855,0-131.96973-59.20119-131.96973-131.96974C35.03027,93.89986,94.23145,34.69869,167,34.69869
			s131.96973,59.20117,131.96973,131.96924C298.96973,239.43648,239.76855,298.63766,167,298.63766z"/>
		<path fill="#7E7E7E" d="M334,309.65775v-51.14844c-17.49438,31.68433-43.73901,57.88702-75.45801,75.32611
			c-0.09839,0.05408-0.19531,0.1106-0.29395,0.16455h51.34912c0.0647-0.05511,0.13013-0.10938,0.19458-0.16455
			C318.47021,326.41153,326.56616,318.32736,334,309.65775z"/>
		<path fill="#7E7E7E" d="M0,258.48349v51.15948c7.43677,8.67517,15.53613,16.76434,24.21875,24.19244
			c0.0647,0.05518,0.12988,0.10944,0.19458,0.16455h51.34644c-0.09863-0.05396-0.19556-0.11047-0.29395-0.16455
			C43.74097,316.39163,17.49292,290.17947,0,258.48349z"/>
		<path fill="#7E7E7E" d="M74.57422-0.00004H23.62891C15.16748,7.28976,7.26904,15.21364,0,23.69326v51.15948
			C17.32812,43.45516,43.25024,17.44277,74.57422-0.00004z"/>
		<path fill="#7E7E7E" d="M334,74.82693V23.67855c-7.26611-8.47412-15.16113-16.39301-23.61816-23.67859h-50.94824
			C290.75171,17.43795,316.67041,43.44094,334,74.82693z"/>
	</g>
</g>
<g id="Layer_3" display="none">
</g>
<g id="Layer_2" display="none">
</g>
</svg>
