<?xml version="1.0" encoding="utf-8"?>
<!-- Generator: Adobe Illustrator 21.1.0, SVG Export Plug-In . SVG Version: 6.00 Build 0)  -->
<svg version="1.2" baseProfile="tiny" xmlns="http://www.w3.org/2000/svg" xmlns:xlink="http://www.w3.org/1999/xlink" x="0px"
	 y="0px" viewBox="0 0 334 334" xml:space="preserve">
<g id="Layer_1">
	<g>
		<path fill="#909090" d="M334,37.15723V16.04565C328.90417,10.42969,323.52417,5.07715,317.89111,0h-21.20056
			C310.61255,10.7915,323.15552,23.27832,334,37.15723z"/>
		<path fill="#909090" d="M0,242.00598v28.84094C15.88086,296.35791,37.41333,317.99609,62.83862,334h28.53613
			C50.90161,315.45166,18.28125,282.62793,0,242.00598z"/>
		<path fill="#909090" d="M167.66797,132.80127c-18.76514,0-34.03174,15.2666-34.03174,34.03174s15.2666,34.03174,34.03174,34.03174
			c18.76562,0,34.03223-15.2666,34.03223-34.03174S186.43359,132.80127,167.66797,132.80127z M167.66797,187.25244
			c-11.25928,0-20.41943-9.16016-20.41943-20.41943s9.16016-20.41943,20.41943-20.41943s20.41992,9.16016,20.41992,20.41943
			S178.92725,187.25244,167.66797,187.25244z"/>
		<circle fill="#909090" cx="167.66809" cy="166.83301" r="6.80627"/>
		<path fill="#909090" d="M334,273.00769v-28.08716C315.48718,284.19531,283.47144,315.89795,243.96851,334h28.53784
			C297.21509,318.44849,318.25745,297.58374,334,273.00769z"/>
		<path fill="#909090" d="M334,202.75732v-71.84863C319.79358,65.07031,267.3833,13.28259,201.20996,0h-67.08057
			C65.6449,13.7478,11.90063,68.74512,0,137.87744v57.91113C12.00122,265.505,66.55811,320.84106,135.87024,334h63.59875
			C266.46191,321.28271,319.66943,269.17139,334,202.75732z M167.66797,323.38086
			c-86.31152,0-156.53125-70.22705-156.53125-156.54785S81.35645,10.28516,167.66797,10.28516
			c86.3208,0,156.54785,70.22705,156.54785,156.54785S253.98877,323.38086,167.66797,323.38086z"/>
		<path fill="#909090" d="M167.66797,105.57568c-33.77734,0-61.25732,27.47998-61.25732,61.25732
			s27.47998,61.25732,61.25732,61.25732c33.77783,0,61.25781-27.47998,61.25781-61.25732S201.4458,105.57568,167.66797,105.57568z
			 M167.66797,214.47803c-26.27148,0-47.64502-21.37354-47.64502-47.64502s21.37354-47.64502,47.64502-47.64502
			s47.64551,21.37354,47.64551,47.64502S193.93945,214.47803,167.66797,214.47803z"/>
		<path fill="#909090" d="M334,317.62036v-21.11133C323.04309,310.53198,310.35083,323.13232,296.25562,334h21.25903
			C323.28394,328.82324,328.7915,323.3606,334,317.62036z"/>
		<path fill="#909090" d="M167.66797,23.89844C88.86279,23.89844,24.75,88.01855,24.75,166.83301
			s64.11279,142.93457,142.91797,142.93457c78.81445,0,142.93457-64.12012,142.93457-142.93457
			S246.48242,23.89844,167.66797,23.89844z M167.66797,296.15527c-71.30859,0-129.32227-58.01367-129.32227-129.32227
			c0-71.30811,58.01367-129.32178,129.32227-129.32178S296.99023,95.5249,296.99023,166.83301
			C296.99023,238.1416,238.97656,296.15527,167.66797,296.15527z"/>
		<path fill="#909090" d="M167.66797,78.3501c-48.78955,0-88.48291,39.69336-88.48291,88.48291s39.69336,88.48291,88.48291,88.48291
			c48.79004,0,88.4834-39.69336,88.4834-88.48291S216.45801,78.3501,167.66797,78.3501z M167.66797,241.70361
			c-41.28369,0-74.87061-33.58691-74.87061-74.87061s33.58691-74.87061,74.87061-74.87061s74.87109,33.58691,74.87109,74.87061
			S208.95166,241.70361,167.66797,241.70361z"/>
		<path fill="#909090" d="M167.66797,51.12451c-63.80225,0-115.70898,51.90625-115.70898,115.7085
			s51.90674,115.70898,115.70898,115.70898s115.70898-51.90674,115.70898-115.70898S231.47021,51.12451,167.66797,51.12451z
			 M167.66797,268.9292c-56.2959,0-102.09619-45.80029-102.09619-102.09619S111.37207,64.73682,167.66797,64.73682
			c56.29639,0,102.09668,45.80029,102.09668,102.09619S223.96436,268.9292,167.66797,268.9292z"/>
		<path fill="#909090" d="M0,294.75v21.3512C5.60742,322.3938,11.55969,328.37097,17.83252,334h21.25806
			C24.41125,322.68103,11.2605,309.47681,0,294.75z"/>
		<path fill="#909090" d="M38.65576,0H17.45605C11.32056,5.53052,5.49573,11.39746,0,17.56482v21.35144
			C11.14954,24.33472,24.15088,11.24414,38.65576,0z"/>
		<path fill="#909090" d="M334,88.74512V60.65845C318.37061,36.25928,297.51904,15.51562,273.04077,0h-28.3562
			C283.85742,18.15613,315.59961,49.70837,334,88.74512z"/>
		<path fill="#909090" d="M90.65869,0H62.30444C37.11096,15.97021,15.7699,37.48657,0,62.81934v28.84033
			C18.17297,51.27808,50.51782,18.60645,90.65869,0z"/>
		<path fill="#6F6F6F" d="M167.66797,146.41357c-11.25928,0-20.41943,9.16016-20.41943,20.41943s9.16016,20.41943,20.41943,20.41943
			s20.41992-9.16016,20.41992-20.41943S178.92725,146.41357,167.66797,146.41357z M167.66797,173.63916
			c-3.75293,0-6.80615-3.05322-6.80615-6.80615s3.05322-6.80615,6.80615-6.80615c3.75342,0,6.80664,3.05322,6.80664,6.80615
			S171.42139,173.63916,167.66797,173.63916z"/>
		<path fill="#6F6F6F" d="M167.66797,119.18799c-26.27148,0-47.64502,21.37354-47.64502,47.64502
			s21.37354,47.64502,47.64502,47.64502s47.64551-21.37354,47.64551-47.64502S193.93945,119.18799,167.66797,119.18799z
			 M167.66797,200.86475c-18.76514,0-34.03174-15.2666-34.03174-34.03174s15.2666-34.03174,34.03174-34.03174
			c18.76562,0,34.03223,15.2666,34.03223,34.03174S186.43359,200.86475,167.66797,200.86475z"/>
		<path fill="#6F6F6F" d="M167.66797,91.9624c-41.28369,0-74.87061,33.58691-74.87061,74.87061s33.58691,74.87061,74.87061,74.87061
			s74.87109-33.58691,74.87109-74.87061S208.95166,91.9624,167.66797,91.9624z M167.66797,228.09033
			c-33.77734,0-61.25732-27.47998-61.25732-61.25732s27.47998-61.25732,61.25732-61.25732
			c33.77783,0,61.25781,27.47998,61.25781,61.25732S201.4458,228.09033,167.66797,228.09033z"/>
		<path fill="#6F6F6F" d="M167.66797,64.73682c-56.2959,0-102.09619,45.80029-102.09619,102.09619
			S111.37207,268.9292,167.66797,268.9292c56.29639,0,102.09668-45.80029,102.09668-102.09619
			S223.96436,64.73682,167.66797,64.73682z M167.66797,255.31592c-48.78955,0-88.48291-39.69336-88.48291-88.48291
			s39.69336-88.48291,88.48291-88.48291c48.79004,0,88.4834,39.69336,88.4834,88.48291S216.45801,255.31592,167.66797,255.31592z"/>
		<path fill="#6F6F6F" d="M167.66797,37.51123c-71.30859,0-129.32227,58.01367-129.32227,129.32178
			c0,71.30859,58.01367,129.32227,129.32227,129.32227s129.32227-58.01367,129.32227-129.32227
			C296.99023,95.5249,238.97656,37.51123,167.66797,37.51123z M167.66797,282.54199
			c-63.80225,0-115.70898-51.90674-115.70898-115.70898s51.90674-115.7085,115.70898-115.7085
			s115.70898,51.90625,115.70898,115.7085S231.47021,282.54199,167.66797,282.54199z"/>
		<path fill="#6F6F6F" d="M167.66797,10.28516c-86.31152,0-156.53125,70.22705-156.53125,156.54785
			s70.21973,156.54785,156.53125,156.54785c86.3208,0,156.54785-70.22705,156.54785-156.54785
			S253.98877,10.28516,167.66797,10.28516z M167.66797,309.76758c-78.80518,0-142.91797-64.12012-142.91797-142.93457
			S88.86279,23.89844,167.66797,23.89844c78.81445,0,142.93457,64.12012,142.93457,142.93457
			S246.48242,309.76758,167.66797,309.76758z"/>
		<path fill="#6F6F6F" d="M0,195.78857v46.21741C18.28125,282.62793,50.90161,315.45166,91.37476,334h44.49548
			C66.55811,320.84106,12.00122,265.505,0,195.78857z"/>
		<path fill="#6F6F6F" d="M334,130.90869V88.74512C315.59961,49.70837,283.85742,18.15613,244.68457,0h-43.47461
			C267.3833,13.28259,319.79358,65.07031,334,130.90869z"/>
		<path fill="#6F6F6F" d="M334,244.92053v-42.16321C319.66943,269.17139,266.46191,321.28271,199.46899,334h44.49951
			C283.47144,315.89795,315.48718,284.19531,334,244.92053z"/>
		<path fill="#6F6F6F" d="M134.12939,0h-43.4707C50.51782,18.60645,18.17297,51.27808,0,91.65967v46.21777
			C11.90063,68.74512,65.6449,13.7478,134.12939,0z"/>
		<path fill="#6F6F6F" d="M334,60.65845V37.15723C323.15552,23.27832,310.61255,10.7915,296.69055,0h-23.64978
			C297.51904,15.51562,318.37061,36.25928,334,60.65845z"/>
		<path fill="#6F6F6F" d="M0,270.84692V294.75c11.2605,14.72681,24.41125,27.93103,39.09058,39.25h23.74805
			C37.41333,317.99609,15.88086,296.35791,0,270.84692z"/>
		<path fill="#6F6F6F" d="M62.30444,0H38.65576C24.15088,11.24414,11.14954,24.33472,0,38.91626v23.90308
			C15.7699,37.48657,37.11096,15.97021,62.30444,0z"/>
		<path fill="#6F6F6F" d="M334,296.50903v-23.50134c-15.74255,24.57605-36.78491,45.4408-61.49365,60.99231h23.74927
			C310.35083,323.13232,323.04309,310.53198,334,296.50903z"/>
		<path fill="#6F6F6F" d="M334,317.62036c-5.2085,5.74023-10.71606,11.20288-16.48535,16.37964H334V317.62036z"/>
		<path fill="#6F6F6F" d="M17.45605,0H0v17.56482C5.49573,11.39746,11.32056,5.53052,17.45605,0z"/>
		<path fill="#6F6F6F" d="M334,16.04565V0h-16.10889C323.52417,5.07715,328.90417,10.42969,334,16.04565z"/>
		<path fill="#6F6F6F" d="M0,316.1012V334h17.83252C11.55969,328.37097,5.60742,322.3938,0,316.1012z"/>
	</g>
</g>
<g id="Layer_3" display="none">
</g>
<g id="Layer_2" display="none">
</g>
</svg>
