<?xml version="1.0" encoding="utf-8"?>
<!-- Generator: Adobe Illustrator 21.1.0, SVG Export Plug-In . SVG Version: 6.00 Build 0)  -->
<svg version="1.2" baseProfile="tiny" xmlns="http://www.w3.org/2000/svg" xmlns:xlink="http://www.w3.org/1999/xlink" x="0px"
	 y="0px" viewBox="0 0 334 334" xml:space="preserve">
<g id="Layer_1">
	<g>
		<path fill="#858585" d="M0,320.49414V334h13.46887C8.79443,329.68628,4.29883,325.18237,0,320.49414z"/>
		<path fill="#858585" d="M0,245.73682v22.30811C16.25464,294.94214,38.81873,317.61633,65.62939,334h22.06494
			C49.25684,315.61792,18.14307,284.30884,0,245.73682z"/>
		<path fill="#858585" d="M0,287.1521v17.28345C8.84863,315.20752,18.71436,325.11292,29.45337,334h17.20935
			C28.7124,320.99023,12.9375,305.15796,0,287.1521z"/>
		<path fill="#858585" d="M89.83618,0H67.30261C39.75928,16.45605,16.59082,39.5033,0,66.95703v22.30786
			C18.47852,49.97986,50.41455,18.23315,89.83618,0z"/>
		<circle fill="#858585" cx="166.99927" cy="167.50073" r="5.27002"/>
		<path fill="#858585" d="M48.03516,0H30.68701C19.47144,9.14441,9.18481,19.38501,0,30.56616v17.28345
			C13.26807,29.38367,29.51245,13.1936,48.03516,0z"/>
		<path fill="#858585" d="M334,89.2666V66.95898C317.40894,39.50439,294.23975,16.45654,266.6958,0h-22.53223
			C283.58569,18.23352,315.52173,49.98083,334,89.2666z"/>
		<path fill="#858585" d="M334,47.85132V30.56787C324.8147,19.38611,314.52734,9.14478,303.31152,0h-17.34814
			C304.48657,13.19397,320.73145,29.38477,334,47.85132z"/>
		<path fill="#858585" d="M334,14.50916V0h-14.54639C324.5188,4.61426,329.36963,9.45898,334,14.50916z"/>
		<path fill="#858585" d="M166.99902,141.15137c-14.52832,0-26.34863,11.82031-26.34863,26.34961
			c0,14.52832,11.82031,26.34863,26.34863,26.34863c14.5293,0,26.34961-11.82031,26.34961-26.34863
			C193.34863,152.97168,181.52832,141.15137,166.99902,141.15137z M166.99902,183.30957
			c-8.7168,0-15.80859-7.0918-15.80859-15.80859c0-8.71777,7.0918-15.80957,15.80859-15.80957
			c8.71777,0,15.80957,7.0918,15.80957,15.80957C182.80859,176.21777,175.7168,183.30957,166.99902,183.30957z"/>
		<path fill="#858585" d="M14.5448,0H0v14.50757C4.62988,9.45801,9.48022,4.61377,14.5448,0z"/>
		<path fill="#858585" d="M334,268.04285v-22.30774C315.85718,284.30786,284.74341,315.61768,246.30566,334h22.06323
			C295.18018,317.61597,317.74512,294.94116,334,268.04285z"/>
		<path fill="#858585" d="M334,304.43384v-17.28345C321.06201,305.15698,305.28662,320.98975,287.33569,334h17.20923
			C315.28467,325.11243,325.15088,315.2063,334,304.43384z"/>
		<path fill="#858585" d="M320.52979,334H334v-13.50745C329.70068,325.1814,325.20459,329.68579,320.52979,334z"/>
		<path fill="#858585" d="M334,216.03735V118.9646C317.25732,61.45044,271.5481,16.15503,213.78857,0h-93.57715
			C62.45264,16.15479,16.74353,61.44873,0,118.96167v97.07861C16.41064,272.40991,60.64844,317.03748,116.7832,334H217.2168
			C273.35229,317.03711,317.59009,272.4082,334,216.03735z M166.99902,330.8623c-90.07812,0-163.3623-73.2832-163.3623-163.36133
			S76.9209,4.13867,166.99902,4.13867s163.3623,73.28418,163.3623,163.3623S257.07715,330.8623,166.99902,330.8623z"/>
		<path fill="#858585" d="M166.99902,120.07227c-26.15137,0-47.42773,21.27637-47.42773,47.42871
			c0,26.15137,21.27637,47.42773,47.42773,47.42773c26.15234,0,47.42871-21.27637,47.42871-47.42773
			C214.42773,141.34863,193.15137,120.07227,166.99902,120.07227z M166.99902,204.38867
			c-20.33984,0-36.8877-16.54785-36.8877-36.8877c0-20.34082,16.54785-36.88867,36.8877-36.88867
			c20.34082,0,36.88867,16.54785,36.88867,36.88867C203.8877,187.84082,187.33984,204.38867,166.99902,204.38867z"/>
		<path fill="#858585" d="M166.99902,98.99414c-37.77441,0-68.50684,30.73242-68.50684,68.50684
			s30.73242,68.50684,68.50684,68.50684c37.77539,0,68.50781-30.73242,68.50781-68.50684S204.77441,98.99414,166.99902,98.99414z
			 M166.99902,225.46777c-31.96289,0-57.9668-26.00391-57.9668-57.9668c0-31.96387,26.00391-57.96777,57.9668-57.96777
			c31.96387,0,57.96777,26.00391,57.96777,57.96777C224.9668,199.46387,198.96289,225.46777,166.99902,225.46777z"/>
		<path fill="#858585" d="M166.99902,77.91504c-49.39746,0-89.58594,40.18848-89.58594,89.58594
			s40.18848,89.58594,89.58594,89.58594s89.58594-40.18848,89.58594-89.58594S216.39648,77.91504,166.99902,77.91504z
			 M166.99902,246.54688c-43.58594,0-79.0459-35.45996-79.0459-79.0459s35.45996-79.0459,79.0459-79.0459
			c43.58691,0,79.04688,35.45996,79.04688,79.0459S210.58594,246.54688,166.99902,246.54688z"/>
		<path fill="#858585" d="M166.99902,35.75684c-72.64355,0-131.74414,59.10059-131.74414,131.74414
			s59.10059,131.74414,131.74414,131.74414s131.74414-59.10059,131.74414-131.74414S239.64258,35.75684,166.99902,35.75684z
			 M166.99902,288.70508c-66.83203,0-121.2041-54.37207-121.2041-121.2041s54.37207-121.2041,121.2041-121.2041
			s121.2041,54.37207,121.2041,121.2041S233.83105,288.70508,166.99902,288.70508z"/>
		<path fill="#858585" d="M166.99902,56.83594c-61.02051,0-110.66504,49.64453-110.66504,110.66504
			s49.64453,110.66504,110.66504,110.66504s110.66504-49.64453,110.66504-110.66504S228.01953,56.83594,166.99902,56.83594z
			 M166.99902,267.62598c-55.20898,0-100.125-44.91602-100.125-100.125s44.91602-100.125,100.125-100.125
			s100.125,44.91602,100.125,100.125S222.20801,267.62598,166.99902,267.62598z"/>
		<path fill="#858585" d="M166.99902,14.67773c-84.2666,0-152.82324,68.55664-152.82324,152.82324
			s68.55664,152.82227,152.82324,152.82227s152.82324-68.55566,152.82324-152.82227S251.26562,14.67773,166.99902,14.67773z
			 M166.99902,309.78418c-78.45508,0-142.2832-63.82812-142.2832-142.2832s63.82812-142.2832,142.2832-142.2832
			s142.2832,63.82812,142.2832,142.2832S245.4541,309.78418,166.99902,309.78418z"/>
		<path fill="#7A7A7A" d="M166.99902,151.69141c-8.7168,0-15.80859,7.0918-15.80859,15.80957
			c0,8.7168,7.0918,15.80859,15.80859,15.80859c8.71777,0,15.80957-7.0918,15.80957-15.80859
			C182.80859,158.7832,175.7168,151.69141,166.99902,151.69141z M166.99902,172.77051c-2.90527,0-5.26953-2.36426-5.26953-5.26953
			c0-2.90625,2.36426-5.27051,5.26953-5.27051c2.90625,0,5.27051,2.36426,5.27051,5.27051
			C172.26953,170.40625,169.90527,172.77051,166.99902,172.77051z"/>
		<path fill="#7A7A7A" d="M166.99902,130.6123c-20.33984,0-36.8877,16.54785-36.8877,36.88867
			c0,20.33984,16.54785,36.8877,36.8877,36.8877c20.34082,0,36.88867-16.54785,36.88867-36.8877
			C203.8877,147.16016,187.33984,130.6123,166.99902,130.6123z M166.99902,193.84961
			c-14.52832,0-26.34863-11.82031-26.34863-26.34863c0-14.5293,11.82031-26.34961,26.34863-26.34961
			c14.5293,0,26.34961,11.82031,26.34961,26.34961C193.34863,182.0293,181.52832,193.84961,166.99902,193.84961z"/>
		<path fill="#7A7A7A" d="M166.99902,109.5332c-31.96289,0-57.9668,26.00391-57.9668,57.96777
			c0,31.96289,26.00391,57.9668,57.9668,57.9668c31.96387,0,57.96777-26.00391,57.96777-57.9668
			C224.9668,135.53711,198.96289,109.5332,166.99902,109.5332z M166.99902,214.92871
			c-26.15137,0-47.42773-21.27637-47.42773-47.42773c0-26.15234,21.27637-47.42871,47.42773-47.42871
			c26.15234,0,47.42871,21.27637,47.42871,47.42871C214.42773,193.65234,193.15137,214.92871,166.99902,214.92871z"/>
		<path fill="#7A7A7A" d="M166.99902,88.45508c-43.58594,0-79.0459,35.45996-79.0459,79.0459s35.45996,79.0459,79.0459,79.0459
			c43.58691,0,79.04688-35.45996,79.04688-79.0459S210.58594,88.45508,166.99902,88.45508z M166.99902,236.00781
			c-37.77441,0-68.50684-30.73242-68.50684-68.50684s30.73242-68.50684,68.50684-68.50684
			c37.77539,0,68.50781,30.73242,68.50781,68.50684S204.77441,236.00781,166.99902,236.00781z"/>
		<path fill="#7A7A7A" d="M166.99902,67.37598c-55.20898,0-100.125,44.91602-100.125,100.125s44.91602,100.125,100.125,100.125
			s100.125-44.91602,100.125-100.125S222.20801,67.37598,166.99902,67.37598z M166.99902,257.08691
			c-49.39746,0-89.58594-40.18848-89.58594-89.58594s40.18848-89.58594,89.58594-89.58594s89.58594,40.18848,89.58594,89.58594
			S216.39648,257.08691,166.99902,257.08691z"/>
		<path fill="#7A7A7A" d="M166.99902,46.29688c-66.83203,0-121.2041,54.37207-121.2041,121.2041
			s54.37207,121.2041,121.2041,121.2041s121.2041-54.37207,121.2041-121.2041S233.83105,46.29688,166.99902,46.29688z
			 M166.99902,278.16602c-61.02051,0-110.66504-49.64453-110.66504-110.66504S105.97852,56.83594,166.99902,56.83594
			s110.66504,49.64453,110.66504,110.66504S228.01953,278.16602,166.99902,278.16602z"/>
		<path fill="#7A7A7A" d="M166.99902,25.21777c-78.45508,0-142.2832,63.82812-142.2832,142.2832
			s63.82812,142.2832,142.2832,142.2832s142.2832-63.82812,142.2832-142.2832S245.4541,25.21777,166.99902,25.21777z
			 M166.99902,299.24512c-72.64355,0-131.74414-59.10059-131.74414-131.74414S94.35547,35.75684,166.99902,35.75684
			s131.74414,59.10059,131.74414,131.74414S239.64258,299.24512,166.99902,299.24512z"/>
		<path fill="#7A7A7A" d="M166.99902,4.13867c-90.07812,0-163.3623,73.28418-163.3623,163.3623S76.9209,330.8623,166.99902,330.8623
			s163.3623-73.2832,163.3623-163.36133S257.07715,4.13867,166.99902,4.13867z M166.99902,320.32324
			c-84.2666,0-152.82324-68.55566-152.82324-152.82227S82.73242,14.67773,166.99902,14.67773
			s152.82324,68.55664,152.82324,152.82324S251.26562,320.32324,166.99902,320.32324z"/>
		<path fill="#7A7A7A" d="M334,245.73511v-29.69775C317.59009,272.4082,273.35229,317.03711,217.2168,334h29.08887
			C284.74341,315.61768,315.85718,284.30786,334,245.73511z"/>
		<path fill="#7A7A7A" d="M0,216.04028v29.69653C18.14307,284.30884,49.25684,315.61792,87.69434,334h29.08887
			C60.64844,317.03748,16.41064,272.40991,0,216.04028z"/>
		<path fill="#7A7A7A" d="M334,118.9646v-29.698C315.52173,49.98083,283.58569,18.23352,244.16357,0h-30.375
			C271.5481,16.15503,317.25732,61.45044,334,118.9646z"/>
		<path fill="#7A7A7A" d="M120.21143,0H89.83618C50.41455,18.23315,18.47852,49.97986,0,89.26489v29.69678
			C16.74353,61.44873,62.45264,16.15479,120.21143,0z"/>
		<path fill="#7A7A7A" d="M0,268.04492v19.10718C12.9375,305.15796,28.7124,320.99023,46.66272,334h18.96667
			C38.81873,317.61633,16.25464,294.94214,0,268.04492z"/>
		<path fill="#7A7A7A" d="M334,287.15039v-19.10754C317.74512,294.94116,295.18018,317.61597,268.3689,334h18.9668
			C305.28662,320.98975,321.06201,305.15698,334,287.15039z"/>
		<path fill="#7A7A7A" d="M67.30261,0H48.03516C29.51245,13.1936,13.26807,29.38367,0,47.84961v19.10742
			C16.59082,39.5033,39.75928,16.45605,67.30261,0z"/>
		<path fill="#7A7A7A" d="M334,66.95898V47.85132C320.73145,29.38477,304.48657,13.19397,285.96338,0H266.6958
			C294.23975,16.45654,317.40894,39.50439,334,66.95898z"/>
		<path fill="#7A7A7A" d="M334,320.49255v-16.05872C325.15088,315.2063,315.28467,325.11243,304.54492,334h15.98486
			C325.20459,329.68579,329.70068,325.1814,334,320.49255z"/>
		<path fill="#7A7A7A" d="M0,304.43555v16.05859C4.29883,325.18237,8.79443,329.68628,13.46887,334h15.9845
			C18.71436,325.11292,8.84863,315.20752,0,304.43555z"/>
		<path fill="#7A7A7A" d="M334,30.56787V14.50916C329.36963,9.45898,324.5188,4.61426,319.45361,0h-16.14209
			C314.52734,9.14478,324.8147,19.38611,334,30.56787z"/>
		<path fill="#7A7A7A" d="M30.68701,0H14.5448C9.48022,4.61377,4.62988,9.45801,0,14.50757v16.05859
			C9.18481,19.38501,19.47144,9.14441,30.68701,0z"/>
	</g>
</g>
<g id="Layer_3" display="none">
</g>
<g id="Layer_2" display="none">
</g>
</svg>
