<?xml version="1.0" encoding="utf-8"?>
<!-- Generator: Adobe Illustrator 21.1.0, SVG Export Plug-In . SVG Version: 6.00 Build 0)  -->
<svg version="1.2" baseProfile="tiny" xmlns="http://www.w3.org/2000/svg" xmlns:xlink="http://www.w3.org/1999/xlink" x="0px"
	 y="0px" viewBox="0 0 334 334" xml:space="preserve">
<g id="Layer_1">
	<g>
		<path fill="#818181" d="M89.99072,0H61.63623C36.79761,15.74536,15.70215,36.88049,0,61.75v28.45605
			C18.29053,50.49536,50.3335,18.38232,89.99072,0z"/>
		<path fill="#818181" d="M334,199.50562V134.1604C320.8418,66.77991,267.80103,13.50049,200.54199,0h-67.08057
			C66.18091,13.5061,13.12891,66.82483,0,134.24536v65.17517C13.24194,267.4209,67.09839,321.07031,135.20215,334h63.59888
			C266.88354,321.07581,320.72852,267.46558,334,199.50562z M167.00098,323.38086
			c-86.31152,0-156.53125-70.22705-156.53125-156.54785S80.68945,10.28516,167.00098,10.28516
			c86.32031,0,156.54785,70.22705,156.54785,156.54785S253.32129,323.38086,167.00098,323.38086z"/>
		<path fill="#818181" d="M167.00098,23.89844c-78.80566,0-142.91797,64.12012-142.91797,142.93457
			s64.1123,142.93457,142.91797,142.93457c78.81445,0,142.93457-64.12012,142.93457-142.93457
			S245.81543,23.89844,167.00098,23.89844z M167.00098,296.15527c-71.30859,0-129.32227-58.01367-129.32227-129.32227
			c0-71.30811,58.01367-129.32178,129.32227-129.32178c71.30762,0,129.32129,58.01367,129.32129,129.32178
			C296.32227,238.1416,238.30859,296.15527,167.00098,296.15527z"/>
		<path fill="#818181" d="M334,38.02808V16.79761C328.70483,10.90967,323.10547,5.30164,317.22363,0h-21.20117
			C310.23364,11.01562,323.00244,23.80249,334,38.02808z"/>
		<path fill="#818181" d="M334,90.17346V61.72778C318.29785,36.8678,297.20581,15.7406,272.37256,0H244.0166
			C283.6665,18.3772,315.70532,50.47791,334,90.17346z"/>
		<path fill="#818181" d="M167.00098,51.12451c-63.80273,0-115.70898,51.90625-115.70898,115.7085
			s51.90625,115.70898,115.70898,115.70898c63.80176,0,115.70801-51.90674,115.70801-115.70898
			S230.80273,51.12451,167.00098,51.12451z M167.00098,268.9292c-56.2959,0-102.09668-45.80029-102.09668-102.09619
			S110.70508,64.73682,167.00098,64.73682s102.0957,45.80029,102.0957,102.09619S223.29688,268.9292,167.00098,268.9292z"/>
		<path fill="#818181" d="M334,316.86841v-21.23022C322.89062,310.00854,309.97266,322.90894,295.5874,334h21.25977
			C322.86572,328.59937,328.59277,322.8811,334,316.86841z"/>
		<path fill="#818181" d="M334,271.93848v-28.44629C315.59497,283.42688,283.28174,315.67883,243.30054,334h28.53784
			C296.90259,318.22461,318.18579,296.97595,334,271.93848z"/>
		<path fill="#818181" d="M0,243.45972v28.45642C15.81421,296.96326,37.10083,318.21997,62.17041,334h28.53613
			C50.71826,315.67383,18.40088,283.40942,0,243.45972z"/>
		<path fill="#818181" d="M167,105.57568c-33.77734,0-61.25684,27.47998-61.25684,61.25732S133.22266,228.09033,167,228.09033
			s61.25781-27.47998,61.25781-61.25732S200.77734,105.57568,167,105.57568z M167,214.47803
			c-26.27148,0-47.64453-21.37354-47.64453-47.64502S140.72852,119.18799,167,119.18799s47.64551,21.37354,47.64551,47.64502
			S193.27148,214.47803,167,214.47803z"/>
		<path fill="#818181" d="M167,132.80127c-18.76465,0-34.03125,15.2666-34.03125,34.03174S148.23535,200.86475,167,200.86475
			c18.76562,0,34.03223-15.2666,34.03223-34.03174S185.76562,132.80127,167,132.80127z M167,187.25244
			c-11.25879,0-20.41895-9.16016-20.41895-20.41943S155.74121,146.41357,167,146.41357
			c11.25977,0,20.41992,9.16016,20.41992,20.41943S178.25977,187.25244,167,187.25244z"/>
		<path fill="#818181" d="M0,295.62109v21.23254C5.41089,322.87158,11.1416,328.59497,17.16455,334h21.25781
			C24.03296,322.90454,11.11133,309.99829,0,295.62109z"/>
		<path fill="#818181" d="M37.98755,0H16.78833C10.90186,5.30603,5.29858,10.91907,0,16.81238v21.23279
			C10.99976,23.81262,23.77197,11.02002,37.98755,0z"/>
		<circle fill="#818181" cx="167.00024" cy="166.83301" r="6.80615"/>
		<path fill="#818181" d="M167.00098,78.3501c-48.79004,0-88.4834,39.69336-88.4834,88.48291s39.69336,88.48291,88.4834,88.48291
			c48.78906,0,88.48242-39.69336,88.48242-88.48291S215.79004,78.3501,167.00098,78.3501z M167,241.70361
			c-41.2832,0-74.87012-33.58691-74.87012-74.87061S125.7168,91.9624,167,91.9624c41.28418,0,74.87109,33.58691,74.87109,74.87061
			S208.28418,241.70361,167,241.70361z"/>
		<path fill="#7E7E7E" d="M167,146.41357c-11.25879,0-20.41895,9.16016-20.41895,20.41943S155.74121,187.25244,167,187.25244
			c11.25977,0,20.41992-9.16016,20.41992-20.41943S178.25977,146.41357,167,146.41357z M167,173.63916
			c-3.75293,0-6.80566-3.05322-6.80566-6.80615s3.05273-6.80615,6.80566-6.80615s6.80664,3.05322,6.80664,6.80615
			S170.75293,173.63916,167,173.63916z"/>
		<path fill="#7E7E7E" d="M167,119.18799c-26.27148,0-47.64453,21.37354-47.64453,47.64502S140.72852,214.47803,167,214.47803
			s47.64551-21.37354,47.64551-47.64502S193.27148,119.18799,167,119.18799z M167,200.86475
			c-18.76465,0-34.03125-15.2666-34.03125-34.03174S148.23535,132.80127,167,132.80127
			c18.76562,0,34.03223,15.2666,34.03223,34.03174S185.76562,200.86475,167,200.86475z"/>
		<path fill="#7E7E7E" d="M167,91.9624c-41.2832,0-74.87012,33.58691-74.87012,74.87061S125.7168,241.70361,167,241.70361
			c41.28418,0,74.87109-33.58691,74.87109-74.87061S208.28418,91.9624,167,91.9624z M167,228.09033
			c-33.77734,0-61.25684-27.47998-61.25684-61.25732S133.22266,105.57568,167,105.57568s61.25781,27.47998,61.25781,61.25732
			S200.77734,228.09033,167,228.09033z"/>
		<path fill="#7E7E7E" d="M167.00098,64.73682c-56.2959,0-102.09668,45.80029-102.09668,102.09619
			S110.70508,268.9292,167.00098,268.9292s102.0957-45.80029,102.0957-102.09619S223.29688,64.73682,167.00098,64.73682z
			 M167.00098,255.31592c-48.79004,0-88.4834-39.69336-88.4834-88.48291s39.69336-88.48291,88.4834-88.48291
			c48.78906,0,88.48242,39.69336,88.48242,88.48291S215.79004,255.31592,167.00098,255.31592z"/>
		<path fill="#7E7E7E" d="M167.00098,37.51123c-71.30859,0-129.32227,58.01367-129.32227,129.32178
			c0,71.30859,58.01367,129.32227,129.32227,129.32227c71.30762,0,129.32129-58.01367,129.32129-129.32227
			C296.32227,95.5249,238.30859,37.51123,167.00098,37.51123z M167.00098,282.54199
			c-63.80273,0-115.70898-51.90674-115.70898-115.70898s51.90625-115.7085,115.70898-115.7085
			c63.80176,0,115.70801,51.90625,115.70801,115.7085S230.80273,282.54199,167.00098,282.54199z"/>
		<path fill="#7E7E7E" d="M167.00098,10.28516c-86.31152,0-156.53125,70.22705-156.53125,156.54785
			s70.21973,156.54785,156.53125,156.54785c86.32031,0,156.54785-70.22705,156.54785-156.54785
			S253.32129,10.28516,167.00098,10.28516z M167.00098,309.76758c-78.80566,0-142.91797-64.12012-142.91797-142.93457
			S88.19531,23.89844,167.00098,23.89844c78.81445,0,142.93457,64.12012,142.93457,142.93457
			S245.81543,309.76758,167.00098,309.76758z"/>
		<path fill="#7E7E7E" d="M0,199.42053v44.03918C18.40088,283.40942,50.71826,315.67383,90.70654,334h44.49561
			C67.09839,321.07031,13.24194,267.4209,0,199.42053z"/>
		<path fill="#7E7E7E" d="M334,134.1604V90.17346C315.70532,50.47791,283.6665,18.3772,244.0166,0h-43.47461
			C267.80103,13.50049,320.8418,66.77991,334,134.1604z"/>
		<path fill="#7E7E7E" d="M133.46143,0h-43.4707C50.3335,18.38232,18.29053,50.49536,0,90.20605v44.03931
			C13.12891,66.82483,66.18091,13.5061,133.46143,0z"/>
		<path fill="#7E7E7E" d="M334,243.49219v-43.98657C320.72852,267.46558,266.88354,321.07581,198.80103,334h44.49951
			C283.28174,315.67883,315.59497,283.42688,334,243.49219z"/>
		<path fill="#7E7E7E" d="M0,271.91614v23.70496C11.11133,309.99829,24.03296,322.90454,38.42236,334h23.74805
			C37.10083,318.21997,15.81421,296.96326,0,271.91614z"/>
		<path fill="#7E7E7E" d="M334,295.63818v-23.69971C318.18579,296.97595,296.90259,318.22461,271.83838,334h23.74902
			C309.97266,322.90894,322.89062,310.00854,334,295.63818z"/>
		<path fill="#7E7E7E" d="M61.63623,0H37.98755C23.77197,11.02002,10.99976,23.81262,0,38.04517V61.75
			C15.70215,36.88049,36.79761,15.74536,61.63623,0z"/>
		<path fill="#7E7E7E" d="M334,61.72778V38.02808C323.00244,23.80249,310.23364,11.01562,296.02246,0h-23.6499
			C297.20581,15.7406,318.29785,36.8678,334,61.72778z"/>
		<path fill="#7E7E7E" d="M334,316.86841c-5.40723,6.0127-11.13428,11.73096-17.15283,17.13159H334V316.86841z"/>
		<path fill="#7E7E7E" d="M334,16.79761V0h-16.77637C323.10547,5.30164,328.70483,10.90967,334,16.79761z"/>
		<path fill="#7E7E7E" d="M0,316.85364V334h17.16455C11.1416,328.59497,5.41089,322.87158,0,316.85364z"/>
		<path fill="#7E7E7E" d="M16.78833,0H0v16.81238C5.29858,10.91907,10.90186,5.30603,16.78833,0z"/>
	</g>
</g>
<g id="Layer_3" display="none">
</g>
<g id="Layer_2" display="none">
</g>
</svg>
