<?xml version="1.0" encoding="utf-8"?>
<!-- Generator: Adobe Illustrator 21.1.0, SVG Export Plug-In . SVG Version: 6.00 Build 0)  -->
<svg version="1.2" baseProfile="tiny" xmlns="http://www.w3.org/2000/svg" xmlns:xlink="http://www.w3.org/1999/xlink" x="0px"
	 y="0px" viewBox="0 0 334 334" xml:space="preserve">
<g id="Layer_1">
	<g>
		<path fill="#9B9B9B" d="M167.03271,96.57324c-39.11914,0-70.94531,31.81836-70.94531,70.92773
			c0,39.11035,31.82617,70.92871,70.94531,70.92871c39.11035,0,70.9292-31.81836,70.9292-70.92871
			C237.96191,128.3916,206.14307,96.57324,167.03271,96.57324z M167.01611,233.55371
			c-36.41162,0-66.03467-29.63086-66.03467-66.05273c0-36.41992,29.62305-66.05078,66.03467-66.05078
			c36.4209,0,66.05127,29.63086,66.05127,66.05078C233.06738,203.92285,203.43701,233.55371,167.01611,233.55371z"/>
		<path fill="#9B9B9B" d="M92.20032,0H80.93329C46.37402,17.83252,18.01666,46.05371,0,80.50464v11.08594
			C18.53168,50.98267,51.44958,18.26929,92.20032,0z"/>
		<path fill="#9B9B9B" d="M167.04932,47.65039c-66.08643,0-119.85156,53.76465-119.85156,119.85059
			c0,66.08691,53.76514,119.85156,119.85156,119.85156s119.85156-53.76465,119.85156-119.85156
			C286.90088,101.41504,233.13574,47.65039,167.04932,47.65039z M167.0498,282.45898
			c-63.39697,0-114.97412-51.57031-114.97412-114.95801S103.65283,52.54395,167.0498,52.54395
			c63.3877,0,114.95703,51.56934,114.95703,114.95703S230.4375,282.45898,167.0498,282.45898z"/>
		<path fill="#9B9B9B" d="M167.0498,57.43848c-60.69873,0-110.08057,49.37402-110.08057,110.0625
			c0,60.68945,49.38184,110.06348,110.08057,110.06348c60.68896,0,110.06348-49.37402,110.06348-110.06348
			C277.11328,106.8125,227.73877,57.43848,167.0498,57.43848z M167.03271,272.68848
			c-57.99023,0-105.16895-47.1875-105.16895-105.1875c0-57.99902,47.17871-105.18555,105.16895-105.18555
			c58,0,105.18604,47.18652,105.18604,105.18555C272.21875,225.50098,225.03271,272.68848,167.03271,272.68848z"/>
		<path fill="#9B9B9B" d="M167.06592,8.51562c-87.67432,0-159.00293,71.32031-159.00293,158.98535
			S79.3916,326.4873,167.06592,326.4873c87.66553,0,158.98682-71.32129,158.98682-158.98633S254.73145,8.51562,167.06592,8.51562z
			 M167.06592,321.59375c-84.97559,0-154.1084-69.12598-154.1084-154.09277s69.13281-154.0918,154.1084-154.0918
			c84.9668,0,154.09229,69.125,154.09229,154.0918S252.03271,321.59375,167.06592,321.59375z"/>
		<path fill="#9B9B9B" d="M334,191.92725v-48.85229C323.11084,68.29175,263.00854,9.25684,187.71533,0h-41.43164
			C70.99213,9.25684,10.8905,68.29004,0,143.07129v48.85938C10.5545,264.40527,67.33246,322.0835,139.36218,334h55.27478
			C266.66821,322.08325,323.44678,264.40332,334,191.92725z M167.06592,331.38184
			c-90.37305,0-163.89648-73.5166-163.89648-163.88086c0-90.36328,73.52344-163.87988,163.89648-163.87988
			c90.36426,0,163.88037,73.5166,163.88037,163.87988C330.94629,257.86523,257.43018,331.38184,167.06592,331.38184z"/>
		<path fill="#9B9B9B" d="M52.43256,0h-8.43018C27.24817,12.3374,12.40186,27.1189,0,43.82251v8.38574
			C14.14783,31.77979,31.93896,14.06104,52.43256,0z"/>
		<path fill="#9B9B9B" d="M167.03271,76.99707c-49.9043,0-90.50439,40.59961-90.50439,90.50391s40.6001,90.50488,90.50439,90.50488
			s90.50488-40.60059,90.50488-90.50488S216.93701,76.99707,167.03271,76.99707z M167.03271,253.1123
			c-47.20557,0-85.60986-38.40527-85.60986-85.61133c0-47.20508,38.4043-85.61035,85.60986-85.61035
			s85.61035,38.40527,85.61035,85.61035C252.64307,214.70703,214.23828,253.1123,167.03271,253.1123z"/>
		<path fill="#9B9B9B" d="M70.72205,0h-9.40436C36.68665,15.59546,15.71057,36.4624,0,61.01221v9.37988
			C17.0249,41.22192,41.46313,16.88599,70.72205,0z"/>
		<path fill="#9B9B9B" d="M167.03271,86.78516c-44.50684,0-80.71631,36.20898-80.71631,80.71582
			c0,44.50781,36.20947,80.7168,80.71631,80.7168c44.50732,0,80.7168-36.20898,80.7168-80.7168
			C247.74951,122.99414,211.54004,86.78516,167.03271,86.78516z M167.03271,243.32422
			c-41.81787,0-75.83887-34.01465-75.83887-75.82324s34.021-75.82227,75.83887-75.82227
			c41.80908,0,75.82275,34.01367,75.82275,75.82227S208.8418,243.32422,167.03271,243.32422z"/>
		<path fill="#9B9B9B" d="M167.03271,67.20996c-55.29199,0-100.27539,44.99023-100.27539,100.29102
			c0,55.30176,44.9834,100.29297,100.27539,100.29297c55.30127,0,100.29248-44.99121,100.29248-100.29297
			C267.3252,112.2002,222.33398,67.20996,167.03271,67.20996z M167.03271,262.90039c-52.60254,0-95.39795-42.7959-95.39795-95.39941
			c0-52.60254,42.79541-95.39844,95.39795-95.39844c52.60303,0,95.39844,42.7959,95.39844,95.39844
			C262.43115,220.10449,219.63574,262.90039,167.03271,262.90039z"/>
		<path fill="#9B9B9B" d="M167.01611,145.49609c-12.14307,0-22.02246,9.87109-22.02246,22.00488s9.87939,22.00586,22.02246,22.00586
			c12.13428,0,22.00635-9.87207,22.00635-22.00586S179.15039,145.49609,167.01611,145.49609z M166.99951,184.63086
			c-9.43555,0-17.11182-7.68457-17.11182-17.12988c0-9.44434,7.67627-17.12891,17.11182-17.12891
			c9.44482,0,17.12891,7.68457,17.12891,17.12891C184.12842,176.94629,176.44434,184.63086,166.99951,184.63086z"/>
		<path fill="#9B9B9B" d="M121.10455,0h-15.98297C56.79907,17.90845,18.27899,56.1626,0,104.30542v15.47607
			C16.61743,61.71118,62.77863,15.99951,121.10455,0z"/>
		<path fill="#9B9B9B" d="M0,243.41162v11.08594C17.685,288.31445,45.33765,316.12158,79.03546,334h10.98077
			C50.27521,315.55127,18.19904,283.29053,0,243.41162z"/>
		<path fill="#9B9B9B" d="M167.06592,18.30371c-82.27734,0-149.21484,66.92969-149.21484,149.19727
			c0,82.26855,66.9375,149.19824,149.21484,149.19824c82.26855,0,149.19873-66.92969,149.19873-149.19824
			C316.26465,85.2334,249.33447,18.30371,167.06592,18.30371z M167.04932,311.82324
			c-79.56934,0-144.30371-64.74316-144.30371-144.32227S87.47998,23.17969,167.04932,23.17969
			c79.5791,0,144.32129,64.74219,144.32129,144.32129S246.62842,311.82324,167.04932,311.82324z"/>
		<path fill="#9B9B9B" d="M0,215.22046v15.47656C17.94556,277.96191,55.40155,315.69287,102.48834,334h15.10852
			C60.93219,317.15649,16.28284,272.12183,0,215.22046z"/>
		<path fill="#9B9B9B" d="M167.04932,37.8623c-71.4834,0-129.63916,58.15527-129.63916,129.63867
			s58.15576,129.63965,129.63916,129.63965s129.63965-58.15625,129.63965-129.63965S238.53271,37.8623,167.04932,37.8623z
			 M167.04932,292.24707c-68.78467,0-124.74512-55.96094-124.74512-124.74609c0-68.78418,55.96045-124.74512,124.74512-124.74512
			S291.79443,98.7168,291.79443,167.50098C291.79443,236.28613,235.83398,292.24707,167.04932,292.24707z"/>
		<path fill="#9B9B9B" d="M0,264.61011v9.37988C15.37524,298.01587,35.79156,318.51733,59.74323,334h9.28485
			C40.52222,317.15918,16.69403,293.21362,0,264.61011z"/>
		<path fill="#9B9B9B" d="M166.99951,155.2666c-6.7373,0-12.21826,5.48828-12.21826,12.23438
			c0,6.74707,5.48096,12.23535,12.21826,12.23535c6.74658,0,12.23535-5.48828,12.23535-12.23535
			C179.23486,160.75488,173.74609,155.2666,166.99951,155.2666z M166.99951,174.84277c-4.04736,0-7.34033-3.29395-7.34033-7.3418
			s3.29297-7.34082,7.34033-7.34082c4.04785,0,7.34082,3.29297,7.34082,7.34082S171.04736,174.84277,166.99951,174.84277z"/>
		<path fill="#9B9B9B" d="M167.04932,28.07422c-76.87109,0-139.41016,62.54688-139.41016,139.42676
			c0,76.88086,62.53906,139.42773,139.41016,139.42773c76.88086,0,139.42773-62.54688,139.42773-139.42773
			C306.47705,90.62109,243.93018,28.07422,167.04932,28.07422z M167.04932,302.03516
			c-74.18164,0-134.53271-60.35156-134.53271-134.53418c0-74.18164,60.35107-134.5332,134.53271-134.5332
			c74.18213,0,134.5332,60.35156,134.5332,134.5332C301.58252,241.68359,241.23145,302.03516,167.04932,302.03516z"/>
		<circle fill="#9B9B9B" cx="166.99963" cy="167.50122" r="2.4469"/>
		<path fill="#9B9B9B" d="M167.01611,135.70801c-17.53125,0-31.79395,14.26172-31.79395,31.79297
			s14.2627,31.79395,31.79395,31.79395s31.79443-14.2627,31.79443-31.79395S184.54736,135.70801,167.01611,135.70801z
			 M167.01611,194.40137c-14.8418,0-26.91602-12.06738-26.91602-26.90039c0-14.83203,12.07422-26.89941,26.91602-26.89941
			c14.83252,0,26.8999,12.06738,26.8999,26.89941C193.91602,182.33398,181.84863,194.40137,167.01611,194.40137z"/>
		<path fill="#9B9B9B" d="M0,314.4751v7.28662C3.91077,325.99316,7.98035,330.07471,12.19824,334h7.2608
			C12.57971,327.89624,6.0799,321.37598,0,314.4751z"/>
		<path fill="#9B9B9B" d="M167.01611,106.34473c-33.71338,0-61.14111,27.43457-61.14111,61.15625
			c0,33.72266,27.42773,61.1582,61.14111,61.1582c33.72217,0,61.15771-27.43555,61.15771-61.1582
			C228.17383,133.7793,200.73828,106.34473,167.01611,106.34473z M167.01611,223.76562
			c-31.02393,0-56.26318-25.24023-56.26318-56.26465c0-31.02344,25.23926-56.26367,56.26318-56.26367
			s56.26367,25.24023,56.26367,56.26367C223.27979,198.52539,198.04004,223.76562,167.01611,223.76562z"/>
		<path fill="#9B9B9B" d="M0,328.88452V334h5.10242C3.37604,332.32031,1.67383,330.61646,0,328.88452z"/>
		<path fill="#9B9B9B" d="M167.01611,125.91992c-22.92822,0-41.58154,18.65332-41.58154,41.58105
			c0,22.92871,18.65332,41.58203,41.58154,41.58203s41.58203-18.65332,41.58203-41.58203
			C208.59814,144.57324,189.94434,125.91992,167.01611,125.91992z M167.01611,204.18945
			c-20.22949,0-36.6875-16.45898-36.6875-36.68848s16.45801-36.6875,36.6875-36.6875c20.22998,0,36.68799,16.45801,36.68799,36.6875
			S187.24609,204.18945,167.01611,204.18945z"/>
		<path fill="#9B9B9B" d="M0,299.22607v7.74341C8.17572,316.74365,17.19244,325.78906,26.93628,334h7.71246
			C21.8125,323.77393,10.17737,312.10254,0,299.22607z"/>
		<path fill="#9B9B9B" d="M0,282.79443v8.38525C12.06451,307.4292,26.43506,321.8689,42.63214,334h8.35474
			C31.10181,320.10278,13.8139,302.74072,0,282.79443z"/>
		<path fill="#9B9B9B" d="M167.01611,116.13184c-28.3252,0-51.36963,23.04395-51.36963,51.36914
			c0,28.32617,23.04443,51.37012,51.36963,51.37012c28.32568,0,51.37012-23.04395,51.37012-51.37012
			C218.38623,139.17578,195.3418,116.13184,167.01611,116.13184z M167.01611,213.97754
			c-25.62646,0-46.4751-20.84961-46.4751-46.47656s20.84863-46.47559,46.4751-46.47559
			c25.62695,0,46.47559,20.84863,46.47559,46.47559S192.64307,213.97754,167.01611,213.97754z"/>
		<path fill="#9B9B9B" d="M35.90198,0h-7.78009C17.92078,8.47339,8.50787,17.86182,0,28.0332v7.74316
			C10.50916,22.47998,22.56653,10.46143,35.90198,0z"/>
		<path fill="#9B9B9B" d="M334,328.92993c-1.65967,1.71631-3.34692,3.40527-5.05835,5.07007H334V328.92993z"/>
		<path fill="#9B9B9B" d="M334,307.00806v-7.7417c-10.16968,12.8606-21.79358,24.51831-34.61621,34.73364h7.71265
			C316.82739,325.80005,325.83289,316.76758,334,307.00806z"/>
		<path fill="#9B9B9B" d="M334,321.80957v-7.29761c-6.07056,6.88721-12.55933,13.39526-19.42639,19.48804h7.27197
			C326.04785,330.0896,330.10254,326.02417,334,321.80957z"/>
		<path fill="#9B9B9B" d="M334,20.49023v-7.29712C329.76953,8.61841,325.35718,4.21533,320.76855,0h-7.32446
			C320.73145,6.37842,327.59656,13.22559,334,20.49023z"/>
		<path fill="#9B9B9B" d="M334,254.52441v-11.11377C315.80103,283.29004,283.72461,315.55103,243.98315,334h10.98828
			C288.66333,316.12646,316.31274,288.3291,334,254.52441z"/>
		<path fill="#9B9B9B" d="M20.5885,0h-7.31329C8.67078,4.23022,4.24371,8.64941,0,13.24121v7.28589
			C6.41272,13.24854,13.28894,6.38916,20.5885,0z"/>
		<path fill="#9B9B9B" d="M334,6.07227V0h-6.08484C329.98145,1.9856,332.00781,4.01221,334,6.07227z"/>
		<path fill="#9B9B9B" d="M334,291.22437v-8.40283c-13.80969,19.93506-31.0896,37.2876-50.96411,51.17847h8.3645
			C307.58276,321.87988,321.94226,307.45581,334,291.22437z"/>
		<path fill="#9B9B9B" d="M334,274.01978v-9.38647c-16.69482,28.59326-40.51965,52.53052-69.02026,69.3667h9.30054
			C298.22021,318.52393,318.62817,298.03296,334,274.01978z"/>
		<path fill="#9B9B9B" d="M334,91.59155V80.47778C315.98096,46.03906,287.62695,17.82788,253.07349,0h-11.27441
			C282.55029,18.26953,315.46851,50.9834,334,91.59155z"/>
		<path fill="#9B9B9B" d="M334,70.36865v-9.38623C318.29272,36.44556,297.32495,15.58936,272.70593,0h-9.42029
			C292.53931,16.88135,316.97412,41.20898,334,70.36865z"/>
		<path fill="#9B9B9B" d="M6.12891,0H0v6.11792C2.00623,4.04199,4.04736,2.00049,6.12891,0z"/>
		<path fill="#9B9B9B" d="M334,230.69556v-15.47681C317.71753,272.12085,273.06763,317.15625,216.40222,334h15.10852
			C278.59814,315.69287,316.05457,277.96094,334,230.69556z"/>
		<path fill="#9B9B9B" d="M334,52.18115v-8.40332C321.60474,27.09229,306.76953,12.32642,290.03027,0h-8.43994
			C302.07324,14.05469,319.85632,31.76416,334,52.18115z"/>
		<path fill="#9B9B9B" d="M334,119.78345v-15.47656C315.72119,56.16357,277.20056,17.90869,228.87744,0h-15.98291
			C271.22119,15.99976,317.38281,61.71216,334,119.78345z"/>
		<path fill="#9B9B9B" d="M334,35.73584v-7.74121C325.50061,17.83813,316.09888,8.46265,305.91077,0h-7.7804
			C311.45239,10.45093,323.49841,22.45581,334,35.73584z"/>
		<path fill="#646464" d="M166.99951,160.16016c-4.04736,0-7.34033,3.29297-7.34033,7.34082s3.29297,7.3418,7.34033,7.3418
			c4.04785,0,7.34082-3.29395,7.34082-7.3418S171.04736,160.16016,166.99951,160.16016z M166.99951,169.94824
			c-1.34912,0-2.44678-1.09766-2.44678-2.44727c0-1.34863,1.09766-2.44629,2.44678-2.44629s2.44727,1.09766,2.44727,2.44629
			C169.44678,168.85059,168.34863,169.94824,166.99951,169.94824z"/>
		<path fill="#646464" d="M166.99951,150.37207c-9.43555,0-17.11182,7.68457-17.11182,17.12891
			c0,9.44531,7.67627,17.12988,17.11182,17.12988c9.44482,0,17.12891-7.68457,17.12891-17.12988
			C184.12842,158.05664,176.44434,150.37207,166.99951,150.37207z M166.99951,179.73633
			c-6.7373,0-12.21826-5.48828-12.21826-12.23535c0-6.74609,5.48096-12.23438,12.21826-12.23438
			c6.74658,0,12.23535,5.48828,12.23535,12.23438C179.23486,174.24805,173.74609,179.73633,166.99951,179.73633z"/>
		<path fill="#646464" d="M167.01611,140.60156c-14.8418,0-26.91602,12.06738-26.91602,26.89941
			c0,14.83301,12.07422,26.90039,26.91602,26.90039c14.83252,0,26.8999-12.06738,26.8999-26.90039
			C193.91602,152.66895,181.84863,140.60156,167.01611,140.60156z M167.01611,189.50684
			c-12.14307,0-22.02246-9.87207-22.02246-22.00586s9.87939-22.00488,22.02246-22.00488
			c12.13428,0,22.00635,9.87109,22.00635,22.00488S179.15039,189.50684,167.01611,189.50684z"/>
		<path fill="#646464" d="M167.01611,130.81348c-20.22949,0-36.6875,16.45801-36.6875,36.6875s16.45801,36.68848,36.6875,36.68848
			c20.22998,0,36.68799-16.45898,36.68799-36.68848S187.24609,130.81348,167.01611,130.81348z M167.01611,199.29492
			c-17.53125,0-31.79395-14.2627-31.79395-31.79395s14.2627-31.79297,31.79395-31.79297s31.79443,14.26172,31.79443,31.79297
			S184.54736,199.29492,167.01611,199.29492z"/>
		<path fill="#646464" d="M167.01611,121.02539c-25.62646,0-46.4751,20.84863-46.4751,46.47559s20.84863,46.47656,46.4751,46.47656
			c25.62695,0,46.47559-20.84961,46.47559-46.47656S192.64307,121.02539,167.01611,121.02539z M167.01611,209.08301
			c-22.92822,0-41.58154-18.65332-41.58154-41.58203c0-22.92773,18.65332-41.58105,41.58154-41.58105
			s41.58203,18.65332,41.58203,41.58105C208.59814,190.42969,189.94434,209.08301,167.01611,209.08301z"/>
		<path fill="#646464" d="M167.01611,111.2373c-31.02393,0-56.26318,25.24023-56.26318,56.26367
			c0,31.02441,25.23926,56.26465,56.26318,56.26465s56.26367-25.24023,56.26367-56.26465
			C223.27979,136.47754,198.04004,111.2373,167.01611,111.2373z M167.01611,218.87109
			c-28.3252,0-51.36963-23.04395-51.36963-51.37012c0-28.3252,23.04443-51.36914,51.36963-51.36914
			c28.32568,0,51.37012,23.04395,51.37012,51.36914C218.38623,195.82715,195.3418,218.87109,167.01611,218.87109z"/>
		<path fill="#646464" d="M167.01611,101.4502c-36.41162,0-66.03467,29.63086-66.03467,66.05078
			c0,36.42188,29.62305,66.05273,66.03467,66.05273c36.4209,0,66.05127-29.63086,66.05127-66.05273
			C233.06738,131.08105,203.43701,101.4502,167.01611,101.4502z M167.01611,228.65918
			c-33.71338,0-61.14111-27.43555-61.14111-61.1582c0-33.72168,27.42773-61.15625,61.14111-61.15625
			c33.72217,0,61.15771,27.43457,61.15771,61.15625C228.17383,201.22363,200.73828,228.65918,167.01611,228.65918z"/>
		<path fill="#646464" d="M167.03271,91.67871c-41.81787,0-75.83887,34.01367-75.83887,75.82227s34.021,75.82324,75.83887,75.82324
			c41.80908,0,75.82275-34.01465,75.82275-75.82324S208.8418,91.67871,167.03271,91.67871z M167.03271,238.42969
			c-39.11914,0-70.94531-31.81836-70.94531-70.92871c0-39.10938,31.82617-70.92773,70.94531-70.92773
			c39.11035,0,70.9292,31.81836,70.9292,70.92773C237.96191,206.61133,206.14307,238.42969,167.03271,238.42969z"/>
		<path fill="#646464" d="M167.03271,81.89062c-47.20557,0-85.60986,38.40527-85.60986,85.61035
			c0,47.20605,38.4043,85.61133,85.60986,85.61133s85.61035-38.40527,85.61035-85.61133
			C252.64307,120.2959,214.23828,81.89062,167.03271,81.89062z M167.03271,248.21777
			c-44.50684,0-80.71631-36.20898-80.71631-80.7168c0-44.50684,36.20947-80.71582,80.71631-80.71582
			c44.50732,0,80.7168,36.20898,80.7168,80.71582C247.74951,212.00879,211.54004,248.21777,167.03271,248.21777z"/>
		<path fill="#646464" d="M167.03271,72.10254c-52.60254,0-95.39795,42.7959-95.39795,95.39844
			c0,52.60352,42.79541,95.39941,95.39795,95.39941c52.60303,0,95.39844-42.7959,95.39844-95.39941
			C262.43115,114.89844,219.63574,72.10254,167.03271,72.10254z M167.03271,258.00586
			c-49.9043,0-90.50439-40.60059-90.50439-90.50488s40.6001-90.50391,90.50439-90.50391s90.50488,40.59961,90.50488,90.50391
			S216.93701,258.00586,167.03271,258.00586z"/>
		<path fill="#646464" d="M167.03271,62.31543c-57.99023,0-105.16895,47.18652-105.16895,105.18555
			c0,58,47.17871,105.1875,105.16895,105.1875c58,0,105.18604-47.1875,105.18604-105.1875
			C272.21875,109.50195,225.03271,62.31543,167.03271,62.31543z M167.03271,267.79395
			c-55.29199,0-100.27539-44.99121-100.27539-100.29297c0-55.30078,44.9834-100.29102,100.27539-100.29102
			c55.30127,0,100.29248,44.99023,100.29248,100.29102C267.3252,222.80273,222.33398,267.79395,167.03271,267.79395z"/>
		<path fill="#646464" d="M167.0498,52.54395c-63.39697,0-114.97412,51.56934-114.97412,114.95703
			s51.57715,114.95801,114.97412,114.95801c63.3877,0,114.95703-51.57031,114.95703-114.95801S230.4375,52.54395,167.0498,52.54395z
			 M167.0498,277.56445c-60.69873,0-110.08057-49.37402-110.08057-110.06348c0-60.68848,49.38184-110.0625,110.08057-110.0625
			c60.68896,0,110.06348,49.37402,110.06348,110.0625C277.11328,228.19043,227.73877,277.56445,167.0498,277.56445z"/>
		<path fill="#646464" d="M167.04932,42.75586c-68.78467,0-124.74512,55.96094-124.74512,124.74512
			c0,68.78516,55.96045,124.74609,124.74512,124.74609s124.74512-55.96094,124.74512-124.74609
			C291.79443,98.7168,235.83398,42.75586,167.04932,42.75586z M167.04932,287.35254
			c-66.08643,0-119.85156-53.76465-119.85156-119.85156c0-66.08594,53.76514-119.85059,119.85156-119.85059
			s119.85156,53.76465,119.85156,119.85059C286.90088,233.58789,233.13574,287.35254,167.04932,287.35254z"/>
		<path fill="#646464" d="M167.04932,32.96777c-74.18164,0-134.53271,60.35156-134.53271,134.5332
			c0,74.18262,60.35107,134.53418,134.53271,134.53418c74.18213,0,134.5332-60.35156,134.5332-134.53418
			C301.58252,93.31934,241.23145,32.96777,167.04932,32.96777z M167.04932,297.14062
			c-71.4834,0-129.63916-58.15625-129.63916-129.63965S95.56592,37.8623,167.04932,37.8623s129.63965,58.15527,129.63965,129.63867
			S238.53271,297.14062,167.04932,297.14062z"/>
		<path fill="#646464" d="M167.04932,23.17969c-79.56934,0-144.30371,64.74219-144.30371,144.32129
			s64.73438,144.32227,144.30371,144.32227c79.5791,0,144.32129-64.74316,144.32129-144.32227
			S246.62842,23.17969,167.04932,23.17969z M167.04932,306.92871c-76.87109,0-139.41016-62.54688-139.41016-139.42773
			c0-76.87988,62.53906-139.42676,139.41016-139.42676c76.88086,0,139.42773,62.54688,139.42773,139.42676
			C306.47705,244.38184,243.93018,306.92871,167.04932,306.92871z"/>
		<path fill="#646464" d="M167.06592,13.40918c-84.97559,0-154.1084,69.125-154.1084,154.0918
			s69.13281,154.09277,154.1084,154.09277c84.9668,0,154.09229-69.12598,154.09229-154.09277S252.03271,13.40918,167.06592,13.40918
			z M167.06592,316.69922c-82.27734,0-149.21484-66.92969-149.21484-149.19824c0-82.26758,66.9375-149.19727,149.21484-149.19727
			c82.26855,0,149.19873,66.92969,149.19873,149.19727C316.26465,249.76953,249.33447,316.69922,167.06592,316.69922z"/>
		<path fill="#646464" d="M167.06592,3.62109c-90.37305,0-163.89648,73.5166-163.89648,163.87988
			c0,90.36426,73.52344,163.88086,163.89648,163.88086c90.36426,0,163.88037-73.5166,163.88037-163.88086
			C330.94629,77.1377,257.43018,3.62109,167.06592,3.62109z M167.06592,326.4873
			c-87.67432,0-159.00293-71.32129-159.00293-158.98633S79.3916,8.51562,167.06592,8.51562
			c87.66553,0,158.98682,71.32031,158.98682,158.98535S254.73145,326.4873,167.06592,326.4873z"/>
		<path fill="#646464" d="M334,215.21875v-23.2915C323.44678,264.40332,266.66821,322.08325,194.63696,334h21.76526
			C273.06763,317.15625,317.71753,272.12085,334,215.21875z"/>
		<path fill="#646464" d="M146.28369,0h-25.17914C62.77863,15.99951,16.61743,61.71118,0,119.78149v23.28979
			C10.8905,68.29004,70.99213,9.25684,146.28369,0z"/>
		<path fill="#646464" d="M334,143.07495v-23.2915C317.38281,61.71216,271.22119,15.99976,212.89453,0h-25.1792
			C263.00854,9.25684,323.11084,68.29175,334,143.07495z"/>
		<path fill="#646464" d="M0,191.93066v23.28979C16.28284,272.12183,60.93219,317.15649,117.59686,334h21.76532
			C67.33246,322.0835,10.5545,264.40527,0,191.93066z"/>
		<path fill="#646464" d="M334,243.41064v-12.71509C316.05457,277.96094,278.59814,315.69287,231.51074,334h12.47241
			C283.72461,315.55103,315.80103,283.29004,334,243.41064z"/>
		<path fill="#646464" d="M0,230.69702v12.7146C18.19904,283.29053,50.27521,315.55127,90.01624,334h12.47211
			C55.40155,315.69287,17.94556,277.96191,0,230.69702z"/>
		<path fill="#646464" d="M334,104.30688V91.59155C315.46851,50.9834,282.55029,18.26953,241.79907,0h-12.92163
			C277.20056,17.90869,315.72119,56.16357,334,104.30688z"/>
		<path fill="#646464" d="M105.12158,0H92.20032C51.44958,18.26929,18.53168,50.98267,0,91.59058v12.71484
			C18.27899,56.1626,56.79907,17.90845,105.12158,0z"/>
		<path fill="#646464" d="M334,264.6333v-10.10889C316.31274,288.3291,288.66333,316.12646,254.97144,334h10.0083
			C293.48035,317.16382,317.30518,293.22656,334,264.6333z"/>
		<path fill="#646464" d="M0,254.49756v10.11255C16.69403,293.21362,40.52222,317.15918,69.02808,334h10.00739
			C45.33765,316.12158,17.685,288.31445,0,254.49756z"/>
		<path fill="#646464" d="M80.93329,0H70.72205C41.46313,16.88599,17.0249,41.22192,0,70.39209v10.11255
			C18.01666,46.05371,46.37402,17.83252,80.93329,0z"/>
		<path fill="#646464" d="M334,80.47778V70.36865C316.97412,41.20898,292.53931,16.88135,263.28564,0h-10.21216
			C287.62695,17.82788,315.98096,46.03906,334,80.47778z"/>
		<path fill="#646464" d="M0,273.98999v8.80444C13.8139,302.74072,31.10181,320.10278,50.98688,334h8.75635
			C35.79156,318.51733,15.37524,298.01587,0,273.98999z"/>
		<path fill="#646464" d="M334,282.82153v-8.80176C318.62817,298.03296,298.22021,318.52393,274.28027,334h8.75562
			C302.9104,320.10913,320.19031,302.75659,334,282.82153z"/>
		<path fill="#646464" d="M61.31769,0h-8.88513C31.93896,14.06104,14.14783,31.77979,0,52.20825v8.80396
			C15.71057,36.4624,36.68665,15.59546,61.31769,0z"/>
		<path fill="#646464" d="M334,60.98242v-8.80127C319.85632,31.76416,302.07324,14.05469,281.59033,0h-8.8844
			C297.32495,15.58936,318.29272,36.44556,334,60.98242z"/>
		<path fill="#646464" d="M334,299.26636v-8.04199C321.94226,307.45581,307.58276,321.87988,291.40039,334h7.9834
			C312.20642,323.78467,323.83032,312.12695,334,299.26636z"/>
		<path fill="#646464" d="M44.00238,0h-8.1004C22.56653,10.46143,10.50916,22.47998,0,35.77637v8.04614
			C12.40186,27.1189,27.24817,12.3374,44.00238,0z"/>
		<path fill="#646464" d="M0,291.17969v8.04639C10.17737,312.10254,21.8125,323.77393,34.64874,334h7.9834
			C26.43506,321.8689,12.06451,307.4292,0,291.17969z"/>
		<path fill="#646464" d="M334,43.77783v-8.04199C323.49841,22.45581,311.45239,10.45093,298.13037,0h-8.1001
			C306.76953,12.32642,321.60474,27.09229,334,43.77783z"/>
		<path fill="#646464" d="M334,314.51196v-7.50391c-8.16711,9.75952-17.17261,18.79199-26.90356,26.99194h7.47717
			C321.44067,327.90723,327.92944,321.39917,334,314.51196z"/>
		<path fill="#646464" d="M334,27.99463v-7.50439C327.59656,13.22559,320.73145,6.37842,313.44409,0h-7.53333
			C316.09888,8.46265,325.50061,17.83813,334,27.99463z"/>
		<path fill="#646464" d="M28.12189,0H20.5885C13.28894,6.38916,6.41272,13.24854,0,20.5271v7.5061
			C8.50787,17.86182,17.92078,8.47339,28.12189,0z"/>
		<path fill="#646464" d="M0,306.96948v7.50562C6.0799,321.37598,12.57971,327.89624,19.45905,334h7.47723
			C17.19244,325.78906,8.17572,316.74365,0,306.96948z"/>
		<path fill="#646464" d="M334,328.92993v-7.12036c-3.89746,4.2146-7.95215,8.28003-12.15442,12.19043h7.09607
			C330.65308,332.33521,332.34033,330.64624,334,328.92993z"/>
		<path fill="#646464" d="M0,321.76172v7.1228c1.67383,1.73193,3.37604,3.43579,5.10242,5.11548h7.09583
			C7.98035,330.07471,3.91077,325.99316,0,321.76172z"/>
		<path fill="#646464" d="M13.27521,0h-7.1463C4.04736,2.00049,2.00623,4.04199,0,6.11792v7.12329
			C4.24371,8.64941,8.67078,4.23022,13.27521,0z"/>
		<path fill="#646464" d="M334,13.19312V6.07227C332.00781,4.01221,329.98145,1.9856,327.91516,0h-7.14661
			C325.35718,4.21533,329.76953,8.61841,334,13.19312z"/>
	</g>
</g>
<g id="Layer_3" display="none">
</g>
<g id="Layer_2" display="none">
</g>
</svg>
