<?xml version="1.0" encoding="utf-8"?>
<!-- Generator: Adobe Illustrator 21.1.0, SVG Export Plug-In . SVG Version: 6.00 Build 0)  -->
<svg version="1.2" baseProfile="tiny" xmlns="http://www.w3.org/2000/svg" xmlns:xlink="http://www.w3.org/1999/xlink" x="0px"
	 y="0px" viewBox="0 0 334 334" xml:space="preserve">
<g id="Layer_1">
	<g>
		<path fill="#838383" d="M290.94727,334H334v-42.53308C321.78613,307.63959,307.271,321.97791,290.94727,334z"/>
		<path fill="#838383" d="M42.15942,0H0v42.67529C11.9353,26.51056,26.14624,12.12689,42.15942,0z"/>
		<path fill="#838383" d="M334,203.46075v-74.5921C319.69263,65.02197,269.4668,14.59253,205.72681,0h-76.11353
			C63.68604,15.09479,12.21289,68.53412,0,135.50629v61.31677C12.71631,266.55536,67.99487,321.61761,137.83472,334h59.66968
			C265.11938,322.01331,319.08276,270.0293,334,203.46075z M167.66797,298.73535c-73.09961,0-132.57031-59.4707-132.57031-132.57074
			c0-73.09961,59.4707-132.57031,132.57031-132.57031S300.23926,93.065,300.23926,166.16461
			C300.23926,239.26465,240.76758,298.73535,167.66797,298.73535z"/>
		<path fill="#838383" d="M0,289.65442V334h44.39917C27.47021,321.53101,12.48877,306.5686,0,289.65442z"/>
		<path fill="#838383" d="M167.66797,147.22369c-10.43457,0-18.92383,8.49707-18.92383,18.94092
			c0,10.44427,8.48926,18.94135,18.92383,18.94135c10.44434,0,18.94141-8.49707,18.94141-18.94135
			C186.60938,155.72076,178.1123,147.22369,167.66797,147.22369z"/>
		<path fill="#838383" d="M167.66797,71.47614c-52.21094,0-94.6875,42.47705-94.6875,94.68848
			c0,52.21136,42.47656,94.6889,94.6875,94.6889c52.21191,0,94.68848-42.47754,94.68848-94.6889
			C262.35645,113.95319,219.87988,71.47614,167.66797,71.47614z M167.66797,222.98779
			c-31.32324,0-56.80664-25.49072-56.80664-56.82318c0-31.33203,25.4834-56.82275,56.80664-56.82275
			c31.33301,0,56.82422,25.49072,56.82422,56.82275C224.49219,197.49707,199.00098,222.98779,167.66797,222.98779z"/>
		<path fill="#838383" d="M334,40.86279V0h-40.81299C308.60107,11.67212,322.34741,25.43335,334,40.86279z"/>
		<path fill="#7C7C7C" d="M167.66797,109.34186c-31.32324,0-56.80664,25.49072-56.80664,56.82275
			c0,31.33246,25.4834,56.82318,56.80664,56.82318c31.33301,0,56.82422-25.49072,56.82422-56.82318
			C224.49219,134.83258,199.00098,109.34186,167.66797,109.34186z M167.66797,185.10596
			c-10.43457,0-18.92383-8.49707-18.92383-18.94135c0-10.44385,8.48926-18.94092,18.92383-18.94092
			c10.44434,0,18.94141,8.49707,18.94141,18.94092C186.60938,176.60889,178.1123,185.10596,167.66797,185.10596z"/>
		<path fill="#7C7C7C" d="M167.66797,33.5943c-73.09961,0-132.57031,59.4707-132.57031,132.57031
			c0,73.10004,59.4707,132.57074,132.57031,132.57074s132.57129-59.4707,132.57129-132.57074
			C300.23926,93.065,240.76758,33.5943,167.66797,33.5943z M167.66797,260.85352c-52.21094,0-94.6875-42.47754-94.6875-94.6889
			c0-52.21143,42.47656-94.68848,94.6875-94.68848c52.21191,0,94.68848,42.47705,94.68848,94.68848
			C262.35645,218.37598,219.87988,260.85352,167.66797,260.85352z"/>
		<path fill="#7C7C7C" d="M334,128.86865V40.86279C322.34741,25.43335,308.60107,11.67212,293.18701,0h-87.46021
			C269.4668,14.59253,319.69263,65.02197,334,128.86865z"/>
		<path fill="#7C7C7C" d="M334,291.46692v-88.00616C319.08276,270.0293,265.11938,322.01331,197.50439,334h93.44287
			C307.271,321.97791,321.78613,307.63959,334,291.46692z"/>
		<path fill="#7C7C7C" d="M0,196.82306v92.83136C12.48877,306.5686,27.47021,321.53101,44.39917,334h93.43555
			C67.99487,321.61761,12.71631,266.55536,0,196.82306z"/>
		<path fill="#7C7C7C" d="M129.61328,0H42.15942C26.14624,12.12689,11.9353,26.51056,0,42.67529v92.83099
			C12.21289,68.53412,63.68604,15.09479,129.61328,0z"/>
	</g>
</g>
<g id="Layer_3" display="none">
</g>
<g id="Layer_2" display="none">
</g>
</svg>
