<?xml version="1.0" encoding="utf-8"?>
<!-- Generator: Adobe Illustrator 21.1.0, SVG Export Plug-In . SVG Version: 6.00 Build 0)  -->
<svg version="1.2" baseProfile="tiny" xmlns="http://www.w3.org/2000/svg" xmlns:xlink="http://www.w3.org/1999/xlink" x="0px"
	 y="0px" viewBox="0 0 334 334" xml:space="preserve">
<g id="Layer_1">
	<g>
		<path fill="#FFFFFF" d="M167,147.22369c-10.43457,0-18.92432,8.49707-18.92432,18.94092
			c0,10.44427,8.48975,18.94135,18.92432,18.94135c10.44385,0,18.94092-8.49707,18.94092-18.94135
			C185.94092,155.72076,177.44385,147.22369,167,147.22369z"/>
		<path fill="#FFFFFF" d="M0,290.56903V334h43.73157C27.10651,321.75482,12.35223,307.11072,0,290.56903z"/>
		<path fill="#FFFFFF" d="M290.27832,334H334v-43.41266C321.64954,307.12164,306.89862,321.75934,290.27832,334z"/>
		<path fill="#FFFFFF" d="M167,71.47614c-52.21143,0-94.68848,42.47705-94.68848,94.68848
			c0,52.21136,42.47705,94.6889,94.68848,94.6889s94.68848-42.47754,94.68848-94.6889
			C261.68848,113.95319,219.21143,71.47614,167,71.47614z M167,222.98779c-31.32324,0-56.80615-25.49072-56.80615-56.82318
			c0-31.33203,25.48291-56.82275,56.80615-56.82275c31.33203,0,56.82275,25.49072,56.82275,56.82275
			C223.82275,197.49707,198.33203,222.98779,167,222.98779z"/>
		<path fill="#FFFFFF" d="M334,41.74237V0h-41.48175C308.22577,11.89453,322.20691,25.95441,334,41.74237z"/>
		<path fill="#FFFFFF" d="M334,200.38757v-68.44574C320.63806,66.64246,269.81879,14.82611,205.05859,0h-76.11346
			C64.16345,14.83252,13.33417,66.68732,0,132.02637v68.27667C13.89337,268.38251,68.49219,321.82422,137.16675,334h59.66943
			C265.48914,321.82928,320.07751,268.42688,334,200.38757z M167,298.73535c-73.09961,0-132.57031-59.4707-132.57031-132.57074
			C34.42969,93.065,93.90039,33.5943,167,33.5943S299.57031,93.065,299.57031,166.16461
			C299.57031,239.26465,240.09961,298.73535,167,298.73535z"/>
		<path fill="#FFFFFF" d="M41.49188,0H0v41.76068C11.79498,25.96533,25.77954,11.89911,41.49188,0z"/>
		<path d="M167,109.34186c-31.32324,0-56.80615,25.49072-56.80615,56.82275c0,31.33246,25.48291,56.82318,56.80615,56.82318
			c31.33203,0,56.82275-25.49072,56.82275-56.82318C223.82275,134.83258,198.33203,109.34186,167,109.34186z M167,185.10596
			c-10.43457,0-18.92432-8.49707-18.92432-18.94135c0-10.44385,8.48975-18.94092,18.92432-18.94092
			c10.44385,0,18.94092,8.49707,18.94092,18.94092C185.94092,176.60889,177.44385,185.10596,167,185.10596z"/>
		<path d="M167,33.5943c-73.09961,0-132.57031,59.4707-132.57031,132.57031c0,73.10004,59.4707,132.57074,132.57031,132.57074
			s132.57031-59.4707,132.57031-132.57074C299.57031,93.065,240.09961,33.5943,167,33.5943z M167,260.85352
			c-52.21143,0-94.68848-42.47754-94.68848-94.6889c0-52.21143,42.47705-94.68848,94.68848-94.68848
			s94.68848,42.47705,94.68848,94.68848C261.68848,218.37598,219.21143,260.85352,167,260.85352z"/>
		<path d="M334,290.58734v-90.19977C320.07751,268.42688,265.48914,321.82928,196.83618,334h93.44214
			C306.89862,321.75934,321.64954,307.12164,334,290.58734z"/>
		<path d="M334,131.94183V41.74237C322.20691,25.95441,308.22577,11.89453,292.51825,0h-87.45966
			C269.81879,14.82611,320.63806,66.64246,334,131.94183z"/>
		<path d="M0,200.30304v90.26599C12.35223,307.11072,27.10651,321.75482,43.73157,334h93.43518
			C68.49219,321.82422,13.89337,268.38251,0,200.30304z"/>
		<path d="M128.94513,0H41.49188C25.77954,11.89911,11.79498,25.96533,0,41.76068v90.26569
			C13.33417,66.68732,64.16345,14.83252,128.94513,0z"/>
	</g>
</g>
<g id="Layer_3" display="none">
</g>
<g id="Layer_2" display="none">
</g>
</svg>
