<?xml version="1.0" encoding="utf-8"?>
<!-- Generator: Adobe Illustrator 21.1.0, SVG Export Plug-In . SVG Version: 6.00 Build 0)  -->
<svg version="1.2" baseProfile="tiny" xmlns="http://www.w3.org/2000/svg" xmlns:xlink="http://www.w3.org/1999/xlink" x="0px"
	 y="0px" viewBox="0 0 334 334" xml:space="preserve">
<g id="Layer_1">
	<g>
		<path fill="#FFFFFF" d="M334,52.18091V43.7771C321.60492,27.0918,306.76984,12.32617,290.0307,0h-8.43994
			C302.07355,14.05469,319.85638,31.76392,334,52.18091z"/>
		<path fill="#FFFFFF" d="M0,282.7937v8.38599C12.06451,307.4292,26.43512,321.8689,42.63226,334h8.3551
			C31.10205,320.10254,13.81403,302.74048,0,282.7937z"/>
		<path fill="#FFFFFF" d="M0,314.47461v7.28687C3.91083,325.99316,7.98053,330.07471,12.19855,334h7.26099
			C12.58002,327.89624,6.08002,321.37573,0,314.47461z"/>
		<path fill="#FFFFFF" d="M0,299.22583v7.74292C8.1759,316.74341,17.19269,325.78906,26.93677,334h7.71222
			C21.81268,323.77368,10.17743,312.10254,0,299.22583z"/>
		<path fill="#FFFFFF" d="M92.20081,0H80.93372C46.37427,17.83252,18.01678,46.05371,0,80.50488v11.08667
			C18.53156,50.9834,51.44977,18.26953,92.20081,0z"/>
		<path fill="#FFFFFF" d="M121.10498,0h-15.98291C56.79913,17.90869,18.27881,56.16333,0,104.30664v15.4751
			C16.61749,61.71118,62.77881,15.99951,121.10498,0z"/>
		<path fill="#FFFFFF" d="M0,328.88428V334h5.10248C3.37604,332.32031,1.67389,330.61646,0,328.88428z"/>
		<path fill="#FFFFFF" d="M167.0166,145.49609c-12.14355,0-22.02295,9.87109-22.02295,22.00488s9.87939,22.00586,22.02295,22.00586
			c12.13428,0,22.00635-9.87207,22.00635-22.00586S179.15088,145.49609,167.0166,145.49609z M167,184.63086
			c-9.43555,0-17.11182-7.68457-17.11182-17.12988c0-9.44434,7.67627-17.12891,17.11182-17.12891
			c9.44482,0,17.12842,7.68457,17.12842,17.12891C184.12842,176.94629,176.44482,184.63086,167,184.63086z"/>
		<path fill="#FFFFFF" d="M167,155.2666c-6.7373,0-12.21826,5.48828-12.21826,12.23438
			c0,6.74707,5.48096,12.23535,12.21826,12.23535c6.74609,0,12.23486-5.48828,12.23486-12.23535
			C179.23486,160.75488,173.74609,155.2666,167,155.2666z M167,174.84277c-4.04785,0-7.34082-3.29395-7.34082-7.3418
			s3.29297-7.34082,7.34082-7.34082s7.34082,3.29297,7.34082,7.34082S171.04785,174.84277,167,174.84277z"/>
		<path fill="#FFFFFF" d="M0,243.41064v11.08667C17.68506,288.31445,45.33789,316.12158,79.03589,334h10.98083
			C50.27539,315.55103,18.19891,283.29004,0,243.41064z"/>
		<path fill="#FFFFFF" d="M0,215.22021v15.47559C17.94537,277.96118,55.40161,315.69287,102.48883,334h15.10846
			C60.9325,317.15649,16.28296,272.12183,0,215.22021z"/>
		<circle fill="#FFFFFF" cx="167" cy="167.50122" r="2.44702"/>
		<path fill="#FFFFFF" d="M70.72217,0h-9.40399C36.68689,15.5957,15.71063,36.46289,0,61.01318v9.37891
			C17.02496,41.22192,41.4632,16.88599,70.72217,0z"/>
		<path fill="#FFFFFF" d="M334,70.36865v-9.38623C318.29285,36.44556,297.32513,15.58936,272.70605,0h-9.42029
			C292.53931,16.88135,316.97418,41.20898,334,70.36865z"/>
		<path fill="#FFFFFF" d="M334,91.59155V80.47754C315.98102,46.03906,287.62708,17.82788,253.07379,0h-11.2746
			C282.55023,18.26953,315.46844,50.9834,334,91.59155z"/>
		<path fill="#FFFFFF" d="M334,35.73535v-7.74072C325.50067,17.83838,316.09894,8.46265,305.91083,0h-7.77991
			C311.45264,10.45068,323.49854,22.45532,334,35.73535z"/>
		<path fill="#FFFFFF" d="M334,20.49023v-7.29761C329.76965,8.61816,325.35748,4.21533,320.76898,0h-7.32477
			C320.73138,6.37842,327.59656,13.22559,334,20.49023z"/>
		<path fill="#FFFFFF" d="M334,119.7832v-15.47656C315.72119,56.16333,277.20087,17.90869,228.87793,0h-15.98297
			C271.22144,15.99951,317.38293,61.71191,334,119.7832z"/>
		<path fill="#FFFFFF" d="M167.0166,135.70801c-17.53125,0-31.79395,14.26172-31.79395,31.79297s14.2627,31.79395,31.79395,31.79395
			s31.79395-14.2627,31.79395-31.79395S184.54785,135.70801,167.0166,135.70801z M167.0166,194.40137
			c-14.8418,0-26.9165-12.06738-26.9165-26.90039c0-14.83203,12.07471-26.89941,26.9165-26.89941
			c14.83252,0,26.8999,12.06738,26.8999,26.89941C193.9165,182.33398,181.84912,194.40137,167.0166,194.40137z"/>
		<path fill="#FFFFFF" d="M35.90228,0h-7.77991C17.92108,8.47363,8.50806,17.8623,0,28.03394v7.74243
			C10.50922,22.47998,22.56671,10.46167,35.90228,0z"/>
		<path fill="#FFFFFF" d="M52.43304,0H44.0025C27.24823,12.3374,12.40186,27.1189,0,43.82275v8.38623
			C14.14795,31.78027,31.93921,14.06104,52.43304,0z"/>
		<path fill="#FFFFFF" d="M20.58899,0h-7.31348C8.67096,4.23022,4.24377,8.64941,0,13.24146v7.28638
			C6.41284,13.24902,13.28925,6.3894,20.58899,0z"/>
		<path fill="#FFFFFF" d="M6.12897,0H0v6.11792C2.00629,4.04199,4.04742,2.00049,6.12897,0z"/>
		<path fill="#FFFFFF" d="M167.0332,76.99707c-49.9043,0-90.50488,40.59961-90.50488,90.50391s40.60059,90.50488,90.50488,90.50488
			s90.50439-40.60059,90.50439-90.50488S216.9375,76.99707,167.0332,76.99707z M167.0332,253.1123
			c-47.20605,0-85.61035-38.40527-85.61035-85.61133c0-47.20508,38.4043-85.61035,85.61035-85.61035
			s85.61035,38.40527,85.61035,85.61035C252.64355,214.70703,214.23926,253.1123,167.0332,253.1123z"/>
		<path fill="#FFFFFF" d="M167.06641,18.30371c-82.27734,0-149.21533,66.92969-149.21533,149.19727
			c0,82.26855,66.93799,149.19824,149.21533,149.19824c82.26855,0,149.19873-66.92969,149.19873-149.19824
			C316.26514,85.2334,249.33496,18.30371,167.06641,18.30371z M167.0498,311.82324
			c-79.56982,0-144.3042-64.74316-144.3042-144.32227S87.47998,23.17969,167.0498,23.17969
			c79.5791,0,144.3208,64.74219,144.3208,144.32129S246.62891,311.82324,167.0498,311.82324z"/>
		<path fill="#FFFFFF" d="M334,254.52441v-11.11377C315.80109,283.29004,283.72461,315.55103,243.98328,334h10.98853
			C288.66364,316.12646,316.31287,288.3291,334,254.52441z"/>
		<path fill="#FFFFFF" d="M334,191.92725v-48.85229C323.11078,68.29175,263.00854,9.25684,187.71582,0h-41.4317
			C70.99219,9.25684,10.8905,68.29004,0,143.07129v48.85938C10.5545,264.40527,67.3324,322.0835,139.36249,334h55.27484
			C266.66821,322.08325,323.44672,264.40332,334,191.92725z M167.06641,331.38184
			c-90.37305,0-163.89648-73.5166-163.89648-163.88086c0-90.36328,73.52344-163.87988,163.89648-163.87988
			c90.36377,0,163.87988,73.5166,163.87988,163.87988C330.94629,257.86523,257.43018,331.38184,167.06641,331.38184z"/>
		<path fill="#FFFFFF" d="M167.06641,8.51562c-87.67432,0-159.00293,71.32031-159.00293,158.98535
			S79.39209,326.4873,167.06641,326.4873c87.66504,0,158.98633-71.32129,158.98633-158.98633S254.73145,8.51562,167.06641,8.51562z
			 M167.06641,321.59375c-84.97607,0-154.10889-69.12598-154.10889-154.09277s69.13281-154.0918,154.10889-154.0918
			c84.9668,0,154.09229,69.125,154.09229,154.0918S252.0332,321.59375,167.06641,321.59375z"/>
		<path fill="#FFFFFF" d="M334,274.01978v-9.38647c-16.69482,28.59326-40.51953,52.53052-69.02008,69.3667h9.30054
			C298.22028,318.52393,318.62823,298.03296,334,274.01978z"/>
		<path fill="#FFFFFF" d="M334,230.6958v-15.47705C317.71753,272.12109,273.06787,317.15625,216.40265,334h15.10852
			C278.59839,315.69287,316.05463,277.96118,334,230.6958z"/>
		<path fill="#FFFFFF" d="M334,321.81006v-7.29785c-6.07056,6.88696-12.55927,13.39502-19.42633,19.48779h7.2724
			C326.04816,330.08984,330.10272,326.02441,334,321.81006z"/>
		<path fill="#FFFFFF" d="M334,291.2251v-8.40332C320.19037,302.75684,302.91064,320.10913,283.03632,334h8.36462
			C307.58307,321.88013,321.94238,307.45605,334,291.2251z"/>
		<path fill="#FFFFFF" d="M334,328.93042c-1.65955,1.71606-3.34662,3.40503-5.0578,5.06958H334V328.93042z"/>
		<path fill="#FFFFFF" d="M334,307.00806v-7.74097C323.83044,312.12744,312.20673,323.78467,299.38422,334h7.71222
			C316.82739,325.80005,325.83289,316.76758,334,307.00806z"/>
		<path fill="#FFFFFF" d="M167.0166,106.34473c-33.71338,0-61.14111,27.43457-61.14111,61.15625
			c0,33.72266,27.42773,61.1582,61.14111,61.1582c33.72217,0,61.15771-27.43555,61.15771-61.1582
			C228.17432,133.7793,200.73877,106.34473,167.0166,106.34473z M167.0166,223.76562
			c-31.02393,0-56.26318-25.24023-56.26318-56.26465c0-31.02344,25.23926-56.26367,56.26318-56.26367
			s56.26318,25.24023,56.26318,56.26367C223.27979,198.52539,198.04053,223.76562,167.0166,223.76562z"/>
		<path fill="#FFFFFF" d="M167.0332,86.78516c-44.50732,0-80.7168,36.20898-80.7168,80.71582
			c0,44.50781,36.20947,80.7168,80.7168,80.7168s80.7168-36.20898,80.7168-80.7168
			C247.75,122.99414,211.54053,86.78516,167.0332,86.78516z M167.0332,243.32422c-41.81787,0-75.83887-34.01465-75.83887-75.82324
			s34.021-75.82227,75.83887-75.82227c41.80859,0,75.82227,34.01367,75.82227,75.82227S208.8418,243.32422,167.0332,243.32422z"/>
		<path fill="#FFFFFF" d="M167.0332,96.57324c-39.11914,0-70.94531,31.81836-70.94531,70.92773
			c0,39.11035,31.82617,70.92871,70.94531,70.92871c39.11035,0,70.92871-31.81836,70.92871-70.92871
			C237.96191,128.3916,206.14355,96.57324,167.0332,96.57324z M167.0166,233.55371c-36.41162,0-66.03467-29.63086-66.03467-66.05273
			c0-36.41992,29.62305-66.05078,66.03467-66.05078c36.4209,0,66.05127,29.63086,66.05127,66.05078
			C233.06787,203.92285,203.4375,233.55371,167.0166,233.55371z"/>
		<path fill="#FFFFFF" d="M167.0166,125.91992c-22.92822,0-41.58203,18.65332-41.58203,41.58105
			c0,22.92871,18.65381,41.58203,41.58203,41.58203s41.58203-18.65332,41.58203-41.58203
			C208.59863,144.57324,189.94482,125.91992,167.0166,125.91992z M167.0166,204.18945
			c-20.22949,0-36.6875-16.45898-36.6875-36.68848s16.45801-36.6875,36.6875-36.6875s36.6875,16.45801,36.6875,36.6875
			S187.24609,204.18945,167.0166,204.18945z"/>
		<path fill="#FFFFFF" d="M167.0166,116.13184c-28.3252,0-51.36963,23.04395-51.36963,51.36914
			c0,28.32617,23.04443,51.37012,51.36963,51.37012s51.36963-23.04395,51.36963-51.37012
			C218.38623,139.17578,195.3418,116.13184,167.0166,116.13184z M167.0166,213.97754
			c-25.62695,0-46.47559-20.84961-46.47559-46.47656s20.84863-46.47559,46.47559-46.47559s46.47559,20.84863,46.47559,46.47559
			S192.64355,213.97754,167.0166,213.97754z"/>
		<path fill="#FFFFFF" d="M334,6.07178V0h-6.08435C329.98187,1.9856,332.00793,4.01196,334,6.07178z"/>
		<path fill="#FFFFFF" d="M167.0498,37.8623c-71.4834,0-129.63965,58.15527-129.63965,129.63867
			S95.56641,297.14062,167.0498,297.14062s129.63965-58.15625,129.63965-129.63965S238.5332,37.8623,167.0498,37.8623z
			 M167.0498,292.24707c-68.78467,0-124.74512-55.96094-124.74512-124.74609c0-68.78418,55.96045-124.74512,124.74512-124.74512
			S291.79492,98.7168,291.79492,167.50098C291.79492,236.28613,235.83447,292.24707,167.0498,292.24707z"/>
		<path fill="#FFFFFF" d="M167.0332,67.20996c-55.29199,0-100.27588,44.99023-100.27588,100.29102
			c0,55.30176,44.98389,100.29297,100.27588,100.29297c55.30127,0,100.29248-44.99121,100.29248-100.29297
			C267.32568,112.2002,222.33447,67.20996,167.0332,67.20996z M167.0332,262.90039c-52.60303,0-95.39844-42.7959-95.39844-95.39941
			c0-52.60254,42.79541-95.39844,95.39844-95.39844c52.60254,0,95.39795,42.7959,95.39795,95.39844
			C262.43115,220.10449,219.63574,262.90039,167.0332,262.90039z"/>
		<path fill="#FFFFFF" d="M167.0498,47.65039c-66.08643,0-119.85156,53.76465-119.85156,119.85059
			c0,66.08691,53.76514,119.85156,119.85156,119.85156s119.85156-53.76465,119.85156-119.85156
			C286.90137,101.41504,233.13623,47.65039,167.0498,47.65039z M167.0498,282.45898
			c-63.39697,0-114.97412-51.57031-114.97412-114.95801S103.65283,52.54395,167.0498,52.54395
			c63.3877,0,114.95703,51.56934,114.95703,114.95703S230.4375,282.45898,167.0498,282.45898z"/>
		<path fill="#FFFFFF" d="M167.0498,28.07422c-76.87109,0-139.41064,62.54688-139.41064,139.42676
			c0,76.88086,62.53955,139.42773,139.41064,139.42773c76.88037,0,139.42725-62.54688,139.42725-139.42773
			C306.47705,90.62109,243.93018,28.07422,167.0498,28.07422z M167.0498,302.03516
			c-74.18213,0-134.5332-60.35156-134.5332-134.53418c0-74.18164,60.35107-134.5332,134.5332-134.5332
			s134.5332,60.35156,134.5332,134.5332C301.58301,241.68359,241.23193,302.03516,167.0498,302.03516z"/>
		<path fill="#FFFFFF" d="M167.0498,57.43848c-60.69873,0-110.08057,49.37402-110.08057,110.0625
			c0,60.68945,49.38184,110.06348,110.08057,110.06348c60.68896,0,110.06348-49.37402,110.06348-110.06348
			C277.11328,106.8125,227.73877,57.43848,167.0498,57.43848z M167.0332,272.68848
			c-57.99072,0-105.16943-47.1875-105.16943-105.1875c0-57.99902,47.17871-105.18555,105.16943-105.18555
			c58,0,105.18604,47.18652,105.18604,105.18555C272.21924,225.50098,225.0332,272.68848,167.0332,272.68848z"/>
		<path fill="#FFFFFF" d="M0,264.60986v9.37939C15.37531,298.01538,35.79181,318.51733,59.74371,334h9.28448
			C40.52228,317.15918,16.69409,293.21362,0,264.60986z"/>
		<path d="M167,160.16016c-4.04785,0-7.34082,3.29297-7.34082,7.34082s3.29297,7.3418,7.34082,7.3418
			s7.34082-3.29395,7.34082-7.3418S171.04785,160.16016,167,160.16016z M167,169.94824c-1.34912,0-2.44727-1.09766-2.44727-2.44727
			c0-1.34863,1.09814-2.44629,2.44727-2.44629s2.44727,1.09766,2.44727,2.44629
			C169.44727,168.85059,168.34912,169.94824,167,169.94824z"/>
		<path d="M167,150.37207c-9.43555,0-17.11182,7.68457-17.11182,17.12891c0,9.44531,7.67627,17.12988,17.11182,17.12988
			c9.44482,0,17.12842-7.68457,17.12842-17.12988C184.12842,158.05664,176.44482,150.37207,167,150.37207z M167,179.73633
			c-6.7373,0-12.21826-5.48828-12.21826-12.23535c0-6.74609,5.48096-12.23438,12.21826-12.23438
			c6.74609,0,12.23486,5.48828,12.23486,12.23438C179.23486,174.24805,173.74609,179.73633,167,179.73633z"/>
		<path d="M167.0166,140.60156c-14.8418,0-26.9165,12.06738-26.9165,26.89941c0,14.83301,12.07471,26.90039,26.9165,26.90039
			c14.83252,0,26.8999-12.06738,26.8999-26.90039C193.9165,152.66895,181.84912,140.60156,167.0166,140.60156z M167.0166,189.50684
			c-12.14355,0-22.02295-9.87207-22.02295-22.00586s9.87939-22.00488,22.02295-22.00488
			c12.13428,0,22.00635,9.87109,22.00635,22.00488S179.15088,189.50684,167.0166,189.50684z"/>
		<path d="M167.0166,130.81348c-20.22949,0-36.6875,16.45801-36.6875,36.6875s16.45801,36.68848,36.6875,36.68848
			s36.6875-16.45898,36.6875-36.68848S187.24609,130.81348,167.0166,130.81348z M167.0166,199.29492
			c-17.53125,0-31.79395-14.2627-31.79395-31.79395s14.2627-31.79297,31.79395-31.79297s31.79395,14.26172,31.79395,31.79297
			S184.54785,199.29492,167.0166,199.29492z"/>
		<path d="M167.0166,121.02539c-25.62695,0-46.47559,20.84863-46.47559,46.47559s20.84863,46.47656,46.47559,46.47656
			s46.47559-20.84961,46.47559-46.47656S192.64355,121.02539,167.0166,121.02539z M167.0166,209.08301
			c-22.92822,0-41.58203-18.65332-41.58203-41.58203c0-22.92773,18.65381-41.58105,41.58203-41.58105
			s41.58203,18.65332,41.58203,41.58105C208.59863,190.42969,189.94482,209.08301,167.0166,209.08301z"/>
		<path d="M167.0166,111.2373c-31.02393,0-56.26318,25.24023-56.26318,56.26367c0,31.02441,25.23926,56.26465,56.26318,56.26465
			s56.26318-25.24023,56.26318-56.26465C223.27979,136.47754,198.04053,111.2373,167.0166,111.2373z M167.0166,218.87109
			c-28.3252,0-51.36963-23.04395-51.36963-51.37012c0-28.3252,23.04443-51.36914,51.36963-51.36914
			s51.36963,23.04395,51.36963,51.36914C218.38623,195.82715,195.3418,218.87109,167.0166,218.87109z"/>
		<path d="M167.0166,101.4502c-36.41162,0-66.03467,29.63086-66.03467,66.05078c0,36.42188,29.62305,66.05273,66.03467,66.05273
			c36.4209,0,66.05127-29.63086,66.05127-66.05273C233.06787,131.08105,203.4375,101.4502,167.0166,101.4502z M167.0166,228.65918
			c-33.71338,0-61.14111-27.43555-61.14111-61.1582c0-33.72168,27.42773-61.15625,61.14111-61.15625
			c33.72217,0,61.15771,27.43457,61.15771,61.15625C228.17432,201.22363,200.73877,228.65918,167.0166,228.65918z"/>
		<path d="M167.0332,91.67871c-41.81787,0-75.83887,34.01367-75.83887,75.82227s34.021,75.82324,75.83887,75.82324
			c41.80859,0,75.82227-34.01465,75.82227-75.82324S208.8418,91.67871,167.0332,91.67871z M167.0332,238.42969
			c-39.11914,0-70.94531-31.81836-70.94531-70.92871c0-39.10938,31.82617-70.92773,70.94531-70.92773
			c39.11035,0,70.92871,31.81836,70.92871,70.92773C237.96191,206.61133,206.14355,238.42969,167.0332,238.42969z"/>
		<path d="M167.0332,81.89062c-47.20605,0-85.61035,38.40527-85.61035,85.61035c0,47.20605,38.4043,85.61133,85.61035,85.61133
			s85.61035-38.40527,85.61035-85.61133C252.64355,120.2959,214.23926,81.89062,167.0332,81.89062z M167.0332,248.21777
			c-44.50732,0-80.7168-36.20898-80.7168-80.7168c0-44.50684,36.20947-80.71582,80.7168-80.71582s80.7168,36.20898,80.7168,80.71582
			C247.75,212.00879,211.54053,248.21777,167.0332,248.21777z"/>
		<path d="M167.0332,72.10254c-52.60303,0-95.39844,42.7959-95.39844,95.39844c0,52.60352,42.79541,95.39941,95.39844,95.39941
			c52.60254,0,95.39795-42.7959,95.39795-95.39941C262.43115,114.89844,219.63574,72.10254,167.0332,72.10254z M167.0332,258.00586
			c-49.9043,0-90.50488-40.60059-90.50488-90.50488s40.60059-90.50391,90.50488-90.50391s90.50439,40.59961,90.50439,90.50391
			S216.9375,258.00586,167.0332,258.00586z"/>
		<path d="M167.0332,62.31543c-57.99072,0-105.16943,47.18652-105.16943,105.18555c0,58,47.17871,105.1875,105.16943,105.1875
			c58,0,105.18604-47.1875,105.18604-105.1875C272.21924,109.50195,225.0332,62.31543,167.0332,62.31543z M167.0332,267.79395
			c-55.29199,0-100.27588-44.99121-100.27588-100.29297c0-55.30078,44.98389-100.29102,100.27588-100.29102
			c55.30127,0,100.29248,44.99023,100.29248,100.29102C267.32568,222.80273,222.33447,267.79395,167.0332,267.79395z"/>
		<path d="M167.0498,52.54395c-63.39697,0-114.97412,51.56934-114.97412,114.95703s51.57715,114.95801,114.97412,114.95801
			c63.3877,0,114.95703-51.57031,114.95703-114.95801S230.4375,52.54395,167.0498,52.54395z M167.0498,277.56445
			c-60.69873,0-110.08057-49.37402-110.08057-110.06348c0-60.68848,49.38184-110.0625,110.08057-110.0625
			c60.68896,0,110.06348,49.37402,110.06348,110.0625C277.11328,228.19043,227.73877,277.56445,167.0498,277.56445z"/>
		<path d="M167.0498,42.75586c-68.78467,0-124.74512,55.96094-124.74512,124.74512
			c0,68.78516,55.96045,124.74609,124.74512,124.74609s124.74512-55.96094,124.74512-124.74609
			C291.79492,98.7168,235.83447,42.75586,167.0498,42.75586z M167.0498,287.35254
			c-66.08643,0-119.85156-53.76465-119.85156-119.85156c0-66.08594,53.76514-119.85059,119.85156-119.85059
			s119.85156,53.76465,119.85156,119.85059C286.90137,233.58789,233.13623,287.35254,167.0498,287.35254z"/>
		<path d="M167.0498,32.96777c-74.18213,0-134.5332,60.35156-134.5332,134.5332c0,74.18262,60.35107,134.53418,134.5332,134.53418
			s134.5332-60.35156,134.5332-134.53418C301.58301,93.31934,241.23193,32.96777,167.0498,32.96777z M167.0498,297.14062
			c-71.4834,0-129.63965-58.15625-129.63965-129.63965S95.56641,37.8623,167.0498,37.8623s129.63965,58.15527,129.63965,129.63867
			S238.5332,297.14062,167.0498,297.14062z"/>
		<path d="M167.0498,23.17969c-79.56982,0-144.3042,64.74219-144.3042,144.32129s64.73438,144.32227,144.3042,144.32227
			c79.5791,0,144.3208-64.74316,144.3208-144.32227S246.62891,23.17969,167.0498,23.17969z M167.0498,306.92871
			c-76.87109,0-139.41064-62.54688-139.41064-139.42773c0-76.87988,62.53955-139.42676,139.41064-139.42676
			c76.88037,0,139.42725,62.54688,139.42725,139.42676C306.47705,244.38184,243.93018,306.92871,167.0498,306.92871z"/>
		<path d="M167.06641,13.40918c-84.97607,0-154.10889,69.125-154.10889,154.0918s69.13281,154.09277,154.10889,154.09277
			c84.9668,0,154.09229-69.12598,154.09229-154.09277S252.0332,13.40918,167.06641,13.40918z M167.06641,316.69922
			c-82.27734,0-149.21533-66.92969-149.21533-149.19824c0-82.26758,66.93799-149.19727,149.21533-149.19727
			c82.26855,0,149.19873,66.92969,149.19873,149.19727C316.26514,249.76953,249.33496,316.69922,167.06641,316.69922z"/>
		<path d="M167.06641,3.62109c-90.37305,0-163.89648,73.5166-163.89648,163.87988
			c0,90.36426,73.52344,163.88086,163.89648,163.88086c90.36377,0,163.87988-73.5166,163.87988-163.88086
			C330.94629,77.1377,257.43018,3.62109,167.06641,3.62109z M167.06641,326.4873
			c-87.67432,0-159.00293-71.32129-159.00293-158.98633S79.39209,8.51562,167.06641,8.51562
			c87.66504,0,158.98633,71.32031,158.98633,158.98535S254.73145,326.4873,167.06641,326.4873z"/>
		<path d="M0,191.93066v23.28955C16.28296,272.12183,60.9325,317.15649,117.59729,334h21.7652
			C67.3324,322.0835,10.5545,264.40527,0,191.93066z"/>
		<path d="M334,143.07495V119.7832C317.38293,61.71191,271.22144,15.99951,212.89496,0h-25.17914
			C263.00854,9.25684,323.11078,68.29175,334,143.07495z"/>
		<path d="M334,215.21875v-23.2915C323.44672,264.40332,266.66821,322.08325,194.63733,334h21.76532
			C273.06787,317.15625,317.71753,272.12109,334,215.21875z"/>
		<path d="M146.28412,0h-25.17914C62.77881,15.99951,16.61749,61.71118,0,119.78174v23.28955
			C10.8905,68.29004,70.99219,9.25684,146.28412,0z"/>
		<path d="M334,104.30664V91.59155C315.46844,50.9834,282.55023,18.26953,241.79919,0h-12.92126
			C277.20087,17.90869,315.72119,56.16333,334,104.30664z"/>
		<path d="M0,230.6958v12.71484C18.19891,283.29004,50.27539,315.55103,90.01672,334h12.47211
			C55.40161,315.69287,17.94537,277.96118,0,230.6958z"/>
		<path d="M334,243.41064V230.6958C316.05463,277.96118,278.59839,315.69287,231.51117,334h12.47211
			C283.72461,315.55103,315.80109,283.29004,334,243.41064z"/>
		<path d="M105.12207,0H92.20081C51.44977,18.26953,18.53156,50.9834,0,91.59155v12.71509
			C18.27881,56.16333,56.79913,17.90869,105.12207,0z"/>
		<path d="M0,254.49731v10.11255C16.69409,293.21362,40.52228,317.15918,69.0282,334h10.00769
			C45.33789,316.12158,17.68506,288.31445,0,254.49731z"/>
		<path d="M334,264.6333v-10.10889C316.31287,288.3291,288.66364,316.12646,254.9718,334h10.00812
			C293.48047,317.16382,317.30518,293.22656,334,264.6333z"/>
		<path d="M334,80.47754V70.36865C316.97418,41.20898,292.53931,16.88135,263.28577,0h-10.21198
			C287.62708,17.82788,315.98102,46.03906,334,80.47754z"/>
		<path d="M80.93372,0H70.72217C41.4632,16.88599,17.02496,41.22192,0,70.39209v10.11279
			C18.01678,46.05371,46.37427,17.83252,80.93372,0z"/>
		<path d="M61.31818,0h-8.88513C31.93921,14.06104,14.14795,31.78027,0,52.20898v8.8042
			C15.71063,36.46289,36.68689,15.5957,61.31818,0z"/>
		<path d="M334,60.98242v-8.80151C319.85638,31.76392,302.07355,14.05469,281.59076,0h-8.8847
			C297.32513,15.58936,318.29285,36.44556,334,60.98242z"/>
		<path d="M0,273.98926v8.80444C13.81403,302.74048,31.10205,320.10254,50.98737,334h8.75635
			C35.79181,318.51733,15.37531,298.01538,0,273.98926z"/>
		<path d="M334,282.82178v-8.802C318.62823,298.03296,298.22028,318.52393,274.28046,334h8.75586
			C302.91064,320.10913,320.19037,302.75684,334,282.82178z"/>
		<path d="M44.0025,0h-8.10022C22.56671,10.46167,10.50922,22.47998,0,35.77637v8.04639
			C12.40186,27.1189,27.24823,12.3374,44.0025,0z"/>
		<path d="M334,43.7771v-8.04175C323.49854,22.45532,311.45264,10.45068,298.13092,0h-8.10022
			C306.76984,12.32617,321.60492,27.0918,334,43.7771z"/>
		<path d="M0,291.17969v8.04614C10.17743,312.10254,21.81268,323.77368,34.64899,334h7.98328
			C26.43512,321.8689,12.06451,307.4292,0,291.17969z"/>
		<path d="M334,299.26709v-8.04199c-12.05762,16.23096-26.41693,30.65503-42.59906,42.7749h7.98328
			C312.20673,323.78467,323.83044,312.12744,334,299.26709z"/>
		<path d="M28.12238,0h-7.53339C13.28925,6.3894,6.41284,13.24902,0,20.52783v7.5061C8.50806,17.8623,17.92108,8.47363,28.12238,0z"
			/>
		<path d="M334,314.51221v-7.50415c-8.16711,9.75952-17.17261,18.79199-26.90356,26.99194h7.47723
			C321.44073,327.90723,327.92944,321.39917,334,314.51221z"/>
		<path d="M334,27.99463v-7.50439C327.59656,13.22559,320.73138,6.37842,313.44421,0h-7.53339
			C316.09894,8.46265,325.50067,17.83838,334,27.99463z"/>
		<path d="M0,306.96875v7.50586C6.08002,321.37573,12.58002,327.89624,19.45953,334h7.47723
			C17.19269,325.78906,8.1759,316.74341,0,306.96875z"/>
		<path d="M334,13.19263V6.07178C332.00793,4.01196,329.98187,1.9856,327.91565,0h-7.14667
			C325.35748,4.21533,329.76965,8.61816,334,13.19263z"/>
		<path d="M334,328.93042v-7.12036c-3.89728,4.21436-7.95184,8.27979-12.15393,12.18994h7.09613
			C330.65338,332.33545,332.34045,330.64648,334,328.93042z"/>
		<path d="M13.27551,0H6.12897C4.04742,2.00049,2.00629,4.04199,0,6.11792v7.12354C4.24377,8.64941,8.67096,4.23022,13.27551,0z"/>
		<path d="M0,321.76147v7.1228c1.67389,1.73218,3.37604,3.43604,5.10248,5.11572h7.09607
			C7.98053,330.07471,3.91083,325.99316,0,321.76147z"/>
	</g>
</g>
<g id="Layer_3" display="none">
</g>
<g id="Layer_2" display="none">
</g>
</svg>
