<?xml version="1.0" encoding="utf-8"?>
<!-- Generator: Adobe Illustrator 21.1.0, SVG Export Plug-In . SVG Version: 6.00 Build 0)  -->
<svg version="1.2" baseProfile="tiny" xmlns="http://www.w3.org/2000/svg" xmlns:xlink="http://www.w3.org/1999/xlink" x="0px"
	 y="0px" viewBox="0 0 334 334" xml:space="preserve">
<g id="Layer_1">
	<g>
		<path fill="#898989" d="M334,85.44067V71.8833C317.04956,42.07129,292.38281,17.19727,262.72998,0H249.3855
			C286.12488,18.36084,315.9917,48.49756,334,85.44067z"/>
		<path fill="#898989" d="M0,297.54321v9.96484C8.10522,317.08008,17.01648,325.94678,26.63354,334h10.06055
			C23.0354,323.38086,10.70154,311.13452,0,297.54321z"/>
		<path fill="#898989" d="M0,275.95801v11.09814C13.10303,305.1377,29.06958,321.01367,47.24072,334h11.21204
			C35.17749,318.92261,15.24146,299.11768,0,275.95801z"/>
		<path fill="#898989" d="M0,317.10449v9.26538c2.49609,2.60181,5.05078,5.14697,7.66504,7.63013h9.32886
			C11.03662,328.67041,5.36011,323.03394,0,317.10449z"/>
		<path fill="#898989" d="M117.73523,0H98.6051C54.10913,18.13354,18.44092,53.56543,0,97.90332v18.70166
			C16.94873,60.57446,61.48254,16.41553,117.73523,0z"/>
		<path fill="#898989" d="M83.31128,0H69.97522C41.06665,16.76709,16.8999,40.83325,0,69.65674v13.16504
			C18.12769,47.07324,47.44385,17.9248,83.31128,0z"/>
		<path fill="#898989" d="M334,121.20312v-20.09717C315.96826,55.27197,279.65454,18.5686,234.09155,0h-19.15967
			C272.72058,16.86206,318.14233,62.9978,334,121.20312z"/>
		<path fill="#898989" d="M57.9469,0H46.78406C28.80322,12.9248,12.99243,28.68164,0,46.61035V57.7085
			C15.13037,34.71729,34.88953,15.03564,57.9469,0z"/>
		<path fill="#898989" d="M334,59.66602V48.36572C320.77466,29.70654,304.51367,13.34619,285.94641,0H274.7594
			C298.47339,15.4624,318.71033,35.83057,334,59.66602z"/>
		<path fill="#898989" d="M334,37.77197V27.64502C325.6731,17.63354,316.46448,8.38257,306.50098,0h-10.03003
			C310.50427,10.96826,323.11694,23.66943,334,37.77197z"/>
		<path fill="#898989" d="M334,17.97852V8.61304C331.22083,5.67041,328.37256,2.7937,325.4436,0h-9.32068
			C322.41382,5.65283,328.38062,11.65723,334,17.97852z"/>
		<path fill="#898989" d="M36.25989,0H26.23975C16.77356,7.96484,7.99414,16.71777,0,26.15869v9.96484
			C10.58875,22.67554,22.77295,10.54126,36.25989,0z"/>
		<path fill="#898989" d="M166.39844,37.30371c-71.42383,0-129.53027,58.10645-129.53027,129.5293
			c0,71.42383,58.10645,129.53027,129.53027,129.53027s129.53027-58.10645,129.53027-129.53027
			C295.92871,95.41016,237.82227,37.30371,166.39844,37.30371z M166.39844,290.03418
			c-67.94141,0-123.2168-55.26758-123.2168-123.20117c0-67.93262,55.27539-123.2002,123.2168-123.2002
			c67.93359,0,123.20117,55.26758,123.20117,123.2002C289.59961,234.7666,234.33203,290.03418,166.39844,290.03418z"/>
		<path fill="#898989" d="M166.33105,12.03223c-85.3584,0-154.80176,69.44336-154.80176,154.80078
			c0,85.3584,69.44336,154.80176,154.80176,154.80176s154.80176-69.44336,154.80176-154.80176
			C321.13281,81.47559,251.68945,12.03223,166.33105,12.03223z M166.33105,315.30566
			c-81.87695,0-148.48828-66.60449-148.48828-148.47266c0-81.86719,66.61133-148.47168,148.48828-148.47168
			c81.86816,0,148.47266,66.60449,148.47266,148.47168C314.80371,248.70117,248.19922,315.30566,166.33105,315.30566z"/>
		<path fill="#898989" d="M334,232.56055v-20.09766C318.03967,271.04541,272.13477,317.41113,213.81152,334h19.46631
			C279.2229,315.53857,315.86084,278.66797,334,232.56055z"/>
		<path fill="#898989" d="M333.77734,166.83301C333.77734,79.302,266.26367,7.25439,180.57751,0h-28.49133
			C72.73657,6.71875,8.98511,69.01587,0,147.71655v38.23291C9.16138,266.19287,75.25635,329.38672,156.76929,334h19.12463
			C263.79102,329.02588,333.77734,255.95312,333.77734,166.83301z M166.33105,327.94922
			c-88.83984,0-161.11621-72.27637-161.11621-161.11621c0-88.83887,72.27637-161.11523,161.11621-161.11523
			s161.11621,72.27637,161.11621,161.11523C327.44727,255.67285,255.1709,327.94922,166.33105,327.94922z"/>
		<path fill="#898989" d="M166.33105,24.67578c-78.39551,0-142.17383,63.77148-142.17383,142.15723
			c0,78.38672,63.77832,142.1582,142.17383,142.1582c78.38672,0,142.1582-63.77148,142.1582-142.1582
			C308.48926,88.44727,244.71777,24.67578,166.33105,24.67578z M166.39844,302.67773
			c-74.90527,0-135.84473-60.93945-135.84473-135.84473c0-74.9043,60.93945-135.84375,135.84473-135.84375
			s135.84473,60.93945,135.84473,135.84375C302.24316,241.73828,241.30371,302.67773,166.39844,302.67773z"/>
		<path fill="#898989" d="M16.61865,0h-9.3103C4.81702,2.37622,2.38354,4.81226,0,7.29663v9.26562
			C5.24805,10.75684,10.79773,5.23096,16.61865,0z"/>
		<path fill="#898989" d="M0,250.84497v13.16504C17.01038,293.02197,41.37988,317.21948,70.53967,334h13.4408
			C47.80859,316.10425,18.24023,286.81543,0,250.84497z"/>
		<path fill="#898989" d="M334,306.02173v-10.12695c-10.99438,14.24707-23.75708,27.0603-37.96326,38.10522h10.07043
			C316.22266,325.53003,325.56311,316.16553,334,306.02173z"/>
		<path fill="#898989" d="M334,325.05347v-9.36523c-5.73047,6.44629-11.82422,12.56128-18.25244,18.31177h9.33936
			C328.13965,331.10034,331.10913,328.1145,334,325.05347z"/>
		<path fill="#898989" d="M334,261.78345v-13.55737c-18.11768,37.16748-48.23779,67.4458-85.28381,85.77393h13.44934
			C292.07129,316.79175,316.94165,291.7854,334,261.78345z"/>
		<path fill="#898989" d="M166.39844,49.94727c-64.45996,0-116.90234,52.43457-116.90234,116.88574
			c0,64.45215,52.44238,116.88672,116.90234,116.88672c64.45215,0,116.88672-52.43457,116.88672-116.88672
			C283.28516,102.38184,230.85059,49.94727,166.39844,49.94727z M166.38184,277.40723
			c-60.96094,0-110.55664-49.60352-110.55664-110.57422c0-60.96973,49.5957-110.57324,110.55664-110.57324
			c60.96973,0,110.57324,49.60352,110.57324,110.57324C276.95508,227.80371,227.35156,277.40723,166.38184,277.40723z"/>
		<path fill="#898989" d="M334,285.30054v-11.30029C318.60132,298.0061,298.18652,318.4978,274.25342,334h11.23633
			C304.24854,320.59375,320.66565,304.11377,334,285.30054z"/>
		<path fill="#898989" d="M166.33105,151.0332c-8.71191,0-15.7998,7.08789-15.7998,15.7998
			c0,8.71289,7.08789,15.80078,15.7998,15.80078c8.71289,0,15.80078-7.08789,15.80078-15.80078
			C182.13184,158.12109,175.04395,151.0332,166.33105,151.0332z M166.33105,176.30469c-5.23145,0-9.4873-4.24902-9.4873-9.47168
			c0-5.22168,4.25586-9.4707,9.4873-9.4707c5.22266,0,9.47168,4.24902,9.47168,9.4707
			C175.80273,172.05566,171.55371,176.30469,166.33105,176.30469z"/>
		<path fill="#898989" d="M166.34863,125.76172c-22.64746,0-41.07227,18.42383-41.07227,41.07129
			s18.4248,41.07227,41.07227,41.07227s41.07129-18.4248,41.07129-41.07227S188.99609,125.76172,166.34863,125.76172z
			 M166.34863,201.57617c-19.16602,0-34.75977-15.58594-34.75977-34.74316c0-19.15625,15.59375-34.74219,34.75977-34.74219
			c19.15625,0,34.74219,15.58594,34.74219,34.74219C201.09082,185.99023,185.50488,201.57617,166.34863,201.57617z"/>
		<path fill="#898989" d="M166.38184,62.57422c-57.47949,0-104.24219,46.77051-104.24219,104.25879
			c0,57.48926,46.7627,104.25977,104.24219,104.25977c57.48828,0,104.25879-46.77051,104.25879-104.25977
			C270.64062,109.34473,223.87012,62.57422,166.38184,62.57422z M166.38184,264.7627
			c-53.99805,0-97.92871-43.93164-97.92871-97.92969s43.93066-97.92871,97.92871-97.92871s97.92969,43.93066,97.92969,97.92871
			S220.37988,264.7627,166.38184,264.7627z"/>
		<path fill="#898989" d="M0,217.06104v18.70215C18.55347,280.37207,54.54333,315.96851,99.4187,334h19.43677
			C62.07239,317.84741,17.0614,273.4646,0,217.06104z"/>
		<path fill="#898989" d="M166.33105,163.67676c-1.75,0-3.17285,1.41602-3.17285,3.15625c0,1.74121,1.42285,3.15723,3.17285,3.15723
			c1.74121,0,3.15723-1.41602,3.15723-3.15723C169.48828,165.09277,168.07227,163.67676,166.33105,163.67676z"/>
		<path fill="#898989" d="M166.34863,138.40527c-15.68457,0-28.44531,12.75195-28.44531,28.42773
			s12.76074,28.42871,28.44531,28.42871c15.67578,0,28.42773-12.75293,28.42773-28.42871S182.02441,138.40527,166.34863,138.40527z
			 M166.33105,188.94824c-12.19336,0-22.11426-9.9209-22.11426-22.11523c0-12.19336,9.9209-22.11426,22.11426-22.11426
			c12.19434,0,22.11523,9.9209,22.11523,22.11426C188.44629,179.02734,178.52539,188.94824,166.33105,188.94824z"/>
		<path fill="#898989" d="M166.36523,87.8457c-43.54492,0-78.9707,35.43359-78.9707,78.9873
			c0,43.55469,35.42578,78.98828,78.9707,78.98828c43.55371,0,78.9873-35.43359,78.9873-78.98828
			C245.35254,123.2793,209.91895,87.8457,166.36523,87.8457z M166.36523,239.49121c-40.06348,0-72.6582-32.59473-72.6582-72.6582
			s32.59473-72.65723,72.6582-72.65723s72.6582,32.59375,72.6582,72.65723S206.42871,239.49121,166.36523,239.49121z"/>
		<path fill="#898989" d="M166.36523,113.13379c-29.61914,0-53.71582,24.08887-53.71582,53.69922
			c0,29.62012,24.09668,53.7168,53.71582,53.7168c29.61035,0,53.69922-24.09668,53.69922-53.7168
			C220.06445,137.22266,195.97559,113.13379,166.36523,113.13379z M166.34863,214.21973
			c-26.12891,0-47.38672-21.25781-47.38672-47.38672c0-26.12793,21.25781-47.38574,47.38672-47.38574
			c26.12793,0,47.38574,21.25781,47.38574,47.38574C213.73438,192.96191,192.47656,214.21973,166.34863,214.21973z"/>
		<path fill="#898989" d="M166.38184,75.21875c-50.5166,0-91.61426,41.09766-91.61426,91.61426s41.09766,91.61523,91.61426,91.61523
			s91.61523-41.09863,91.61523-91.61523S216.89844,75.21875,166.38184,75.21875z M166.36523,252.13574
			c-47.02637,0-85.28516-38.2666-85.28516-85.30273c0-47.03516,38.25879-85.30176,85.28516-85.30176
			c47.03516,0,85.30176,38.2666,85.30176,85.30176C251.66699,213.86914,213.40039,252.13574,166.36523,252.13574z"/>
		<path fill="#898989" d="M166.36523,100.49023c-36.58203,0-66.34375,29.76074-66.34375,66.34277
			s29.76172,66.34375,66.34375,66.34375s66.34375-29.76172,66.34375-66.34375S202.94727,100.49023,166.36523,100.49023z
			 M166.36523,226.86426c-33.10059,0-60.03027-26.92969-60.03027-60.03125c0-33.0918,26.92969-60.01367,60.03027-60.01367
			c33.0918,0,60.01367,26.92188,60.01367,60.01367C226.37891,199.93457,199.45703,226.86426,166.36523,226.86426z"/>
		<path fill="#767676" d="M166.33105,157.3623c-5.23145,0-9.4873,4.24902-9.4873,9.4707c0,5.22266,4.25586,9.47168,9.4873,9.47168
			c5.22266,0,9.47168-4.24902,9.47168-9.47168C175.80273,161.61133,171.55371,157.3623,166.33105,157.3623z M166.33105,169.99023
			c-1.75,0-3.17285-1.41602-3.17285-3.15723c0-1.74023,1.42285-3.15625,3.17285-3.15625c1.74121,0,3.15723,1.41602,3.15723,3.15625
			C169.48828,168.57422,168.07227,169.99023,166.33105,169.99023z"/>
		<path fill="#767676" d="M166.33105,144.71875c-12.19336,0-22.11426,9.9209-22.11426,22.11426
			c0,12.19434,9.9209,22.11523,22.11426,22.11523c12.19434,0,22.11523-9.9209,22.11523-22.11523
			C188.44629,154.63965,178.52539,144.71875,166.33105,144.71875z M166.33105,182.63379
			c-8.71191,0-15.7998-7.08789-15.7998-15.80078c0-8.71191,7.08789-15.7998,15.7998-15.7998
			c8.71289,0,15.80078,7.08789,15.80078,15.7998C182.13184,175.5459,175.04395,182.63379,166.33105,182.63379z"/>
		<path fill="#767676" d="M166.34863,132.09082c-19.16602,0-34.75977,15.58594-34.75977,34.74219
			c0,19.15723,15.59375,34.74316,34.75977,34.74316c19.15625,0,34.74219-15.58594,34.74219-34.74316
			C201.09082,147.67676,185.50488,132.09082,166.34863,132.09082z M166.34863,195.26172
			c-15.68457,0-28.44531-12.75293-28.44531-28.42871s12.76074-28.42773,28.44531-28.42773
			c15.67578,0,28.42773,12.75195,28.42773,28.42773S182.02441,195.26172,166.34863,195.26172z"/>
		<path fill="#767676" d="M166.34863,119.44727c-26.12891,0-47.38672,21.25781-47.38672,47.38574
			c0,26.12891,21.25781,47.38672,47.38672,47.38672c26.12793,0,47.38574-21.25781,47.38574-47.38672
			C213.73438,140.70508,192.47656,119.44727,166.34863,119.44727z M166.34863,207.90527
			c-22.64746,0-41.07227-18.4248-41.07227-41.07227s18.4248-41.07129,41.07227-41.07129s41.07129,18.42383,41.07129,41.07129
			S188.99609,207.90527,166.34863,207.90527z"/>
		<path fill="#767676" d="M166.36523,106.81934c-33.10059,0-60.03027,26.92188-60.03027,60.01367
			c0,33.10156,26.92969,60.03125,60.03027,60.03125c33.0918,0,60.01367-26.92969,60.01367-60.03125
			C226.37891,133.74121,199.45703,106.81934,166.36523,106.81934z M166.36523,220.5498
			c-29.61914,0-53.71582-24.09668-53.71582-53.7168c0-29.61035,24.09668-53.69922,53.71582-53.69922
			c29.61035,0,53.69922,24.08887,53.69922,53.69922C220.06445,196.45312,195.97559,220.5498,166.36523,220.5498z"/>
		<path fill="#767676" d="M166.36523,94.17578c-40.06348,0-72.6582,32.59375-72.6582,72.65723s32.59473,72.6582,72.6582,72.6582
			s72.6582-32.59473,72.6582-72.6582S206.42871,94.17578,166.36523,94.17578z M166.36523,233.17676
			c-36.58203,0-66.34375-29.76172-66.34375-66.34375s29.76172-66.34277,66.34375-66.34277s66.34375,29.76074,66.34375,66.34277
			S202.94727,233.17676,166.36523,233.17676z"/>
		<path fill="#767676" d="M166.36523,81.53125c-47.02637,0-85.28516,38.2666-85.28516,85.30176
			c0,47.03613,38.25879,85.30273,85.28516,85.30273c47.03516,0,85.30176-38.2666,85.30176-85.30273
			C251.66699,119.79785,213.40039,81.53125,166.36523,81.53125z M166.36523,245.82129
			c-43.54492,0-78.9707-35.43359-78.9707-78.98828c0-43.55371,35.42578-78.9873,78.9707-78.9873
			c43.55371,0,78.9873,35.43359,78.9873,78.9873C245.35254,210.3877,209.91895,245.82129,166.36523,245.82129z"/>
		<path fill="#767676" d="M166.38184,68.9043c-53.99805,0-97.92871,43.93066-97.92871,97.92871s43.93066,97.92969,97.92871,97.92969
			s97.92969-43.93164,97.92969-97.92969S220.37988,68.9043,166.38184,68.9043z M166.38184,258.44824
			c-50.5166,0-91.61426-41.09863-91.61426-91.61523s41.09766-91.61426,91.61426-91.61426s91.61523,41.09766,91.61523,91.61426
			S216.89844,258.44824,166.38184,258.44824z"/>
		<path fill="#767676" d="M166.38184,56.25977c-60.96094,0-110.55664,49.60352-110.55664,110.57324
			c0,60.9707,49.5957,110.57422,110.55664,110.57422c60.96973,0,110.57324-49.60352,110.57324-110.57422
			C276.95508,105.86328,227.35156,56.25977,166.38184,56.25977z M166.38184,271.09277
			c-57.47949,0-104.24219-46.77051-104.24219-104.25977c0-57.48828,46.7627-104.25879,104.24219-104.25879
			c57.48828,0,104.25879,46.77051,104.25879,104.25879C270.64062,224.32227,223.87012,271.09277,166.38184,271.09277z"/>
		<path fill="#767676" d="M166.39844,43.63281c-67.94141,0-123.2168,55.26758-123.2168,123.2002
			c0,67.93359,55.27539,123.20117,123.2168,123.20117c67.93359,0,123.20117-55.26758,123.20117-123.20117
			C289.59961,98.90039,234.33203,43.63281,166.39844,43.63281z M166.39844,283.71973
			c-64.45996,0-116.90234-52.43457-116.90234-116.88672c0-64.45117,52.44238-116.88574,116.90234-116.88574
			c64.45215,0,116.88672,52.43457,116.88672,116.88574C283.28516,231.28516,230.85059,283.71973,166.39844,283.71973z"/>
		<path fill="#767676" d="M166.39844,30.98926c-74.90527,0-135.84473,60.93945-135.84473,135.84375
			c0,74.90527,60.93945,135.84473,135.84473,135.84473s135.84473-60.93945,135.84473-135.84473
			C302.24316,91.92871,241.30371,30.98926,166.39844,30.98926z M166.39844,296.36328
			c-71.42383,0-129.53027-58.10645-129.53027-129.53027c0-71.42285,58.10645-129.5293,129.53027-129.5293
			s129.53027,58.10645,129.53027,129.5293C295.92871,238.25684,237.82227,296.36328,166.39844,296.36328z"/>
		<path fill="#767676" d="M166.33105,18.36133c-81.87695,0-148.48828,66.60449-148.48828,148.47168
			c0,81.86816,66.61133,148.47266,148.48828,148.47266c81.86816,0,148.47266-66.60449,148.47266-148.47266
			C314.80371,84.96582,248.19922,18.36133,166.33105,18.36133z M166.33105,308.99121
			c-78.39551,0-142.17383-63.77148-142.17383-142.1582c0-78.38574,63.77832-142.15723,142.17383-142.15723
			c78.38672,0,142.1582,63.77148,142.1582,142.15723C308.48926,245.21973,244.71777,308.99121,166.33105,308.99121z"/>
		<path fill="#767676" d="M166.33105,5.71777c-88.83984,0-161.11621,72.27637-161.11621,161.11523
			c0,88.83984,72.27637,161.11621,161.11621,161.11621s161.11621-72.27637,161.11621-161.11621
			C327.44727,77.99414,255.1709,5.71777,166.33105,5.71777z M166.33105,321.63477
			c-85.3584,0-154.80176-69.44336-154.80176-154.80176c0-85.35742,69.44336-154.80078,154.80176-154.80078
			s154.80176,69.44336,154.80176,154.80078C321.13281,252.19141,251.68945,321.63477,166.33105,321.63477z"/>
		<path fill="#767676" d="M152.08618,0h-34.35095C61.48254,16.41553,16.94873,60.57446,0,116.60498v31.11157
			C8.98511,69.01587,72.73657,6.71875,152.08618,0z"/>
		<path fill="#767676" d="M334,212.46289v-91.25977C318.14233,62.9978,272.72058,16.86206,214.93188,0h-34.35437
			c85.68616,7.25439,153.19983,79.302,153.19983,166.83301c0,89.12012-69.98633,162.19287-157.88342,167.16699h37.9176
			C272.13477,317.41113,318.03967,271.04541,334,212.46289z"/>
		<path fill="#767676" d="M0,185.94946v31.11157C17.0614,273.4646,62.07239,317.84741,118.85547,334h37.91382
			C75.25635,329.38672,9.16138,266.19287,0,185.94946z"/>
		<path fill="#767676" d="M98.6051,0H83.31128C47.44385,17.9248,18.12769,47.07324,0,82.82178v15.08154
			C18.44092,53.56543,54.10913,18.13354,98.6051,0z"/>
		<path fill="#767676" d="M334,101.10596V85.44067C315.9917,48.49756,286.12488,18.36084,249.3855,0h-15.29395
			C279.65454,18.5686,315.96826,55.27197,334,101.10596z"/>
		<path fill="#767676" d="M334,248.22607v-15.66553C315.86084,278.66797,279.2229,315.53857,233.27783,334h15.43835
			C285.76221,315.67188,315.88232,285.39355,334,248.22607z"/>
		<path fill="#767676" d="M0,235.76318v15.08179C18.24023,286.81543,47.80859,316.10425,83.98047,334H99.4187
			C54.54333,315.96851,18.55347,280.37207,0,235.76318z"/>
		<path fill="#767676" d="M69.97522,0H57.9469C34.88953,15.03564,15.13037,34.71729,0,57.7085v11.94824
			C16.8999,40.83325,41.06665,16.76709,69.97522,0z"/>
		<path fill="#767676" d="M334,71.8833V59.66602C318.71033,35.83057,298.47339,15.4624,274.7594,0h-12.02942
			C292.38281,17.19727,317.04956,42.07129,334,71.8833z"/>
		<path fill="#767676" d="M0,264.01001v11.948C15.24146,299.11768,35.17749,318.92261,58.45276,334h12.08691
			C41.37988,317.21948,17.01038,293.02197,0,264.01001z"/>
		<path fill="#767676" d="M334,274.00024v-12.2168C316.94165,291.7854,292.07129,316.79175,262.16553,334h12.08789
			C298.18652,318.4978,318.60132,298.0061,334,274.00024z"/>
		<path fill="#767676" d="M0,287.05615v10.48706C10.70154,311.13452,23.0354,323.38086,36.69409,334h10.54663
			C29.06958,321.01367,13.10303,305.1377,0,287.05615z"/>
		<path fill="#767676" d="M334,295.89478v-10.59424C320.66565,304.11377,304.24854,320.59375,285.48975,334h10.547
			C310.24292,322.95508,323.00562,310.14185,334,295.89478z"/>
		<path fill="#767676" d="M334,48.36572V37.77197C323.11694,23.66943,310.50427,10.96826,296.47095,0h-10.52454
			C304.51367,13.34619,320.77466,29.70654,334,48.36572z"/>
		<path fill="#767676" d="M46.78406,0H36.25989C22.77295,10.54126,10.58875,22.67554,0,36.12354v10.48682
			C12.99243,28.68164,28.80322,12.9248,46.78406,0z"/>
		<path fill="#767676" d="M334,315.68823v-9.6665c-8.43689,10.1438-17.77734,19.5083-27.89282,27.97827h9.64038
			C322.17578,328.24951,328.26953,322.13452,334,315.68823z"/>
		<path fill="#767676" d="M334,27.64502v-9.6665C328.38062,11.65723,322.41382,5.65283,316.12292,0h-9.62195
			C316.46448,8.38257,325.6731,17.63354,334,27.64502z"/>
		<path fill="#767676" d="M0,307.50806v9.59644C5.36011,323.03394,11.03662,328.67041,16.9939,334h9.63965
			C17.01648,325.94678,8.10522,317.08008,0,307.50806z"/>
		<path fill="#767676" d="M26.23975,0h-9.62109C10.79773,5.23096,5.24805,10.75684,0,16.56226v9.59644
			C7.99414,16.71777,16.77356,7.96484,26.23975,0z"/>
		<path fill="#767676" d="M334,325.05347c-2.89087,3.06104-5.86035,6.04688-8.91309,8.94653H334V325.05347z"/>
		<path fill="#767676" d="M7.30835,0H0v7.29663C2.38354,4.81226,4.81702,2.37622,7.30835,0z"/>
		<path fill="#767676" d="M0,326.36987V334h7.66504C5.05078,331.51685,2.49609,328.97168,0,326.36987z"/>
		<path fill="#767676" d="M334,8.61304V0h-8.5564C328.37256,2.7937,331.22083,5.67041,334,8.61304z"/>
	</g>
</g>
<g id="Layer_3" display="none">
</g>
<g id="Layer_2" display="none">
</g>
</svg>
