<?xml version="1.0" encoding="utf-8"?>
<!-- Generator: Adobe Illustrator 21.1.0, SVG Export Plug-In . SVG Version: 6.00 Build 0)  -->
<svg version="1.2" baseProfile="tiny" xmlns="http://www.w3.org/2000/svg" xmlns:xlink="http://www.w3.org/1999/xlink" x="0px"
	 y="0px" viewBox="0 0 334 334" xml:space="preserve">
<g id="Layer_1">
	<g>
		<path fill="#909090" d="M167.66797,202.88574c20.24805,0,36.72119-16.47363,36.72119-36.72168s-16.47314-36.7207-36.72119-36.7207
			s-36.7207,16.47266-36.7207,36.7207S147.41992,202.88574,167.66797,202.88574z M167.66797,137.59375
			c15.75391,0,28.5708,12.81641,28.5708,28.57031s-12.81689,28.57031-28.5708,28.57031
			c-15.74463,0-28.55371-12.81641-28.55371-28.57031S151.92334,137.59375,167.66797,137.59375z"/>
		<path fill="#909090" d="M334,110.2915V88.47253C315.81226,49.6897,284.45605,18.26904,245.71875,0h-21.67566
			C275.68555,17.56824,316.58374,58.57971,334,110.2915z"/>
		<path fill="#909090" d="M167.66797,170.24805c2.25195,0,4.08398-1.83203,4.08398-4.08398
			c0-2.25098-1.83203-4.08301-4.08398-4.08301c-2.24268,0-4.06689,1.83203-4.06689,4.08301
			C163.60107,168.41602,165.42529,170.24805,167.66797,170.24805z"/>
		<path fill="#909090" d="M167.66797,219.2041c29.24658,0,53.04004-23.79395,53.04004-53.04004S196.91455,113.125,167.66797,113.125
			c-29.24609,0-53.03955,23.79297-53.03955,53.03906S138.42188,219.2041,167.66797,219.2041z M167.66797,121.27539
			c24.75195,0,44.88916,20.13672,44.88916,44.88867s-20.13721,44.88965-44.88916,44.88965
			c-24.75146,0-44.88867-20.1377-44.88867-44.88965S142.9165,121.27539,167.66797,121.27539z"/>
		<path fill="#909090" d="M334,15.67859V3.80542C332.74731,2.52246,331.48047,1.25391,330.19873,0h-11.85608
			C323.81482,4.96667,329.03943,10.20081,334,15.67859z"/>
		<path fill="#909090" d="M167.66797,186.56641c11.25,0,20.40283-9.15234,20.40283-20.40234s-9.15283-20.40234-20.40283-20.40234
			c-11.24072,0-20.38574,9.15234-20.38574,20.40234S156.42725,186.56641,167.66797,186.56641z M167.66797,153.91309
			c6.75586,0,12.25195,5.49609,12.25195,12.25098c0,6.75586-5.49609,12.25195-12.25195,12.25195
			c-6.74609,0-12.23486-5.49609-12.23486-12.25195C155.43311,159.40918,160.92188,153.91309,167.66797,153.91309z"/>
		<path fill="#909090" d="M167.66797,284.47852c65.23877,0,118.31445-53.0752,118.31445-118.31445
			S232.90674,47.84961,167.66797,47.84961c-65.24854,0-118.33154,53.0752-118.33154,118.31445
			S102.41943,284.47852,167.66797,284.47852z M167.66797,56.00098c60.74463,0,110.16406,49.41895,110.16406,110.16309
			S228.4126,276.32812,167.66797,276.32812c-60.75391,0-110.18066-49.41992-110.18066-110.16406
			S106.91406,56.00098,167.66797,56.00098z"/>
		<path fill="#909090" d="M167.66797,268.16016c56.24072,0,101.99609-45.75488,101.99609-101.99609
			c0-56.24023-45.75537-101.99512-101.99609-101.99512c-56.25,0-102.0127,45.75488-102.0127,101.99512
			C65.65527,222.40527,111.41797,268.16016,167.66797,268.16016z M167.66797,72.31934
			c51.74658,0,93.84521,42.09863,93.84521,93.84473c0,51.74707-42.09863,93.8457-93.84521,93.8457
			s-93.84521-42.09863-93.84521-93.8457C73.82275,114.41797,115.92139,72.31934,167.66797,72.31934z"/>
		<path fill="#909090" d="M167.66797,235.52246c38.24463,0,69.3584-31.11426,69.3584-69.3584s-31.11377-69.3584-69.3584-69.3584
			s-69.3584,31.11426-69.3584,69.3584S129.42334,235.52246,167.66797,235.52246z M167.66797,104.95703
			c33.75,0,61.20801,27.45703,61.20801,61.20703s-27.45801,61.20801-61.20801,61.20801s-61.20752-27.45801-61.20752-61.20801
			S133.91797,104.95703,167.66797,104.95703z"/>
		<path fill="#909090" d="M167.65088,317.13281c83.24463,0,150.96875-67.72461,150.96875-150.96875
			S250.89551,15.19531,167.65088,15.19531c-83.23535,0-150.95166,67.72461-150.95166,150.96875
			S84.41553,317.13281,167.65088,317.13281z M167.65137,23.34668c78.75,0,142.81787,64.06738,142.81787,142.81738
			s-64.06787,142.81836-142.81787,142.81836c-78.74072,0-142.80127-64.06836-142.80127-142.81836
			S88.91064,23.34668,167.65137,23.34668z"/>
		<path fill="#909090" d="M334,41.26025V28.1366C325.50952,17.92261,316.09766,8.50244,305.89404,0h-13.10327
			C308.37354,11.76318,322.25696,25.6615,334,41.26025z"/>
		<path fill="#909090" d="M167.65137,300.81445c74.24609,0,134.6499-60.4043,134.6499-134.65039
			S241.89746,31.51465,167.65137,31.51465c-74.2373,0-134.6333,60.40332-134.6333,134.64941S93.41406,300.81445,167.65137,300.81445
			z M167.66797,39.68164c69.74268,0,126.48242,56.74023,126.48242,126.48242s-56.73975,126.48242-126.48242,126.48242
			c-69.75195,0-126.49951-56.74023-126.49951-126.48242S97.91602,39.68164,167.66797,39.68164z"/>
		<path fill="#909090" d="M334,328.52319v-11.8728C328.4762,322.75,322.61523,328.53711,316.45996,334h12.0271
			C330.35718,332.20728,332.19019,330.37695,334,328.52319z"/>
		<path fill="#909090" d="M0,315.14502v12.02246c2.23242,2.32373,4.51099,4.60278,6.83728,6.83252h12.0387
			C12.21899,328.0918,5.91565,321.79541,0,315.14502z"/>
		<path fill="#909090" d="M0,289.26099v13.30054C9.39148,314.08447,19.94409,324.62231,31.47876,334h13.32227
			C27.69775,321.44556,12.57715,306.34644,0,289.26099z"/>
		<path fill="#909090" d="M0,217.89844v23.05762C18.5116,282.29297,51.87244,315.57959,93.2583,334h23.23584
			C61.01685,317.05127,17.12866,273.29834,0,217.89844z"/>
		<path fill="#909090" d="M0,259.1543v15.77637C15.35413,298.5188,35.54321,318.68091,59.15588,334h15.82141
			C43.53711,316.56738,17.4873,290.5603,0,259.1543z"/>
		<path fill="#909090" d="M334,243.8562v-21.81909C316.0033,275.47266,272.93054,317.47559,218.84204,334h23.23547
			C282.48999,316.0127,315.24548,283.84766,334,243.8562z"/>
		<path fill="#909090" d="M167.66797,251.8418c47.24268,0,85.67725-38.43457,85.67725-85.67773
			c0-47.24219-38.43457-85.67676-85.67725-85.67676s-85.67725,38.43457-85.67725,85.67676
			C81.99072,213.40723,120.42529,251.8418,167.66797,251.8418z M167.66797,88.6377c42.74805,0,77.52637,34.77832,77.52637,77.52637
			s-34.77832,77.52637-77.52637,77.52637S90.1416,208.91211,90.1416,166.16406S124.91992,88.6377,167.66797,88.6377z"/>
		<path fill="#909090" d="M334,276.95923v-15.4187C316.53479,291.88135,291.00122,317.00928,260.35852,334h15.8219
			C299.11377,319.12158,318.81836,299.67603,334,276.95923z"/>
		<path fill="#909090" d="M334,304.19189v-13.12402C321.69421,307.41406,307.03467,321.88892,290.53564,334h13.32178
			C314.8468,325.06567,324.94824,315.0813,334,304.19189z"/>
		<path fill="#909090" d="M334,70.78821V55.3689C319.3811,33.49414,300.56934,14.65137,278.71814,0H263.328
			C292.65308,16.948,317.10107,41.43152,334,70.78821z"/>
		<path fill="#909090" d="M42.54578,0H29.44214C18.69873,8.95215,8.83667,18.92505,0,29.76709v13.30005
			C12.02246,26.73535,26.36523,12.21448,42.54578,0z"/>
		<path fill="#909090" d="M16.99329,0H5.12549C3.39221,1.69556,1.67993,3.41248,0,5.16113v12.02271
			C5.35791,11.1604,11.02441,5.41748,16.99329,0z"/>
		<path fill="#909090" d="M0.38086,166.16406c0,92.24316,75.04443,167.28809,167.28711,167.28809
			c86.20715,0,157.3855-65.54785,166.33203-149.4209v-35.73413C325.73193,70.78491,264.30957,8.93591,186.99561,0h-38.65527
			C65.16956,9.61279,0.38086,80.45898,0.38086,166.16406z M167.65088,7.02734c87.74805,0,159.13672,71.38867,159.13672,159.13672
			s-71.38867,159.13672-159.13672,159.13672c-87.73877,0-159.11963-71.38867-159.11963-159.13672
			S79.91211,7.02734,167.65088,7.02734z"/>
		<path fill="#909090" d="M111.29297,0H89.61719C49.91772,18.72278,17.96533,51.25574,0,91.37256v23.05762
			C16.59009,60.77271,58.28052,18.03442,111.29297,0z"/>
		<path fill="#909090" d="M72.00781,0H56.61816C34.0946,15.10205,14.80139,34.65845,0,57.39734v15.7771
			C16.93457,42.76123,41.89404,17.40381,72.00781,0z"/>
		<path fill="#6F6F6F" d="M167.66797,178.41602c6.75586,0,12.25195-5.49609,12.25195-12.25195
			c0-6.75488-5.49609-12.25098-12.25195-12.25098c-6.74609,0-12.23486,5.49609-12.23486,12.25098
			C155.43311,172.91992,160.92188,178.41602,167.66797,178.41602z M167.66797,162.08105c2.25195,0,4.08398,1.83203,4.08398,4.08301
			c0,2.25195-1.83203,4.08398-4.08398,4.08398c-2.24268,0-4.06689-1.83203-4.06689-4.08398
			C163.60107,163.91309,165.42529,162.08105,167.66797,162.08105z"/>
		<path fill="#6F6F6F" d="M167.66797,194.73438c15.75391,0,28.5708-12.81641,28.5708-28.57031s-12.81689-28.57031-28.5708-28.57031
			c-15.74463,0-28.55371,12.81641-28.55371,28.57031S151.92334,194.73438,167.66797,194.73438z M167.66797,145.76172
			c11.25,0,20.40283,9.15234,20.40283,20.40234s-9.15283,20.40234-20.40283,20.40234
			c-11.24072,0-20.38574-9.15234-20.38574-20.40234S156.42725,145.76172,167.66797,145.76172z"/>
		<path fill="#6F6F6F" d="M167.66797,211.05371c24.75195,0,44.88916-20.1377,44.88916-44.88965
			s-20.13721-44.88867-44.88916-44.88867c-24.75146,0-44.88867,20.13672-44.88867,44.88867S142.9165,211.05371,167.66797,211.05371z
			 M167.66797,129.44336c20.24805,0,36.72119,16.47266,36.72119,36.7207s-16.47314,36.72168-36.72119,36.72168
			s-36.7207-16.47363-36.7207-36.72168S147.41992,129.44336,167.66797,129.44336z"/>
		<path fill="#6F6F6F" d="M167.66797,227.37207c33.75,0,61.20801-27.45801,61.20801-61.20801s-27.45801-61.20703-61.20801-61.20703
			s-61.20752,27.45703-61.20752,61.20703S133.91797,227.37207,167.66797,227.37207z M167.66797,113.125
			c29.24658,0,53.04004,23.79297,53.04004,53.03906s-23.79346,53.04004-53.04004,53.04004
			c-29.24609,0-53.03955-23.79395-53.03955-53.04004S138.42188,113.125,167.66797,113.125z"/>
		<path fill="#6F6F6F" d="M167.66797,243.69043c42.74805,0,77.52637-34.77832,77.52637-77.52637
			S210.41602,88.6377,167.66797,88.6377S90.1416,123.41602,90.1416,166.16406S124.91992,243.69043,167.66797,243.69043z
			 M167.66797,96.80566c38.24463,0,69.3584,31.11426,69.3584,69.3584s-31.11377,69.3584-69.3584,69.3584
			s-69.3584-31.11426-69.3584-69.3584S129.42334,96.80566,167.66797,96.80566z"/>
		<path fill="#6F6F6F" d="M167.66797,260.00977c51.74658,0,93.84521-42.09863,93.84521-93.8457
			c0-51.74609-42.09863-93.84473-93.84521-93.84473s-93.84521,42.09863-93.84521,93.84473
			C73.82275,217.91113,115.92139,260.00977,167.66797,260.00977z M167.66797,80.4873
			c47.24268,0,85.67725,38.43457,85.67725,85.67676c0,47.24316-38.43457,85.67773-85.67725,85.67773
			s-85.67725-38.43457-85.67725-85.67773C81.99072,118.92188,120.42529,80.4873,167.66797,80.4873z"/>
		<path fill="#6F6F6F" d="M167.66797,276.32812c60.74463,0,110.16406-49.41992,110.16406-110.16406
			S228.4126,56.00098,167.66797,56.00098c-60.75391,0-110.18066,49.41895-110.18066,110.16309
			S106.91406,276.32812,167.66797,276.32812z M167.66797,64.16895c56.24072,0,101.99609,45.75488,101.99609,101.99512
			c0,56.24121-45.75537,101.99609-101.99609,101.99609c-56.25,0-102.0127-45.75488-102.0127-101.99609
			C65.65527,109.92383,111.41797,64.16895,167.66797,64.16895z"/>
		<path fill="#6F6F6F" d="M167.66797,292.64648c69.74268,0,126.48242-56.74023,126.48242-126.48242
			S237.41064,39.68164,167.66797,39.68164c-69.75195,0-126.49951,56.74023-126.49951,126.48242
			S97.91602,292.64648,167.66797,292.64648z M167.66797,47.84961c65.23877,0,118.31445,53.0752,118.31445,118.31445
			s-53.07568,118.31445-118.31445,118.31445c-65.24854,0-118.33154-53.0752-118.33154-118.31445
			S102.41943,47.84961,167.66797,47.84961z"/>
		<path fill="#6F6F6F" d="M167.65137,308.98242c78.75,0,142.81787-64.06836,142.81787-142.81836
			S246.40137,23.34668,167.65137,23.34668c-78.74072,0-142.80127,64.06738-142.80127,142.81738
			S88.91064,308.98242,167.65137,308.98242z M167.65137,31.51465c74.24609,0,134.6499,60.40332,134.6499,134.64941
			s-60.40381,134.65039-134.6499,134.65039c-74.2373,0-134.6333-60.4043-134.6333-134.65039S93.41406,31.51465,167.65137,31.51465z"
			/>
		<path fill="#6F6F6F" d="M167.65088,325.30078c87.74805,0,159.13672-71.38867,159.13672-159.13672
			S255.39893,7.02734,167.65088,7.02734c-87.73877,0-159.11963,71.38867-159.11963,159.13672
			S79.91211,325.30078,167.65088,325.30078z M167.65088,15.19531c83.24463,0,150.96875,67.72461,150.96875,150.96875
			s-67.72412,150.96875-150.96875,150.96875c-83.23535,0-150.95166-67.72461-150.95166-150.96875
			S84.41553,15.19531,167.65088,15.19531z"/>
		<path fill="#6F6F6F" d="M334,222.03711v-38.00586c-8.94653,83.87305-80.12488,149.4209-166.33203,149.4209
			c-92.24268,0-167.28711-75.04492-167.28711-167.28809C0.38086,80.45898,65.16956,9.61279,148.34033,0h-37.04736
			C58.28052,18.03442,16.59009,60.77271,0,114.43018v103.46826C17.12866,273.29834,61.01685,317.05127,116.49414,334h102.3479
			C272.93054,317.47559,316.0033,275.47266,334,222.03711z"/>
		<path fill="#6F6F6F" d="M334,148.29712V110.2915C316.58374,58.57971,275.68555,17.56824,224.04309,0h-37.04749
			C264.30957,8.93591,325.73193,70.78491,334,148.29712z"/>
		<path fill="#6F6F6F" d="M89.61719,0H72.00781C41.89404,17.40381,16.93457,42.76123,0,73.17444v18.19812
			C17.96533,51.25574,49.91772,18.72278,89.61719,0z"/>
		<path fill="#6F6F6F" d="M334,88.47253V70.78821C317.10107,41.43152,292.65308,16.948,263.328,0h-17.60925
			C284.45605,18.26904,315.81226,49.6897,334,88.47253z"/>
		<path fill="#6F6F6F" d="M334,261.54053V243.8562C315.24548,283.84766,282.48999,316.0127,242.07751,334h18.28101
			C291.00122,317.00928,316.53479,291.88135,334,261.54053z"/>
		<path fill="#6F6F6F" d="M0,240.95605v18.19824C17.4873,290.5603,43.53711,316.56738,74.97729,334H93.2583
			C51.87244,315.57959,18.5116,282.29297,0,240.95605z"/>
		<path fill="#6F6F6F" d="M56.61816,0H42.54578C26.36523,12.21448,12.02246,26.73535,0,43.06714v14.3302
			C14.80139,34.65845,34.0946,15.10205,56.61816,0z"/>
		<path fill="#6F6F6F" d="M334,291.06787v-14.10864c-15.18164,22.7168-34.88623,42.16235-57.81958,57.04077h14.35522
			C307.03467,321.88892,321.69421,307.41406,334,291.06787z"/>
		<path fill="#6F6F6F" d="M0,274.93066v14.33032C12.57715,306.34644,27.69775,321.44556,44.80103,334h14.35486
			C35.54321,318.68091,15.35413,298.5188,0,274.93066z"/>
		<path fill="#6F6F6F" d="M334,55.3689V41.26025C322.25696,25.6615,308.37354,11.76318,292.79077,0h-14.07263
			C300.56934,14.65137,319.3811,33.49414,334,55.3689z"/>
		<path fill="#6F6F6F" d="M334,28.1366V15.67859C329.03943,10.20081,323.81482,4.96667,318.34265,0h-12.44861
			C316.09766,8.50244,325.50952,17.92261,334,28.1366z"/>
		<path fill="#6F6F6F" d="M29.44214,0H16.99329C11.02441,5.41748,5.35791,11.1604,0,17.18384v12.58325
			C8.83667,18.92505,18.69873,8.95215,29.44214,0z"/>
		<path fill="#6F6F6F" d="M334,316.65039v-12.4585c-9.05176,10.8894-19.1532,20.87378-30.14258,29.80811h12.60254
			C322.61523,328.53711,328.4762,322.75,334,316.65039z"/>
		<path fill="#6F6F6F" d="M0,302.56152v12.5835C5.91565,321.79541,12.21899,328.0918,18.87598,334h12.60278
			C19.94409,324.62231,9.39148,314.08447,0,302.56152z"/>
		<path fill="#6F6F6F" d="M334,3.80542V0h-3.80127C331.48047,1.25391,332.74731,2.52246,334,3.80542z"/>
		<path fill="#6F6F6F" d="M334,328.52319c-1.80981,1.85376-3.64282,3.68408-5.51294,5.47681H334V328.52319z"/>
		<path fill="#6F6F6F" d="M5.12549,0H0v5.16113C1.67993,3.41248,3.39221,1.69556,5.12549,0z"/>
		<path fill="#6F6F6F" d="M0,327.16748V334h6.83728C4.51099,331.77026,2.23242,329.49121,0,327.16748z"/>
	</g>
</g>
<g id="Layer_3" display="none">
</g>
<g id="Layer_2" display="none">
</g>
</svg>
