<?xml version="1.0" encoding="utf-8"?>
<!-- Generator: Adobe Illustrator 21.1.0, SVG Export Plug-In . SVG Version: 6.00 Build 0)  -->
<svg version="1.2" baseProfile="tiny" xmlns="http://www.w3.org/2000/svg" xmlns:xlink="http://www.w3.org/1999/xlink" x="0px"
	 y="0px" viewBox="0 0 334 334" xml:space="preserve">
<g id="Layer_1">
	<g>
		<path fill="#FFFFFF" d="M167,132.80127c-18.76514,0-34.03174,15.2666-34.03174,34.03174S148.23486,200.86475,167,200.86475
			s34.03174-15.2666,34.03174-34.03174S185.76514,132.80127,167,132.80127z M167,187.25244
			c-11.25928,0-20.41943-9.16016-20.41943-20.41943S155.74072,146.41357,167,146.41357s20.41943,9.16016,20.41943,20.41943
			S178.25928,187.25244,167,187.25244z"/>
		<circle fill="#FFFFFF" cx="167" cy="166.83301" r="6.80615"/>
		<path fill="#FFFFFF" d="M167,105.57568c-33.77783,0-61.25781,27.47998-61.25781,61.25732S133.22217,228.09033,167,228.09033
			c33.77734,0,61.25732-27.47998,61.25732-61.25732S200.77734,105.57568,167,105.57568z M167,214.47803
			c-26.27148,0-47.64502-21.37354-47.64502-47.64502S140.72852,119.18799,167,119.18799s47.64502,21.37354,47.64502,47.64502
			S193.27148,214.47803,167,214.47803z"/>
		<path fill="#FFFFFF" d="M167,78.3501c-48.79004,0-88.4834,39.69336-88.4834,88.48291S118.20996,255.31592,167,255.31592
			c48.78955,0,88.48291-39.69336,88.48291-88.48291S215.78955,78.3501,167,78.3501z M167,241.70361
			c-41.28369,0-74.87109-33.58691-74.87109-74.87061S125.71631,91.9624,167,91.9624s74.87061,33.58691,74.87061,74.87061
			S208.28369,241.70361,167,241.70361z"/>
		<path fill="#FFFFFF" d="M0,243.45984v28.45618C15.81439,296.96313,37.10095,318.21985,62.17065,334h28.53583
			C50.7182,315.67383,18.40076,283.40955,0,243.45984z"/>
		<path fill="#FFFFFF" d="M89.99042,0h-28.354C36.79779,15.74536,15.70227,36.88062,0,61.75024v28.45557
			C18.29047,50.49524,50.33337,18.38232,89.99042,0z"/>
		<path fill="#FFFFFF" d="M334,38.02832V16.79834C328.70465,10.91016,323.10516,5.30188,317.2229,0h-21.2005
			C310.23352,11.01562,323.00244,23.80249,334,38.02832z"/>
		<path fill="#FFFFFF" d="M37.98779,0H16.78809C10.90167,5.30591,5.29858,10.91895,0,16.81213v21.23328
			C10.99969,23.81287,23.77203,11.02002,37.98779,0z"/>
		<path fill="#FFFFFF" d="M0,295.62073v21.23303C5.41077,322.87183,11.14136,328.59497,17.16449,334h21.25818
			C24.03302,322.90442,11.11139,309.99805,0,295.62073z"/>
		<path fill="#FFFFFF" d="M334,90.17346V61.72778C318.29791,36.8678,297.20581,15.7406,272.37256,0h-28.3559
			C283.6665,18.3772,315.70538,50.47791,334,90.17346z"/>
		<path fill="#FFFFFF" d="M167,51.12451c-63.80225,0-115.70898,51.90625-115.70898,115.7085S103.19775,282.54199,167,282.54199
			s115.70898-51.90674,115.70898-115.70898S230.80225,51.12451,167,51.12451z M167,268.9292
			c-56.29639,0-102.09668-45.80029-102.09668-102.09619S110.70361,64.73682,167,64.73682
			c56.2959,0,102.09619,45.80029,102.09619,102.09619S223.2959,268.9292,167,268.9292z"/>
		<path fill="#FFFFFF" d="M334,271.93848v-28.44629C315.59503,283.42688,283.28162,315.67883,243.30048,334h28.53778
			C296.90253,318.22461,318.18579,296.97595,334,271.93848z"/>
		<path fill="#FFFFFF" d="M167,23.89844c-78.80518,0-142.91797,64.12012-142.91797,142.93457S88.19482,309.76758,167,309.76758
			c78.81445,0,142.93457-64.12012,142.93457-142.93457S245.81445,23.89844,167,23.89844z M167,296.15527
			c-71.30859,0-129.32227-58.01367-129.32227-129.32227C37.67773,95.5249,95.69141,37.51123,167,37.51123
			S296.32227,95.5249,296.32227,166.83301C296.32227,238.1416,238.30859,296.15527,167,296.15527z"/>
		<path fill="#FFFFFF" d="M334,316.86768v-21.22974C322.89069,310.0083,309.97253,322.90881,295.58746,334h21.25903
			C322.86548,328.59912,328.59247,322.88062,334,316.86768z"/>
		<path fill="#FFFFFF" d="M334,199.50549V134.1604C320.8418,66.78003,267.80072,13.50049,200.54187,0h-67.08044
			C66.18085,13.5061,13.12897,66.82483,0,134.24536v65.17517C13.24188,267.4209,67.09839,321.07031,135.20227,334h63.59863
			C266.88312,321.07581,320.72858,267.46558,334,199.50549z M167,323.38086c-86.31152,0-156.53125-70.22705-156.53125-156.54785
			S80.68848,10.28516,167,10.28516c86.3208,0,156.54785,70.22705,156.54785,156.54785S253.3208,323.38086,167,323.38086z"/>
		<path d="M167,146.41357c-11.25928,0-20.41943,9.16016-20.41943,20.41943S155.74072,187.25244,167,187.25244
			s20.41943-9.16016,20.41943-20.41943S178.25928,146.41357,167,146.41357z M167,173.63916
			c-3.75293,0-6.80615-3.05322-6.80615-6.80615s3.05322-6.80615,6.80615-6.80615s6.80615,3.05322,6.80615,6.80615
			S170.75293,173.63916,167,173.63916z"/>
		<path d="M167,119.18799c-26.27148,0-47.64502,21.37354-47.64502,47.64502S140.72852,214.47803,167,214.47803
			s47.64502-21.37354,47.64502-47.64502S193.27148,119.18799,167,119.18799z M167,200.86475
			c-18.76514,0-34.03174-15.2666-34.03174-34.03174S148.23486,132.80127,167,132.80127s34.03174,15.2666,34.03174,34.03174
			S185.76514,200.86475,167,200.86475z"/>
		<path d="M167,91.9624c-41.28369,0-74.87109,33.58691-74.87109,74.87061S125.71631,241.70361,167,241.70361
			s74.87061-33.58691,74.87061-74.87061S208.28369,91.9624,167,91.9624z M167,228.09033
			c-33.77783,0-61.25781-27.47998-61.25781-61.25732S133.22217,105.57568,167,105.57568
			c33.77734,0,61.25732,27.47998,61.25732,61.25732S200.77734,228.09033,167,228.09033z"/>
		<path d="M167,64.73682c-56.29639,0-102.09668,45.80029-102.09668,102.09619S110.70361,268.9292,167,268.9292
			c56.2959,0,102.09619-45.80029,102.09619-102.09619S223.2959,64.73682,167,64.73682z M167,255.31592
			c-48.79004,0-88.4834-39.69336-88.4834-88.48291S118.20996,78.3501,167,78.3501c48.78955,0,88.48291,39.69336,88.48291,88.48291
			S215.78955,255.31592,167,255.31592z"/>
		<path d="M167,37.51123c-71.30859,0-129.32227,58.01367-129.32227,129.32178c0,71.30859,58.01367,129.32227,129.32227,129.32227
			s129.32227-58.01367,129.32227-129.32227C296.32227,95.5249,238.30859,37.51123,167,37.51123z M167,282.54199
			c-63.80225,0-115.70898-51.90674-115.70898-115.70898S103.19775,51.12451,167,51.12451s115.70898,51.90625,115.70898,115.7085
			S230.80225,282.54199,167,282.54199z"/>
		<path d="M167,10.28516c-86.31152,0-156.53125,70.22705-156.53125,156.54785S80.68848,323.38086,167,323.38086
			c86.3208,0,156.54785-70.22705,156.54785-156.54785S253.3208,10.28516,167,10.28516z M167,309.76758
			c-78.80518,0-142.91797-64.12012-142.91797-142.93457S88.19482,23.89844,167,23.89844
			c78.81445,0,142.93457,64.12012,142.93457,142.93457S245.81445,309.76758,167,309.76758z"/>
		<path d="M0,199.42053v44.03931C18.40076,283.40955,50.7182,315.67383,90.70648,334h44.49579
			C67.09839,321.07031,13.24188,267.4209,0,199.42053z"/>
		<path d="M334,134.1604V90.17346C315.70538,50.47791,283.6665,18.3772,244.01666,0h-43.47479
			C267.80072,13.50049,320.8418,66.78003,334,134.1604z"/>
		<path d="M133.46143,0H89.99042C50.33337,18.38232,18.29047,50.49524,0,90.20581v44.03955
			C13.12897,66.82483,66.18085,13.5061,133.46143,0z"/>
		<path d="M334,243.49219v-43.98669C320.72858,267.46558,266.88312,321.07581,198.8009,334h44.49957
			C283.28162,315.67883,315.59503,283.42688,334,243.49219z"/>
		<path d="M334,295.63794v-23.69946C318.18579,296.97595,296.90253,318.22461,271.83826,334h23.74921
			C309.97253,322.90881,322.89069,310.0083,334,295.63794z"/>
		<path d="M61.63641,0H37.98779C23.77203,11.02002,10.99969,23.81287,0,38.04541v23.70483
			C15.70227,36.88062,36.79779,15.74536,61.63641,0z"/>
		<path d="M334,61.72778V38.02832C323.00244,23.80249,310.23352,11.01562,296.0224,0h-23.64984
			C297.20581,15.7406,318.29791,36.8678,334,61.72778z"/>
		<path d="M0,271.91602v23.70471C11.11139,309.99805,24.03302,322.90442,38.42267,334h23.74799
			C37.10095,318.21985,15.81439,296.96313,0,271.91602z"/>
		<path d="M334,316.86768c-5.40753,6.01294-11.13452,11.73145-17.1535,17.13232H334V316.86768z"/>
		<path d="M16.78809,0H0v16.81213C5.29858,10.91895,10.90167,5.30591,16.78809,0z"/>
		<path d="M0,316.85376V334h17.16449C11.14136,328.59497,5.41077,322.87183,0,316.85376z"/>
		<path d="M334,16.79834V0h-16.7771C323.10516,5.30188,328.70465,10.91016,334,16.79834z"/>
	</g>
</g>
<g id="Layer_3" display="none">
</g>
<g id="Layer_2" display="none">
</g>
</svg>
