<?xml version="1.0" encoding="utf-8"?>
<!-- Generator: Adobe Illustrator 21.1.0, SVG Export Plug-In . SVG Version: 6.00 Build 0)  -->
<svg version="1.2" baseProfile="tiny" xmlns="http://www.w3.org/2000/svg" xmlns:xlink="http://www.w3.org/1999/xlink" x="0px"
	 y="0px" viewBox="0 0 334 334" xml:space="preserve">
<g id="Layer_1">
	<g>
		<path fill="#FFFFFF" d="M167,77.91504c-49.39795,0-89.58594,40.18848-89.58594,89.58594S117.60205,257.08691,167,257.08691
			s89.58594-40.18848,89.58594-89.58594S216.39795,77.91504,167,77.91504z M167,246.54688
			c-43.58643,0-79.04639-35.45996-79.04639-79.0459S123.41357,88.45508,167,88.45508s79.0459,35.45996,79.0459,79.0459
			S210.58643,246.54688,167,246.54688z"/>
		<path fill="#FFFFFF" d="M89.83594,0H67.30347C39.7597,16.4563,16.59088,39.50391,0,66.95801v22.30688
			C18.47845,49.97974,50.41431,18.23315,89.83594,0z"/>
		<path fill="#FFFFFF" d="M48.03595,0H30.68781C19.47198,9.14453,9.18506,19.3855,0,30.56702v17.28357
			C13.26819,29.38428,29.51294,13.19385,48.03595,0z"/>
		<path fill="#FFFFFF" d="M14.54553,0H0v14.50842C4.63019,9.4585,9.48065,4.61401,14.54553,0z"/>
		<path fill="#FFFFFF" d="M167,35.75684c-72.64404,0-131.74414,59.10059-131.74414,131.74414S94.35596,299.24512,167,299.24512
			s131.74414-59.10059,131.74414-131.74414S239.64404,35.75684,167,35.75684z M167,288.70508
			c-66.83252,0-121.2041-54.37207-121.2041-121.2041S100.16748,46.29688,167,46.29688s121.2041,54.37207,121.2041,121.2041
			S233.83252,288.70508,167,288.70508z"/>
		<path fill="#FFFFFF" d="M167,56.83594c-61.021,0-110.66504,49.64453-110.66504,110.66504S105.979,278.16602,167,278.16602
			s110.66504-49.64453,110.66504-110.66504S228.021,56.83594,167,56.83594z M167,267.62598
			c-55.20947,0-100.125-44.91602-100.125-100.125S111.79053,67.37598,167,67.37598s100.125,44.91602,100.125,100.125
			S222.20947,267.62598,167,267.62598z"/>
		<path fill="#FFFFFF" d="M0,320.49329V334h13.4696C8.79486,329.68604,4.29901,325.18201,0,320.49329z"/>
		<circle fill="#FFFFFF" cx="167" cy="167.50073" r="5.27002"/>
		<path fill="#FFFFFF" d="M334,89.26587V66.95801C317.40912,39.50391,294.2403,16.4563,266.69653,0h-22.53278
			C283.58563,18.2334,315.52167,49.98047,334,89.26587z"/>
		<path fill="#FFFFFF" d="M167,141.15137c-14.52881,0-26.34912,11.82031-26.34912,26.34961
			c0,14.52832,11.82031,26.34863,26.34912,26.34863c14.52832,0,26.34863-11.82031,26.34863-26.34863
			C193.34863,152.97168,181.52832,141.15137,167,141.15137z M167,183.30957c-8.71729,0-15.80908-7.0918-15.80908-15.80859
			c0-8.71777,7.0918-15.80957,15.80908-15.80957s15.80908,7.0918,15.80908,15.80957
			C182.80908,176.21777,175.71729,183.30957,167,183.30957z"/>
		<path fill="#FFFFFF" d="M167,120.07227c-26.15186,0-47.42822,21.27637-47.42822,47.42871
			c0,26.15137,21.27637,47.42773,47.42822,47.42773s47.42773-21.27637,47.42773-47.42773
			C214.42773,141.34863,193.15186,120.07227,167,120.07227z M167,204.38867c-20.34033,0-36.88818-16.54785-36.88818-36.8877
			c0-20.34082,16.54785-36.88867,36.88818-36.88867c20.33984,0,36.8877,16.54785,36.8877,36.88867
			C203.8877,187.84082,187.33984,204.38867,167,204.38867z"/>
		<path fill="#FFFFFF" d="M334,14.50842V0h-14.54553C324.51935,4.61401,329.36981,9.4585,334,14.50842z"/>
		<path fill="#FFFFFF" d="M0,287.15125v17.28357C8.84888,315.20691,18.71484,325.11267,29.45416,334h17.20935
			C28.71277,320.98999,12.93762,305.15747,0,287.15125z"/>
		<path fill="#FFFFFF" d="M167,98.99414c-37.7749,0-68.50732,30.73242-68.50732,68.50684S129.2251,236.00781,167,236.00781
			s68.50684-30.73242,68.50684-68.50684S204.7749,98.99414,167,98.99414z M167,225.46777
			c-31.96338,0-57.96729-26.00391-57.96729-57.9668c0-31.96387,26.00391-57.96777,57.96729-57.96777
			c31.96289,0,57.9668,26.00391,57.9668,57.96777C224.9668,199.46387,198.96289,225.46777,167,225.46777z"/>
		<path fill="#FFFFFF" d="M0,245.73706v22.30688C16.2547,294.94165,38.81921,317.61621,65.63025,334h22.06378
			C49.25659,315.61792,18.14301,284.30884,0,245.73706z"/>
		<path fill="#FFFFFF" d="M334,304.43481v-17.28357C321.06238,305.15747,305.28723,320.98999,287.33649,334h17.20935
			C315.28516,325.11267,325.15112,315.20691,334,304.43481z"/>
		<path fill="#FFFFFF" d="M167,14.67773c-84.26709,0-152.82324,68.55664-152.82324,152.82324S82.73291,320.32324,167,320.32324
			c84.2666,0,152.82275-68.55566,152.82275-152.82227S251.2666,14.67773,167,14.67773z M167,309.78418
			c-78.45557,0-142.2832-63.82812-142.2832-142.2832S88.54443,25.21777,167,25.21777s142.2832,63.82812,142.2832,142.2832
			S245.45557,309.78418,167,309.78418z"/>
		<path fill="#FFFFFF" d="M334,268.04395v-22.30798C315.85706,284.30835,284.74335,315.6178,246.30566,334h22.06409
			C295.18079,317.61621,317.7453,294.94165,334,268.04395z"/>
		<path fill="#FFFFFF" d="M320.5304,334H334v-13.50671C329.70099,325.18201,325.20514,329.68604,320.5304,334z"/>
		<path fill="#FFFFFF" d="M334,47.85059V30.56702C324.81494,19.3855,314.52802,9.14453,303.31219,0h-17.34814
			C304.48706,13.19385,320.73181,29.38428,334,47.85059z"/>
		<path fill="#FFFFFF" d="M334,216.03882v-97.07568C317.25696,61.44946,271.54761,16.15479,213.78851,0h-93.57727
			C62.45251,16.15466,16.74347,61.44873,0,118.96143v97.0791C16.41064,272.40991,60.64825,317.0376,116.78302,334h100.43372
			C273.35181,317.03735,317.58978,272.40906,334,216.03882z M167,330.8623c-90.07861,0-163.3623-73.2832-163.3623-163.36133
			S76.92139,4.13867,167,4.13867c90.07812,0,163.36182,73.28418,163.36182,163.3623S257.07812,330.8623,167,330.8623z"/>
		<path d="M167,151.69141c-8.71729,0-15.80908,7.0918-15.80908,15.80957c0,8.7168,7.0918,15.80859,15.80908,15.80859
			s15.80908-7.0918,15.80908-15.80859C182.80908,158.7832,175.71729,151.69141,167,151.69141z M167,172.77051
			c-2.90576,0-5.27002-2.36426-5.27002-5.26953c0-2.90625,2.36426-5.27051,5.27002-5.27051s5.27002,2.36426,5.27002,5.27051
			C172.27002,170.40625,169.90576,172.77051,167,172.77051z"/>
		<path d="M167,130.6123c-20.34033,0-36.88818,16.54785-36.88818,36.88867c0,20.33984,16.54785,36.8877,36.88818,36.8877
			c20.33984,0,36.8877-16.54785,36.8877-36.8877C203.8877,147.16016,187.33984,130.6123,167,130.6123z M167,193.84961
			c-14.52881,0-26.34912-11.82031-26.34912-26.34863c0-14.5293,11.82031-26.34961,26.34912-26.34961
			c14.52832,0,26.34863,11.82031,26.34863,26.34961C193.34863,182.0293,181.52832,193.84961,167,193.84961z"/>
		<path d="M167,109.5332c-31.96338,0-57.96729,26.00391-57.96729,57.96777c0,31.96289,26.00391,57.9668,57.96729,57.9668
			c31.96289,0,57.9668-26.00391,57.9668-57.9668C224.9668,135.53711,198.96289,109.5332,167,109.5332z M167,214.92871
			c-26.15186,0-47.42822-21.27637-47.42822-47.42773c0-26.15234,21.27637-47.42871,47.42822-47.42871
			s47.42773,21.27637,47.42773,47.42871C214.42773,193.65234,193.15186,214.92871,167,214.92871z"/>
		<path d="M167,88.45508c-43.58643,0-79.04639,35.45996-79.04639,79.0459s35.45996,79.0459,79.04639,79.0459
			s79.0459-35.45996,79.0459-79.0459S210.58643,88.45508,167,88.45508z M167,236.00781
			c-37.7749,0-68.50732-30.73242-68.50732-68.50684S129.2251,98.99414,167,98.99414s68.50684,30.73242,68.50684,68.50684
			S204.7749,236.00781,167,236.00781z"/>
		<path d="M167,67.37598c-55.20947,0-100.125,44.91602-100.125,100.125s44.91553,100.125,100.125,100.125
			s100.125-44.91602,100.125-100.125S222.20947,67.37598,167,67.37598z M167,257.08691
			c-49.39795,0-89.58594-40.18848-89.58594-89.58594S117.60205,77.91504,167,77.91504s89.58594,40.18848,89.58594,89.58594
			S216.39795,257.08691,167,257.08691z"/>
		<path d="M167,46.29688c-66.83252,0-121.2041,54.37207-121.2041,121.2041S100.16748,288.70508,167,288.70508
			s121.2041-54.37207,121.2041-121.2041S233.83252,46.29688,167,46.29688z M167,278.16602
			c-61.021,0-110.66504-49.64453-110.66504-110.66504S105.979,56.83594,167,56.83594s110.66504,49.64453,110.66504,110.66504
			S228.021,278.16602,167,278.16602z"/>
		<path d="M167,25.21777c-78.45557,0-142.2832,63.82812-142.2832,142.2832S88.54443,309.78418,167,309.78418
			s142.2832-63.82812,142.2832-142.2832S245.45557,25.21777,167,25.21777z M167,299.24512
			c-72.64404,0-131.74414-59.10059-131.74414-131.74414S94.35596,35.75684,167,35.75684s131.74414,59.10059,131.74414,131.74414
			S239.64404,299.24512,167,299.24512z"/>
		<path d="M167,4.13867c-90.07861,0-163.3623,73.28418-163.3623,163.3623S76.92139,330.8623,167,330.8623
			c90.07812,0,163.36182-73.2832,163.36182-163.36133S257.07812,4.13867,167,4.13867z M167,320.32324
			c-84.26709,0-152.82324-68.55566-152.82324-152.82227S82.73291,14.67773,167,14.67773
			c84.2666,0,152.82275,68.55664,152.82275,152.82324S251.2666,320.32324,167,320.32324z"/>
		<path d="M334,118.96313V89.26587C315.52167,49.98047,283.58563,18.2334,244.16376,0h-30.37524
			C271.54761,16.15479,317.25696,61.44946,334,118.96313z"/>
		<path d="M334,245.73596v-29.69714C317.58978,272.40906,273.35181,317.03735,217.21674,334h29.08893
			C284.74335,315.6178,315.85706,284.30835,334,245.73596z"/>
		<path d="M120.21124,0H89.83594C50.41431,18.23315,18.47845,49.97974,0,89.26489v29.69653
			C16.74347,61.44873,62.45251,16.15466,120.21124,0z"/>
		<path d="M0,216.04053v29.69653C18.14301,284.30884,49.25659,315.61792,87.69403,334h29.08899
			C60.64825,317.0376,16.41064,272.40991,0,216.04053z"/>
		<path d="M334,287.15125v-19.1073C317.7453,294.94165,295.18079,317.61621,268.36975,334h18.96674
			C305.28723,320.98999,321.06238,305.15747,334,287.15125z"/>
		<path d="M0,268.04395v19.1073C12.93762,305.15747,28.71277,320.98999,46.66351,334h18.96674
			C38.81921,317.61621,16.2547,294.94165,0,268.04395z"/>
		<path d="M334,66.95801V47.85059C320.73181,29.38428,304.48706,13.19385,285.96405,0h-19.26752
			C294.2403,16.4563,317.40912,39.50391,334,66.95801z"/>
		<path d="M67.30347,0H48.03595C29.51294,13.19385,13.26819,29.38428,0,47.85059v19.10742
			C16.59088,39.50391,39.7597,16.4563,67.30347,0z"/>
		<path d="M30.68781,0H14.54553C9.48065,4.61401,4.63019,9.4585,0,14.50842v16.05859C9.18506,19.3855,19.47198,9.14453,30.68781,0z"
			/>
		<path d="M334,320.49329v-16.05847c-8.84888,10.77209-18.71484,20.67786-29.45416,29.56519h15.98456
			C325.20514,329.68604,329.70099,325.18201,334,320.49329z"/>
		<path d="M0,304.43481v16.05847C4.29901,325.18201,8.79486,329.68604,13.4696,334h15.98456
			C18.71484,325.11267,8.84888,315.20691,0,304.43481z"/>
		<path d="M334,30.56702V14.50842C329.36981,9.4585,324.51935,4.61401,319.45447,0h-16.14227
			C314.52802,9.14453,324.81494,19.3855,334,30.56702z"/>
	</g>
</g>
<g id="Layer_3" display="none">
</g>
<g id="Layer_2" display="none">
</g>
</svg>
