<?xml version="1.0" encoding="utf-8"?>
<!-- Generator: Adobe Illustrator 21.1.0, SVG Export Plug-In . SVG Version: 6.00 Build 0)  -->
<svg version="1.2" baseProfile="tiny" xmlns="http://www.w3.org/2000/svg" xmlns:xlink="http://www.w3.org/1999/xlink" x="0px"
	 y="0px" viewBox="0 0 334 334" xml:space="preserve">
<g id="Layer_1">
	<g>
		<path fill="#858585" d="M167,132.80127c-18.76562,0-34.03223,15.2666-34.03223,34.03174S148.23438,200.86475,167,200.86475
			c18.76465,0,34.03125-15.2666,34.03125-34.03174S185.76465,132.80127,167,132.80127z M167,187.25244
			c-11.25977,0-20.41992-9.16016-20.41992-20.41943S155.74023,146.41357,167,146.41357
			c11.25879,0,20.41895,9.16016,20.41895,20.41943S178.25879,187.25244,167,187.25244z"/>
		<path fill="#858585" d="M334,90.17346V61.72778C318.29785,36.8678,297.20581,15.7406,272.37256,0H244.0166
			C283.6665,18.3772,315.70532,50.47791,334,90.17346z"/>
		<circle fill="#858585" cx="166.99976" cy="166.83301" r="6.80615"/>
		<path fill="#858585" d="M167,23.89844c-78.80566,0-142.91797,64.12012-142.91797,142.93457S88.19434,309.76758,167,309.76758
			c78.81445,0,142.93457-64.12012,142.93457-142.93457S245.81445,23.89844,167,23.89844z M167,296.15527
			c-71.30859,0-129.32227-58.01367-129.32227-129.32227C37.67773,95.5249,95.69141,37.51123,167,37.51123
			c71.30762,0,129.32129,58.01367,129.32129,129.32178C296.32129,238.1416,238.30762,296.15527,167,296.15527z"/>
		<path fill="#858585" d="M167,78.3501c-48.79004,0-88.4834,39.69336-88.4834,88.48291S118.20996,255.31592,167,255.31592
			c48.78906,0,88.48242-39.69336,88.48242-88.48291S215.78906,78.3501,167,78.3501z M166.99902,241.70361
			c-41.2832,0-74.87012-33.58691-74.87012-74.87061s33.58691-74.87061,74.87012-74.87061
			c41.28418,0,74.87109,33.58691,74.87109,74.87061S208.2832,241.70361,166.99902,241.70361z"/>
		<path fill="#858585" d="M167,51.12451c-63.80273,0-115.70898,51.90625-115.70898,115.7085S103.19727,282.54199,167,282.54199
			c63.80176,0,115.70801-51.90674,115.70801-115.70898S230.80176,51.12451,167,51.12451z M167,268.9292
			c-56.2959,0-102.09668-45.80029-102.09668-102.09619S110.7041,64.73682,167,64.73682s102.0957,45.80029,102.0957,102.09619
			S223.2959,268.9292,167,268.9292z"/>
		<path fill="#858585" d="M334,38.02808V16.79822C328.70459,10.91016,323.10522,5.30176,317.22314,0h-21.20068
			C310.23364,11.01562,323.00244,23.80249,334,38.02808z"/>
		<path fill="#858585" d="M89.98999,0H61.63623C36.79761,15.74536,15.70215,36.88049,0,61.75v28.45386
			C18.29077,50.49438,50.33337,18.38196,89.98999,0z"/>
		<path fill="#858585" d="M37.98755,0H16.78833C10.90186,5.30603,5.29858,10.91907,0,16.81238v21.23279
			C10.99976,23.81262,23.77197,11.02002,37.98755,0z"/>
		<path fill="#858585" d="M0,243.46167v28.45447C15.81421,296.96326,37.10083,318.21997,62.17041,334h28.53564
			C50.71814,315.67419,18.40112,283.41064,0,243.46167z"/>
		<path fill="#858585" d="M0,295.62109v21.23254C5.41089,322.87158,11.14148,328.59497,17.16467,334h21.25781
			C24.03296,322.90454,11.11133,309.99829,0,295.62109z"/>
		<path fill="#858585" d="M166.99902,105.57568c-33.77734,0-61.25684,27.47998-61.25684,61.25732
			s27.47949,61.25732,61.25684,61.25732s61.25781-27.47998,61.25781-61.25732S200.77637,105.57568,166.99902,105.57568z
			 M167,214.47803c-26.27148,0-47.64551-21.37354-47.64551-47.64502S140.72852,119.18799,167,119.18799
			s47.64453,21.37354,47.64453,47.64502S193.27148,214.47803,167,214.47803z"/>
		<path fill="#858585" d="M334,199.50562V134.1604C320.8418,66.77991,267.80103,13.50049,200.54199,0h-67.08081
			C66.18164,13.50586,13.13062,66.82214,0,134.24036v65.1853C13.24365,267.42358,67.09912,321.0708,135.2019,334h63.59912
			C266.88354,321.07581,320.72852,267.46558,334,199.50562z M167,323.38086c-86.31152,0-156.53125-70.22705-156.53125-156.54785
			S80.68848,10.28516,167,10.28516c86.32031,0,156.54785,70.22705,156.54785,156.54785S253.32031,323.38086,167,323.38086z"/>
		<path fill="#858585" d="M334,271.93848v-28.44629C315.59497,283.42688,283.28174,315.67883,243.30054,334h28.53784
			C296.90259,318.22461,318.18579,296.97595,334,271.93848z"/>
		<path fill="#858585" d="M334,316.8678v-21.22961C322.89062,310.00854,309.97266,322.90894,295.5874,334h21.25928
			C322.86572,328.59912,328.59253,322.88062,334,316.8678z"/>
		<path fill="#7A7A7A" d="M167,146.41357c-11.25977,0-20.41992,9.16016-20.41992,20.41943S155.74023,187.25244,167,187.25244
			c11.25879,0,20.41895-9.16016,20.41895-20.41943S178.25879,146.41357,167,146.41357z M167,173.63916
			c-3.75293,0-6.80664-3.05322-6.80664-6.80615s3.05371-6.80615,6.80664-6.80615s6.80566,3.05322,6.80566,6.80615
			S170.75293,173.63916,167,173.63916z"/>
		<path fill="#7A7A7A" d="M167,119.18799c-26.27148,0-47.64551,21.37354-47.64551,47.64502S140.72852,214.47803,167,214.47803
			s47.64453-21.37354,47.64453-47.64502S193.27148,119.18799,167,119.18799z M167,200.86475
			c-18.76562,0-34.03223-15.2666-34.03223-34.03174S148.23438,132.80127,167,132.80127
			c18.76465,0,34.03125,15.2666,34.03125,34.03174S185.76465,200.86475,167,200.86475z"/>
		<path fill="#7A7A7A" d="M166.99902,91.9624c-41.2832,0-74.87012,33.58691-74.87012,74.87061s33.58691,74.87061,74.87012,74.87061
			c41.28418,0,74.87109-33.58691,74.87109-74.87061S208.2832,91.9624,166.99902,91.9624z M166.99902,228.09033
			c-33.77734,0-61.25684-27.47998-61.25684-61.25732s27.47949-61.25732,61.25684-61.25732s61.25781,27.47998,61.25781,61.25732
			S200.77637,228.09033,166.99902,228.09033z"/>
		<path fill="#7A7A7A" d="M167,64.73682c-56.2959,0-102.09668,45.80029-102.09668,102.09619S110.7041,268.9292,167,268.9292
			s102.0957-45.80029,102.0957-102.09619S223.2959,64.73682,167,64.73682z M167,255.31592
			c-48.79004,0-88.4834-39.69336-88.4834-88.48291S118.20996,78.3501,167,78.3501c48.78906,0,88.48242,39.69336,88.48242,88.48291
			S215.78906,255.31592,167,255.31592z"/>
		<path fill="#7A7A7A" d="M167,37.51123c-71.30859,0-129.32227,58.01367-129.32227,129.32178
			c0,71.30859,58.01367,129.32227,129.32227,129.32227c71.30762,0,129.32129-58.01367,129.32129-129.32227
			C296.32129,95.5249,238.30762,37.51123,167,37.51123z M167,282.54199c-63.80273,0-115.70898-51.90674-115.70898-115.70898
			S103.19727,51.12451,167,51.12451c63.80176,0,115.70801,51.90625,115.70801,115.7085S230.80176,282.54199,167,282.54199z"/>
		<path fill="#7A7A7A" d="M167,10.28516c-86.31152,0-156.53125,70.22705-156.53125,156.54785S80.68848,323.38086,167,323.38086
			c86.32031,0,156.54785-70.22705,156.54785-156.54785S253.32031,10.28516,167,10.28516z M167,309.76758
			c-78.80566,0-142.91797-64.12012-142.91797-142.93457S88.19434,23.89844,167,23.89844
			c78.81445,0,142.93457,64.12012,142.93457,142.93457S245.81445,309.76758,167,309.76758z"/>
		<path fill="#7A7A7A" d="M334,243.49219v-43.98657C320.72852,267.46558,266.88354,321.07581,198.80103,334h44.49951
			C283.28174,315.67883,315.59497,283.42688,334,243.49219z"/>
		<path fill="#7A7A7A" d="M0,199.42566v44.03601C18.40112,283.41064,50.71814,315.67419,90.70605,334h44.49585
			C67.09912,321.0708,13.24365,267.42358,0,199.42566z"/>
		<path fill="#7A7A7A" d="M334,134.1604V90.17346C315.70532,50.47791,283.6665,18.3772,244.0166,0h-43.47461
			C267.80103,13.50049,320.8418,66.77991,334,134.1604z"/>
		<path fill="#7A7A7A" d="M133.46118,0H89.98999C50.33337,18.38196,18.29077,50.49438,0,90.20386v44.0365
			C13.13062,66.82214,66.18164,13.50586,133.46118,0z"/>
		<path fill="#7A7A7A" d="M334,61.72778V38.02808C323.00244,23.80249,310.23364,11.01562,296.02246,0h-23.6499
			C297.20581,15.7406,318.29785,36.8678,334,61.72778z"/>
		<path fill="#7A7A7A" d="M61.63623,0H37.98755C23.77197,11.02002,10.99976,23.81262,0,38.04517V61.75
			C15.70215,36.88049,36.79761,15.74536,61.63623,0z"/>
		<path fill="#7A7A7A" d="M0,271.91614v23.70496C11.11133,309.99829,24.03296,322.90454,38.42249,334h23.74792
			C37.10083,318.21997,15.81421,296.96326,0,271.91614z"/>
		<path fill="#7A7A7A" d="M334,295.63818v-23.69971C318.18579,296.97595,296.90259,318.22461,271.83838,334h23.74902
			C309.97266,322.90894,322.89062,310.00854,334,295.63818z"/>
		<path fill="#7A7A7A" d="M334,316.8678c-5.40747,6.01282-11.13428,11.73132-17.15332,17.1322H334V316.8678z"/>
		<path fill="#7A7A7A" d="M0,316.85364V334h17.16467C11.14148,328.59497,5.41089,322.87158,0,316.85364z"/>
		<path fill="#7A7A7A" d="M334,16.79822V0h-16.77686C323.10522,5.30176,328.70459,10.91016,334,16.79822z"/>
		<path fill="#7A7A7A" d="M16.78833,0H0v16.81238C5.29858,10.91907,10.90186,5.30603,16.78833,0z"/>
	</g>
</g>
<g id="Layer_3" display="none">
</g>
<g id="Layer_2" display="none">
</g>
</svg>
