<?xml version="1.0" encoding="utf-8"?>
<!-- Generator: Adobe Illustrator 21.1.0, SVG Export Plug-In . SVG Version: 6.00 Build 0)  -->
<svg version="1.2" baseProfile="tiny" xmlns="http://www.w3.org/2000/svg" xmlns:xlink="http://www.w3.org/1999/xlink" x="0px"
	 y="0px" viewBox="0 0 334 334" xml:space="preserve">
<g id="Layer_1">
	<g>
		<path fill="#9B9B9B" d="M334,31.1261V0h-31.24683C314.19336,9.28967,324.66895,19.72076,334,31.1261z"/>
		<path fill="#9B9B9B" d="M136.22565,0H71.18176C41.69348,16.93445,17.08154,41.43311,0,70.82623v63.29053
			C13.57867,66.07819,67.82153,12.53668,136.22565,0z"/>
		<path fill="#9B9B9B" d="M31.2467,0H0v31.12573C9.33093,19.72058,19.80658,9.28955,31.2467,0z"/>
		<path fill="#9B9B9B" d="M334,134.11932V70.82697C316.91846,41.43347,292.3064,16.93457,262.81787,0h-65.04443
			C266.17871,12.53687,320.42212,66.07947,334,134.11932z"/>
		<path fill="#9B9B9B" d="M167,156.15137c-6.26758,0-11.3667,5.09131-11.3667,11.34961s5.09912,11.34961,11.3667,11.34961
			c6.25781,0,11.34912-5.09131,11.34912-11.34961S173.25781,156.15137,167,156.15137z"/>
		<path fill="#9B9B9B" d="M0,303.87622V334h30.00323C19.04376,324.96637,8.9939,314.86945,0,303.87622z"/>
		<path fill="#9B9B9B" d="M303.99658,334H334v-30.12415C325.00598,314.8692,314.95618,324.96625,303.99658,334z"/>
		<path fill="#9B9B9B" d="M334,264.17499v-63.29236C320.75562,267.25201,268.81616,319.82233,202.78394,334h61.73657
			C293.25146,317.10712,317.24951,292.99896,334,264.17499z"/>
		<path fill="#9B9B9B" d="M166.99951,65.32129c-56.35107,0-102.19629,45.8374-102.19629,102.17969
			s45.84521,102.17969,102.19629,102.17969c56.34229,0,102.17969-45.8374,102.17969-102.17969S223.3418,65.32129,166.99951,65.32129
			z M166.99951,246.96484c-43.82568,0-79.48047-35.64746-79.48047-79.46387s35.65479-79.46387,79.48047-79.46387
			c43.81641,0,79.46387,35.64746,79.46387,79.46387S210.81592,246.96484,166.99951,246.96484z"/>
		<path fill="#9B9B9B" d="M166.99951,19.90625c-81.38428,0-147.59473,66.21094-147.59473,147.59473
			S85.61523,315.0957,166.99951,315.0957s147.59521-66.21094,147.59521-147.59473S248.38379,19.90625,166.99951,19.90625z
			 M166.99951,292.37988c-68.86768,0-124.89551-56.02051-124.89551-124.87891S98.13184,42.62207,166.99951,42.62207
			c68.8584,0,124.87891,56.02051,124.87891,124.87891S235.85791,292.37988,166.99951,292.37988z"/>
		<path fill="#9B9B9B" d="M166.99951,110.73633c-31.30908,0-56.78125,25.46436-56.78125,56.76465
			s25.47217,56.76465,56.78125,56.76465c31.30029,0,56.76465-25.46436,56.76465-56.76465S198.2998,110.73633,166.99951,110.73633z
			 M167,201.5498c-18.78418,0-34.06592-15.27441-34.06592-34.04883S148.21582,133.45215,167,133.45215
			c18.77441,0,34.04834,15.27441,34.04834,34.04883S185.77441,201.5498,167,201.5498z"/>
		<path fill="#9B9B9B" d="M0,200.88519v63.29053C16.75055,292.99933,40.74829,317.10724,69.47919,334h61.73602
			C65.18414,319.82251,13.2453,267.25336,0,200.88519z"/>
		<path fill="#646464" d="M167,133.45215c-18.78418,0-34.06592,15.27441-34.06592,34.04883S148.21582,201.5498,167,201.5498
			c18.77441,0,34.04834-15.27441,34.04834-34.04883S185.77441,133.45215,167,133.45215z M167,178.85059
			c-6.26758,0-11.3667-5.09131-11.3667-11.34961s5.09912-11.34961,11.3667-11.34961c6.25781,0,11.34912,5.09131,11.34912,11.34961
			S173.25781,178.85059,167,178.85059z"/>
		<path fill="#646464" d="M166.99951,88.03711c-43.82568,0-79.48047,35.64746-79.48047,79.46387
			s35.65479,79.46387,79.48047,79.46387c43.81641,0,79.46387-35.64746,79.46387-79.46387S210.81592,88.03711,166.99951,88.03711z
			 M166.99951,224.26562c-31.30908,0-56.78125-25.46436-56.78125-56.76465s25.47217-56.76465,56.78125-56.76465
			c31.30029,0,56.76465,25.46436,56.76465,56.76465S198.2998,224.26562,166.99951,224.26562z"/>
		<path fill="#646464" d="M166.99951,42.62207c-68.86768,0-124.89551,56.02051-124.89551,124.87891
			s56.02783,124.87891,124.89551,124.87891c68.8584,0,124.87891-56.02051,124.87891-124.87891
			S235.85791,42.62207,166.99951,42.62207z M166.99951,269.68066c-56.35107,0-102.19629-45.8374-102.19629-102.17969
			S110.64844,65.32129,166.99951,65.32129c56.34229,0,102.17969,45.8374,102.17969,102.17969
			S223.3418,269.68066,166.99951,269.68066z"/>
		<path fill="#646464" d="M334,200.88263v-66.76331C320.42212,66.07947,266.17871,12.53687,197.77344,0h-61.54779
			C67.82153,12.53668,13.57867,66.07819,0,134.11676v66.76843C13.2453,267.25336,65.18414,319.82251,131.21521,334h71.56873
			C268.81616,319.82233,320.75562,267.25201,334,200.88263z M166.99951,315.0957
			c-81.38428,0-147.59473-66.21094-147.59473-147.59473S85.61523,19.90625,166.99951,19.90625
			s147.59521,66.21094,147.59521,147.59473S248.38379,315.0957,166.99951,315.0957z"/>
		<path fill="#646464" d="M334,303.87585v-39.70087C317.24951,292.99896,293.25146,317.10712,264.52051,334h39.47607
			C314.95618,324.96625,325.00598,314.8692,334,303.87585z"/>
		<path fill="#646464" d="M334,70.82697V31.1261C324.66895,19.72076,314.19336,9.28967,302.75317,0h-39.9353
			C292.3064,16.93457,316.91846,41.43347,334,70.82697z"/>
		<path fill="#646464" d="M71.18176,0H31.2467C19.80658,9.28955,9.33093,19.72058,0,31.12573v39.7005
			C17.08154,41.43311,41.69348,16.93445,71.18176,0z"/>
		<path fill="#646464" d="M0,264.17572v39.7005C8.9939,314.86945,19.04376,324.96637,30.00323,334h39.47595
			C40.74829,317.10724,16.75055,292.99933,0,264.17572z"/>
	</g>
</g>
<g id="Layer_3" display="none">
</g>
<g id="Layer_2" display="none">
</g>
</svg>
