<?xml version="1.0" encoding="utf-8"?>
<!-- Generator: Adobe Illustrator 21.1.0, SVG Export Plug-In . SVG Version: 6.00 Build 0)  -->
<svg version="1.2" baseProfile="tiny" xmlns="http://www.w3.org/2000/svg" xmlns:xlink="http://www.w3.org/1999/xlink" x="0px"
	 y="0px" viewBox="0 0 334 334" xml:space="preserve">
<g id="Layer_1">
	<g>
		<path fill="#818181" d="M0,280.01636v28.84521C7.73901,317.90601,16.19971,326.31274,25.28931,334h29.09131
			C33.01465,319.6189,14.53638,301.26782,0,280.01636z"/>
		<path fill="#818181" d="M167,315.59668c82.39746,0,149.43262-67.03516,149.43262-149.43213S249.39746,16.73242,167,16.73242
			c-82.39648,0-149.43164,67.03516-149.43164,149.43213S84.60352,315.59668,167,315.59668z M167,34.3042
			c72.70801,0,131.86035,59.15234,131.86035,131.86035c0,72.7085-59.15234,131.86084-131.86035,131.86084
			S35.13965,238.87305,35.13965,166.16455C35.13965,93.45654,94.29199,34.3042,167,34.3042z"/>
		<path fill="#818181" d="M334,244.75562V167.7804c-0.87183,91.35291-75.44458,165.40417-167,165.40417
			c-91.58032,0-166.16919-74.09302-167-165.4812v77.08423C18.58447,284.09644,50.64478,315.8335,90.18872,334h153.61572
			C283.35547,315.82849,315.41943,284.07922,334,244.75562z"/>
		<path fill="#818181" d="M334,52.3327V23.492C326.81519,15.09357,319.01807,7.23413,310.66309,0h-28.62744
			C302.37891,14.12671,320.01709,31.8833,334,52.3327z"/>
		<path fill="#818181" d="M334,308.83752v-28.8407C319.46289,301.25671,300.9812,319.6145,279.61035,334h29.07812
			C317.78687,326.30603,326.25488,317.89111,334,308.83752z"/>
		<path fill="#818181" d="M150.04272,0H86.64136C48.72729,18.40662,18.02588,49.41418,0,87.5415v77.08423
			C0.77881,78.94897,66.38354,8.47406,150.04272,0z"/>
		<path fill="#818181" d="M334,164.54871V87.57355C315.97778,49.43158,285.27295,18.41174,247.35156,0h-63.39404
			C267.59229,8.4715,333.18262,78.90674,334,164.54871z"/>
		<path fill="#818181" d="M167,280.4375c63.00977,0,114.27246-51.2627,114.27246-114.27295
			c0-63.00977-51.2627-114.27246-114.27246-114.27246S52.72754,103.15479,52.72754,166.16455
			C52.72754,229.1748,103.99023,280.4375,167,280.4375z M167,69.46387c53.32129,0,96.70117,43.37988,96.70117,96.70068
			c0,53.32129-43.37988,96.70117-96.70117,96.70117s-96.70117-43.37988-96.70117-96.70117
			C70.29883,112.84375,113.67871,69.46387,167,69.46387z"/>
		<path fill="#818181" d="M167,174.95898c4.84863,0,8.79395-3.94531,8.79395-8.79443s-3.94531-8.79395-8.79395-8.79395
			c-4.83984,0-8.77734,3.94482-8.77734,8.79395S162.16016,174.95898,167,174.95898z"/>
		<path fill="#818181" d="M51.95508,0H23.3147C14.96851,7.22723,7.17871,15.07861,0,23.46796v28.84521
			C13.98193,31.87201,31.6167,14.12219,51.95508,0z"/>
		<path fill="#818181" d="M167,210.11816c24.23633,0,43.9541-19.71777,43.9541-43.95361S191.23633,122.21094,167,122.21094
			c-24.22656,0-43.93652,19.71777-43.93652,43.95361S142.77344,210.11816,167,210.11816z M167,139.78271
			c14.54688,0,26.38184,11.83496,26.38184,26.38184c0,14.54736-11.83496,26.38232-26.38184,26.38232
			c-14.53809,0-26.36523-11.83496-26.36523-26.38232C140.63477,151.61768,152.46191,139.78271,167,139.78271z"/>
		<path fill="#818181" d="M167,245.27783c43.62305,0,79.11328-35.49023,79.11328-79.11328S210.62305,87.05176,167,87.05176
			s-79.11328,35.48975-79.11328,79.11279S123.37695,245.27783,167,245.27783z M167,104.62305
			c33.93457,0,61.54199,27.60742,61.54199,61.5415S200.93457,227.70605,167,227.70605
			c-33.9248,0-61.52441-27.60742-61.52441-61.5415S133.0752,104.62305,167,104.62305z"/>
		<path fill="#7E7E7E" d="M167,192.54688c14.54688,0,26.38184-11.83496,26.38184-26.38232
			c0-14.54688-11.83496-26.38184-26.38184-26.38184c-14.53809,0-26.36523,11.83496-26.36523,26.38184
			C140.63477,180.71191,152.46191,192.54688,167,192.54688z M167,157.37061c4.84863,0,8.79395,3.94482,8.79395,8.79395
			s-3.94531,8.79443-8.79395,8.79443c-4.83984,0-8.77734-3.94531-8.77734-8.79443S162.16016,157.37061,167,157.37061z"/>
		<path fill="#7E7E7E" d="M167,227.70605c33.93457,0,61.54199-27.60742,61.54199-61.5415S200.93457,104.62305,167,104.62305
			c-33.9248,0-61.52441,27.60742-61.52441,61.5415S133.0752,227.70605,167,227.70605z M167,122.21094
			c24.23633,0,43.9541,19.71777,43.9541,43.95361S191.23633,210.11816,167,210.11816
			c-24.22656,0-43.93652-19.71777-43.93652-43.95361S142.77344,122.21094,167,122.21094z"/>
		<path fill="#7E7E7E" d="M167,262.86572c53.32129,0,96.70117-43.37988,96.70117-96.70117
			c0-53.3208-43.37988-96.70068-96.70117-96.70068s-96.70117,43.37988-96.70117,96.70068
			C70.29883,219.48584,113.67871,262.86572,167,262.86572z M167,87.05176c43.62305,0,79.11328,35.48975,79.11328,79.11279
			S210.62305,245.27783,167,245.27783s-79.11328-35.49023-79.11328-79.11328S123.37695,87.05176,167,87.05176z"/>
		<path fill="#7E7E7E" d="M167,298.02539c72.70801,0,131.86035-59.15234,131.86035-131.86084
			C298.86035,93.45654,239.70801,34.3042,167,34.3042S35.13965,93.45654,35.13965,166.16455
			C35.13965,238.87305,94.29199,298.02539,167,298.02539z M167,51.89209c63.00977,0,114.27246,51.2627,114.27246,114.27246
			c0,63.01025-51.2627,114.27295-114.27246,114.27295S52.72754,229.1748,52.72754,166.16455
			C52.72754,103.15479,103.99023,51.89209,167,51.89209z"/>
		<path fill="#7E7E7E" d="M167,333.18457c91.55542,0,166.12817-74.05127,167-165.40417v-3.23169
			C333.18262,78.90674,267.59229,8.4715,183.95752,0h-33.91479C66.38354,8.47406,0.77881,78.94897,0,164.62573v3.07764
			C0.83081,259.09155,75.41968,333.18457,167,333.18457z M167,16.73242c82.39746,0,149.43262,67.03516,149.43262,149.43213
			S249.39746,315.59668,167,315.59668c-82.39648,0-149.43164-67.03516-149.43164-149.43213S84.60352,16.73242,167,16.73242z"/>
		<path fill="#7E7E7E" d="M334,279.99683v-35.24121C315.41943,284.07922,283.35547,315.82849,243.80444,334h35.80591
			C300.9812,319.6145,319.46289,301.25671,334,279.99683z"/>
		<path fill="#7E7E7E" d="M334,87.57355V52.3327C320.01709,31.8833,302.37891,14.12671,282.03564,0h-34.68408
			C285.27295,18.41174,315.97778,49.43158,334,87.57355z"/>
		<path fill="#7E7E7E" d="M0,244.7876v35.22876C14.53638,301.26782,33.01465,319.6189,54.38062,334h35.80811
			C50.64478,315.8335,18.58447,284.09644,0,244.7876z"/>
		<path fill="#7E7E7E" d="M86.64136,0H51.95508C31.6167,14.12219,13.98193,31.87201,0,52.31317V87.5415
			C18.02588,49.41418,48.72729,18.40662,86.64136,0z"/>
		<path fill="#7E7E7E" d="M334,308.83752c-7.74512,9.05359-16.21313,17.46851-25.31152,25.16248H334V308.83752z"/>
		<path fill="#7E7E7E" d="M334,23.492V0h-23.33691C319.01807,7.23413,326.81519,15.09357,334,23.492z"/>
		<path fill="#7E7E7E" d="M23.3147,0H0v23.46796C7.17871,15.07861,14.96851,7.22723,23.3147,0z"/>
		<path fill="#7E7E7E" d="M0,308.86157V334h25.28931C16.19971,326.31274,7.73901,317.90601,0,308.86157z"/>
	</g>
</g>
<g id="Layer_3" display="none">
</g>
<g id="Layer_2" display="none">
</g>
</svg>
