<?xml version="1.0" encoding="utf-8"?>
<!-- Generator: Adobe Illustrator 21.1.0, SVG Export Plug-In . SVG Version: 6.00 Build 0)  -->
<svg version="1.2" baseProfile="tiny" xmlns="http://www.w3.org/2000/svg" xmlns:xlink="http://www.w3.org/1999/xlink" x="0px"
	 y="0px" viewBox="0 0 334 334" xml:space="preserve">
<g id="Layer_1">
	<g>
		<path fill="#858585" d="M0,251.32764v7.96289C17.58716,290.70557,43.77283,316.6814,75.35791,334h8.14014
			C47.62695,316.07715,18.2627,286.99902,0,251.32764z"/>
		<path fill="#858585" d="M0,266.84009v7.1145C15.60303,298.05005,36.27136,318.57178,60.48926,334h7.23889
			C40.00562,317.53735,16.68433,294.41382,0,266.84009z"/>
		<path fill="#858585" d="M0,293.6333v6.13257C10.14893,312.43018,21.69922,323.92358,34.42358,334h6.18835
			C25.31445,322.44873,11.64502,308.85547,0,293.6333z"/>
		<path fill="#858585" d="M0,280.77002v6.52661C13.06519,305.26196,28.94751,321.05078,47.00269,334h6.58105
			C32.57886,319.7561,14.38525,301.6709,0,280.77002z"/>
		<path fill="#858585" d="M0,305.74951v5.82983C6.96985,319.57715,14.50195,327.07153,22.53613,334h5.85767
			C18.08789,325.47095,8.58521,316.00684,0,305.74951z"/>
		<path fill="#858585" d="M0,328.323v5.40063c0.09326,0.09326,0.18945,0.18359,0.28284,0.27637h5.41272
			C3.76343,332.1416,1.86743,330.24634,0,328.323z"/>
		<path fill="#858585" d="M0,317.28809v5.54834c3.61133,3.84863,7.35425,7.5708,11.2207,11.16357h5.58813
			C10.92114,328.72314,5.30615,323.14868,0,317.28809z"/>
		<path fill="#858585" d="M121.22742,0h-12.59668C57.59961,17.97998,17.26221,58.82837,0,110.18628v13.37744
			C15.2605,63.76074,61.87695,16.37109,121.22742,0z"/>
		<path fill="#858585" d="M167.03223,133.96973c-17.75195,0-32.19434,14.44336-32.19434,32.19531
			s14.44238,32.19531,32.19434,32.19531s32.19531-14.44336,32.19531-32.19531S184.78418,133.96973,167.03223,133.96973z
			 M167.03223,194.56836c-15.66992,0-28.41895-12.74121-28.41895-28.40332s12.74902-28.40332,28.41895-28.40332
			c15.66211,0,28.40332,12.74121,28.40332,28.40332S182.69434,194.56836,167.03223,194.56836z"/>
		<path fill="#858585" d="M167.01562,149.11914c-9.39844,0-17.04492,7.64648-17.04492,17.0459s7.64648,17.0459,17.04492,17.0459
			c9.39941,0,17.0459-7.64648,17.0459-17.0459S176.41504,149.11914,167.01562,149.11914z M167.01562,179.41895
			c-7.31738,0-13.26953-5.94531-13.26953-13.25391c0-7.30762,5.95215-13.25293,13.26953-13.25293
			c7.30859,0,13.25391,5.94531,13.25391,13.25293C180.26953,173.47363,174.32422,179.41895,167.01562,179.41895z"/>
		<path fill="#858585" d="M167.03223,141.55273c-13.58008,0-24.62793,11.04102-24.62793,24.6123s11.04785,24.6123,24.62793,24.6123
			c13.57129,0,24.6123-11.04102,24.6123-24.6123S180.60352,141.55273,167.03223,141.55273z M167.01562,187.00195
			c-11.48926,0-20.83594-9.34766-20.83594-20.83691s9.34668-20.83691,20.83594-20.83691s20.83691,9.34766,20.83691,20.83691
			S178.50488,187.00195,167.01562,187.00195z"/>
		<path fill="#858585" d="M167.04883,126.40332c-21.93359,0-39.77832,17.83691-39.77832,39.76172
			s17.84473,39.76172,39.77832,39.76172c21.9248,0,39.76172-17.83691,39.76172-39.76172S188.97363,126.40332,167.04883,126.40332z
			 M167.03223,202.15137c-19.84277,0-35.98535-16.14355-35.98535-35.98633s16.14258-35.98633,35.98535-35.98633
			s35.98633,16.14355,35.98633,35.98633S186.875,202.15137,167.03223,202.15137z"/>
		<circle fill="#858585" cx="166.99976" cy="166.16528" r="1.896"/>
		<path fill="#858585" d="M0,208.76636v13.37793C17.81836,275.15771,60.2218,316.97607,113.59558,334h14.1543
			C65.3064,319.39795,15.81555,270.74438,0,208.76636z"/>
		<path fill="#858585" d="M167.01562,156.70312c-5.22656,0-9.47852,4.24512-9.47852,9.46191
			c0,5.21777,4.25195,9.46289,9.47852,9.46289c5.21777,0,9.46289-4.24512,9.46289-9.46289
			C176.47852,160.94824,172.2334,156.70312,167.01562,156.70312z M167,171.85254c-3.13672,0-5.6875-2.55078-5.6875-5.6875
			c0-3.13574,2.55078-5.68652,5.6875-5.68652c3.13574,0,5.68652,2.55078,5.68652,5.68652
			C172.68652,169.30176,170.13574,171.85254,167,171.85254z"/>
		<path fill="#858585" d="M0,233.08252v9.5498C18.6311,283.16406,51.58984,315.79443,92.35364,334h9.85266
			C55.74878,316.00195,18.56812,279.25195,0,233.08252z"/>
		<path fill="#858585" d="M334,65.40405v-7.12744C318.95923,35.07983,299.21875,15.20557,276.13916,0h-7.0459
			C295.57227,16.32349,317.87817,38.78906,334,65.40405z"/>
		<path fill="#858585" d="M334,38.58545v-6.14258C324.42969,20.5188,313.61377,9.63818,301.74658,0h-6.09351
			C310.03418,11.15601,322.93042,24.13428,334,38.58545z"/>
		<path fill="#858585" d="M166.99902,118.82031c-26.10547,0-47.34375,21.23926-47.34375,47.34473
			s21.23828,47.34473,47.34375,47.34473s47.34473-21.23926,47.34473-47.34473S193.10449,118.82031,166.99902,118.82031z
			 M167.04883,209.71777c-24.02441,0-43.56934-19.53711-43.56934-43.55273s19.54492-43.55273,43.56934-43.55273
			c24.01562,0,43.55273,19.53711,43.55273,43.55273S191.06445,209.71777,167.04883,209.71777z"/>
		<path fill="#858585" d="M334,51.46631v-6.5498C321.50781,27.76294,306.44434,12.59985,289.37451,0h-6.48633
			C302.84424,13.9563,320.17896,31.40942,334,51.46631z"/>
		<path fill="#858585" d="M98.05176,0h-9.32385C49.63721,18.49194,18.07532,50.37524,0,89.69775v9.55029
			C18.01135,54.46362,53.53516,18.54126,98.05176,0z"/>
		<path fill="#858585" d="M334,26.46509v-5.83862C327.61475,13.31128,320.75391,6.42334,313.47314,0h-5.79492
			C317.18481,8.05835,325.9939,16.91309,334,26.46509z"/>
		<path fill="#858585" d="M334,3.87305V0h-3.85449C331.44531,1.27612,332.72998,2.56714,334,3.87305z"/>
		<path fill="#858585" d="M334,14.91797v-5.5647C330.98877,6.14941,327.89258,3.02686,324.70386,0h-5.55371
			C324.32617,4.74194,329.28442,9.71777,334,14.91797z"/>
		<path fill="#858585" d="M334,99.20703v-9.57788C315.91943,50.33838,284.37158,18.4812,245.30347,0h-9.32983
			C280.47314,18.53564,315.98511,54.44165,334,99.20703z"/>
		<path fill="#858585" d="M334,80.93799v-7.98877C316.97168,42.56885,291.90088,17.28076,261.6814,0h-7.88452
			C288.16382,18.02148,316.29199,46.38354,334,80.93799z"/>
		<path fill="#858585" d="M64.96289,0h-7.03723C34.81323,15.22729,15.04858,35.13623,0,58.37549v7.11475
			C16.12695,38.83789,38.45337,16.34082,64.96289,0z"/>
		<path fill="#858585" d="M334,123.50195v-13.36621C316.72998,58.80151,276.40527,17.97412,225.39526,0h-12.61841
			C272.1123,16.36548,318.72168,63.72803,334,123.50195z"/>
		<path fill="#858585" d="M80.23462,0h-7.85889C42.12354,17.29785,17.03076,42.61938,0,73.04028v7.96216
			C17.70581,46.41895,45.84668,18.03247,80.23462,0z"/>
		<path fill="#858585" d="M51.17664,0h-6.46228C27.60425,12.62842,12.50977,27.83179,0,45.03345v6.52661
			C13.83154,31.46387,31.18921,13.97803,51.17664,0z"/>
		<path fill="#858585" d="M3.98535,0H0v4.00708C1.31238,2.65527,2.64087,1.31982,3.98535,0z"/>
		<path fill="#858585" d="M38.43506,0h-6.08398C20.44373,9.6709,9.59412,20.59229,0,32.56421v6.13257
			C11.08936,24.20093,24.01575,11.18457,38.43506,0z"/>
		<path fill="#858585" d="M26.41956,0h-5.78394C13.31384,6.45996,6.41577,13.38892,0,20.75073v5.82983
			C8.03198,16.98413,16.87427,8.09082,26.41956,0z"/>
		<path fill="#858585" d="M14.95886,0H9.427C6.19165,3.0708,3.05237,6.24072,0,9.49365v5.54834
			C4.74854,9.79736,9.74243,4.7793,14.95886,0z"/>
		<path fill="#858585" d="M334,222.19482v-13.36646C318.16602,270.7771,268.68213,319.40259,206.25366,334h14.17725
			C273.78296,316.98145,316.17334,275.18408,334,222.19482z"/>
		<path fill="#858585" d="M334,242.70093v-9.57739C315.42798,279.27368,278.25928,316.00732,231.81958,334h9.85815
			C282.4187,315.80493,315.36304,283.20068,334,242.70093z"/>
		<path fill="#858585" d="M334,189.02783v-45.72559C324.07544,70.44312,267.42285,12.25024,195.31885,0h-56.63513
			C66.55005,12.25635,9.88135,70.50195,0,143.41284v45.50439C10.45825,266.08447,73.32605,326.82446,151.46729,334h31.06689
			C260.64551,326.82788,323.49585,266.14233,334,189.02783z M167.11523,330.93066
			c-90.85254,0-164.76562-73.91309-164.76562-164.76562c0-90.85156,73.91309-164.76465,164.76562-164.76465
			c90.85156,0,164.76465,73.91309,164.76465,164.76465C331.87988,257.01758,257.9668,330.93066,167.11523,330.93066z"/>
		<path fill="#858585" d="M167.09863,20.34082c-80.40723,0-145.82422,65.41699-145.82422,145.82422
			s65.41699,145.82422,145.82422,145.82422s145.82422-65.41699,145.82422-145.82422S247.50586,20.34082,167.09863,20.34082z
			 M167.08203,308.21387c-78.31738,0-142.03223-63.72266-142.03223-142.04883S88.76465,24.11621,167.08203,24.11621
			c78.32617,0,142.04883,63.72266,142.04883,142.04883S245.4082,308.21387,167.08203,308.21387z"/>
		<path fill="#858585" d="M167.11523,5.19141c-88.76172,0-160.97461,72.21289-160.97461,160.97363
			c0,88.76172,72.21289,160.97461,160.97461,160.97461c88.76074,0,160.97363-72.21289,160.97363-160.97461
			C328.08887,77.4043,255.87598,5.19141,167.11523,5.19141z M167.09863,323.36426
			c-86.66992,0-157.18164-70.51953-157.18164-157.19922S80.42871,8.9668,167.09863,8.9668
			c86.67969,0,157.19824,70.51855,157.19824,157.19824S253.77832,323.36426,167.09863,323.36426z"/>
		<path fill="#858585" d="M334,259.38159v-7.9895c-18.26514,35.64185-47.61694,64.6958-83.46655,82.60791h8.16602
			C290.25146,316.69824,316.41455,290.75586,334,259.38159z"/>
		<path fill="#858585" d="M167.09863,12.75781c-84.58008,0-153.39062,68.81836-153.39062,153.40723
			c0,84.58984,68.81055,153.4082,153.39062,153.4082c84.58887,0,153.40723-68.81836,153.40723-153.4082
			C320.50586,81.57617,251.6875,12.75781,167.09863,12.75781z M167.09863,315.78027
			c-82.49805,0-149.61523-67.11719-149.61523-149.61523S84.60059,16.5498,167.09863,16.5498s149.61523,67.11719,149.61523,149.61523
			S249.59668,315.78027,167.09863,315.78027z"/>
		<path fill="#858585" d="M334,274.05347v-7.1272C317.32031,294.4624,294.01978,317.5542,266.32812,334h7.24731
			C297.76025,318.59302,318.4043,298.10596,334,274.05347z"/>
		<path fill="#858585" d="M166.99902,111.2373c-30.27832,0-54.91113,24.64062-54.91113,54.92773
			s24.63281,54.92773,54.91113,54.92773c30.28711,0,54.92773-24.64062,54.92773-54.92773S197.28613,111.2373,166.99902,111.2373z
			 M166.99902,217.30078c-28.19629,0-51.13477-22.93945-51.13477-51.13574s22.93848-51.13574,51.13477-51.13574
			s51.13574,22.93945,51.13574,51.13574S195.19531,217.30078,166.99902,217.30078z"/>
		<path fill="#858585" d="M334,322.97681v-5.5647c-5.27368,5.81592-10.85303,11.34814-16.69995,16.58789h5.61011
			C326.72974,330.45093,330.4292,326.77588,334,322.97681z"/>
		<path fill="#858585" d="M334,328.45703c-1.82544,1.87695-3.67749,3.72778-5.5647,5.54297h5.42456
			c0.04639-0.0459,0.09375-0.09082,0.14014-0.13672V328.45703z"/>
		<path fill="#858585" d="M334,287.41357v-6.5498C319.62476,301.72485,301.45459,319.77734,280.48096,334h6.60547
			C305.10083,321.0791,320.9519,305.33032,334,287.41357z"/>
		<path fill="#858585" d="M167.08203,27.90723c-76.22656,0-138.24121,62.02246-138.24121,138.25781
			s62.01465,138.25781,138.24121,138.25781c76.23535,0,138.25781-62.02246,138.25781-138.25781
			S243.31738,27.90723,167.08203,27.90723z M167.08203,300.63086c-74.14453,0-134.46582-60.32129-134.46582-134.46582
			S92.9375,31.69922,167.08203,31.69922s134.46582,60.32129,134.46582,134.46582S241.22656,300.63086,167.08203,300.63086z"/>
		<path fill="#858585" d="M334,299.88721v-6.14258c-11.62573,15.177-25.26465,28.73218-40.52393,40.25537h6.198
			C312.35791,323.95581,323.87451,312.50342,334,299.88721z"/>
		<path fill="#858585" d="M334,311.70361v-5.83862c-8.55981,10.21265-18.02905,19.63818-28.29614,28.13501h5.86865
			C319.56543,327.10767,327.06006,319.6543,334,311.70361z"/>
		<path fill="#858585" d="M167.03223,88.52148c-42.8125,0-77.64355,34.83105-77.64355,77.64355s34.83105,77.64355,77.64355,77.64355
			s77.64355-34.83105,77.64355-77.64355S209.84473,88.52148,167.03223,88.52148z M167.01562,240.0332
			c-40.72168,0-73.85156-33.13672-73.85156-73.86816s33.12988-73.86816,73.85156-73.86816
			c40.73145,0,73.86816,33.13672,73.86816,73.86816S207.74707,240.0332,167.01562,240.0332z"/>
		<path fill="#858585" d="M167.04883,65.78906c-55.34766,0-100.37598,45.02832-100.37598,100.37598
			s45.02832,100.37598,100.37598,100.37598S267.4248,221.5127,267.4248,166.16504S222.39648,65.78906,167.04883,65.78906z
			 M167.04883,262.74902c-53.26562,0-96.60059-43.32715-96.60059-96.58398s43.33496-96.58398,96.60059-96.58398
			c53.25684,0,96.58398,43.32715,96.58398,96.58398S220.30566,262.74902,167.04883,262.74902z"/>
		<path fill="#858585" d="M167.04883,73.37207c-51.1748,0-92.80957,41.62695-92.80957,92.79297s41.63477,92.79297,92.80957,92.79297
			c51.16602,0,92.79297-41.62695,92.79297-92.79297S218.21484,73.37207,167.04883,73.37207z M167.03223,255.18262
			c-49.08496,0-89.01758-39.93262-89.01758-89.01758s39.93262-89.01758,89.01758-89.01758s89.01758,39.93262,89.01758,89.01758
			S216.11719,255.18262,167.03223,255.18262z"/>
		<path fill="#858585" d="M167.08203,35.49023c-72.05371,0-130.6748,58.62109-130.6748,130.6748
			s58.62109,130.6748,130.6748,130.6748s130.6748-58.62109,130.6748-130.6748S239.13574,35.49023,167.08203,35.49023z
			 M167.08203,293.04785c-69.97266,0-126.89941-56.91895-126.89941-126.88281S97.10938,39.28223,167.08203,39.28223
			c69.96387,0,126.88281,56.91895,126.88281,126.88281S237.0459,293.04785,167.08203,293.04785z"/>
		<path fill="#858585" d="M167.01562,103.6709c-34.45898,0-62.49414,28.03516-62.49414,62.49414
			s28.03516,62.49414,62.49414,62.49414s62.49414-28.03516,62.49414-62.49414S201.47461,103.6709,167.01562,103.6709z
			 M166.99902,224.88379c-32.36816,0-58.70215-26.34082-58.70215-58.71875s26.33398-58.71875,58.70215-58.71875
			c32.37793,0,58.71875,26.34082,58.71875,58.71875S199.37695,224.88379,166.99902,224.88379z"/>
		<path fill="#858585" d="M167.01562,96.08789c-38.63184,0-70.06055,31.43652-70.06055,70.07715
			s31.42871,70.07715,70.06055,70.07715c38.64062,0,70.07715-31.43652,70.07715-70.07715S205.65625,96.08789,167.01562,96.08789z
			 M167.01562,232.4502c-36.5498,0-66.28516-29.73535-66.28516-66.28516s29.73535-66.28516,66.28516-66.28516
			s66.28516,29.73535,66.28516,66.28516S203.56543,232.4502,167.01562,232.4502z"/>
		<path fill="#858585" d="M167.03223,80.93848c-46.99414,0-85.22656,38.23242-85.22656,85.22656
			s38.23242,85.22656,85.22656,85.22656s85.22656-38.23242,85.22656-85.22656S214.02637,80.93848,167.03223,80.93848z
			 M167.03223,247.59961c-44.90332,0-81.43457-36.53125-81.43457-81.43457s36.53125-81.43457,81.43457-81.43457
			s81.43457,36.53125,81.43457,81.43457S211.93555,247.59961,167.03223,247.59961z"/>
		<path fill="#858585" d="M167.06543,58.22266c-59.52832,0-107.95898,48.42285-107.95898,107.94238
			s48.43066,107.94238,107.95898,107.94238c59.51953,0,107.94238-48.42285,107.94238-107.94238
			S226.58496,58.22266,167.06543,58.22266z M167.04883,270.33203c-57.43848,0-104.16699-46.72852-104.16699-104.16699
			S109.61035,61.99805,167.04883,61.99805s104.16699,46.72852,104.16699,104.16699S224.4873,270.33203,167.04883,270.33203z"/>
		<path fill="#858585" d="M167.08203,43.07324c-67.88184,0-123.1084,55.21875-123.1084,123.0918
			s55.22656,123.0918,123.1084,123.0918c67.87305,0,123.0918-55.21875,123.0918-123.0918S234.95508,43.07324,167.08203,43.07324z
			 M167.06543,285.48145c-65.79102,0-119.31641-53.52539-119.31641-119.31641S101.27441,46.84863,167.06543,46.84863
			s119.31641,53.52539,119.31641,119.31641S232.85645,285.48145,167.06543,285.48145z"/>
		<path fill="#858585" d="M167.06543,50.63965c-63.70117,0-115.52539,51.82422-115.52539,115.52539
			s51.82422,115.52539,115.52539,115.52539s115.52539-51.82422,115.52539-115.52539S230.7666,50.63965,167.06543,50.63965z
			 M167.06543,277.89844c-61.61914,0-111.75-50.12305-111.75-111.7334s50.13086-111.7334,111.75-111.7334
			c61.61035,0,111.7334,50.12305,111.7334,111.7334S228.67578,277.89844,167.06543,277.89844z"/>
		<path fill="#7A7A7A" d="M167,160.47852c-3.13672,0-5.6875,2.55078-5.6875,5.68652c0,3.13672,2.55078,5.6875,5.6875,5.6875
			c3.13574,0,5.68652-2.55078,5.68652-5.6875C172.68652,163.0293,170.13574,160.47852,167,160.47852z M167,168.06152
			c-1.0459,0-1.89648-0.85059-1.89648-1.89648c0-1.04492,0.85059-1.89551,1.89648-1.89551
			c1.04492,0,1.89551,0.85059,1.89551,1.89551C168.89551,167.21094,168.04492,168.06152,167,168.06152z"/>
		<path fill="#7A7A7A" d="M167.01562,152.91211c-7.31738,0-13.26953,5.94531-13.26953,13.25293
			c0,7.30859,5.95215,13.25391,13.26953,13.25391c7.30859,0,13.25391-5.94531,13.25391-13.25391
			C180.26953,158.85742,174.32422,152.91211,167.01562,152.91211z M167.01562,175.62793c-5.22656,0-9.47852-4.24512-9.47852-9.46289
			c0-5.2168,4.25195-9.46191,9.47852-9.46191c5.21777,0,9.46289,4.24512,9.46289,9.46191
			C176.47852,171.38281,172.2334,175.62793,167.01562,175.62793z"/>
		<path fill="#7A7A7A" d="M167.01562,145.32812c-11.48926,0-20.83594,9.34766-20.83594,20.83691s9.34668,20.83691,20.83594,20.83691
			s20.83691-9.34766,20.83691-20.83691S178.50488,145.32812,167.01562,145.32812z M167.01562,183.21094
			c-9.39844,0-17.04492-7.64648-17.04492-17.0459s7.64648-17.0459,17.04492-17.0459c9.39941,0,17.0459,7.64648,17.0459,17.0459
			S176.41504,183.21094,167.01562,183.21094z"/>
		<path fill="#7A7A7A" d="M167.03223,137.76172c-15.66992,0-28.41895,12.74121-28.41895,28.40332
			s12.74902,28.40332,28.41895,28.40332c15.66211,0,28.40332-12.74121,28.40332-28.40332S182.69434,137.76172,167.03223,137.76172z
			 M167.03223,190.77734c-13.58008,0-24.62793-11.04102-24.62793-24.6123s11.04785-24.6123,24.62793-24.6123
			c13.57129,0,24.6123,11.04102,24.6123,24.6123S180.60352,190.77734,167.03223,190.77734z"/>
		<path fill="#7A7A7A" d="M167.03223,130.17871c-19.84277,0-35.98535,16.14355-35.98535,35.98633
			s16.14258,35.98633,35.98535,35.98633s35.98633-16.14355,35.98633-35.98633S186.875,130.17871,167.03223,130.17871z
			 M167.03223,198.36035c-17.75195,0-32.19434-14.44336-32.19434-32.19531s14.44238-32.19531,32.19434-32.19531
			s32.19531,14.44336,32.19531,32.19531S184.78418,198.36035,167.03223,198.36035z"/>
		<path fill="#7A7A7A" d="M167.04883,122.6123c-24.02441,0-43.56934,19.53711-43.56934,43.55273
			s19.54492,43.55273,43.56934,43.55273c24.01562,0,43.55273-19.53711,43.55273-43.55273S191.06445,122.6123,167.04883,122.6123z
			 M167.04883,205.92676c-21.93359,0-39.77832-17.83691-39.77832-39.76172s17.84473-39.76172,39.77832-39.76172
			c21.9248,0,39.76172,17.83691,39.76172,39.76172S188.97363,205.92676,167.04883,205.92676z"/>
		<path fill="#7A7A7A" d="M166.99902,115.0293c-28.19629,0-51.13477,22.93945-51.13477,51.13574
			s22.93848,51.13574,51.13477,51.13574s51.13574-22.93945,51.13574-51.13574S195.19531,115.0293,166.99902,115.0293z
			 M166.99902,213.50977c-26.10547,0-47.34375-21.23926-47.34375-47.34473s21.23828-47.34473,47.34375-47.34473
			s47.34473,21.23926,47.34473,47.34473S193.10449,213.50977,166.99902,213.50977z"/>
		<path fill="#7A7A7A" d="M166.99902,107.44629c-32.36816,0-58.70215,26.34082-58.70215,58.71875
			s26.33398,58.71875,58.70215,58.71875c32.37793,0,58.71875-26.34082,58.71875-58.71875S199.37695,107.44629,166.99902,107.44629z
			 M166.99902,221.09277c-30.27832,0-54.91113-24.64062-54.91113-54.92773s24.63281-54.92773,54.91113-54.92773
			c30.28711,0,54.92773,24.64062,54.92773,54.92773S197.28613,221.09277,166.99902,221.09277z"/>
		<path fill="#7A7A7A" d="M167.01562,99.87988c-36.5498,0-66.28516,29.73535-66.28516,66.28516s29.73535,66.28516,66.28516,66.28516
			s66.28516-29.73535,66.28516-66.28516S203.56543,99.87988,167.01562,99.87988z M167.01562,228.65918
			c-34.45898,0-62.49414-28.03516-62.49414-62.49414s28.03516-62.49414,62.49414-62.49414s62.49414,28.03516,62.49414,62.49414
			S201.47461,228.65918,167.01562,228.65918z"/>
		<path fill="#7A7A7A" d="M167.01562,92.29688c-40.72168,0-73.85156,33.13672-73.85156,73.86816
			s33.12988,73.86816,73.85156,73.86816c40.73145,0,73.86816-33.13672,73.86816-73.86816S207.74707,92.29688,167.01562,92.29688z
			 M167.01562,236.24219c-38.63184,0-70.06055-31.43652-70.06055-70.07715s31.42871-70.07715,70.06055-70.07715
			c38.64062,0,70.07715,31.43652,70.07715,70.07715S205.65625,236.24219,167.01562,236.24219z"/>
		<path fill="#7A7A7A" d="M167.03223,84.73047c-44.90332,0-81.43457,36.53125-81.43457,81.43457
			s36.53125,81.43457,81.43457,81.43457s81.43457-36.53125,81.43457-81.43457S211.93555,84.73047,167.03223,84.73047z
			 M167.03223,243.80859c-42.8125,0-77.64355-34.83105-77.64355-77.64355s34.83105-77.64355,77.64355-77.64355
			s77.64355,34.83105,77.64355,77.64355S209.84473,243.80859,167.03223,243.80859z"/>
		<path fill="#7A7A7A" d="M167.03223,77.14746c-49.08496,0-89.01758,39.93262-89.01758,89.01758
			s39.93262,89.01758,89.01758,89.01758S256.0498,215.25,256.0498,166.16504S216.11719,77.14746,167.03223,77.14746z
			 M167.03223,251.3916c-46.99414,0-85.22656-38.23242-85.22656-85.22656s38.23242-85.22656,85.22656-85.22656
			s85.22656,38.23242,85.22656,85.22656S214.02637,251.3916,167.03223,251.3916z"/>
		<path fill="#7A7A7A" d="M167.04883,69.58105c-53.26562,0-96.60059,43.32715-96.60059,96.58398
			s43.33496,96.58398,96.60059,96.58398c53.25684,0,96.58398-43.32715,96.58398-96.58398S220.30566,69.58105,167.04883,69.58105z
			 M167.04883,258.95801c-51.1748,0-92.80957-41.62695-92.80957-92.79297s41.63477-92.79297,92.80957-92.79297
			c51.16602,0,92.79297,41.62695,92.79297,92.79297S218.21484,258.95801,167.04883,258.95801z"/>
		<path fill="#7A7A7A" d="M167.04883,61.99805c-57.43848,0-104.16699,46.72852-104.16699,104.16699
			s46.72852,104.16699,104.16699,104.16699s104.16699-46.72852,104.16699-104.16699S224.4873,61.99805,167.04883,61.99805z
			 M167.04883,266.54102c-55.34766,0-100.37598-45.02832-100.37598-100.37598S111.70117,65.78906,167.04883,65.78906
			S267.4248,110.81738,267.4248,166.16504S222.39648,266.54102,167.04883,266.54102z"/>
		<path fill="#7A7A7A" d="M167.06543,54.43164c-61.61914,0-111.75,50.12305-111.75,111.7334s50.13086,111.7334,111.75,111.7334
			c61.61035,0,111.7334-50.12305,111.7334-111.7334S228.67578,54.43164,167.06543,54.43164z M167.06543,274.10742
			c-59.52832,0-107.95898-48.42285-107.95898-107.94238S107.53711,58.22266,167.06543,58.22266
			c59.51953,0,107.94238,48.42285,107.94238,107.94238S226.58496,274.10742,167.06543,274.10742z"/>
		<path fill="#7A7A7A" d="M167.06543,46.84863c-65.79102,0-119.31641,53.52539-119.31641,119.31641
			s53.52539,119.31641,119.31641,119.31641s119.31641-53.52539,119.31641-119.31641S232.85645,46.84863,167.06543,46.84863z
			 M167.06543,281.69043c-63.70117,0-115.52539-51.82422-115.52539-115.52539S103.36426,50.63965,167.06543,50.63965
			s115.52539,51.82422,115.52539,115.52539S230.7666,281.69043,167.06543,281.69043z"/>
		<path fill="#7A7A7A" d="M167.08203,39.28223c-69.97266,0-126.89941,56.91895-126.89941,126.88281
			s56.92676,126.88281,126.89941,126.88281c69.96387,0,126.88281-56.91895,126.88281-126.88281
			S237.0459,39.28223,167.08203,39.28223z M167.08203,289.25684c-67.88184,0-123.1084-55.21875-123.1084-123.0918
			s55.22656-123.0918,123.1084-123.0918c67.87305,0,123.0918,55.21875,123.0918,123.0918S234.95508,289.25684,167.08203,289.25684z"
			/>
		<path fill="#7A7A7A" d="M167.08203,31.69922c-74.14453,0-134.46582,60.32129-134.46582,134.46582
			S92.9375,300.63086,167.08203,300.63086s134.46582-60.32129,134.46582-134.46582S241.22656,31.69922,167.08203,31.69922z
			 M167.08203,296.83984c-72.05371,0-130.6748-58.62109-130.6748-130.6748s58.62109-130.6748,130.6748-130.6748
			s130.6748,58.62109,130.6748,130.6748S239.13574,296.83984,167.08203,296.83984z"/>
		<path fill="#7A7A7A" d="M167.08203,24.11621c-78.31738,0-142.03223,63.72266-142.03223,142.04883
			s63.71484,142.04883,142.03223,142.04883c78.32617,0,142.04883-63.72266,142.04883-142.04883
			S245.4082,24.11621,167.08203,24.11621z M167.08203,304.42285c-76.22656,0-138.24121-62.02246-138.24121-138.25781
			S90.85547,27.90723,167.08203,27.90723c76.23535,0,138.25781,62.02246,138.25781,138.25781
			S243.31738,304.42285,167.08203,304.42285z"/>
		<path fill="#7A7A7A" d="M167.09863,16.5498c-82.49805,0-149.61523,67.11719-149.61523,149.61523
			s67.11719,149.61523,149.61523,149.61523s149.61523-67.11719,149.61523-149.61523S249.59668,16.5498,167.09863,16.5498z
			 M167.09863,311.98926c-80.40723,0-145.82422-65.41699-145.82422-145.82422S86.69141,20.34082,167.09863,20.34082
			s145.82422,65.41699,145.82422,145.82422S247.50586,311.98926,167.09863,311.98926z"/>
		<path fill="#7A7A7A" d="M167.09863,8.9668c-86.66992,0-157.18164,70.51855-157.18164,157.19824
			s70.51172,157.19922,157.18164,157.19922c86.67969,0,157.19824-70.51953,157.19824-157.19922S253.77832,8.9668,167.09863,8.9668z
			 M167.09863,319.57324c-84.58008,0-153.39062-68.81836-153.39062-153.4082c0-84.58887,68.81055-153.40723,153.39062-153.40723
			c84.58887,0,153.40723,68.81836,153.40723,153.40723C320.50586,250.75488,251.6875,319.57324,167.09863,319.57324z"/>
		<path fill="#7A7A7A" d="M167.11523,1.40039c-90.85254,0-164.76562,73.91309-164.76562,164.76465
			c0,90.85254,73.91309,164.76562,164.76562,164.76562c90.85156,0,164.76465-73.91309,164.76465-164.76562
			C331.87988,75.31348,257.9668,1.40039,167.11523,1.40039z M167.11523,327.13965
			c-88.76172,0-160.97461-72.21289-160.97461-160.97461c0-88.76074,72.21289-160.97363,160.97461-160.97363
			c88.76074,0,160.97363,72.21289,160.97363,160.97363C328.08887,254.92676,255.87598,327.13965,167.11523,327.13965z"/>
		<path fill="#7A7A7A" d="M138.68372,0h-17.4563C61.87695,16.37109,15.2605,63.76074,0,123.56372v19.84912
			C9.88135,70.50195,66.55005,12.25635,138.68372,0z"/>
		<path fill="#7A7A7A" d="M0,188.91724v19.84912C15.81555,270.74438,65.3064,319.39795,127.74988,334h23.71741
			C73.32605,326.82446,10.45825,266.08447,0,188.91724z"/>
		<path fill="#7A7A7A" d="M334,208.82837v-19.80054C323.49585,266.14233,260.64551,326.82788,182.53418,334h23.71948
			C268.68213,319.40259,318.16602,270.7771,334,208.82837z"/>
		<path fill="#7A7A7A" d="M334,143.30225v-19.80029C318.72168,63.72803,272.1123,16.36548,212.77686,0h-17.45801
			C267.42285,12.25024,324.07544,70.44312,334,143.30225z"/>
		<path fill="#7A7A7A" d="M108.63074,0H98.05176C53.53516,18.54126,18.01135,54.46362,0,99.24805v10.93823
			C17.26221,58.82837,57.59961,17.97998,108.63074,0z"/>
		<path fill="#7A7A7A" d="M334,110.13574V99.20703C315.98511,54.44165,280.47314,18.53564,235.97363,0h-10.57837
			C276.40527,17.97412,316.72998,58.80151,334,110.13574z"/>
		<path fill="#7A7A7A" d="M334,233.12354v-10.92871C316.17334,275.18408,273.78296,316.98145,220.43091,334h11.38867
			C278.25928,316.00732,315.42798,279.27368,334,233.12354z"/>
		<path fill="#7A7A7A" d="M0,222.14429v10.93823C18.56812,279.25195,55.74878,316.00195,102.2063,334h11.38928
			C60.2218,316.97607,17.81836,275.15771,0,222.14429z"/>
		<path fill="#7A7A7A" d="M88.72791,0h-8.49329C45.84668,18.03247,17.70581,46.41895,0,81.00244v8.69531
			C18.07532,50.37524,49.63721,18.49194,88.72791,0z"/>
		<path fill="#7A7A7A" d="M334,251.39209v-8.69116c-18.63696,40.49976-51.5813,73.104-92.32227,91.29907h8.85571
			C286.38306,316.08789,315.73486,287.03394,334,251.39209z"/>
		<path fill="#7A7A7A" d="M334,89.62915v-8.69116C316.29199,46.38354,288.16382,18.02148,253.79688,0h-8.49341
			C284.37158,18.4812,315.91943,50.33838,334,89.62915z"/>
		<path fill="#7A7A7A" d="M0,242.63232v8.69531C18.2627,286.99902,47.62695,316.07715,83.49805,334h8.85559
			C51.58984,315.79443,18.6311,283.16406,0,242.63232z"/>
		<path fill="#7A7A7A" d="M72.37573,0h-7.41284C38.45337,16.34082,16.12695,38.83789,0,65.49023v7.55005
			C17.03076,42.61938,42.12354,17.29785,72.37573,0z"/>
		<path fill="#7A7A7A" d="M0,259.29053v7.54956C16.68433,294.41382,40.00562,317.53735,67.72815,334h7.62976
			C43.77283,316.6814,17.58716,290.70557,0,259.29053z"/>
		<path fill="#7A7A7A" d="M334,72.94922v-7.54517C317.87817,38.78906,295.57227,16.32349,269.09326,0h-7.41187
			C291.90088,17.28076,316.97168,42.56885,334,72.94922z"/>
		<path fill="#7A7A7A" d="M334,266.92627v-7.54468C316.41455,290.75586,290.25146,316.69824,258.69946,334h7.62866
			C294.01978,317.5542,317.32031,294.4624,334,266.92627z"/>
		<path fill="#7A7A7A" d="M334,280.86377v-6.8103C318.4043,298.10596,297.76025,318.59302,273.57544,334h6.90552
			C301.45459,319.77734,319.62476,301.72485,334,280.86377z"/>
		<path fill="#7A7A7A" d="M0,273.95459v6.81543C14.38525,301.6709,32.57886,319.7561,53.58374,334h6.90552
			C36.27136,318.57178,15.60303,298.05005,0,273.95459z"/>
		<path fill="#7A7A7A" d="M57.92566,0h-6.74902C31.18921,13.97803,13.83154,31.46387,0,51.56006v6.81543
			C15.04858,35.13623,34.81323,15.22729,57.92566,0z"/>
		<path fill="#7A7A7A" d="M334,58.27661v-6.8103C320.17896,31.40942,302.84424,13.9563,282.88818,0h-6.74902
			C299.21875,15.20557,318.95923,35.07983,334,58.27661z"/>
		<path fill="#7A7A7A" d="M334,44.9165v-6.33105C322.93042,24.13428,310.03418,11.15601,295.65308,0h-6.27856
			C306.44434,12.59985,321.50781,27.76294,334,44.9165z"/>
		<path fill="#7A7A7A" d="M334,293.74463v-6.33105C320.9519,305.33032,305.10083,321.0791,287.08643,334h6.38965
			C308.73535,322.47681,322.37427,308.92163,334,293.74463z"/>
		<path fill="#7A7A7A" d="M0,287.29663v6.33667C11.64502,308.85547,25.31445,322.44873,40.61194,334h6.39075
			C28.94751,321.05078,13.06519,305.26196,0,287.29663z"/>
		<path fill="#7A7A7A" d="M44.71436,0h-6.2793C24.01575,11.18457,11.08936,24.20093,0,38.69678v6.33667
			C12.50977,27.83179,27.60425,12.62842,44.71436,0z"/>
		<path fill="#7A7A7A" d="M0,299.76587v5.98364C8.58521,316.00684,18.08789,325.47095,28.3938,334h6.02979
			C21.69922,323.92358,10.14893,312.43018,0,299.76587z"/>
		<path fill="#7A7A7A" d="M334,32.44287v-5.97778C325.9939,16.91309,317.18481,8.05835,307.67822,0h-5.93164
			C313.61377,9.63818,324.42969,20.5188,334,32.44287z"/>
		<path fill="#7A7A7A" d="M334,305.86499v-5.97778c-10.12549,12.61621-21.64209,24.0686-34.32593,34.11279h6.02979
			C315.97095,325.50317,325.44019,316.07764,334,305.86499z"/>
		<path fill="#7A7A7A" d="M32.35107,0h-5.93152C16.87427,8.09082,8.03198,16.98413,0,26.58057v5.98364
			C9.59412,20.59229,20.44373,9.6709,32.35107,0z"/>
		<path fill="#7A7A7A" d="M20.63562,0h-5.67676C9.74243,4.7793,4.74854,9.79736,0,15.04199v5.70874
			C6.41577,13.38892,13.31384,6.45996,20.63562,0z"/>
		<path fill="#7A7A7A" d="M334,317.41211v-5.7085c-6.93994,7.95068-14.43457,15.40405-22.42749,22.29639h5.72754
			C323.14697,328.76025,328.72632,323.22803,334,317.41211z"/>
		<path fill="#7A7A7A" d="M334,20.62646v-5.7085C329.28442,9.71777,324.32617,4.74194,319.15015,0h-5.677
			C320.75391,6.42334,327.61475,13.31128,334,20.62646z"/>
		<path fill="#7A7A7A" d="M0,311.57935v5.70874C5.30615,323.14868,10.92114,328.72314,16.80884,334h5.72729
			C14.50195,327.07153,6.96985,319.57715,0,311.57935z"/>
		<path fill="#7A7A7A" d="M334,9.35327V3.87305C332.72998,2.56714,331.44531,1.27612,330.14551,0h-5.44165
			C327.89258,3.02686,330.98877,6.14941,334,9.35327z"/>
		<path fill="#7A7A7A" d="M334,328.45703v-5.48022c-3.5708,3.79907-7.27026,7.47412-11.08984,11.02319h5.52515
			C330.32251,332.18481,332.17456,330.33398,334,328.45703z"/>
		<path fill="#7A7A7A" d="M0,322.83643v5.48657c1.86743,1.92334,3.76343,3.8186,5.69556,5.677h5.52515
			C7.35425,330.40723,3.61133,326.68506,0,322.83643z"/>
		<path fill="#7A7A7A" d="M9.427,0H3.98535C2.64087,1.31982,1.31238,2.65527,0,4.00708v5.48657
			C3.05237,6.24072,6.19165,3.0708,9.427,0z"/>
		<path fill="#7A7A7A" d="M334,333.86328c-0.04639,0.0459-0.09375,0.09082-0.14014,0.13672H334V333.86328z"/>
		<path fill="#7A7A7A" d="M0,334h0.28284C0.18945,333.90723,0.09326,333.81689,0,333.72363V334z"/>
	</g>
</g>
<g id="Layer_3" display="none">
</g>
<g id="Layer_2" display="none">
</g>
</svg>
