<?xml version="1.0" encoding="utf-8"?>
<!-- Generator: Adobe Illustrator 21.1.0, SVG Export Plug-In . SVG Version: 6.00 Build 0)  -->
<svg version="1.2" baseProfile="tiny" xmlns="http://www.w3.org/2000/svg" xmlns:xlink="http://www.w3.org/1999/xlink" x="0px"
	 y="0px" viewBox="0 0 334 334" xml:space="preserve">
<g id="Layer_1">
	<g>
		<path fill="#ADADAD" d="M166.33154,152.00288c-8.08643,0-14.66504,6.57861-14.66504,14.66504s6.57861,14.66553,14.66504,14.66553
			s14.66504-6.5791,14.66504-14.66553S174.41797,152.00288,166.33154,152.00288z"/>
		<path fill="#ADADAD" d="M166.33154,34.69869c-72.76807,0-131.96924,59.20117-131.96924,131.96924
			c0,72.76855,59.20117,131.96974,131.96924,131.96974c72.76855,0,131.96973-59.20119,131.96973-131.96974
			C298.30127,93.89986,239.1001,34.69869,166.33154,34.69869z M166.33154,269.3071
			c-56.60449,0-102.65576-46.04347-102.65576-102.63918c0-56.59521,46.05127-102.63866,102.65576-102.63866
			c56.5957,0,102.63916,46.04346,102.63916,102.63866C268.9707,223.26363,222.92725,269.3071,166.33154,269.3071z"/>
		<path fill="#ADADAD" d="M0,310.43277v23.40265h23.55078C15.13,326.63144,7.2511,318.81198,0,310.43277z"/>
		<path fill="#ADADAD" d="M334,24.46859V-0.00004h-24.28644C318.43188,7.51064,326.54962,15.69723,334,24.46859z"/>
		<path fill="#ADADAD" d="M166.33154,93.35934c-40.43213,0-73.32568,32.88623-73.32568,73.30859
			c0,40.42285,32.89355,73.30908,73.32568,73.30908c40.42285,0,73.30908-32.88623,73.30908-73.30908
			C239.64062,126.24557,206.75439,93.35934,166.33154,93.35934z M166.33154,210.66353
			c-24.25928,0-43.99512-19.73633-43.99512-43.99561c0-24.25879,19.73584-43.99511,43.99512-43.99511
			s43.99512,19.73632,43.99512,43.99511C210.32666,190.9272,190.59082,210.66353,166.33154,210.66353z"/>
		<path fill="#ADADAD" d="M309.12354,333.83542H334v-24.96777C326.38287,317.83536,318.06415,326.18729,309.12354,333.83542z"/>
		<path fill="#ADADAD" d="M22.96075-0.00004H0v22.90356C7.08258,14.71908,14.76074,7.06472,22.96075-0.00004z"/>
		<path fill="#ADADAD" d="M334,257.30667V76.02956c-17.32825-31.92639-43.51581-58.36847-75.2345-76.0296H73.90607
			C42.98059,17.22091,17.32318,42.79647,0,73.65914v186.01794c17.48987,31.15973,43.47253,56.93427,74.79755,74.15833H257.8739
			C289.99475,316.17532,316.50916,289.53268,334,257.30667z M166.33154,327.96774
			c-88.94092,0-161.29932-72.3589-161.29932-161.29982S77.39062,5.36861,166.33154,5.36861s161.2998,72.3584,161.2998,161.29932
			S255.27246,327.96774,166.33154,327.96774z"/>
		<path fill="#525252" d="M166.33154,122.67281c-24.25928,0-43.99512,19.73632-43.99512,43.99511
			c0,24.25928,19.73584,43.99561,43.99512,43.99561s43.99512-19.73633,43.99512-43.99561
			C210.32666,142.40913,190.59082,122.67281,166.33154,122.67281z M166.33154,181.33345
			c-8.08643,0-14.66504-6.5791-14.66504-14.66553s6.57861-14.66504,14.66504-14.66504s14.66504,6.57861,14.66504,14.66504
			S174.41797,181.33345,166.33154,181.33345z"/>
		<path fill="#525252" d="M166.33154,64.02926c-56.60449,0-102.65576,46.04346-102.65576,102.63866
			c0,56.5957,46.05127,102.63918,102.65576,102.63918c56.5957,0,102.63916-46.04347,102.63916-102.63918
			C268.9707,110.07272,222.92725,64.02926,166.33154,64.02926z M166.33154,239.97701
			c-40.43213,0-73.32568-32.88623-73.32568-73.30908c0-40.42236,32.89355-73.30859,73.32568-73.30859
			c40.42285,0,73.30908,32.88623,73.30908,73.30859C239.64062,207.09077,206.75439,239.97701,166.33154,239.97701z"/>
		<path fill="#525252" d="M166.33154,5.36861c-88.94092,0-161.29932,72.3584-161.29932,161.29932
			s72.3584,161.29982,161.29932,161.29982s161.2998-72.3589,161.2998-161.29982S255.27246,5.36861,166.33154,5.36861z
			 M166.33154,298.63766c-72.76807,0-131.96924-59.20119-131.96924-131.96974c0-72.76806,59.20117-131.96924,131.96924-131.96924
			c72.76855,0,131.96973,59.20117,131.96973,131.96924C298.30127,239.43648,239.1001,298.63766,166.33154,298.63766z"/>
		<path fill="#525252" d="M0,259.67709v50.75568c7.2511,8.37921,15.13,16.19867,23.55078,23.40265
			c0.06451,0.05518,0.12994,0.10944,0.19452,0.16455h51.34619c-0.09851-0.05396-0.1955-0.11047-0.29395-0.16455
			C43.47253,316.61136,17.48987,290.83682,0,259.67709z"/>
		<path fill="#525252" d="M334,308.86765v-51.56097c-17.49084,32.22601-44.00525,58.86865-76.1261,76.52875
			c-0.09845,0.05408-0.19543,0.1106-0.29401,0.16455h51.34912c0.06458-0.05511,0.13-0.10938,0.19452-0.16455
			C318.06415,326.18729,326.38287,317.83536,334,308.86765z"/>
		<path fill="#525252" d="M73.90607-0.00004H22.96075C14.76074,7.06472,7.08258,14.71908,0,22.90353v50.75562
			C17.32318,42.79647,42.98059,17.22091,73.90607-0.00004z"/>
		<path fill="#525252" d="M334,76.02956V24.46859c-7.45038-8.77136-15.56812-16.95795-24.28644-24.46863H258.7655
			C290.48419,17.66109,316.67175,44.10317,334,76.02956z"/>
	</g>
</g>
<g id="Layer_3" display="none">
</g>
<g id="Layer_2" display="none">
</g>
</svg>
