<?xml version="1.0" encoding="utf-8"?>
<!-- Generator: Adobe Illustrator 21.1.0, SVG Export Plug-In . SVG Version: 6.00 Build 0)  -->
<svg version="1.2" baseProfile="tiny" xmlns="http://www.w3.org/2000/svg" xmlns:xlink="http://www.w3.org/1999/xlink" x="0px"
	 y="0px" viewBox="0 0 334 334" xml:space="preserve">
<g id="Layer_1">
	<g>
		<path fill="#858585" d="M0,290.177v13.21436C9.22119,314.59302,19.55115,324.84644,30.81018,334h13.32214
			C27.33398,321.66919,12.44214,306.88867,0,290.177z"/>
		<path fill="#858585" d="M166.99902,333.45215c88.99292,0,161.96826-69.85229,167.00098-157.60669v-19.36279
			C329.33691,75.17529,266.34375,9.24829,186.32666,0h-38.65527C67.66016,9.2478,4.67029,75.16699,0,156.46729v19.39355
			C5.04053,263.60791,78.01221,333.45215,166.99902,333.45215z M166.9834,7.02734
			c87.74805,0,159.13672,71.38867,159.13672,159.13672S254.73145,325.30078,166.9834,325.30078
			c-87.73926,0-159.12012-71.38867-159.12012-159.13672S79.24414,7.02734,166.9834,7.02734z"/>
		<path fill="#858585" d="M0,315.89844v11.95361C2.02002,329.9375,4.07275,331.99097,6.1687,334h12.0387
			C11.80151,328.31445,5.7207,322.27246,0,315.89844z"/>
		<path fill="#858585" d="M167,284.47852c65.23926,0,118.31445-53.0752,118.31445-118.31445S232.23926,47.84961,167,47.84961
			c-65.24902,0-118.33203,53.0752-118.33203,118.31445S101.75098,284.47852,167,284.47852z M167,56.00098
			c60.74414,0,110.16406,49.41895,110.16406,110.16309S227.74414,276.32812,167,276.32812
			c-60.75391,0-110.18066-49.41992-110.18066-110.16406S106.24609,56.00098,167,56.00098z"/>
		<path fill="#858585" d="M0,260.34863v15.59668C15.27002,299.09668,35.2146,318.90137,58.48755,334h15.82104
			C43.2677,316.78857,17.47949,291.22021,0,260.34863z"/>
		<path fill="#858585" d="M167,268.16016c56.24121,0,101.99609-45.75488,101.99609-101.99609
			c0-56.24023-45.75488-101.99512-101.99609-101.99512c-56.25,0-102.0127,45.75488-102.0127,101.99512
			C64.9873,222.40527,110.75,268.16016,167,268.16016z M167,72.31934c51.74609,0,93.84473,42.09863,93.84473,93.84473
			c0,51.74707-42.09863,93.8457-93.84473,93.8457c-51.74707,0-93.8457-42.09863-93.8457-93.8457
			C73.1543,114.41797,115.25293,72.31934,167,72.31934z"/>
		<path fill="#858585" d="M166.9834,300.81445c74.24609,0,134.64941-60.4043,134.64941-134.65039
			S241.22949,31.51465,166.9834,31.51465c-74.2373,0-134.63379,60.40332-134.63379,134.64941S92.74609,300.81445,166.9834,300.81445
			z M167,39.68164c69.74219,0,126.48242,56.74023,126.48242,126.48242S236.74219,292.64648,167,292.64648
			c-69.75195,0-126.5-56.74023-126.5-126.48242S97.24805,39.68164,167,39.68164z"/>
		<path fill="#858585" d="M16.32471,0H4.45703C2.95166,1.47266,1.46509,2.96387,0,4.47644v11.95398
			C5.16016,10.68115,10.60437,5.19189,16.32471,0z"/>
		<path fill="#858585" d="M0,219.98682v22.44287C18.63965,283.0835,51.69702,315.79907,92.58972,334h23.23547
			C61.04785,317.26514,17.5769,274.39502,0,219.98682z"/>
		<path fill="#858585" d="M166.9834,317.13281c83.24414,0,150.96875-67.72461,150.96875-150.96875
			S250.22754,15.19531,166.9834,15.19531c-83.23535,0-150.95215,67.72461-150.95215,150.96875
			S83.74805,317.13281,166.9834,317.13281z M166.9834,23.34668c78.75,0,142.81738,64.06738,142.81738,142.81738
			S245.7334,308.98242,166.9834,308.98242c-78.74121,0-142.80176-64.06836-142.80176-142.81836S88.24219,23.34668,166.9834,23.34668
			z"/>
		<path fill="#858585" d="M334,112.34497V89.90112C315.91699,50.46045,284.26318,18.49329,245.05029,0h-21.67578
			C275.69775,17.79968,316.9834,59.66821,334,112.34497z"/>
		<path fill="#858585" d="M334,71.98193V56.38281C319.2876,34.07715,300.23755,14.87671,278.05029,0h-15.39062
			C292.37915,17.17603,317.08008,42.0979,334,71.98193z"/>
		<path fill="#858585" d="M334,42.15112V28.93799C325.33691,18.41406,315.69678,8.7251,305.22607,0H292.1228
			C308.00171,11.98682,322.1167,26.19019,334,42.15112z"/>
		<path fill="#858585" d="M167,202.88574c20.24805,0,36.7207-16.47363,36.7207-36.72168s-16.47266-36.7207-36.7207-36.7207
			s-36.72168,16.47266-36.72168,36.7207S146.75195,202.88574,167,202.88574z M167,137.59375
			c15.75391,0,28.57031,12.81641,28.57031,28.57031S182.75391,194.73438,167,194.73438
			c-15.74512,0-28.55469-12.81641-28.55469-28.57031S151.25488,137.59375,167,137.59375z"/>
		<path fill="#858585" d="M167,251.8418c47.24219,0,85.67676-38.43457,85.67676-85.67773
			c0-47.24219-38.43457-85.67676-85.67676-85.67676c-47.24316,0-85.67773,38.43457-85.67773,85.67676
			C81.32227,213.40723,119.75684,251.8418,167,251.8418z M167,88.6377c42.74805,0,77.52637,34.77832,77.52637,77.52637
			S209.74805,243.69043,167,243.69043c-42.74902,0-77.52734-34.77832-77.52734-77.52637S124.25098,88.6377,167,88.6377z"/>
		<path fill="#858585" d="M166.99902,219.2041c29.24609,0,53.04004-23.79395,53.04004-53.04004S196.24512,113.125,166.99902,113.125
			s-53.03906,23.79297-53.03906,53.03906S137.75293,219.2041,166.99902,219.2041z M167,121.27539
			c24.75195,0,44.88867,20.13672,44.88867,44.88867S191.75195,211.05371,167,211.05371s-44.88965-20.1377-44.88965-44.88965
			S142.24805,121.27539,167,121.27539z"/>
		<path fill="#858585" d="M110.62402,0H88.94849C49.73645,18.49292,18.08301,50.45947,0,89.89905v22.44287
			C17.01721,59.66675,58.30225,17.79932,110.62402,0z"/>
		<path fill="#858585" d="M167,235.52246c38.24414,0,69.3584-31.11426,69.3584-69.3584S205.24414,96.80566,167,96.80566
			c-38.24512,0-69.35938,31.11426-69.35938,69.3584S128.75488,235.52246,167,235.52246z M166.99902,104.95703
			c33.75,0,61.20801,27.45703,61.20801,61.20703s-27.45801,61.20801-61.20801,61.20801s-61.20703-27.45801-61.20703-61.20801
			S133.24902,104.95703,166.99902,104.95703z"/>
		<path fill="#858585" d="M71.33911,0H55.94983C33.76245,14.87671,14.7124,34.07715,0,56.38281v15.59717
			C16.91992,42.09692,41.62024,17.17554,71.33911,0z"/>
		<path fill="#858585" d="M334,16.4314V4.48938C332.53101,2.97241,331.04028,1.47681,329.53076,0h-11.8562
			C323.39502,5.19214,328.8396,10.68164,334,16.4314z"/>
		<path fill="#858585" d="M167,186.56641c11.25,0,20.40234-9.15234,20.40234-20.40234S178.25,145.76172,167,145.76172
			c-11.24121,0-20.38672,9.15234-20.38672,20.40234S155.75879,186.56641,167,186.56641z M166.99902,153.91309
			c6.75586,0,12.25195,5.49609,12.25195,12.25098c0,6.75586-5.49609,12.25195-12.25195,12.25195
			c-6.74609,0-12.23438-5.49609-12.23438-12.25195C154.76465,159.40918,160.25293,153.91309,166.99902,153.91309z"/>
		<path fill="#858585" d="M334,303.39062V290.177c-12.44214,16.71167-27.33398,31.49219-44.13232,43.823h13.32178
			C314.44873,324.84619,324.77881,314.59253,334,303.39062z"/>
		<path fill="#858585" d="M334,242.42749v-22.44385C316.42383,274.39331,272.95215,317.26465,218.17334,334h23.2356
			C282.30273,315.79883,315.36035,283.08252,334,242.42749z"/>
		<path fill="#858585" d="M334,275.94531v-15.59839C316.52051,291.21924,290.73193,316.78809,259.68994,334h15.82251
			C298.7854,318.90137,318.72998,299.09668,334,275.94531z"/>
		<path fill="#858585" d="M334,327.83936v-11.94189c-5.72095,6.37427-11.802,12.41675-18.20825,18.10254h12.02734
			C329.91943,331.98682,331.97607,329.9292,334,327.83936z"/>
		<path fill="#858585" d="M166.99902,170.24805c2.25195,0,4.08398-1.83203,4.08398-4.08398
			c0-2.25098-1.83203-4.08301-4.08398-4.08301c-2.24219,0-4.06641,1.83203-4.06641,4.08301
			C162.93262,168.41602,164.75684,170.24805,166.99902,170.24805z"/>
		<path fill="#858585" d="M41.8772,0H28.77356C18.30298,8.72485,8.66309,18.41357,0,28.93726v13.21387
			C11.8833,26.19019,25.99829,11.98682,41.8772,0z"/>
		<path fill="#7A7A7A" d="M166.99902,178.41602c6.75586,0,12.25195-5.49609,12.25195-12.25195
			c0-6.75488-5.49609-12.25098-12.25195-12.25098c-6.74609,0-12.23438,5.49609-12.23438,12.25098
			C154.76465,172.91992,160.25293,178.41602,166.99902,178.41602z M166.99902,162.08105c2.25195,0,4.08398,1.83203,4.08398,4.08301
			c0,2.25195-1.83203,4.08398-4.08398,4.08398c-2.24219,0-4.06641-1.83203-4.06641-4.08398
			C162.93262,163.91309,164.75684,162.08105,166.99902,162.08105z"/>
		<path fill="#7A7A7A" d="M167,194.73438c15.75391,0,28.57031-12.81641,28.57031-28.57031S182.75391,137.59375,167,137.59375
			c-15.74512,0-28.55469,12.81641-28.55469,28.57031S151.25488,194.73438,167,194.73438z M167,145.76172
			c11.25,0,20.40234,9.15234,20.40234,20.40234S178.25,186.56641,167,186.56641c-11.24121,0-20.38672-9.15234-20.38672-20.40234
			S155.75879,145.76172,167,145.76172z"/>
		<path fill="#7A7A7A" d="M167,211.05371c24.75195,0,44.88867-20.1377,44.88867-44.88965S191.75195,121.27539,167,121.27539
			s-44.88965,20.13672-44.88965,44.88867S142.24805,211.05371,167,211.05371z M167,129.44336
			c20.24805,0,36.7207,16.47266,36.7207,36.7207S187.24805,202.88574,167,202.88574s-36.72168-16.47363-36.72168-36.72168
			S146.75195,129.44336,167,129.44336z"/>
		<path fill="#7A7A7A" d="M166.99902,227.37207c33.75,0,61.20801-27.45801,61.20801-61.20801s-27.45801-61.20703-61.20801-61.20703
			s-61.20703,27.45703-61.20703,61.20703S133.24902,227.37207,166.99902,227.37207z M166.99902,113.125
			c29.24609,0,53.04004,23.79297,53.04004,53.03906s-23.79395,53.04004-53.04004,53.04004s-53.03906-23.79395-53.03906-53.04004
			S137.75293,113.125,166.99902,113.125z"/>
		<path fill="#7A7A7A" d="M167,243.69043c42.74805,0,77.52637-34.77832,77.52637-77.52637S209.74805,88.6377,167,88.6377
			c-42.74902,0-77.52734,34.77832-77.52734,77.52637S124.25098,243.69043,167,243.69043z M167,96.80566
			c38.24414,0,69.3584,31.11426,69.3584,69.3584s-31.11426,69.3584-69.3584,69.3584c-38.24512,0-69.35938-31.11426-69.35938-69.3584
			S128.75488,96.80566,167,96.80566z"/>
		<path fill="#7A7A7A" d="M167,260.00977c51.74609,0,93.84473-42.09863,93.84473-93.8457
			c0-51.74609-42.09863-93.84473-93.84473-93.84473c-51.74707,0-93.8457,42.09863-93.8457,93.84473
			C73.1543,217.91113,115.25293,260.00977,167,260.00977z M167,80.4873c47.24219,0,85.67676,38.43457,85.67676,85.67676
			c0,47.24316-38.43457,85.67773-85.67676,85.67773c-47.24316,0-85.67773-38.43457-85.67773-85.67773
			C81.32227,118.92188,119.75684,80.4873,167,80.4873z"/>
		<path fill="#7A7A7A" d="M167,276.32812c60.74414,0,110.16406-49.41992,110.16406-110.16406S227.74414,56.00098,167,56.00098
			c-60.75391,0-110.18066,49.41895-110.18066,110.16309S106.24609,276.32812,167,276.32812z M167,64.16895
			c56.24121,0,101.99609,45.75488,101.99609,101.99512c0,56.24121-45.75488,101.99609-101.99609,101.99609
			c-56.25,0-102.0127-45.75488-102.0127-101.99609C64.9873,109.92383,110.75,64.16895,167,64.16895z"/>
		<path fill="#7A7A7A" d="M167,292.64648c69.74219,0,126.48242-56.74023,126.48242-126.48242S236.74219,39.68164,167,39.68164
			c-69.75195,0-126.5,56.74023-126.5,126.48242S97.24805,292.64648,167,292.64648z M167,47.84961
			c65.23926,0,118.31445,53.0752,118.31445,118.31445S232.23926,284.47852,167,284.47852
			c-65.24902,0-118.33203-53.0752-118.33203-118.31445S101.75098,47.84961,167,47.84961z"/>
		<path fill="#7A7A7A" d="M166.9834,308.98242c78.75,0,142.81738-64.06836,142.81738-142.81836S245.7334,23.34668,166.9834,23.34668
			c-78.74121,0-142.80176,64.06738-142.80176,142.81738S88.24219,308.98242,166.9834,308.98242z M166.9834,31.51465
			c74.24609,0,134.64941,60.40332,134.64941,134.64941S241.22949,300.81445,166.9834,300.81445
			c-74.2373,0-134.63379-60.4043-134.63379-134.65039S92.74609,31.51465,166.9834,31.51465z"/>
		<path fill="#7A7A7A" d="M166.9834,325.30078c87.74805,0,159.13672-71.38867,159.13672-159.13672
			S254.73145,7.02734,166.9834,7.02734c-87.73926,0-159.12012,71.38867-159.12012,159.13672S79.24414,325.30078,166.9834,325.30078z
			 M166.9834,15.19531c83.24414,0,150.96875,67.72461,150.96875,150.96875S250.22754,317.13281,166.9834,317.13281
			c-83.23535,0-150.95215-67.72461-150.95215-150.96875S83.74805,15.19531,166.9834,15.19531z"/>
		<path fill="#7A7A7A" d="M334,219.98364v-44.13818c-5.03271,87.75439-78.00806,157.60669-167.00098,157.60669
			C78.01221,333.45215,5.04053,263.60791,0,175.86084v44.12598C17.5769,274.39502,61.04785,317.26514,115.8252,334h102.34814
			C272.95215,317.26465,316.42383,274.39331,334,219.98364z"/>
		<path fill="#7A7A7A" d="M147.67139,0h-37.04736C58.30225,17.79932,17.01721,59.66675,0,112.34192v44.12537
			C4.67029,75.16699,67.66016,9.2478,147.67139,0z"/>
		<path fill="#7A7A7A" d="M334,156.48267v-44.1377C316.9834,59.66821,275.69775,17.79968,223.37451,0h-37.04785
			C266.34375,9.24829,329.33691,75.17529,334,156.48267z"/>
		<path fill="#7A7A7A" d="M334,89.90112V71.98193C317.08008,42.0979,292.37915,17.17603,262.65967,0h-17.60938
			C284.26318,18.49329,315.91699,50.46045,334,89.90112z"/>
		<path fill="#7A7A7A" d="M334,260.34692v-17.91943C315.36035,283.08252,282.30273,315.79883,241.40894,334h18.28101
			C290.73193,316.78809,316.52051,291.21924,334,260.34692z"/>
		<path fill="#7A7A7A" d="M88.94849,0H71.33911C41.62024,17.17554,16.91992,42.09692,0,71.97998v17.91907
			C18.08301,50.45947,49.73645,18.49292,88.94849,0z"/>
		<path fill="#7A7A7A" d="M0,242.42969v17.91895C17.47949,291.22021,43.2677,316.78857,74.30859,334h18.28113
			C51.69702,315.79907,18.63965,283.0835,0,242.42969z"/>
		<path fill="#7A7A7A" d="M334,290.177v-14.23169C318.72998,299.09668,298.7854,318.90137,275.51245,334h14.35522
			C306.66602,321.66919,321.55786,306.88867,334,290.177z"/>
		<path fill="#7A7A7A" d="M0,275.94531V290.177C12.44214,306.88867,27.33398,321.66919,44.13232,334h14.35522
			C35.2146,318.90137,15.27002,299.09668,0,275.94531z"/>
		<path fill="#7A7A7A" d="M334,56.38281V42.15112C322.1167,26.19019,308.00171,11.98682,292.1228,0h-14.07251
			C300.23755,14.87671,319.2876,34.07715,334,56.38281z"/>
		<path fill="#7A7A7A" d="M55.94983,0H41.8772C25.99829,11.98682,11.8833,26.19019,0,42.15112v14.23169
			C14.7124,34.07715,33.76245,14.87671,55.94983,0z"/>
		<path fill="#7A7A7A" d="M28.77356,0H16.32471C10.60437,5.19189,5.16016,10.68115,0,16.43042v12.50684
			C8.66309,18.41357,18.30298,8.72485,28.77356,0z"/>
		<path fill="#7A7A7A" d="M0,303.39136v12.50708C5.7207,322.27246,11.80151,328.31445,18.2074,334h12.60278
			C19.55115,324.84644,9.22119,314.59302,0,303.39136z"/>
		<path fill="#7A7A7A" d="M334,315.89746v-12.50684c-9.22119,11.2019-19.55127,21.45557-30.81055,30.60938h12.60229
			C322.198,328.31421,328.27905,322.27173,334,315.89746z"/>
		<path fill="#7A7A7A" d="M334,28.93799V16.4314C328.8396,10.68164,323.39502,5.19214,317.67456,0h-12.44849
			C315.69678,8.7251,325.33691,18.41406,334,28.93799z"/>
		<path fill="#7A7A7A" d="M4.45703,0H0v4.47644C1.46509,2.96387,2.95166,1.47266,4.45703,0z"/>
		<path fill="#7A7A7A" d="M0,327.85205V334h6.1687C4.07275,331.99097,2.02002,329.9375,0,327.85205z"/>
		<path fill="#7A7A7A" d="M327.81909,334H334v-6.16064C331.97607,329.9292,329.91943,331.98682,327.81909,334z"/>
		<path fill="#7A7A7A" d="M334,4.48938V0h-4.46924C331.04028,1.47681,332.53101,2.97241,334,4.48938z"/>
	</g>
</g>
<g id="Layer_3" display="none">
</g>
<g id="Layer_2" display="none">
</g>
</svg>
