<?xml version="1.0" encoding="utf-8"?>
<!-- Generator: Adobe Illustrator 21.1.0, SVG Export Plug-In . SVG Version: 6.00 Build 0)  -->
<svg version="1.2" baseProfile="tiny" xmlns="http://www.w3.org/2000/svg" xmlns:xlink="http://www.w3.org/1999/xlink" x="0px"
	 y="0px" viewBox="0 0 334 334" xml:space="preserve">
<g id="Layer_1">
	<g>
		<path fill="#ADADAD" d="M334,243.32617V89.00305C316.07428,50.20667,285.07715,18.64124,246.68311,0h-63.39423
			c84.16095,8.52484,150.06268,79.79285,150.06268,166.16455c0,92.09521-74.9248,167.02002-167.02002,167.02002
			C79.3208,333.18457,7.6499,266.30066,0,181.24756v64.96387C18.68073,284.86523,50.45288,316.05249,89.52008,334h153.61597
			C283.16534,315.60876,315.52582,283.30957,334,243.32617z"/>
		<path fill="#ADADAD" d="M166.33203,280.4375c63.00977,0,114.27246-51.2627,114.27246-114.27295
			c0-63.00977-51.2627-114.27246-114.27246-114.27246c-63.01025,0-114.27295,51.2627-114.27295,114.27246
			C52.05908,229.1748,103.32178,280.4375,166.33203,280.4375z M166.33203,69.46387c53.3208,0,96.70068,43.37988,96.70068,96.70068
			c0,53.32129-43.37988,96.70117-96.70068,96.70117c-53.32129,0-96.70117-43.37988-96.70117-96.70117
			C69.63086,112.84375,113.01074,69.46387,166.33203,69.46387z"/>
		<path fill="#ADADAD" d="M334,308.04761v-29.01929C319.36371,300.70166,300.63824,319.39526,278.94183,334h29.07837
			C317.38196,326.08325,326.07361,317.40088,334,308.04761z"/>
		<path fill="#ADADAD" d="M51.2865,0H22.64624C14.56079,7.0014,6.9917,14.58344,0,22.67761v28.67212
			C13.87457,31.315,31.26929,13.89929,51.2865,0z"/>
		<path fill="#ADADAD" d="M166.33154,315.59668c82.39697,0,149.43213-67.03516,149.43213-149.43213
			S248.72852,16.73242,166.33154,16.73242S16.89941,83.76758,16.89941,166.16455S83.93457,315.59668,166.33154,315.59668z
			 M166.33203,34.3042c72.70801,0,131.86035,59.15234,131.86035,131.86035c0,72.7085-59.15234,131.86084-131.86035,131.86084
			c-72.7085,0-131.86084-59.15234-131.86084-131.86084C34.47119,93.45654,93.62354,34.3042,166.33203,34.3042z"/>
		<path fill="#ADADAD" d="M0,280.97974v28.67212C7.55524,318.39844,15.79462,326.53564,24.62091,334h29.09131
			C32.67065,319.83728,14.43347,301.82153,0,280.97974z"/>
		<polygon fill="#ADADAD" points="334,333.99255 333.99237,334 334,334 		"/>
		<path fill="#ADADAD" d="M166.33154,210.11816c24.23633,0,43.9541-19.71777,43.9541-43.95361s-19.71777-43.95361-43.9541-43.95361
			c-24.22705,0-43.93701,19.71777-43.93701,43.95361S142.10449,210.11816,166.33154,210.11816z M166.33154,139.78271
			c14.54736,0,26.38232,11.83496,26.38232,26.38184c0,14.54736-11.83496,26.38232-26.38232,26.38232
			c-14.53809,0-26.36523-11.83496-26.36523-26.38232C139.96631,151.61768,151.79346,139.78271,166.33154,139.78271z"/>
		<path fill="#ADADAD" d="M166.33203,245.27783c43.62305,0,79.11279-35.49023,79.11279-79.11328
			s-35.48975-79.11279-79.11279-79.11279s-79.11328,35.48975-79.11328,79.11279S122.70898,245.27783,166.33203,245.27783z
			 M166.33154,104.62305c33.93457,0,61.54199,27.60742,61.54199,61.5415s-27.60742,61.5415-61.54199,61.5415
			c-33.9248,0-61.5249-27.60742-61.5249-61.5415S132.40674,104.62305,166.33154,104.62305z"/>
		<path fill="#ADADAD" d="M334,53.30121V24.28192C326.63104,15.58636,318.61053,7.45984,309.995,0h-28.62769
			C302.03259,14.35046,319.91333,32.44177,334,53.30121z"/>
		<path fill="#ADADAD" d="M166.33154,174.95898c4.84912,0,8.79443-3.94531,8.79443-8.79443s-3.94531-8.79395-8.79443-8.79395
			c-4.83984,0-8.77734,3.94482-8.77734,8.79395S161.4917,174.95898,166.33154,174.95898z"/>
		<path fill="#ADADAD" d="M149.37421,0H85.97272C48.52979,18.1778,18.11243,48.64001,0,86.11774v64.96387
			C7.14673,71.62317,70.16754,8.02301,149.37421,0z"/>
		<path fill="#525252" d="M166.33154,192.54688c14.54736,0,26.38232-11.83496,26.38232-26.38232
			c0-14.54688-11.83496-26.38184-26.38232-26.38184c-14.53809,0-26.36523,11.83496-26.36523,26.38184
			C139.96631,180.71191,151.79346,192.54688,166.33154,192.54688z M166.33154,157.37061c4.84912,0,8.79443,3.94482,8.79443,8.79395
			s-3.94531,8.79443-8.79443,8.79443c-4.83984,0-8.77734-3.94531-8.77734-8.79443S161.4917,157.37061,166.33154,157.37061z"/>
		<path fill="#525252" d="M166.33154,227.70605c33.93457,0,61.54199-27.60742,61.54199-61.5415s-27.60742-61.5415-61.54199-61.5415
			c-33.9248,0-61.5249,27.60742-61.5249,61.5415S132.40674,227.70605,166.33154,227.70605z M166.33154,122.21094
			c24.23633,0,43.9541,19.71777,43.9541,43.95361s-19.71777,43.95361-43.9541,43.95361
			c-24.22705,0-43.93701-19.71777-43.93701-43.95361S142.10449,122.21094,166.33154,122.21094z"/>
		<path fill="#525252" d="M166.33203,262.86572c53.3208,0,96.70068-43.37988,96.70068-96.70117
			c0-53.3208-43.37988-96.70068-96.70068-96.70068c-53.32129,0-96.70117,43.37988-96.70117,96.70068
			C69.63086,219.48584,113.01074,262.86572,166.33203,262.86572z M166.33203,87.05176
			c43.62305,0,79.11279,35.48975,79.11279,79.11279s-35.48975,79.11328-79.11279,79.11328s-79.11328-35.49023-79.11328-79.11328
			S122.70898,87.05176,166.33203,87.05176z"/>
		<path fill="#525252" d="M166.33203,298.02539c72.70801,0,131.86035-59.15234,131.86035-131.86084
			c0-72.70801-59.15234-131.86035-131.86035-131.86035c-72.7085,0-131.86084,59.15234-131.86084,131.86035
			C34.47119,238.87305,93.62354,298.02539,166.33203,298.02539z M166.33203,51.89209
			c63.00977,0,114.27246,51.2627,114.27246,114.27246c0,63.01025-51.2627,114.27295-114.27246,114.27295
			c-63.01025,0-114.27295-51.2627-114.27295-114.27295C52.05908,103.15479,103.32178,51.89209,166.33203,51.89209z"/>
		<path fill="#525252" d="M166.33154,333.18457c92.09521,0,167.02002-74.9248,167.02002-167.02002
			c0-86.3717-65.90173-157.63971-150.06268-166.16455h-33.91467C70.16754,8.02301,7.14673,71.62317,0,151.0816v30.16595
			C7.6499,266.30066,79.3208,333.18457,166.33154,333.18457z M166.33154,16.73242
			c82.39697,0,149.43213,67.03516,149.43213,149.43213s-67.03516,149.43213-149.43213,149.43213
			S16.89941,248.56152,16.89941,166.16455S83.93457,16.73242,166.33154,16.73242z"/>
		<path fill="#525252" d="M85.97272,0H51.2865C31.26929,13.89929,13.87457,31.315,0,51.34973v34.76801
			C18.11243,48.64001,48.52979,18.1778,85.97272,0z"/>
		<path fill="#525252" d="M0,246.21143v34.76831C14.43347,301.82153,32.67065,319.83728,53.71222,334h35.80786
			C50.45288,316.05249,18.68073,284.86523,0,246.21143z"/>
		<path fill="#525252" d="M334,89.00305V53.30121C319.91333,32.44177,302.03259,14.35046,281.36731,0h-34.6842
			C285.07715,18.64124,316.07428,50.20667,334,89.00305z"/>
		<path fill="#525252" d="M334,279.02832v-35.70215c-18.47418,39.9834-50.83466,72.28259-90.86395,90.67383h35.80579
			C300.63824,319.39526,319.36371,300.70166,334,279.02832z"/>
		<path fill="#525252" d="M334,308.04761c-7.92639,9.35327-16.61804,18.03564-25.9798,25.95239h25.97217
			c0.0025-0.00244,0.00513-0.00488,0.00763-0.00745V308.04761z"/>
		<path fill="#525252" d="M0,309.65186V334h24.62091C15.79462,326.53564,7.55524,318.39844,0,309.65186z"/>
		<path fill="#525252" d="M22.64624,0H0v22.67761C6.9917,14.58344,14.56079,7.0014,22.64624,0z"/>
		<path fill="#525252" d="M334,24.28192V0h-24.005C318.61053,7.45984,326.63104,15.58636,334,24.28192z"/>
	</g>
</g>
<g id="Layer_3" display="none">
</g>
<g id="Layer_2" display="none">
</g>
</svg>
