<?xml version="1.0" encoding="utf-8"?>
<!-- Generator: Adobe Illustrator 21.1.0, SVG Export Plug-In . SVG Version: 6.00 Build 0)  -->
<svg version="1.2" baseProfile="tiny" xmlns="http://www.w3.org/2000/svg" xmlns:xlink="http://www.w3.org/1999/xlink" x="0px"
	 y="0px" viewBox="0 0 334 334" xml:space="preserve">
<g id="Layer_1">
	<g>
		<path fill="#FFFFFF" d="M167.1001,73.37207c-51.17529,0-92.80957,41.62695-92.80957,92.79297s41.63428,92.79297,92.80957,92.79297
			c51.16602,0,92.79248-41.62695,92.79248-92.79297S218.26611,73.37207,167.1001,73.37207z M167.0835,255.18262
			c-49.07568,0-89.00146-39.93262-89.00146-89.01758s39.92578-89.01758,89.00146-89.01758
			c49.08447,0,89.01807,39.93262,89.01807,89.01758S216.16797,255.18262,167.0835,255.18262z"/>
		<path fill="#FFFFFF" d="M334,123.49805v-13.3623C316.72998,58.80127,276.40552,17.97412,225.39594,0h-12.61902
			C272.11139,16.36523,318.72064,63.72607,334,123.49805z"/>
		<path fill="#FFFFFF" d="M167.0835,80.93848c-46.98486,0-85.20947,38.23242-85.20947,85.22656s38.22461,85.22656,85.20947,85.22656
			c46.99414,0,85.22607-38.23242,85.22607-85.22656S214.07764,80.93848,167.0835,80.93848z M167.0835,247.59961
			c-44.90332,0-81.43506-36.53125-81.43506-81.43457s36.53174-81.43457,81.43506-81.43457s81.43506,36.53125,81.43506,81.43457
			S211.98682,247.59961,167.0835,247.59961z"/>
		<path fill="#FFFFFF" d="M167.0835,88.52148c-42.8125,0-77.64307,34.83105-77.64307,77.64355s34.83057,77.64355,77.64307,77.64355
			s77.64307-34.83105,77.64307-77.64355S209.896,88.52148,167.0835,88.52148z M167.06641,240.0332
			c-40.72168,0-73.85156-33.13672-73.85156-73.86816s33.12988-73.86816,73.85156-73.86816
			c40.73096,0,73.86865,33.13672,73.86865,73.86816S207.79736,240.0332,167.06641,240.0332z"/>
		<path fill="#FFFFFF" d="M167.1167,58.22266c-59.52881,0-107.95898,48.42285-107.95898,107.94238
			s48.43018,107.94238,107.95898,107.94238c59.51953,0,107.94189-48.42285,107.94189-107.94238
			S226.63623,58.22266,167.1167,58.22266z M167.1001,270.33203c-57.43848,0-104.16797-46.72852-104.16797-104.16699
			S109.66162,61.99805,167.1001,61.99805c57.43799,0,104.16748,46.72852,104.16748,104.16699
			S224.53809,270.33203,167.1001,270.33203z"/>
		<path fill="#FFFFFF" d="M167.1001,65.78906c-55.34766,0-100.37598,45.02832-100.37598,100.37598
			s45.02832,100.37598,100.37598,100.37598c55.34717,0,100.37549-45.02832,100.37549-100.37598
			S222.44727,65.78906,167.1001,65.78906z M167.1001,262.74902c-53.26611,0-96.60156-43.32715-96.60156-96.58398
			s43.33545-96.58398,96.60156-96.58398c53.25684,0,96.58447,43.32715,96.58447,96.58398S220.35693,262.74902,167.1001,262.74902z"
			/>
		<path fill="#FFFFFF" d="M334,99.20459v-9.57666C315.91937,50.33765,284.37201,18.48096,245.30444,0h-9.32996
			C280.47296,18.53516,315.9848,54.44043,334,99.20459z"/>
		<path fill="#FFFFFF" d="M167.06641,103.6709c-34.45898,0-62.49316,28.03516-62.49316,62.49414
			s28.03418,62.49414,62.49316,62.49414c34.45947,0,62.49365-28.03516,62.49365-62.49414S201.52588,103.6709,167.06641,103.6709z
			 M167.0498,224.88379c-32.36816,0-58.70215-26.34082-58.70215-58.71875s26.33398-58.71875,58.70215-58.71875
			c32.37793,0,58.71924,26.34082,58.71924,58.71875S199.42773,224.88379,167.0498,224.88379z"/>
		<path fill="#FFFFFF" d="M26.42072,0h-5.78369C13.3147,6.46045,6.41608,13.39014,0,20.75244v5.82959
			C8.03229,16.98511,16.875,8.09131,26.42072,0z"/>
		<path fill="#FFFFFF" d="M3.98657,0H0v4.0083C1.31274,2.65625,2.64166,1.32031,3.98657,0z"/>
		<path fill="#FFFFFF" d="M167.06641,96.08789c-38.63086,0-70.05957,31.43652-70.05957,70.07715
			s31.42871,70.07715,70.05957,70.07715c38.64062,0,70.07666-31.43652,70.07666-70.07715S205.70703,96.08789,167.06641,96.08789z
			 M167.06641,232.4502c-36.5498,0-66.28516-29.73535-66.28516-66.28516s29.73535-66.28516,66.28516-66.28516
			s66.28564,29.73535,66.28564,66.28516S203.61621,232.4502,167.06641,232.4502z"/>
		<path fill="#FFFFFF" d="M14.96008,0H9.42853C6.19269,3.07129,3.05286,6.2417,0,9.49536v5.5481
			C4.74896,9.79834,9.74316,4.77979,14.96008,0z"/>
		<path fill="#FFFFFF" d="M167.1333,43.07324c-67.88232,0-123.1084,55.21875-123.1084,123.0918s55.22607,123.0918,123.1084,123.0918
			c67.87305,0,123.09131-55.21875,123.09131-123.0918S235.00635,43.07324,167.1333,43.07324z M167.1167,285.48145
			c-65.7915,0-119.31738-53.52539-119.31738-119.31641S101.3252,46.84863,167.1167,46.84863s119.31689,53.52539,119.31689,119.31641
			S232.9082,285.48145,167.1167,285.48145z"/>
		<path fill="#FFFFFF" d="M334,3.87183V0h-3.85333C331.44623,1.27563,332.73047,2.56641,334,3.87183z"/>
		<path fill="#FFFFFF" d="M334,14.91675V9.35254C330.98895,6.14893,327.89319,3.02661,324.70453,0h-5.55328
			C324.3269,4.74146,329.28473,9.7168,334,14.91675z"/>
		<path fill="#FFFFFF" d="M167.0498,111.2373c-30.27783,0-54.91016,24.64062-54.91016,54.92773s24.63232,54.92773,54.91016,54.92773
			c30.28711,0,54.92725-24.64062,54.92725-54.92773S197.33691,111.2373,167.0498,111.2373z M167.0498,217.30078
			c-28.19629,0-51.13574-22.93945-51.13574-51.13574s22.93945-51.13574,51.13574-51.13574s51.13623,22.93945,51.13623,51.13574
			S195.24609,217.30078,167.0498,217.30078z"/>
		<path fill="#FFFFFF" d="M167.1167,50.63965c-63.70117,0-115.52539,51.82422-115.52539,115.52539
			s51.82422,115.52539,115.52539,115.52539c63.70068,0,115.5249-51.82422,115.5249-115.52539S230.81738,50.63965,167.1167,50.63965z
			 M167.1167,277.89844c-61.61963,0-111.75098-50.12305-111.75098-111.7334s50.13135-111.7334,111.75098-111.7334
			c61.61035,0,111.73389,50.12305,111.73389,111.7334S228.72705,277.89844,167.1167,277.89844z"/>
		<path fill="#FFFFFF" d="M334,26.46387v-5.83838C327.61511,13.31055,320.75458,6.42334,313.47406,0h-5.79498
			C317.18549,8.05786,325.99414,16.91235,334,26.46387z"/>
		<path fill="#FFFFFF" d="M334,51.46484v-6.54883C321.50793,27.7627,306.44476,12.59961,289.375,0h-6.4859
			C302.84491,13.95605,320.17908,31.40869,334,51.46484z"/>
		<path fill="#FFFFFF" d="M334,38.58374v-6.1416C324.42999,20.51831,313.61414,9.63794,301.74731,0h-6.0929
			C310.0351,11.15552,322.93079,24.1333,334,38.58374z"/>
		<path fill="#FFFFFF" d="M334,299.88794v-6.1416C322.37463,308.92285,308.73615,322.47729,293.4776,334h6.1972
			C312.35828,323.95605,323.87463,312.50391,334,299.88794z"/>
		<path fill="#FFFFFF" d="M334,311.70459v-5.83838c-8.55957,10.21216-18.02856,19.63721-28.2951,28.13379h5.86841
			C319.56592,327.10791,327.06042,319.65479,334,311.70459z"/>
		<path fill="#FFFFFF" d="M334,65.40234v-7.12622C318.95947,35.07959,299.21918,15.20557,276.13977,0h-7.04547
			C295.57275,16.323,317.87836,38.78809,334,65.40234z"/>
		<path fill="#FFFFFF" d="M334,80.93604v-7.9873C316.97168,42.5686,291.90131,17.28052,261.68182,0h-7.88397
			C288.16406,18.021,316.29205,46.38232,334,80.93604z"/>
		<path fill="#FFFFFF" d="M0,280.76953v6.52588C13.06537,305.26123,28.94788,321.05054,47.00336,334h6.58099
			C32.57928,319.75586,14.3855,301.67065,0,280.76953z"/>
		<path fill="#FFFFFF" d="M167.0498,126.40332c-21.93359,0-39.77734,17.83691-39.77734,39.76172
			s17.84375,39.76172,39.77734,39.76172c21.92432,0,39.76123-17.83691,39.76123-39.76172S188.97412,126.40332,167.0498,126.40332z
			 M167.0332,202.15137c-19.84277,0-35.98633-16.14355-35.98633-35.98633s16.14355-35.98633,35.98633-35.98633
			c19.84326,0,35.98682,16.14355,35.98682,35.98633S186.87646,202.15137,167.0332,202.15137z"/>
		<path fill="#FFFFFF" d="M0,266.83984v7.11328C15.60309,298.04932,36.27185,318.57153,60.4903,334h7.2384
			C40.00598,317.53711,16.68451,294.41357,0,266.83984z"/>
		<path fill="#FFFFFF" d="M0,305.74805v5.82959C6.97021,319.57593,14.50281,327.07104,22.5376,334h5.8573
			C18.08862,325.4707,8.58551,316.0061,0,305.74805z"/>
		<path fill="#FFFFFF" d="M167.1333,35.49023c-72.05469,0-130.6748,58.62109-130.6748,130.6748s58.62012,130.6748,130.6748,130.6748
			c72.0542,0,130.67432-58.62109,130.67432-130.6748S239.1875,35.49023,167.1333,35.49023z M167.1333,293.04785
			c-69.97314,0-126.90039-56.91895-126.90039-126.88281S97.16016,39.28223,167.1333,39.28223
			c69.96338,0,126.8833,56.91895,126.8833,126.88281S237.09668,293.04785,167.1333,293.04785z"/>
		<path fill="#FFFFFF" d="M0,293.6333v6.13062C10.14929,312.42871,21.69995,323.9231,34.42499,334h6.18738
			C25.3147,322.44873,11.64514,308.85547,0,293.6333z"/>
		<path fill="#FFFFFF" d="M0,251.32666v7.9624C17.58716,290.70459,43.77307,316.68115,75.35864,334h8.14026
			C47.6275,316.0769,18.26276,286.99805,0,251.32666z"/>
		<path fill="#FFFFFF" d="M167.0166,156.70312c-5.22656,0-9.47852,4.24512-9.47852,9.46191
			c0,5.21777,4.25195,9.46289,9.47852,9.46289c5.21729,0,9.46191-4.24512,9.46191-9.46289
			C176.47852,160.94824,172.23389,156.70312,167.0166,156.70312z M167,171.85254c-3.13574,0-5.6875-2.55078-5.6875-5.6875
			c0-3.13574,2.55176-5.68652,5.6875-5.68652s5.6875,2.55078,5.6875,5.68652C172.6875,169.30176,170.13574,171.85254,167,171.85254z
			"/>
		<path fill="#FFFFFF" d="M167.0332,141.55273c-13.58008,0-24.62793,11.04102-24.62793,24.6123s11.04785,24.6123,24.62793,24.6123
			c13.57129,0,24.61182-11.04102,24.61182-24.6123S180.60449,141.55273,167.0332,141.55273z M167.0166,187.00195
			c-11.48926,0-20.83691-9.34766-20.83691-20.83691s9.34766-20.83691,20.83691-20.83691s20.83691,9.34766,20.83691,20.83691
			S178.50586,187.00195,167.0166,187.00195z"/>
		<path fill="#FFFFFF" d="M0,233.08228v9.54858C18.63104,283.16309,51.59009,315.79443,92.35455,334h9.85242
			C55.74915,316.00195,18.56818,279.25171,0,233.08228z"/>
		<path fill="#FFFFFF" d="M167.0332,133.96973c-17.75195,0-32.19434,14.44336-32.19434,32.19531
			s14.44238,32.19531,32.19434,32.19531c17.75244,0,32.19482-14.44336,32.19482-32.19531S184.78564,133.96973,167.0332,133.96973z
			 M167.0332,194.56836c-15.6709,0-28.41992-12.74121-28.41992-28.40332s12.74902-28.40332,28.41992-28.40332
			c15.66162,0,28.40381,12.74121,28.40381,28.40332S182.69482,194.56836,167.0332,194.56836z"/>
		<path fill="#FFFFFF" d="M0,208.76636v13.375C17.81787,275.15601,60.2218,316.97559,113.59656,334h14.1535
			C65.30676,319.39795,15.81561,270.74438,0,208.76636z"/>
		<path fill="#FFFFFF" d="M334,274.05396v-7.12598C317.32056,294.46313,294.02026,317.55469,266.32922,334h7.24689
			C297.76062,318.59302,318.40454,298.10645,334,274.05396z"/>
		<path fill="#FFFFFF" d="M64.96344,0h-7.0368C34.81366,15.22754,15.04871,35.13696,0,58.37695v7.11377
			C16.12714,38.83789,38.45367,16.34106,64.96344,0z"/>
		<path fill="#FFFFFF" d="M51.17731,0h-6.46216C27.60468,12.62891,12.51001,27.83252,0,45.03467v6.52588
			C13.83173,31.46387,31.1897,13.97827,51.17731,0z"/>
		<path fill="#FFFFFF" d="M334,259.38184v-7.98779C315.73474,287.03516,286.38342,316.08813,250.53442,334h8.16559
			C290.25177,316.69824,316.41473,290.75586,334,259.38184z"/>
		<path fill="#FFFFFF" d="M38.43536,0h-6.08282C20.44452,9.67139,9.59448,20.59351,0,32.56616v6.13062
			C11.08948,24.20117,24.01599,11.18457,38.43536,0z"/>
		<path fill="#FFFFFF" d="M334,287.41406v-6.54883c-14.37512,20.86035-32.54504,38.9126-53.51794,53.13477h6.60486
			C305.10114,321.0791,320.95203,305.33081,334,287.41406z"/>
		<path fill="#FFFFFF" d="M80.23547,0h-7.85895C42.12372,17.29834,17.03076,42.62012,0,73.04175v7.96167
			C17.70587,46.41968,45.84717,18.03271,80.23547,0z"/>
		<path fill="#FFFFFF" d="M0,317.28662v5.5481C3.61176,326.68384,7.35529,330.40674,11.22211,334h5.58795
			C10.92188,328.7229,5.30658,323.14771,0,317.28662z"/>
		<path fill="#FFFFFF" d="M121.2276,0h-12.59589C57.59955,17.98022,17.26166,58.83008,0,110.18921v13.37451
			C15.26062,63.76074,61.87726,16.37109,121.2276,0z"/>
		<path fill="#FFFFFF" d="M0,328.32178v5.40063c0.09381,0.09351,0.19037,0.18433,0.2843,0.27759h5.41241
			C3.76422,332.14111,1.86774,330.24561,0,328.32178z"/>
		<path fill="#FFFFFF" d="M98.05243,0h-9.32367C49.63763,18.49219,18.07526,50.37598,0,89.69922v9.54907
			C18.01135,54.46387,53.53546,18.54126,98.05243,0z"/>
		<path fill="#FFFFFF" d="M167.0498,118.82031c-26.10547,0-47.34375,21.23926-47.34375,47.34473
			s21.23828,47.34473,47.34375,47.34473c26.10596,0,47.34424-21.23926,47.34424-47.34473S193.15576,118.82031,167.0498,118.82031z
			 M167.0498,209.71777c-24.02393,0-43.56934-19.53711-43.56934-43.55273s19.54541-43.55273,43.56934-43.55273
			c24.01514,0,43.55322,19.53711,43.55322,43.55273S191.06494,209.71777,167.0498,209.71777z"/>
		<circle fill="#FFFFFF" cx="167" cy="166.16528" r="1.89575"/>
		<path fill="#FFFFFF" d="M167.1499,12.75781c-84.58008,0-153.39062,68.81836-153.39062,153.40723
			c0,84.58984,68.81055,153.4082,153.39062,153.4082c84.58936,0,153.40723-68.81836,153.40723-153.4082
			C320.55713,81.57617,251.73926,12.75781,167.1499,12.75781z M167.1499,315.78027
			c-82.49854,0-149.61621-67.11719-149.61621-149.61523S84.65137,16.5498,167.1499,16.5498s149.61621,67.11719,149.61621,149.61523
			S249.64844,315.78027,167.1499,315.78027z"/>
		<path fill="#FFFFFF" d="M167.1499,20.34082c-80.40771,0-145.82422,65.41699-145.82422,145.82422
			s65.4165,145.82422,145.82422,145.82422s145.82422-65.41699,145.82422-145.82422S247.55762,20.34082,167.1499,20.34082z
			 M167.1333,308.21387c-78.31738,0-142.0332-63.72266-142.0332-142.04883S88.81592,24.11621,167.1333,24.11621
			c78.32666,0,142.0498,63.72266,142.0498,142.04883S245.45996,308.21387,167.1333,308.21387z"/>
		<path fill="#FFFFFF" d="M334,189.02783v-45.72559C324.0755,70.44312,267.42279,12.25024,195.31891,0h-56.63513
			C66.54803,12.25684,9.8786,70.50537,0,143.41943v45.49121C10.4552,266.08105,73.32379,326.82422,151.46729,334h31.06689
			C260.64551,326.82788,323.49591,266.14233,334,189.02783z M167.1665,330.93066
			c-90.85205,0-164.76562-73.91309-164.76562-164.76562c0-90.85156,73.91357-164.76465,164.76562-164.76465
			s164.76562,73.91309,164.76562,164.76465C331.93213,257.01758,258.01855,330.93066,167.1665,330.93066z"/>
		<path fill="#FFFFFF" d="M334,242.70215v-9.57617C315.42761,279.2749,278.25934,316.00781,231.82043,334h9.85822
			C282.41919,315.80518,315.36304,283.20117,334,242.70215z"/>
		<path fill="#FFFFFF" d="M167.1665,5.19141c-88.76123,0-160.97363,72.21289-160.97363,160.97363
			c0,88.76172,72.2124,160.97461,160.97363,160.97461s160.97363-72.21289,160.97363-160.97461
			C328.14014,77.4043,255.92773,5.19141,167.1665,5.19141z M167.1499,323.36426c-86.67041,0-157.18262-70.51953-157.18262-157.19922
			S80.47949,8.9668,167.1499,8.9668c86.67969,0,157.19922,70.51855,157.19922,157.19824S253.82959,323.36426,167.1499,323.36426z"/>
		<path fill="#FFFFFF" d="M167.0166,149.11914c-9.39893,0-17.04492,7.64648-17.04492,17.0459s7.646,17.0459,17.04492,17.0459
			s17.04492-7.64648,17.04492-17.0459S176.41553,149.11914,167.0166,149.11914z M167.0166,179.41895
			c-7.31738,0-13.27051-5.94531-13.27051-13.25391c0-7.30762,5.95312-13.25293,13.27051-13.25293
			c7.30811,0,13.25391,5.94531,13.25391,13.25293C180.27051,173.47363,174.32471,179.41895,167.0166,179.41895z"/>
		<path fill="#FFFFFF" d="M334,222.19482v-13.36279C318.16473,270.77905,268.68115,319.40283,206.25372,334h14.1778
			C273.78333,316.98145,316.17328,275.18433,334,222.19482z"/>
		<path fill="#FFFFFF" d="M334,322.97754v-5.56421c-5.27338,5.81543-10.85229,11.34717-16.69885,16.58667h5.6098
			C326.7301,330.45117,330.4295,326.77637,334,322.97754z"/>
		<path fill="#FFFFFF" d="M334,328.45825c-1.82501,1.87671-3.6767,3.72705-5.56348,5.54175h5.42419
			c0.04602-0.04565,0.09332-0.09033,0.13928-0.13599V328.45825z"/>
		<path fill="#FFFFFF" d="M167.1333,27.90723c-76.22656,0-138.24121,62.02246-138.24121,138.25781
			S90.90674,304.42285,167.1333,304.42285c76.23584,0,138.25781-62.02246,138.25781-138.25781S243.36914,27.90723,167.1333,27.90723
			z M167.1333,300.63086c-74.14502,0-134.4668-60.32129-134.4668-134.46582S92.98828,31.69922,167.1333,31.69922
			s134.46631,60.32129,134.46631,134.46582S241.27832,300.63086,167.1333,300.63086z"/>
		<path d="M167,160.47852c-3.13574,0-5.6875,2.55078-5.6875,5.68652c0,3.13672,2.55176,5.6875,5.6875,5.6875
			s5.6875-2.55078,5.6875-5.6875C172.6875,163.0293,170.13574,160.47852,167,160.47852z M167,168.06152
			c-1.04541,0-1.89551-0.85059-1.89551-1.89648c0-1.04492,0.8501-1.89551,1.89551-1.89551s1.89551,0.85059,1.89551,1.89551
			C168.89551,167.21094,168.04541,168.06152,167,168.06152z"/>
		<path d="M167.0166,152.91211c-7.31738,0-13.27051,5.94531-13.27051,13.25293c0,7.30859,5.95312,13.25391,13.27051,13.25391
			c7.30811,0,13.25391-5.94531,13.25391-13.25391C180.27051,158.85742,174.32471,152.91211,167.0166,152.91211z M167.0166,175.62793
			c-5.22656,0-9.47852-4.24512-9.47852-9.46289c0-5.2168,4.25195-9.46191,9.47852-9.46191
			c5.21729,0,9.46191,4.24512,9.46191,9.46191C176.47852,171.38281,172.23389,175.62793,167.0166,175.62793z"/>
		<path d="M167.0166,145.32812c-11.48926,0-20.83691,9.34766-20.83691,20.83691s9.34766,20.83691,20.83691,20.83691
			s20.83691-9.34766,20.83691-20.83691S178.50586,145.32812,167.0166,145.32812z M167.0166,183.21094
			c-9.39893,0-17.04492-7.64648-17.04492-17.0459s7.646-17.0459,17.04492-17.0459s17.04492,7.64648,17.04492,17.0459
			S176.41553,183.21094,167.0166,183.21094z"/>
		<path d="M167.0332,137.76172c-15.6709,0-28.41992,12.74121-28.41992,28.40332s12.74902,28.40332,28.41992,28.40332
			c15.66162,0,28.40381-12.74121,28.40381-28.40332S182.69482,137.76172,167.0332,137.76172z M167.0332,190.77734
			c-13.58008,0-24.62793-11.04102-24.62793-24.6123s11.04785-24.6123,24.62793-24.6123
			c13.57129,0,24.61182,11.04102,24.61182,24.6123S180.60449,190.77734,167.0332,190.77734z"/>
		<path d="M167.0332,130.17871c-19.84277,0-35.98633,16.14355-35.98633,35.98633s16.14355,35.98633,35.98633,35.98633
			c19.84326,0,35.98682-16.14355,35.98682-35.98633S186.87646,130.17871,167.0332,130.17871z M167.0332,198.36035
			c-17.75195,0-32.19434-14.44336-32.19434-32.19531s14.44238-32.19531,32.19434-32.19531
			c17.75244,0,32.19482,14.44336,32.19482,32.19531S184.78564,198.36035,167.0332,198.36035z"/>
		<path d="M167.0498,122.6123c-24.02393,0-43.56934,19.53711-43.56934,43.55273s19.54541,43.55273,43.56934,43.55273
			c24.01514,0,43.55322-19.53711,43.55322-43.55273S191.06494,122.6123,167.0498,122.6123z M167.0498,205.92676
			c-21.93359,0-39.77734-17.83691-39.77734-39.76172s17.84375-39.76172,39.77734-39.76172
			c21.92432,0,39.76123,17.83691,39.76123,39.76172S188.97412,205.92676,167.0498,205.92676z"/>
		<path d="M167.0498,115.0293c-28.19629,0-51.13574,22.93945-51.13574,51.13574s22.93945,51.13574,51.13574,51.13574
			s51.13623-22.93945,51.13623-51.13574S195.24609,115.0293,167.0498,115.0293z M167.0498,213.50977
			c-26.10547,0-47.34375-21.23926-47.34375-47.34473s21.23828-47.34473,47.34375-47.34473
			c26.10596,0,47.34424,21.23926,47.34424,47.34473S193.15576,213.50977,167.0498,213.50977z"/>
		<path d="M167.0498,107.44629c-32.36816,0-58.70215,26.34082-58.70215,58.71875s26.33398,58.71875,58.70215,58.71875
			c32.37793,0,58.71924-26.34082,58.71924-58.71875S199.42773,107.44629,167.0498,107.44629z M167.0498,221.09277
			c-30.27783,0-54.91016-24.64062-54.91016-54.92773s24.63232-54.92773,54.91016-54.92773
			c30.28711,0,54.92725,24.64062,54.92725,54.92773S197.33691,221.09277,167.0498,221.09277z"/>
		<path d="M167.06641,99.87988c-36.5498,0-66.28516,29.73535-66.28516,66.28516s29.73535,66.28516,66.28516,66.28516
			s66.28564-29.73535,66.28564-66.28516S203.61621,99.87988,167.06641,99.87988z M167.06641,228.65918
			c-34.45898,0-62.49316-28.03516-62.49316-62.49414s28.03418-62.49414,62.49316-62.49414
			c34.45947,0,62.49365,28.03516,62.49365,62.49414S201.52588,228.65918,167.06641,228.65918z"/>
		<path d="M167.06641,92.29688c-40.72168,0-73.85156,33.13672-73.85156,73.86816s33.12988,73.86816,73.85156,73.86816
			c40.73096,0,73.86865-33.13672,73.86865-73.86816S207.79736,92.29688,167.06641,92.29688z M167.06641,236.24219
			c-38.63086,0-70.05957-31.43652-70.05957-70.07715s31.42871-70.07715,70.05957-70.07715
			c38.64062,0,70.07666,31.43652,70.07666,70.07715S205.70703,236.24219,167.06641,236.24219z"/>
		<path d="M167.0835,84.73047c-44.90332,0-81.43506,36.53125-81.43506,81.43457s36.53174,81.43457,81.43506,81.43457
			s81.43506-36.53125,81.43506-81.43457S211.98682,84.73047,167.0835,84.73047z M167.0835,243.80859
			c-42.8125,0-77.64307-34.83105-77.64307-77.64355S124.271,88.52148,167.0835,88.52148s77.64307,34.83105,77.64307,77.64355
			S209.896,243.80859,167.0835,243.80859z"/>
		<path d="M167.0835,77.14746c-49.07568,0-89.00146,39.93262-89.00146,89.01758s39.92578,89.01758,89.00146,89.01758
			c49.08447,0,89.01807-39.93262,89.01807-89.01758S216.16797,77.14746,167.0835,77.14746z M167.0835,251.3916
			c-46.98486,0-85.20947-38.23242-85.20947-85.22656s38.22461-85.22656,85.20947-85.22656
			c46.99414,0,85.22607,38.23242,85.22607,85.22656S214.07764,251.3916,167.0835,251.3916z"/>
		<path d="M167.1001,69.58105c-53.26611,0-96.60156,43.32715-96.60156,96.58398s43.33545,96.58398,96.60156,96.58398
			c53.25684,0,96.58447-43.32715,96.58447-96.58398S220.35693,69.58105,167.1001,69.58105z M167.1001,258.95801
			c-51.17529,0-92.80957-41.62695-92.80957-92.79297s41.63428-92.79297,92.80957-92.79297
			c51.16602,0,92.79248,41.62695,92.79248,92.79297S218.26611,258.95801,167.1001,258.95801z"/>
		<path d="M167.1001,61.99805c-57.43848,0-104.16797,46.72852-104.16797,104.16699s46.72949,104.16699,104.16797,104.16699
			c57.43799,0,104.16748-46.72852,104.16748-104.16699S224.53809,61.99805,167.1001,61.99805z M167.1001,266.54102
			c-55.34766,0-100.37598-45.02832-100.37598-100.37598S111.75244,65.78906,167.1001,65.78906
			c55.34717,0,100.37549,45.02832,100.37549,100.37598S222.44727,266.54102,167.1001,266.54102z"/>
		<path d="M167.1167,54.43164c-61.61963,0-111.75098,50.12305-111.75098,111.7334s50.13135,111.7334,111.75098,111.7334
			c61.61035,0,111.73389-50.12305,111.73389-111.7334S228.72705,54.43164,167.1167,54.43164z M167.1167,274.10742
			c-59.52881,0-107.95898-48.42285-107.95898-107.94238S107.58789,58.22266,167.1167,58.22266
			c59.51953,0,107.94189,48.42285,107.94189,107.94238S226.63623,274.10742,167.1167,274.10742z"/>
		<path d="M167.1167,46.84863c-65.7915,0-119.31738,53.52539-119.31738,119.31641S101.3252,285.48145,167.1167,285.48145
			s119.31689-53.52539,119.31689-119.31641S232.9082,46.84863,167.1167,46.84863z M167.1167,281.69043
			c-63.70117,0-115.52539-51.82422-115.52539-115.52539S103.41553,50.63965,167.1167,50.63965
			c63.70068,0,115.5249,51.82422,115.5249,115.52539S230.81738,281.69043,167.1167,281.69043z"/>
		<path d="M167.1333,39.28223c-69.97314,0-126.90039,56.91895-126.90039,126.88281S97.16016,293.04785,167.1333,293.04785
			c69.96338,0,126.8833-56.91895,126.8833-126.88281S237.09668,39.28223,167.1333,39.28223z M167.1333,289.25684
			c-67.88232,0-123.1084-55.21875-123.1084-123.0918s55.22607-123.0918,123.1084-123.0918
			c67.87305,0,123.09131,55.21875,123.09131,123.0918S235.00635,289.25684,167.1333,289.25684z"/>
		<path d="M167.1333,31.69922c-74.14502,0-134.4668,60.32129-134.4668,134.46582s60.32178,134.46582,134.4668,134.46582
			s134.46631-60.32129,134.46631-134.46582S241.27832,31.69922,167.1333,31.69922z M167.1333,296.83984
			c-72.05469,0-130.6748-58.62109-130.6748-130.6748s58.62012-130.6748,130.6748-130.6748
			c72.0542,0,130.67432,58.62109,130.67432,130.6748S239.1875,296.83984,167.1333,296.83984z"/>
		<path d="M167.1333,24.11621c-78.31738,0-142.0332,63.72266-142.0332,142.04883s63.71582,142.04883,142.0332,142.04883
			c78.32666,0,142.0498-63.72266,142.0498-142.04883S245.45996,24.11621,167.1333,24.11621z M167.1333,304.42285
			c-76.22656,0-138.24121-62.02246-138.24121-138.25781S90.90674,27.90723,167.1333,27.90723
			c76.23584,0,138.25781,62.02246,138.25781,138.25781S243.36914,304.42285,167.1333,304.42285z"/>
		<path d="M167.1499,16.5498c-82.49854,0-149.61621,67.11719-149.61621,149.61523S84.65137,315.78027,167.1499,315.78027
			s149.61621-67.11719,149.61621-149.61523S249.64844,16.5498,167.1499,16.5498z M167.1499,311.98926
			c-80.40771,0-145.82422-65.41699-145.82422-145.82422S86.74219,20.34082,167.1499,20.34082
			s145.82422,65.41699,145.82422,145.82422S247.55762,311.98926,167.1499,311.98926z"/>
		<path d="M167.1499,8.9668c-86.67041,0-157.18262,70.51855-157.18262,157.19824S80.47949,323.36426,167.1499,323.36426
			c86.67969,0,157.19922-70.51953,157.19922-157.19922S253.82959,8.9668,167.1499,8.9668z M167.1499,319.57324
			c-84.58008,0-153.39062-68.81836-153.39062-153.4082c0-84.58887,68.81055-153.40723,153.39062-153.40723
			c84.58936,0,153.40723,68.81836,153.40723,153.40723C320.55713,250.75488,251.73926,319.57324,167.1499,319.57324z"/>
		<path d="M167.1665,1.40039c-90.85205,0-164.76562,73.91309-164.76562,164.76465
			c0,90.85254,73.91357,164.76562,164.76562,164.76562s164.76562-73.91309,164.76562-164.76562
			C331.93213,75.31348,258.01855,1.40039,167.1665,1.40039z M167.1665,327.13965
			c-88.76123,0-160.97363-72.21289-160.97363-160.97461c0-88.76074,72.2124-160.97363,160.97363-160.97363
			S328.14014,77.4043,328.14014,166.16504C328.14014,254.92676,255.92773,327.13965,167.1665,327.13965z"/>
		<path d="M334,208.83203v-19.8042C323.49591,266.14233,260.64551,326.82788,182.53418,334h23.71954
			C268.68115,319.40283,318.16473,270.77905,334,208.83203z"/>
		<path d="M334,143.30225v-19.8042C318.72064,63.72607,272.11139,16.36523,212.77692,0h-17.45801
			C267.42279,12.25024,324.0755,70.44312,334,143.30225z"/>
		<path d="M138.68378,0H121.2276C61.87726,16.37109,15.26062,63.76074,0,123.56372v19.85571
			C9.8786,70.50537,66.54803,12.25684,138.68378,0z"/>
		<path d="M0,188.91064v19.85571C15.81561,270.74438,65.30676,319.39795,127.75006,334h23.71722
			C73.32379,326.82422,10.4552,266.08105,0,188.91064z"/>
		<path d="M334,233.12598v-10.93115C316.17328,275.18433,273.78333,316.98145,220.43152,334h11.38892
			C278.25934,316.00781,315.42761,279.2749,334,233.12598z"/>
		<path d="M0,222.14136v10.94092C18.56818,279.25171,55.74915,316.00195,102.20697,334h11.38959
			C60.2218,316.97559,17.81787,275.15601,0,222.14136z"/>
		<path d="M108.63171,0H98.05243C53.53546,18.54126,18.01135,54.46387,0,99.24829v10.94092
			C17.26166,58.83008,57.59955,17.98022,108.63171,0z"/>
		<path d="M334,110.13574V99.20459C315.9848,54.44043,280.47296,18.53516,235.97449,0h-10.57855
			C276.40552,17.97412,316.72998,58.80127,334,110.13574z"/>
		<path d="M334,89.62793v-8.69189C316.29205,46.38232,288.16406,18.021,253.79785,0h-8.49341
			C284.37201,18.48096,315.91937,50.33765,334,89.62793z"/>
		<path d="M88.72876,0h-8.49329C45.84717,18.03271,17.70587,46.41968,0,81.00342v8.6958
			C18.07526,50.37598,49.63763,18.49219,88.72876,0z"/>
		<path d="M334,251.39404v-8.69189C315.36304,283.20117,282.41919,315.80518,241.67865,334h8.85577
			C286.38342,316.08813,315.73474,287.03516,334,251.39404z"/>
		<path d="M0,242.63086v8.6958C18.26276,286.99805,47.6275,316.0769,83.4989,334h8.85565
			C51.59009,315.79443,18.63104,283.16309,0,242.63086z"/>
		<path d="M334,266.92798v-7.54614C316.41473,290.75586,290.25177,316.69824,258.70001,334h7.62921
			C294.02026,317.55469,317.32056,294.46313,334,266.92798z"/>
		<path d="M0,259.28906v7.55078C16.68451,294.41357,40.00598,317.53711,67.7287,334h7.62994
			C43.77307,316.68115,17.58716,290.70459,0,259.28906z"/>
		<path d="M72.37653,0h-7.41309C38.45367,16.34106,16.12714,38.83789,0,65.49072v7.55103
			C17.03076,42.62012,42.12372,17.29834,72.37653,0z"/>
		<path d="M334,72.94873v-7.54639C317.87836,38.78809,295.57275,16.323,269.0943,0h-7.41248
			C291.90131,17.28052,316.97168,42.5686,334,72.94873z"/>
		<path d="M334,280.86523v-6.81128C318.40454,298.10645,297.76062,318.59302,273.57611,334h6.90594
			C301.45496,319.77783,319.62488,301.72559,334,280.86523z"/>
		<path d="M57.92664,0h-6.74933C31.1897,13.97827,13.83173,31.46387,0,51.56055v6.81641
			C15.04871,35.13696,34.81366,15.22754,57.92664,0z"/>
		<path d="M0,273.95312v6.81641C14.3855,301.67065,32.57928,319.75586,53.58435,334h6.90594
			C36.27185,318.57153,15.60309,298.04932,0,273.95312z"/>
		<path d="M334,58.27612v-6.81128C320.17908,31.40869,302.84491,13.95605,282.8891,0h-6.74933
			C299.21918,15.20557,318.95947,35.07959,334,58.27612z"/>
		<path d="M334,293.74634v-6.33228C320.95203,305.33081,305.10114,321.0791,287.08691,334h6.39069
			C308.73615,322.47729,322.37463,308.92285,334,293.74634z"/>
		<path d="M44.71515,0h-6.27979C24.01599,11.18457,11.08948,24.20117,0,38.69678v6.33789
			C12.51001,27.83252,27.60468,12.62891,44.71515,0z"/>
		<path d="M0,287.29541v6.33789C11.64514,308.85547,25.3147,322.44873,40.61237,334h6.39099
			C28.94788,321.05054,13.06537,305.26123,0,287.29541z"/>
		<path d="M334,44.91602v-6.33228C322.93079,24.1333,310.0351,11.15552,295.65442,0H289.375
			C306.44476,12.59961,321.50793,27.7627,334,44.91602z"/>
		<path d="M334,32.44214v-5.97827C325.99414,16.91235,317.18549,8.05786,307.67908,0h-5.93176
			C313.61414,9.63794,324.42999,20.51831,334,32.44214z"/>
		<path d="M0,299.76392v5.98413C8.58551,316.0061,18.08862,325.4707,28.3949,334h6.03009
			C21.69995,323.9231,10.14929,312.42871,0,299.76392z"/>
		<path d="M334,305.86621v-5.97827C323.87463,312.50391,312.35828,323.95605,299.6748,334h6.03009
			C315.97144,325.50342,325.44043,316.07837,334,305.86621z"/>
		<path d="M32.35254,0h-5.93182C16.875,8.09131,8.03229,16.98511,0,26.58203v5.98413C9.59448,20.59351,20.44452,9.67139,32.35254,0z
			"/>
		<path d="M0,311.57764v5.70898C5.30658,323.14771,10.92188,328.7229,16.81006,334h5.72754
			C14.50281,327.07104,6.97021,319.57593,0,311.57764z"/>
		<path d="M334,317.41333v-5.70874c-6.93958,7.9502-14.43408,15.40332-22.4267,22.29541h5.72784
			C323.14771,328.7605,328.72662,323.22876,334,317.41333z"/>
		<path d="M20.63702,0h-5.67694C9.74316,4.77979,4.74896,9.79834,0,15.04346v5.70898C6.41608,13.39014,13.3147,6.46045,20.63702,0z"
			/>
		<path d="M334,20.62549v-5.70874C329.28473,9.7168,324.3269,4.74146,319.15125,0h-5.67719
			C320.75458,6.42334,327.61511,13.31055,334,20.62549z"/>
		<path d="M334,328.45825v-5.48071c-3.5705,3.79883-7.2699,7.47363-11.08905,11.02246h5.52557
			C330.3233,332.1853,332.17499,330.33496,334,328.45825z"/>
		<path d="M334,9.35254V3.87183C332.73047,2.56641,331.44623,1.27563,330.14667,0h-5.44214
			C327.89319,3.02661,330.98895,6.14893,334,9.35254z"/>
		<path d="M0,322.83472v5.48706c1.86774,1.92383,3.76422,3.81934,5.69672,5.67822h5.52539
			C7.35529,330.40674,3.61176,326.68384,0,322.83472z"/>
		<path d="M9.42853,0H3.98657C2.64166,1.32031,1.31274,2.65625,0,4.0083v5.48706C3.05286,6.2417,6.19269,3.07129,9.42853,0z"/>
		<path d="M334,333.86401c-0.04596,0.04565-0.09326,0.09033-0.13928,0.13599H334V333.86401z"/>
		<path d="M0,334h0.2843c-0.09393-0.09326-0.19049-0.18408-0.2843-0.27759V334z"/>
	</g>
</g>
<g id="Layer_3" display="none">
</g>
<g id="Layer_2" display="none">
</g>
</svg>
