<?xml version="1.0" encoding="utf-8"?>
<!-- Generator: Adobe Illustrator 21.1.0, SVG Export Plug-In . SVG Version: 6.00 Build 0)  -->
<svg version="1.2" baseProfile="tiny" xmlns="http://www.w3.org/2000/svg" xmlns:xlink="http://www.w3.org/1999/xlink" x="0px"
	 y="0px" viewBox="0 0 334 334" xml:space="preserve">
<g id="Layer_1">
	<g>
		<path fill="#898989" d="M0,318.02124v5.53198C3.40308,327.14941,6.92603,330.62964,10.55322,334h5.58765
			C10.49939,328.94385,5.10852,323.61426,0,318.02124z"/>
		<path fill="#898989" d="M0,329.00708V334h5.02759C3.3252,332.36255,1.65234,330.69507,0,329.00708z"/>
		<path fill="#898989" d="M0,306.53882v5.79272C6.78394,320.04541,14.08826,327.29053,21.86865,334h5.8573
			C17.68579,325.69092,8.4104,316.4917,0,306.53882z"/>
		<path fill="#898989" d="M120.55884,0h-12.59595C57.57251,17.75415,17.6156,57.80908,0,108.26001v12.79956
			C15.90967,62.44141,62.04077,16.1416,120.55884,0z"/>
		<path fill="#898989" d="M97.3833,0h-9.32336C49.44434,18.26709,18.17871,49.604,0,88.26929v9.3457
			C18.21228,53.59106,53.40918,18.31519,97.3833,0z"/>
		<path fill="#898989" d="M0,294.50439v6.08936C9.9873,312.93115,21.30981,324.14355,33.75623,334h6.18762
			C24.93848,322.66919,11.49854,309.37476,0,294.50439z"/>
		<path fill="#898989" d="M0,252.59912v7.88452C17.5791,291.36426,43.50439,316.90063,74.68958,334h8.1405
			C47.38794,316.29126,18.30591,287.68774,0,252.59912z"/>
		<path fill="#898989" d="M0,211.27075v12.7998C18.19043,276.16821,60.20312,317.18311,112.92773,334h14.15356
			C65.48291,319.59521,16.49658,272.05127,0,211.27075z"/>
		<path fill="#898989" d="M0,281.7334v6.47827C12.93726,305.79858,28.58643,321.271,46.33447,334h6.58105
			C32.23425,319.97559,14.2793,302.22656,0,281.7334z"/>
		<path fill="#898989" d="M0,234.71558v9.34521C18.74451,283.92969,51.40234,316.00928,91.68567,334h9.85217
			C55.62964,316.21484,18.78223,280.11768,0,234.71558z"/>
		<circle fill="#898989" cx="166.3313" cy="166.16528" r="1.896"/>
		<path fill="#898989" d="M64.29443,0h-7.03662C34.48328,15.00488,14.96411,34.55859,0,57.3623v7.03735
			C16.07324,38.22461,38.14783,16.11719,64.29443,0z"/>
		<path fill="#898989" d="M0,267.93066v7.03711C15.52368,298.62427,35.94495,318.78931,59.82153,334h7.23804
			C39.70398,317.75513,16.63647,295.02319,0,267.93066z"/>
		<path fill="#898989" d="M334,39.4563v-6.18433C324.26709,21.02148,313.22119,9.86182,301.07861,0h-6.09351
			C309.65527,11.38013,322.7832,24.65454,334,39.4563z"/>
		<path fill="#898989" d="M334,82.28027v-8.1377C316.96265,43.22998,291.62854,17.50684,261.01343,0h-7.88452
			C287.93774,18.25317,316.33643,47.12109,334,82.28027z"/>
		<path fill="#898989" d="M334,52.4292v-6.59741C321.37891,28.30103,306.08032,12.82422,288.70642,0h-6.48621
			C302.49646,14.18018,320.07202,31.96582,334,52.4292z"/>
		<path fill="#898989" d="M334,66.53271v-7.22974C318.87842,35.66455,298.8916,15.43018,275.47119,0h-7.0459
			C295.27612,16.55273,317.82837,39.42627,334,66.53271z"/>
		<path fill="#898989" d="M166.34766,156.70312c-5.22656,0-9.47852,4.24512-9.47852,9.46191
			c0,5.21777,4.25195,9.46289,9.47852,9.46289c5.21777,0,9.46289-4.24512,9.46289-9.46289
			C175.81055,160.94824,171.56543,156.70312,166.34766,156.70312z M166.33105,171.85254c-3.13574,0-5.68652-2.55078-5.68652-5.6875
			c0-3.13574,2.55078-5.68652,5.68652-5.68652c3.13672,0,5.6875,2.55078,5.6875,5.68652
			C172.01855,169.30176,169.46777,171.85254,166.33105,171.85254z"/>
		<path fill="#898989" d="M334,4.55713V0h-4.52246C331.00488,1.49927,332.51416,3.0166,334,4.55713z"/>
		<path fill="#898989" d="M334,27.25488v-5.86865C327.427,13.78662,320.33899,6.64648,312.8053,0h-5.79517
			C316.77991,8.28125,325.81812,17.39893,334,27.25488z"/>
		<path fill="#898989" d="M334,15.67065v-5.6001C330.77954,6.61499,327.46167,3.25171,324.03589,0h-5.55371
			C323.90552,4.96851,329.08301,10.19971,334,15.67065z"/>
		<path fill="#898989" d="M25.75171,0h-5.78369C12.89771,6.23828,6.22705,12.91797,0,19.99854v5.79272
			C7.854,16.49658,16.46948,7.86816,25.75171,0z"/>
		<path fill="#898989" d="M334,100.88208v-9.7959C316.03369,51.125,284.18616,18.70947,244.6355,0h-9.32971
			C280.35925,18.7666,316.20349,55.33716,334,100.88208z"/>
		<path fill="#898989" d="M50.50854,0h-6.4624C27.23999,12.4043,12.37769,27.29199,0,44.11841v6.47827
			C13.72095,30.90479,30.84131,13.75415,50.50854,0z"/>
		<path fill="#898989" d="M37.76685,0h-6.08301C20.05151,9.44751,9.42908,20.08838,0,31.73633v6.08936
			C10.93921,23.67871,23.63672,10.96021,37.76685,0z"/>
		<path fill="#898989" d="M14.29089,0H8.75952C5.76099,2.84619,2.84155,5.77417,0,8.77686v5.53198
			C4.54834,9.3291,9.31824,4.55591,14.29089,0z"/>
		<path fill="#898989" d="M3.31738,0H0v3.323C1.09497,2.20435,2.20044,1.09668,3.31738,0z"/>
		<path fill="#898989" d="M334,126.23267v-14.0437C317.12305,59.89307,276.41431,18.21265,224.72729,0h-12.61938
			C272.34375,16.61377,319.45923,65.17432,334,126.23267z"/>
		<path fill="#898989" d="M79.56665,0h-7.85913C41.85059,17.07178,17.01575,41.95605,0,71.84717v7.88379
			C17.74097,45.72534,45.60278,17.81006,79.56665,0z"/>
		<path fill="#898989" d="M334,183.52075v-34.71143C326.25012,73.38867,268.56274,12.55762,194.6499,0h-56.63501
			C67.35962,12.00537,11.54419,68.13403,0,138.94971v54.43066C12.23218,268.41626,74.17017,326.96338,150.79834,334h31.06689
			C261.82788,326.65796,325.80859,263.23853,334,183.52075z M166.49609,330.93066
			c-90.85156,0-164.76465-73.91309-164.76465-164.76562c0-90.85156,73.91309-164.76465,164.76465-164.76465
			c90.85254,0,164.76562,73.91309,164.76562,164.76465C331.26172,257.01758,257.34863,330.93066,166.49609,330.93066z"/>
		<path fill="#898989" d="M334,220.1416v-14.04419C318.93799,269.34399,268.92725,319.18896,205.58472,334h14.17822
			C273.80115,316.76245,316.58618,274.10156,334,220.1416z"/>
		<path fill="#898989" d="M334,241.2439v-9.79541C315.65991,278.38477,278.15247,315.79004,231.15161,334h9.85815
			C282.23901,315.58691,315.48779,282.41943,334,241.2439z"/>
		<path fill="#898989" d="M166.47949,20.34082c-80.40723,0-145.82422,65.41699-145.82422,145.82422
			s65.41699,145.82422,145.82422,145.82422c80.4082,0,145.8252-65.41699,145.8252-145.82422S246.8877,20.34082,166.47949,20.34082z
			 M166.46387,308.21387c-78.31738,0-142.0332-63.72266-142.0332-142.04883S88.14648,24.11621,166.46387,24.11621
			c78.32617,0,142.04883,63.72266,142.04883,142.04883S244.79004,308.21387,166.46387,308.21387z"/>
		<path fill="#898989" d="M166.49609,5.19141c-88.76074,0-160.97363,72.21289-160.97363,160.97363
			c0,88.76172,72.21289,160.97461,160.97363,160.97461c88.76172,0,160.97461-72.21289,160.97461-160.97461
			C327.4707,77.4043,255.25781,5.19141,166.49609,5.19141z M166.47949,323.36426
			c-86.66992,0-157.18164-70.51953-157.18164-157.19922S79.80957,8.9668,166.47949,8.9668
			c86.67969,0,157.19922,70.51855,157.19922,157.19824S253.15918,323.36426,166.47949,323.36426z"/>
		<path fill="#898989" d="M334,258.18823v-8.13843c-18.21252,36.25171-47.83789,65.8147-84.13452,83.9502h8.16602
			C289.9834,316.47876,316.41272,290.09888,334,258.18823z"/>
		<path fill="#898989" d="M166.46387,27.90723c-76.22656,0-138.24219,62.02246-138.24219,138.25781
			S90.2373,304.42285,166.46387,304.42285c76.23535,0,138.25781-62.02246,138.25781-138.25781
			S242.69922,27.90723,166.46387,27.90723z M166.46387,300.63086c-74.14551,0-134.4668-60.32129-134.4668-134.46582
			S92.31836,31.69922,166.46387,31.69922c74.14453,0,134.46582,60.32129,134.46582,134.46582
			S240.6084,300.63086,166.46387,300.63086z"/>
		<path fill="#898989" d="M166.47949,12.75781c-84.58008,0-153.39062,68.81836-153.39062,153.40723
			c0,84.58984,68.81055,153.4082,153.39062,153.4082c84.58984,0,153.4082-68.81836,153.4082-153.4082
			C319.8877,81.57617,251.06934,12.75781,166.47949,12.75781z M166.47949,315.78027
			c-82.49805,0-149.61523-67.11719-149.61523-149.61523S83.98145,16.5498,166.47949,16.5498
			c82.49902,0,149.61621,67.11719,149.61621,149.61523S248.97852,315.78027,166.47949,315.78027z"/>
		<path fill="#898989" d="M334,322.25952v-5.6001c-5.47229,6.08887-11.27112,11.87695-17.36792,17.34058h5.61011
			C326.30103,330.22852,330.22253,326.3125,334,322.25952z"/>
		<path fill="#898989" d="M334,333.19751v-5.42456c-2.03906,2.11401-4.11584,4.19092-6.23267,6.22705h5.42456
			C333.46118,333.73242,333.73193,333.46655,334,333.19751z"/>
		<path fill="#898989" d="M166.34766,149.11914c-9.39844,0-17.04492,7.64648-17.04492,17.0459s7.64648,17.0459,17.04492,17.0459
			c9.39941,0,17.0459-7.64648,17.0459-17.0459S175.74707,149.11914,166.34766,149.11914z M166.34766,179.41895
			c-7.31738,0-13.26953-5.94531-13.26953-13.25391c0-7.30762,5.95215-13.25293,13.26953-13.25293
			c7.30859,0,13.25391,5.94531,13.25391,13.25293C179.60156,173.47363,173.65625,179.41895,166.34766,179.41895z"/>
		<path fill="#898989" d="M334,286.49829v-6.59741C319.52246,301.17163,301.10986,319.55811,279.81311,334h6.60522
			C304.73987,320.85889,320.82715,304.79565,334,286.49829z"/>
		<path fill="#898989" d="M334,299.05811v-6.18433C322.23071,308.40454,308.35938,322.25635,292.80823,334h6.19788
			C311.96802,323.73535,323.71509,312.00342,334,299.05811z"/>
		<path fill="#898989" d="M334,273.0271v-7.22949C317.27661,293.8291,293.72766,317.33105,265.66028,334h7.24719
			C297.43677,318.37354,318.32861,297.5249,334,273.0271z"/>
		<path fill="#898989" d="M334,310.94385v-5.86865c-8.73242,10.51904-18.4314,20.20801-28.96411,28.9248h5.86865
			C319.15283,326.88745,326.87524,319.1814,334,310.94385z"/>
		<path fill="#898989" d="M166.38086,118.82031c-26.10547,0-47.34473,21.23926-47.34473,47.34473
			s21.23926,47.34473,47.34473,47.34473s47.34473-21.23926,47.34473-47.34473S192.48633,118.82031,166.38086,118.82031z
			 M166.38086,209.71777c-24.02441,0-43.56934-19.53711-43.56934-43.55273s19.54492-43.55273,43.56934-43.55273
			c24.01562,0,43.55273,19.53711,43.55273,43.55273S190.39648,209.71777,166.38086,209.71777z"/>
		<path fill="#898989" d="M166.38086,111.2373c-30.27832,0-54.91113,24.64062-54.91113,54.92773
			s24.63281,54.92773,54.91113,54.92773c30.28711,0,54.92773-24.64062,54.92773-54.92773S196.66797,111.2373,166.38086,111.2373z
			 M166.38086,217.30078c-28.19629,0-51.13574-22.93945-51.13574-51.13574s22.93945-51.13574,51.13574-51.13574
			s51.13574,22.93945,51.13574,51.13574S194.57715,217.30078,166.38086,217.30078z"/>
		<path fill="#898989" d="M166.39746,103.6709c-34.45898,0-62.49414,28.03516-62.49414,62.49414
			s28.03516,62.49414,62.49414,62.49414s62.49414-28.03516,62.49414-62.49414S200.85645,103.6709,166.39746,103.6709z
			 M166.38086,224.88379c-32.36816,0-58.70215-26.34082-58.70215-58.71875s26.33398-58.71875,58.70215-58.71875
			c32.37793,0,58.71875,26.34082,58.71875,58.71875S198.75879,224.88379,166.38086,224.88379z"/>
		<path fill="#898989" d="M166.36426,141.55273c-13.58008,0-24.62793,11.04102-24.62793,24.6123s11.04785,24.6123,24.62793,24.6123
			c13.57129,0,24.6123-11.04102,24.6123-24.6123S179.93555,141.55273,166.36426,141.55273z M166.34766,187.00195
			c-11.48926,0-20.83594-9.34766-20.83594-20.83691s9.34668-20.83691,20.83594-20.83691s20.83691,9.34766,20.83691,20.83691
			S177.83691,187.00195,166.34766,187.00195z"/>
		<path fill="#898989" d="M166.38086,126.40332c-21.93359,0-39.77832,17.83691-39.77832,39.76172
			s17.84473,39.76172,39.77832,39.76172c21.9248,0,39.76172-17.83691,39.76172-39.76172S188.30566,126.40332,166.38086,126.40332z
			 M166.36426,202.15137c-19.84277,0-35.98535-16.14355-35.98535-35.98633s16.14258-35.98633,35.98535-35.98633
			s35.98633,16.14355,35.98633,35.98633S186.20703,202.15137,166.36426,202.15137z"/>
		<path fill="#898989" d="M166.39746,96.08789c-38.63184,0-70.06055,31.43652-70.06055,70.07715
			s31.42871,70.07715,70.06055,70.07715c38.64062,0,70.07715-31.43652,70.07715-70.07715S205.03809,96.08789,166.39746,96.08789z
			 M166.39746,232.4502c-36.5498,0-66.28516-29.73535-66.28516-66.28516s29.73535-66.28516,66.28516-66.28516
			s66.28516,29.73535,66.28516,66.28516S202.94727,232.4502,166.39746,232.4502z"/>
		<path fill="#898989" d="M166.36426,133.96973c-17.75195,0-32.19434,14.44336-32.19434,32.19531
			s14.44238,32.19531,32.19434,32.19531s32.19531-14.44336,32.19531-32.19531S184.11621,133.96973,166.36426,133.96973z
			 M166.36426,194.56836c-15.66992,0-28.41895-12.74121-28.41895-28.40332s12.74902-28.40332,28.41895-28.40332
			c15.66211,0,28.40332,12.74121,28.40332,28.40332S182.02637,194.56836,166.36426,194.56836z"/>
		<path fill="#898989" d="M166.43066,73.37207c-51.1748,0-92.80957,41.62695-92.80957,92.79297s41.63477,92.79297,92.80957,92.79297
			c51.16602,0,92.79297-41.62695,92.79297-92.79297S217.59668,73.37207,166.43066,73.37207z M166.41406,255.18262
			c-49.0752,0-89.00098-39.93262-89.00098-89.01758s39.92578-89.01758,89.00098-89.01758
			c49.08496,0,89.01758,39.93262,89.01758,89.01758S215.49902,255.18262,166.41406,255.18262z"/>
		<path fill="#898989" d="M166.44727,50.63965c-63.70117,0-115.52539,51.82422-115.52539,115.52539
			s51.82422,115.52539,115.52539,115.52539s115.52539-51.82422,115.52539-115.52539S230.14844,50.63965,166.44727,50.63965z
			 M166.44727,277.89844c-61.61914,0-111.75-50.12305-111.75-111.7334s50.13086-111.7334,111.75-111.7334
			c61.61035,0,111.7334,50.12305,111.7334,111.7334S228.05762,277.89844,166.44727,277.89844z"/>
		<path fill="#898989" d="M166.44727,58.22266c-59.52832,0-107.95898,48.42285-107.95898,107.94238
			s48.43066,107.94238,107.95898,107.94238c59.51953,0,107.94238-48.42285,107.94238-107.94238
			S225.9668,58.22266,166.44727,58.22266z M166.43066,270.33203c-57.43848,0-104.16699-46.72852-104.16699-104.16699
			S108.99219,61.99805,166.43066,61.99805s104.16699,46.72852,104.16699,104.16699S223.86914,270.33203,166.43066,270.33203z"/>
		<path fill="#898989" d="M166.46387,43.07324c-67.88281,0-123.10938,55.21875-123.10938,123.0918
			s55.22656,123.0918,123.10938,123.0918c67.87305,0,123.0918-55.21875,123.0918-123.0918S234.33691,43.07324,166.46387,43.07324z
			 M166.44727,285.48145c-65.79102,0-119.31641-53.52539-119.31641-119.31641S100.65625,46.84863,166.44727,46.84863
			s119.31641,53.52539,119.31641,119.31641S232.23828,285.48145,166.44727,285.48145z"/>
		<path fill="#898989" d="M166.41406,88.52148c-42.8125,0-77.64355,34.83105-77.64355,77.64355s34.83105,77.64355,77.64355,77.64355
			s77.64355-34.83105,77.64355-77.64355S209.22656,88.52148,166.41406,88.52148z M166.39746,240.0332
			c-40.72168,0-73.85156-33.13672-73.85156-73.86816s33.12988-73.86816,73.85156-73.86816
			c40.73145,0,73.86816,33.13672,73.86816,73.86816S207.12891,240.0332,166.39746,240.0332z"/>
		<path fill="#898989" d="M166.46387,35.49023c-72.05469,0-130.67578,58.62109-130.67578,130.6748
			s58.62109,130.6748,130.67578,130.6748c72.05371,0,130.6748-58.62109,130.6748-130.6748S238.51758,35.49023,166.46387,35.49023z
			 M166.46387,293.04785c-69.97363,0-126.90039-56.91895-126.90039-126.88281S96.49023,39.28223,166.46387,39.28223
			c69.96387,0,126.88281,56.91895,126.88281,126.88281S236.42773,293.04785,166.46387,293.04785z"/>
		<path fill="#898989" d="M166.41406,80.93848c-46.98438,0-85.20996,38.23242-85.20996,85.22656
			s38.22559,85.22656,85.20996,85.22656c46.99414,0,85.22656-38.23242,85.22656-85.22656S213.4082,80.93848,166.41406,80.93848z
			 M166.41406,247.59961c-44.90332,0-81.43457-36.53125-81.43457-81.43457s36.53125-81.43457,81.43457-81.43457
			s81.43457,36.53125,81.43457,81.43457S211.31738,247.59961,166.41406,247.59961z"/>
		<path fill="#898989" d="M166.43066,65.78906c-55.34766,0-100.37598,45.02832-100.37598,100.37598
			s45.02832,100.37598,100.37598,100.37598s100.37598-45.02832,100.37598-100.37598S221.77832,65.78906,166.43066,65.78906z
			 M166.43066,262.74902c-53.26562,0-96.60059-43.32715-96.60059-96.58398s43.33496-96.58398,96.60059-96.58398
			c53.25684,0,96.58398,43.32715,96.58398,96.58398S219.6875,262.74902,166.43066,262.74902z"/>
		<path fill="#767676" d="M166.33105,160.47852c-3.13574,0-5.68652,2.55078-5.68652,5.68652
			c0,3.13672,2.55078,5.6875,5.68652,5.6875c3.13672,0,5.6875-2.55078,5.6875-5.6875
			C172.01855,163.0293,169.46777,160.47852,166.33105,160.47852z M166.33105,168.06152c-1.04492,0-1.89551-0.85059-1.89551-1.89648
			c0-1.04492,0.85059-1.89551,1.89551-1.89551c1.0459,0,1.89648,0.85059,1.89648,1.89551
			C168.22754,167.21094,167.37695,168.06152,166.33105,168.06152z"/>
		<path fill="#767676" d="M166.34766,152.91211c-7.31738,0-13.26953,5.94531-13.26953,13.25293
			c0,7.30859,5.95215,13.25391,13.26953,13.25391c7.30859,0,13.25391-5.94531,13.25391-13.25391
			C179.60156,158.85742,173.65625,152.91211,166.34766,152.91211z M166.34766,175.62793c-5.22656,0-9.47852-4.24512-9.47852-9.46289
			c0-5.2168,4.25195-9.46191,9.47852-9.46191c5.21777,0,9.46289,4.24512,9.46289,9.46191
			C175.81055,171.38281,171.56543,175.62793,166.34766,175.62793z"/>
		<path fill="#767676" d="M166.34766,145.32812c-11.48926,0-20.83594,9.34766-20.83594,20.83691s9.34668,20.83691,20.83594,20.83691
			s20.83691-9.34766,20.83691-20.83691S177.83691,145.32812,166.34766,145.32812z M166.34766,183.21094
			c-9.39844,0-17.04492-7.64648-17.04492-17.0459s7.64648-17.0459,17.04492-17.0459c9.39941,0,17.0459,7.64648,17.0459,17.0459
			S175.74707,183.21094,166.34766,183.21094z"/>
		<path fill="#767676" d="M166.36426,137.76172c-15.66992,0-28.41895,12.74121-28.41895,28.40332
			s12.74902,28.40332,28.41895,28.40332c15.66211,0,28.40332-12.74121,28.40332-28.40332S182.02637,137.76172,166.36426,137.76172z
			 M166.36426,190.77734c-13.58008,0-24.62793-11.04102-24.62793-24.6123s11.04785-24.6123,24.62793-24.6123
			c13.57129,0,24.6123,11.04102,24.6123,24.6123S179.93555,190.77734,166.36426,190.77734z"/>
		<path fill="#767676" d="M166.36426,130.17871c-19.84277,0-35.98535,16.14355-35.98535,35.98633
			s16.14258,35.98633,35.98535,35.98633s35.98633-16.14355,35.98633-35.98633S186.20703,130.17871,166.36426,130.17871z
			 M166.36426,198.36035c-17.75195,0-32.19434-14.44336-32.19434-32.19531s14.44238-32.19531,32.19434-32.19531
			s32.19531,14.44336,32.19531,32.19531S184.11621,198.36035,166.36426,198.36035z"/>
		<path fill="#767676" d="M166.38086,122.6123c-24.02441,0-43.56934,19.53711-43.56934,43.55273
			s19.54492,43.55273,43.56934,43.55273c24.01562,0,43.55273-19.53711,43.55273-43.55273S190.39648,122.6123,166.38086,122.6123z
			 M166.38086,205.92676c-21.93359,0-39.77832-17.83691-39.77832-39.76172s17.84473-39.76172,39.77832-39.76172
			c21.9248,0,39.76172,17.83691,39.76172,39.76172S188.30566,205.92676,166.38086,205.92676z"/>
		<path fill="#767676" d="M166.38086,115.0293c-28.19629,0-51.13574,22.93945-51.13574,51.13574
			s22.93945,51.13574,51.13574,51.13574s51.13574-22.93945,51.13574-51.13574S194.57715,115.0293,166.38086,115.0293z
			 M166.38086,213.50977c-26.10547,0-47.34473-21.23926-47.34473-47.34473s21.23926-47.34473,47.34473-47.34473
			s47.34473,21.23926,47.34473,47.34473S192.48633,213.50977,166.38086,213.50977z"/>
		<path fill="#767676" d="M166.38086,107.44629c-32.36816,0-58.70215,26.34082-58.70215,58.71875
			s26.33398,58.71875,58.70215,58.71875c32.37793,0,58.71875-26.34082,58.71875-58.71875S198.75879,107.44629,166.38086,107.44629z
			 M166.38086,221.09277c-30.27832,0-54.91113-24.64062-54.91113-54.92773s24.63281-54.92773,54.91113-54.92773
			c30.28711,0,54.92773,24.64062,54.92773,54.92773S196.66797,221.09277,166.38086,221.09277z"/>
		<path fill="#767676" d="M166.39746,99.87988c-36.5498,0-66.28516,29.73535-66.28516,66.28516s29.73535,66.28516,66.28516,66.28516
			s66.28516-29.73535,66.28516-66.28516S202.94727,99.87988,166.39746,99.87988z M166.39746,228.65918
			c-34.45898,0-62.49414-28.03516-62.49414-62.49414s28.03516-62.49414,62.49414-62.49414s62.49414,28.03516,62.49414,62.49414
			S200.85645,228.65918,166.39746,228.65918z"/>
		<path fill="#767676" d="M166.39746,92.29688c-40.72168,0-73.85156,33.13672-73.85156,73.86816
			s33.12988,73.86816,73.85156,73.86816c40.73145,0,73.86816-33.13672,73.86816-73.86816S207.12891,92.29688,166.39746,92.29688z
			 M166.39746,236.24219c-38.63184,0-70.06055-31.43652-70.06055-70.07715s31.42871-70.07715,70.06055-70.07715
			c38.64062,0,70.07715,31.43652,70.07715,70.07715S205.03809,236.24219,166.39746,236.24219z"/>
		<path fill="#767676" d="M166.41406,84.73047c-44.90332,0-81.43457,36.53125-81.43457,81.43457
			s36.53125,81.43457,81.43457,81.43457s81.43457-36.53125,81.43457-81.43457S211.31738,84.73047,166.41406,84.73047z
			 M166.41406,243.80859c-42.8125,0-77.64355-34.83105-77.64355-77.64355s34.83105-77.64355,77.64355-77.64355
			s77.64355,34.83105,77.64355,77.64355S209.22656,243.80859,166.41406,243.80859z"/>
		<path fill="#767676" d="M166.41406,77.14746c-49.0752,0-89.00098,39.93262-89.00098,89.01758s39.92578,89.01758,89.00098,89.01758
			c49.08496,0,89.01758-39.93262,89.01758-89.01758S215.49902,77.14746,166.41406,77.14746z M166.41406,251.3916
			c-46.98438,0-85.20996-38.23242-85.20996-85.22656s38.22559-85.22656,85.20996-85.22656
			c46.99414,0,85.22656,38.23242,85.22656,85.22656S213.4082,251.3916,166.41406,251.3916z"/>
		<path fill="#767676" d="M166.43066,69.58105c-53.26562,0-96.60059,43.32715-96.60059,96.58398
			s43.33496,96.58398,96.60059,96.58398c53.25684,0,96.58398-43.32715,96.58398-96.58398S219.6875,69.58105,166.43066,69.58105z
			 M166.43066,258.95801c-51.1748,0-92.80957-41.62695-92.80957-92.79297s41.63477-92.79297,92.80957-92.79297
			c51.16602,0,92.79297,41.62695,92.79297,92.79297S217.59668,258.95801,166.43066,258.95801z"/>
		<path fill="#767676" d="M166.43066,61.99805c-57.43848,0-104.16699,46.72852-104.16699,104.16699
			s46.72852,104.16699,104.16699,104.16699s104.16699-46.72852,104.16699-104.16699S223.86914,61.99805,166.43066,61.99805z
			 M166.43066,266.54102c-55.34766,0-100.37598-45.02832-100.37598-100.37598S111.08301,65.78906,166.43066,65.78906
			s100.37598,45.02832,100.37598,100.37598S221.77832,266.54102,166.43066,266.54102z"/>
		<path fill="#767676" d="M166.44727,54.43164c-61.61914,0-111.75,50.12305-111.75,111.7334s50.13086,111.7334,111.75,111.7334
			c61.61035,0,111.7334-50.12305,111.7334-111.7334S228.05762,54.43164,166.44727,54.43164z M166.44727,274.10742
			c-59.52832,0-107.95898-48.42285-107.95898-107.94238S106.91895,58.22266,166.44727,58.22266
			c59.51953,0,107.94238,48.42285,107.94238,107.94238S225.9668,274.10742,166.44727,274.10742z"/>
		<path fill="#767676" d="M166.44727,46.84863c-65.79102,0-119.31641,53.52539-119.31641,119.31641
			s53.52539,119.31641,119.31641,119.31641s119.31641-53.52539,119.31641-119.31641S232.23828,46.84863,166.44727,46.84863z
			 M166.44727,281.69043c-63.70117,0-115.52539-51.82422-115.52539-115.52539S102.74609,50.63965,166.44727,50.63965
			s115.52539,51.82422,115.52539,115.52539S230.14844,281.69043,166.44727,281.69043z"/>
		<path fill="#767676" d="M166.46387,39.28223c-69.97363,0-126.90039,56.91895-126.90039,126.88281
			s56.92676,126.88281,126.90039,126.88281c69.96387,0,126.88281-56.91895,126.88281-126.88281
			S236.42773,39.28223,166.46387,39.28223z M166.46387,289.25684c-67.88281,0-123.10938-55.21875-123.10938-123.0918
			s55.22656-123.0918,123.10938-123.0918c67.87305,0,123.0918,55.21875,123.0918,123.0918S234.33691,289.25684,166.46387,289.25684z
			"/>
		<path fill="#767676" d="M166.46387,31.69922c-74.14551,0-134.4668,60.32129-134.4668,134.46582
			s60.32129,134.46582,134.4668,134.46582c74.14453,0,134.46582-60.32129,134.46582-134.46582S240.6084,31.69922,166.46387,31.69922
			z M166.46387,296.83984c-72.05469,0-130.67578-58.62109-130.67578-130.6748s58.62109-130.6748,130.67578-130.6748
			c72.05371,0,130.6748,58.62109,130.6748,130.6748S238.51758,296.83984,166.46387,296.83984z"/>
		<path fill="#767676" d="M166.46387,24.11621c-78.31738,0-142.0332,63.72266-142.0332,142.04883
			s63.71582,142.04883,142.0332,142.04883c78.32617,0,142.04883-63.72266,142.04883-142.04883
			S244.79004,24.11621,166.46387,24.11621z M166.46387,304.42285c-76.22656,0-138.24219-62.02246-138.24219-138.25781
			S90.2373,27.90723,166.46387,27.90723c76.23535,0,138.25781,62.02246,138.25781,138.25781
			S242.69922,304.42285,166.46387,304.42285z"/>
		<path fill="#767676" d="M166.47949,16.5498c-82.49805,0-149.61523,67.11719-149.61523,149.61523
			s67.11719,149.61523,149.61523,149.61523c82.49902,0,149.61621-67.11719,149.61621-149.61523S248.97852,16.5498,166.47949,16.5498
			z M166.47949,311.98926c-80.40723,0-145.82422-65.41699-145.82422-145.82422S86.07227,20.34082,166.47949,20.34082
			c80.4082,0,145.8252,65.41699,145.8252,145.82422S246.8877,311.98926,166.47949,311.98926z"/>
		<path fill="#767676" d="M166.47949,8.9668c-86.66992,0-157.18164,70.51855-157.18164,157.19824
			s70.51172,157.19922,157.18164,157.19922c86.67969,0,157.19922-70.51953,157.19922-157.19922S253.15918,8.9668,166.47949,8.9668z
			 M166.47949,319.57324c-84.58008,0-153.39062-68.81836-153.39062-153.4082c0-84.58887,68.81055-153.40723,153.39062-153.40723
			c84.58984,0,153.4082,68.81836,153.4082,153.40723C319.8877,250.75488,251.06934,319.57324,166.47949,319.57324z"/>
		<path fill="#767676" d="M166.49609,1.40039c-90.85156,0-164.76465,73.91309-164.76465,164.76465
			c0,90.85254,73.91309,164.76562,164.76465,164.76562c90.85254,0,164.76562-73.91309,164.76562-164.76562
			C331.26172,75.31348,257.34863,1.40039,166.49609,1.40039z M166.49609,327.13965
			c-88.76074,0-160.97363-72.21289-160.97363-160.97461c0-88.76074,72.21289-160.97363,160.97363-160.97363
			c88.76172,0,160.97461,72.21289,160.97461,160.97363C327.4707,254.92676,255.25781,327.13965,166.49609,327.13965z"/>
		<path fill="#767676" d="M138.01489,0h-17.45605C62.04077,16.1416,15.90967,62.44141,0,121.05957v17.89014
			C11.54419,68.13403,67.35962,12.00537,138.01489,0z"/>
		<path fill="#767676" d="M334,206.09741v-22.57666C325.80859,263.23853,261.82788,326.65796,181.86523,334h23.71948
			C268.92725,319.18896,318.93799,269.34399,334,206.09741z"/>
		<path fill="#767676" d="M334,148.80933v-22.57666C319.45923,65.17432,272.34375,16.61377,212.10791,0H194.6499
			C268.56274,12.55762,326.25012,73.38867,334,148.80933z"/>
		<path fill="#767676" d="M0,193.38037v17.89038C16.49658,272.05127,65.48291,319.59521,127.0813,334h23.71704
			C74.17017,326.96338,12.23218,268.41626,0,193.38037z"/>
		<path fill="#767676" d="M0,224.07056v10.64502C18.78223,280.11768,55.62964,316.21484,101.53784,334h11.38989
			C60.20312,317.18311,18.19043,276.16821,0,224.07056z"/>
		<path fill="#767676" d="M107.96289,0H97.3833C53.40918,18.31519,18.21228,53.59106,0,97.61499v10.64502
			C17.6156,57.80908,57.57251,17.75415,107.96289,0z"/>
		<path fill="#767676" d="M334,112.18896v-11.30688C316.20349,55.33716,280.35925,18.7666,235.30579,0h-10.57849
			C276.41431,18.21265,317.12305,59.89307,334,112.18896z"/>
		<path fill="#767676" d="M334,231.44849V220.1416C316.58618,274.10156,273.80115,316.76245,219.76294,334h11.38867
			C278.15247,315.79004,315.65991,278.38477,334,231.44849z"/>
		<path fill="#767676" d="M0,244.06079v8.53833C18.30591,287.68774,47.38794,316.29126,82.83008,334h8.85559
			C51.40234,316.00928,18.74451,283.92969,0,244.06079z"/>
		<path fill="#767676" d="M334,91.08618v-8.80591C316.33643,47.12109,287.93774,18.25317,253.12891,0h-8.49341
			C284.18616,18.70947,316.03369,51.125,334,91.08618z"/>
		<path fill="#767676" d="M334,250.0498v-8.80591c-18.51221,41.17554-51.76099,74.34302-92.99023,92.7561h8.85571
			C286.16211,315.8645,315.78748,286.30151,334,250.0498z"/>
		<path fill="#767676" d="M88.05994,0h-8.49329C45.60278,17.81006,17.74097,45.72534,0,79.73096v8.53833
			C18.17871,49.604,49.44434,18.26709,88.05994,0z"/>
		<path fill="#767676" d="M0,260.48364v7.44702C16.63647,295.02319,39.70398,317.75513,67.05957,334h7.63
			C43.50439,316.90063,17.5791,291.36426,0,260.48364z"/>
		<path fill="#767676" d="M71.70752,0h-7.41309C38.14783,16.11719,16.07324,38.22461,0,64.39966v7.44751
			C17.01575,41.95605,41.85059,17.07178,71.70752,0z"/>
		<path fill="#767676" d="M334,74.14258v-7.60986C317.82837,39.42627,295.27612,16.55273,268.42529,0h-7.41187
			C291.62854,17.50684,316.96265,43.22998,334,74.14258z"/>
		<path fill="#767676" d="M334,265.79761v-7.60938C316.41272,290.09888,289.9834,316.47876,258.03149,334h7.62878
			C293.72766,317.33105,317.27661,293.8291,334,265.79761z"/>
		<path fill="#767676" d="M334,59.30298V52.4292C320.07202,31.96582,302.49646,14.18018,282.22021,0h-6.74902
			C298.8916,15.43018,318.87842,35.66455,334,59.30298z"/>
		<path fill="#767676" d="M0,274.96777v6.76562C14.2793,302.22656,32.23425,319.97559,52.91553,334h6.90601
			C35.94495,318.78931,15.52368,298.62427,0,274.96777z"/>
		<path fill="#767676" d="M57.25781,0h-6.74927C30.84131,13.75415,13.72095,30.90479,0,50.59668v6.76562
			C14.96411,34.55859,34.48328,15.00488,57.25781,0z"/>
		<path fill="#767676" d="M334,279.90088v-6.87378c-15.67139,24.4978-36.56323,45.34644-61.09253,60.9729h6.90564
			C301.10986,319.55811,319.52246,301.17163,334,279.90088z"/>
		<path fill="#767676" d="M44.04614,0h-6.2793C23.63672,10.96021,10.93921,23.67871,0,37.82568v6.29272
			C12.37769,27.29199,27.23999,12.4043,44.04614,0z"/>
		<path fill="#767676" d="M334,45.83179V39.4563C322.7832,24.65454,309.65527,11.38013,294.98511,0h-6.27869
			C306.08032,12.82422,321.37891,28.30103,334,45.83179z"/>
		<path fill="#767676" d="M0,288.21167v6.29272C11.49854,309.37476,24.93848,322.66919,39.94385,334h6.39062
			C28.58643,321.271,12.93726,305.79858,0,288.21167z"/>
		<path fill="#767676" d="M334,292.87378v-6.37549c-13.17285,18.29736-29.26013,34.3606-47.58167,47.50171h6.38989
			C308.35938,322.25635,322.23071,308.40454,334,292.87378z"/>
		<path fill="#767676" d="M334,33.27197v-6.01709C325.81812,17.39893,316.77991,8.28125,307.01013,0h-5.93152
			C313.22119,9.86182,324.26709,21.02148,334,33.27197z"/>
		<path fill="#767676" d="M31.68384,0h-5.93213C16.46948,7.86816,7.854,16.49658,0,25.79126v5.94507
			C9.42908,20.08838,20.05151,9.44751,31.68384,0z"/>
		<path fill="#767676" d="M0,300.59375v5.94507C8.4104,316.4917,17.68579,325.69092,27.72595,334h6.03027
			C21.30981,324.14355,9.9873,312.93115,0,300.59375z"/>
		<path fill="#767676" d="M334,305.0752v-6.01709C323.71509,312.00342,311.96802,323.73535,299.0061,334h6.02979
			C315.5686,325.2832,325.26758,315.59424,334,305.0752z"/>
		<path fill="#767676" d="M19.96802,0h-5.67712C9.31824,4.55591,4.54834,9.3291,0,14.30884v5.6897
			C6.22705,12.91797,12.89771,6.23828,19.96802,0z"/>
		<path fill="#767676" d="M334,21.38623v-5.71558C329.08301,10.19971,323.90552,4.96851,318.48218,0h-5.67688
			C320.33899,6.64648,327.427,13.78662,334,21.38623z"/>
		<path fill="#767676" d="M334,316.65942v-5.71558c-7.12476,8.23755-14.84717,15.9436-23.09546,23.05615h5.72754
			C322.72888,328.53638,328.52771,322.74829,334,316.65942z"/>
		<path fill="#767676" d="M0,312.33154v5.6897C5.10852,323.61426,10.49939,328.94385,16.14087,334h5.72778
			C14.08826,327.29053,6.78394,320.04541,0,312.33154z"/>
		<path fill="#767676" d="M0,323.55322v5.45386c1.65234,1.68799,3.3252,3.35547,5.02759,4.99292h5.52563
			C6.92603,330.62964,3.40308,327.14941,0,323.55322z"/>
		<path fill="#767676" d="M334,327.77295v-5.51343c-3.77747,4.05298-7.69897,7.96899-11.75781,11.74048h5.52515
			C329.88416,331.96387,331.96094,329.88696,334,327.77295z"/>
		<path fill="#767676" d="M8.75952,0H3.31738C2.20044,1.09668,1.09497,2.20435,0,3.323v5.45386
			C2.84155,5.77417,5.76099,2.84619,8.75952,0z"/>
		<path fill="#767676" d="M334,10.07056V4.55713C332.51416,3.0166,331.00488,1.49927,329.47754,0h-5.44165
			C327.46167,3.25171,330.77954,6.61499,334,10.07056z"/>
		<path fill="#767676" d="M334,333.19751c-0.26807,0.26904-0.53882,0.53491-0.80811,0.80249H334V333.19751z"/>
	</g>
</g>
<g id="Layer_3" display="none">
</g>
<g id="Layer_2" display="none">
</g>
</svg>
