<?xml version="1.0" encoding="utf-8"?>
<!-- Generator: Adobe Illustrator 21.1.0, SVG Export Plug-In . SVG Version: 6.00 Build 0)  -->
<svg version="1.2" baseProfile="tiny" xmlns="http://www.w3.org/2000/svg" xmlns:xlink="http://www.w3.org/1999/xlink" x="0px"
	 y="0px" viewBox="0 0 334 334" xml:space="preserve">
<g id="Layer_1">
	<g>
		<path fill="#818181" d="M167.0332,87.8457c-43.54395,0-78.96973,35.43359-78.96973,78.9873
			c0,43.55469,35.42578,78.98828,78.96973,78.98828c43.55469,0,78.98828-35.43359,78.98828-78.98828
			C246.02148,123.2793,210.58789,87.8457,167.0332,87.8457z M167.0332,239.49121c-40.06348,0-72.65723-32.59473-72.65723-72.6582
			s32.59375-72.65723,72.65723-72.65723s72.6582,32.59375,72.6582,72.65723S207.09668,239.49121,167.0332,239.49121z"/>
		<path fill="#818181" d="M334,179.02246v-24.37891C328.07568,72.69629,262.91943,6.91479,181.24658,0h-28.49146
			C70.99927,6.92236,5.79761,72.84424,0,154.91895v23.82812C5.90796,262.3833,73.50098,329.24951,157.43823,334h19.12476
			C260.41675,329.25488,327.96289,262.53052,334,179.02246z M167,327.94922c-88.83984,0-161.11621-72.27637-161.11621-161.11621
			C5.88379,77.99414,78.16016,5.71777,167,5.71777s161.11621,72.27637,161.11621,161.11523
			C328.11621,255.67285,255.83984,327.94922,167,327.94922z"/>
		<path fill="#818181" d="M118.40405,0H99.27417C54.23267,18.35596,18.23804,54.4375,0,99.53882v19.30713
			C16.42725,61.75244,61.40234,16.63403,118.40405,0z"/>
		<path fill="#818181" d="M0,316.35107v9.32495C2.70679,328.521,5.48682,331.29565,8.33398,334h9.32861
			C11.45508,328.44653,5.55786,322.55469,0,316.35107z"/>
		<path fill="#818181" d="M334,262.96265v-13.39233C315.81543,286.12207,285.98242,315.8938,249.38525,334h13.44922
			C292.34863,317.01709,316.96338,292.44214,334,262.96265z"/>
		<path fill="#818181" d="M334,234.21143v-19.33472C317.44946,272.31836,272.00122,317.63916,214.48047,334h19.46631
			C279.34082,315.76001,315.64136,279.54541,334,234.21143z"/>
		<path fill="#818181" d="M334,36.8999V26.85425C325.84863,17.14722,316.86914,8.16016,307.16992,0h-10.03003
			C310.88477,10.74268,323.271,23.14404,334,36.8999z"/>
		<path fill="#818181" d="M0,249.50146v13.37891C17.03711,292.39648,41.66919,317.00122,71.2085,334h13.44092
			C48.02881,315.88232,18.1814,286.08496,0,249.50146z"/>
		<path fill="#818181" d="M167.0166,125.76172c-22.64746,0-41.07129,18.42383-41.07129,41.07129
			s18.42383,41.07227,41.07129,41.07227s41.07227-18.4248,41.07227-41.07227S189.66406,125.76172,167.0166,125.76172z
			 M167.0166,201.57617c-19.16602,0-34.75879-15.58594-34.75879-34.74316c0-19.15625,15.59277-34.74219,34.75879-34.74219
			c19.15723,0,34.74316,15.58594,34.74316,34.74219C201.75977,185.99023,186.17383,201.57617,167.0166,201.57617z"/>
		<path fill="#818181" d="M0,274.94385v11.19556C13.22583,304.60327,29.43066,320.79395,47.90967,334h11.21143
			C35.5061,318.70264,15.32446,298.54102,0,274.94385z"/>
		<path fill="#818181" d="M167.0166,113.13379c-29.61035,0-53.69922,24.08887-53.69922,53.69922
			c0,29.62012,24.08887,53.7168,53.69922,53.7168c29.62012,0,53.7168-24.09668,53.7168-53.7168
			C220.7334,137.22266,196.63672,113.13379,167.0166,113.13379z M167.0166,214.21973
			c-26.12793,0-47.38574-21.25781-47.38574-47.38672c0-26.12793,21.25781-47.38574,47.38574-47.38574
			c26.12891,0,47.38672,21.25781,47.38672,47.38574C214.40332,192.96191,193.14551,214.21973,167.0166,214.21973z"/>
		<path fill="#818181" d="M0,296.67773v10.03906C8.28271,316.59229,17.4209,325.7251,27.30273,334h10.06006
			C23.41602,323.15698,10.85693,310.61279,0,296.67773z"/>
		<path fill="#818181" d="M167,12.03223c-85.3584,0-154.80176,69.44336-154.80176,154.80078
			c0,85.3584,69.44336,154.80176,154.80176,154.80176s154.80176-69.44336,154.80176-154.80176
			C321.80176,81.47559,252.3584,12.03223,167,12.03223z M167,315.30566c-81.87695,0-148.48828-66.60449-148.48828-148.47266
			C18.51172,84.96582,85.12305,18.36133,167,18.36133c81.86816,0,148.47266,66.60449,148.47266,148.47168
			C315.47266,248.70117,248.86816,315.30566,167,315.30566z"/>
		<path fill="#818181" d="M334,118.78931V99.45508C315.75146,54.39307,279.77368,18.34448,234.7605,0h-19.15967
			C272.58936,16.62842,317.55762,61.72266,334,118.78931z"/>
		<path fill="#818181" d="M167.06738,49.94727c-64.45996,0-116.90234,52.43457-116.90234,116.88574
			c0,64.45215,52.44238,116.88672,116.90234,116.88672c64.45215,0,116.88672-52.43457,116.88672-116.88672
			C283.9541,102.38184,231.51953,49.94727,167.06738,49.94727z M167.05078,277.40723
			c-60.96094,0-110.55664-49.60352-110.55664-110.57422c0-60.96973,49.5957-110.57324,110.55664-110.57324
			c60.96973,0,110.57324,49.60352,110.57324,110.57324C277.62402,227.80371,228.02051,277.40723,167.05078,277.40723z"/>
		<path fill="#818181" d="M83.97998,0H70.64404C41.35669,16.98657,16.92773,41.45947,0,70.78638v13.37891
			C18.07056,47.80518,47.66528,18.14844,83.97998,0z"/>
		<path fill="#818181" d="M334,84.09644V70.7041C317.07275,41.41406,292.66113,16.9707,263.39893,0h-13.34448
			C286.34619,18.13721,315.92627,47.76782,334,84.09644z"/>
		<path fill="#818181" d="M167.05078,62.57422c-57.47949,0-104.24219,46.77051-104.24219,104.25879
			c0,57.48926,46.7627,104.25977,104.24219,104.25977c57.48828,0,104.25879-46.77051,104.25879-104.25977
			C271.30957,109.34473,224.53906,62.57422,167.05078,62.57422z M167.05078,264.7627
			c-53.99805,0-97.92969-43.93164-97.92969-97.92969s43.93164-97.92871,97.92969-97.92871s97.92871,43.93066,97.92871,97.92871
			S221.04883,264.7627,167.05078,264.7627z"/>
		<path fill="#818181" d="M17.28735,0H7.97729C5.25342,2.5979,2.59473,5.26343,0,7.99048v9.3252
			C5.44629,11.23682,11.2168,5.45532,17.28735,0z"/>
		<path fill="#818181" d="M167.06738,37.30371c-71.42383,0-129.53027,58.10645-129.53027,129.5293
			c0,71.42383,58.10645,129.53027,129.53027,129.53027s129.53027-58.10645,129.53027-129.53027
			C296.59766,95.41016,238.49121,37.30371,167.06738,37.30371z M167.06738,290.03418
			c-67.94141,0-123.2168-55.26758-123.2168-123.20117c0-67.93262,55.27539-123.2002,123.2168-123.2002
			c67.93359,0,123.20117,55.26758,123.20117,123.2002C290.26855,234.7666,235.00098,290.03418,167.06738,290.03418z"/>
		<path fill="#818181" d="M167.05078,75.21875c-50.5166,0-91.61523,41.09766-91.61523,91.61426s41.09863,91.61523,91.61523,91.61523
			s91.61426-41.09863,91.61426-91.61523S217.56738,75.21875,167.05078,75.21875z M167.0332,252.13574
			c-47.02539,0-85.28418-38.2666-85.28418-85.30273c0-47.03516,38.25879-85.30176,85.28418-85.30176
			c47.03613,0,85.30273,38.2666,85.30273,85.30176C252.33594,213.86914,214.06934,252.13574,167.0332,252.13574z"/>
		<path fill="#818181" d="M334,58.64893V47.43311C320.89648,29.16187,304.87207,13.12305,286.61523,0h-11.18701
			C298.80225,15.24072,318.79004,35.25317,334,58.64893z"/>
		<path fill="#818181" d="M58.61548,0H47.45312C29.16504,13.14551,13.11621,29.21631,0,47.52686v11.19556
			C15.2146,35.29492,35.21875,15.25684,58.61548,0z"/>
		<path fill="#818181" d="M167.0332,100.49023c-36.58203,0-66.34277,29.76074-66.34277,66.34277
			s29.76074,66.34375,66.34277,66.34375s66.34375-29.76172,66.34375-66.34375S203.61523,100.49023,167.0332,100.49023z
			 M167.0166,226.86426c-33.0918,0-60.01367-26.92969-60.01367-60.03125c0-33.0918,26.92188-60.01367,60.01367-60.01367
			c33.10156,0,60.03125,26.92188,60.03125,60.01367C227.04785,199.93457,200.11816,226.86426,167.0166,226.86426z"/>
		<path fill="#818181" d="M36.92847,0H26.90894C17.17847,8.18726,8.17212,17.20605,0,26.94995v10.03906
			C10.74487,23.19775,23.1543,10.76562,36.92847,0z"/>
		<path fill="#818181" d="M167,24.67578c-78.39551,0-142.17383,63.77148-142.17383,142.15723
			c0,78.38672,63.77832,142.1582,142.17383,142.1582c78.38672,0,142.1582-63.77148,142.1582-142.1582
			C309.1582,88.44727,245.38672,24.67578,167,24.67578z M167.06738,302.67773c-74.90527,0-135.84473-60.93945-135.84473-135.84473
			c0-74.9043,60.93945-135.84375,135.84473-135.84375s135.84473,60.93945,135.84473,135.84375
			C302.91211,241.73828,241.97266,302.67773,167.06738,302.67773z"/>
		<path fill="#818181" d="M334,17.22485V7.89453C331.43408,5.20068,328.80469,2.56787,326.11255,0h-9.32056
			C322.83301,5.42822,328.57715,11.17896,334,17.22485z"/>
		<path fill="#818181" d="M334,306.8125v-10.04565C323.15894,310.6665,310.6228,323.18018,296.70557,334h10.07056
			C316.62671,325.75171,325.73804,316.65137,334,306.8125z"/>
		<path fill="#818181" d="M167.0166,138.40527c-15.68457,0-28.44434,12.75195-28.44434,28.42773
			s12.75977,28.42871,28.44434,28.42871c15.67578,0,28.42871-12.75293,28.42871-28.42871S182.69238,138.40527,167.0166,138.40527z
			 M167,188.94824c-12.19434,0-22.11523-9.9209-22.11523-22.11523c0-12.19336,9.9209-22.11426,22.11523-22.11426
			s22.11523,9.9209,22.11523,22.11426C189.11523,179.02734,179.19434,188.94824,167,188.94824z"/>
		<path fill="#818181" d="M167,163.67676c-1.75,0-3.17285,1.41602-3.17285,3.15625c0,1.74121,1.42285,3.15723,3.17285,3.15723
			c1.74023,0,3.15625-1.41602,3.15625-3.15723C170.15625,165.09277,168.74023,163.67676,167,163.67676z"/>
		<path fill="#818181" d="M334,286.23315v-11.21582C318.68018,298.58252,298.51489,318.71851,274.92236,334h11.23633
			C304.6062,320.81641,320.78662,304.65771,334,286.23315z"/>
		<path fill="#818181" d="M334,325.77197v-9.33008c-5.53467,6.17041-11.40552,12.03174-17.5835,17.55811h9.33936
			C328.57129,331.32568,331.32178,328.58398,334,325.77197z"/>
		<path fill="#818181" d="M167,151.0332c-8.71289,0-15.80078,7.08789-15.80078,15.7998
			c0,8.71289,7.08789,15.80078,15.80078,15.80078s15.80078-7.08789,15.80078-15.80078
			C182.80078,158.12109,175.71289,151.0332,167,151.0332z M167,176.30469c-5.23145,0-9.4873-4.24902-9.4873-9.47168
			c0-5.22168,4.25586-9.4707,9.4873-9.4707c5.22168,0,9.4707,4.24902,9.4707,9.4707
			C176.4707,172.05566,172.22168,176.30469,167,176.30469z"/>
		<path fill="#818181" d="M0,214.82007v19.30786C18.3479,279.50098,54.66553,315.74878,100.08789,334h19.43652
			C61.99023,317.63379,16.53516,272.28857,0,214.82007z"/>
		<path fill="#7E7E7E" d="M167,157.3623c-5.23145,0-9.4873,4.24902-9.4873,9.4707c0,5.22266,4.25586,9.47168,9.4873,9.47168
			c5.22168,0,9.4707-4.24902,9.4707-9.47168C176.4707,161.61133,172.22168,157.3623,167,157.3623z M167,169.99023
			c-1.75,0-3.17285-1.41602-3.17285-3.15723c0-1.74023,1.42285-3.15625,3.17285-3.15625c1.74023,0,3.15625,1.41602,3.15625,3.15625
			C170.15625,168.57422,168.74023,169.99023,167,169.99023z"/>
		<path fill="#7E7E7E" d="M167,144.71875c-12.19434,0-22.11523,9.9209-22.11523,22.11426
			c0,12.19434,9.9209,22.11523,22.11523,22.11523s22.11523-9.9209,22.11523-22.11523
			C189.11523,154.63965,179.19434,144.71875,167,144.71875z M167,182.63379c-8.71289,0-15.80078-7.08789-15.80078-15.80078
			c0-8.71191,7.08789-15.7998,15.80078-15.7998s15.80078,7.08789,15.80078,15.7998
			C182.80078,175.5459,175.71289,182.63379,167,182.63379z"/>
		<path fill="#7E7E7E" d="M167.0166,132.09082c-19.16602,0-34.75879,15.58594-34.75879,34.74219
			c0,19.15723,15.59277,34.74316,34.75879,34.74316c19.15723,0,34.74316-15.58594,34.74316-34.74316
			C201.75977,147.67676,186.17383,132.09082,167.0166,132.09082z M167.0166,195.26172
			c-15.68457,0-28.44434-12.75293-28.44434-28.42871s12.75977-28.42773,28.44434-28.42773
			c15.67578,0,28.42871,12.75195,28.42871,28.42773S182.69238,195.26172,167.0166,195.26172z"/>
		<path fill="#7E7E7E" d="M167.0166,119.44727c-26.12793,0-47.38574,21.25781-47.38574,47.38574
			c0,26.12891,21.25781,47.38672,47.38574,47.38672c26.12891,0,47.38672-21.25781,47.38672-47.38672
			C214.40332,140.70508,193.14551,119.44727,167.0166,119.44727z M167.0166,207.90527
			c-22.64746,0-41.07129-18.4248-41.07129-41.07227s18.42383-41.07129,41.07129-41.07129s41.07227,18.42383,41.07227,41.07129
			S189.66406,207.90527,167.0166,207.90527z"/>
		<path fill="#7E7E7E" d="M167.0166,106.81934c-33.0918,0-60.01367,26.92188-60.01367,60.01367
			c0,33.10156,26.92188,60.03125,60.01367,60.03125c33.10156,0,60.03125-26.92969,60.03125-60.03125
			C227.04785,133.74121,200.11816,106.81934,167.0166,106.81934z M167.0166,220.5498
			c-29.61035,0-53.69922-24.09668-53.69922-53.7168c0-29.61035,24.08887-53.69922,53.69922-53.69922
			c29.62012,0,53.7168,24.08887,53.7168,53.69922C220.7334,196.45312,196.63672,220.5498,167.0166,220.5498z"/>
		<path fill="#7E7E7E" d="M167.0332,94.17578c-40.06348,0-72.65723,32.59375-72.65723,72.65723s32.59375,72.6582,72.65723,72.6582
			s72.6582-32.59473,72.6582-72.6582S207.09668,94.17578,167.0332,94.17578z M167.0332,233.17676
			c-36.58203,0-66.34277-29.76172-66.34277-66.34375s29.76074-66.34277,66.34277-66.34277s66.34375,29.76074,66.34375,66.34277
			S203.61523,233.17676,167.0332,233.17676z"/>
		<path fill="#7E7E7E" d="M167.0332,81.53125c-47.02539,0-85.28418,38.2666-85.28418,85.30176
			c0,47.03613,38.25879,85.30273,85.28418,85.30273c47.03613,0,85.30273-38.2666,85.30273-85.30273
			C252.33594,119.79785,214.06934,81.53125,167.0332,81.53125z M167.0332,245.82129
			c-43.54395,0-78.96973-35.43359-78.96973-78.98828c0-43.55371,35.42578-78.9873,78.96973-78.9873
			c43.55469,0,78.98828,35.43359,78.98828,78.9873C246.02148,210.3877,210.58789,245.82129,167.0332,245.82129z"/>
		<path fill="#7E7E7E" d="M167.05078,68.9043c-53.99805,0-97.92969,43.93066-97.92969,97.92871s43.93164,97.92969,97.92969,97.92969
			s97.92871-43.93164,97.92871-97.92969S221.04883,68.9043,167.05078,68.9043z M167.05078,258.44824
			c-50.5166,0-91.61523-41.09863-91.61523-91.61523s41.09863-91.61426,91.61523-91.61426s91.61426,41.09766,91.61426,91.61426
			S217.56738,258.44824,167.05078,258.44824z"/>
		<path fill="#7E7E7E" d="M167.05078,56.25977c-60.96094,0-110.55664,49.60352-110.55664,110.57324
			c0,60.9707,49.5957,110.57422,110.55664,110.57422c60.96973,0,110.57324-49.60352,110.57324-110.57422
			C277.62402,105.86328,228.02051,56.25977,167.05078,56.25977z M167.05078,271.09277
			c-57.47949,0-104.24219-46.77051-104.24219-104.25977c0-57.48828,46.7627-104.25879,104.24219-104.25879
			c57.48828,0,104.25879,46.77051,104.25879,104.25879C271.30957,224.32227,224.53906,271.09277,167.05078,271.09277z"/>
		<path fill="#7E7E7E" d="M167.06738,43.63281c-67.94141,0-123.2168,55.26758-123.2168,123.2002
			c0,67.93359,55.27539,123.20117,123.2168,123.20117c67.93359,0,123.20117-55.26758,123.20117-123.20117
			C290.26855,98.90039,235.00098,43.63281,167.06738,43.63281z M167.06738,283.71973
			c-64.45996,0-116.90234-52.43457-116.90234-116.88672c0-64.45117,52.44238-116.88574,116.90234-116.88574
			c64.45215,0,116.88672,52.43457,116.88672,116.88574C283.9541,231.28516,231.51953,283.71973,167.06738,283.71973z"/>
		<path fill="#7E7E7E" d="M167.06738,30.98926c-74.90527,0-135.84473,60.93945-135.84473,135.84375
			c0,74.90527,60.93945,135.84473,135.84473,135.84473s135.84473-60.93945,135.84473-135.84473
			C302.91211,91.92871,241.97266,30.98926,167.06738,30.98926z M167.06738,296.36328
			c-71.42383,0-129.53027-58.10645-129.53027-129.53027c0-71.42285,58.10645-129.5293,129.53027-129.5293
			s129.53027,58.10645,129.53027,129.5293C296.59766,238.25684,238.49121,296.36328,167.06738,296.36328z"/>
		<path fill="#7E7E7E" d="M167,18.36133c-81.87695,0-148.48828,66.60449-148.48828,148.47168
			c0,81.86816,66.61133,148.47266,148.48828,148.47266c81.86816,0,148.47266-66.60449,148.47266-148.47266
			C315.47266,84.96582,248.86816,18.36133,167,18.36133z M167,308.99121c-78.39551,0-142.17383-63.77148-142.17383-142.1582
			C24.82617,88.44727,88.60449,24.67578,167,24.67578c78.38672,0,142.1582,63.77148,142.1582,142.15723
			C309.1582,245.21973,245.38672,308.99121,167,308.99121z"/>
		<path fill="#7E7E7E" d="M167,5.71777c-88.83984,0-161.11621,72.27637-161.11621,161.11523
			c0,88.83984,72.27637,161.11621,161.11621,161.11621s161.11621-72.27637,161.11621-161.11621
			C328.11621,77.99414,255.83984,5.71777,167,5.71777z M167,321.63477c-85.3584,0-154.80176-69.44336-154.80176-154.80176
			C12.19824,81.47559,81.6416,12.03223,167,12.03223s154.80176,69.44336,154.80176,154.80078
			C321.80176,252.19141,252.3584,321.63477,167,321.63477z"/>
		<path fill="#7E7E7E" d="M334,214.87671v-35.85425C327.96289,262.53052,260.41675,329.25488,176.56299,334h37.91748
			C272.00122,317.63916,317.44946,272.31836,334,214.87671z"/>
		<path fill="#7E7E7E" d="M0,178.74707v36.073C16.53516,272.28857,61.99023,317.63379,119.52441,334h37.91382
			C73.50098,329.24951,5.90796,262.3833,0,178.74707z"/>
		<path fill="#7E7E7E" d="M152.75513,0h-34.35107C61.40234,16.63403,16.42725,61.75244,0,118.84595v36.073
			C5.79761,72.84424,70.99927,6.92236,152.75513,0z"/>
		<path fill="#7E7E7E" d="M334,154.64355v-35.85425C317.55762,61.72266,272.58936,16.62842,215.60083,0h-34.35425
			C262.91943,6.91479,328.07568,72.69629,334,154.64355z"/>
		<path fill="#7E7E7E" d="M334,249.57031v-15.35889C315.64136,279.54541,279.34082,315.76001,233.94678,334h15.43848
			C285.98242,315.8938,315.81543,286.12207,334,249.57031z"/>
		<path fill="#7E7E7E" d="M334,99.45508V84.09644C315.92627,47.76782,286.34619,18.13721,250.05444,0H234.7605
			C279.77368,18.34448,315.75146,54.39307,334,99.45508z"/>
		<path fill="#7E7E7E" d="M99.27417,0H83.97998C47.66528,18.14844,18.07056,47.80518,0,84.16528v15.37354
			C18.23804,54.4375,54.23267,18.35596,99.27417,0z"/>
		<path fill="#7E7E7E" d="M0,234.12793v15.37354C18.1814,286.08496,48.02881,315.88232,84.64941,334h15.43848
			C54.66553,315.74878,18.3479,279.50098,0,234.12793z"/>
		<path fill="#7E7E7E" d="M70.64404,0H58.61548C35.21875,15.25684,15.2146,35.29492,0,58.72241v12.06396
			C16.92773,41.45947,41.35669,16.98657,70.64404,0z"/>
		<path fill="#7E7E7E" d="M0,262.88037v12.06348C15.32446,298.54102,35.5061,318.70264,59.12109,334h12.0874
			C41.66919,317.00122,17.03711,292.39648,0,262.88037z"/>
		<path fill="#7E7E7E" d="M334,275.01733v-12.05469C316.96338,292.44214,292.34863,317.01709,262.83447,334h12.08789
			C298.51489,318.71851,318.68018,298.58252,334,275.01733z"/>
		<path fill="#7E7E7E" d="M334,70.7041V58.64893C318.79004,35.25317,298.80225,15.24072,275.42822,0h-12.0293
			C292.66113,16.9707,317.07275,41.41406,334,70.7041z"/>
		<path fill="#7E7E7E" d="M47.45312,0H36.92847C23.1543,10.76562,10.74487,23.19775,0,36.98901v10.53784
			C13.11621,29.21631,29.16504,13.14551,47.45312,0z"/>
		<path fill="#7E7E7E" d="M334,47.43311V36.8999C323.271,23.14404,310.88477,10.74268,297.13989,0h-10.52466
			C304.87207,13.12305,320.89648,29.16187,334,47.43311z"/>
		<path fill="#7E7E7E" d="M0,286.1394v10.53833C10.85693,310.61279,23.41602,323.15698,37.36279,334h10.54688
			C29.43066,320.79395,13.22583,304.60327,0,286.1394z"/>
		<path fill="#7E7E7E" d="M334,296.76685v-10.53369C320.78662,304.65771,304.6062,320.81641,286.15869,334h10.54688
			C310.6228,323.18018,323.15894,310.6665,334,296.76685z"/>
		<path fill="#7E7E7E" d="M26.90894,0h-9.62158C11.2168,5.45532,5.44629,11.23682,0,17.31567v9.63428
			C8.17212,17.20605,17.17847,8.18726,26.90894,0z"/>
		<path fill="#7E7E7E" d="M0,306.7168v9.63428C5.55786,322.55469,11.45508,328.44653,17.6626,334h9.64014
			C17.4209,325.7251,8.28271,316.59229,0,306.7168z"/>
		<path fill="#7E7E7E" d="M334,316.44189v-9.62939c-8.26196,9.83887-17.37329,18.93921-27.22388,27.1875h9.64038
			C322.59448,328.47363,328.46533,322.6123,334,316.44189z"/>
		<path fill="#7E7E7E" d="M334,26.85425v-9.62939C328.57715,11.17896,322.83301,5.42822,316.79199,0h-9.62207
			C316.86914,8.16016,325.84863,17.14722,334,26.85425z"/>
		<path fill="#7E7E7E" d="M0,325.67603V334h8.33398C5.48682,331.29565,2.70679,328.521,0,325.67603z"/>
		<path fill="#7E7E7E" d="M334,325.77197c-2.67822,2.81201-5.42871,5.55371-8.24414,8.22803H334V325.77197z"/>
		<path fill="#7E7E7E" d="M334,7.89453V0h-7.88745C328.80469,2.56787,331.43408,5.20068,334,7.89453z"/>
		<path fill="#7E7E7E" d="M7.97729,0H0v7.99048C2.59473,5.26343,5.25342,2.5979,7.97729,0z"/>
	</g>
</g>
<g id="Layer_3" display="none">
</g>
<g id="Layer_2" display="none">
</g>
</svg>
