<?xml version="1.0" encoding="utf-8"?>
<!-- Generator: Adobe Illustrator 21.1.0, SVG Export Plug-In . SVG Version: 6.00 Build 0)  -->
<svg version="1.2" baseProfile="tiny" xmlns="http://www.w3.org/2000/svg" xmlns:xlink="http://www.w3.org/1999/xlink" x="0px"
	 y="0px" viewBox="0 0 334 334" xml:space="preserve">
<g id="Layer_1">
	<g>
		<path fill="#ADADAD" d="M37.31934,0H16.11963C10.48254,5.0813,5.099,10.43823,0,16.05896v21.11511
			C10.8465,23.28857,23.39288,10.79578,37.31934,0z"/>
		<path fill="#ADADAD" d="M166.33154,23.89844c-78.80518,0-142.91797,64.12012-142.91797,142.93457
			s64.11279,142.93457,142.91797,142.93457c78.81445,0,142.93408-64.12012,142.93408-142.93457S245.146,23.89844,166.33154,23.89844
			z M166.33154,296.15527c-71.30859,0-129.32227-58.01367-129.32227-129.32227c0-71.30811,58.01367-129.32178,129.32227-129.32178
			c71.30811,0,129.32178,58.01367,129.32178,129.32178C295.65332,238.1416,237.63965,296.15527,166.33154,296.15527z"/>
		<path fill="#ADADAD" d="M334,195.88672v-58.10754C322.06421,68.69287,268.33228,13.74146,199.87341,0h-67.08044
			C66.60071,13.28772,14.18079,65.11035,0,130.98511v71.6958C14.30475,269.13135,67.52216,321.27783,134.53381,334h63.59863
			C267.41895,320.84717,321.96332,265.55701,334,195.88672z M166.33154,323.38086
			c-86.31152,0-156.53125-70.22705-156.53125-156.54785S80.02002,10.28516,166.33154,10.28516
			c86.32031,0,156.54736,70.22705,156.54736,156.54785S252.65186,323.38086,166.33154,323.38086z"/>
		<path fill="#ADADAD" d="M166.33154,105.57568c-33.77734,0-61.25732,27.47998-61.25732,61.25732
			s27.47998,61.25732,61.25732,61.25732s61.25732-27.47998,61.25732-61.25732S200.10889,105.57568,166.33154,105.57568z
			 M166.33154,214.47803c-26.27148,0-47.64502-21.37354-47.64502-47.64502s21.37354-47.64502,47.64502-47.64502
			s47.64502,21.37354,47.64502,47.64502S192.60303,214.47803,166.33154,214.47803z"/>
		<path fill="#ADADAD" d="M166.33154,78.3501c-48.79004,0-88.4834,39.69336-88.4834,88.48291s39.69336,88.48291,88.4834,88.48291
			c48.78955,0,88.48291-39.69336,88.48291-88.48291S215.12109,78.3501,166.33154,78.3501z M166.33154,241.70361
			c-41.28369,0-74.87061-33.58691-74.87061-74.87061s33.58691-74.87061,74.87061-74.87061s74.87061,33.58691,74.87061,74.87061
			S207.61523,241.70361,166.33154,241.70361z"/>
		<path fill="#ADADAD" d="M166.33154,51.12451c-63.80225,0-115.70898,51.90625-115.70898,115.7085
			s51.90674,115.70898,115.70898,115.70898s115.7085-51.90674,115.7085-115.70898S230.13379,51.12451,166.33154,51.12451z
			 M166.33154,268.9292c-56.29639,0-102.09668-45.80029-102.09668-102.09619S110.03516,64.73682,166.33154,64.73682
			c56.2959,0,102.09619,45.80029,102.09619,102.09619S222.62744,268.9292,166.33154,268.9292z"/>
		<path fill="#ADADAD" d="M334,270.86877v-28.82825C315.71417,282.64661,283.09753,315.45691,242.63202,334h28.53778
			C296.5899,318.00061,318.11914,296.37036,334,270.86877z"/>
		<path fill="#ADADAD" d="M89.3222,0H60.96796C36.48438,15.52026,15.62958,36.27173,0,60.68042v28.09692
			C18.39648,49.72583,50.14233,18.16113,89.3222,0z"/>
		<path fill="#ADADAD" d="M334,38.89966V17.55151C328.50732,11.38892,322.68604,5.52661,316.55444,0h-21.2005
			C309.85437,11.23987,322.85242,24.32471,334,38.89966z"/>
		<path fill="#ADADAD" d="M166.33154,132.80127c-18.76514,0-34.03174,15.2666-34.03174,34.03174s15.2666,34.03174,34.03174,34.03174
			s34.03174-15.2666,34.03174-34.03174S185.09668,132.80127,166.33154,132.80127z M166.33154,187.25244
			c-11.25928,0-20.41943-9.16016-20.41943-20.41943s9.16016-20.41943,20.41943-20.41943s20.41943,9.16016,20.41943,20.41943
			S177.59082,187.25244,166.33154,187.25244z"/>
		<circle fill="#ADADAD" cx="166.33154" cy="166.83301" r="6.80615"/>
		<path fill="#ADADAD" d="M0,296.49219v21.11487c5.21167,5.745,10.72272,11.21204,16.49603,16.39294h21.25818
			C23.65442,323.12793,10.95898,310.52173,0,296.49219z"/>
		<path fill="#ADADAD" d="M334,91.62512V62.79749C318.23016,37.47424,296.8924,15.9657,271.7041,0h-28.3559
			C283.48132,18.60132,315.82251,51.2594,334,91.62512z"/>
		<path fill="#ADADAD" d="M0,244.88843v28.09741C15.7428,297.57117,36.78833,318.44385,61.5022,334h28.53607
			C50.52814,315.89307,18.50873,284.17798,0,244.88843z"/>
		<path fill="#ADADAD" d="M334,316.1145v-21.3479c-11.25861,14.72009-24.40601,27.9187-39.08099,39.2334h21.25903
			C322.44684,328.375,328.39569,322.40222,334,316.1145z"/>
		<path fill="#525252" d="M166.33154,146.41357c-11.25928,0-20.41943,9.16016-20.41943,20.41943s9.16016,20.41943,20.41943,20.41943
			s20.41943-9.16016,20.41943-20.41943S177.59082,146.41357,166.33154,146.41357z M166.33154,173.63916
			c-3.75293,0-6.80615-3.05322-6.80615-6.80615s3.05322-6.80615,6.80615-6.80615s6.80615,3.05322,6.80615,6.80615
			S170.08447,173.63916,166.33154,173.63916z"/>
		<path fill="#525252" d="M166.33154,119.18799c-26.27148,0-47.64502,21.37354-47.64502,47.64502
			s21.37354,47.64502,47.64502,47.64502s47.64502-21.37354,47.64502-47.64502S192.60303,119.18799,166.33154,119.18799z
			 M166.33154,200.86475c-18.76514,0-34.03174-15.2666-34.03174-34.03174s15.2666-34.03174,34.03174-34.03174
			s34.03174,15.2666,34.03174,34.03174S185.09668,200.86475,166.33154,200.86475z"/>
		<path fill="#525252" d="M166.33154,91.9624c-41.28369,0-74.87061,33.58691-74.87061,74.87061s33.58691,74.87061,74.87061,74.87061
			s74.87061-33.58691,74.87061-74.87061S207.61523,91.9624,166.33154,91.9624z M166.33154,228.09033
			c-33.77734,0-61.25732-27.47998-61.25732-61.25732s27.47998-61.25732,61.25732-61.25732s61.25732,27.47998,61.25732,61.25732
			S200.10889,228.09033,166.33154,228.09033z"/>
		<path fill="#525252" d="M166.33154,64.73682c-56.29639,0-102.09668,45.80029-102.09668,102.09619
			S110.03516,268.9292,166.33154,268.9292c56.2959,0,102.09619-45.80029,102.09619-102.09619S222.62744,64.73682,166.33154,64.73682
			z M166.33154,255.31592c-48.79004,0-88.4834-39.69336-88.4834-88.48291s39.69336-88.48291,88.4834-88.48291
			c48.78955,0,88.48291,39.69336,88.48291,88.48291S215.12109,255.31592,166.33154,255.31592z"/>
		<path fill="#525252" d="M166.33154,37.51123c-71.30859,0-129.32227,58.01367-129.32227,129.32178
			c0,71.30859,58.01367,129.32227,129.32227,129.32227c71.30811,0,129.32178-58.01367,129.32178-129.32227
			C295.65332,95.5249,237.63965,37.51123,166.33154,37.51123z M166.33154,282.54199
			c-63.80225,0-115.70898-51.90674-115.70898-115.70898s51.90674-115.7085,115.70898-115.7085s115.7085,51.90625,115.7085,115.7085
			S230.13379,282.54199,166.33154,282.54199z"/>
		<path fill="#525252" d="M166.33154,10.28516c-86.31152,0-156.53125,70.22705-156.53125,156.54785
			s70.21973,156.54785,156.53125,156.54785c86.32031,0,156.54736-70.22705,156.54736-156.54785
			S252.65186,10.28516,166.33154,10.28516z M166.33154,309.76758c-78.80518,0-142.91797-64.12012-142.91797-142.93457
			S87.52637,23.89844,166.33154,23.89844c78.81445,0,142.93408,64.12012,142.93408,142.93457S245.146,309.76758,166.33154,309.76758
			z"/>
		<path fill="#525252" d="M0,202.68091v42.20752C18.50873,284.17798,50.52814,315.89307,90.03827,334h44.49554
			C67.52216,321.27783,14.30475,269.13135,0,202.68091z"/>
		<path fill="#525252" d="M334,137.77917V91.62512C315.82251,51.2594,283.48132,18.60132,243.34821,0h-43.47479
			C268.33228,13.74146,322.06421,68.69287,334,137.77917z"/>
		<path fill="#525252" d="M334,242.04053v-46.15381C321.96332,265.55701,267.41895,320.84717,198.13245,334h44.49957
			C283.09753,315.45691,315.71417,282.64661,334,242.04053z"/>
		<path fill="#525252" d="M132.79297,0H89.3222C50.14233,18.16113,18.39648,49.72583,0,88.77734v42.20776
			C14.18079,65.11035,66.60071,13.28772,132.79297,0z"/>
		<path fill="#525252" d="M334,294.7666v-23.89783C318.11914,296.37036,296.5899,318.00061,271.1698,334h23.74921
			C309.59399,322.6853,322.74139,309.48669,334,294.7666z"/>
		<path fill="#525252" d="M334,62.79749V38.89966C322.85242,24.32471,309.85437,11.23987,295.35394,0H271.7041
			C296.8924,15.9657,318.23016,37.47424,334,62.79749z"/>
		<path fill="#525252" d="M60.96796,0H37.31934C23.39288,10.79578,10.8465,23.28857,0,37.17407v23.50635
			C15.62958,36.27173,36.48438,15.52026,60.96796,0z"/>
		<path fill="#525252" d="M0,272.98584v23.50635C10.95898,310.52173,23.65442,323.12793,37.75421,334H61.5022
			C36.78833,318.44385,15.7428,297.57117,0,272.98584z"/>
		<path fill="#525252" d="M334,316.1145c-5.60431,6.28772-11.55316,12.2605-17.82196,17.8855H334V316.1145z"/>
		<path fill="#525252" d="M334,17.55151V0h-17.44556C322.68604,5.52661,328.50732,11.38892,334,17.55151z"/>
		<path fill="#525252" d="M16.11963,0H0v16.05896C5.099,10.43823,10.48254,5.0813,16.11963,0z"/>
		<path fill="#525252" d="M0,317.60706V334h16.49603C10.72272,328.81909,5.21167,323.35205,0,317.60706z"/>
	</g>
</g>
<g id="Layer_3" display="none">
</g>
<g id="Layer_2" display="none">
</g>
</svg>
