<?xml version="1.0" encoding="utf-8"?>
<!-- Generator: Adobe Illustrator 21.1.0, SVG Export Plug-In . SVG Version: 6.00 Build 0)  -->
<svg version="1.2" baseProfile="tiny" xmlns="http://www.w3.org/2000/svg" xmlns:xlink="http://www.w3.org/1999/xlink" x="0px"
	 y="0px" viewBox="0 0 334 334" xml:space="preserve">
<g id="Layer_1">
	<g>
		<path fill="#838383" d="M334,305.24475v-17.17786c-12.81201,17.62646-28.35059,33.1449-45.99536,45.93311h17.20923
			C315.68359,325.33594,325.32349,315.70386,334,305.24475z"/>
		<path fill="#838383" d="M0,244.30676v22.60791C16.30225,294.30542,39.11426,317.38818,66.29834,334H88.3623
			C49.45068,315.39111,18.0415,283.5354,0,244.30676z"/>
		<path fill="#838383" d="M167.66797,141.15137c-14.52832,0-26.34863,11.82031-26.34863,26.34961
			c0,14.52832,11.82031,26.34863,26.34863,26.34863c14.5293,0,26.34961-11.82031,26.34961-26.34863
			C194.01758,152.97168,182.19727,141.15137,167.66797,141.15137z M167.66797,183.30957
			c-8.7168,0-15.80859-7.0918-15.80859-15.80859c0-8.71777,7.0918-15.80957,15.80859-15.80957
			c8.71777,0,15.80957,7.0918,15.80957,15.80957C183.47754,176.21777,176.38574,183.30957,167.66797,183.30957z"/>
		<path fill="#838383" d="M48.7041,0H31.35596C19.86499,9.3689,9.35498,19.8938,0,31.39636v17.37805
			C13.38843,29.92212,29.87158,13.41431,48.7041,0z"/>
		<path fill="#838383" d="M167.66797,120.07227c-26.15137,0-47.42773,21.27637-47.42773,47.42871
			c0,26.15137,21.27637,47.42773,47.42773,47.42773s47.42773-21.27637,47.42773-47.42773
			C215.0957,141.34863,193.81934,120.07227,167.66797,120.07227z M167.66797,204.38867
			c-20.33984,0-36.8877-16.54785-36.8877-36.8877c0-20.34082,16.54785-36.88867,36.8877-36.88867
			c20.34082,0,36.88867,16.54785,36.88867,36.88867C204.55664,187.84082,188.00879,204.38867,167.66797,204.38867z"/>
		<path fill="#838383" d="M90.50439,0H67.97168C40.05249,16.68054,16.63477,40.1377,0,68.08716v22.60791
			C18.37109,50.75,50.60498,18.45422,90.50439,0z"/>
		<path fill="#838383" d="M0,286.22729v17.37817C9.02075,314.69702,19.10962,324.88635,30.12231,334h17.20923
			C29.07324,320.76697,13.0603,304.61768,0,286.22729z"/>
		<path fill="#838383" d="M167.66797,98.99414c-37.77441,0-68.50684,30.73242-68.50684,68.50684
			s30.73242,68.50684,68.50684,68.50684s68.50684-30.73242,68.50684-68.50684S205.44238,98.99414,167.66797,98.99414z
			 M167.66797,225.46777c-31.96289,0-57.9668-26.00391-57.9668-57.9668c0-31.96387,26.00391-57.96777,57.9668-57.96777
			s57.9668,26.00391,57.9668,57.96777C225.63477,199.46387,199.63086,225.46777,167.66797,225.46777z"/>
		<path fill="#838383" d="M0,319.77539V334h14.1377C9.22266,329.46436,4.49878,324.72461,0,319.77539z"/>
		<circle fill="#838383" cx="167.66821" cy="167.50073" r="5.27002"/>
		<path fill="#838383" d="M334,269.13904v-21.97375C315.76538,285.08398,284.93726,315.8446,246.97363,334h22.06421
			C295.48389,317.83911,317.79736,295.55688,334,269.13904z"/>
		<path fill="#838383" d="M334,218.28088V116.72095C316.73291,60.2738,271.46313,15.94434,214.45654,0h-93.57715
			C62.33057,16.37573,16.16553,62.69458,0,121.32996V213.672C15.84863,271.15747,60.53296,316.80078,117.45117,334h100.43359
			C273.27393,317.26282,317.08057,273.59106,334,218.28088z M167.66699,330.8623c-90.07812,0-163.36133-73.2832-163.36133-163.36133
			S77.58887,4.13867,167.66699,4.13867s163.3623,73.28418,163.3623,163.3623S257.74512,330.8623,167.66699,330.8623z"/>
		<path fill="#838383" d="M321.19873,334H334v-12.78894C329.90308,325.64111,325.63306,329.90771,321.19873,334z"/>
		<path fill="#838383" d="M167.66699,14.67773c-84.2666,0-152.82227,68.55664-152.82227,152.82324
			s68.55566,152.82227,152.82227,152.82227s152.82324-68.55566,152.82324-152.82227S251.93359,14.67773,167.66699,14.67773z
			 M167.66797,309.78418c-78.45508,0-142.2832-63.82812-142.2832-142.2832s63.82812-142.2832,142.2832-142.2832
			s142.2832,63.82812,142.2832,142.2832S246.12305,309.78418,167.66797,309.78418z"/>
		<path fill="#838383" d="M167.66797,56.83594c-61.02051,0-110.66504,49.64453-110.66504,110.66504
			s49.64453,110.66504,110.66504,110.66504s110.66504-49.64453,110.66504-110.66504S228.68848,56.83594,167.66797,56.83594z
			 M167.66797,267.62598c-55.20898,0-100.125-44.91602-100.125-100.125s44.91602-100.125,100.125-100.125
			s100.125,44.91602,100.125,100.125S222.87695,267.62598,167.66797,267.62598z"/>
		<path fill="#838383" d="M167.66797,77.91504c-49.39746,0-89.58594,40.18848-89.58594,89.58594
			s40.18848,89.58594,89.58594,89.58594s89.58594-40.18848,89.58594-89.58594S217.06543,77.91504,167.66797,77.91504z
			 M167.66797,246.54688c-43.58594,0-79.0459-35.45996-79.0459-79.0459s35.45996-79.0459,79.0459-79.0459
			s79.0459,35.45996,79.0459,79.0459S211.25391,246.54688,167.66797,246.54688z"/>
		<path fill="#838383" d="M167.66797,35.75684c-72.64355,0-131.74414,59.10059-131.74414,131.74414
			s59.10059,131.74414,131.74414,131.74414s131.74414-59.10059,131.74414-131.74414S240.31152,35.75684,167.66797,35.75684z
			 M167.66797,288.70508c-66.83203,0-121.2041-54.37207-121.2041-121.2041s54.37207-121.2041,121.2041-121.2041
			s121.2041,54.37207,121.2041,121.2041S234.5,288.70508,167.66797,288.70508z"/>
		<path fill="#838383" d="M15.21387,0H0v15.22632C4.82861,9.91455,9.90723,4.83423,15.21387,0z"/>
		<path fill="#838383" d="M334,46.93481V29.75708C324.98535,18.89038,314.9248,8.92334,303.98047,0h-17.34814
			C304.84741,12.97449,320.85498,28.85034,334,46.93481z"/>
		<path fill="#838383" d="M334,13.79065V0h-13.87744C324.9458,4.3938,329.57031,9.00073,334,13.79065z"/>
		<path fill="#838383" d="M334,87.83643V65.86279C317.45752,38.89087,294.54102,16.23682,267.36475,0h-22.53296
			C283.77637,18.01245,315.42407,49.20801,334,87.83643z"/>
		<path fill="#7C7C7C" d="M167.66797,151.69141c-8.7168,0-15.80859,7.0918-15.80859,15.80957
			c0,8.7168,7.0918,15.80859,15.80859,15.80859c8.71777,0,15.80957-7.0918,15.80957-15.80859
			C183.47754,158.7832,176.38574,151.69141,167.66797,151.69141z M167.66797,172.77051c-2.90527,0-5.26953-2.36426-5.26953-5.26953
			c0-2.90625,2.36426-5.27051,5.26953-5.27051c2.90625,0,5.27051,2.36426,5.27051,5.27051
			C172.93848,170.40625,170.57422,172.77051,167.66797,172.77051z"/>
		<path fill="#7C7C7C" d="M167.66797,130.6123c-20.33984,0-36.8877,16.54785-36.8877,36.88867
			c0,20.33984,16.54785,36.8877,36.8877,36.8877c20.34082,0,36.88867-16.54785,36.88867-36.8877
			C204.55664,147.16016,188.00879,130.6123,167.66797,130.6123z M167.66797,193.84961
			c-14.52832,0-26.34863-11.82031-26.34863-26.34863c0-14.5293,11.82031-26.34961,26.34863-26.34961
			c14.5293,0,26.34961,11.82031,26.34961,26.34961C194.01758,182.0293,182.19727,193.84961,167.66797,193.84961z"/>
		<path fill="#7C7C7C" d="M167.66797,109.5332c-31.96289,0-57.9668,26.00391-57.9668,57.96777
			c0,31.96289,26.00391,57.9668,57.9668,57.9668s57.9668-26.00391,57.9668-57.9668
			C225.63477,135.53711,199.63086,109.5332,167.66797,109.5332z M167.66797,214.92871
			c-26.15137,0-47.42773-21.27637-47.42773-47.42773c0-26.15234,21.27637-47.42871,47.42773-47.42871
			s47.42773,21.27637,47.42773,47.42871C215.0957,193.65234,193.81934,214.92871,167.66797,214.92871z"/>
		<path fill="#7C7C7C" d="M167.66797,88.45508c-43.58594,0-79.0459,35.45996-79.0459,79.0459s35.45996,79.0459,79.0459,79.0459
			s79.0459-35.45996,79.0459-79.0459S211.25391,88.45508,167.66797,88.45508z M167.66797,236.00781
			c-37.77441,0-68.50684-30.73242-68.50684-68.50684s30.73242-68.50684,68.50684-68.50684s68.50684,30.73242,68.50684,68.50684
			S205.44238,236.00781,167.66797,236.00781z"/>
		<path fill="#7C7C7C" d="M167.66797,67.37598c-55.20898,0-100.125,44.91602-100.125,100.125s44.91602,100.125,100.125,100.125
			s100.125-44.91602,100.125-100.125S222.87695,67.37598,167.66797,67.37598z M167.66797,257.08691
			c-49.39746,0-89.58594-40.18848-89.58594-89.58594s40.18848-89.58594,89.58594-89.58594s89.58594,40.18848,89.58594,89.58594
			S217.06543,257.08691,167.66797,257.08691z"/>
		<path fill="#7C7C7C" d="M167.66797,46.29688c-66.83203,0-121.2041,54.37207-121.2041,121.2041
			s54.37207,121.2041,121.2041,121.2041s121.2041-54.37207,121.2041-121.2041S234.5,46.29688,167.66797,46.29688z
			 M167.66797,278.16602c-61.02051,0-110.66504-49.64453-110.66504-110.66504S106.64746,56.83594,167.66797,56.83594
			s110.66504,49.64453,110.66504,110.66504S228.68848,278.16602,167.66797,278.16602z"/>
		<path fill="#7C7C7C" d="M167.66797,25.21777c-78.45508,0-142.2832,63.82812-142.2832,142.2832
			s63.82812,142.2832,142.2832,142.2832s142.2832-63.82812,142.2832-142.2832S246.12305,25.21777,167.66797,25.21777z
			 M167.66797,299.24512c-72.64355,0-131.74414-59.10059-131.74414-131.74414S95.02441,35.75684,167.66797,35.75684
			s131.74414,59.10059,131.74414,131.74414S240.31152,299.24512,167.66797,299.24512z"/>
		<path fill="#7C7C7C" d="M167.66699,4.13867c-90.07812,0-163.36133,73.28418-163.36133,163.3623
			S77.58887,330.8623,167.66699,330.8623s163.3623-73.2832,163.3623-163.36133S257.74512,4.13867,167.66699,4.13867z
			 M167.66699,320.32324c-84.2666,0-152.82227-68.55566-152.82227-152.82227S83.40039,14.67773,167.66699,14.67773
			s152.82324,68.55664,152.82324,152.82324S251.93359,320.32324,167.66699,320.32324z"/>
		<path fill="#7C7C7C" d="M0,213.672v30.63477C18.0415,283.5354,49.45068,315.39111,88.3623,334h29.08887
			C60.53296,316.80078,15.84863,271.15747,0,213.672z"/>
		<path fill="#7C7C7C" d="M334,247.16528v-28.8844C317.08057,273.59106,273.27393,317.26282,217.88477,334h29.08887
			C284.93726,315.8446,315.76538,285.08398,334,247.16528z"/>
		<path fill="#7C7C7C" d="M334,116.72095V87.83643C315.42407,49.20801,283.77637,18.01245,244.83179,0h-30.37524
			C271.46313,15.94434,316.73291,60.2738,334,116.72095z"/>
		<path fill="#7C7C7C" d="M120.87939,0h-30.375C50.60498,18.45422,18.37109,50.75,0,90.69507v30.63489
			C16.16553,62.69458,62.33057,16.37573,120.87939,0z"/>
		<path fill="#7C7C7C" d="M67.97168,0H48.7041C29.87158,13.41431,13.38843,29.92212,0,48.77441v19.31274
			C16.63477,40.1377,40.05249,16.68054,67.97168,0z"/>
		<path fill="#7C7C7C" d="M334,288.06689v-18.92786C317.79736,295.55688,295.48389,317.83911,269.03784,334h18.9668
			C305.64941,321.21179,321.18799,305.69336,334,288.06689z"/>
		<path fill="#7C7C7C" d="M0,266.91467v19.31262C13.0603,304.61768,29.07324,320.76697,47.33154,334h18.9668
			C39.11426,317.38818,16.30225,294.30542,0,266.91467z"/>
		<path fill="#7C7C7C" d="M334,65.86279V46.93481C320.85498,28.85034,304.84741,12.97449,286.63232,0h-19.26758
			C294.54102,16.23682,317.45752,38.89087,334,65.86279z"/>
		<path fill="#7C7C7C" d="M334,321.21106v-15.96631c-8.67651,10.45911-18.31641,20.09119-28.78613,28.75525h15.98486
			C325.63306,329.90771,329.90308,325.64111,334,321.21106z"/>
		<path fill="#7C7C7C" d="M31.35596,0H15.21387C9.90723,4.83423,4.82861,9.91455,0,15.22632v16.17004
			C9.35498,19.8938,19.86499,9.3689,31.35596,0z"/>
		<path fill="#7C7C7C" d="M334,29.75708V13.79065C329.57031,9.00073,324.9458,4.3938,320.12256,0h-16.14209
			C314.9248,8.92334,324.98535,18.89038,334,29.75708z"/>
		<path fill="#7C7C7C" d="M0,303.60547v16.16992C4.49878,324.72461,9.22266,329.46436,14.1377,334h15.98462
			C19.10962,324.88635,9.02075,314.69702,0,303.60547z"/>
	</g>
</g>
<g id="Layer_3" display="none">
</g>
<g id="Layer_2" display="none">
</g>
</svg>
