<?xml version="1.0" encoding="utf-8"?>
<!-- Generator: Adobe Illustrator 21.1.0, SVG Export Plug-In . SVG Version: 6.00 Build 0)  -->
<svg version="1.2" baseProfile="tiny" xmlns="http://www.w3.org/2000/svg" xmlns:xlink="http://www.w3.org/1999/xlink" x="0px"
	 y="0px" viewBox="0 0 334 334" xml:space="preserve">
<g id="Layer_1">
	<g>
		<path fill="#838383" d="M167.66895,23.89844c-78.80566,0-142.91797,64.12012-142.91797,142.93457
			s64.1123,142.93457,142.91797,142.93457c78.81445,0,142.93457-64.12012,142.93457-142.93457S246.4834,23.89844,167.66895,23.89844
			z M167.66895,296.15527c-71.30859,0-129.32227-58.01367-129.32227-129.32227c0-71.30811,58.01367-129.32178,129.32227-129.32178
			S296.99121,95.5249,296.99121,166.83301C296.99121,238.1416,238.97754,296.15527,167.66895,296.15527z"/>
		<path fill="#838383" d="M167.66895,78.3501c-48.79004,0-88.4834,39.69336-88.4834,88.48291s39.69336,88.48291,88.4834,88.48291
			s88.4834-39.69336,88.4834-88.48291S216.45898,78.3501,167.66895,78.3501z M167.66797,241.70361
			c-41.2832,0-74.87012-33.58691-74.87012-74.87061s33.58691-74.87061,74.87012-74.87061
			c41.28418,0,74.87109,33.58691,74.87109,74.87061S208.95215,241.70361,167.66797,241.70361z"/>
		<path fill="#838383" d="M167.66797,105.57568c-33.77734,0-61.25684,27.47998-61.25684,61.25732
			s27.47949,61.25732,61.25684,61.25732s61.25781-27.47998,61.25781-61.25732S201.44531,105.57568,167.66797,105.57568z
			 M167.66797,214.47803c-26.27148,0-47.64453-21.37354-47.64453-47.64502s21.37305-47.64502,47.64453-47.64502
			s47.64551,21.37354,47.64551,47.64502S193.93945,214.47803,167.66797,214.47803z"/>
		<path fill="#838383" d="M334,88.74512V60.65723C318.37061,36.25854,297.51929,15.51538,273.04126,0h-28.35669
			C283.85742,18.15613,315.59961,49.70837,334,88.74512z"/>
		<path fill="#838383" d="M0,294.74915v21.35132C5.60742,322.39331,11.56006,328.37073,17.83301,334h21.2583
			C24.41162,322.68091,11.26074,309.47632,0,294.74915z"/>
		<path fill="#838383" d="M334,37.15625V16.04492C328.9043,10.4292,323.52441,5.07703,317.8916,0h-21.20044
			C310.61279,10.79126,323.15576,23.27783,334,37.15625z"/>
		<path fill="#838383" d="M90.65869,0H62.30493C37.11108,15.97046,15.76978,37.4873,0,62.82056v28.83826
			C18.1731,51.27759,50.51807,18.60645,90.65869,0z"/>
		<path fill="#838383" d="M334,202.75513v-71.84424C319.79443,65.07153,267.38403,13.28271,201.20996,0h-67.08057
			C65.64575,13.74768,11.90161,68.74365,0,137.87476v57.9165C12.0022,265.50635,66.55884,320.84119,135.87012,334h63.59888
			C266.4624,321.28247,319.67017,269.17017,334,202.75513z M167.66895,323.38086
			c-86.31152,0-156.53125-70.22705-156.53125-156.54785S81.35742,10.28516,167.66895,10.28516
			c86.32031,0,156.54785,70.22705,156.54785,156.54785S253.98926,323.38086,167.66895,323.38086z"/>
		<path fill="#838383" d="M0,242.00684v28.83887C15.88086,296.35718,37.41357,317.99585,62.83911,334h28.5354
			C50.90161,315.45178,18.28125,282.62842,0,242.00684z"/>
		<path fill="#838383" d="M38.65625,0H17.45654C11.32104,5.53076,5.49585,11.39795,0,17.56555v21.35144
			C11.14966,24.33521,24.15137,11.24438,38.65625,0z"/>
		<circle fill="#838383" cx="167.66821" cy="166.83301" r="6.80615"/>
		<path fill="#838383" d="M167.66797,132.80127c-18.76465,0-34.03125,15.2666-34.03125,34.03174s15.2666,34.03174,34.03125,34.03174
			c18.76562,0,34.03223-15.2666,34.03223-34.03174S186.43359,132.80127,167.66797,132.80127z M167.66797,187.25244
			c-11.25879,0-20.41895-9.16016-20.41895-20.41943s9.16016-20.41943,20.41895-20.41943
			c11.25977,0,20.41992,9.16016,20.41992,20.41943S178.92773,187.25244,167.66797,187.25244z"/>
		<path fill="#838383" d="M167.66895,51.12451c-63.80273,0-115.70898,51.90625-115.70898,115.7085
			s51.90625,115.70898,115.70898,115.70898s115.70898-51.90674,115.70898-115.70898S231.47168,51.12451,167.66895,51.12451z
			 M167.66895,268.9292c-56.2959,0-102.09668-45.80029-102.09668-102.09619S111.37305,64.73682,167.66895,64.73682
			s102.09668,45.80029,102.09668,102.09619S223.96484,268.9292,167.66895,268.9292z"/>
		<path fill="#838383" d="M334,317.62109v-21.11108C323.04321,310.53247,310.35132,323.13257,296.25635,334h21.25879
			C323.28418,328.82336,328.7915,323.36108,334,317.62109z"/>
		<path fill="#838383" d="M334,273.00903v-28.0885C315.4873,284.19531,283.47144,315.89795,243.96851,334h28.53833
			C297.21533,318.44873,318.25757,297.58447,334,273.00903z"/>
		<path fill="#7C7C7C" d="M167.66797,146.41357c-11.25879,0-20.41895,9.16016-20.41895,20.41943s9.16016,20.41943,20.41895,20.41943
			c11.25977,0,20.41992-9.16016,20.41992-20.41943S178.92773,146.41357,167.66797,146.41357z M167.66797,173.63916
			c-3.75293,0-6.80566-3.05322-6.80566-6.80615s3.05273-6.80615,6.80566-6.80615s6.80664,3.05322,6.80664,6.80615
			S171.4209,173.63916,167.66797,173.63916z"/>
		<path fill="#7C7C7C" d="M167.66797,119.18799c-26.27148,0-47.64453,21.37354-47.64453,47.64502
			s21.37305,47.64502,47.64453,47.64502s47.64551-21.37354,47.64551-47.64502S193.93945,119.18799,167.66797,119.18799z
			 M167.66797,200.86475c-18.76465,0-34.03125-15.2666-34.03125-34.03174s15.2666-34.03174,34.03125-34.03174
			c18.76562,0,34.03223,15.2666,34.03223,34.03174S186.43359,200.86475,167.66797,200.86475z"/>
		<path fill="#7C7C7C" d="M167.66797,91.9624c-41.2832,0-74.87012,33.58691-74.87012,74.87061s33.58691,74.87061,74.87012,74.87061
			c41.28418,0,74.87109-33.58691,74.87109-74.87061S208.95215,91.9624,167.66797,91.9624z M167.66797,228.09033
			c-33.77734,0-61.25684-27.47998-61.25684-61.25732s27.47949-61.25732,61.25684-61.25732s61.25781,27.47998,61.25781,61.25732
			S201.44531,228.09033,167.66797,228.09033z"/>
		<path fill="#7C7C7C" d="M167.66895,64.73682c-56.2959,0-102.09668,45.80029-102.09668,102.09619
			S111.37305,268.9292,167.66895,268.9292s102.09668-45.80029,102.09668-102.09619S223.96484,64.73682,167.66895,64.73682z
			 M167.66895,255.31592c-48.79004,0-88.4834-39.69336-88.4834-88.48291s39.69336-88.48291,88.4834-88.48291
			s88.4834,39.69336,88.4834,88.48291S216.45898,255.31592,167.66895,255.31592z"/>
		<path fill="#7C7C7C" d="M167.66895,37.51123c-71.30859,0-129.32227,58.01367-129.32227,129.32178
			c0,71.30859,58.01367,129.32227,129.32227,129.32227s129.32227-58.01367,129.32227-129.32227
			C296.99121,95.5249,238.97754,37.51123,167.66895,37.51123z M167.66895,282.54199
			c-63.80273,0-115.70898-51.90674-115.70898-115.70898s51.90625-115.7085,115.70898-115.7085
			s115.70898,51.90625,115.70898,115.7085S231.47168,282.54199,167.66895,282.54199z"/>
		<path fill="#7C7C7C" d="M167.66895,10.28516c-86.31152,0-156.53125,70.22705-156.53125,156.54785
			s70.21973,156.54785,156.53125,156.54785c86.32031,0,156.54785-70.22705,156.54785-156.54785
			S253.98926,10.28516,167.66895,10.28516z M167.66895,309.76758c-78.80566,0-142.91797-64.12012-142.91797-142.93457
			S88.86328,23.89844,167.66895,23.89844c78.81445,0,142.93457,64.12012,142.93457,142.93457
			S246.4834,309.76758,167.66895,309.76758z"/>
		<path fill="#7C7C7C" d="M334,244.92053v-42.16541C319.67017,269.17017,266.4624,321.28247,199.46899,334h44.49951
			C283.47144,315.89795,315.4873,284.19531,334,244.92053z"/>
		<path fill="#7C7C7C" d="M0,195.79126v46.21558C18.28125,282.62842,50.90161,315.45178,91.37451,334h44.49561
			C66.55884,320.84119,12.0022,265.50635,0,195.79126z"/>
		<path fill="#7C7C7C" d="M134.12939,0h-43.4707C50.51807,18.60645,18.1731,51.27759,0,91.65881v46.21594
			C11.90161,68.74365,65.64575,13.74768,134.12939,0z"/>
		<path fill="#7C7C7C" d="M334,130.91089V88.74512C315.59961,49.70837,283.85742,18.15613,244.68457,0h-43.47461
			C267.38403,13.28271,319.79443,65.07153,334,130.91089z"/>
		<path fill="#7C7C7C" d="M334,296.51001v-23.50098c-15.74243,24.57544-36.78467,45.4397-61.49316,60.99097h23.74951
			C310.35132,323.13257,323.04321,310.53247,334,296.51001z"/>
		<path fill="#7C7C7C" d="M62.30493,0H38.65625C24.15137,11.24438,11.14966,24.33521,0,38.91699v23.90356
			C15.76978,37.4873,37.11108,15.97046,62.30493,0z"/>
		<path fill="#7C7C7C" d="M334,60.65723V37.15625C323.15576,23.27783,310.61279,10.79126,296.69116,0h-23.6499
			C297.51929,15.51538,318.37061,36.25854,334,60.65723z"/>
		<path fill="#7C7C7C" d="M0,270.8457v23.90344C11.26074,309.47632,24.41162,322.68091,39.09131,334h23.7478
			C37.41357,317.99585,15.88086,296.35718,0,270.8457z"/>
		<path fill="#7C7C7C" d="M334,317.62109c-5.2085,5.73999-10.71582,11.20227-16.48486,16.37891H334V317.62109z"/>
		<path fill="#7C7C7C" d="M17.45654,0H0v17.56555C5.49585,11.39795,11.32104,5.53076,17.45654,0z"/>
		<path fill="#7C7C7C" d="M334,16.04492V0h-16.1084C323.52441,5.07703,328.9043,10.4292,334,16.04492z"/>
		<path fill="#7C7C7C" d="M0,316.10046V334h17.83301C11.56006,328.37073,5.60742,322.39331,0,316.10046z"/>
	</g>
</g>
<g id="Layer_3" display="none">
</g>
<g id="Layer_2" display="none">
</g>
</svg>
