<?xml version="1.0" encoding="utf-8"?>
<!-- Generator: Adobe Illustrator 21.1.0, SVG Export Plug-In . SVG Version: 6.00 Build 0)  -->
<svg version="1.2" baseProfile="tiny" xmlns="http://www.w3.org/2000/svg" xmlns:xlink="http://www.w3.org/1999/xlink" x="0px"
	 y="0px" viewBox="0 0 334 334" xml:space="preserve">
<g id="Layer_1">
	<g>
		<path fill="#9B9B9B" d="M51.95459,0H23.31421C14.96814,7.22705,7.17847,15.07812,0,23.46735v28.84509
			C13.98199,31.87158,31.61646,14.12207,51.95459,0z"/>
		<path fill="#9B9B9B" d="M166.99951,174.95898c4.84912,0,8.79443-3.94531,8.79443-8.79443s-3.94531-8.79395-8.79443-8.79395
			c-4.83984,0-8.77734,3.94482-8.77734,8.79395S162.15967,174.95898,166.99951,174.95898z"/>
		<path fill="#9B9B9B" d="M334,164.58716V87.57452C315.97778,49.43213,285.27271,18.41187,247.3512,0h-63.39392
			C267.60449,8.47278,333.2019,78.92786,334,164.58716z"/>
		<path fill="#9B9B9B" d="M334,52.33337V23.49225C326.81519,15.09369,319.01782,7.23419,310.66296,0H282.0354
			C302.37866,14.12689,320.01685,31.88367,334,52.33337z"/>
		<path fill="#9B9B9B" d="M166.99951,210.11816c24.23633,0,43.9541-19.71777,43.9541-43.95361s-19.71777-43.95361-43.9541-43.95361
			c-24.22705,0-43.93701,19.71777-43.93701,43.95361S142.77246,210.11816,166.99951,210.11816z M166.99951,139.78271
			c14.54736,0,26.38232,11.83496,26.38232,26.38184c0,14.54736-11.83496,26.38232-26.38232,26.38232
			c-14.53809,0-26.36523-11.83496-26.36523-26.38232C140.63428,151.61768,152.46143,139.78271,166.99951,139.78271z"/>
		<path fill="#9B9B9B" d="M334,308.83728v-28.84119C319.46265,301.25635,300.98096,319.61426,279.60986,334h29.07837
			C317.78662,326.30591,326.25464,317.89087,334,308.83728z"/>
		<path fill="#9B9B9B" d="M334,244.75464v-77.0127c-0.85132,91.37036-75.43213,165.44263-167,165.44263
			c-91.55548,0-166.12811-74.05127-167-165.40417v77.00818C18.58466,284.09705,50.64471,315.8335,90.18842,334H243.8042
			C283.35547,315.82837,315.41943,284.07874,334,244.75464z"/>
		<path fill="#9B9B9B" d="M0,280.01709v28.84509C7.73895,317.90649,16.19934,326.31299,25.28888,334h29.09143
			C33.01453,319.61914,14.53638,301.26831,0,280.01709z"/>
		<path fill="#9B9B9B" d="M167,315.59668c82.39697,0,149.43213-67.03516,149.43213-149.43213S249.39697,16.73242,167,16.73242
			c-82.39746,0-149.43262,67.03516-149.43262,149.43213S84.60254,315.59668,167,315.59668z M167,34.3042
			c72.70801,0,131.86035,59.15234,131.86035,131.86035c0,72.7085-59.15234,131.86084-131.86035,131.86084
			c-72.7085,0-131.86084-59.15234-131.86084-131.86084C35.13916,93.45654,94.2915,34.3042,167,34.3042z"/>
		<path fill="#9B9B9B" d="M167,280.4375c63.00977,0,114.27246-51.2627,114.27246-114.27295
			c0-63.00977-51.2627-114.27246-114.27246-114.27246c-63.01025,0-114.27295,51.2627-114.27295,114.27246
			C52.72705,229.1748,103.98975,280.4375,167,280.4375z M167,69.46387c53.3208,0,96.70068,43.37988,96.70068,96.70068
			c0,53.32129-43.37988,96.70117-96.70068,96.70117c-53.32129,0-96.70117-43.37988-96.70117-96.70117
			C70.29883,112.84375,113.67871,69.46387,167,69.46387z"/>
		<path fill="#9B9B9B" d="M167,245.27783c43.62305,0,79.11279-35.49023,79.11279-79.11328S210.62305,87.05176,167,87.05176
			s-79.11328,35.48975-79.11328,79.11279S123.37695,245.27783,167,245.27783z M166.99951,104.62305
			c33.93457,0,61.54199,27.60742,61.54199,61.5415s-27.60742,61.5415-61.54199,61.5415c-33.9248,0-61.5249-27.60742-61.5249-61.5415
			S133.07471,104.62305,166.99951,104.62305z"/>
		<path fill="#9B9B9B" d="M150.0426,0H86.64111C48.72717,18.40643,18.02606,49.41364,0,87.54053v77.00818
			C0.81738,78.90674,66.40765,8.4715,150.0426,0z"/>
		<path fill="#646464" d="M166.99951,192.54688c14.54736,0,26.38232-11.83496,26.38232-26.38232
			c0-14.54688-11.83496-26.38184-26.38232-26.38184c-14.53809,0-26.36523,11.83496-26.36523,26.38184
			C140.63428,180.71191,152.46143,192.54688,166.99951,192.54688z M166.99951,157.37061c4.84912,0,8.79443,3.94482,8.79443,8.79395
			s-3.94531,8.79443-8.79443,8.79443c-4.83984,0-8.77734-3.94531-8.77734-8.79443S162.15967,157.37061,166.99951,157.37061z"/>
		<path fill="#646464" d="M166.99951,227.70605c33.93457,0,61.54199-27.60742,61.54199-61.5415s-27.60742-61.5415-61.54199-61.5415
			c-33.9248,0-61.5249,27.60742-61.5249,61.5415S133.07471,227.70605,166.99951,227.70605z M166.99951,122.21094
			c24.23633,0,43.9541,19.71777,43.9541,43.95361s-19.71777,43.95361-43.9541,43.95361
			c-24.22705,0-43.93701-19.71777-43.93701-43.95361S142.77246,122.21094,166.99951,122.21094z"/>
		<path fill="#646464" d="M167,262.86572c53.3208,0,96.70068-43.37988,96.70068-96.70117
			c0-53.3208-43.37988-96.70068-96.70068-96.70068c-53.32129,0-96.70117,43.37988-96.70117,96.70068
			C70.29883,219.48584,113.67871,262.86572,167,262.86572z M167,87.05176c43.62305,0,79.11279,35.48975,79.11279,79.11279
			S210.62305,245.27783,167,245.27783s-79.11328-35.49023-79.11328-79.11328S123.37695,87.05176,167,87.05176z"/>
		<path fill="#646464" d="M167,298.02539c72.70801,0,131.86035-59.15234,131.86035-131.86084
			C298.86035,93.45654,239.70801,34.3042,167,34.3042c-72.7085,0-131.86084,59.15234-131.86084,131.86035
			C35.13916,238.87305,94.2915,298.02539,167,298.02539z M167,51.89209c63.00977,0,114.27246,51.2627,114.27246,114.27246
			c0,63.01025-51.2627,114.27295-114.27246,114.27295c-63.01025,0-114.27295-51.2627-114.27295-114.27295
			C52.72705,103.15479,103.98975,51.89209,167,51.89209z"/>
		<path fill="#646464" d="M167,333.18457c91.56787,0,166.14868-74.07227,167-165.44263v-3.15479
			C333.2019,78.92786,267.60449,8.47278,183.95728,0H150.0426C66.40765,8.4715,0.81738,78.90674,0,164.54871v3.23169
			C0.87189,259.1333,75.44452,333.18457,167,333.18457z M167,16.73242c82.39697,0,149.43213,67.03516,149.43213,149.43213
			S249.39697,315.59668,167,315.59668c-82.39746,0-149.43262-67.03516-149.43262-149.43213S84.60254,16.73242,167,16.73242z"/>
		<path fill="#646464" d="M334,279.99609v-35.24146c-18.58057,39.3241-50.64453,71.07373-90.1958,89.24536h35.80566
			C300.98096,319.61426,319.46265,301.25635,334,279.99609z"/>
		<path fill="#646464" d="M0,244.78857v35.22852C14.53638,301.26831,33.01453,319.61914,54.38031,334h35.80811
			C50.64471,315.8335,18.58466,284.09705,0,244.78857z"/>
		<path fill="#646464" d="M334,87.57452V52.33337C320.01685,31.88367,302.37866,14.12689,282.0354,0h-34.6842
			C285.27271,18.41187,315.97778,49.43213,334,87.57452z"/>
		<path fill="#646464" d="M86.64111,0H51.95459C31.61646,14.12207,13.98199,31.87158,0,52.31244v35.22809
			C18.02606,49.41364,48.72717,18.40643,86.64111,0z"/>
		<path fill="#646464" d="M334,308.83728c-7.74536,9.05359-16.21338,17.46863-25.31177,25.16272H334V308.83728z"/>
		<path fill="#646464" d="M334,23.49225V0h-23.33704C319.01782,7.23419,326.81519,15.09369,334,23.49225z"/>
		<path fill="#646464" d="M23.31421,0H0v23.46735C7.17847,15.07812,14.96814,7.22705,23.31421,0z"/>
		<path fill="#646464" d="M0,308.86218V334h25.28888C16.19934,326.31299,7.73895,317.90649,0,308.86218z"/>
	</g>
</g>
<g id="Layer_3" display="none">
</g>
<g id="Layer_2" display="none">
</g>
</svg>
