<?xml version="1.0" encoding="utf-8"?>
<!-- Generator: Adobe Illustrator 21.1.0, SVG Export Plug-In . SVG Version: 6.00 Build 0)  -->
<svg version="1.2" baseProfile="tiny" xmlns="http://www.w3.org/2000/svg" xmlns:xlink="http://www.w3.org/1999/xlink" x="0px"
	 y="0px" viewBox="0 0 334 334" xml:space="preserve">
<g id="Layer_1">
	<g>
		<path fill="#838383" d="M334,259.70273V73.63351c-17.32446-30.8512-42.97876-56.41736-73.89844-73.63354H75.24292
			C43.51758,17.66628,17.32666,44.1191,0,76.05813v181.21997c17.48901,32.23871,44.00708,58.89203,76.13428,76.55731h183.07568
			C290.5293,316.61612,316.50879,290.85092,334,259.70273z M167.66797,327.96774c-88.94043,0-161.29883-72.3589-161.29883-161.29982
			S78.72754,5.36861,167.66797,5.36861c88.94141,0,161.2998,72.3584,161.2998,161.29932S256.60938,327.96774,167.66797,327.96774z"
			/>
		<path fill="#838383" d="M334,22.88888V-0.00004h-22.9502C319.24561,7.06057,326.92041,14.70992,334,22.88888z"/>
		<path fill="#838383" d="M24.29761-0.00004H0v24.48413C7.45337,15.70687,15.57495,7.5151,24.29761-0.00004z"/>
		<path fill="#838383" d="M310.45972,333.83542H334v-23.388C326.75195,318.82114,318.87622,326.63559,310.45972,333.83542z"/>
		<path fill="#838383" d="M167.66797,152.00288c-8.08594,0-14.66504,6.57861-14.66504,14.66504s6.5791,14.66553,14.66504,14.66553
			c8.08691,0,14.66602-6.5791,14.66602-14.66553S175.75488,152.00288,167.66797,152.00288z"/>
		<path fill="#838383" d="M167.66797,93.35934c-40.43164,0-73.3252,32.88623-73.3252,73.30859
			c0,40.42285,32.89355,73.30908,73.3252,73.30908c40.42285,0,73.30957-32.88623,73.30957-73.30908
			C240.97754,126.24557,208.09082,93.35934,167.66797,93.35934z M167.66797,210.66353
			c-24.25879,0-43.99512-19.73633-43.99512-43.99561c0-24.25879,19.73633-43.99511,43.99512-43.99511
			c24.25977,0,43.99609,19.73632,43.99609,43.99511C211.66406,190.9272,191.92773,210.66353,167.66797,210.66353z"/>
		<path fill="#838383" d="M167.66797,34.69869c-72.76758,0-131.96875,59.20117-131.96875,131.96924
			c0,72.76855,59.20117,131.96974,131.96875,131.96974c72.76855,0,131.96973-59.20119,131.96973-131.96974
			C299.6377,93.89986,240.43652,34.69869,167.66797,34.69869z M167.66797,269.3071
			c-56.60449,0-102.65527-46.04347-102.65527-102.63918c0-56.59521,46.05078-102.63866,102.65527-102.63866
			c56.5957,0,102.63965,46.04346,102.63965,102.63866C270.30762,223.26363,224.26367,269.3071,167.66797,269.3071z"/>
		<path fill="#838383" d="M0,308.85214v24.98328h24.8877C15.94263,326.18289,7.62012,317.82578,0,308.85214z"/>
		<path fill="#7C7C7C" d="M167.66797,122.67281c-24.25879,0-43.99512,19.73632-43.99512,43.99511
			c0,24.25928,19.73633,43.99561,43.99512,43.99561c24.25977,0,43.99609-19.73633,43.99609-43.99561
			C211.66406,142.40913,191.92773,122.67281,167.66797,122.67281z M167.66797,181.33345
			c-8.08594,0-14.66504-6.5791-14.66504-14.66553s6.5791-14.66504,14.66504-14.66504c8.08691,0,14.66602,6.57861,14.66602,14.66504
			S175.75488,181.33345,167.66797,181.33345z"/>
		<path fill="#7C7C7C" d="M167.66797,64.02926c-56.60449,0-102.65527,46.04346-102.65527,102.63866
			c0,56.5957,46.05078,102.63918,102.65527,102.63918c56.5957,0,102.63965-46.04347,102.63965-102.63918
			C270.30762,110.07272,224.26367,64.02926,167.66797,64.02926z M167.66797,239.97701
			c-40.43164,0-73.3252-32.88623-73.3252-73.30908c0-40.42236,32.89355-73.30859,73.3252-73.30859
			c40.42285,0,73.30957,32.88623,73.30957,73.30859C240.97754,207.09077,208.09082,239.97701,167.66797,239.97701z"/>
		<path fill="#7C7C7C" d="M167.66797,5.36861c-88.94043,0-161.29883,72.3584-161.29883,161.29932
			s72.3584,161.29982,161.29883,161.29982c88.94141,0,161.2998-72.3589,161.2998-161.29982S256.60938,5.36861,167.66797,5.36861z
			 M167.66797,298.63766c-72.76758,0-131.96875-59.20119-131.96875-131.96974c0-72.76806,59.20117-131.96924,131.96875-131.96924
			c72.76855,0,131.96973,59.20117,131.96973,131.96924C299.6377,239.43648,240.43652,298.63766,167.66797,298.63766z"/>
		<path fill="#7C7C7C" d="M75.24292-0.00004H24.29761C15.57495,7.5151,7.45337,15.70687,0,24.48409v51.57404
			C17.32666,44.1191,43.51758,17.66628,75.24292-0.00004z"/>
		<path fill="#7C7C7C" d="M334,73.63351V22.88888c-7.07959-8.17896-14.75439-15.82831-22.9502-22.88892h-50.94824
			C291.02124,17.21615,316.67554,42.78231,334,73.63351z"/>
		<path fill="#7C7C7C" d="M334,310.44742v-50.74469c-17.49121,31.14819-43.4707,56.91339-74.79004,74.13269
			c-0.09839,0.05408-0.19531,0.1106-0.29395,0.16455h51.34912c0.0647-0.05511,0.13013-0.10938,0.19458-0.16455
			C318.87622,326.63559,326.75195,318.82114,334,310.44742z"/>
		<path fill="#7C7C7C" d="M0,257.27811v51.57404c7.62012,8.97363,15.94263,17.33075,24.8877,24.98328
			c0.06445,0.05518,0.12988,0.10944,0.19434,0.16455h51.34619c-0.09863-0.05396-0.19531-0.11047-0.29395-0.16455
			C44.00708,316.17014,17.48901,289.51682,0,257.27811z"/>
	</g>
</g>
<g id="Layer_3" display="none">
</g>
<g id="Layer_2" display="none">
</g>
</svg>
