<?xml version="1.0" encoding="utf-8"?>
<!-- Generator: Adobe Illustrator 21.1.0, SVG Export Plug-In . SVG Version: 6.00 Build 0)  -->
<svg version="1.2" baseProfile="tiny" xmlns="http://www.w3.org/2000/svg" xmlns:xlink="http://www.w3.org/1999/xlink" x="0px"
	 y="0px" viewBox="0 0 334 334" xml:space="preserve">
<g id="Layer_1">
	<g>
		<path fill="#858585" d="M167,245.27783c43.62305,0,79.1123-35.49023,79.1123-79.11328S210.62305,87.05176,167,87.05176
			s-79.11328,35.48975-79.11328,79.11279S123.37695,245.27783,167,245.27783z M167,104.62305
			c33.93359,0,61.54102,27.60742,61.54102,61.5415S200.93359,227.70605,167,227.70605
			c-33.9248,0-61.52539-27.60742-61.52539-61.5415S133.0752,104.62305,167,104.62305z"/>
		<path fill="#858585" d="M166.99902,174.95898c4.84961,0,8.79492-3.94531,8.79492-8.79443s-3.94531-8.79395-8.79492-8.79395
			c-4.83984,0-8.77734,3.94482-8.77734,8.79395S162.15918,174.95898,166.99902,174.95898z"/>
		<path fill="#858585" d="M150.04175,0H86.64038C48.72705,18.40625,18.02612,49.41309,0,87.53943v77.00928
			C0.81738,78.90674,66.40771,8.4715,150.04175,0z"/>
		<path fill="#858585" d="M51.95398,0H23.31372C14.96777,7.22687,7.17834,15.07782,0,23.4668v28.84497
			C13.98193,31.87122,31.61621,14.12189,51.95398,0z"/>
		<path fill="#858585" d="M334,308.83691v-28.84155c-14.53735,21.2605-33.01929,39.6189-54.39062,54.00464h29.07861
			C317.78662,326.30591,326.25464,317.89075,334,308.83691z"/>
		<path fill="#858585" d="M334,244.75354v-77.05017c-0.83081,91.38818-75.41992,165.4812-167.00098,165.4812
			C75.44458,333.18457,0.87183,259.1333,0,167.7804v77.0094C18.58472,284.09766,50.64453,315.83374,90.18774,334h153.61572
			C283.35522,315.82812,315.41968,284.07812,334,244.75354z"/>
		<path fill="#858585" d="M334,164.62573V87.57562C315.97803,49.43274,285.27246,18.41205,247.35059,0h-63.39404
			C267.61646,8.47406,333.22119,78.94897,334,164.62573z"/>
		<path fill="#858585" d="M0,280.0177v28.84509C7.73877,317.90674,16.19897,326.31323,25.28833,334h29.09131
			C33.01416,319.61926,14.53638,301.26868,0,280.0177z"/>
		<path fill="#858585" d="M166.99902,280.4375c63.01074,0,114.27344-51.2627,114.27344-114.27295
			c0-63.00977-51.2627-114.27246-114.27344-114.27246c-63.00977,0-114.27246,51.2627-114.27246,114.27246
			C52.72656,229.1748,103.98926,280.4375,166.99902,280.4375z M167,69.46387c53.32031,0,96.7002,43.37988,96.7002,96.70068
			c0,53.32129-43.37988,96.70117-96.7002,96.70117c-53.32129,0-96.70117-43.37988-96.70117-96.70117
			C70.29883,112.84375,113.67871,69.46387,167,69.46387z"/>
		<path fill="#858585" d="M166.99902,315.59668c82.39746,0,149.43262-67.03516,149.43262-149.43213
			S249.39648,16.73242,166.99902,16.73242c-82.39648,0-149.43164,67.03516-149.43164,149.43213
			S84.60254,315.59668,166.99902,315.59668z M166.99902,34.3042c72.70898,0,131.86133,59.15234,131.86133,131.86035
			c0,72.7085-59.15234,131.86084-131.86133,131.86084c-72.70801,0-131.86035-59.15234-131.86035-131.86084
			C35.13867,93.45654,94.29102,34.3042,166.99902,34.3042z"/>
		<path fill="#858585" d="M167,210.11816c24.23535,0,43.95312-19.71777,43.95312-43.95361S191.23535,122.21094,167,122.21094
			c-24.22754,0-43.9375,19.71777-43.9375,43.95361S142.77246,210.11816,167,210.11816z M166.99902,139.78271
			c14.54785,0,26.38281,11.83496,26.38281,26.38184c0,14.54736-11.83496,26.38232-26.38281,26.38232
			c-14.53809,0-26.36523-11.83496-26.36523-26.38232C140.63379,151.61768,152.46094,139.78271,166.99902,139.78271z"/>
		<path fill="#858585" d="M334,52.33411V23.49255C326.81494,15.09393,319.01782,7.23425,310.6626,0h-28.62793
			C302.37842,14.12708,320.01685,31.88409,334,52.33411z"/>
		<path fill="#7A7A7A" d="M166.99902,192.54688c14.54785,0,26.38281-11.83496,26.38281-26.38232
			c0-14.54688-11.83496-26.38184-26.38281-26.38184c-14.53809,0-26.36523,11.83496-26.36523,26.38184
			C140.63379,180.71191,152.46094,192.54688,166.99902,192.54688z M166.99902,157.37061c4.84961,0,8.79492,3.94482,8.79492,8.79395
			s-3.94531,8.79443-8.79492,8.79443c-4.83984,0-8.77734-3.94531-8.77734-8.79443S162.15918,157.37061,166.99902,157.37061z"/>
		<path fill="#7A7A7A" d="M167,227.70605c33.93359,0,61.54102-27.60742,61.54102-61.5415S200.93359,104.62305,167,104.62305
			c-33.9248,0-61.52539,27.60742-61.52539,61.5415S133.0752,227.70605,167,227.70605z M167,122.21094
			c24.23535,0,43.95312,19.71777,43.95312,43.95361S191.23535,210.11816,167,210.11816
			c-24.22754,0-43.9375-19.71777-43.9375-43.95361S142.77246,122.21094,167,122.21094z"/>
		<path fill="#7A7A7A" d="M167,262.86572c53.32031,0,96.7002-43.37988,96.7002-96.70117
			c0-53.3208-43.37988-96.70068-96.7002-96.70068c-53.32129,0-96.70117,43.37988-96.70117,96.70068
			C70.29883,219.48584,113.67871,262.86572,167,262.86572z M167,87.05176c43.62305,0,79.1123,35.48975,79.1123,79.11279
			S210.62305,245.27783,167,245.27783s-79.11328-35.49023-79.11328-79.11328S123.37695,87.05176,167,87.05176z"/>
		<path fill="#7A7A7A" d="M166.99902,298.02539c72.70898,0,131.86133-59.15234,131.86133-131.86084
			c0-72.70801-59.15234-131.86035-131.86133-131.86035c-72.70801,0-131.86035,59.15234-131.86035,131.86035
			C35.13867,238.87305,94.29102,298.02539,166.99902,298.02539z M166.99902,51.89209
			c63.01074,0,114.27344,51.2627,114.27344,114.27246c0,63.01025-51.2627,114.27295-114.27344,114.27295
			c-63.00977,0-114.27246-51.2627-114.27246-114.27295C52.72656,103.15479,103.98926,51.89209,166.99902,51.89209z"/>
		<path fill="#7A7A7A" d="M166.99902,333.18457c91.58105,0,166.17017-74.09302,167.00098-165.4812v-3.07764
			C333.22119,78.94897,267.61646,8.47406,183.95654,0h-33.91479C66.40771,8.4715,0.81738,78.90674,0,164.54871v3.23169
			C0.87183,259.1333,75.44458,333.18457,166.99902,333.18457z M166.99902,16.73242
			c82.39746,0,149.43262,67.03516,149.43262,149.43213s-67.03516,149.43213-149.43262,149.43213
			c-82.39648,0-149.43164-67.03516-149.43164-149.43213S84.60254,16.73242,166.99902,16.73242z"/>
		<path fill="#7A7A7A" d="M0,244.78979v35.22791C14.53638,301.26868,33.01416,319.61926,54.37964,334h35.80811
			C50.64453,315.83374,18.58472,284.09766,0,244.78979z"/>
		<path fill="#7A7A7A" d="M334,279.99536v-35.24182C315.41968,284.07812,283.35522,315.82812,243.80347,334h35.80591
			C300.98071,319.61426,319.46265,301.25586,334,279.99536z"/>
		<path fill="#7A7A7A" d="M334,87.57562V52.33411C320.01685,31.88409,302.37842,14.12708,282.03467,0h-34.68408
			C285.27246,18.41205,315.97803,49.43274,334,87.57562z"/>
		<path fill="#7A7A7A" d="M86.64038,0h-34.6864C31.61621,14.12189,13.98193,31.87122,0,52.31177v35.22766
			C18.02612,49.41309,48.72705,18.40625,86.64038,0z"/>
		<path fill="#7A7A7A" d="M334,308.83691c-7.74536,9.05383-16.21338,17.46899-25.31201,25.16309H334V308.83691z"/>
		<path fill="#7A7A7A" d="M0,308.86279V334h25.28833C16.19897,326.31323,7.73877,317.90674,0,308.86279z"/>
		<path fill="#7A7A7A" d="M334,23.49255V0h-23.3374C319.01782,7.23425,326.81494,15.09393,334,23.49255z"/>
		<path fill="#7A7A7A" d="M23.31372,0H0v23.4668C7.17834,15.07782,14.96777,7.22687,23.31372,0z"/>
	</g>
</g>
<g id="Layer_3" display="none">
</g>
<g id="Layer_2" display="none">
</g>
</svg>
