<?xml version="1.0" encoding="utf-8"?>
<!-- Generator: Adobe Illustrator 21.1.0, SVG Export Plug-In . SVG Version: 6.00 Build 0)  -->
<svg version="1.2" baseProfile="tiny" xmlns="http://www.w3.org/2000/svg" xmlns:xlink="http://www.w3.org/1999/xlink" x="0px"
	 y="0px" viewBox="0 0 334 334" xml:space="preserve">
<g id="Layer_1">
	<g>
		<path fill="#828282" d="M166.33203,65.32129c-56.35156,0-102.19629,45.8374-102.19629,102.17969
			s45.84473,102.17969,102.19629,102.17969c56.3418,0,102.17969-45.8374,102.17969-102.17969S222.67383,65.32129,166.33203,65.32129
			z M166.33203,246.96484c-43.8252,0-79.48047-35.64746-79.48047-79.46387s35.65527-79.46387,79.48047-79.46387
			c43.81641,0,79.46387,35.64746,79.46387,79.46387S210.14844,246.96484,166.33203,246.96484z"/>
		<path fill="#828282" d="M166.33203,19.90625c-81.38379,0-147.59473,66.21094-147.59473,147.59473
			S84.94824,315.0957,166.33203,315.0957s147.59473-66.21094,147.59473-147.59473S247.71582,19.90625,166.33203,19.90625z
			 M166.33203,292.37988c-68.86719,0-124.89551-56.02051-124.89551-124.87891S97.46484,42.62207,166.33203,42.62207
			c68.8584,0,124.87891,56.02051,124.87891,124.87891S235.19043,292.37988,166.33203,292.37988z"/>
		<path fill="#828282" d="M334,137.62781v-65.6463C316.89526,42.07428,292.02393,17.15607,262.1499,0h-65.04395
			C266.68311,12.75171,321.61523,67.92462,334,137.62781z"/>
		<path fill="#828282" d="M334,263.02045v-65.6463C321.91431,265.3949,269.30835,319.57324,202.11621,334h61.73633
			C292.9668,316.88184,317.22241,292.35565,334,263.02045z"/>
		<path fill="#828282" d="M303.32861,334H334v-30.95312C324.83569,314.3609,314.56201,324.7406,303.32861,334z"/>
		<path fill="#828282" d="M30.57886,0H0v30.30054C9.1604,19.21472,19.41357,9.06653,30.57886,0z"/>
		<path fill="#828282" d="M166.33203,110.73633c-31.30957,0-56.78125,25.46436-56.78125,56.76465
			s25.47168,56.76465,56.78125,56.76465c31.2998,0,56.76465-25.46436,56.76465-56.76465S197.63184,110.73633,166.33203,110.73633z
			 M166.33203,201.5498c-18.78418,0-34.06543-15.27441-34.06543-34.04883s15.28125-34.04883,34.06543-34.04883
			c18.77441,0,34.04883,15.27441,34.04883,34.04883S185.10645,201.5498,166.33203,201.5498z"/>
		<path fill="#828282" d="M135.55811,0H70.51416C41.40503,16.71674,17.05273,40.80786,0,69.69843v61.25317
			C14.60742,64.42261,68.21875,12.34155,135.55811,0z"/>
		<path fill="#828282" d="M334,31.95508V0h-31.91479C313.80078,9.51337,324.50073,20.22742,334,31.95508z"/>
		<path fill="#828282" d="M0,304.70142V334h29.33545C18.64893,325.19141,8.82129,315.37695,0,304.70142z"/>
		<path fill="#828282" d="M166.33203,156.15137c-6.26758,0-11.36621,5.09131-11.36621,11.34961s5.09863,11.34961,11.36621,11.34961
			c6.25781,0,11.34961-5.09131,11.34961-11.34961S172.58984,156.15137,166.33203,156.15137z"/>
		<path fill="#828282" d="M0,204.05035v61.25317C16.71802,293.62701,40.45752,317.32874,68.81152,334h61.73633
			C65.57031,320.04877,14.24316,268.9201,0,204.05035z"/>
		<path fill="#7D7D7D" d="M166.33203,133.45215c-18.78418,0-34.06543,15.27441-34.06543,34.04883
			s15.28125,34.04883,34.06543,34.04883c18.77441,0,34.04883-15.27441,34.04883-34.04883S185.10645,133.45215,166.33203,133.45215z
			 M166.33203,178.85059c-6.26758,0-11.36621-5.09131-11.36621-11.34961s5.09863-11.34961,11.36621-11.34961
			c6.25781,0,11.34961,5.09131,11.34961,11.34961S172.58984,178.85059,166.33203,178.85059z"/>
		<path fill="#7D7D7D" d="M166.33203,88.03711c-43.8252,0-79.48047,35.64746-79.48047,79.46387s35.65527,79.46387,79.48047,79.46387
			c43.81641,0,79.46387-35.64746,79.46387-79.46387S210.14844,88.03711,166.33203,88.03711z M166.33203,224.26562
			c-31.30957,0-56.78125-25.46436-56.78125-56.76465s25.47168-56.76465,56.78125-56.76465
			c31.2998,0,56.76465,25.46436,56.76465,56.76465S197.63184,224.26562,166.33203,224.26562z"/>
		<path fill="#7D7D7D" d="M166.33203,42.62207c-68.86719,0-124.89551,56.02051-124.89551,124.87891
			s56.02832,124.87891,124.89551,124.87891c68.8584,0,124.87891-56.02051,124.87891-124.87891
			S235.19043,42.62207,166.33203,42.62207z M166.33203,269.68066c-56.35156,0-102.19629-45.8374-102.19629-102.17969
			S109.98047,65.32129,166.33203,65.32129c56.3418,0,102.17969,45.8374,102.17969,102.17969
			S222.67383,269.68066,166.33203,269.68066z"/>
		<path fill="#7D7D7D" d="M334,197.37415v-59.74634C321.61523,67.92462,266.68311,12.75171,197.10596,0h-61.54785
			C68.21875,12.34155,14.60742,64.42261,0,130.9516v73.09875C14.24316,268.9201,65.57031,320.04877,130.54785,334h71.56836
			C269.30835,319.57324,321.91431,265.3949,334,197.37415z M166.33203,315.0957c-81.38379,0-147.59473-66.21094-147.59473-147.59473
			S84.94824,19.90625,166.33203,19.90625s147.59473,66.21094,147.59473,147.59473S247.71582,315.0957,166.33203,315.0957z"/>
		<path fill="#7D7D7D" d="M334,303.04688v-40.02643C317.22241,292.35565,292.9668,316.88184,263.85254,334h39.47607
			C314.56201,324.7406,324.83569,314.3609,334,303.04688z"/>
		<path fill="#7D7D7D" d="M334,71.98151V31.95508C324.50073,20.22742,313.80078,9.51337,302.08521,0h-39.9353
			C292.02393,17.15607,316.89526,42.07428,334,71.98151z"/>
		<path fill="#7D7D7D" d="M70.51416,0h-39.9353C19.41357,9.06653,9.1604,19.21472,0,30.30054v39.39789
			C17.05273,40.80786,41.40503,16.71674,70.51416,0z"/>
		<path fill="#7D7D7D" d="M0,265.30353v39.39789C8.82129,315.37695,18.64893,325.19141,29.33545,334h39.47607
			C40.45752,317.32874,16.71802,293.62701,0,265.30353z"/>
	</g>
</g>
<g id="Layer_3" display="none">
</g>
<g id="Layer_2" display="none">
</g>
</svg>
