<?xml version="1.0" encoding="utf-8"?>
<!-- Generator: Adobe Illustrator 21.1.0, SVG Export Plug-In . SVG Version: 6.00 Build 0)  -->
<svg version="1.2" baseProfile="tiny" xmlns="http://www.w3.org/2000/svg" xmlns:xlink="http://www.w3.org/1999/xlink" x="0px"
	 y="0px" viewBox="0 0 334 334" xml:space="preserve">
<g id="Layer_1">
	<g>
		<path fill="#858585" d="M334,307.00659v-7.73999c-10.16992,12.86035-21.7937,24.51807-34.61646,34.7334h7.71167
			C316.82666,325.79956,325.83252,316.7666,334,307.00659z"/>
		<path fill="#858585" d="M334,191.92358v-48.84521C323.1123,68.2937,263.00928,9.25708,187.71484,0H146.2832
			C70.99146,9.25684,10.89062,68.28979,0,143.07104v48.86011C10.55469,264.40552,67.33179,322.0835,139.36157,334h55.2749
			C266.66895,322.08301,323.448,264.40161,334,191.92358z M167.06543,331.38184c-90.37305,0-163.89648-73.5166-163.89648-163.88086
			c0-90.36328,73.52344-163.87988,163.89648-163.87988c90.36426,0,163.88086,73.5166,163.88086,163.87988
			C330.94629,257.86523,257.42969,331.38184,167.06543,331.38184z"/>
		<path fill="#858585" d="M334,321.80884v-7.29761c-6.0708,6.88721-12.55981,13.39575-19.42725,19.48877h7.27197
			C326.04736,330.08936,330.10229,326.02368,334,321.80884z"/>
		<path fill="#858585" d="M167.03223,67.20996c-55.29199,0-100.27539,44.99023-100.27539,100.29102
			c0,55.30176,44.9834,100.29297,100.27539,100.29297c55.30176,0,100.29199-44.99121,100.29199-100.29297
			C267.32422,112.2002,222.33398,67.20996,167.03223,67.20996z M167.03223,262.90039
			c-52.60254,0-95.39844-42.7959-95.39844-95.39941c0-52.60254,42.7959-95.39844,95.39844-95.39844
			c52.60352,0,95.39941,42.7959,95.39941,95.39844C262.43164,220.10449,219.63574,262.90039,167.03223,262.90039z"/>
		<path fill="#858585" d="M334,328.92969c-1.65967,1.71631-3.34717,3.40552-5.05859,5.07031H334V328.92969z"/>
		<path fill="#858585" d="M167.04883,57.43848c-60.69824,0-110.0791,49.37402-110.0791,110.0625
			c0,60.68945,49.38086,110.06348,110.0791,110.06348c60.68945,0,110.06348-49.37402,110.06348-110.06348
			C277.1123,106.8125,227.73828,57.43848,167.04883,57.43848z M167.03223,272.68848
			c-57.99121,0-105.16992-47.1875-105.16992-105.1875c0-57.99902,47.17871-105.18555,105.16992-105.18555
			c58,0,105.18652,47.18652,105.18652,105.18555C272.21875,225.50098,225.03223,272.68848,167.03223,272.68848z"/>
		<path fill="#858585" d="M167.06543,18.30371c-82.27734,0-149.21387,66.92969-149.21387,149.19727
			c0,82.26855,66.93652,149.19824,149.21387,149.19824c82.26855,0,149.19824-66.92969,149.19824-149.19824
			C316.26367,85.2334,249.33398,18.30371,167.06543,18.30371z M167.04883,311.82324
			c-79.56934,0-144.30371-64.74316-144.30371-144.32227S87.47949,23.17969,167.04883,23.17969
			c79.5791,0,144.32227,64.74219,144.32227,144.32129S246.62793,311.82324,167.04883,311.82324z"/>
		<path fill="#858585" d="M334,230.69189v-15.47192C317.71704,272.12158,273.06689,317.15649,216.40186,334h15.10815
			C278.59839,315.69238,316.05518,277.95898,334,230.69189z"/>
		<path fill="#858585" d="M167.06543,8.51562c-87.67383,0-159.00195,71.32031-159.00195,158.98535
			S79.3916,326.4873,167.06543,326.4873c87.66504,0,158.98633-71.32129,158.98633-158.98633S254.73047,8.51562,167.06543,8.51562z
			 M167.06543,321.59375c-84.97559,0-154.1084-69.12598-154.1084-154.09277s69.13281-154.0918,154.1084-154.0918
			c84.9668,0,154.09277,69.125,154.09277,154.0918S252.03223,321.59375,167.06543,321.59375z"/>
		<path fill="#858585" d="M167.04883,47.65039c-66.08594,0-119.85059,53.76465-119.85059,119.85059
			c0,66.08691,53.76465,119.85156,119.85059,119.85156c66.08691,0,119.85156-53.76465,119.85156-119.85156
			C286.90039,101.41504,233.13574,47.65039,167.04883,47.65039z M167.04883,282.45898
			c-63.39648,0-114.97363-51.57031-114.97363-114.95801S103.65234,52.54395,167.04883,52.54395
			c63.3877,0,114.95801,51.56934,114.95801,114.95703S230.43652,282.45898,167.04883,282.45898z"/>
		<path fill="#858585" d="M334,254.52271v-11.11328C315.80127,283.28955,283.72437,315.55078,243.98267,334h10.98804
			C288.66333,316.12598,316.31299,288.32812,334,254.52271z"/>
		<path fill="#858585" d="M167.04883,28.07422c-76.87109,0-139.40918,62.54688-139.40918,139.42676
			c0,76.88086,62.53809,139.42773,139.40918,139.42773c76.88086,0,139.42773-62.54688,139.42773-139.42773
			C306.47656,90.62109,243.92969,28.07422,167.04883,28.07422z M167.04883,302.03516
			c-74.18164,0-134.5332-60.35156-134.5332-134.53418c0-74.18164,60.35156-134.5332,134.5332-134.5332
			c74.18262,0,134.53418,60.35156,134.53418,134.5332C301.58301,241.68359,241.23145,302.03516,167.04883,302.03516z"/>
		<path fill="#858585" d="M334,291.22363v-8.4021c-13.80981,19.93506-31.0896,37.2876-50.96411,51.17847h8.36401
			C307.58252,321.87988,321.94214,307.45532,334,291.22363z"/>
		<path fill="#858585" d="M167.04883,37.8623c-71.4834,0-129.63867,58.15527-129.63867,129.63867
			s58.15527,129.63965,129.63867,129.63965s129.63965-58.15625,129.63965-129.63965S238.53223,37.8623,167.04883,37.8623z
			 M167.04883,292.24707c-68.78418,0-124.74512-55.96094-124.74512-124.74609c0-68.78418,55.96094-124.74512,124.74512-124.74512
			c68.78516,0,124.74609,55.96094,124.74609,124.74512C291.79492,236.28613,235.83398,292.24707,167.04883,292.24707z"/>
		<path fill="#858585" d="M334,274.01831v-9.38525C317.30493,293.22632,293.47998,317.16357,264.97925,334h9.30029
			C298.21973,318.52344,318.62817,298.03198,334,274.01831z"/>
		<path fill="#858585" d="M0,328.88574V334h5.10132C3.37524,332.3208,1.67346,330.61719,0,328.88574z"/>
		<path fill="#858585" d="M334,6.07275V0h-6.08521C329.98145,1.98584,332.00781,4.01245,334,6.07275z"/>
		<path fill="#858585" d="M70.72168,0h-9.40393C36.68677,15.5957,15.71057,36.46265,0,61.0127v9.37891
			C17.0249,41.22168,41.46313,16.88574,70.72168,0z"/>
		<path fill="#858585" d="M334,20.49121v-7.29736C329.76929,8.6189,325.35669,4.21558,320.76782,0h-7.32446
			C320.73096,6.37866,327.59619,13.22607,334,20.49121z"/>
		<path fill="#858585" d="M121.104,0h-15.98267C56.79907,17.90845,18.27905,56.1626,0,104.30542v15.47314
			C16.61841,61.70947,62.77893,15.99927,121.104,0z"/>
		<path fill="#858585" d="M6.12769,0H0v6.1167C2.00586,4.04126,4.04663,2,6.12769,0z"/>
		<path fill="#858585" d="M334,35.73584v-7.73975C325.50024,17.83911,316.09814,8.46313,305.90967,0h-7.7793
			C311.45215,10.45068,323.49829,22.45557,334,35.73584z"/>
		<path fill="#858585" d="M92.19946,0H80.93323C46.37378,17.83252,18.0166,46.05396,0,80.50537v11.08301
			C18.53186,50.98145,51.44934,18.26904,92.19946,0z"/>
		<path fill="#858585" d="M20.58789,0h-7.31335C8.67041,4.22998,4.24353,8.64893,0,13.24048v7.28589
			C6.4126,13.24829,13.28857,6.38916,20.58789,0z"/>
		<path fill="#858585" d="M334,119.78198v-15.47144C315.72168,56.16553,277.20068,17.90918,228.87671,0h-15.98267
			C271.22046,15.99951,317.38232,61.71143,334,119.78198z"/>
		<path fill="#858585" d="M0,314.47583v7.28662c3.91064,4.2312,7.97986,8.3125,12.19751,12.23755h7.26099
			C12.57935,327.89648,6.07983,321.37646,0,314.47583z"/>
		<path fill="#858585" d="M334,91.59253V80.47949C315.98096,46.04004,287.62671,17.82812,253.07275,0h-11.27417
			C282.55005,18.26953,315.46851,50.98389,334,91.59253z"/>
		<path fill="#858585" d="M52.4325,0h-8.43066C27.2478,12.33716,12.40173,27.11865,0,43.82227v8.38574
			C14.14795,31.77954,31.93896,14.06079,52.4325,0z"/>
		<path fill="#858585" d="M334,52.18115v-8.40259C321.60474,27.09277,306.76929,12.32642,290.02979,0h-8.43945
			C302.07324,14.05469,319.8562,31.76416,334,52.18115z"/>
		<path fill="#858585" d="M35.90137,0h-7.77979C17.92065,8.47339,8.50781,17.86182,0,28.0332v7.74219
			C10.50903,22.47949,22.56616,10.46118,35.90137,0z"/>
		<path fill="#858585" d="M334,70.36914v-9.38525C318.29272,36.44629,297.32471,15.5896,272.70508,0h-9.41992
			C292.53882,16.88159,316.97412,41.20898,334,70.36914z"/>
		<path fill="#858585" d="M167.03223,96.57324c-39.11914,0-70.94434,31.81836-70.94434,70.92773
			c0,39.11035,31.8252,70.92871,70.94434,70.92871c39.11035,0,70.92871-31.81836,70.92871-70.92871
			C237.96094,128.3916,206.14258,96.57324,167.03223,96.57324z M167.01562,233.55371
			c-36.41211,0-66.03516-29.63086-66.03516-66.05273c0-36.41992,29.62305-66.05078,66.03516-66.05078
			c36.4209,0,66.05176,29.63086,66.05176,66.05078C233.06738,203.92285,203.43652,233.55371,167.01562,233.55371z"/>
		<path fill="#858585" d="M0,299.22705v7.74268C8.17566,316.7439,17.19214,325.78906,26.93604,334h7.71191
			C21.81201,323.77417,10.17725,312.10327,0,299.22705z"/>
		<path fill="#858585" d="M167.01562,125.91992c-22.92773,0-41.58105,18.65332-41.58105,41.58105
			c0,22.92871,18.65332,41.58203,41.58105,41.58203c22.92871,0,41.58203-18.65332,41.58203-41.58203
			C208.59766,144.57324,189.94434,125.91992,167.01562,125.91992z M167.01562,204.18945
			c-20.22949,0-36.6875-16.45898-36.6875-36.68848s16.45801-36.6875,36.6875-36.6875s36.68848,16.45801,36.68848,36.6875
			S187.24512,204.18945,167.01562,204.18945z"/>
		<path fill="#858585" d="M167.01562,135.70801c-17.53125,0-31.79297,14.26172-31.79297,31.79297
			s14.26172,31.79395,31.79297,31.79395s31.79395-14.2627,31.79395-31.79395S184.54688,135.70801,167.01562,135.70801z
			 M167.01562,194.40137c-14.8418,0-26.91602-12.06738-26.91602-26.90039c0-14.83203,12.07422-26.89941,26.91602-26.89941
			c14.83301,0,26.90039,12.06738,26.90039,26.89941C193.91602,182.33398,181.84863,194.40137,167.01562,194.40137z"/>
		<path fill="#858585" d="M167.01562,145.49609c-12.14258,0-22.02148,9.87109-22.02148,22.00488s9.87891,22.00586,22.02148,22.00586
			c12.13379,0,22.00586-9.87207,22.00586-22.00586S179.14941,145.49609,167.01562,145.49609z M166.99902,184.63086
			c-9.43555,0-17.1123-7.68457-17.1123-17.12988c0-9.44434,7.67676-17.12891,17.1123-17.12891
			c9.44531,0,17.12988,7.68457,17.12988,17.12891C184.12891,176.94629,176.44434,184.63086,166.99902,184.63086z"/>
		<path fill="#858585" d="M167.03223,86.78516c-44.50684,0-80.71582,36.20898-80.71582,80.71582
			c0,44.50781,36.20898,80.7168,80.71582,80.7168c44.50781,0,80.7168-36.20898,80.7168-80.7168
			C247.74902,122.99414,211.54004,86.78516,167.03223,86.78516z M167.03223,243.32422
			c-41.81738,0-75.83887-34.01465-75.83887-75.82324s34.02148-75.82227,75.83887-75.82227
			c41.80859,0,75.82324,34.01367,75.82324,75.82227S208.84082,243.32422,167.03223,243.32422z"/>
		<path fill="#858585" d="M167.03223,76.99707c-49.9043,0-90.50391,40.59961-90.50391,90.50391s40.59961,90.50488,90.50391,90.50488
			s90.50488-40.60059,90.50488-90.50488S216.93652,76.99707,167.03223,76.99707z M167.03223,253.1123
			c-47.20508,0-85.61035-38.40527-85.61035-85.61133c0-47.20508,38.40527-85.61035,85.61035-85.61035
			c47.20605,0,85.61133,38.40527,85.61133,85.61035C252.64355,214.70703,214.23828,253.1123,167.03223,253.1123z"/>
		<path fill="#858585" d="M167.01562,106.34473c-33.71289,0-61.14062,27.43457-61.14062,61.15625
			c0,33.72266,27.42773,61.1582,61.14062,61.1582c33.72266,0,61.15723-27.43555,61.15723-61.1582
			C228.17285,133.7793,200.73828,106.34473,167.01562,106.34473z M167.01562,223.76562
			c-31.02344,0-56.26367-25.24023-56.26367-56.26465c0-31.02344,25.24023-56.26367,56.26367-56.26367
			c31.02441,0,56.26465,25.24023,56.26465,56.26367C223.28027,198.52539,198.04004,223.76562,167.01562,223.76562z"/>
		<path fill="#858585" d="M167.01562,116.13184c-28.3252,0-51.36914,23.04395-51.36914,51.36914
			c0,28.32617,23.04395,51.37012,51.36914,51.37012c28.32617,0,51.37012-23.04395,51.37012-51.37012
			C218.38574,139.17578,195.3418,116.13184,167.01562,116.13184z M167.01562,213.97754
			c-25.62695,0-46.47559-20.84961-46.47559-46.47656s20.84863-46.47559,46.47559-46.47559s46.47656,20.84863,46.47656,46.47559
			S192.64258,213.97754,167.01562,213.97754z"/>
		<path fill="#858585" d="M0,264.6106v9.37891C15.37524,298.01562,35.7915,318.51733,59.74329,334h9.28455
			C40.52222,317.15918,16.69409,293.21387,0,264.6106z"/>
		<path fill="#858585" d="M0,243.41357v11.08325C17.68481,288.31396,45.33752,316.12158,79.0354,334h10.97998
			C50.27502,315.55151,18.19922,283.29175,0,243.41357z"/>
		<path fill="#858585" d="M0,282.79468v8.3855C12.06445,307.42944,26.43481,321.86914,42.63159,334h8.35522
			C31.10181,320.10278,13.81396,302.74097,0,282.79468z"/>
		<path fill="#858585" d="M0,215.22363v15.47339C17.94556,277.96191,55.40137,315.69287,102.48804,334h15.10828
			C60.93262,317.15674,16.28369,272.12354,0,215.22363z"/>
		<path fill="#858585" d="M166.99902,155.2666c-6.7373,0-12.21777,5.48828-12.21777,12.23438
			c0,6.74707,5.48047,12.23535,12.21777,12.23535c6.74707,0,12.23535-5.48828,12.23535-12.23535
			C179.23438,160.75488,173.74609,155.2666,166.99902,155.2666z M166.99902,174.84277c-4.04785,0-7.34082-3.29395-7.34082-7.3418
			s3.29297-7.34082,7.34082-7.34082s7.3418,3.29297,7.3418,7.34082S171.04688,174.84277,166.99902,174.84277z"/>
		<circle fill="#858585" cx="166.99927" cy="167.50122" r="2.44678"/>
		<path fill="#7A7A7A" d="M166.99902,160.16016c-4.04785,0-7.34082,3.29297-7.34082,7.34082s3.29297,7.3418,7.34082,7.3418
			s7.3418-3.29395,7.3418-7.3418S171.04688,160.16016,166.99902,160.16016z M166.99902,169.94824
			c-1.34863,0-2.44629-1.09766-2.44629-2.44727c0-1.34863,1.09766-2.44629,2.44629-2.44629
			c1.34961,0,2.44727,1.09766,2.44727,2.44629C169.44629,168.85059,168.34863,169.94824,166.99902,169.94824z"/>
		<path fill="#7A7A7A" d="M166.99902,150.37207c-9.43555,0-17.1123,7.68457-17.1123,17.12891
			c0,9.44531,7.67676,17.12988,17.1123,17.12988c9.44531,0,17.12988-7.68457,17.12988-17.12988
			C184.12891,158.05664,176.44434,150.37207,166.99902,150.37207z M166.99902,179.73633
			c-6.7373,0-12.21777-5.48828-12.21777-12.23535c0-6.74609,5.48047-12.23438,12.21777-12.23438
			c6.74707,0,12.23535,5.48828,12.23535,12.23438C179.23438,174.24805,173.74609,179.73633,166.99902,179.73633z"/>
		<path fill="#7A7A7A" d="M167.01562,140.60156c-14.8418,0-26.91602,12.06738-26.91602,26.89941
			c0,14.83301,12.07422,26.90039,26.91602,26.90039c14.83301,0,26.90039-12.06738,26.90039-26.90039
			C193.91602,152.66895,181.84863,140.60156,167.01562,140.60156z M167.01562,189.50684
			c-12.14258,0-22.02148-9.87207-22.02148-22.00586s9.87891-22.00488,22.02148-22.00488
			c12.13379,0,22.00586,9.87109,22.00586,22.00488S179.14941,189.50684,167.01562,189.50684z"/>
		<path fill="#7A7A7A" d="M167.01562,130.81348c-20.22949,0-36.6875,16.45801-36.6875,36.6875s16.45801,36.68848,36.6875,36.68848
			s36.68848-16.45898,36.68848-36.68848S187.24512,130.81348,167.01562,130.81348z M167.01562,199.29492
			c-17.53125,0-31.79297-14.2627-31.79297-31.79395s14.26172-31.79297,31.79297-31.79297s31.79395,14.26172,31.79395,31.79297
			S184.54688,199.29492,167.01562,199.29492z"/>
		<path fill="#7A7A7A" d="M167.01562,121.02539c-25.62695,0-46.47559,20.84863-46.47559,46.47559
			s20.84863,46.47656,46.47559,46.47656s46.47656-20.84961,46.47656-46.47656S192.64258,121.02539,167.01562,121.02539z
			 M167.01562,209.08301c-22.92773,0-41.58105-18.65332-41.58105-41.58203c0-22.92773,18.65332-41.58105,41.58105-41.58105
			c22.92871,0,41.58203,18.65332,41.58203,41.58105C208.59766,190.42969,189.94434,209.08301,167.01562,209.08301z"/>
		<path fill="#7A7A7A" d="M167.01562,111.2373c-31.02344,0-56.26367,25.24023-56.26367,56.26367
			c0,31.02441,25.24023,56.26465,56.26367,56.26465c31.02441,0,56.26465-25.24023,56.26465-56.26465
			C223.28027,136.47754,198.04004,111.2373,167.01562,111.2373z M167.01562,218.87109
			c-28.3252,0-51.36914-23.04395-51.36914-51.37012c0-28.3252,23.04395-51.36914,51.36914-51.36914
			c28.32617,0,51.37012,23.04395,51.37012,51.36914C218.38574,195.82715,195.3418,218.87109,167.01562,218.87109z"/>
		<path fill="#7A7A7A" d="M167.01562,101.4502c-36.41211,0-66.03516,29.63086-66.03516,66.05078
			c0,36.42188,29.62305,66.05273,66.03516,66.05273c36.4209,0,66.05176-29.63086,66.05176-66.05273
			C233.06738,131.08105,203.43652,101.4502,167.01562,101.4502z M167.01562,228.65918
			c-33.71289,0-61.14062-27.43555-61.14062-61.1582c0-33.72168,27.42773-61.15625,61.14062-61.15625
			c33.72266,0,61.15723,27.43457,61.15723,61.15625C228.17285,201.22363,200.73828,228.65918,167.01562,228.65918z"/>
		<path fill="#7A7A7A" d="M167.03223,91.67871c-41.81738,0-75.83887,34.01367-75.83887,75.82227
			s34.02148,75.82324,75.83887,75.82324c41.80859,0,75.82324-34.01465,75.82324-75.82324S208.84082,91.67871,167.03223,91.67871z
			 M167.03223,238.42969c-39.11914,0-70.94434-31.81836-70.94434-70.92871c0-39.10938,31.8252-70.92773,70.94434-70.92773
			c39.11035,0,70.92871,31.81836,70.92871,70.92773C237.96094,206.61133,206.14258,238.42969,167.03223,238.42969z"/>
		<path fill="#7A7A7A" d="M167.03223,81.89062c-47.20508,0-85.61035,38.40527-85.61035,85.61035
			c0,47.20605,38.40527,85.61133,85.61035,85.61133c47.20605,0,85.61133-38.40527,85.61133-85.61133
			C252.64355,120.2959,214.23828,81.89062,167.03223,81.89062z M167.03223,248.21777
			c-44.50684,0-80.71582-36.20898-80.71582-80.7168c0-44.50684,36.20898-80.71582,80.71582-80.71582
			c44.50781,0,80.7168,36.20898,80.7168,80.71582C247.74902,212.00879,211.54004,248.21777,167.03223,248.21777z"/>
		<path fill="#7A7A7A" d="M167.03223,72.10254c-52.60254,0-95.39844,42.7959-95.39844,95.39844
			c0,52.60352,42.7959,95.39941,95.39844,95.39941c52.60352,0,95.39941-42.7959,95.39941-95.39941
			C262.43164,114.89844,219.63574,72.10254,167.03223,72.10254z M167.03223,258.00586
			c-49.9043,0-90.50391-40.60059-90.50391-90.50488s40.59961-90.50391,90.50391-90.50391s90.50488,40.59961,90.50488,90.50391
			S216.93652,258.00586,167.03223,258.00586z"/>
		<path fill="#7A7A7A" d="M167.03223,62.31543c-57.99121,0-105.16992,47.18652-105.16992,105.18555
			c0,58,47.17871,105.1875,105.16992,105.1875c58,0,105.18652-47.1875,105.18652-105.1875
			C272.21875,109.50195,225.03223,62.31543,167.03223,62.31543z M167.03223,267.79395
			c-55.29199,0-100.27539-44.99121-100.27539-100.29297c0-55.30078,44.9834-100.29102,100.27539-100.29102
			c55.30176,0,100.29199,44.99023,100.29199,100.29102C267.32422,222.80273,222.33398,267.79395,167.03223,267.79395z"/>
		<path fill="#7A7A7A" d="M167.04883,52.54395c-63.39648,0-114.97363,51.56934-114.97363,114.95703
			s51.57715,114.95801,114.97363,114.95801c63.3877,0,114.95801-51.57031,114.95801-114.95801
			S230.43652,52.54395,167.04883,52.54395z M167.04883,277.56445c-60.69824,0-110.0791-49.37402-110.0791-110.06348
			c0-60.68848,49.38086-110.0625,110.0791-110.0625c60.68945,0,110.06348,49.37402,110.06348,110.0625
			C277.1123,228.19043,227.73828,277.56445,167.04883,277.56445z"/>
		<path fill="#7A7A7A" d="M167.04883,42.75586c-68.78418,0-124.74512,55.96094-124.74512,124.74512
			c0,68.78516,55.96094,124.74609,124.74512,124.74609c68.78516,0,124.74609-55.96094,124.74609-124.74609
			C291.79492,98.7168,235.83398,42.75586,167.04883,42.75586z M167.04883,287.35254
			c-66.08594,0-119.85059-53.76465-119.85059-119.85156c0-66.08594,53.76465-119.85059,119.85059-119.85059
			c66.08691,0,119.85156,53.76465,119.85156,119.85059C286.90039,233.58789,233.13574,287.35254,167.04883,287.35254z"/>
		<path fill="#7A7A7A" d="M167.04883,32.96777c-74.18164,0-134.5332,60.35156-134.5332,134.5332
			c0,74.18262,60.35156,134.53418,134.5332,134.53418c74.18262,0,134.53418-60.35156,134.53418-134.53418
			C301.58301,93.31934,241.23145,32.96777,167.04883,32.96777z M167.04883,297.14062
			c-71.4834,0-129.63867-58.15625-129.63867-129.63965S95.56543,37.8623,167.04883,37.8623s129.63965,58.15527,129.63965,129.63867
			S238.53223,297.14062,167.04883,297.14062z"/>
		<path fill="#7A7A7A" d="M167.04883,23.17969c-79.56934,0-144.30371,64.74219-144.30371,144.32129
			s64.73438,144.32227,144.30371,144.32227c79.5791,0,144.32227-64.74316,144.32227-144.32227
			S246.62793,23.17969,167.04883,23.17969z M167.04883,306.92871c-76.87109,0-139.40918-62.54688-139.40918-139.42773
			c0-76.87988,62.53809-139.42676,139.40918-139.42676c76.88086,0,139.42773,62.54688,139.42773,139.42676
			C306.47656,244.38184,243.92969,306.92871,167.04883,306.92871z"/>
		<path fill="#7A7A7A" d="M167.06543,13.40918c-84.97559,0-154.1084,69.125-154.1084,154.0918
			s69.13281,154.09277,154.1084,154.09277c84.9668,0,154.09277-69.12598,154.09277-154.09277S252.03223,13.40918,167.06543,13.40918
			z M167.06543,316.69922c-82.27734,0-149.21387-66.92969-149.21387-149.19824c0-82.26758,66.93652-149.19727,149.21387-149.19727
			c82.26855,0,149.19824,66.92969,149.19824,149.19727C316.26367,249.76953,249.33398,316.69922,167.06543,316.69922z"/>
		<path fill="#7A7A7A" d="M167.06543,3.62109c-90.37305,0-163.89648,73.5166-163.89648,163.87988
			c0,90.36426,73.52344,163.88086,163.89648,163.88086c90.36426,0,163.88086-73.5166,163.88086-163.88086
			C330.94629,77.1377,257.42969,3.62109,167.06543,3.62109z M167.06543,326.4873
			c-87.67383,0-159.00195-71.32129-159.00195-158.98633S79.3916,8.51562,167.06543,8.51562
			c87.66504,0,158.98633,71.32031,158.98633,158.98535S254.73047,326.4873,167.06543,326.4873z"/>
		<path fill="#7A7A7A" d="M334,143.07837v-23.29639C317.38232,61.71143,271.22046,15.99951,212.89404,0h-25.1792
			C263.00928,9.25708,323.1123,68.2937,334,143.07837z"/>
		<path fill="#7A7A7A" d="M0,191.93115v23.29248C16.28369,272.12354,60.93262,317.15674,117.59631,334h21.76526
			C67.33179,322.0835,10.55469,264.40552,0,191.93115z"/>
		<path fill="#7A7A7A" d="M146.2832,0H121.104C62.77893,15.99927,16.61841,61.70947,0,119.77856v23.29248
			C10.89062,68.28979,70.99146,9.25684,146.2832,0z"/>
		<path fill="#7A7A7A" d="M334,215.21997v-23.29639C323.448,264.40161,266.66895,322.08301,194.63647,334h21.76538
			C273.06689,317.15649,317.71704,272.12158,334,215.21997z"/>
		<path fill="#7A7A7A" d="M334,243.40942v-12.71753C316.05518,277.95898,278.59839,315.69238,231.51001,334h12.47266
			C283.72437,315.55078,315.80127,283.28955,334,243.40942z"/>
		<path fill="#7A7A7A" d="M0,230.69702v12.71655C18.19922,283.29175,50.27502,315.55151,90.01538,334h12.47266
			C55.40137,315.69287,17.94556,277.96191,0,230.69702z"/>
		<path fill="#7A7A7A" d="M105.12134,0H92.19946C51.44934,18.26904,18.53186,50.98145,0,91.58838v12.71704
			C18.27905,56.1626,56.79907,17.90845,105.12134,0z"/>
		<path fill="#7A7A7A" d="M334,104.31055V91.59253C315.46851,50.98389,282.55005,18.26953,241.79858,0h-12.92188
			C277.20068,17.90918,315.72168,56.16553,334,104.31055z"/>
		<path fill="#7A7A7A" d="M334,80.47949V70.36914C316.97412,41.20898,292.53882,16.88159,263.28516,0h-10.2124
			C287.62671,17.82812,315.98096,46.04004,334,80.47949z"/>
		<path fill="#7A7A7A" d="M80.93323,0H70.72168C41.46313,16.88574,17.0249,41.22168,0,70.3916v10.11377
			C18.0166,46.05396,46.37378,17.83252,80.93323,0z"/>
		<path fill="#7A7A7A" d="M0,254.49683v10.11377C16.69409,293.21387,40.52222,317.15918,69.02783,334H79.0354
			C45.33752,316.12158,17.68481,288.31396,0,254.49683z"/>
		<path fill="#7A7A7A" d="M334,264.63306v-10.11035C316.31299,288.32812,288.66333,316.12598,254.9707,334h10.00854
			C293.47998,317.16357,317.30493,293.22632,334,264.63306z"/>
		<path fill="#7A7A7A" d="M0,273.9895v8.80518C13.81396,302.74097,31.10181,320.10278,50.98682,334h8.75647
			C35.7915,318.51733,15.37524,298.01562,0,273.9895z"/>
		<path fill="#7A7A7A" d="M61.31775,0H52.4325C31.93896,14.06079,14.14795,31.77954,0,52.20801v8.80469
			C15.71057,36.46265,36.68677,15.5957,61.31775,0z"/>
		<path fill="#7A7A7A" d="M334,282.82153v-8.80322C318.62817,298.03198,298.21973,318.52344,274.27954,334h8.75635
			C302.9104,320.10913,320.19019,302.75659,334,282.82153z"/>
		<path fill="#7A7A7A" d="M334,60.98389v-8.80273C319.8562,31.76416,302.07324,14.05469,281.59033,0h-8.88525
			C297.32471,15.5896,318.29272,36.44629,334,60.98389z"/>
		<path fill="#7A7A7A" d="M44.00183,0h-8.10046C22.56616,10.46118,10.50903,22.47949,0,35.77539v8.04688
			C12.40173,27.11865,27.2478,12.33716,44.00183,0z"/>
		<path fill="#7A7A7A" d="M0,291.18018v8.04688C10.17725,312.10327,21.81201,323.77417,34.64795,334h7.98364
			C26.43481,321.86914,12.06445,307.42944,0,291.18018z"/>
		<path fill="#7A7A7A" d="M334,299.2666v-8.04297C321.94214,307.45532,307.58252,321.87988,291.3999,334h7.98364
			C312.2063,323.78467,323.83008,312.12695,334,299.2666z"/>
		<path fill="#7A7A7A" d="M334,43.77856v-8.04272C323.49829,22.45557,311.45215,10.45068,298.13037,0h-8.10059
			C306.76929,12.32642,321.60474,27.09277,334,43.77856z"/>
		<path fill="#7A7A7A" d="M334,27.99609v-7.50488C327.59619,13.22607,320.73096,6.37866,313.44336,0h-7.53369
			C316.09814,8.46313,325.50024,17.83911,334,27.99609z"/>
		<path fill="#7A7A7A" d="M0,306.96973v7.5061C6.07983,321.37646,12.57935,327.89648,19.4585,334h7.47754
			C17.19214,325.78906,8.17566,316.7439,0,306.96973z"/>
		<path fill="#7A7A7A" d="M28.12158,0h-7.53369C13.28857,6.38916,6.4126,13.24829,0,20.52637v7.50684
			C8.50781,17.86182,17.92065,8.47339,28.12158,0z"/>
		<path fill="#7A7A7A" d="M334,314.51123v-7.50464c-8.16748,9.76001-17.17334,18.79297-26.90479,26.99341h7.47754
			C321.44019,327.90698,327.9292,321.39844,334,314.51123z"/>
		<path fill="#7A7A7A" d="M334,328.92969v-7.12085c-3.89771,4.21484-7.95264,8.28052-12.15527,12.19116h7.09668
			C330.65283,332.33521,332.34033,330.646,334,328.92969z"/>
		<path fill="#7A7A7A" d="M13.27454,0H6.12769C4.04663,2,2.00586,4.04126,0,6.1167v7.12378
			C4.24353,8.64893,8.67041,4.22998,13.27454,0z"/>
		<path fill="#7A7A7A" d="M0,321.76245v7.12329C1.67346,330.61719,3.37524,332.3208,5.10132,334h7.09619
			C7.97986,330.07495,3.91064,325.99365,0,321.76245z"/>
		<path fill="#7A7A7A" d="M334,13.19385V6.07275c-1.99219-2.0603-4.01855-4.08691-6.08521-6.07275h-7.14697
			C325.35669,4.21558,329.76929,8.6189,334,13.19385z"/>
	</g>
</g>
<g id="Layer_3" display="none">
</g>
<g id="Layer_2" display="none">
</g>
</svg>
