<?xml version="1.0" encoding="utf-8"?>
<!-- Generator: Adobe Illustrator 21.1.0, SVG Export Plug-In . SVG Version: 6.00 Build 0)  -->
<svg version="1.2" baseProfile="tiny" xmlns="http://www.w3.org/2000/svg" xmlns:xlink="http://www.w3.org/1999/xlink" x="0px"
	 y="0px" viewBox="0 0 334 334" xml:space="preserve">
<g id="Layer_1">
	<g>
		<path fill="#909090" d="M167.66846,280.4375c63.00977,0,114.27246-51.2627,114.27246-114.27295
			c0-63.00977-51.2627-114.27246-114.27246-114.27246c-63.01025,0-114.27295,51.2627-114.27295,114.27246
			C53.39551,229.1748,104.6582,280.4375,167.66846,280.4375z M167.66846,69.46387c53.32129,0,96.70117,43.37988,96.70117,96.70068
			c0,53.32129-43.37988,96.70117-96.70117,96.70117s-96.70117-43.37988-96.70117-96.70117
			C70.96729,112.84375,114.34717,69.46387,167.66846,69.46387z"/>
		<path fill="#909090" d="M167.66846,315.59668c82.39697,0,149.43213-67.03516,149.43213-149.43213
			S250.06543,16.73242,167.66846,16.73242S18.23633,83.76758,18.23633,166.16455S85.27148,315.59668,167.66846,315.59668z
			 M167.66846,34.3042c72.70801,0,131.86035,59.15234,131.86035,131.86035c0,72.7085-59.15234,131.86084-131.86035,131.86084
			c-72.7085,0-131.86084-59.15234-131.86084-131.86084C35.80762,93.45654,94.95996,34.3042,167.66846,34.3042z"/>
		<path fill="#909090" d="M167.66846,245.27783c43.62305,0,79.11328-35.49023,79.11328-79.11328
			s-35.49023-79.11279-79.11328-79.11279s-79.11328,35.48975-79.11328,79.11279S124.04541,245.27783,167.66846,245.27783z
			 M167.66797,104.62305c33.93457,0,61.54199,27.60742,61.54199,61.5415s-27.60742,61.5415-61.54199,61.5415
			c-33.9248,0-61.52441-27.60742-61.52441-61.5415S133.74316,104.62305,167.66797,104.62305z"/>
		<path fill="#909090" d="M334,51.36969V22.70227C327.00195,14.59888,319.42554,7.00842,311.3313,0h-28.6272
			C302.72632,13.90387,320.12427,31.32654,334,51.36969z"/>
		<path fill="#909090" d="M167.66797,174.95898c4.84912,0,8.79443-3.94531,8.79443-8.79443s-3.94531-8.79395-8.79443-8.79395
			c-4.83984,0-8.77734,3.94482-8.77734,8.79395S162.82812,174.95898,167.66797,174.95898z"/>
		<path fill="#909090" d="M334,151.0816V86.14862C315.89111,48.65662,285.46973,18.1828,248.0199,0h-63.39417
			C263.83252,8.02301,326.85327,71.62317,334,151.0816z"/>
		<path fill="#909090" d="M334,309.6272v-28.66748C319.56555,301.81006,301.32507,319.83276,280.27856,334h29.07788
			C318.19165,326.52869,326.43848,318.38306,334,309.6272z"/>
		<path fill="#909090" d="M167.66797,210.11816c24.23633,0,43.9541-19.71777,43.9541-43.95361s-19.71777-43.95361-43.9541-43.95361
			c-24.22656,0-43.93652,19.71777-43.93652,43.95361S143.44141,210.11816,167.66797,210.11816z M167.66797,139.78271
			c14.54736,0,26.38232,11.83496,26.38232,26.38184c0,14.54736-11.83496,26.38232-26.38232,26.38232
			c-14.53809,0-26.36523-11.83496-26.36523-26.38232C141.30273,151.61768,153.12988,139.78271,167.66797,139.78271z"/>
		<path fill="#909090" d="M52.62341,0H23.98267C15.37573,7.45288,7.36279,15.57129,0,24.25775v29.02277
			C14.08569,32.42969,31.96313,14.34576,52.62341,0z"/>
		<path fill="#909090" d="M334,246.18054v-64.93298c-7.6499,85.0531-79.3208,151.93701-166.33154,151.93701
			c-92.09521,0-167.02002-74.9248-167.02002-167.02002C0.64844,79.79285,66.55017,8.52484,150.71118,0H87.30957
			C48.92285,18.63605,17.92957,50.18915,0,88.97064v154.38788C18.47827,283.32703,50.83484,315.61377,90.85693,334H244.4729
			C283.547,316.04761,315.323,284.84863,334,246.18054z"/>
		<path fill="#909090" d="M0,279.04895v29.02283C7.92017,317.41589,16.60437,326.09009,25.9574,334h29.09167
			C33.35791,319.3999,14.6355,300.71362,0,279.04895z"/>
		<path fill="#6F6F6F" d="M167.66797,192.54688c14.54736,0,26.38232-11.83496,26.38232-26.38232
			c0-14.54688-11.83496-26.38184-26.38232-26.38184c-14.53809,0-26.36523,11.83496-26.36523,26.38184
			C141.30273,180.71191,153.12988,192.54688,167.66797,192.54688z M167.66797,157.37061c4.84912,0,8.79443,3.94482,8.79443,8.79395
			s-3.94531,8.79443-8.79443,8.79443c-4.83984,0-8.77734-3.94531-8.77734-8.79443S162.82812,157.37061,167.66797,157.37061z"/>
		<path fill="#6F6F6F" d="M167.66797,227.70605c33.93457,0,61.54199-27.60742,61.54199-61.5415s-27.60742-61.5415-61.54199-61.5415
			c-33.9248,0-61.52441,27.60742-61.52441,61.5415S133.74316,227.70605,167.66797,227.70605z M167.66797,122.21094
			c24.23633,0,43.9541,19.71777,43.9541,43.95361s-19.71777,43.95361-43.9541,43.95361
			c-24.22656,0-43.93652-19.71777-43.93652-43.95361S143.44141,122.21094,167.66797,122.21094z"/>
		<path fill="#6F6F6F" d="M167.66846,262.86572c53.32129,0,96.70117-43.37988,96.70117-96.70117
			c0-53.3208-43.37988-96.70068-96.70117-96.70068s-96.70117,43.37988-96.70117,96.70068
			C70.96729,219.48584,114.34717,262.86572,167.66846,262.86572z M167.66846,87.05176
			c43.62305,0,79.11328,35.48975,79.11328,79.11279s-35.49023,79.11328-79.11328,79.11328s-79.11328-35.49023-79.11328-79.11328
			S124.04541,87.05176,167.66846,87.05176z"/>
		<path fill="#6F6F6F" d="M167.66846,298.02539c72.70801,0,131.86035-59.15234,131.86035-131.86084
			c0-72.70801-59.15234-131.86035-131.86035-131.86035c-72.7085,0-131.86084,59.15234-131.86084,131.86035
			C35.80762,238.87305,94.95996,298.02539,167.66846,298.02539z M167.66846,51.89209
			c63.00977,0,114.27246,51.2627,114.27246,114.27246c0,63.01025-51.2627,114.27295-114.27246,114.27295
			c-63.01025,0-114.27295-51.2627-114.27295-114.27295C53.39551,103.15479,104.6582,51.89209,167.66846,51.89209z"/>
		<path fill="#6F6F6F" d="M0.64844,166.16455c0,92.09521,74.9248,167.02002,167.02002,167.02002
			c87.01074,0,158.68164-66.88391,166.33154-151.93701V151.0816C326.85327,71.62317,263.83252,8.02301,184.62573,0h-33.91455
			C66.55017,8.52484,0.64844,79.79285,0.64844,166.16455z M167.66846,16.73242c82.39697,0,149.43213,67.03516,149.43213,149.43213
			s-67.03516,149.43213-149.43213,149.43213S18.23633,248.56152,18.23633,166.16455S85.27148,16.73242,167.66846,16.73242z"/>
		<path fill="#6F6F6F" d="M0,243.35852v35.69043C14.6355,300.71362,33.35791,319.3999,55.04907,334h35.80786
			C50.83484,315.61377,18.47827,283.32703,0,243.35852z"/>
		<path fill="#6F6F6F" d="M334,86.14862V51.36969C320.12427,31.32654,302.72632,13.90387,282.7041,0h-34.6842
			C285.46973,18.1828,315.89111,48.65662,334,86.14862z"/>
		<path fill="#6F6F6F" d="M87.30957,0H52.62341C31.96313,14.34576,14.08569,32.42969,0,53.28052v35.69012
			C17.92957,50.18915,48.92285,18.63605,87.30957,0z"/>
		<path fill="#6F6F6F" d="M334,280.95972v-34.77917C315.323,284.84863,283.547,316.04761,244.4729,334h35.80566
			C301.32507,319.83276,319.56555,301.81006,334,280.95972z"/>
		<path fill="#6F6F6F" d="M334,309.6272c-7.56152,8.75586-15.80835,16.90149-24.64355,24.3728H334V309.6272z"/>
		<path fill="#6F6F6F" d="M23.98267,0H0v24.25775C7.36279,15.57129,15.37573,7.45288,23.98267,0z"/>
		<path fill="#6F6F6F" d="M334,22.70227V0h-22.6687C319.42554,7.00842,327.00195,14.59888,334,22.70227z"/>
		<path fill="#6F6F6F" d="M0,308.07178V334h25.9574C16.60437,326.09009,7.92017,317.41589,0,308.07178z"/>
	</g>
</g>
<g id="Layer_3" display="none">
</g>
<g id="Layer_2" display="none">
</g>
</svg>
