<?xml version="1.0" encoding="utf-8"?>
<!-- Generator: Adobe Illustrator 21.1.0, SVG Export Plug-In . SVG Version: 6.00 Build 0)  -->
<svg version="1.2" baseProfile="tiny" xmlns="http://www.w3.org/2000/svg" xmlns:xlink="http://www.w3.org/1999/xlink" x="0px"
	 y="0px" viewBox="0 0 334 334" xml:space="preserve">
<g id="Layer_1">
	<g>
		<path fill="#ADADAD" d="M3.31866,0H0v3.32422C1.09534,2.20532,2.20117,1.09692,3.31866,0z"/>
		<path fill="#ADADAD" d="M166.46582,27.90723c-76.22656,0-138.24072,62.02246-138.24072,138.25781
			s62.01416,138.25781,138.24072,138.25781c76.23584,0,138.25781-62.02246,138.25781-138.25781
			S242.70166,27.90723,166.46582,27.90723z M166.46582,300.63086c-74.14502,0-134.46631-60.32129-134.46631-134.46582
			S92.3208,31.69922,166.46582,31.69922s134.4668,60.32129,134.4668,134.46582S240.61084,300.63086,166.46582,300.63086z"/>
		<path fill="#ADADAD" d="M14.29211,0H8.7608C5.76184,2.84644,2.84204,5.7749,0,8.77808v5.53198
			C4.54865,9.33008,9.31903,4.55615,14.29211,0z"/>
		<path fill="#ADADAD" d="M334,126.23071v-14.04199C317.12305,59.89282,276.41467,18.21265,224.72797,0h-12.61951
			C272.34357,16.61377,319.45862,65.17334,334,126.23071z"/>
		<path fill="#ADADAD" d="M334,100.87964v-9.79468C316.03375,51.12451,284.18658,18.70923,244.63647,0h-9.32996
			C280.35919,18.76611,316.20312,55.33594,334,100.87964z"/>
		<path fill="#ADADAD" d="M25.75275,0h-5.78369C12.89825,6.23877,6.22736,12.9187,0,19.99976v5.79248
			C7.85431,16.49731,16.47003,7.86816,25.75275,0z"/>
		<path fill="#ADADAD" d="M166.44922,50.63965c-63.70117,0-115.52539,51.82422-115.52539,115.52539
			s51.82422,115.52539,115.52539,115.52539c63.70068,0,115.5249-51.82422,115.5249-115.52539S230.1499,50.63965,166.44922,50.63965z
			 M166.44922,277.89844c-61.61963,0-111.75098-50.12305-111.75098-111.7334s50.13135-111.7334,111.75098-111.7334
			c61.61035,0,111.73389,50.12305,111.73389,111.7334S228.05957,277.89844,166.44922,277.89844z"/>
		<path fill="#ADADAD" d="M50.50934,0h-6.46216C27.24054,12.40454,12.37799,27.29272,0,44.11938v6.47827
			C13.72119,30.90527,30.8418,13.75439,50.50934,0z"/>
		<path fill="#ADADAD" d="M166.46582,35.49023c-72.0542,0-130.67432,58.62109-130.67432,130.6748
			s58.62012,130.6748,130.67432,130.6748c72.05469,0,130.6748-58.62109,130.6748-130.6748S238.52051,35.49023,166.46582,35.49023z
			 M166.46582,293.04785c-69.97266,0-126.8999-56.91895-126.8999-126.88281S96.49316,39.28223,166.46582,39.28223
			c69.96387,0,126.88379,56.91895,126.88379,126.88281S236.42969,293.04785,166.46582,293.04785z"/>
		<path fill="#ADADAD" d="M166.48291,20.34082c-80.40771,0-145.82422,65.41699-145.82422,145.82422
			s65.4165,145.82422,145.82422,145.82422s145.82373-65.41699,145.82373-145.82422S246.89062,20.34082,166.48291,20.34082z
			 M166.46582,308.21387c-78.31689,0-142.03271-63.72266-142.03271-142.04883S88.14893,24.11621,166.46582,24.11621
			c78.32617,0,142.0498,63.72266,142.0498,142.04883S244.79199,308.21387,166.46582,308.21387z"/>
		<path fill="#ADADAD" d="M166.46582,43.07324c-67.88184,0-123.10791,55.21875-123.10791,123.0918
			s55.22607,123.0918,123.10791,123.0918c67.87305,0,123.0918-55.21875,123.0918-123.0918S234.33887,43.07324,166.46582,43.07324z
			 M166.44922,285.48145c-65.7915,0-119.31738-53.52539-119.31738-119.31641S100.65771,46.84863,166.44922,46.84863
			s119.31689,53.52539,119.31689,119.31641S232.24072,285.48145,166.44922,285.48145z"/>
		<path fill="#ADADAD" d="M64.29547,0h-7.0368C34.48364,15.00488,14.96423,34.55908,0,57.36304v7.03784
			C16.07336,38.2251,38.14844,16.11743,64.29547,0z"/>
		<path fill="#ADADAD" d="M37.7674,0h-6.08282C20.052,9.44775,9.42926,20.08887,0,31.73706v6.08911
			C10.93933,23.6792,23.63702,10.96045,37.7674,0z"/>
		<path fill="#ADADAD" d="M334,15.66943v-5.6001C330.77991,6.61426,327.46252,3.25146,324.03705,0h-5.55377
			C323.90625,4.96802,329.08337,10.19897,334,15.66943z"/>
		<path fill="#ADADAD" d="M334,27.25366V21.3855C327.42731,13.78613,320.33948,6.64624,312.80609,0h-5.79498
			C316.78052,8.28076,325.81842,17.39844,334,27.25366z"/>
		<path fill="#ADADAD" d="M334,4.55542V0h-4.52081C331.00598,1.49878,332.51465,3.01538,334,4.55542z"/>
		<path fill="#ADADAD" d="M334,183.5166v-34.70312C326.25195,73.39087,268.56439,12.55762,194.65045,0h-56.63501
			C67.36041,12.00537,11.54437,68.13403,0,138.94971v54.43066C12.2323,268.41626,74.17102,326.96338,150.79889,334h31.06683
			C261.82971,326.65771,325.81055,263.23633,334,183.5166z M166.49951,330.93066
			c-90.85205,0-164.76562-73.91309-164.76562-164.76562c0-90.85156,73.91357-164.76465,164.76562-164.76465
			s164.76562,73.91309,164.76562,164.76465C331.26514,257.01758,257.35156,330.93066,166.49951,330.93066z"/>
		<path fill="#ADADAD" d="M334,258.18848v-8.13672C315.78741,286.30273,286.16248,315.86475,249.86646,334h8.16559
			C289.98376,316.479,316.41284,290.09912,334,258.18848z"/>
		<path fill="#ADADAD" d="M334,220.14185v-14.04248C318.93744,269.34521,268.927,319.18921,205.58527,334h14.17828
			C273.80145,316.76245,316.58612,274.10181,334,220.14185z"/>
		<path fill="#ADADAD" d="M334,82.27832v-8.13599C316.96283,43.22998,291.62891,17.50684,261.01385,0h-7.88397
			C287.93811,18.25293,316.3363,47.11987,334,82.27832z"/>
		<path fill="#ADADAD" d="M166.49951,5.19141c-88.76123,0-160.97363,72.21289-160.97363,160.97363
			c0,88.76172,72.2124,160.97461,160.97363,160.97461s160.97363-72.21289,160.97363-160.97461
			C327.47314,77.4043,255.26074,5.19141,166.49951,5.19141z M166.48291,323.36426
			c-86.67041,0-157.18262-70.51953-157.18262-157.19922S79.8125,8.9668,166.48291,8.9668
			c86.67969,0,157.19922,70.51855,157.19922,157.19824S253.1626,323.36426,166.48291,323.36426z"/>
		<path fill="#ADADAD" d="M166.48291,12.75781c-84.58008,0-153.39062,68.81836-153.39062,153.40723
			c0,84.58984,68.81055,153.4082,153.39062,153.4082c84.58936,0,153.40723-68.81836,153.40723-153.4082
			C319.89014,81.57617,251.07227,12.75781,166.48291,12.75781z M166.48291,315.78027
			c-82.49854,0-149.61621-67.11719-149.61621-149.61523S83.98438,16.5498,166.48291,16.5498
			c82.49805,0,149.61572,67.11719,149.61572,149.61523S248.98096,315.78027,166.48291,315.78027z"/>
		<path fill="#ADADAD" d="M334,66.53101v-7.22852C318.87848,35.66431,298.89197,15.43018,275.4718,0h-7.04547
			C295.27661,16.55225,317.82837,39.42554,334,66.53101z"/>
		<path fill="#ADADAD" d="M334,52.42773v-6.59668C321.37909,28.30054,306.08063,12.82397,288.70703,0h-6.4859
			C302.49701,14.17969,320.07227,31.96509,334,52.42773z"/>
		<path fill="#ADADAD" d="M334,39.45459V33.271C324.26733,21.021,313.22162,9.86182,301.07935,0h-6.0929
			C309.65613,11.37964,322.78351,24.65332,334,39.45459z"/>
		<path fill="#ADADAD" d="M334,241.24512v-9.79419C315.65948,278.38623,278.1524,315.79028,231.15247,334h9.85822
			C282.23944,315.58691,315.48773,282.42017,334,241.24512z"/>
		<path fill="#ADADAD" d="M166.36523,133.96973c-17.75195,0-32.19434,14.44336-32.19434,32.19531
			s14.44238,32.19531,32.19434,32.19531s32.19434-14.44336,32.19434-32.19531S184.11719,133.96973,166.36523,133.96973z
			 M166.36523,194.56836c-15.6709,0-28.42041-12.74121-28.42041-28.40332s12.74951-28.40332,28.42041-28.40332
			c15.66162,0,28.40332,12.74121,28.40332,28.40332S182.02686,194.56836,166.36523,194.56836z"/>
		<path fill="#ADADAD" d="M166.38184,126.40332c-21.93359,0-39.77783,17.83691-39.77783,39.76172
			s17.84424,39.76172,39.77783,39.76172c21.92432,0,39.76123-17.83691,39.76123-39.76172S188.30615,126.40332,166.38184,126.40332z
			 M166.36523,202.15137c-19.84277,0-35.98633-16.14355-35.98633-35.98633s16.14355-35.98633,35.98633-35.98633
			s35.98633,16.14355,35.98633,35.98633S186.20801,202.15137,166.36523,202.15137z"/>
		<path fill="#ADADAD" d="M166.36523,141.55273c-13.58008,0-24.62842,11.04102-24.62842,24.6123s11.04834,24.6123,24.62842,24.6123
			c13.5708,0,24.61133-11.04102,24.61133-24.6123S179.93604,141.55273,166.36523,141.55273z M166.34863,187.00195
			c-11.48975,0-20.8374-9.34766-20.8374-20.83691s9.34766-20.83691,20.8374-20.83691c11.48926,0,20.83691,9.34766,20.83691,20.83691
			S177.83789,187.00195,166.34863,187.00195z"/>
		<path fill="#ADADAD" d="M166.34863,149.11914c-9.39893,0-17.04541,7.64648-17.04541,17.0459s7.64648,17.0459,17.04541,17.0459
			s17.04492-7.64648,17.04492-17.0459S175.74756,149.11914,166.34863,149.11914z M166.34863,179.41895
			c-7.31738,0-13.271-5.94531-13.271-13.25391c0-7.30762,5.95361-13.25293,13.271-13.25293
			c7.30811,0,13.25391,5.94531,13.25391,13.25293C179.60254,173.47363,173.65674,179.41895,166.34863,179.41895z"/>
		<path fill="#ADADAD" d="M166.38184,118.82031c-26.10547,0-47.34375,21.23926-47.34375,47.34473
			s21.23828,47.34473,47.34375,47.34473c26.10596,0,47.34424-21.23926,47.34424-47.34473S192.48779,118.82031,166.38184,118.82031z
			 M166.38184,209.71777c-24.02441,0-43.56982-19.53711-43.56982-43.55273s19.54541-43.55273,43.56982-43.55273
			c24.01514,0,43.55322,19.53711,43.55322,43.55273S190.39697,209.71777,166.38184,209.71777z"/>
		<path fill="#ADADAD" d="M166.34863,156.70312c-5.22705,0-9.479,4.24512-9.479,9.46191c0,5.21777,4.25195,9.46289,9.479,9.46289
			c5.21729,0,9.46191-4.24512,9.46191-9.46289C175.81055,160.94824,171.56592,156.70312,166.34863,156.70312z M166.33154,171.85254
			c-3.13574,0-5.6875-2.55078-5.6875-5.6875c0-3.13574,2.55176-5.68652,5.6875-5.68652s5.6875,2.55078,5.6875,5.68652
			C172.01904,169.30176,169.46729,171.85254,166.33154,171.85254z"/>
		<path fill="#ADADAD" d="M166.38184,111.2373c-30.27783,0-54.91016,24.64062-54.91016,54.92773
			s24.63232,54.92773,54.91016,54.92773c30.28711,0,54.92725-24.64062,54.92725-54.92773S196.66895,111.2373,166.38184,111.2373z
			 M166.38184,217.30078c-28.19629,0-51.13574-22.93945-51.13574-51.13574s22.93945-51.13574,51.13574-51.13574
			s51.13623,22.93945,51.13623,51.13574S194.57812,217.30078,166.38184,217.30078z"/>
		<path fill="#ADADAD" d="M166.41553,88.52148c-42.8125,0-77.64307,34.83105-77.64307,77.64355s34.83057,77.64355,77.64307,77.64355
			s77.64307-34.83105,77.64307-77.64355S209.22803,88.52148,166.41553,88.52148z M166.39893,240.0332
			c-40.72217,0-73.85205-33.13672-73.85205-73.86816s33.12988-73.86816,73.85205-73.86816
			c40.73096,0,73.86865,33.13672,73.86865,73.86816S207.12988,240.0332,166.39893,240.0332z"/>
		<path fill="#ADADAD" d="M166.41553,80.93848c-46.98486,0-85.20947,38.23242-85.20947,85.22656
			s38.22461,85.22656,85.20947,85.22656c46.99414,0,85.22607-38.23242,85.22607-85.22656S213.40967,80.93848,166.41553,80.93848z
			 M166.41553,247.59961c-44.90332,0-81.43506-36.53125-81.43506-81.43457s36.53174-81.43457,81.43506-81.43457
			s81.43506,36.53125,81.43506,81.43457S211.31885,247.59961,166.41553,247.59961z"/>
		<path fill="#ADADAD" d="M166.43213,73.37207c-51.17529,0-92.80908,41.62695-92.80908,92.79297
			s41.63379,92.79297,92.80908,92.79297c51.16602,0,92.79248-41.62695,92.79248-92.79297S217.59814,73.37207,166.43213,73.37207z
			 M166.41553,255.18262c-49.07568,0-89.00146-39.93262-89.00146-89.01758s39.92578-89.01758,89.00146-89.01758
			c49.08447,0,89.01807,39.93262,89.01807,89.01758S215.5,255.18262,166.41553,255.18262z"/>
		<path fill="#ADADAD" d="M79.56726,0h-7.8587C41.85132,17.07202,17.01593,41.95679,0,71.84839v7.88208
			C17.74115,45.7251,45.60327,17.81006,79.56726,0z"/>
		<path fill="#ADADAD" d="M166.39893,96.08789c-38.63135,0-70.06006,31.43652-70.06006,70.07715
			s31.42871,70.07715,70.06006,70.07715c38.64062,0,70.07666-31.43652,70.07666-70.07715S205.03955,96.08789,166.39893,96.08789z
			 M166.39893,232.4502c-36.5498,0-66.28564-29.73535-66.28564-66.28516s29.73584-66.28516,66.28564-66.28516
			s66.28516,29.73535,66.28516,66.28516S202.94873,232.4502,166.39893,232.4502z"/>
		<path fill="#ADADAD" d="M166.39893,103.6709c-34.45947,0-62.49365,28.03516-62.49365,62.49414
			s28.03418,62.49414,62.49365,62.49414c34.45898,0,62.49316-28.03516,62.49316-62.49414S200.85791,103.6709,166.39893,103.6709z
			 M166.38184,224.88379c-32.36816,0-58.70215-26.34082-58.70215-58.71875s26.33398-58.71875,58.70215-58.71875
			c32.37793,0,58.71924,26.34082,58.71924,58.71875S198.75977,224.88379,166.38184,224.88379z"/>
		<circle fill="#ADADAD" cx="166.33154" cy="166.16528" r="1.89575"/>
		<path fill="#ADADAD" d="M0,318.02002v5.53198c3.4035,3.59644,6.92682,7.07715,10.55438,10.448h5.58771
			C10.50018,328.9436,5.10889,323.61353,0,318.02002z"/>
		<path fill="#ADADAD" d="M166.44922,58.22266c-59.52881,0-107.95898,48.42285-107.95898,107.94238
			s48.43018,107.94238,107.95898,107.94238c59.51953,0,107.94189-48.42285,107.94189-107.94238
			S225.96875,58.22266,166.44922,58.22266z M166.43213,270.33203c-57.43799,0-104.16748-46.72852-104.16748-104.16699
			S108.99414,61.99805,166.43213,61.99805c57.43848,0,104.16797,46.72852,104.16797,104.16699
			S223.87061,270.33203,166.43213,270.33203z"/>
		<path fill="#ADADAD" d="M0,329.00586V334h5.02881C3.32593,332.36206,1.65265,330.69434,0,329.00586z"/>
		<path fill="#ADADAD" d="M0,211.27075v12.79956C18.19055,276.16821,60.2038,317.18311,112.92859,334h14.15302
			C65.48297,319.59521,16.49658,272.05127,0,211.27075z"/>
		<path fill="#ADADAD" d="M97.38422,0h-9.32361C49.44446,18.26733,18.17859,49.60449,0,88.27051v9.34473
			C18.21246,53.59131,53.40979,18.31519,97.38422,0z"/>
		<path fill="#ADADAD" d="M120.55914,0h-12.59546C57.57312,17.75415,17.61566,57.80908,0,108.26025v12.79932
			C15.90967,62.44141,62.04083,16.1416,120.55914,0z"/>
		<path fill="#ADADAD" d="M0,306.53784v5.79248C6.7843,320.04492,14.08887,327.29004,21.86963,334h5.8573
			C17.68628,325.69043,8.41064,316.49121,0,306.53784z"/>
		<path fill="#ADADAD" d="M0,252.59961v7.88281C17.57922,291.36377,43.505,316.90039,74.69067,334h8.14008
			C47.38843,316.2915,18.30615,287.68799,0,252.59961z"/>
		<path fill="#ADADAD" d="M0,234.71533v9.34424C18.74445,283.92896,51.40253,316.00903,91.6864,334h9.85236
			C55.63019,316.21484,18.78247,280.11743,0,234.71533z"/>
		<path fill="#ADADAD" d="M0,294.50391v6.08911C9.98743,312.93066,21.31024,324.14355,33.75702,334h6.18738
			C24.93872,322.66895,11.49872,309.37427,0,294.50391z"/>
		<path fill="#ADADAD" d="M0,267.92969v7.03735C15.52374,298.62354,35.94543,318.78906,59.82233,334h7.2384
			C39.70465,317.75488,16.6366,295.02246,0,267.92969z"/>
		<path fill="#ADADAD" d="M0,281.73242v6.47827C12.93744,305.79785,28.58691,321.27075,46.33539,334h6.58099
			C32.23474,319.97534,14.27942,302.22607,0,281.73242z"/>
		<path fill="#ADADAD" d="M334,273.02759v-7.22827C317.27661,293.82983,293.72809,317.33154,265.66125,334h7.24689
			C297.43707,318.37354,318.32874,297.52515,334,273.02759z"/>
		<path fill="#ADADAD" d="M334,299.05908v-6.18359C322.23108,308.40576,308.36017,322.25684,292.80963,334h6.1972
			C311.96857,323.7356,323.71533,312.00391,334,299.05908z"/>
		<path fill="#ADADAD" d="M334,286.49902v-6.59668C319.52258,301.17236,301.11041,319.55835,279.81409,334h6.60486
			C304.74017,320.85889,320.82733,304.7959,334,286.49902z"/>
		<path fill="#ADADAD" d="M334,310.94458v-5.86816c-8.73224,10.5188-18.43085,20.20728-28.96307,28.92358h5.86841
			C319.15338,326.8877,326.87549,319.18188,334,310.94458z"/>
		<path fill="#ADADAD" d="M334,322.26074v-5.6001c-5.47205,6.08838-11.27045,11.87598-17.36682,17.33936h5.61029
			C326.30182,330.229,330.22296,326.31348,334,322.26074z"/>
		<path fill="#ADADAD" d="M334,333.19873v-5.42407c-2.03851,2.11353-4.11469,4.1897-6.23096,6.22534h5.42395
			C333.46191,333.73267,333.73236,333.46729,334,333.19873z"/>
		<path fill="#ADADAD" d="M166.43213,65.78906c-55.34717,0-100.37549,45.02832-100.37549,100.37598
			s45.02832,100.37598,100.37549,100.37598c55.34766,0,100.37598-45.02832,100.37598-100.37598
			S221.77979,65.78906,166.43213,65.78906z M166.43213,262.74902c-53.26611,0-96.60107-43.32715-96.60107-96.58398
			s43.33496-96.58398,96.60107-96.58398c53.25684,0,96.58447,43.32715,96.58447,96.58398S219.68896,262.74902,166.43213,262.74902z"
			/>
		<path fill="#525252" d="M166.33154,160.47852c-3.13574,0-5.6875,2.55078-5.6875,5.68652c0,3.13672,2.55176,5.6875,5.6875,5.6875
			s5.6875-2.55078,5.6875-5.6875C172.01904,163.0293,169.46729,160.47852,166.33154,160.47852z M166.33154,168.06152
			c-1.04541,0-1.89551-0.85059-1.89551-1.89648c0-1.04492,0.8501-1.89551,1.89551-1.89551s1.89551,0.85059,1.89551,1.89551
			C168.22705,167.21094,167.37695,168.06152,166.33154,168.06152z"/>
		<path fill="#525252" d="M166.34863,152.91211c-7.31738,0-13.271,5.94531-13.271,13.25293
			c0,7.30859,5.95361,13.25391,13.271,13.25391c7.30811,0,13.25391-5.94531,13.25391-13.25391
			C179.60254,158.85742,173.65674,152.91211,166.34863,152.91211z M166.34863,175.62793c-5.22705,0-9.479-4.24512-9.479-9.46289
			c0-5.2168,4.25195-9.46191,9.479-9.46191c5.21729,0,9.46191,4.24512,9.46191,9.46191
			C175.81055,171.38281,171.56592,175.62793,166.34863,175.62793z"/>
		<path fill="#525252" d="M166.34863,145.32812c-11.48975,0-20.8374,9.34766-20.8374,20.83691s9.34766,20.83691,20.8374,20.83691
			c11.48926,0,20.83691-9.34766,20.83691-20.83691S177.83789,145.32812,166.34863,145.32812z M166.34863,183.21094
			c-9.39893,0-17.04541-7.64648-17.04541-17.0459s7.64648-17.0459,17.04541-17.0459s17.04492,7.64648,17.04492,17.0459
			S175.74756,183.21094,166.34863,183.21094z"/>
		<path fill="#525252" d="M166.36523,137.76172c-15.6709,0-28.42041,12.74121-28.42041,28.40332
			s12.74951,28.40332,28.42041,28.40332c15.66162,0,28.40332-12.74121,28.40332-28.40332S182.02686,137.76172,166.36523,137.76172z
			 M166.36523,190.77734c-13.58008,0-24.62842-11.04102-24.62842-24.6123s11.04834-24.6123,24.62842-24.6123
			c13.5708,0,24.61133,11.04102,24.61133,24.6123S179.93604,190.77734,166.36523,190.77734z"/>
		<path fill="#525252" d="M166.36523,130.17871c-19.84277,0-35.98633,16.14355-35.98633,35.98633
			s16.14355,35.98633,35.98633,35.98633s35.98633-16.14355,35.98633-35.98633S186.20801,130.17871,166.36523,130.17871z
			 M166.36523,198.36035c-17.75195,0-32.19434-14.44336-32.19434-32.19531s14.44238-32.19531,32.19434-32.19531
			s32.19434,14.44336,32.19434,32.19531S184.11719,198.36035,166.36523,198.36035z"/>
		<path fill="#525252" d="M166.38184,122.6123c-24.02441,0-43.56982,19.53711-43.56982,43.55273
			s19.54541,43.55273,43.56982,43.55273c24.01514,0,43.55322-19.53711,43.55322-43.55273S190.39697,122.6123,166.38184,122.6123z
			 M166.38184,205.92676c-21.93359,0-39.77783-17.83691-39.77783-39.76172s17.84424-39.76172,39.77783-39.76172
			c21.92432,0,39.76123,17.83691,39.76123,39.76172S188.30615,205.92676,166.38184,205.92676z"/>
		<path fill="#525252" d="M166.38184,115.0293c-28.19629,0-51.13574,22.93945-51.13574,51.13574
			s22.93945,51.13574,51.13574,51.13574s51.13623-22.93945,51.13623-51.13574S194.57812,115.0293,166.38184,115.0293z
			 M166.38184,213.50977c-26.10547,0-47.34375-21.23926-47.34375-47.34473s21.23828-47.34473,47.34375-47.34473
			c26.10596,0,47.34424,21.23926,47.34424,47.34473S192.48779,213.50977,166.38184,213.50977z"/>
		<path fill="#525252" d="M166.38184,107.44629c-32.36816,0-58.70215,26.34082-58.70215,58.71875
			s26.33398,58.71875,58.70215,58.71875c32.37793,0,58.71924-26.34082,58.71924-58.71875S198.75977,107.44629,166.38184,107.44629z
			 M166.38184,221.09277c-30.27783,0-54.91016-24.64062-54.91016-54.92773s24.63232-54.92773,54.91016-54.92773
			c30.28711,0,54.92725,24.64062,54.92725,54.92773S196.66895,221.09277,166.38184,221.09277z"/>
		<path fill="#525252" d="M166.39893,99.87988c-36.5498,0-66.28564,29.73535-66.28564,66.28516s29.73584,66.28516,66.28564,66.28516
			s66.28516-29.73535,66.28516-66.28516S202.94873,99.87988,166.39893,99.87988z M166.39893,228.65918
			c-34.45947,0-62.49365-28.03516-62.49365-62.49414s28.03418-62.49414,62.49365-62.49414
			c34.45898,0,62.49316,28.03516,62.49316,62.49414S200.85791,228.65918,166.39893,228.65918z"/>
		<path fill="#525252" d="M166.39893,92.29688c-40.72217,0-73.85205,33.13672-73.85205,73.86816
			s33.12988,73.86816,73.85205,73.86816c40.73096,0,73.86865-33.13672,73.86865-73.86816S207.12988,92.29688,166.39893,92.29688z
			 M166.39893,236.24219c-38.63135,0-70.06006-31.43652-70.06006-70.07715s31.42871-70.07715,70.06006-70.07715
			c38.64062,0,70.07666,31.43652,70.07666,70.07715S205.03955,236.24219,166.39893,236.24219z"/>
		<path fill="#525252" d="M166.41553,84.73047c-44.90332,0-81.43506,36.53125-81.43506,81.43457
			s36.53174,81.43457,81.43506,81.43457s81.43506-36.53125,81.43506-81.43457S211.31885,84.73047,166.41553,84.73047z
			 M166.41553,243.80859c-42.8125,0-77.64307-34.83105-77.64307-77.64355s34.83057-77.64355,77.64307-77.64355
			s77.64307,34.83105,77.64307,77.64355S209.22803,243.80859,166.41553,243.80859z"/>
		<path fill="#525252" d="M166.41553,77.14746c-49.07568,0-89.00146,39.93262-89.00146,89.01758
			s39.92578,89.01758,89.00146,89.01758c49.08447,0,89.01807-39.93262,89.01807-89.01758S215.5,77.14746,166.41553,77.14746z
			 M166.41553,251.3916c-46.98486,0-85.20947-38.23242-85.20947-85.22656s38.22461-85.22656,85.20947-85.22656
			c46.99414,0,85.22607,38.23242,85.22607,85.22656S213.40967,251.3916,166.41553,251.3916z"/>
		<path fill="#525252" d="M166.43213,69.58105c-53.26611,0-96.60107,43.32715-96.60107,96.58398
			s43.33496,96.58398,96.60107,96.58398c53.25684,0,96.58447-43.32715,96.58447-96.58398S219.68896,69.58105,166.43213,69.58105z
			 M166.43213,258.95801c-51.17529,0-92.80908-41.62695-92.80908-92.79297s41.63379-92.79297,92.80908-92.79297
			c51.16602,0,92.79248,41.62695,92.79248,92.79297S217.59814,258.95801,166.43213,258.95801z"/>
		<path fill="#525252" d="M166.43213,61.99805c-57.43799,0-104.16748,46.72852-104.16748,104.16699
			s46.72949,104.16699,104.16748,104.16699c57.43848,0,104.16797-46.72852,104.16797-104.16699
			S223.87061,61.99805,166.43213,61.99805z M166.43213,266.54102c-55.34717,0-100.37549-45.02832-100.37549-100.37598
			S111.08496,65.78906,166.43213,65.78906c55.34766,0,100.37598,45.02832,100.37598,100.37598
			S221.77979,266.54102,166.43213,266.54102z"/>
		<path fill="#525252" d="M166.44922,54.43164c-61.61963,0-111.75098,50.12305-111.75098,111.7334
			s50.13135,111.7334,111.75098,111.7334c61.61035,0,111.73389-50.12305,111.73389-111.7334S228.05957,54.43164,166.44922,54.43164z
			 M166.44922,274.10742c-59.52881,0-107.95898-48.42285-107.95898-107.94238S106.92041,58.22266,166.44922,58.22266
			c59.51953,0,107.94189,48.42285,107.94189,107.94238S225.96875,274.10742,166.44922,274.10742z"/>
		<path fill="#525252" d="M166.44922,46.84863c-65.7915,0-119.31738,53.52539-119.31738,119.31641
			s53.52588,119.31641,119.31738,119.31641s119.31689-53.52539,119.31689-119.31641S232.24072,46.84863,166.44922,46.84863z
			 M166.44922,281.69043c-63.70117,0-115.52539-51.82422-115.52539-115.52539S102.74805,50.63965,166.44922,50.63965
			c63.70068,0,115.5249,51.82422,115.5249,115.52539S230.1499,281.69043,166.44922,281.69043z"/>
		<path fill="#525252" d="M166.46582,39.28223c-69.97266,0-126.8999,56.91895-126.8999,126.88281
			s56.92725,126.88281,126.8999,126.88281c69.96387,0,126.88379-56.91895,126.88379-126.88281
			S236.42969,39.28223,166.46582,39.28223z M166.46582,289.25684c-67.88184,0-123.10791-55.21875-123.10791-123.0918
			s55.22607-123.0918,123.10791-123.0918c67.87305,0,123.0918,55.21875,123.0918,123.0918S234.33887,289.25684,166.46582,289.25684z
			"/>
		<path fill="#525252" d="M166.46582,31.69922c-74.14502,0-134.46631,60.32129-134.46631,134.46582
			S92.3208,300.63086,166.46582,300.63086s134.4668-60.32129,134.4668-134.46582S240.61084,31.69922,166.46582,31.69922z
			 M166.46582,296.83984c-72.0542,0-130.67432-58.62109-130.67432-130.6748s58.62012-130.6748,130.67432-130.6748
			c72.05469,0,130.6748,58.62109,130.6748,130.6748S238.52051,296.83984,166.46582,296.83984z"/>
		<path fill="#525252" d="M166.46582,24.11621c-78.31689,0-142.03271,63.72266-142.03271,142.04883
			s63.71582,142.04883,142.03271,142.04883c78.32617,0,142.0498-63.72266,142.0498-142.04883S244.79199,24.11621,166.46582,24.11621
			z M166.46582,304.42285c-76.22656,0-138.24072-62.02246-138.24072-138.25781S90.23926,27.90723,166.46582,27.90723
			c76.23584,0,138.25781,62.02246,138.25781,138.25781S242.70166,304.42285,166.46582,304.42285z"/>
		<path fill="#525252" d="M166.48291,16.5498c-82.49854,0-149.61621,67.11719-149.61621,149.61523
			s67.11768,149.61523,149.61621,149.61523c82.49805,0,149.61572-67.11719,149.61572-149.61523S248.98096,16.5498,166.48291,16.5498
			z M166.48291,311.98926c-80.40771,0-145.82422-65.41699-145.82422-145.82422S86.0752,20.34082,166.48291,20.34082
			s145.82373,65.41699,145.82373,145.82422S246.89062,311.98926,166.48291,311.98926z"/>
		<path fill="#525252" d="M166.48291,8.9668C79.8125,8.9668,9.30029,79.48535,9.30029,166.16504
			S79.8125,323.36426,166.48291,323.36426c86.67969,0,157.19922-70.51953,157.19922-157.19922S253.1626,8.9668,166.48291,8.9668z
			 M166.48291,319.57324c-84.58008,0-153.39062-68.81836-153.39062-153.4082c0-84.58887,68.81055-153.40723,153.39062-153.40723
			c84.58936,0,153.40723,68.81836,153.40723,153.40723C319.89014,250.75488,251.07227,319.57324,166.48291,319.57324z"/>
		<path fill="#525252" d="M166.49951,1.40039c-90.85205,0-164.76562,73.91309-164.76562,164.76465
			c0,90.85254,73.91357,164.76562,164.76562,164.76562s164.76562-73.91309,164.76562-164.76562
			C331.26514,75.31348,257.35156,1.40039,166.49951,1.40039z M166.49951,327.13965
			c-88.76123,0-160.97363-72.21289-160.97363-160.97461c0-88.76074,72.2124-160.97363,160.97363-160.97363
			S327.47314,77.4043,327.47314,166.16504C327.47314,254.92676,255.26074,327.13965,166.49951,327.13965z"/>
		<path fill="#525252" d="M0,193.38037v17.89038C16.49658,272.05127,65.48297,319.59521,127.0816,334h23.71729
			C74.17102,326.96338,12.2323,268.41626,0,193.38037z"/>
		<path fill="#525252" d="M334,148.81348v-22.58276C319.45862,65.17334,272.34357,16.61377,212.10846,0h-17.45801
			C268.56439,12.55762,326.25195,73.39087,334,148.81348z"/>
		<path fill="#525252" d="M138.01544,0h-17.4563C62.04083,16.1416,15.90967,62.44141,0,121.05957v17.89014
			C11.54437,68.13403,67.36041,12.00537,138.01544,0z"/>
		<path fill="#525252" d="M334,206.09937V183.5166C325.81055,263.23633,261.82971,326.65771,181.86572,334h23.71954
			C268.927,319.18921,318.93744,269.34521,334,206.09937z"/>
		<path fill="#525252" d="M107.96368,0H97.38422C53.40979,18.31519,18.21246,53.59131,0,97.61523v10.64502
			C17.61566,57.80908,57.57312,17.75415,107.96368,0z"/>
		<path fill="#525252" d="M334,231.45093v-11.30908C316.58612,274.10181,273.80145,316.76245,219.76355,334h11.38892
			C278.1524,315.79028,315.65948,278.38623,334,231.45093z"/>
		<path fill="#525252" d="M0,224.07031v10.64502C18.78247,280.11743,55.63019,316.21484,101.53876,334h11.38983
			C60.2038,317.18311,18.19055,276.16821,0,224.07031z"/>
		<path fill="#525252" d="M334,112.18872v-11.30908C316.20312,55.33594,280.35919,18.76611,235.30652,0h-10.57855
			C276.41467,18.21265,317.12305,59.89282,334,112.18872z"/>
		<path fill="#525252" d="M334,250.05176v-8.80664c-18.51227,41.17505-51.76056,74.3418-92.98932,92.75488h8.85577
			C286.16248,315.86475,315.78741,286.30273,334,250.05176z"/>
		<path fill="#525252" d="M0,244.05957v8.54004C18.30615,287.68799,47.38843,316.2915,82.83075,334h8.85565
			C51.40253,316.00903,18.74445,283.92896,0,244.05957z"/>
		<path fill="#525252" d="M334,91.08496v-8.80664C316.3363,47.11987,287.93811,18.25293,253.12988,0h-8.49341
			C284.18658,18.70923,316.03375,51.12451,334,91.08496z"/>
		<path fill="#525252" d="M88.06061,0h-8.49335C45.60327,17.81006,17.74115,45.7251,0,79.73047v8.54004
			C18.17859,49.60449,49.44446,18.26733,88.06061,0z"/>
		<path fill="#525252" d="M334,265.79932v-7.61084C316.41284,290.09912,289.98376,316.479,258.03204,334h7.62921
			C293.72809,317.33154,317.27661,293.82983,334,265.79932z"/>
		<path fill="#525252" d="M71.70856,0h-7.41309C38.14844,16.11743,16.07336,38.2251,0,64.40088v7.44751
			C17.01593,41.95679,41.85132,17.07202,71.70856,0z"/>
		<path fill="#525252" d="M334,74.14233v-7.61133C317.82837,39.42554,295.27661,16.55225,268.42633,0h-7.41248
			C291.62891,17.50684,316.96283,43.22998,334,74.14233z"/>
		<path fill="#525252" d="M0,260.48242v7.44727C16.6366,295.02246,39.70465,317.75488,67.06073,334h7.62994
			C43.505,316.90039,17.57922,291.36377,0,260.48242z"/>
		<path fill="#525252" d="M57.25867,0h-6.74933C30.8418,13.75439,13.72119,30.90527,0,50.59766v6.76538
			C14.96423,34.55908,34.48364,15.00488,57.25867,0z"/>
		<path fill="#525252" d="M0,274.96704v6.76538C14.27942,302.22607,32.23474,319.97534,52.91638,334h6.90594
			C35.94543,318.78906,15.52374,298.62354,0,274.96704z"/>
		<path fill="#525252" d="M334,279.90234v-6.87476C318.32874,297.52515,297.43707,318.37354,272.90814,334h6.90594
			C301.11041,319.55835,319.52258,301.17236,334,279.90234z"/>
		<path fill="#525252" d="M334,59.30249v-6.87476C320.07227,31.96509,302.49701,14.17969,282.22113,0h-6.74933
			C298.89197,15.43018,318.87848,35.66431,334,59.30249z"/>
		<path fill="#525252" d="M334,45.83105v-6.37646C322.78351,24.65332,309.65613,11.37964,294.98645,0h-6.27942
			C306.08063,12.82397,321.37909,28.30054,334,45.83105z"/>
		<path fill="#525252" d="M334,292.87549v-6.37646C320.82733,304.7959,304.74017,320.85889,286.41895,334h6.39069
			C308.36017,322.25684,322.23108,308.40576,334,292.87549z"/>
		<path fill="#525252" d="M0,288.21069v6.29321C11.49872,309.37427,24.93872,322.66895,39.9444,334h6.39099
			C28.58691,321.27075,12.93744,305.79785,0,288.21069z"/>
		<path fill="#525252" d="M44.04718,0H37.7674C23.63702,10.96045,10.93933,23.6792,0,37.82617v6.29321
			C12.37799,27.29272,27.24054,12.40454,44.04718,0z"/>
		<path fill="#525252" d="M334,305.07642v-6.01733C323.71533,312.00391,311.96857,323.7356,299.00684,334h6.03009
			C315.56915,325.28369,325.26776,315.59521,334,305.07642z"/>
		<path fill="#525252" d="M334,33.271v-6.01733C325.81842,17.39844,316.78052,8.28076,307.01111,0h-5.93176
			C313.22162,9.86182,324.26733,21.021,334,33.271z"/>
		<path fill="#525252" d="M0,300.59302v5.94482C8.41064,316.49121,17.68628,325.69043,27.72693,334h6.03009
			C21.31024,324.14355,9.98743,312.93066,0,300.59302z"/>
		<path fill="#525252" d="M31.68457,0h-5.93182C16.47003,7.86816,7.85431,16.49731,0,25.79224v5.94482
			C9.42926,20.08887,20.052,9.44775,31.68457,0z"/>
		<path fill="#525252" d="M334,21.3855v-5.71606C329.08337,10.19897,323.90625,4.96802,318.48328,0h-5.67719
			C320.33948,6.64624,327.42731,13.78613,334,21.3855z"/>
		<path fill="#525252" d="M19.96906,0h-5.67694C9.31903,4.55615,4.54865,9.33008,0,14.31006v5.6897
			C6.22736,12.9187,12.89825,6.23877,19.96906,0z"/>
		<path fill="#525252" d="M334,316.66064v-5.71606c-7.12451,8.2373-14.84662,15.94312-23.09467,23.05542h5.72784
			C322.72955,328.53662,328.52795,322.74902,334,316.66064z"/>
		<path fill="#525252" d="M0,312.33032v5.6897C5.10889,323.61353,10.50018,328.9436,16.14209,334h5.72754
			C14.08887,327.29004,6.7843,320.04492,0,312.33032z"/>
		<path fill="#525252" d="M334,327.77466v-5.51392c-3.77704,4.05273-7.69818,7.96826-11.75653,11.73926h5.52557
			C329.88531,331.96436,331.96149,329.88818,334,327.77466z"/>
		<path fill="#525252" d="M8.7608,0H3.31866C2.20117,1.09692,1.09534,2.20532,0,3.32422v5.45386
			C2.84204,5.7749,5.76184,2.84644,8.7608,0z"/>
		<path fill="#525252" d="M334,10.06934V4.55542C332.51465,3.01538,331.00598,1.49878,329.47919,0h-5.44214
			C327.46252,3.25146,330.77991,6.61426,334,10.06934z"/>
		<path fill="#525252" d="M0,323.552v5.45386c1.65265,1.68848,3.32593,3.3562,5.02881,4.99414h5.52557
			C6.92682,330.62915,3.4035,327.14844,0,323.552z"/>
		<path fill="#525252" d="M334,333.19873c-0.26764,0.26855-0.53809,0.53394-0.80701,0.80127H334V333.19873z"/>
	</g>
</g>
<g id="Layer_3" display="none">
</g>
<g id="Layer_2" display="none">
</g>
</svg>
