<?xml version="1.0" encoding="utf-8"?>
<!-- Generator: Adobe Illustrator 21.1.0, SVG Export Plug-In . SVG Version: 6.00 Build 0)  -->
<svg version="1.2" baseProfile="tiny" xmlns="http://www.w3.org/2000/svg" xmlns:xlink="http://www.w3.org/1999/xlink" x="0px"
	 y="0px" viewBox="0 0 334 334" xml:space="preserve">
<g id="Layer_1">
	<g>
		<path fill="#909090" d="M0,197.37415v65.64545C16.77759,292.35516,41.03345,316.88165,70.14795,334h61.73572
			C64.69165,319.57324,12.08569,265.3949,0,197.37415z"/>
		<path fill="#909090" d="M0,303.04626V334h30.67188C19.43823,324.74042,9.16431,314.36053,0,303.04626z"/>
		<path fill="#909090" d="M167.66797,19.90625c-81.38428,0-147.59473,66.21094-147.59473,147.59473
			S86.28369,315.0957,167.66797,315.0957s147.59521-66.21094,147.59521-147.59473S249.05225,19.90625,167.66797,19.90625z
			 M167.66797,292.37988c-68.86768,0-124.89551-56.02051-124.89551-124.87891S98.80029,42.62207,167.66797,42.62207
			c68.85889,0,124.87939,56.02051,124.87939,124.87891S236.52686,292.37988,167.66797,292.37988z"/>
		<path fill="#909090" d="M136.89404,0H71.85059C41.9762,17.15619,17.10474,42.07483,0,71.98236v65.64545
			C12.38464,67.92462,67.31689,12.75171,136.89404,0z"/>
		<path fill="#909090" d="M167.66797,65.32129c-56.35107,0-102.19629,45.8374-102.19629,102.17969
			s45.84521,102.17969,102.19629,102.17969c56.34229,0,102.18018-45.8374,102.18018-102.17969
			S224.01025,65.32129,167.66797,65.32129z M167.66797,246.96484c-43.82568,0-79.48047-35.64746-79.48047-79.46387
			s35.65479-79.46387,79.48047-79.46387c43.81689,0,79.46436,35.64746,79.46436,79.46387S211.48486,246.96484,167.66797,246.96484z"
			/>
		<path fill="#909090" d="M167.66797,156.15137c-6.26758,0-11.36621,5.09131-11.36621,11.34961s5.09863,11.34961,11.36621,11.34961
			c6.2583,0,11.34961-5.09131,11.34961-11.34961S173.92627,156.15137,167.66797,156.15137z"/>
		<path fill="#909090" d="M334,30.30023V0h-30.57861C314.58667,9.06641,324.83972,19.21454,334,30.30023z"/>
		<path fill="#909090" d="M167.66797,110.73633c-31.30908,0-56.78125,25.46436-56.78125,56.76465
			s25.47217,56.76465,56.78125,56.76465c31.30029,0,56.76514-25.46436,56.76514-56.76465S198.96826,110.73633,167.66797,110.73633z
			 M167.66797,201.5498c-18.78369,0-34.06543-15.27441-34.06543-34.04883s15.28174-34.04883,34.06543-34.04883
			c18.77441,0,34.04883,15.27441,34.04883,34.04883S186.44238,201.5498,167.66797,201.5498z"/>
		<path fill="#909090" d="M334,265.30377v-61.25116C319.7561,268.92126,268.4292,320.04889,203.45239,334h61.73633
			C293.54272,317.32874,317.28198,293.6272,334,265.30377z"/>
		<path fill="#909090" d="M304.66479,334H334v-29.29828C325.17871,315.37714,315.35107,325.19147,304.66479,334z"/>
		<path fill="#909090" d="M31.91528,0H0v31.95569C9.49927,20.22784,20.19946,9.51349,31.91528,0z"/>
		<path fill="#909090" d="M334,130.94934V69.69818C316.94739,40.80768,292.59521,16.71667,263.48621,0h-65.04431
			C265.78076,12.34143,319.39185,64.42145,334,130.94934z"/>
		<path fill="#6F6F6F" d="M167.66797,133.45215c-18.78369,0-34.06543,15.27441-34.06543,34.04883
			s15.28174,34.04883,34.06543,34.04883c18.77441,0,34.04883-15.27441,34.04883-34.04883S186.44238,133.45215,167.66797,133.45215z
			 M167.66797,178.85059c-6.26758,0-11.36621-5.09131-11.36621-11.34961s5.09863-11.34961,11.36621-11.34961
			c6.2583,0,11.34961,5.09131,11.34961,11.34961S173.92627,178.85059,167.66797,178.85059z"/>
		<path fill="#6F6F6F" d="M167.66797,88.03711c-43.82568,0-79.48047,35.64746-79.48047,79.46387
			s35.65479,79.46387,79.48047,79.46387c43.81689,0,79.46436-35.64746,79.46436-79.46387S211.48486,88.03711,167.66797,88.03711z
			 M167.66797,224.26562c-31.30908,0-56.78125-25.46436-56.78125-56.76465s25.47217-56.76465,56.78125-56.76465
			c31.30029,0,56.76514,25.46436,56.76514,56.76465S198.96826,224.26562,167.66797,224.26562z"/>
		<path fill="#6F6F6F" d="M167.66797,42.62207c-68.86768,0-124.89551,56.02051-124.89551,124.87891
			s56.02783,124.87891,124.89551,124.87891c68.85889,0,124.87939-56.02051,124.87939-124.87891
			S236.52686,42.62207,167.66797,42.62207z M167.66797,269.68066c-56.35107,0-102.19629-45.8374-102.19629-102.17969
			S111.31689,65.32129,167.66797,65.32129c56.34229,0,102.18018,45.8374,102.18018,102.17969
			S224.01025,269.68066,167.66797,269.68066z"/>
		<path fill="#6F6F6F" d="M334,204.05261v-73.10327C319.39185,64.42145,265.78076,12.34143,198.44189,0h-61.54785
			C67.31689,12.75171,12.38464,67.92462,0,137.62781v59.74634C12.08569,265.3949,64.69165,319.57324,131.88367,334h71.56873
			C268.4292,320.04889,319.7561,268.92126,334,204.05261z M167.66797,315.0957c-81.38428,0-147.59473-66.21094-147.59473-147.59473
			S86.28369,19.90625,167.66797,19.90625s147.59521,66.21094,147.59521,147.59473S249.05225,315.0957,167.66797,315.0957z"/>
		<path fill="#6F6F6F" d="M0,263.01959v40.02667C9.16431,314.36053,19.43823,324.74042,30.67188,334h39.47607
			C41.03345,316.88165,16.77759,292.35516,0,263.01959z"/>
		<path fill="#6F6F6F" d="M334,304.70172v-39.39795C317.28198,293.6272,293.54272,317.32874,265.18872,334h39.47607
			C315.35107,325.19147,325.17871,315.37714,334,304.70172z"/>
		<path fill="#6F6F6F" d="M334,69.69818V30.30023C324.83972,19.21454,314.58667,9.06641,303.42139,0h-39.93518
			C292.59521,16.71667,316.94739,40.80768,334,69.69818z"/>
		<path fill="#6F6F6F" d="M71.85059,0h-39.9353C20.19946,9.51349,9.49927,20.22784,0,31.95569v40.02667
			C17.10474,42.07483,41.9762,17.15619,71.85059,0z"/>
	</g>
</g>
<g id="Layer_3" display="none">
</g>
<g id="Layer_2" display="none">
</g>
</svg>
