<?xml version="1.0" encoding="utf-8"?>
<!-- Generator: Adobe Illustrator 21.1.0, SVG Export Plug-In . SVG Version: 6.00 Build 0)  -->
<svg version="1.2" baseProfile="tiny" xmlns="http://www.w3.org/2000/svg" xmlns:xlink="http://www.w3.org/1999/xlink" x="0px"
	 y="0px" viewBox="0 0 334 334" xml:space="preserve">
<g id="Layer_1">
	<g>
		<path fill="#9B9B9B" d="M166.99951,120.07227c-26.15186,0-47.42773,21.27637-47.42773,47.42871
			c0,26.15137,21.27588,47.42773,47.42773,47.42773s47.42822-21.27637,47.42822-47.42773
			C214.42773,141.34863,193.15137,120.07227,166.99951,120.07227z M166.99951,204.38867
			c-20.33984,0-36.8877-16.54785-36.8877-36.8877c0-20.34082,16.54785-36.88867,36.8877-36.88867
			c20.34033,0,36.88818,16.54785,36.88818,36.88867C203.8877,187.84082,187.33984,204.38867,166.99951,204.38867z"/>
		<path fill="#9B9B9B" d="M334,89.26587V66.95801C317.40918,39.50391,294.24023,16.4563,266.69641,0h-22.53284
			C283.58557,18.2334,315.52173,49.98047,334,89.26587z"/>
		<path fill="#9B9B9B" d="M14.54504,0H0v14.50781C4.63,9.45825,9.48035,4.61389,14.54504,0z"/>
		<path fill="#9B9B9B" d="M167,98.99414c-37.7749,0-68.50732,30.73242-68.50732,68.50684S129.2251,236.00781,167,236.00781
			s68.50684-30.73242,68.50684-68.50684S204.7749,98.99414,167,98.99414z M166.99951,225.46777
			c-31.96289,0-57.9668-26.00391-57.9668-57.9668c0-31.96387,26.00391-57.96777,57.9668-57.96777
			c31.96338,0,57.96729,26.00391,57.96729,57.96777C224.9668,199.46387,198.96289,225.46777,166.99951,225.46777z"/>
		<path fill="#9B9B9B" d="M334,14.50891V0h-14.54602C324.51904,4.61426,329.36975,9.45886,334,14.50891z"/>
		<path fill="#9B9B9B" d="M167,77.91504c-49.39795,0-89.58643,40.18848-89.58643,89.58594S117.60205,257.08691,167,257.08691
			s89.58594-40.18848,89.58594-89.58594S216.39795,77.91504,167,77.91504z M167,246.54688
			c-43.58643,0-79.04639-35.45996-79.04639-79.0459S123.41357,88.45508,167,88.45508s79.0459,35.45996,79.0459,79.0459
			S210.58643,246.54688,167,246.54688z"/>
		<path fill="#9B9B9B" d="M334,47.85059V30.56763C324.81482,19.38599,314.52771,9.14478,303.31177,0h-17.3479
			C304.48694,13.19385,320.73169,29.38428,334,47.85059z"/>
		<path fill="#9B9B9B" d="M0,245.73706v22.30762C16.2547,294.94214,38.81897,317.61633,65.62976,334h22.06409
			C49.25653,315.61792,18.14294,284.30884,0,245.73706z"/>
		<path fill="#9B9B9B" d="M89.83575,0H67.30298C39.75952,16.45605,16.59088,39.50342,0,66.95715v22.30774
			C18.47839,49.97974,50.41425,18.23315,89.83575,0z"/>
		<path fill="#9B9B9B" d="M0,287.15186v17.28345C8.84875,315.20728,18.71454,325.11279,29.45367,334h17.20935
			C28.71252,320.99023,12.93756,305.15784,0,287.15186z"/>
		<circle fill="#9B9B9B" cx="166.99951" cy="167.50073" r="5.27002"/>
		<path fill="#9B9B9B" d="M166.99951,141.15137c-14.52881,0-26.34863,11.82031-26.34863,26.34961
			c0,14.52832,11.81982,26.34863,26.34863,26.34863s26.34912-11.82031,26.34912-26.34863
			C193.34863,152.97168,181.52832,141.15137,166.99951,141.15137z M166.99951,183.30957
			c-8.71729,0-15.80908-7.0918-15.80908-15.80859c0-8.71777,7.0918-15.80957,15.80908-15.80957s15.80908,7.0918,15.80908,15.80957
			C182.80859,176.21777,175.7168,183.30957,166.99951,183.30957z"/>
		<path fill="#9B9B9B" d="M48.03546,0H30.68732C19.47174,9.14453,9.18494,19.38525,0,30.56641v17.28345
			C13.26813,29.38379,29.5127,13.1936,48.03546,0z"/>
		<path fill="#9B9B9B" d="M334,320.4928c-4.29907,4.68884-8.79517,9.19312-13.47009,13.5072H334V320.4928z"/>
		<path fill="#9B9B9B" d="M334,304.43408v-17.28284C321.06226,305.15747,305.28711,320.98999,287.33643,334h17.20898
			C315.28491,325.11255,325.151,315.20654,334,304.43408z"/>
		<path fill="#9B9B9B" d="M334,268.04382v-22.30786C315.85706,284.30835,284.74329,315.6178,246.30542,334h22.06421
			C295.18066,317.61621,317.74536,294.94165,334,268.04382z"/>
		<path fill="#9B9B9B" d="M0,320.4939V334h13.46912C8.79456,329.68628,4.29883,325.18237,0,320.4939z"/>
		<path fill="#9B9B9B" d="M334,216.03882v-97.07568C317.25696,61.44946,271.54761,16.15479,213.78833,0H120.211
			C62.45245,16.15466,16.74347,61.44873,0,118.96143v97.0791C16.41064,272.40991,60.64825,317.0376,116.78278,334h100.43378
			C273.35181,317.03735,317.58984,272.40906,334,216.03882z M167,330.8623c-90.07861,0-163.3623-73.2832-163.3623-163.36133
			S76.92139,4.13867,167,4.13867c90.07812,0,163.36182,73.28418,163.36182,163.3623S257.07812,330.8623,167,330.8623z"/>
		<path fill="#9B9B9B" d="M167,35.75684c-72.64404,0-131.74414,59.10059-131.74414,131.74414S94.35596,299.24512,167,299.24512
			c72.64355,0,131.74365-59.10059,131.74365-131.74414S239.64355,35.75684,167,35.75684z M167,288.70508
			c-66.83252,0-121.2041-54.37207-121.2041-121.2041S100.16748,46.29688,167,46.29688s121.2041,54.37207,121.2041,121.2041
			S233.83252,288.70508,167,288.70508z"/>
		<path fill="#9B9B9B" d="M167,14.67773c-84.26709,0-152.82324,68.55664-152.82324,152.82324S82.73291,320.32324,167,320.32324
			c84.2666,0,152.82275-68.55566,152.82275-152.82227S251.2666,14.67773,167,14.67773z M167,309.78418
			c-78.45557,0-142.2832-63.82812-142.2832-142.2832S88.54443,25.21777,167,25.21777
			c78.45508,0,142.28271,63.82812,142.28271,142.2832S245.45508,309.78418,167,309.78418z"/>
		<path fill="#9B9B9B" d="M167,56.83594c-61.021,0-110.66504,49.64453-110.66504,110.66504S105.979,278.16602,167,278.16602
			s110.66504-49.64453,110.66504-110.66504S228.021,56.83594,167,56.83594z M167,267.62598
			c-55.20947,0-100.12549-44.91602-100.12549-100.125S111.79053,67.37598,167,67.37598s100.125,44.91602,100.125,100.125
			S222.20947,267.62598,167,267.62598z"/>
		<path fill="#646464" d="M166.99951,151.69141c-8.71729,0-15.80908,7.0918-15.80908,15.80957
			c0,8.7168,7.0918,15.80859,15.80908,15.80859s15.80908-7.0918,15.80908-15.80859
			C182.80859,158.7832,175.7168,151.69141,166.99951,151.69141z M166.99951,172.77051c-2.90576,0-5.27002-2.36426-5.27002-5.26953
			c0-2.90625,2.36426-5.27051,5.27002-5.27051s5.27002,2.36426,5.27002,5.27051
			C172.26953,170.40625,169.90527,172.77051,166.99951,172.77051z"/>
		<path fill="#646464" d="M166.99951,130.6123c-20.33984,0-36.8877,16.54785-36.8877,36.88867
			c0,20.33984,16.54785,36.8877,36.8877,36.8877c20.34033,0,36.88818-16.54785,36.88818-36.8877
			C203.8877,147.16016,187.33984,130.6123,166.99951,130.6123z M166.99951,193.84961
			c-14.52881,0-26.34863-11.82031-26.34863-26.34863c0-14.5293,11.81982-26.34961,26.34863-26.34961
			s26.34912,11.82031,26.34912,26.34961C193.34863,182.0293,181.52832,193.84961,166.99951,193.84961z"/>
		<path fill="#646464" d="M166.99951,109.5332c-31.96289,0-57.9668,26.00391-57.9668,57.96777
			c0,31.96289,26.00391,57.9668,57.9668,57.9668c31.96338,0,57.96729-26.00391,57.96729-57.9668
			C224.9668,135.53711,198.96289,109.5332,166.99951,109.5332z M166.99951,214.92871
			c-26.15186,0-47.42773-21.27637-47.42773-47.42773c0-26.15234,21.27588-47.42871,47.42773-47.42871
			s47.42822,21.27637,47.42822,47.42871C214.42773,193.65234,193.15137,214.92871,166.99951,214.92871z"/>
		<path fill="#646464" d="M167,88.45508c-43.58643,0-79.04639,35.45996-79.04639,79.0459s35.45996,79.0459,79.04639,79.0459
			s79.0459-35.45996,79.0459-79.0459S210.58643,88.45508,167,88.45508z M167,236.00781
			c-37.7749,0-68.50732-30.73242-68.50732-68.50684S129.2251,98.99414,167,98.99414s68.50684,30.73242,68.50684,68.50684
			S204.7749,236.00781,167,236.00781z"/>
		<path fill="#646464" d="M167,67.37598c-55.20947,0-100.12549,44.91602-100.12549,100.125S111.79053,267.62598,167,267.62598
			s100.125-44.91602,100.125-100.125S222.20947,67.37598,167,67.37598z M167,257.08691
			c-49.39795,0-89.58643-40.18848-89.58643-89.58594S117.60205,77.91504,167,77.91504s89.58594,40.18848,89.58594,89.58594
			S216.39795,257.08691,167,257.08691z"/>
		<path fill="#646464" d="M167,46.29688c-66.83252,0-121.2041,54.37207-121.2041,121.2041S100.16748,288.70508,167,288.70508
			s121.2041-54.37207,121.2041-121.2041S233.83252,46.29688,167,46.29688z M167,278.16602
			c-61.021,0-110.66504-49.64453-110.66504-110.66504S105.979,56.83594,167,56.83594s110.66504,49.64453,110.66504,110.66504
			S228.021,278.16602,167,278.16602z"/>
		<path fill="#646464" d="M167,25.21777c-78.45557,0-142.2832,63.82812-142.2832,142.2832S88.54443,309.78418,167,309.78418
			c78.45508,0,142.28271-63.82812,142.28271-142.2832S245.45508,25.21777,167,25.21777z M167,299.24512
			c-72.64404,0-131.74414-59.10059-131.74414-131.74414S94.35596,35.75684,167,35.75684
			c72.64355,0,131.74365,59.10059,131.74365,131.74414S239.64355,299.24512,167,299.24512z"/>
		<path fill="#646464" d="M167,4.13867c-90.07861,0-163.3623,73.28418-163.3623,163.3623S76.92139,330.8623,167,330.8623
			c90.07812,0,163.36182-73.2832,163.36182-163.36133S257.07812,4.13867,167,4.13867z M167,320.32324
			c-84.26709,0-152.82324-68.55566-152.82324-152.82227S82.73291,14.67773,167,14.67773
			c84.2666,0,152.82275,68.55664,152.82275,152.82324S251.2666,320.32324,167,320.32324z"/>
		<path fill="#646464" d="M334,118.96313V89.26587C315.52173,49.98047,283.58557,18.2334,244.16357,0h-30.37524
			C271.54761,16.15479,317.25696,61.44946,334,118.96313z"/>
		<path fill="#646464" d="M120.211,0H89.83575C50.41425,18.23315,18.47839,49.97974,0,89.26489v29.69653
			C16.74347,61.44873,62.45245,16.15466,120.211,0z"/>
		<path fill="#646464" d="M0,216.04053v29.69653C18.14294,284.30884,49.25653,315.61792,87.69385,334h29.08893
			C60.64825,317.0376,16.41064,272.40991,0,216.04053z"/>
		<path fill="#646464" d="M334,245.73596v-29.69714C317.58984,272.40906,273.35181,317.03735,217.21655,334h29.08887
			C284.74329,315.6178,315.85706,284.30835,334,245.73596z"/>
		<path fill="#646464" d="M334,66.95801V47.85059C320.73169,29.38428,304.48694,13.19385,285.96387,0h-19.26746
			C294.24023,16.4563,317.40918,39.50391,334,66.95801z"/>
		<path fill="#646464" d="M0,268.04468v19.10718C12.93756,305.15784,28.71252,320.99023,46.66302,334h18.96674
			C38.81897,317.61633,16.2547,294.94214,0,268.04468z"/>
		<path fill="#646464" d="M334,287.15125v-19.10742C317.74536,294.94165,295.18066,317.61621,268.36963,334h18.9668
			C305.28711,320.98999,321.06226,305.15747,334,287.15125z"/>
		<path fill="#646464" d="M67.30298,0H48.03546C29.5127,13.1936,13.26813,29.38379,0,47.84985v19.1073
			C16.59088,39.50342,39.75952,16.45605,67.30298,0z"/>
		<path fill="#646464" d="M334,320.4928v-16.05872c-8.849,10.77246-18.71509,20.67847-29.45459,29.56592h15.9845
			C325.20483,329.68591,329.70093,325.18164,334,320.4928z"/>
		<path fill="#646464" d="M334,30.56763V14.50891C329.36975,9.45886,324.51904,4.61426,319.45398,0h-16.14221
			C314.52771,9.14478,324.81482,19.38599,334,30.56763z"/>
		<path fill="#646464" d="M30.68732,0H14.54504C9.48035,4.61389,4.63,9.45825,0,14.50781v16.05859
			C9.18494,19.38525,19.47174,9.14453,30.68732,0z"/>
		<path fill="#646464" d="M0,304.4353v16.05859c4.29883,4.68848,8.79456,9.19238,13.46912,13.5061h15.98456
			C18.71454,325.11279,8.84875,315.20728,0,304.4353z"/>
	</g>
</g>
<g id="Layer_3" display="none">
</g>
<g id="Layer_2" display="none">
</g>
</svg>
