<?xml version="1.0" encoding="utf-8"?>
<!-- Generator: Adobe Illustrator 21.1.0, SVG Export Plug-In . SVG Version: 6.00 Build 0)  -->
<svg version="1.2" baseProfile="tiny" xmlns="http://www.w3.org/2000/svg" xmlns:xlink="http://www.w3.org/1999/xlink" x="0px"
	 y="0px" viewBox="0 0 334 334" xml:space="preserve">
<g id="Layer_1">
	<g>
		<path fill="#FFFFFF" d="M167,210.11816c24.23584,0,43.95361-19.71777,43.95361-43.95361S191.23584,122.21094,167,122.21094
			c-24.22705,0-43.93701,19.71777-43.93701,43.95361S142.77295,210.11816,167,210.11816z M167,139.78271
			c14.54688,0,26.38184,11.83496,26.38184,26.38184c0,14.54736-11.83496,26.38232-26.38184,26.38232
			c-14.53809,0-26.36523-11.83496-26.36523-26.38232C140.63477,151.61768,152.46191,139.78271,167,139.78271z"/>
		<path fill="#FFFFFF" d="M150.04266,0H86.64117C48.72705,18.40656,18.02594,49.41406,0,87.54132v77.04584
			C0.7981,78.92786,66.39557,8.47278,150.04266,0z"/>
		<path fill="#FFFFFF" d="M51.95496,0H23.31427C14.96814,7.22705,7.17847,15.07819,0,23.46741v28.84576
			C13.98206,31.87201,31.61664,14.12219,51.95496,0z"/>
		<path fill="#FFFFFF" d="M167,174.95898c4.84912,0,8.79395-3.94531,8.79395-8.79443s-3.94482-8.79395-8.79395-8.79395
			c-4.83984,0-8.77734,3.94482-8.77734,8.79395S162.16016,174.95898,167,174.95898z"/>
		<path fill="#FFFFFF" d="M0,280.01636v28.8457C7.73895,317.90637,16.19934,326.31299,25.28894,334h29.09174
			C33.01471,319.6189,14.53638,301.26782,0,280.01636z"/>
		<path fill="#FFFFFF" d="M334,244.75562v-77.01367c-0.85132,91.37036-75.43213,165.44263-167,165.44263
			S0.85132,259.1123,0,167.74194v77.0459C18.58453,284.09668,50.64465,315.8335,90.18854,334H243.8045
			C283.35559,315.82849,315.41943,284.07922,334,244.75562z"/>
		<path fill="#FFFFFF" d="M334,308.83728v-28.84045C319.46277,301.25671,300.98114,319.6145,279.61029,334h29.07794
			C317.78674,326.30591,326.2547,317.89087,334,308.83728z"/>
		<path fill="#FFFFFF" d="M167,315.59668c82.39697,0,149.43213-67.03516,149.43213-149.43213S249.39697,16.73242,167,16.73242
			S17.56787,83.76758,17.56787,166.16455S84.60303,315.59668,167,315.59668z M167,34.3042
			c72.70801,0,131.86035,59.15234,131.86035,131.86035c0,72.7085-59.15234,131.86084-131.86035,131.86084
			c-72.7085,0-131.86084-59.15234-131.86084-131.86084C35.13916,93.45654,94.2915,34.3042,167,34.3042z"/>
		<path fill="#FFFFFF" d="M167,245.27783c43.62305,0,79.11328-35.49023,79.11328-79.11328S210.62305,87.05176,167,87.05176
			s-79.11328,35.48975-79.11328,79.11279S123.37695,245.27783,167,245.27783z M167,104.62305
			c33.93408,0,61.5415,27.60742,61.5415,61.5415s-27.60742,61.5415-61.5415,61.5415c-33.9248,0-61.5249-27.60742-61.5249-61.5415
			S133.0752,104.62305,167,104.62305z"/>
		<path fill="#FFFFFF" d="M167,280.4375c63.00977,0,114.27246-51.2627,114.27246-114.27295
			c0-63.00977-51.2627-114.27246-114.27246-114.27246c-63.01025,0-114.27295,51.2627-114.27295,114.27246
			C52.72705,229.1748,103.98975,280.4375,167,280.4375z M167,69.46387c53.32129,0,96.70117,43.37988,96.70117,96.70068
			c0,53.32129-43.37988,96.70117-96.70117,96.70117s-96.70117-43.37988-96.70117-96.70117
			C70.29883,112.84375,113.67871,69.46387,167,69.46387z"/>
		<path fill="#FFFFFF" d="M334,52.3327V23.49225C326.81512,15.09369,319.01794,7.23419,310.66302,0h-28.62726
			C302.37891,14.12671,320.01697,31.8833,334,52.3327z"/>
		<path fill="#FFFFFF" d="M334,164.58716V87.57355C315.97778,49.43158,285.27289,18.41174,247.35156,0h-63.39423
			C267.60443,8.47278,333.2019,78.92786,334,164.58716z"/>
		<path d="M167,227.70605c33.93408,0,61.5415-27.60742,61.5415-61.5415s-27.60742-61.5415-61.5415-61.5415
			c-33.9248,0-61.5249,27.60742-61.5249,61.5415S133.0752,227.70605,167,227.70605z M167,122.21094
			c24.23584,0,43.95361,19.71777,43.95361,43.95361S191.23584,210.11816,167,210.11816
			c-24.22705,0-43.93701-19.71777-43.93701-43.95361S142.77295,122.21094,167,122.21094z"/>
		<path d="M167,262.86572c53.32129,0,96.70117-43.37988,96.70117-96.70117c0-53.3208-43.37988-96.70068-96.70117-96.70068
			s-96.70117,43.37988-96.70117,96.70068C70.29883,219.48584,113.67871,262.86572,167,262.86572z M167,87.05176
			c43.62305,0,79.11328,35.48975,79.11328,79.11279S210.62305,245.27783,167,245.27783s-79.11328-35.49023-79.11328-79.11328
			S123.37695,87.05176,167,87.05176z"/>
		<path d="M167,298.02539c72.70801,0,131.86035-59.15234,131.86035-131.86084C298.86035,93.45654,239.70801,34.3042,167,34.3042
			c-72.7085,0-131.86084,59.15234-131.86084,131.86035C35.13916,238.87305,94.2915,298.02539,167,298.02539z M167,51.89209
			c63.00977,0,114.27246,51.2627,114.27246,114.27246c0,63.01025-51.2627,114.27295-114.27246,114.27295
			c-63.01025,0-114.27295-51.2627-114.27295-114.27295C52.72705,103.15479,103.98975,51.89209,167,51.89209z"/>
		<path d="M167,333.18457c91.56787,0,166.14868-74.07227,167-165.44263v-3.15479C333.2019,78.92786,267.60443,8.47278,183.95734,0
			h-33.91467C66.39557,8.47278,0.7981,78.92786,0,164.58716v3.15479C0.85132,259.1123,75.43213,333.18457,167,333.18457z
			 M167,16.73242c82.39697,0,149.43213,67.03516,149.43213,149.43213S249.39697,315.59668,167,315.59668
			S17.56787,248.56152,17.56787,166.16455S84.60303,16.73242,167,16.73242z"/>
		<path d="M334,279.99683v-35.24121C315.41943,284.07922,283.35559,315.82849,243.8045,334h35.80579
			C300.98114,319.6145,319.46277,301.25671,334,279.99683z"/>
		<path d="M334,87.57355V52.3327C320.01697,31.8833,302.37891,14.12671,282.03577,0h-34.6842
			C285.27289,18.41174,315.97778,49.43158,334,87.57355z"/>
		<path d="M86.64117,0H68.50159H51.95496C31.61664,14.12219,13.98206,31.87201,0,52.31317v35.22815
			C18.02594,49.41406,48.72705,18.40656,86.64117,0z"/>
		<path d="M0,244.78784v35.22852C14.53638,301.26782,33.01471,319.6189,54.38068,334h35.80786
			C50.64465,315.8335,18.58453,284.09668,0,244.78784z"/>
		<path d="M334,308.83728c-7.7453,9.05359-16.21326,17.46863-25.31177,25.16272H334V308.83728z"/>
		<path d="M23.31427,0H0v23.46741C7.17847,15.07819,14.96814,7.22705,23.31427,0z"/>
		<path d="M334,23.49225V0h-23.33698C319.01794,7.23419,326.81512,15.09369,334,23.49225z"/>
		<path d="M0,308.86206V334h25.28894C16.19934,326.31299,7.73895,317.90637,0,308.86206z"/>
		<path d="M167,192.54688c14.54688,0,26.38184-11.83496,26.38184-26.38232c0-14.54688-11.83496-26.38184-26.38184-26.38184
			c-14.53809,0-26.36523,11.83496-26.36523,26.38184C140.63477,180.71191,152.46191,192.54688,167,192.54688z M167,157.37061
			c4.84912,0,8.79395,3.94482,8.79395,8.79395s-3.94482,8.79443-8.79395,8.79443c-4.83984,0-8.77734-3.94531-8.77734-8.79443
			S162.16016,157.37061,167,157.37061z"/>
	</g>
</g>
<g id="Layer_3" display="none">
</g>
<g id="Layer_2" display="none">
</g>
</svg>
