<?xml version="1.0" standalone="no"?>
<!DOCTYPE svg PUBLIC "-//W3C//DTD SVG 20010904//EN"
 "http://www.w3.org/TR/2001/REC-SVG-20010904/DTD/svg10.dtd">
<svg version="1.0" xmlns="http://www.w3.org/2000/svg"
 width="1536.000000pt" height="1536.000000pt" viewBox="0 0 1536.000000 1536.000000"
 preserveAspectRatio="xMidYMid meet">
<metadata>
Created by potrace 1.11, written by Peter Selinger 2001-2013
</metadata>
<g transform="translate(0.000000,1536.000000) scale(0.100000,-0.100000)"
fill="#000000" stroke="none">
<path d="M1870 15310 c0 -27 -4 -50 -10 -50 -5 0 -10 -7 -10 -15 0 -9 -8 -19
-17 -22 -10 -4 -27 -17 -39 -30 -12 -13 -26 -23 -32 -23 -5 0 -20 -11 -33 -25
-13 -13 -27 -25 -32 -25 -4 0 -24 -18 -46 -40 -21 -22 -43 -40 -48 -40 -5 0
-23 -16 -40 -35 -17 -19 -36 -35 -42 -35 -6 0 -28 -18 -48 -40 -21 -22 -42
-40 -46 -40 -5 0 -38 -29 -74 -65 -36 -36 -70 -65 -77 -65 -6 -1 -22 -15 -36
-32 -14 -17 -33 -38 -44 -47 -23 -20 -96 -93 -117 -117 -20 -23 -57 -54 -65
-54 -7 0 -124 -117 -124 -124 0 -8 -31 -45 -54 -65 -24 -21 -97 -94 -117 -117
-9 -11 -30 -30 -47 -44 -17 -14 -31 -30 -32 -36 0 -7 -29 -41 -65 -77 -36 -36
-65 -69 -65 -74 0 -4 -18 -25 -40 -46 -22 -20 -40 -42 -40 -48 0 -6 -16 -25
-35 -42 -19 -17 -35 -35 -35 -40 0 -5 -18 -27 -40 -48 -22 -22 -40 -42 -40
-46 0 -5 -12 -19 -25 -32 -14 -13 -25 -28 -25 -33 0 -6 -11 -21 -25 -34 -14
-13 -25 -27 -25 -31 0 -5 -8 -16 -18 -24 -9 -9 -28 -30 -42 -47 -22 -27 -32
-31 -72 -32 l-48 0 1 -1957 c1 -1077 5 -1947 9 -1933 4 14 8 37 9 53 1 15 5
27 11 27 5 0 12 23 16 50 4 27 10 50 15 50 5 0 11 23 15 50 4 28 10 50 15 50
5 0 11 23 15 50 4 28 10 50 14 50 4 0 13 29 20 65 7 36 16 65 21 65 4 0 11 20
15 45 3 25 10 45 14 45 5 0 11 18 15 40 4 22 10 40 14 40 4 0 13 29 20 65 7
36 17 65 21 65 4 0 10 18 14 40 3 22 10 40 15 40 5 0 12 18 16 40 4 22 11 40
15 40 5 0 12 16 16 35 3 19 10 35 14 35 5 0 14 23 21 50 7 28 16 50 20 50 3 0
9 18 13 40 3 22 10 40 15 40 5 0 12 11 15 25 4 14 11 25 16 25 5 0 13 18 16
40 4 22 10 40 15 40 4 0 14 18 20 40 7 22 16 40 20 40 4 0 10 14 14 30 4 17
10 30 15 30 5 0 11 14 15 30 4 17 10 30 14 30 4 0 13 18 20 40 6 22 16 40 21
40 4 0 11 14 15 30 4 17 11 30 15 30 5 0 12 16 16 35 3 19 10 35 14 35 5 0 11
14 15 30 4 17 10 30 15 30 4 0 13 14 20 30 7 17 16 30 20 30 5 0 11 14 15 30
4 17 11 30 16 30 5 0 9 6 9 13 0 8 9 24 20 37 11 13 20 29 20 37 0 7 4 13 8
13 4 0 14 17 21 37 8 21 20 43 27 51 8 7 14 20 14 28 0 8 5 14 10 14 6 0 10 6
10 13 0 8 11 27 25 43 14 16 25 35 25 42 0 6 5 12 10 12 6 0 10 6 10 13 0 12
9 26 50 74 5 7 10 17 10 22 0 6 6 14 13 18 6 4 19 22 27 38 8 17 21 36 28 43
6 7 12 19 12 27 0 7 7 15 15 19 8 3 15 12 15 20 0 7 7 16 15 20 8 3 15 12 15
21 0 8 4 15 9 15 5 0 14 14 20 30 5 17 15 30 20 30 6 0 11 7 11 15 0 9 7 18
15 21 8 4 15 12 15 19 0 6 10 24 23 38 35 40 57 70 57 80 0 4 11 18 25 31 14
13 25 28 25 34 0 6 9 16 19 22 11 5 23 20 27 32 4 12 20 33 35 47 16 14 29 29
29 34 0 4 13 20 29 35 16 15 32 36 35 48 3 11 17 27 31 34 14 7 27 22 31 32 3
11 20 35 37 54 18 19 55 59 82 90 28 31 58 63 68 72 9 9 17 21 17 27 1 5 14
21 30 35 17 13 30 30 30 37 0 7 5 13 10 13 12 0 150 135 150 146 0 9 67 74 75
74 11 0 155 149 155 160 0 6 5 10 11 10 7 0 27 15 44 33 18 17 45 41 59 51 15
11 49 40 76 65 100 93 119 109 138 115 10 4 25 17 32 31 7 14 23 28 34 31 12
3 33 19 48 35 15 16 30 29 34 29 4 0 22 16 41 35 19 19 40 35 48 35 8 0 19 9
25 20 6 11 16 20 22 20 6 0 21 11 34 25 13 14 27 25 31 25 9 0 44 24 73 52 10
9 27 19 38 22 11 4 23 13 26 21 3 8 12 15 21 15 8 0 15 5 15 11 0 5 14 15 30
20 17 6 30 15 30 20 0 5 7 9 15 9 9 0 18 7 21 15 4 8 13 15 20 15 8 0 17 7 20
15 4 8 12 15 19 15 8 0 20 6 27 13 7 6 27 19 43 27 17 8 34 21 38 27 4 7 12
13 18 13 5 0 15 5 22 10 48 41 62 50 72 50 7 0 15 6 18 14 3 8 19 17 36 21 17
4 31 11 31 16 0 5 7 9 15 9 9 0 18 7 21 15 4 8 12 15 19 15 8 0 20 6 27 13 7
7 28 19 46 26 17 7 32 17 32 21 0 4 12 11 26 14 15 4 32 12 40 19 34 30 44 37
68 43 14 3 26 9 26 13 0 5 18 14 40 21 22 7 40 17 40 21 0 4 14 10 30 14 17 4
30 11 30 16 0 5 7 9 15 9 9 0 18 6 21 14 3 8 19 18 35 21 16 4 29 10 29 15 0
4 23 14 50 21 28 7 50 16 50 20 0 4 14 10 30 14 17 4 30 10 30 15 0 5 14 11
30 15 17 4 30 10 30 14 0 4 18 13 40 20 22 6 40 16 40 20 0 5 16 11 35 14 19
3 42 13 51 21 8 9 26 16 40 16 13 0 24 4 24 10 0 5 16 12 35 16 19 3 35 10 35
14 0 4 22 13 50 20 28 7 50 16 50 20 0 4 16 11 35 14 19 4 35 11 35 16 0 5 16
12 35 16 19 3 35 10 35 14 0 4 19 10 42 13 24 3 44 10 46 16 2 6 30 16 63 23
32 6 59 15 59 19 0 4 18 10 40 14 22 4 40 10 40 15 0 4 20 11 45 14 25 4 45
11 45 16 0 4 32 14 70 21 39 7 70 16 70 20 0 4 23 10 50 14 28 4 50 11 50 15
0 4 23 11 50 15 28 4 50 11 50 15 0 5 12 11 28 13 15 2 -836 5 -1890 6 l-1918
1 0 -50z"/>
<path d="M9703 15353 c9 -2 17 -8 17 -13 0 -5 25 -12 55 -15 30 -4 55 -11 55
-16 0 -4 23 -11 50 -15 28 -4 50 -10 50 -14 0 -4 29 -13 65 -20 36 -7 65 -16
65 -21 0 -4 20 -11 45 -15 25 -3 45 -10 45 -14 0 -4 16 -11 35 -14 19 -4 35
-11 35 -16 0 -4 32 -14 70 -21 39 -7 70 -15 70 -19 0 -4 18 -10 40 -14 22 -3
40 -10 40 -15 0 -5 16 -12 35 -15 19 -4 35 -11 35 -16 0 -5 16 -12 35 -16 19
-3 35 -10 35 -14 0 -4 23 -13 50 -20 28 -7 50 -16 50 -20 0 -5 20 -12 45 -16
25 -3 45 -10 45 -15 0 -4 16 -11 35 -15 19 -3 35 -10 35 -14 0 -5 14 -11 30
-15 17 -4 30 -10 30 -14 0 -4 18 -14 40 -21 22 -7 40 -17 40 -21 0 -4 14 -10
30 -14 17 -4 30 -10 30 -15 0 -4 16 -11 35 -14 19 -4 35 -10 35 -14 0 -5 16
-14 35 -21 19 -7 35 -17 35 -22 0 -5 11 -9 25 -9 14 0 28 -7 31 -15 3 -8 21
-17 40 -21 19 -3 34 -10 34 -14 0 -5 14 -11 30 -15 17 -4 30 -10 30 -13 0 -4
15 -14 33 -21 17 -8 38 -21 45 -28 7 -7 20 -13 28 -13 8 0 14 -4 14 -10 0 -5
6 -10 13 -10 8 0 24 -9 37 -20 13 -11 29 -20 37 -20 7 0 13 -4 13 -9 0 -5 12
-11 28 -14 15 -3 38 -15 51 -26 13 -12 30 -21 38 -21 7 0 13 -4 13 -10 0 -5 6
-10 13 -10 8 0 24 -9 36 -19 13 -11 36 -23 52 -26 16 -4 29 -11 29 -16 0 -5 7
-9 15 -9 8 0 19 -9 25 -20 6 -11 17 -20 25 -20 8 0 15 -4 15 -10 0 -5 11 -12
25 -16 14 -3 25 -10 25 -15 0 -5 6 -9 13 -9 7 0 23 -11 35 -25 12 -14 29 -25
37 -25 8 0 15 -4 15 -10 0 -5 7 -10 15 -10 8 0 27 -12 43 -27 15 -16 40 -34
55 -40 15 -7 27 -17 27 -23 0 -5 7 -10 15 -10 8 0 15 -7 15 -15 0 -8 9 -15 19
-15 11 0 26 -7 35 -15 8 -8 18 -15 23 -15 8 0 53 -34 84 -65 9 -8 19 -15 23
-15 11 0 36 -27 36 -39 0 -5 15 -15 34 -21 19 -6 37 -17 40 -25 3 -8 11 -15
17 -15 6 0 22 -11 35 -25 13 -14 27 -25 31 -25 5 0 16 -8 24 -17 25 -28 58
-53 69 -53 6 0 13 -7 16 -15 4 -8 11 -15 16 -15 12 0 58 -42 58 -52 0 -10 38
-48 46 -48 4 0 22 -15 40 -32 52 -52 81 -78 88 -78 4 0 17 -11 30 -25 13 -14
28 -25 34 -25 6 0 15 -6 19 -13 4 -6 20 -18 36 -26 15 -8 30 -26 34 -40 4 -14
48 -67 99 -117 50 -51 95 -101 99 -113 3 -12 12 -21 20 -21 7 0 20 -6 27 -13
7 -7 21 -16 31 -20 9 -3 17 -13 17 -22 0 -8 4 -15 8 -15 13 0 52 -36 52 -48 0
-6 14 -13 30 -17 24 -5 30 -12 30 -33 1 -30 21 -62 39 -62 6 0 11 -4 11 -10 0
-5 14 -23 30 -40 17 -17 30 -35 30 -39 0 -5 9 -11 20 -14 13 -3 20 -14 20 -30
0 -14 7 -27 15 -31 8 -3 15 -12 15 -21 0 -10 14 -17 39 -21 32 -5 42 -12 50
-35 6 -16 17 -29 27 -29 9 0 14 -6 11 -14 -5 -13 25 -46 43 -46 6 0 10 -13 10
-30 0 -31 19 -80 31 -80 4 0 10 -11 13 -25 4 -14 11 -25 16 -25 6 0 10 -9 10
-20 0 -11 7 -20 15 -20 8 0 15 -5 15 -10 0 -6 11 -16 25 -22 14 -6 25 -16 25
-21 0 -5 11 -20 25 -33 14 -13 25 -28 25 -34 0 -5 6 -10 14 -10 7 0 16 -9 19
-20 3 -11 12 -20 21 -20 10 0 18 -13 22 -37 4 -21 13 -44 21 -51 7 -7 13 -24
13 -38 0 -13 5 -24 10 -24 6 0 10 -7 10 -15 0 -9 7 -18 15 -21 18 -7 20 -30 3
-37 -10 -4 -10 -6 -1 -6 20 -1 80 -67 87 -94 3 -15 15 -27 31 -31 37 -9 66
-43 72 -84 3 -20 12 -41 20 -45 7 -4 13 -15 13 -22 0 -8 4 -15 9 -15 5 0 12
-13 16 -30 4 -16 10 -30 14 -30 5 0 14 -20 21 -44 7 -25 18 -47 26 -50 8 -3
14 -12 14 -20 0 -9 11 -18 24 -22 15 -3 29 -17 35 -35 5 -16 17 -29 25 -29 8
0 17 -6 19 -12 4 -10 8 -9 16 2 6 8 11 10 11 4 0 -7 11 -15 25 -18 22 -6 25
-12 25 -52 0 -45 11 -77 37 -102 7 -7 13 -22 13 -33 0 -10 5 -19 10 -19 6 0
10 -7 10 -15 0 -8 -4 -15 -10 -15 -14 0 -12 -27 3 -33 10 -4 10 -6 0 -6 -18
-1 -16 -21 2 -21 9 0 12 -6 9 -15 -4 -8 1 -17 10 -21 9 -3 16 -14 16 -25 0
-10 8 -26 19 -36 10 -10 22 -28 25 -40 4 -13 12 -23 17 -23 5 0 9 -9 9 -20 0
-13 7 -20 19 -20 10 0 19 -6 18 -12 -1 -43 4 -78 13 -78 6 0 10 7 10 16 0 11
5 14 16 10 9 -3 18 -6 20 -6 2 0 4 -20 4 -45 0 -25 -4 -45 -10 -45 -5 0 -10
-16 -10 -35 0 -21 5 -35 13 -35 8 0 9 -2 1 -8 -12 -7 -34 -126 -34 -181 0 -29
3 -31 34 -31 21 0 36 6 40 15 3 8 12 15 21 15 10 0 15 10 15 30 0 17 5 30 10
30 6 0 10 20 10 45 0 25 -4 45 -10 45 -14 0 -12 37 3 43 9 4 9 6 0 6 -27 2
-11 21 17 21 17 0 30 -4 30 -10 0 -5 24 -11 53 -12 l52 -1 -55 -7 c-38 -5 -45
-7 -22 -8 18 -1 41 -9 50 -18 14 -15 16 -15 24 6 12 34 33 18 36 -28 2 -23 7
-42 13 -42 16 0 10 -67 -7 -74 -11 -4 -14 -13 -10 -31 5 -18 -1 -31 -19 -49
-22 -22 -35 -26 -80 -26 -30 0 -55 -4 -55 -10 0 -5 5 -10 10 -10 6 0 10 -7 10
-15 0 -8 -4 -15 -10 -15 -5 0 -10 -11 -10 -25 0 -14 5 -25 10 -25 6 0 10 -7
10 -15 0 -8 7 -15 15 -15 9 0 18 -12 22 -30 3 -16 9 -30 14 -30 5 0 9 -27 9
-60 0 -43 4 -62 14 -66 8 -3 19 -25 26 -50 7 -24 16 -44 20 -44 4 0 11 -21 15
-46 4 -29 15 -55 29 -68 13 -11 26 -28 29 -36 3 -8 6 803 6 1803 l1 1817 -55
0 c-42 0 -55 3 -55 15 0 8 -5 15 -11 15 -13 0 -39 25 -39 39 0 6 -9 15 -20 21
-11 6 -20 17 -20 25 0 8 -4 15 -10 15 -5 0 -10 7 -10 15 0 21 -65 85 -86 85
-26 0 -82 66 -90 106 -7 36 -14 46 -123 161 -32 34 -61 73 -65 87 -4 17 -15
26 -36 31 -16 4 -30 11 -30 16 0 5 -7 9 -16 9 -9 0 -18 9 -21 20 -3 11 -9 20
-14 20 -5 0 -9 6 -9 13 0 7 -9 23 -20 35 -11 12 -20 25 -20 29 0 5 -8 16 -17
24 -10 9 -25 26 -33 37 -8 12 -22 24 -31 27 -9 3 -20 17 -23 30 -4 15 -16 27
-31 31 -14 3 -25 9 -25 14 0 4 -11 20 -25 36 -14 16 -25 32 -25 36 0 4 -11 10
-24 14 -14 3 -27 12 -30 20 -3 8 -12 14 -21 14 -8 0 -15 4 -15 10 0 11 -74 90
-84 90 -9 0 -86 74 -86 83 0 13 -35 47 -47 47 -7 0 -13 4 -13 8 0 5 -12 15
-27 23 -16 8 -39 26 -53 42 -13 15 -30 27 -37 27 -7 0 -13 4 -13 8 0 5 -12 15
-27 23 -24 12 -59 45 -115 106 -39 43 -97 93 -107 93 -6 0 -11 5 -11 10 0 6
-7 10 -15 10 -9 0 -18 7 -21 15 -3 8 -16 17 -27 21 -12 4 -46 31 -74 61 -48
49 -53 59 -53 99 l0 44 -1907 -1 c-1050 -1 -1900 -3 -1890 -6z m5587 -3223 c0
-5 9 -10 21 -10 14 0 19 -5 17 -17 -3 -15 -16 -18 -86 -21 -77 -3 -82 -2 -82
18 0 18 6 20 55 20 30 0 55 5 55 10 0 6 5 10 10 10 6 0 10 -4 10 -10z m-93
-76 c-3 -3 -12 -4 -19 -1 -8 3 -5 6 6 6 11 1 17 -2 13 -5z m-73 -339 c-5 -11
-22 -15 -63 -16 -31 0 -50 -3 -43 -6 17 -7 15 -23 -3 -23 -10 0 -15 10 -15 30
l0 30 65 0 c53 0 63 -3 59 -15z m16 -50 c0 -19 -5 -35 -11 -35 -6 0 -8 9 -4
20 5 16 2 20 -14 20 -39 0 -22 22 22 29 4 0 7 -15 7 -34z m-103 -55 c4 -13 3
-13 -6 0 -10 13 -12 13 -21 0 -8 -13 -10 -12 -10 3 0 22 31 19 37 -3z m63 -10
c0 -27 -3 -30 -30 -30 -16 0 -30 2 -30 5 0 6 50 55 56 55 2 0 4 -13 4 -30z
m223 -192 c4 -23 0 -37 -11 -46 -15 -11 -15 -14 -2 -22 10 -7 -6 -10 -52 -10
-38 0 -68 -4 -68 -10 0 -5 30 -11 68 -13 l67 -3 -77 -2 c-64 -2 -78 1 -78 13
0 9 -7 18 -15 21 -10 4 -15 20 -15 45 l0 39 65 0 c37 0 65 4 65 10 0 6 11 10
24 10 19 0 25 -6 29 -32z"/>
<path d="M15270 11350 c0 -5 5 -10 10 -10 6 0 10 5 10 10 0 6 -4 10 -10 10 -5
0 -10 -4 -10 -10z"/>
<path d="M7470 13740 c0 -6 -42 -10 -107 -10 -137 0 -453 -21 -453 -31 0 -3
-43 -10 -95 -14 -52 -4 -95 -10 -95 -14 0 -5 -35 -11 -77 -15 -42 -3 -79 -10
-82 -15 -3 -5 -36 -12 -73 -16 -38 -4 -68 -11 -68 -16 0 -5 -14 -9 -31 -9 -47
0 -169 -22 -169 -30 0 -5 -27 -11 -60 -15 -33 -4 -60 -11 -60 -16 0 -4 -22
-11 -50 -15 -27 -4 -50 -10 -50 -15 0 -4 -20 -11 -45 -15 -25 -3 -45 -10 -45
-14 0 -4 -31 -12 -70 -19 -38 -7 -70 -17 -70 -21 0 -5 -20 -12 -45 -16 -25 -3
-45 -10 -45 -14 0 -4 -16 -11 -35 -14 -19 -4 -35 -11 -35 -15 0 -5 -29 -15
-65 -22 -36 -7 -65 -16 -65 -20 0 -5 -16 -11 -35 -15 -19 -3 -35 -10 -35 -14
0 -5 -13 -11 -30 -15 -16 -4 -30 -10 -30 -15 0 -4 -16 -11 -35 -14 -19 -4 -35
-11 -35 -15 0 -5 -22 -14 -50 -21 -27 -7 -50 -16 -50 -20 0 -5 -13 -11 -30
-15 -16 -4 -30 -10 -30 -15 0 -5 -13 -11 -30 -15 -16 -4 -30 -11 -30 -16 0 -5
-11 -11 -25 -15 -14 -3 -25 -10 -25 -14 0 -4 -20 -13 -45 -20 -25 -7 -45 -16
-45 -21 0 -4 -13 -10 -30 -14 -16 -4 -30 -11 -30 -16 0 -5 -6 -9 -14 -9 -8 0
-21 -6 -28 -13 -7 -8 -31 -20 -53 -27 -22 -7 -45 -18 -52 -24 -31 -27 -41 -34
-63 -41 -13 -4 -30 -14 -38 -21 -7 -8 -20 -14 -28 -14 -8 0 -14 -4 -14 -9 0
-5 -15 -14 -32 -22 -18 -7 -37 -19 -41 -26 -4 -7 -15 -13 -22 -13 -8 0 -15 -4
-15 -10 0 -5 -7 -10 -15 -10 -9 0 -18 -7 -21 -15 -4 -8 -12 -15 -19 -15 -8 0
-20 -6 -27 -12 -7 -7 -26 -20 -43 -28 -16 -8 -34 -21 -38 -27 -4 -7 -15 -13
-22 -13 -8 0 -15 -4 -15 -9 0 -5 -10 -13 -22 -17 -13 -4 -29 -15 -36 -25 -7
-11 -20 -19 -28 -19 -8 0 -14 -4 -14 -10 0 -5 -11 -12 -24 -16 -13 -3 -29 -16
-36 -30 -8 -13 -19 -24 -25 -24 -7 0 -24 -11 -39 -25 -15 -14 -33 -25 -40 -25
-7 0 -19 -11 -26 -25 -7 -14 -19 -25 -26 -25 -7 0 -26 -13 -42 -30 -17 -16
-34 -30 -39 -30 -5 0 -23 -16 -40 -35 -17 -19 -36 -35 -41 -35 -6 0 -28 -18
-50 -40 -21 -22 -42 -40 -46 -40 -4 0 -55 -47 -112 -105 -58 -58 -109 -105
-113 -105 -10 0 -71 -59 -96 -94 -11 -16 -62 -70 -112 -122 -51 -51 -93 -96
-93 -100 0 -4 -22 -29 -50 -56 -27 -26 -50 -52 -50 -57 0 -5 -16 -25 -35 -44
-19 -19 -35 -39 -35 -44 0 -5 -9 -16 -20 -26 -11 -9 -20 -23 -20 -30 0 -8 -11
-20 -25 -27 -13 -7 -29 -26 -34 -41 -5 -16 -15 -29 -20 -29 -6 0 -13 -11 -17
-24 -3 -13 -16 -29 -29 -36 -13 -7 -26 -23 -29 -36 -4 -13 -11 -24 -16 -24 -6
0 -10 -6 -10 -14 0 -8 -8 -21 -19 -28 -10 -7 -21 -23 -25 -35 -4 -13 -12 -23
-17 -23 -5 0 -9 -7 -9 -15 0 -9 -6 -18 -14 -21 -8 -3 -20 -19 -26 -35 -7 -16
-16 -29 -20 -29 -5 0 -11 -13 -15 -29 -3 -16 -13 -32 -21 -35 -8 -3 -14 -12
-14 -20 0 -7 -7 -16 -15 -20 -8 -3 -15 -12 -15 -21 0 -8 -4 -15 -9 -15 -5 0
-11 -10 -15 -23 -3 -13 -15 -34 -26 -47 -11 -13 -20 -29 -20 -37 0 -7 -4 -13
-9 -13 -5 0 -12 -13 -16 -29 -3 -16 -13 -32 -21 -35 -8 -3 -14 -12 -14 -21 0
-8 -4 -15 -9 -15 -4 0 -14 -20 -21 -44 -7 -25 -18 -47 -26 -50 -8 -3 -14 -12
-14 -21 0 -8 -4 -15 -9 -15 -5 0 -12 -13 -16 -30 -4 -16 -11 -30 -15 -30 -5 0
-15 -18 -21 -40 -7 -22 -16 -40 -20 -40 -4 0 -10 -13 -14 -30 -4 -16 -10 -30
-15 -30 -5 0 -11 -13 -15 -30 -4 -16 -11 -30 -15 -30 -5 0 -12 -16 -16 -35 -3
-19 -10 -35 -14 -35 -4 0 -13 -20 -20 -45 -7 -25 -16 -45 -20 -45 -4 0 -11
-16 -14 -35 -4 -19 -11 -35 -15 -35 -5 0 -12 -16 -15 -35 -4 -19 -11 -35 -16
-35 -5 0 -12 -16 -16 -35 -3 -19 -10 -35 -14 -35 -7 0 -10 -10 -26 -87 -3 -18
-10 -33 -14 -33 -5 0 -11 -18 -15 -40 -4 -22 -11 -40 -15 -40 -5 0 -12 -17
-16 -37 -4 -21 -11 -40 -15 -43 -4 -3 -14 -36 -21 -73 -7 -37 -16 -67 -20 -67
-4 0 -10 -20 -14 -45 -3 -25 -10 -45 -14 -45 -5 0 -12 -25 -15 -55 -4 -30 -11
-55 -16 -55 -4 0 -11 -22 -15 -50 -4 -27 -10 -50 -14 -50 -4 0 -13 -43 -21
-95 -7 -52 -16 -95 -20 -95 -4 0 -10 -31 -14 -70 -4 -38 -11 -70 -15 -70 -4 0
-11 -34 -15 -75 -4 -41 -10 -75 -15 -75 -4 0 -11 -44 -15 -97 -4 -54 -11 -100
-15 -103 -8 -6 -30 -288 -30 -392 0 -39 -4 -68 -10 -68 -6 0 -10 -125 -10
-355 0 -230 4 -355 10 -355 6 0 10 -27 10 -62 0 -101 23 -398 31 -398 4 0 10
-45 14 -100 4 -55 11 -100 15 -100 4 0 11 -31 15 -70 4 -38 11 -70 15 -70 5 0
11 -34 15 -75 4 -41 10 -75 14 -75 4 0 13 -41 20 -90 7 -50 16 -90 21 -90 4 0
10 -22 14 -50 4 -27 11 -50 15 -50 5 0 12 -27 16 -60 4 -33 11 -60 15 -60 5 0
12 -20 16 -45 3 -25 10 -45 14 -45 4 0 12 -31 19 -70 7 -39 16 -70 21 -70 4 0
11 -16 14 -35 4 -19 11 -35 16 -35 5 0 12 -20 16 -45 3 -25 10 -45 14 -45 4 0
13 -25 20 -55 7 -30 17 -55 22 -55 4 0 8 -11 8 -24 0 -14 7 -32 16 -40 8 -9
18 -32 21 -51 3 -19 9 -35 14 -35 4 0 11 -16 15 -35 3 -19 10 -35 14 -35 4 0
13 -20 20 -45 7 -25 16 -45 20 -45 4 0 11 -16 14 -35 4 -19 11 -35 15 -35 5 0
12 -11 15 -25 4 -14 10 -25 15 -25 5 0 12 -14 16 -30 4 -17 10 -30 14 -30 5 0
14 -20 21 -45 7 -25 16 -45 21 -45 4 0 10 -13 14 -30 4 -16 11 -30 16 -30 5 0
9 -7 9 -15 0 -9 6 -18 14 -21 8 -3 19 -25 26 -49 7 -24 18 -46 26 -49 8 -3 14
-12 14 -21 0 -8 4 -15 9 -15 5 0 12 -13 16 -29 3 -16 13 -32 21 -35 8 -3 14
-12 14 -21 0 -8 3 -15 8 -15 10 0 32 -50 32 -72 0 -10 5 -18 10 -18 6 0 10 -7
10 -16 0 -9 9 -18 20 -21 11 -3 20 -11 20 -18 0 -7 7 -15 15 -19 8 -3 15 -12
15 -21 0 -8 4 -15 9 -15 5 0 14 -13 21 -30 7 -16 16 -30 21 -30 5 0 9 -7 9
-15 0 -9 7 -18 15 -21 8 -4 15 -12 15 -20 0 -7 9 -21 19 -31 11 -10 22 -30 26
-45 4 -16 11 -28 16 -28 5 0 9 -7 9 -15 0 -9 7 -18 15 -21 8 -3 17 -14 20 -25
4 -10 13 -19 21 -19 8 0 14 -7 14 -15 0 -8 5 -15 10 -15 6 0 10 -7 10 -15 0
-9 18 -33 40 -54 22 -21 40 -43 40 -49 0 -7 4 -12 9 -12 5 0 13 -10 17 -22 4
-13 15 -29 25 -36 11 -7 19 -18 19 -23 0 -6 29 -40 65 -76 36 -36 65 -71 65
-78 0 -7 7 -15 15 -19 8 -3 15 -12 15 -21 0 -8 6 -15 13 -15 8 0 24 -9 37 -20
13 -11 27 -20 32 -20 4 0 8 -7 8 -15 0 -15 67 -85 82 -85 4 0 8 -7 8 -15 0
-15 81 -105 95 -105 4 0 29 -21 55 -47 26 -27 56 -55 66 -65 11 -9 34 -32 52
-52 18 -20 39 -36 47 -36 8 0 15 -4 15 -10 0 -5 7 -10 15 -10 8 0 15 -4 15 -9
0 -13 45 -61 56 -61 11 0 44 -37 44 -49 0 -5 13 -14 30 -19 16 -6 41 -22 54
-36 13 -15 28 -26 33 -26 5 0 23 -11 39 -25 16 -14 33 -25 38 -25 5 0 19 -11
32 -25 13 -14 27 -25 31 -25 11 0 43 -38 43 -51 0 -5 14 -15 30 -20 16 -6 30
-15 30 -19 0 -5 10 -12 23 -16 12 -4 32 -17 44 -30 12 -13 33 -26 47 -30 14
-3 26 -10 26 -14 0 -5 14 -11 31 -15 17 -4 33 -13 36 -21 3 -9 22 -14 57 -14
79 0 96 -8 96 -41 0 -16 4 -29 9 -29 5 0 30 -20 55 -45 36 -36 54 -46 90 -51
25 -4 46 -11 46 -15 0 -5 11 -9 24 -9 43 0 131 -23 139 -37 4 -7 17 -13 27
-13 11 0 20 -4 20 -10 0 -5 17 -10 38 -10 37 0 38 -1 51 -50 11 -43 16 -50 37
-50 14 0 27 -7 30 -15 3 -8 16 -17 27 -21 12 -4 27 -14 33 -22 6 -8 33 -17 62
-20 29 -2 52 -8 52 -13 0 -5 20 -9 43 -9 30 0 52 -7 67 -20 13 -11 32 -20 42
-20 10 0 29 -11 42 -25 13 -14 28 -25 34 -25 6 0 16 -16 23 -35 7 -19 22 -38
33 -41 10 -4 30 -18 43 -32 12 -14 23 -20 23 -13 0 6 7 11 15 11 8 0 15 -4 15
-10 0 -5 7 -10 15 -10 8 0 15 6 15 13 0 7 18 13 47 15 26 2 50 7 53 11 3 5 16
12 30 16 14 4 28 13 32 19 6 8 8 7 8 -1 0 -7 7 -13 15 -13 9 0 12 -6 9 -15 -4
-8 -1 -15 5 -15 6 0 11 4 11 9 0 11 69 20 104 14 14 -3 26 -12 26 -19 0 -8 7
-14 15 -14 8 0 15 -4 15 -10 0 -5 11 -10 25 -10 17 0 29 -7 35 -22 5 -13 9
-17 9 -10 2 22 23 13 62 -28 21 -22 50 -42 65 -46 14 -4 28 -13 31 -20 6 -17
29 -18 37 -1 5 10 7 10 12 0 6 -14 40 -18 47 -5 2 4 2 1 1 -5 -3 -10 15 -13
65 -13 46 0 71 -4 74 -12 4 -10 8 -9 16 2 7 10 11 11 11 3 0 -8 13 -13 30 -13
20 0 30 -5 30 -15 0 -8 7 -15 16 -15 9 0 18 -9 21 -20 6 -24 23 -27 23 -4 0
14 2 13 17 -1 12 -13 26 -15 52 -11 20 3 44 6 54 6 25 0 21 18 -5 23 -13 2 16
5 65 6 50 0 87 5 87 11 0 6 20 10 45 10 25 0 45 -4 45 -9 0 -5 36 -12 79 -16
51 -4 81 -12 85 -20 2 -7 18 -16 34 -20 17 -3 33 -13 36 -21 3 -8 16 -14 30
-14 13 0 26 -5 28 -12 3 -7 36 -12 97 -12 78 -1 94 2 102 17 6 9 17 17 24 17
8 0 15 5 15 10 0 6 7 10 15 10 8 0 15 5 15 10 0 6 33 10 79 10 54 0 81 4 84
13 4 9 6 9 6 0 1 -9 17 -13 46 -13 29 0 45 4 45 13 0 8 3 8 8 1 4 -5 33 -16
65 -23 31 -7 57 -16 57 -20 0 -5 14 -11 30 -15 18 -3 30 -12 30 -21 0 -20 92
-21 112 -1 8 7 25 17 38 21 13 4 33 16 44 26 11 11 28 19 38 19 10 0 18 5 18
10 0 6 11 10 25 10 13 0 29 8 34 18 9 15 12 15 21 2 6 -10 10 -11 10 -2 0 16
37 16 43 0 4 -10 7 -10 15 0 6 9 39 15 103 17 58 1 95 7 97 14 2 7 29 11 69
11 54 0 64 -3 59 -15 -3 -8 -1 -15 4 -15 6 0 10 9 10 20 0 11 7 20 15 20 8 0
15 -7 15 -15 0 -27 18 -16 25 15 8 35 25 40 25 8 1 -21 2 -22 14 -5 7 9 24 18
37 18 21 1 20 2 -6 9 l-30 8 28 1 c16 0 37 -4 48 -10 15 -8 34 -7 68 2 32 8
57 9 76 2 31 -10 145 4 145 18 0 5 11 9 25 9 14 0 25 6 25 13 0 16 36 47 54
47 8 0 18 9 21 20 6 18 32 26 73 21 6 -1 12 5 12 13 0 8 14 17 33 21 17 4 35
13 39 19 5 7 49 12 118 13 98 2 110 0 110 -15 0 -15 2 -15 11 -2 8 11 12 12
16 3 7 -18 43 -16 43 2 0 8 6 15 14 15 8 0 18 9 21 20 6 20 25 28 25 10 0 -22
28 4 34 31 3 17 12 29 21 29 9 0 15 10 16 23 1 16 2 18 6 5 5 -18 23 -25 23
-9 0 5 25 12 55 16 30 3 55 10 55 14 0 9 139 33 151 26 5 -4 9 1 9 9 0 9 11
16 28 18 16 2 27 9 27 18 0 22 20 40 44 40 14 0 23 8 27 25 3 14 10 25 15 25
5 0 9 7 9 15 0 8 5 15 11 15 6 0 17 7 25 15 9 8 26 15 40 15 13 0 24 5 24 10
0 6 6 10 13 10 7 0 23 9 35 20 12 11 28 20 37 20 9 0 18 7 21 15 4 8 17 15 30
15 13 0 38 14 55 31 25 24 34 28 40 17 5 -8 9 -9 9 -2 0 7 11 14 23 18 17 4
27 17 36 47 13 43 32 69 49 69 6 0 13 6 15 13 4 9 6 9 6 0 1 -7 12 -13 26 -13
18 0 26 7 31 25 4 18 15 26 40 31 19 3 34 10 34 15 0 5 7 9 16 9 9 0 18 9 21
19 3 12 17 23 34 26 16 4 29 11 29 16 0 5 5 9 10 9 6 0 10 -6 10 -13 0 -9 11
-12 35 -9 21 3 35 10 35 18 0 8 7 14 15 14 8 0 17 11 21 25 3 14 10 25 15 25
5 0 12 18 15 40 4 22 11 40 16 40 5 0 19 11 32 25 13 14 28 25 35 25 6 0 11
11 11 25 0 16 4 23 14 19 7 -3 21 3 31 12 16 16 18 16 27 1 7 -13 23 -17 73
-17 51 0 65 -3 65 -15 0 -8 7 -15 15 -15 8 0 15 9 15 20 0 11 7 20 15 20 11 0
14 7 9 24 -4 17 0 27 13 35 16 9 16 12 3 21 -9 6 -10 10 -3 10 6 0 13 15 15
33 3 28 7 32 36 35 17 2 32 7 32 12 0 5 -15 11 -32 13 -26 3 -24 4 13 5 39 2
48 6 57 27 7 14 12 34 12 44 0 12 10 21 27 26 15 3 32 12 36 18 6 9 10 9 14 0
5 -15 33 -18 33 -4 0 5 -6 11 -12 14 -7 2 13 7 46 11 38 5 62 4 69 -3 18 -18
47 -13 47 7 0 10 -5 23 -11 29 -7 7 -8 40 -3 97 6 78 9 86 28 87 17 1 17 2 4
6 -25 6 -22 17 7 33 29 16 32 27 8 33 -14 4 -12 5 5 6 12 1 22 7 22 16 0 23
17 18 25 -7 7 -21 8 -20 12 10 2 17 10 32 16 32 7 0 6 4 -3 10 -12 8 -10 10
10 9 62 -5 100 1 100 16 0 8 7 15 15 15 8 0 15 4 15 9 0 5 13 12 29 16 25 5
30 12 36 51 3 24 12 44 18 44 9 0 9 2 1 8 -6 4 -14 24 -18 45 -6 33 -5 37 14
37 12 0 18 4 15 10 -3 5 3 10 14 10 12 0 21 5 21 10 0 6 -7 10 -15 10 -8 0
-15 7 -15 15 0 8 5 15 11 15 15 0 59 42 59 56 0 15 24 24 62 24 20 0 39 9 55
27 20 21 27 24 35 12 7 -10 8 -7 4 11 -3 14 -3 55 1 92 5 53 9 67 24 71 13 4
19 14 19 36 0 17 5 31 10 31 6 0 10 6 10 13 0 7 14 23 30 37 29 24 40 50 20
50 -5 0 -10 7 -10 15 0 8 8 15 19 15 10 0 37 17 59 38 22 20 49 44 61 52 12 8
21 22 21 31 0 10 7 24 15 33 8 8 15 21 15 30 0 8 8 19 17 24 10 6 18 25 20 48
1 21 7 40 13 42 5 2 10 16 10 32 0 19 6 31 19 35 11 3 22 12 25 20 3 8 12 15
21 15 8 0 15 7 15 15 0 8 11 17 25 21 20 5 28 16 37 50 7 24 18 44 25 44 7 0
13 9 13 20 0 15 7 20 25 20 22 0 25 4 25 38 0 53 21 156 34 164 5 4 9 24 8 45
-2 21 0 55 3 75 6 32 11 38 31 38 13 0 24 4 24 9 0 5 15 13 33 16 38 9 47 20
47 63 0 19 5 32 13 32 8 0 9 3 1 8 -6 4 -14 28 -18 55 -4 26 -11 47 -17 47
-14 0 -11 88 4 93 10 4 10 6 0 6 -19 1 -16 21 3 21 12 0 15 7 11 27 -7 37 1
53 28 53 27 0 32 11 30 67 -1 39 1 42 36 53 29 10 37 17 37 37 0 14 4 28 10
32 6 3 13 18 17 33 4 15 13 29 20 31 8 4 12 29 13 77 0 111 13 210 26 210 6 0
4 5 -4 10 -13 9 -13 11 0 20 8 5 10 10 4 10 -14 0 -34 74 -27 100 3 11 13 20
22 21 9 1 5 4 -9 9 l-25 8 28 1 c30 1 38 21 9 21 -15 0 -18 6 -14 30 5 37 22
40 22 4 0 -23 2 -24 15 -10 8 8 15 31 15 51 0 35 -2 37 -25 31 -24 -6 -25 -6
-8 14 10 11 22 20 28 20 6 0 10 41 10 110 0 87 3 113 15 121 11 8 12 12 3 16
-10 3 -9 8 2 20 8 8 15 23 15 33 0 10 6 20 14 23 8 3 17 19 21 36 4 17 10 31
15 31 5 0 12 14 15 32 4 17 14 38 21 45 15 15 8 105 -8 111 -4 2 -8 12 -8 22
0 10 -6 25 -13 32 -18 19 -37 66 -37 93 0 13 -6 26 -12 28 -10 4 -10 7 0 14 8
7 12 45 13 129 1 122 13 184 36 184 7 0 13 5 13 10 0 6 7 10 15 10 8 0 15 9
15 19 0 11 6 21 13 24 8 3 6 9 -7 19 -17 13 -17 16 -2 30 12 12 13 18 3 22 -9
5 -9 7 1 12 17 8 15 44 -2 44 -24 0 -46 29 -46 61 0 29 -14 39 -23 17 -3 -7
-6 1 -7 17 -1 17 -4 24 -7 18 -11 -28 -21 -10 -27 47 -4 33 -11 60 -16 60 -6
0 -10 7 -10 15 0 8 6 15 13 15 9 0 8 3 -2 9 -11 7 -11 10 0 15 11 5 11 7 2 12
-15 7 -18 104 -3 104 6 0 10 7 10 15 0 8 -4 15 -10 15 -5 0 -10 9 -10 20 0 11
7 20 15 20 10 0 15 11 15 35 0 19 5 35 10 35 6 0 10 17 10 38 0 31 -5 41 -25
52 -27 14 -33 30 -12 30 9 0 9 2 -1 9 -8 4 -16 32 -19 62 -3 30 -10 57 -16 61
-7 4 -13 44 -14 99 -1 51 -6 95 -11 98 -10 8 -32 81 -32 110 0 11 -4 21 -10
21 -5 0 -10 9 -10 20 0 11 -6 20 -14 20 -8 0 -17 14 -21 30 -4 17 -13 30 -21
30 -8 0 -14 7 -14 15 0 8 -6 15 -14 15 -8 0 -17 14 -21 30 -4 17 -11 30 -16
30 -5 0 -9 7 -9 15 0 8 -8 15 -17 15 -17 1 -17 1 0 11 14 8 17 25 17 104 0 65
4 95 13 99 10 5 10 7 0 12 -7 3 -13 21 -13 39 0 18 6 36 13 38 10 4 10 6 0 6
-7 1 -13 7 -13 15 0 8 6 17 13 20 10 5 10 7 0 12 -18 8 -16 24 2 24 17 0 19
18 5 40 -9 13 -11 13 -20 0 -5 -8 -10 -10 -10 -4 0 7 -11 15 -25 18 -33 8 -63
38 -71 71 -3 14 -11 25 -18 25 -6 0 -12 14 -13 32 -1 17 -6 34 -11 37 -5 3
-12 24 -15 45 -4 22 -11 42 -17 46 -6 4 -15 35 -20 70 -5 35 -13 66 -18 69 -5
3 -12 19 -16 35 -8 34 -28 56 -51 56 -9 0 -19 9 -22 20 -3 13 -14 20 -28 20
-18 0 -25 7 -30 33 -4 17 -12 35 -17 38 -5 3 -10 18 -12 33 -2 16 -7 31 -13
34 -11 8 -20 47 -30 130 -3 28 -9 52 -14 52 -5 0 -9 7 -9 15 0 8 -13 28 -30
45 -16 17 -30 34 -30 39 0 16 -49 60 -74 67 -19 4 -27 14 -32 40 -3 19 -10 34
-15 34 -5 0 -9 13 -9 29 0 17 -4 33 -10 36 -5 3 -10 19 -10 36 0 16 -4 29 -9
29 -5 0 -12 14 -16 30 -4 17 -10 30 -15 30 -5 0 -11 14 -15 30 -4 17 -11 30
-16 30 -5 0 -9 5 -9 11 0 6 -18 28 -40 50 -22 22 -40 46 -40 54 0 8 -4 15 -8
15 -15 0 -82 70 -82 86 0 8 -6 17 -14 20 -8 3 -18 18 -21 34 -3 16 -13 31 -21
34 -8 3 -14 12 -14 21 0 8 -4 15 -8 15 -5 0 -15 12 -23 27 -8 16 -24 37 -36
49 -13 12 -23 26 -23 32 0 6 -13 13 -29 17 -20 4 -31 14 -36 32 -7 28 -75 103
-94 103 -6 0 -11 6 -11 14 0 8 -7 16 -15 20 -8 3 -15 12 -15 20 0 8 -13 27
-28 43 -16 15 -31 36 -35 46 -3 9 -13 17 -22 17 -8 0 -15 5 -15 12 0 11 -105
118 -117 118 -4 0 -26 20 -50 45 -23 25 -47 45 -52 45 -6 0 -42 30 -80 68
-116 111 -153 142 -166 142 -7 0 -15 7 -19 15 -3 8 -11 15 -18 15 -15 0 -48
35 -48 49 0 5 -13 12 -30 16 -16 4 -30 11 -30 17 0 14 -23 34 -48 42 -12 4
-22 14 -22 22 0 8 -6 14 -13 14 -7 0 -23 14 -37 30 -14 17 -31 30 -38 30 -7 0
-15 6 -18 14 -3 8 -16 17 -28 20 -12 3 -33 15 -46 26 -13 11 -30 20 -38 20 -8
0 -24 10 -36 23 -12 12 -33 28 -49 36 -15 8 -27 18 -27 22 0 4 -12 10 -26 13
-24 6 -35 13 -69 44 -7 6 -19 12 -25 12 -6 0 -13 7 -16 15 -3 8 -21 19 -40 25
-19 6 -34 15 -34 20 0 4 -11 11 -25 14 -14 4 -25 11 -25 16 0 5 -15 12 -34 16
-19 3 -37 12 -40 20 -3 8 -12 14 -21 14 -8 0 -15 4 -15 9 0 5 -16 15 -35 21
-19 6 -35 16 -35 21 0 5 -11 11 -25 15 -14 3 -25 10 -25 14 0 5 -13 11 -30 15
-16 4 -30 11 -30 15 0 5 -18 15 -40 21 -22 7 -40 16 -40 20 0 4 -13 10 -30 14
-16 4 -30 10 -30 15 0 5 -13 11 -30 15 -16 4 -30 10 -30 15 0 4 -16 11 -35 14
-19 4 -35 11 -35 16 0 4 -22 14 -50 21 -27 7 -50 16 -50 20 0 4 -13 10 -30 14
-16 4 -30 10 -30 15 0 4 -16 11 -35 14 -19 4 -35 11 -35 15 0 5 -16 12 -35 15
-19 4 -35 11 -35 15 0 5 -27 14 -60 20 -33 7 -60 16 -60 21 0 4 -18 11 -40 15
-22 4 -40 10 -40 15 0 4 -18 10 -40 14 -22 3 -40 10 -40 15 0 4 -31 13 -70 20
-38 7 -70 16 -70 21 0 4 -22 10 -50 14 -27 4 -50 11 -50 16 0 5 -22 12 -50 16
-27 4 -50 10 -50 14 0 5 -27 11 -60 15 -33 4 -60 11 -60 15 0 5 -40 14 -90 21
-49 7 -90 16 -90 20 0 4 -34 10 -75 14 -41 4 -75 10 -75 15 0 4 -31 11 -70 14
-38 4 -70 11 -70 15 0 5 -48 12 -107 15 -60 4 -110 11 -113 15 -6 10 -328 31
-462 31 -59 0 -98 4 -98 10 0 6 -78 10 -215 10 -137 0 -215 -4 -215 -10z m160
-1610 c0 -5 25 -10 55 -10 30 0 55 5 55 10 0 6 38 10 95 10 52 0 95 -4 95 -9
0 -5 65 -12 145 -16 80 -4 145 -11 145 -15 0 -4 45 -11 100 -15 55 -3 100 -10
100 -14 0 -5 30 -11 67 -14 38 -4 69 -11 71 -17 2 -5 16 -10 30 -10 46 0 182
-23 182 -31 0 -4 18 -10 40 -14 22 -4 40 -10 40 -15 0 -4 27 -11 60 -15 33 -4
60 -11 60 -15 0 -5 32 -14 70 -20 39 -6 70 -16 70 -20 0 -5 14 -11 30 -15 17
-4 30 -10 30 -15 0 -4 18 -11 40 -15 22 -4 40 -10 40 -15 0 -4 18 -10 40 -14
22 -3 40 -10 40 -14 0 -5 23 -14 50 -21 28 -7 50 -16 50 -21 0 -4 16 -11 35
-14 19 -4 35 -11 35 -16 0 -4 14 -11 30 -15 17 -4 30 -11 30 -16 0 -5 6 -9 14
-9 8 0 21 -6 28 -13 7 -8 31 -20 53 -27 22 -7 46 -19 53 -27 7 -7 22 -13 33
-13 10 0 19 -4 19 -9 0 -5 13 -12 29 -16 16 -3 32 -12 34 -20 3 -7 19 -16 35
-20 17 -3 33 -13 36 -21 3 -8 12 -14 21 -14 8 0 15 -4 15 -9 0 -5 12 -12 26
-15 15 -4 38 -20 53 -37 14 -16 35 -29 49 -29 12 0 25 -6 28 -14 3 -8 17 -17
31 -21 13 -3 35 -17 47 -30 13 -14 28 -25 34 -25 6 0 16 -9 22 -19 5 -11 23
-22 40 -26 16 -4 30 -11 30 -16 0 -5 7 -9 15 -9 9 0 18 -7 21 -15 4 -8 12 -15
19 -15 6 0 24 -11 39 -25 15 -14 32 -25 37 -25 13 0 39 -25 39 -38 0 -6 7 -12
15 -16 8 -3 15 -12 15 -21 0 -9 9 -15 25 -15 14 0 25 -5 25 -12 0 -16 49 -58
67 -58 7 0 13 -4 13 -9 0 -5 13 -12 29 -16 23 -5 31 -14 37 -38 4 -18 24 -49
45 -69 22 -21 39 -41 39 -45 0 -5 12 -19 25 -32 14 -13 25 -27 25 -32 0 -5 7
-9 15 -9 8 0 15 -6 15 -14 0 -8 14 -17 30 -21 17 -4 30 -13 30 -21 0 -8 5 -14
11 -14 7 0 27 -16 46 -35 19 -19 40 -35 47 -35 8 0 17 -11 20 -24 4 -16 15
-25 35 -29 25 -5 29 -11 33 -51 4 -30 13 -52 30 -68 14 -13 29 -34 33 -48 11
-36 46 -70 73 -70 18 0 22 -6 22 -30 0 -18 5 -30 13 -30 18 0 67 -42 67 -58 0
-6 11 -14 24 -18 16 -4 27 -17 35 -45 8 -28 19 -41 36 -45 19 -5 25 -13 25
-35 0 -16 -4 -29 -10 -29 -13 0 -13 -37 1 -42 5 -2 13 -22 16 -46 3 -23 9 -42
14 -42 4 0 10 -13 14 -30 4 -16 15 -32 26 -35 10 -4 19 -13 19 -21 0 -8 5 -14
10 -14 6 0 10 -7 10 -15 0 -9 7 -18 15 -21 8 -4 15 -12 15 -20 0 -8 6 -14 14
-14 7 0 16 -14 20 -31 3 -16 13 -37 21 -45 8 -9 15 -31 15 -50 0 -21 6 -37 14
-40 8 -3 18 -19 21 -35 4 -16 10 -29 15 -29 4 0 10 -27 12 -61 3 -42 9 -64 20
-70 9 -5 19 -21 23 -36 3 -14 24 -44 46 -65 21 -21 39 -42 39 -48 0 -5 6 -10
14 -10 8 0 19 -20 26 -47 8 -27 17 -50 22 -54 4 -3 11 -27 14 -55 4 -27 12
-52 18 -56 8 -6 6 -11 -4 -18 -10 -6 -11 -10 -2 -10 8 0 12 -17 12 -49 0 -30
-5 -51 -12 -54 -10 -4 -10 -7 -1 -14 7 -5 15 -28 19 -51 6 -39 23 -59 25 -29
0 8 2 8 6 -2 8 -19 43 -53 43 -41 0 6 5 10 10 10 14 0 12 -28 -2 -33 -16 -5
-13 -300 2 -305 15 -5 12 -72 -2 -72 -10 0 -10 -2 0 -9 8 -4 16 -27 19 -50 3
-22 9 -41 14 -41 4 0 10 -13 14 -29 3 -16 12 -32 20 -35 7 -2 17 -25 20 -50 4
-25 11 -46 15 -46 5 0 11 -22 15 -50 4 -27 11 -50 16 -50 14 0 11 -27 -3 -34
-10 -5 -10 -7 0 -12 6 -3 12 -23 12 -44 0 -34 -3 -39 -29 -45 -22 -5 -31 -14
-36 -36 -4 -16 -11 -29 -16 -29 -5 0 -9 -21 -9 -48 0 -36 -5 -52 -21 -65 -16
-14 -19 -25 -13 -50 3 -18 11 -35 16 -38 5 -3 12 -25 15 -48 3 -22 9 -41 13
-41 4 0 11 -11 14 -24 3 -14 12 -31 20 -38 8 -9 16 -50 20 -108 3 -52 11 -96
16 -98 16 -6 12 -32 -5 -32 -9 0 -12 -6 -9 -15 4 -9 0 -15 -9 -15 -9 0 -20
-18 -28 -47 -7 -26 -23 -57 -36 -69 -13 -12 -27 -38 -30 -58 -3 -20 -9 -36
-13 -36 -9 0 -18 -69 -26 -202 l-5 -88 56 0 c37 0 55 -4 55 -12 0 -9 4 -8 10
2 9 13 12 13 21 -2 5 -10 19 -18 29 -18 11 0 29 -9 40 -20 11 -11 16 -20 10
-20 -15 0 -12 -19 4 -36 13 -12 15 -8 19 33 3 47 3 47 5 -10 1 -32 8 -65 15
-73 6 -8 19 -22 27 -31 13 -15 13 -16 -2 -10 -15 5 -18 1 -18 -23 0 -17 -5
-30 -12 -31 -10 0 -10 -2 0 -6 6 -2 12 -8 12 -12 0 -12 -48 -31 -73 -30 -17 1
-16 3 8 9 21 6 9 8 -44 7 -49 0 -76 3 -79 11 -2 7 -10 12 -18 12 -8 0 -17 7
-20 15 -3 8 -14 17 -25 20 -10 4 -19 13 -19 22 0 9 -6 13 -15 9 -9 -3 -15 0
-15 8 0 17 -18 25 -42 18 -12 -3 -18 -14 -18 -32 0 -16 -6 -31 -12 -33 -10 -4
-9 -8 2 -16 10 -7 11 -11 3 -11 -7 0 -13 -7 -13 -15 0 -8 6 -15 13 -16 10 0
10 -2 0 -6 -15 -6 -17 -33 -3 -33 6 0 10 -18 10 -40 0 -22 -4 -40 -9 -40 -5 0
-12 -26 -16 -57 -11 -110 -15 -125 -31 -119 -10 4 -14 -2 -14 -23 0 -22 -6
-30 -25 -35 -16 -4 -25 -13 -25 -26 0 -11 -7 -20 -15 -20 -8 0 -15 -4 -15 -10
0 -5 -11 -12 -25 -16 -14 -3 -25 -12 -25 -19 0 -7 -6 -16 -12 -18 -10 -4 -9
-8 2 -16 13 -9 13 -11 -1 -11 -8 0 -16 -8 -16 -17 1 -53 -4 -73 -17 -73 -8 0
-18 -10 -22 -22 -4 -13 -12 -27 -18 -31 -8 -6 -8 -10 2 -14 6 -2 12 -13 12
-23 0 -10 -6 -21 -12 -24 -10 -5 -10 -7 0 -12 17 -8 15 -24 -4 -24 -9 0 -14
-6 -12 -12 3 -7 25 -14 49 -16 24 -2 46 -7 47 -12 2 -6 10 -10 18 -10 8 0 17
-7 20 -15 4 -8 11 -15 18 -15 6 0 19 -9 29 -20 9 -11 23 -20 30 -20 16 0 40
-28 58 -68 8 -18 17 -32 21 -32 5 0 8 -20 8 -44 0 -36 -4 -45 -21 -49 -13 -4
-19 -11 -16 -19 3 -10 -4 -13 -29 -10 -21 3 -34 0 -34 -7 0 -6 -7 -11 -15 -11
-8 0 -15 5 -15 10 0 6 -7 10 -15 10 -8 0 -15 5 -15 10 0 6 -8 14 -17 17 -10 4
-31 19 -46 35 -16 15 -39 28 -53 28 -14 0 -24 6 -24 14 0 8 -7 16 -15 20 -8 3
-15 12 -15 21 0 9 -9 15 -25 15 -25 0 -36 19 -12 21 10 0 10 2 0 6 -7 2 -13
13 -13 24 0 14 6 19 23 18 41 -4 57 1 57 16 0 8 7 15 15 15 8 0 15 7 15 16 0
10 -6 14 -15 10 -9 -3 -15 0 -15 9 0 8 -2 15 -5 15 -9 0 -45 -40 -45 -50 0 -5
-7 -10 -15 -10 -8 0 -15 -4 -15 -9 0 -5 -16 -15 -35 -21 -27 -9 -35 -17 -35
-36 0 -20 -5 -24 -30 -24 -36 0 -50 -23 -50 -84 0 -24 -4 -46 -9 -48 -4 -1
-11 -38 -13 -81 -4 -58 -2 -82 8 -92 18 -18 18 -25 -1 -25 -8 0 -15 7 -15 15
0 8 -4 15 -10 15 -5 0 -10 -10 -10 -22 0 -57 -9 -66 -68 -73 -89 -10 -102 -15
-108 -41 -3 -13 -10 -24 -15 -24 -5 0 -9 -9 -9 -20 0 -11 -6 -20 -14 -20 -27
0 -28 -105 -2 -122 8 -6 8 -8 -1 -8 -6 0 -15 -15 -19 -33 -3 -17 -17 -42 -30
-54 -13 -12 -24 -29 -24 -38 0 -9 -4 -14 -9 -10 -5 3 -16 -2 -24 -10 -9 -8
-19 -15 -24 -15 -5 0 -16 -9 -26 -20 -9 -11 -26 -20 -37 -20 -11 0 -20 -4 -20
-10 0 -5 -14 -10 -30 -10 -19 0 -33 -6 -37 -17 -8 -21 -40 -53 -53 -53 -5 0
-12 -16 -16 -35 -3 -19 -10 -35 -14 -35 -4 0 -10 -14 -14 -31 -3 -18 -17 -42
-31 -55 -14 -13 -25 -30 -25 -39 0 -8 -7 -15 -15 -15 -9 0 -26 -11 -39 -25
-13 -14 -33 -25 -44 -25 -11 0 -28 -7 -36 -16 -9 -8 -16 -11 -16 -5 0 6 -7 11
-15 11 -8 0 -15 -4 -15 -9 0 -4 -32 -11 -72 -15 -78 -7 -90 -12 -68 -26 10 -7
11 -10 3 -10 -7 0 -13 -7 -13 -15 0 -8 -7 -15 -15 -15 -10 0 -15 -11 -15 -35
0 -19 -5 -35 -11 -35 -6 0 -8 -7 -5 -15 3 -9 -1 -18 -9 -21 -8 -4 -18 -24 -21
-45 -6 -34 -10 -39 -34 -39 -15 0 -30 6 -33 14 -4 11 -20 13 -69 9 -35 -3 -66
-11 -70 -17 -4 -6 -29 -10 -55 -9 -52 2 -75 -7 -108 -43 -12 -13 -27 -24 -34
-24 -6 0 -11 -8 -12 -17 -2 -39 3 -78 12 -81 5 -2 9 -12 9 -23 0 -14 7 -19 30
-19 17 0 30 -4 30 -9 0 -5 9 -13 20 -16 11 -3 20 -15 20 -25 0 -10 7 -25 15
-34 8 -8 15 -19 15 -25 0 -6 7 -11 15 -11 8 0 15 -7 15 -15 0 -9 7 -18 15 -21
8 -4 15 -12 15 -20 0 -8 5 -14 10 -14 6 0 10 -7 10 -15 0 -8 -5 -15 -11 -15
-7 0 -10 -13 -7 -34 2 -18 -1 -33 -7 -33 -32 0 -45 -5 -45 -18 0 -10 -11 -15
-35 -15 -19 0 -35 4 -35 9 0 5 -13 11 -30 15 -18 3 -30 12 -30 21 0 8 -8 15
-19 15 -14 0 -20 10 -24 40 -4 35 -25 70 -41 70 -15 0 -49 46 -51 69 -1 14 -3
38 -3 54 -2 20 -7 27 -22 27 -11 0 -20 -4 -20 -10 0 -5 -6 -10 -14 -10 -8 0
-21 -6 -28 -14 -8 -7 -35 -16 -61 -20 -27 -4 -51 -14 -54 -22 -3 -8 -16 -14
-29 -14 -14 0 -27 -7 -30 -15 -4 -8 -15 -15 -25 -15 -10 0 -19 -5 -19 -11 0
-6 -6 -17 -14 -25 -8 -7 -16 -19 -18 -24 -2 -6 -22 -14 -46 -17 -26 -3 -42
-11 -42 -19 0 -8 -7 -14 -15 -14 -8 0 -17 -11 -21 -24 -6 -25 -24 -32 -114
-43 -25 -3 -49 -11 -53 -19 -11 -19 -62 -18 -81 1 -17 17 -53 20 -58 5 -2 -6
-28 -11 -58 -13 -54 -2 -55 -3 -58 -35 -3 -26 0 -32 15 -32 10 0 25 -10 33
-22 8 -11 23 -28 33 -37 9 -8 17 -26 17 -38 0 -14 6 -23 15 -23 12 0 14 -14
12 -72 l-2 -73 -39 -1 c-22 0 -41 -5 -44 -12 -4 -14 -52 -16 -52 -2 0 6 -7 10
-15 10 -8 0 -15 5 -15 10 0 6 -7 10 -15 10 -8 0 -15 -4 -15 -10 0 -5 -16 -10
-35 -10 -34 0 -35 1 -35 40 0 31 3 38 15 34 25 -10 17 13 -15 46 -27 28 -30
37 -27 81 3 41 0 49 -14 49 -10 0 -20 6 -23 13 -5 10 -7 10 -12 0 -3 -8 -25
-13 -54 -13 -27 0 -51 -4 -54 -8 -3 -5 -31 -10 -63 -11 -31 -1 -60 -5 -63 -10
-3 -4 -18 -11 -35 -15 -16 -4 -33 -12 -36 -18 -4 -6 -18 -10 -33 -10 -15 0
-26 -6 -26 -14 0 -8 -6 -14 -13 -14 -23 0 -67 -25 -67 -37 0 -9 -16 -13 -45
-13 -25 0 -45 -4 -45 -10 0 -15 -100 -13 -101 3 0 10 -2 10 -6 0 -6 -17 -30
-17 -36 0 -4 9 -8 8 -16 -3 -9 -13 -11 -13 -11 3 0 9 -7 17 -15 17 -8 0 -15 6
-15 14 0 8 -12 17 -26 20 -14 4 -37 19 -50 33 -13 14 -24 21 -24 14 0 -15 -37
-14 -43 2 -4 9 -7 9 -15 -1 -5 -7 -30 -13 -56 -14 -29 0 -50 -6 -53 -13 -2 -7
-24 -19 -49 -26 -24 -7 -44 -19 -44 -26 0 -7 -9 -13 -20 -13 -11 0 -20 -4 -20
-10 0 -5 -11 -10 -25 -10 -14 0 -25 5 -25 10 0 6 -7 10 -15 10 -8 0 -15 -4
-15 -10 0 -5 -16 -10 -35 -10 -19 0 -35 4 -35 9 0 5 -29 12 -65 16 -36 3 -65
11 -65 16 0 5 -11 15 -25 21 -14 6 -25 17 -25 25 0 7 -11 13 -25 13 -14 0 -25
5 -25 10 0 6 -9 10 -19 10 -11 0 -26 7 -35 15 -16 17 -82 21 -88 5 -5 -14
-191 -15 -196 -1 -5 14 -32 15 -32 1 0 -5 -7 -10 -15 -10 -8 0 -12 -6 -9 -14
3 -8 -3 -16 -15 -19 -29 -7 -61 3 -61 19 0 8 -4 14 -10 14 -5 0 -10 7 -10 15
0 9 -8 19 -17 22 -10 4 -23 13 -28 21 -6 7 -15 13 -20 12 -6 -2 -34 -2 -62 -1
-40 1 -53 5 -53 16 0 12 -16 15 -80 15 -47 0 -80 4 -80 10 0 6 -14 10 -30 10
-17 0 -33 6 -36 14 -3 8 -19 19 -35 25 -16 5 -29 14 -29 20 0 5 -13 12 -30 16
-16 4 -30 10 -30 15 0 5 -13 11 -29 15 -16 3 -32 13 -35 21 -3 8 -12 14 -21
14 -8 0 -15 4 -15 8 0 5 -12 15 -27 23 -16 8 -31 18 -34 23 -4 5 -20 8 -35 8
-16 0 -37 9 -47 19 -10 10 -31 19 -47 19 -15 0 -30 6 -33 13 -2 8 -28 12 -85
11 -45 0 -82 3 -82 8 0 4 7 8 15 8 8 0 15 7 15 15 0 8 -7 15 -15 15 -8 0 -15
5 -15 10 0 6 -7 10 -15 10 -8 0 -15 7 -15 15 0 8 -8 15 -18 15 -22 0 -65 34
-55 44 3 3 -1 6 -10 6 -8 0 -17 5 -19 11 -2 6 -27 14 -56 17 -29 2 -52 8 -52
12 0 5 -13 11 -30 15 -16 4 -30 10 -30 15 0 4 -23 10 -50 14 -27 4 -50 11 -50
16 0 6 -7 10 -15 10 -8 0 -15 8 -15 19 0 12 -9 20 -29 24 -19 4 -31 14 -34 29
-4 14 -19 28 -37 35 -23 8 -30 17 -30 37 0 14 -6 26 -13 26 -7 0 -20 9 -30 20
-9 11 -24 20 -32 20 -8 0 -15 3 -15 8 0 4 -15 13 -32 21 -18 8 -36 18 -39 23
-3 5 -17 10 -31 11 -26 2 -58 28 -58 47 0 6 -8 14 -17 17 -26 10 -49 38 -57
67 -5 19 -15 28 -36 33 -17 3 -30 10 -30 15 0 11 -74 88 -84 88 -11 0 -101 94
-109 113 -3 9 -13 17 -22 17 -8 0 -15 5 -15 10 0 6 -7 10 -15 10 -8 0 -15 7
-15 15 0 9 -6 18 -14 21 -8 3 -18 18 -21 34 -3 16 -13 31 -21 34 -8 3 -14 12
-14 21 0 8 -4 15 -10 15 -5 0 -10 6 -10 13 0 8 -16 30 -35 50 -19 20 -35 39
-35 42 0 3 -29 35 -65 70 -35 36 -67 76 -71 90 -3 14 -10 25 -15 25 -5 0 -15
12 -22 28 -12 26 -20 39 -43 65 -6 7 -15 24 -19 37 -4 13 -21 35 -36 49 -16
14 -29 31 -29 39 0 7 -6 15 -14 18 -8 3 -17 17 -21 31 -3 13 -10 30 -16 36
-40 49 -49 62 -49 72 0 7 -6 15 -14 18 -8 3 -17 19 -21 36 -4 17 -10 31 -15
31 -5 0 -11 14 -15 30 -4 17 -10 30 -15 30 -4 0 -11 11 -14 25 -4 14 -10 25
-15 25 -5 0 -14 20 -21 45 -7 25 -16 45 -21 45 -4 0 -10 14 -14 30 -4 17 -10
30 -15 30 -4 0 -11 12 -14 26 -4 15 -14 33 -21 41 -8 8 -15 25 -15 39 0 13 -4
24 -8 24 -5 0 -14 18 -21 40 -6 22 -16 40 -20 40 -5 0 -11 18 -15 40 -3 22
-10 40 -15 40 -5 0 -12 17 -16 37 -4 21 -11 41 -17 44 -5 3 -12 25 -15 48 -3
22 -9 41 -13 41 -4 0 -13 28 -20 63 -6 34 -16 65 -22 68 -5 3 -12 26 -15 50
-3 24 -10 47 -16 50 -5 4 -12 30 -15 58 -2 28 -8 51 -12 51 -4 0 -13 36 -20
80 -7 44 -16 80 -20 80 -4 0 -11 36 -14 80 -4 44 -11 80 -16 80 -4 0 -11 42
-15 93 -4 50 -11 94 -16 97 -4 3 -11 63 -15 133 -4 70 -11 127 -15 127 -15 0
-11 168 4 173 9 4 8 8 -3 16 -12 8 -15 34 -15 121 0 88 3 113 15 120 10 7 11
10 3 10 -9 0 -13 23 -13 80 0 44 4 80 9 80 4 0 11 62 15 137 4 76 11 140 16
143 5 3 12 45 16 93 4 48 10 87 14 87 5 0 11 36 15 80 4 44 11 80 15 80 4 0
13 36 21 80 7 44 16 80 20 80 4 0 10 27 14 60 4 33 10 60 15 60 4 0 10 21 13
47 3 26 10 49 15 51 6 2 16 28 23 58 7 30 15 54 19 54 4 0 10 23 14 50 4 28
11 50 16 50 5 0 12 16 16 35 3 19 10 35 14 35 4 0 10 18 14 40 3 22 10 40 14
40 5 0 14 23 21 50 7 28 16 50 21 50 4 0 11 16 14 35 4 19 11 35 16 35 4 0 11
14 15 30 4 17 10 30 15 30 4 0 11 11 14 25 4 14 10 25 15 25 5 0 14 20 21 45
7 25 16 45 21 45 4 0 10 14 14 30 4 17 11 30 16 30 5 0 9 7 9 15 0 9 6 18 13
21 8 3 20 20 27 39 8 19 17 35 21 35 4 0 10 12 13 26 6 24 13 34 43 68 7 8 15
25 19 40 3 14 10 26 14 26 4 0 13 14 19 30 5 17 15 30 20 30 6 0 11 7 11 15 0
9 7 18 15 21 8 4 15 11 15 18 0 13 26 50 53 74 9 9 17 22 17 28 0 10 28 44 85
105 8 9 15 20 15 26 0 9 22 36 95 115 14 15 25 30 25 34 0 5 23 30 50 56 28
26 50 52 50 57 0 12 288 301 300 301 5 0 31 23 58 50 27 28 53 50 57 50 4 0
22 14 39 30 65 63 120 110 129 110 6 0 20 11 33 25 13 14 28 25 34 25 6 0 13
6 16 14 3 8 19 19 35 25 16 5 29 15 29 20 0 6 7 11 15 11 9 0 18 6 21 14 3 8
16 17 30 20 13 4 24 11 24 16 0 6 7 10 15 10 9 0 18 6 21 13 3 8 20 20 39 27
19 8 35 17 35 22 0 4 6 8 13 8 12 0 25 9 74 49 6 6 23 13 36 16 14 4 28 13 31
20 2 7 18 16 35 20 17 4 31 11 31 16 0 5 7 9 15 9 9 0 18 6 21 14 3 8 19 18
35 21 16 4 29 10 29 14 0 5 20 14 45 21 25 7 45 16 45 21 0 5 11 11 25 15 14
3 25 10 25 15 0 4 17 11 37 15 21 4 44 13 51 21 7 7 20 13 28 13 8 0 14 4 14
10 0 5 27 15 60 22 33 6 60 15 60 20 0 4 16 10 35 14 19 3 35 10 35 15 0 4 16
11 35 15 19 3 35 10 35 14 0 4 20 11 45 14 25 4 45 11 45 16 0 4 29 14 65 21
36 7 65 16 65 20 0 5 23 11 50 15 28 4 50 10 50 14 0 4 22 10 49 14 27 4 51
11 53 17 2 5 47 15 101 21 53 6 97 14 97 18 0 5 27 11 60 15 33 4 60 11 60 15
0 4 47 11 105 15 58 4 105 11 105 16 0 14 68 11 73 -3 4 -10 8 -10 15 0 6 10
40 15 103 18 52 2 95 8 97 14 5 13 192 13 192 0z m5288 -1847 c-64 -5 -61 -23
2 -23 l51 0 -2 -47 c-2 -32 -9 -55 -23 -70 -25 -26 -36 -29 -36 -8 0 10 -10
15 -30 15 -16 0 -30 -4 -30 -9 0 -13 -32 -23 -42 -13 -14 14 2 64 18 58 10 -4
14 4 14 29 0 35 -22 50 -33 23 -4 -9 -6 -8 -6 2 -2 38 23 49 104 47 55 -1 56
-1 13 -4z m-314 -380 c3 -16 4 -54 2 -85 -2 -36 0 -59 8 -62 6 -2 -1 -5 -16
-5 -16 -1 -28 -5 -28 -11 0 -5 -4 -10 -10 -10 -5 0 -10 6 -10 14 0 9 -18 16
-55 21 -38 4 -55 11 -55 21 0 8 -4 14 -10 14 -5 0 -10 16 -10 35 0 19 5 35 10
35 6 0 10 6 10 14 0 31 30 46 95 46 61 0 64 -1 69 -27z m-807 -145 c-3 -7 -5
-2 -5 12 0 14 2 19 5 13 2 -7 2 -19 0 -25z m393 -177 c0 -5 12 -11 28 -13 27
-3 27 -3 30 -92 l3 -88 -28 6 c-89 20 -94 20 -100 -3 -7 -26 -17 -27 -43 -1
-22 22 -26 40 -10 40 6 0 10 19 10 43 0 66 9 85 41 92 16 4 29 11 29 16 0 5 9
9 20 9 11 0 20 -4 20 -9z m774 -6 c3 -8 12 -15 20 -15 8 0 17 -13 21 -30 4
-16 11 -30 16 -30 19 0 8 -28 -14 -34 -19 -4 -25 -16 -33 -53 l-9 -48 -73 0
c-81 0 -92 8 -92 63 0 17 -4 32 -10 32 -5 0 -10 11 -10 25 0 14 5 25 10 25 6
0 10 6 10 13 0 8 10 26 23 40 19 22 31 26 78 26 42 1 58 -3 63 -14z m123 -271
c-3 -3 -12 -4 -19 -1 -8 3 -5 6 6 6 11 1 17 -2 13 -5z m-507 -49 c0 -18 16
-20 23 -2 3 6 5 -1 5 -18 -1 -47 14 -135 22 -135 16 0 22 -54 7 -65 -8 -5 -17
-21 -22 -34 -5 -18 -9 -21 -16 -10 -8 12 -11 12 -19 -1 -6 -10 -10 -11 -10 -2
0 8 -17 12 -49 12 -27 0 -56 6 -63 13 -7 7 -21 16 -30 20 -14 5 -18 18 -18 51
0 36 6 51 33 79 48 53 63 71 70 90 8 22 67 24 67 2z m763 -35 c9 -11 12 -20 7
-20 -6 0 -10 -27 -10 -60 0 -33 4 -60 10 -60 6 0 10 -7 10 -15 0 -8 -6 -15
-12 -15 -9 0 -8 -4 2 -10 10 -6 11 -10 3 -10 -7 0 -13 -5 -13 -11 0 -13 -25
-39 -38 -39 -6 0 -13 6 -16 13 -5 9 -7 9 -12 0 -6 -14 -26 0 -37 27 -4 12 -6
11 -6 -2 -1 -22 -31 -24 -31 -3 0 8 -7 15 -16 15 -8 0 -22 6 -30 14 -16 16
-19 96 -4 96 6 0 10 6 10 13 0 7 9 20 20 30 11 9 20 23 20 31 0 11 15 16 53
19 28 2 57 4 62 5 6 1 18 -7 28 -18z m17 -260 c0 -11 -4 -20 -10 -20 -5 0 -10
9 -10 20 0 11 5 20 10 20 6 0 10 -9 10 -20z m-1152 -57 c-27 -7 -21 -21 10
-26 16 -2 10 -4 -18 -5 -25 0 -39 2 -32 5 6 2 12 11 12 19 0 8 9 14 23 13 16
-1 18 -2 5 -6z m732 -38 c0 -8 4 -15 9 -15 5 0 11 -9 14 -20 3 -12 14 -20 27
-20 17 0 21 -4 17 -20 -3 -11 1 -27 9 -34 17 -18 18 -36 2 -37 -10 0 -10 -2 0
-6 20 -8 14 -20 -13 -27 -25 -6 -35 -35 -12 -37 10 0 10 -2 0 -6 -7 -2 -13
-15 -13 -28 0 -13 6 -26 13 -28 6 -3 2 -6 -10 -6 -12 -1 -24 -7 -27 -13 -3 -9
-8 -8 -16 5 -8 12 -24 17 -55 17 -41 0 -45 2 -45 25 0 15 -7 28 -17 32 -33 13
-43 32 -43 83 0 44 4 56 30 82 17 16 30 36 30 43 0 15 20 22 68 24 22 1 32 -4
32 -14z m-700 -185 c0 -16 -4 -30 -10 -30 -5 0 -10 14 -10 30 0 17 5 30 10 30
6 0 10 -13 10 -30z m820 15 c0 -8 -4 -15 -10 -15 -5 0 -10 7 -10 15 0 8 5 15
10 15 6 0 10 -7 10 -15z m-850 -15 c0 -5 -4 -10 -9 -10 -6 0 -13 5 -16 10 -3
6 1 10 9 10 9 0 16 -4 16 -10z m880 -75 c0 -8 -4 -15 -10 -15 -5 0 -10 7 -10
15 0 8 5 15 10 15 6 0 10 -7 10 -15z m-465 -95 c18 0 29 -52 20 -97 -4 -25
-10 -33 -21 -29 -8 3 -14 -1 -14 -9 0 -8 9 -15 20 -15 13 0 20 -7 20 -20 0
-22 16 -27 23 -7 2 6 2 -1 -1 -18 -2 -16 -16 -41 -30 -53 -20 -19 -22 -26 -11
-33 11 -7 9 -9 -8 -9 -12 0 -24 -6 -27 -12 -5 -10 -7 -10 -12 0 -3 6 -13 12
-22 13 -11 0 -12 2 -4 6 27 11 9 21 -47 25 -70 5 -87 19 -96 81 -9 56 0 97 20
97 8 0 15 5 15 10 0 6 9 10 19 10 14 0 18 5 14 19 -8 32 25 54 74 48 35 -4 43
-1 44 12 1 13 2 13 6 -1 2 -10 11 -18 18 -18z m709 -5 c8 -8 18 -15 23 -15 4
0 9 -17 11 -38 1 -20 7 -38 12 -40 12 -4 13 -52 1 -52 -5 0 -12 -11 -15 -25
-4 -14 -13 -25 -21 -25 -8 0 -15 -4 -15 -10 0 -5 7 -10 15 -10 9 0 19 -8 22
-17 4 -10 13 -24 20 -31 26 -27 4 -42 -63 -42 -35 0 -64 4 -64 9 0 5 -10 13
-22 17 -29 9 -46 26 -40 42 2 6 -4 12 -13 12 -9 0 -19 9 -22 20 -3 11 -9 20
-14 20 -14 0 -11 79 4 96 43 51 84 92 97 97 28 11 69 7 84 -8z m-634 -110 c0
-8 -4 -15 -10 -15 -5 0 -10 7 -10 15 0 8 5 15 10 15 6 0 10 -7 10 -15z m300
-291 c0 -25 -5 -44 -11 -44 -6 0 -3 -7 5 -16 18 -17 19 -30 10 -98 -4 -27 -12
-46 -19 -46 -7 0 -16 -16 -19 -36 -6 -30 -10 -34 -29 -28 -12 4 -26 13 -30 20
-4 8 -19 14 -32 14 -14 0 -25 5 -25 11 0 6 -16 25 -35 43 -36 34 -47 83 -25
109 45 53 60 73 60 80 0 11 22 33 38 38 6 2 34 2 62 1 l50 -4 0 -44z m37 -126
c-2 -13 -4 -5 -4 17 -1 22 1 32 4 23 2 -10 2 -28 0 -40z m-437 -194 c0 -9 9
-24 19 -33 12 -10 22 -35 25 -60 5 -49 13 -62 26 -41 7 11 10 9 10 -12 0 -15
-8 -32 -17 -38 -17 -11 -17 -11 0 -6 10 3 17 0 17 -8 0 -8 -10 -16 -21 -19
-15 -4 -20 -11 -16 -22 4 -8 4 -29 0 -46 -4 -23 -10 -29 -24 -26 -10 3 -20 0
-22 -6 -6 -18 -79 2 -84 24 -3 10 -12 19 -19 19 -23 0 -54 33 -54 57 0 13 -4
23 -10 23 -5 0 -10 25 -10 55 0 41 4 55 14 55 21 0 46 28 40 44 -3 8 3 17 14
20 11 4 23 13 26 21 8 22 86 21 86 -1z m721 -6 c0 -10 2 -10 6 0 5 14 43 17
43 2 0 -5 -8 -14 -17 -20 -14 -9 -15 -12 -4 -17 11 -4 11 -7 0 -14 -18 -11 -7
-19 31 -24 32 -4 55 -15 32 -15 -7 0 -13 -12 -13 -27 -1 -17 -3 -21 -6 -10 -5
20 -23 23 -23 5 0 -7 -3 -23 -6 -35 -5 -18 -2 -23 12 -23 12 0 15 -3 8 -8 -6
-4 -14 -17 -18 -29 -6 -18 -3 -23 11 -24 10 0 13 -3 6 -6 -7 -2 -13 -11 -13
-18 0 -7 6 -16 13 -18 9 -4 9 -7 0 -14 -15 -10 -83 -5 -83 7 0 4 -20 10 -45
13 -62 9 -88 37 -93 104 -3 30 -9 53 -16 53 -6 0 -4 5 4 10 12 8 13 12 2 19
-11 7 -11 9 2 14 9 4 16 14 16 23 0 13 8 15 35 12 19 -2 35 0 35 4 0 31 79 66
81 36z m-341 -374 c0 -14 6 -24 15 -24 10 0 14 -10 13 -36 -1 -21 5 -40 13
-46 11 -7 11 -11 2 -15 -7 -2 -13 -15 -13 -28 0 -14 -9 -33 -21 -44 -30 -27
-22 -65 14 -69 15 -2 27 -8 27 -13 0 -14 -67 -11 -74 4 -5 10 -7 10 -12 0 -7
-15 -44 -18 -44 -4 0 5 -13 12 -30 16 -16 4 -30 10 -30 15 0 4 -9 10 -20 13
-11 3 -20 12 -20 21 0 9 -4 16 -10 16 -5 0 -10 9 -10 21 0 15 5 19 15 15 13
-5 14 3 9 49 -5 40 -3 55 5 55 7 0 19 7 27 15 9 8 29 15 45 15 24 0 29 4 29
24 0 27 13 35 47 28 16 -3 23 -11 23 -28z m373 -334 c25 0 37 -5 37 -14 0 -10
-11 -12 -44 -9 -38 5 -44 3 -49 -16 -3 -14 0 -21 8 -21 7 0 16 -13 20 -30 5
-21 12 -30 27 -30 19 0 20 -5 16 -90 -5 -92 -12 -115 -28 -90 -8 13 -10 12
-10 -2 0 -13 -8 -18 -27 -18 -43 0 -73 11 -73 26 0 8 -7 14 -15 14 -8 0 -15 5
-15 10 0 6 -6 10 -13 10 -29 0 -47 39 -47 105 0 65 0 66 30 72 17 3 30 12 30
19 0 8 7 14 15 14 9 0 15 9 15 23 0 33 10 40 50 33 19 -3 52 -6 73 -6z m-848
-50 c7 0 16 6 19 13 5 10 7 10 12 0 7 -15 34 -17 34 -3 0 18 30 11 31 -7 1
-17 2 -17 6 0 8 32 33 19 33 -18 0 -24 -5 -35 -15 -35 -9 0 -15 -9 -15 -25 0
-16 6 -25 16 -25 9 0 18 -9 21 -20 3 -11 10 -20 15 -20 5 0 3 -7 -6 -15 -8 -8
-19 -15 -25 -15 -5 0 -13 -16 -17 -35 -4 -25 -11 -35 -25 -35 -11 0 -19 -7
-19 -15 0 -22 -17 -18 -23 5 -6 25 -27 26 -28 3 -1 -17 -2 -17 -6 0 -2 9 -8
17 -13 17 -4 0 -11 11 -14 24 -4 17 -15 26 -35 31 -18 4 -31 14 -35 28 -10 38
-7 67 9 73 8 4 15 13 15 20 0 8 6 17 14 20 8 3 17 17 21 32 4 15 10 21 12 15
3 -7 11 -13 18 -13z m495 -320 c0 -5 -13 -10 -30 -10 -16 0 -30 5 -30 10 0 6
14 10 30 10 17 0 30 -4 30 -10z m30 0 c0 -5 -4 -10 -10 -10 -5 0 -10 5 -10 10
0 6 5 10 10 10 6 0 10 -4 10 -10z m-100 -29 c0 -5 -8 -12 -17 -14 -10 -3 -3
-5 15 -6 21 -1 32 -6 32 -15 0 -8 9 -18 20 -21 23 -7 26 -21 8 -28 -7 -3 2 -6
20 -6 27 -1 32 -5 32 -26 0 -14 -7 -28 -15 -31 -9 -4 -15 -19 -15 -35 0 -21
-5 -29 -17 -29 -14 0 -15 -2 -4 -9 11 -7 9 -13 -8 -30 -11 -11 -21 -17 -21
-12 0 5 -25 12 -55 16 -30 3 -55 10 -55 15 0 4 -11 18 -25 31 -13 13 -25 32
-25 42 0 9 -4 17 -10 17 -5 0 -10 17 -10 38 0 32 5 41 28 53 15 8 32 20 38 28
6 8 16 11 22 7 7 -4 12 -1 12 8 0 10 9 16 25 16 14 0 25 -4 25 -9z m70 -16 c0
-14 -4 -25 -10 -25 -5 0 -10 11 -10 25 0 14 5 25 10 25 6 0 10 -11 10 -25z
m90 -115 c0 -5 -4 -10 -10 -10 -5 0 -10 5 -10 10 0 6 5 10 10 10 6 0 10 -4 10
-10z m-420 -195 c0 -8 -4 -15 -10 -15 -5 0 -10 7 -10 15 0 8 5 15 10 15 6 0
10 -7 10 -15z m-30 -5 c0 -5 -4 -10 -10 -10 -5 0 -10 5 -10 10 0 6 5 10 10 10
6 0 10 -4 10 -10z m721 -2 c0 -10 2 -10 6 0 8 21 23 13 23 -13 0 -14 -4 -25
-10 -25 -5 0 -10 5 -10 10 0 6 -11 10 -25 10 -22 0 -24 2 -13 15 16 18 28 19
29 3z m-110 -48 c5 0 10 8 10 18 1 15 2 15 6 -2 4 -16 12 -18 51 -13 26 2 41
2 35 0 -14 -5 -18 -59 -5 -65 5 -1 12 -20 15 -40 4 -29 2 -38 -9 -38 -8 0 -14
-10 -14 -25 0 -14 4 -25 10 -25 5 0 2 -9 -7 -20 -14 -16 -30 -20 -81 -20 -46
0 -64 4 -68 15 -4 8 -13 15 -21 15 -13 0 -14 11 -8 65 6 56 4 65 -9 65 -29 0
-18 30 12 31 15 0 21 3 15 6 -26 10 -13 33 17 33 21 0 30 5 31 18 1 16 2 16 6
0 2 -10 9 -18 14 -18z m169 20 c0 -5 -4 -10 -10 -10 -5 0 -10 5 -10 10 0 6 5
10 10 10 6 0 10 -4 10 -10z m-820 -35 c0 -8 9 -15 20 -15 19 0 22 -7 22 -50 0
-91 -3 -110 -17 -110 -10 0 -15 -10 -15 -29 0 -25 -4 -29 -32 -32 -61 -7 -86
0 -92 27 -4 14 -14 28 -24 31 -9 4 -23 12 -29 19 -15 15 -17 44 -3 44 6 0 10
9 10 20 0 11 -4 20 -10 20 -5 0 -10 15 -10 33 l0 34 57 -1 c36 0 58 4 61 12 6
18 62 15 62 -3z m370 -295 c0 -5 -7 -10 -15 -10 -8 0 -15 5 -15 10 0 6 7 10
15 10 8 0 15 -4 15 -10z m60 0 c0 -5 -4 -10 -10 -10 -5 0 -10 5 -10 10 0 6 5
10 10 10 6 0 10 -4 10 -10z m-70 -60 c10 13 11 13 9 0 -1 -8 -1 -24 0 -35 1
-16 3 -17 11 -5 14 23 19 9 25 -71 6 -70 5 -76 -19 -102 -21 -23 -38 -30 -82
-34 -50 -5 -56 -4 -61 16 -3 11 -11 21 -18 21 -7 0 -16 11 -19 25 -4 14 -11
25 -16 25 -6 0 -10 7 -10 15 0 8 7 15 15 15 11 0 15 12 15 49 0 54 7 60 75 67
22 3 42 9 44 15 2 7 7 6 12 -2 8 -12 11 -11 19 1z m-829 -22 c17 -10 23 -10
26 0 3 8 26 12 64 12 56 0 59 -1 59 -25 0 -14 -4 -25 -10 -25 -5 0 -10 -24
-10 -52 0 -80 -16 -127 -45 -134 -44 -11 -105 15 -105 44 0 5 -11 13 -24 16
-17 4 -26 15 -31 36 -4 16 -12 30 -18 30 -9 0 -9 2 -1 8 6 4 14 25 18 47 11
55 34 68 77 43z m186 -30 c-3 -8 -6 -5 -6 6 -1 11 2 17 5 13 3 -3 4 -12 1 -19z
m263 -347 c9 -14 11 -14 20 -1 8 12 10 9 10 -12 0 -15 8 -32 18 -37 15 -9 15
-12 2 -21 -10 -6 -11 -10 -2 -10 6 0 12 -7 12 -15 0 -8 -4 -15 -10 -15 -5 0
-10 -9 -10 -20 0 -13 -7 -20 -19 -20 -12 0 -21 -9 -25 -25 -5 -18 -13 -25 -31
-25 -14 0 -25 -6 -26 -12 0 -10 -2 -10 -6 0 -2 6 -9 12 -13 12 -5 0 -32 23
-60 50 -47 48 -63 80 -40 80 5 0 12 11 16 25 3 14 10 25 14 25 4 0 10 9 13 20
5 18 13 20 66 19 45 -1 64 -6 71 -18z m-627 -18 c-7 -2 -19 -2 -25 0 -7 3 -2
5 12 5 14 0 19 -2 13 -5z m-363 -143 c0 -5 -4 -10 -10 -10 -5 0 -10 5 -10 10
0 6 5 10 10 10 6 0 10 -4 10 -10z m10 -32 c0 -8 -16 -14 -40 -16 -30 -2 -40 1
-40 13 0 11 11 15 40 15 25 0 40 -5 40 -12z m607 -168 c10 -11 23 -20 30 -20
8 0 16 -13 20 -30 3 -16 9 -30 14 -30 5 0 9 -13 9 -30 0 -16 -4 -30 -10 -30
-5 0 -10 -9 -10 -20 0 -13 -7 -20 -20 -20 -22 0 -27 -15 -7 -24 6 -2 -14 -4
-46 -4 -43 1 -64 6 -82 22 -14 12 -25 25 -25 30 0 4 -7 14 -15 22 -9 10 -15
34 -15 66 0 41 3 51 20 55 11 3 20 9 20 13 0 11 25 17 68 19 21 1 38 -6 49
-19z m664 -2 c0 -10 2 -10 6 0 7 19 51 14 75 -8 30 -27 20 -89 -20 -130 -25
-24 -39 -30 -75 -30 -48 0 -57 9 -57 56 0 13 -4 24 -10 24 -14 0 -12 68 3 85
15 18 77 20 78 3z m-1481 -28 c0 -5 -4 -10 -10 -10 -5 0 -10 5 -10 10 0 6 5
10 10 10 6 0 10 -4 10 -10z m1 -85 c16 5 19 1 19 -29 0 -20 -4 -36 -10 -36 -5
0 -10 9 -10 20 0 25 -17 26 -23 3 -3 -10 -5 5 -4 32 0 28 2 40 4 27 3 -17 9
-21 24 -17z m139 -80 c0 -18 -5 -25 -20 -25 -25 0 -27 37 -2 43 9 3 18 5 20 6
1 0 2 -10 2 -24z m248 -152 c-49 -7 -30 -23 27 -23 30 0 55 5 55 10 0 6 7 10
16 10 11 0 13 -6 9 -19 -9 -29 4 -71 21 -64 11 4 14 -5 14 -36 0 -23 -4 -41
-10 -41 -5 0 -10 -5 -10 -11 0 -15 -25 -37 -55 -49 -32 -12 -115 6 -115 25 0
8 -8 21 -17 31 -23 22 -25 101 -3 114 13 9 13 11 0 20 -10 6 -11 10 -2 10 6 0
12 7 12 15 0 11 11 15 43 14 29 -2 34 -3 15 -6z m833 -18 c1 -8 2 -29 3 -45 0
-17 8 -35 16 -40 10 -7 12 -12 4 -17 -6 -5 -15 -21 -21 -38 -8 -26 -15 -30
-51 -33 -23 -2 -42 -7 -42 -13 0 -20 -36 -7 -60 21 -13 17 -30 30 -37 30 -8 0
-13 13 -13 35 0 24 5 35 15 35 8 0 15 6 15 14 0 30 30 46 86 46 30 0 54 5 54
10 0 16 30 11 31 -5z m-1210 -365 c16 0 29 5 29 10 0 6 9 10 20 10 11 0 20 -5
20 -11 0 -7 11 -22 25 -35 14 -13 25 -28 25 -34 0 -6 5 -8 10 -5 11 7 14 -75
4 -113 -6 -20 -12 -22 -71 -21 -44 1 -66 6 -70 15 -3 8 -11 14 -19 14 -8 0
-14 9 -14 20 0 11 -7 20 -15 20 -11 0 -15 12 -15 49 0 31 6 55 15 65 8 8 15
21 16 28 0 10 2 10 6 1 2 -7 18 -13 34 -13z m715 5 c11 -10 28 -13 59 -9 40 4
45 3 45 -16 0 -13 7 -20 20 -20 18 0 20 -7 20 -60 0 -51 -3 -60 -18 -60 -10 0
-25 -9 -35 -20 -20 -24 -75 -27 -83 -5 -4 8 -12 15 -19 15 -9 0 -16 22 -21 68
-3 37 -12 71 -18 75 -8 6 -8 10 2 14 6 2 12 11 12 19 0 18 17 18 36 -1z m397
-272 c-7 -2 -21 -2 -30 0 -10 3 -4 5 12 5 17 0 24 -2 18 -5z m-1413 -108 c0
-8 9 -15 20 -15 11 0 20 -6 20 -14 0 -8 6 -16 14 -19 9 -4 14 -26 15 -70 1
-59 -1 -65 -21 -71 -38 -10 -120 -7 -113 4 3 6 1 10 -5 10 -6 0 -21 11 -34 25
-13 14 -28 25 -35 25 -6 0 -11 9 -11 20 0 11 5 20 10 20 15 0 12 60 -2 61 -8
0 -7 3 2 6 8 4 21 12 28 20 19 19 112 18 112 -2z m688 9 c51 -6 63 -11 68 -28
4 -12 15 -27 25 -34 27 -19 24 -66 -7 -99 -22 -24 -34 -28 -77 -28 -75 0 -93
21 -100 119 -7 86 -14 81 91 70z m-1363 -80 c-7 -8 -25 -14 -39 -14 -22 0 -26
-4 -26 -30 0 -16 5 -30 10 -30 6 0 10 -7 10 -15 0 -8 9 -15 20 -15 12 0 20 7
20 16 0 11 5 14 16 10 9 -3 18 -6 20 -6 2 0 4 -6 4 -14 0 -16 -66 -30 -116
-24 -26 3 -29 7 -31 43 -1 22 1 32 4 23 2 -10 11 -18 19 -18 10 0 14 13 14 44
0 48 9 55 62 48 23 -4 25 -6 13 -18z m1265 -9 c0 -8 -4 -15 -10 -15 -5 0 -10
7 -10 15 0 8 5 15 10 15 6 0 10 -7 10 -15z m-1570 -25 c0 -5 -4 -10 -10 -10
-5 0 -10 5 -10 10 0 6 5 10 10 10 6 0 10 -4 10 -10z m290 0 c0 -5 -4 -10 -10
-10 -5 0 -10 5 -10 10 0 6 5 10 10 10 6 0 10 -4 10 -10z m-276 -33 c13 -13 27
-103 19 -124 -10 -28 -23 -10 -23 31 0 46 -16 69 -31 45 -5 -8 -8 -25 -8 -39
0 -14 3 -19 6 -12 7 17 23 15 23 -3 0 -11 -12 -15 -45 -15 -45 0 -45 0 -45 35
0 19 5 35 10 35 6 0 10 -13 10 -30 0 -20 5 -30 15 -30 10 0 15 11 15 35 0 30
-3 35 -24 35 -13 0 -26 7 -30 15 -4 11 2 15 24 15 17 0 30 5 30 10 0 14 39 12
54 -3z m1306 -197 c0 -5 -7 -10 -15 -10 -8 0 -15 5 -15 10 0 6 7 10 15 10 8 0
15 -4 15 -10z m-684 -34 c8 -9 21 -16 29 -16 19 0 37 -83 25 -115 -12 -30 -34
-55 -49 -55 -6 0 -11 -4 -11 -10 0 -5 -18 -10 -41 -10 -31 0 -40 3 -36 14 7
17 -35 30 -64 21 -13 -4 -19 -2 -19 9 0 9 5 16 10 16 6 0 10 25 10 55 0 57
-16 76 -23 28 -3 -20 -4 -15 -6 15 -1 31 3 42 14 42 8 0 15 6 15 13 0 8 4 7
10 -3 7 -10 12 -12 18 -4 18 28 90 27 118 0z m748 -10 c16 -16 21 -33 21 -73
0 -43 -4 -55 -28 -77 -33 -31 -80 -34 -99 -7 -7 10 -23 21 -35 25 -13 4 -23
15 -23 25 0 10 -3 46 -6 79 l-7 61 78 -6 c61 -4 82 -10 99 -27z m-5974 9 c0
-8 -4 -15 -10 -15 -5 0 -10 7 -10 15 0 8 5 15 10 15 6 0 10 -7 10 -15z m6455
-264 c-3 -6 -11 -11 -16 -11 -5 0 -4 6 3 14 14 16 24 13 13 -3z m-2352 -76
c17 -5 29 -16 33 -31 3 -13 11 -24 16 -24 29 0 55 -61 44 -105 -7 -29 -54 -45
-133 -45 -29 0 -53 -4 -53 -10 0 -5 -11 -10 -25 -10 -24 0 -25 3 -25 59 0 38
4 61 13 64 9 3 9 9 -1 26 -7 12 -10 32 -6 46 5 19 14 25 50 31 24 3 44 11 44
18 0 8 2 8 8 -1 4 -6 20 -15 35 -18z m741 -10 c8 -8 18 -15 22 -15 5 0 18 -11
30 -25 16 -18 21 -39 22 -82 0 -32 -2 -52 -4 -45 -9 19 -24 14 -24 -8 0 -13
-7 -20 -20 -20 -11 0 -20 -4 -20 -10 0 -5 -13 -10 -30 -10 -16 0 -30 4 -30 9
0 5 -13 11 -30 15 -16 3 -30 11 -30 19 0 7 -10 21 -21 31 -18 15 -21 26 -16
63 3 25 9 48 14 52 5 3 12 14 16 24 8 22 98 24 121 2z m-4444 -5 c0 -5 9 -10
20 -10 11 0 20 5 20 10 0 16 18 12 40 -10 26 -26 25 -36 -1 -43 -23 -6 -23
-11 -3 -100 l6 -28 -88 3 c-89 3 -89 3 -92 31 -2 15 -8 27 -13 27 -5 0 -9 9
-9 20 0 11 4 20 9 20 5 0 12 13 16 29 5 22 14 31 36 36 16 4 29 11 29 16 0 5
7 9 15 9 8 0 15 -4 15 -10z m5070 1 c0 -4 32 -12 70 -15 48 -5 70 -11 70 -21
0 -7 7 -15 15 -19 22 -8 19 -63 -5 -83 -11 -10 -20 -25 -20 -35 0 -15 -9 -18
-60 -18 -53 0 -60 2 -60 20 0 13 -7 20 -20 20 -19 0 -20 5 -16 45 4 31 1 48
-9 59 -19 19 -19 36 0 36 8 0 15 5 15 10 0 6 5 10 10 10 6 0 10 -4 10 -9z
m724 -26 c-4 -8 -18 -15 -33 -15 -20 0 -23 -2 -11 -10 13 -8 12 -10 -2 -10
-11 0 -18 8 -18 19 0 15 8 21 33 24 17 2 33 5 34 5 1 1 0 -5 -3 -13z m-5204
-180 c0 -8 -4 -15 -10 -15 -5 0 -10 7 -10 15 0 8 5 15 10 15 6 0 10 -7 10 -15z
m30 5 c0 -5 -4 -10 -10 -10 -5 0 -10 5 -10 10 0 6 5 10 10 10 6 0 10 -4 10
-10z m0 -35 c0 -8 -4 -15 -10 -15 -5 0 -10 7 -10 15 0 8 5 15 10 15 6 0 10 -7
10 -15z m2987 -11 c-3 -3 -12 -4 -19 -1 -8 3 -5 6 6 6 11 1 17 -2 13 -5z m493
-124 c27 -28 50 -55 50 -60 0 -6 6 -10 13 -11 10 0 10 -2 0 -6 -7 -2 -13 -15
-13 -29 0 -17 -7 -25 -25 -30 -16 -4 -25 -13 -25 -25 0 -12 -7 -19 -20 -19
-11 0 -20 -4 -20 -10 0 -5 -7 -10 -15 -10 -8 0 -15 6 -15 13 0 8 -4 7 -10 -3
-9 -13 -12 -13 -21 3 -5 9 -22 17 -37 17 -21 0 -24 2 -12 10 13 9 13 11 -1 20
-12 7 -17 26 -18 71 -1 53 1 61 19 66 11 3 20 9 20 13 0 4 11 11 25 14 14 4
25 11 25 16 0 23 32 7 80 -40z m-3663 13 c4 -10 13 -24 20 -31 7 -7 13 -36 13
-63 0 -32 4 -49 13 -49 8 0 7 -4 -3 -10 -13 -8 -13 -11 -1 -19 11 -7 8 -11
-10 -16 -13 -5 -29 -14 -34 -22 -11 -15 -65 -9 -65 7 0 8 -88 23 -135 22 -16
0 -24 2 -17 5 17 7 15 23 -3 23 -22 0 -20 59 2 67 19 7 37 22 90 71 28 26 43
32 79 32 33 0 46 -4 51 -17z m761 -9 c10 -10 18 -39 20 -75 4 -56 14 -74 25
-46 4 7 6 6 6 -5 1 -9 7 -19 14 -22 10 -5 10 -7 0 -12 -7 -3 -13 -15 -13 -27
0 -17 -2 -19 -9 -8 -7 11 -14 9 -33 -11 -12 -14 -36 -28 -53 -30 -16 -3 -24
-3 -17 -1 19 7 14 23 -8 23 -13 0 -20 7 -20 20 0 11 -7 20 -15 20 -8 0 -12 -6
-9 -14 4 -10 -5 -16 -26 -21 -43 -9 -100 2 -100 20 0 8 -8 16 -17 16 -15 1
-16 2 -2 6 13 3 15 13 12 47 -6 48 16 81 48 73 14 -4 19 0 19 14 0 10 5 19 10
19 6 0 10 6 10 14 0 21 19 26 83 21 35 -3 65 -11 75 -21z m1399 20 c14 -4 24
-17 28 -35 5 -20 14 -31 31 -35 13 -3 24 -10 24 -15 0 -5 8 -10 18 -10 16 -1
16 -2 0 -6 -24 -6 -23 -24 2 -30 23 -6 27 -23 5 -23 -8 0 -15 -8 -15 -19 0
-14 -10 -21 -35 -25 -19 -4 -35 -12 -35 -17 0 -6 -7 -17 -15 -25 -8 -9 -15
-11 -15 -6 0 5 -9 12 -20 15 -11 3 -20 12 -20 21 0 10 -9 16 -25 16 -16 0 -25
-6 -25 -15 0 -10 -11 -15 -35 -15 -24 0 -35 5 -35 15 0 8 8 16 18 16 16 1 16
2 0 6 -19 5 -25 33 -8 33 14 0 12 27 -2 34 -10 5 -10 7 0 12 6 3 12 12 12 19
0 7 -6 15 -12 18 -7 2 -1 8 14 12 15 4 29 13 32 21 3 8 12 14 20 14 7 0 16 7
20 15 6 16 35 19 73 9z m2213 -7 c0 -7 13 -24 30 -37 28 -24 41 -60 21 -60 -6
0 -11 -19 -13 -42 -3 -36 -7 -43 -33 -51 -16 -6 -33 -15 -37 -21 -6 -8 -11 -6
-18 4 -5 8 -23 16 -40 16 -56 3 -60 4 -60 19 0 8 5 15 10 15 6 0 10 24 10 54
0 56 16 86 46 86 8 0 14 7 14 15 0 10 11 15 35 15 22 0 35 -5 35 -13z m-5140
-7 c0 -5 6 -10 14 -10 10 0 17 -17 21 -55 5 -37 12 -55 21 -55 8 0 14 -4 14
-10 0 -5 -4 -10 -10 -10 -5 0 -10 -12 -11 -27 0 -16 -3 -23 -5 -17 -3 8 -26
10 -62 8 -31 -2 -69 -1 -84 2 -27 5 -28 8 -28 69 0 65 15 95 46 95 8 0 14 5
14 10 0 6 16 10 35 10 19 0 35 -4 35 -10z m2210 0 c0 -5 10 -10 23 -10 24 0
57 -31 57 -54 0 -7 9 -16 19 -19 22 -5 42 -78 24 -84 -6 -2 -9 -12 -6 -22 3
-14 -3 -20 -26 -24 -17 -4 -38 -4 -46 0 -11 4 -18 -1 -22 -16 -3 -11 -11 -21
-19 -21 -8 0 -11 7 -8 18 5 16 5 16 -6 0 -6 -10 -23 -18 -38 -18 -21 0 -23 3
-12 10 21 13 8 21 -41 26 -25 3 -50 13 -60 25 -9 10 -24 19 -33 19 -22 0 -23
78 -1 86 8 3 17 15 21 26 3 11 12 17 20 14 16 -6 44 19 44 40 0 10 14 14 55
14 30 0 55 -4 55 -10z m1390 0 c0 -5 9 -10 20 -10 11 0 20 5 20 10 0 14 29 12
44 -2 7 -7 15 -21 19 -30 3 -10 17 -20 31 -24 27 -6 34 -31 27 -91 -3 -29 -7
-33 -32 -33 -19 0 -29 -5 -29 -15 0 -11 -12 -15 -45 -16 -111 -3 -115 -2 -115
21 0 11 -7 20 -15 20 -18 0 -21 56 -3 62 8 3 12 25 12 61 l-1 57 34 0 c18 0
33 -4 33 -10z m-130 -200 c0 -5 -4 -10 -10 -10 -5 0 -10 5 -10 10 0 6 5 10 10
10 6 0 10 -4 10 -10z m0 -30 c0 -5 -7 -10 -15 -10 -8 0 -15 5 -15 10 0 6 7 10
15 10 8 0 15 -4 15 -10z m-2050 -30 c0 -5 -7 -10 -15 -10 -8 0 -15 5 -15 10 0
6 7 10 15 10 8 0 15 -4 15 -10z m-1834 -105 c-5 -13 2 -15 34 -13 22 1 41 0
43 -3 9 -10 16 -125 8 -138 -12 -18 -79 -29 -118 -19 -28 7 -33 13 -33 38 0
17 5 30 10 30 6 0 10 7 10 15 0 8 -4 15 -10 15 -17 0 -11 49 8 69 21 24 57 28
48 6z m754 5 c0 -5 15 -10 33 -10 54 0 62 -11 62 -92 l0 -73 -48 -9 c-37 -8
-49 -14 -53 -33 -6 -22 -34 -33 -34 -14 0 5 -13 12 -30 16 -17 4 -30 13 -30
21 0 8 -7 17 -15 20 -11 5 -15 21 -15 61 0 46 4 58 26 78 15 14 33 25 40 25 8
0 14 5 14 10 0 6 11 10 25 10 14 0 25 -4 25 -10z m794 -2 c7 -7 15 -21 19 -30
4 -11 17 -18 32 -18 23 0 25 -4 25 -45 0 -31 5 -47 18 -55 12 -8 13 -13 5 -16
-7 -3 -13 -15 -14 -27 0 -12 -3 -16 -6 -9 -2 6 -16 12 -29 12 -13 0 -24 -6
-25 -12 0 -10 -2 -10 -6 0 -8 21 -32 13 -39 -13 -6 -26 -23 -34 -25 -12 0 10
-2 10 -6 0 -6 -17 -21 -16 -39 1 -7 8 -23 12 -34 9 -16 -4 -20 0 -20 17 0 13
-8 24 -20 27 -11 3 -20 9 -20 14 0 5 -7 9 -15 9 -10 0 -15 10 -15 28 0 42 11
72 26 72 7 0 25 13 41 30 24 25 36 29 81 30 30 0 59 -5 66 -12z m742 -23 c18
-19 37 -35 43 -35 6 0 11 -11 11 -25 0 -13 6 -28 14 -32 7 -4 16 -18 20 -30 6
-19 2 -23 -28 -29 -20 -3 -36 -12 -36 -19 0 -7 -19 -15 -46 -19 -68 -9 -81 -8
-98 10 -9 8 -16 11 -16 5 0 -6 -20 -11 -45 -11 l-45 0 -1 48 c-1 26 0 53 1 61
2 16 25 41 37 41 7 0 52 34 78 59 6 6 25 10 44 11 26 0 41 -8 67 -35z m714 25
c0 -5 7 -10 16 -10 9 0 18 -9 21 -20 3 -11 9 -20 13 -20 5 0 11 -13 15 -30 4
-16 11 -30 16 -30 14 0 11 -37 -3 -44 -10 -5 -10 -7 0 -12 14 -7 17 -74 3 -74
-5 0 -11 12 -13 28 -4 35 -42 43 -69 13 -11 -12 -30 -21 -44 -21 -13 0 -26 -6
-28 -12 -4 -10 -8 -10 -15 1 -6 8 -25 14 -46 13 -26 -1 -36 3 -36 13 0 9 -10
15 -24 15 -17 0 -25 7 -28 23 -7 34 1 47 28 47 20 0 24 5 24 29 0 16 7 36 15
45 8 8 15 20 15 27 0 8 15 10 55 5 46 -5 54 -4 49 9 -4 10 0 15 15 15 12 0 21
-4 21 -10z m680 0 c0 -5 8 -10 18 -10 9 0 28 -12 41 -25 13 -14 27 -25 31 -25
5 0 12 -25 15 -55 4 -30 11 -55 16 -55 5 0 -1 -10 -12 -21 -17 -17 -23 -19
-30 -8 -7 11 -9 10 -9 -3 0 -13 -8 -18 -29 -18 -16 0 -31 -6 -35 -15 -3 -8
-17 -15 -31 -15 -21 0 -25 5 -26 33 0 17 -3 26 -6 20 -7 -19 -21 -16 -28 7 -3
11 -13 20 -21 20 -9 0 -14 11 -15 33 -1 17 -3 24 -6 15 -7 -27 -23 -22 -23 7
0 16 6 25 16 25 9 0 12 5 8 12 -4 6 -1 16 7 22 8 6 20 23 28 39 12 22 21 27
53 27 21 0 38 -4 38 -10z m770 0 c0 -5 11 -12 25 -16 14 -3 25 -12 25 -19 0
-7 10 -15 21 -18 20 -5 21 -11 16 -61 -4 -44 -11 -61 -34 -82 -26 -24 -32 -25
-102 -19 -80 6 -94 11 -71 25 12 8 11 10 -5 11 -11 1 -27 1 -35 0 -13 -2 -13
-1 0 9 12 10 13 12 1 17 -9 4 -10 8 -2 12 6 4 12 25 15 46 7 68 13 75 67 75
37 0 49 4 49 15 0 8 7 15 15 15 8 0 15 -4 15 -10z m690 0 c0 -5 11 -10 24 -10
48 0 56 -9 56 -61 0 -27 -4 -49 -10 -49 -5 0 -10 -6 -10 -14 0 -39 -58 -56
-138 -40 l-31 6 3 73 c2 44 9 79 17 89 15 17 89 22 89 6z m-1620 -180 c0 -16
-4 -30 -10 -30 -5 0 -10 14 -10 30 0 17 5 30 10 30 6 0 10 -13 10 -30z m720
15 c0 -8 -4 -15 -10 -15 -5 0 -10 7 -10 15 0 8 5 15 10 15 6 0 10 -7 10 -15z
m-660 -35 c0 -5 -11 -10 -25 -10 -14 0 -25 5 -25 10 0 6 11 10 25 10 14 0 25
-4 25 -10z m-60 -30 c0 -5 -4 -10 -10 -10 -5 0 -10 5 -10 10 0 6 5 10 10 10 6
0 10 -4 10 -10z m720 0 c0 -5 -4 -10 -10 -10 -5 0 -10 5 -10 10 0 6 5 10 10
10 6 0 10 -4 10 -10z m-2002 -17 c-10 -2 -28 -2 -40 0 -13 2 -5 4 17 4 22 1
32 -1 23 -4z m-708 -13 c0 -5 -7 -10 -15 -10 -8 0 -15 5 -15 10 0 6 7 10 15
10 8 0 15 -4 15 -10z m-623 -32 c-3 -8 -6 -5 -6 6 -1 11 2 17 5 13 3 -3 4 -12
1 -19z m713 2 c0 -5 -7 -10 -15 -10 -8 0 -15 5 -15 10 0 6 7 10 15 10 8 0 15
-4 15 -10z m2060 0 c0 -5 -4 -10 -10 -10 -5 0 -10 5 -10 10 0 6 5 10 10 10 6
0 10 -4 10 -10z m-2514 -74 c7 -8 19 -16 25 -18 6 -2 13 -28 16 -58 2 -30 8
-56 14 -58 15 -6 10 -32 -6 -32 -8 0 -15 -4 -15 -10 0 -5 -7 -10 -16 -10 -8 0
-22 -7 -30 -15 -16 -15 -107 -21 -151 -9 -21 6 -23 12 -23 85 0 64 3 79 15 79
8 0 23 9 32 20 10 11 23 20 30 20 7 0 13 5 13 10 0 15 80 12 96 -4z m724 5 c0
-5 9 -11 20 -14 11 -3 20 -13 20 -22 0 -9 6 -15 12 -13 16 6 33 -11 42 -40 4
-12 12 -22 17 -22 5 0 9 -29 9 -65 0 -63 -1 -65 -25 -65 -14 0 -25 5 -25 10 0
6 -7 10 -16 10 -9 0 -18 9 -21 20 -6 23 -23 27 -23 5 0 -8 -11 -17 -25 -21
-14 -3 -25 -10 -25 -15 0 -12 -48 -11 -52 1 -1 5 -20 11 -40 12 -21 2 -38 7
-38 11 0 5 -7 16 -16 25 -29 28 -12 87 38 132 23 22 48 44 53 49 13 13 95 14
95 2z m650 -1 c5 8 10 10 10 4 0 -7 23 -13 53 -16 67 -5 95 -31 104 -93 3 -25
9 -45 13 -45 12 0 17 -68 7 -83 -7 -9 -10 -9 -14 1 -2 6 -11 12 -18 12 -7 0
-16 -6 -18 -12 -3 -8 -6 -5 -6 5 -1 14 -6 17 -23 11 -13 -4 -26 -12 -30 -18
-5 -7 -8 -4 -8 8 0 14 -5 17 -22 12 -13 -3 -29 -6 -35 -6 -19 0 -16 -18 5 -23
10 -3 6 -5 -10 -6 -16 0 -28 -6 -28 -13 0 -23 -11 0 -15 32 -4 36 -15 52 -23
31 -4 -11 -6 -11 -13 0 -8 11 -11 11 -20 -3 -5 -10 -14 -18 -19 -18 -15 0 -12
40 3 41 10 0 10 2 0 6 -19 7 -15 41 7 63 11 11 24 20 28 20 4 0 6 16 4 35 -3
27 -1 35 12 35 9 0 19 7 23 16 5 13 7 13 14 2 7 -11 11 -10 19 2z m840 -7 c11
-10 20 -23 20 -30 0 -7 5 -13 10 -13 6 0 10 -7 10 -15 0 -8 6 -15 14 -15 15 0
26 -30 26 -72 0 -20 -5 -28 -17 -28 -15 0 -16 -2 -3 -10 26 -17 -3 -26 -95
-29 -79 -2 -85 -1 -85 18 0 13 -9 21 -30 26 -16 4 -30 13 -30 20 0 8 -7 11
-21 8 -19 -5 -21 -11 -16 -49 3 -31 1 -44 -8 -44 -12 0 -29 135 -19 152 3 4
16 8 30 8 15 0 24 6 24 15 0 8 6 15 14 15 7 0 16 14 20 30 5 30 6 30 71 30 47
0 70 -5 85 -17z m610 1 c0 -13 9 -15 65 -9 47 5 65 4 65 -5 0 -14 25 -40 39
-40 6 0 11 -19 11 -41 0 -32 -6 -47 -26 -65 -14 -13 -32 -24 -40 -24 -7 0 -14
-6 -14 -12 0 -9 -4 -8 -10 2 -8 13 -11 13 -19 1 -13 -20 -70 -24 -77 -6 -4 8
-12 15 -20 15 -11 0 -13 7 -8 26 5 19 4 25 -5 20 -7 -5 -11 1 -11 14 0 13 4
18 11 14 7 -4 10 7 9 32 -4 74 0 94 15 94 8 0 15 -7 15 -16z m-2720 -194 c0
-5 -9 -10 -20 -10 -11 0 -20 5 -20 10 0 6 9 10 20 10 11 0 20 -4 20 -10z
m2640 -30 c0 -5 -7 -10 -15 -10 -8 0 -15 5 -15 10 0 6 7 10 15 10 8 0 15 -4
15 -10z m18 -54 c-7 -8 -15 -12 -17 -11 -5 6 10 25 20 25 5 0 4 -6 -3 -14z
m-2638 -146 c0 -5 -7 -10 -15 -10 -8 0 -15 5 -15 10 0 6 7 10 15 10 8 0 15 -4
15 -10z"/>
<path d="M7260 10218 c-47 -5 -87 -13 -90 -17 -3 -5 -36 -11 -75 -15 -38 -4
-72 -11 -75 -15 -3 -5 -25 -12 -50 -16 -25 -4 -47 -10 -50 -14 -3 -4 -32 -12
-65 -19 -33 -6 -61 -16 -63 -22 -2 -5 -19 -12 -38 -16 -19 -3 -34 -10 -34 -15
0 -4 -16 -11 -35 -15 -19 -3 -35 -10 -35 -14 0 -5 -13 -11 -30 -15 -16 -4 -30
-10 -30 -14 0 -5 -20 -14 -45 -21 -25 -7 -45 -16 -45 -21 0 -5 -11 -11 -25
-15 -14 -3 -25 -10 -25 -14 0 -4 -12 -11 -26 -14 -15 -4 -32 -12 -40 -19 -29
-26 -40 -33 -74 -47 -19 -8 -39 -20 -43 -27 -4 -7 -12 -13 -18 -13 -5 0 -20
-10 -32 -23 -12 -13 -37 -30 -54 -38 -18 -8 -33 -20 -33 -26 0 -7 -7 -13 -15
-13 -8 0 -15 -5 -15 -10 0 -6 -8 -14 -17 -17 -10 -4 -47 -35 -81 -70 -35 -35
-69 -63 -76 -63 -7 0 -18 -11 -25 -24 -7 -13 -24 -30 -37 -37 -13 -6 -26 -21
-30 -31 -3 -10 -31 -44 -63 -76 -32 -31 -60 -65 -64 -74 -3 -10 -11 -18 -17
-18 -5 0 -10 -6 -10 -12 0 -7 -12 -24 -25 -37 -14 -13 -25 -28 -25 -33 0 -6
-10 -20 -23 -32 -13 -12 -26 -29 -30 -39 -3 -9 -11 -17 -16 -17 -5 0 -12 -13
-16 -29 -5 -26 -14 -39 -54 -88 -6 -6 -13 -23 -17 -37 -3 -14 -10 -26 -14 -26
-4 0 -11 -11 -14 -25 -4 -14 -10 -25 -15 -25 -5 0 -14 -20 -21 -45 -7 -25 -16
-45 -21 -45 -4 0 -10 -13 -14 -30 -4 -16 -10 -30 -15 -30 -5 0 -11 -13 -15
-30 -4 -16 -10 -30 -15 -30 -4 0 -11 -15 -14 -34 -4 -19 -11 -36 -16 -38 -5
-2 -15 -33 -22 -70 -7 -38 -16 -68 -19 -68 -4 0 -10 -20 -13 -45 -4 -25 -11
-45 -15 -45 -5 0 -12 -30 -16 -67 -4 -38 -11 -70 -16 -73 -5 -3 -14 -71 -21
-150 -6 -80 -16 -148 -22 -152 -15 -10 -15 -476 0 -486 6 -4 16 -74 23 -157 7
-82 16 -152 21 -155 5 -3 12 -29 16 -58 3 -28 10 -52 14 -52 5 0 11 -22 15
-50 4 -27 10 -50 14 -50 4 0 13 -29 20 -65 7 -36 17 -65 21 -65 5 0 12 -15 15
-32 4 -18 12 -36 17 -39 6 -4 13 -28 16 -55 3 -27 11 -55 19 -62 7 -7 13 -20
13 -28 0 -8 4 -14 9 -14 4 0 14 -20 21 -44 7 -25 18 -47 26 -50 8 -3 14 -12
14 -21 0 -8 4 -15 9 -15 5 0 13 -10 17 -22 3 -12 13 -28 20 -36 8 -7 14 -20
14 -28 0 -8 4 -14 9 -14 5 0 14 -13 20 -30 5 -16 15 -30 20 -30 6 0 11 -7 11
-15 0 -9 6 -18 14 -21 8 -3 17 -16 20 -30 4 -13 11 -24 16 -24 6 0 10 -6 10
-13 0 -7 16 -27 35 -44 19 -17 35 -36 35 -41 0 -6 29 -39 64 -75 36 -35 68
-75 71 -89 4 -14 17 -31 30 -38 12 -7 28 -23 35 -35 7 -13 23 -26 36 -29 13
-4 24 -11 24 -16 0 -6 7 -10 15 -10 9 0 18 -8 22 -17 9 -24 39 -53 56 -53 8 0
31 -16 51 -35 21 -19 48 -38 62 -41 13 -3 24 -10 24 -14 0 -4 9 -10 20 -13 11
-3 20 -12 20 -21 0 -9 4 -16 9 -16 5 0 14 -13 19 -29 8 -23 18 -29 51 -35 23
-3 41 -11 41 -16 0 -5 11 -12 25 -16 14 -3 25 -10 25 -14 0 -4 18 -10 40 -14
22 -3 40 -10 40 -15 0 -5 16 -15 35 -21 19 -6 35 -16 35 -21 0 -5 8 -9 18 -9
11 0 29 -9 42 -20 13 -11 34 -20 47 -20 12 0 23 -4 23 -10 0 -5 11 -10 25 -10
15 0 25 -6 25 -15 0 -15 57 -35 103 -35 15 0 27 -4 27 -9 0 -4 42 -11 92 -15
51 -4 95 -11 98 -15 3 -4 25 -11 49 -14 24 -3 47 -10 50 -15 3 -6 20 -14 36
-18 16 -4 35 -13 42 -19 7 -7 41 -16 77 -20 40 -4 66 -11 66 -18 0 -7 5 -6 11
3 8 11 12 12 16 3 5 -14 83 -18 83 -4 0 4 41 14 90 20 65 9 90 17 90 27 0 11
18 14 85 14 54 0 85 4 85 11 0 6 7 3 16 -5 8 -9 21 -16 29 -16 7 0 15 -5 17
-12 2 -6 31 -13 64 -16 37 -2 64 -10 71 -20 18 -22 133 -25 134 -3 0 10 2 12
6 4 2 -7 12 -13 20 -13 9 0 13 6 9 15 -3 9 0 15 8 15 8 0 17 12 20 26 6 23 20
38 75 86 11 9 16 9 19 0 3 -9 7 -8 17 2 8 7 31 17 52 21 21 4 41 12 45 18 6 9
10 8 17 -2 6 -9 10 -9 12 -2 2 6 44 14 97 17 72 6 92 10 88 21 -3 8 2 13 14
13 11 0 20 5 20 10 0 6 7 10 15 10 9 0 15 9 15 24 0 27 24 56 45 56 7 0 15 7
19 15 4 10 20 15 50 15 25 0 46 5 48 12 6 18 116 27 186 16 71 -11 112 -5 112
18 0 9 9 18 20 21 11 3 20 10 19 17 -3 25 2 36 16 36 8 0 15 6 15 13 0 17 29
52 50 60 12 4 11 6 -2 6 -21 1 -24 21 -4 21 8 0 17 8 19 18 4 16 5 16 6 0 1
-21 21 -24 21 -4 0 8 14 17 31 21 17 4 40 16 50 26 10 10 28 19 39 19 11 0 20
4 20 9 0 5 9 13 20 16 13 4 20 15 20 31 0 15 6 24 15 24 8 0 15 5 15 10 0 6 5
10 11 10 6 0 17 7 25 15 9 8 11 15 5 15 -6 0 -11 7 -11 15 0 8 4 15 10 15 5 0
12 11 16 25 3 14 14 30 23 35 9 6 11 10 4 10 -18 0 -16 30 2 30 8 0 15 5 15
11 0 16 25 37 54 45 15 3 26 13 26 23 0 10 9 17 22 18 11 1 24 6 27 11 3 6 17
12 31 13 19 3 26 11 28 32 2 17 9 27 19 27 14 0 15 13 10 103 -7 104 7 222 28
243 5 6 22 14 37 17 21 6 29 15 34 42 3 19 10 35 15 35 23 0 47 41 51 90 3 29
10 55 15 59 6 3 12 33 15 65 3 33 10 62 16 64 7 2 12 12 12 22 0 10 6 21 13
23 10 4 10 6 0 6 -20 1 -15 19 7 26 11 3 20 13 20 20 0 9 6 12 15 9 11 -5 15
1 15 20 0 15 6 26 14 26 15 0 23 38 18 81 -3 29 -27 41 -62 32 -23 -6 -27 -23
-5 -23 24 0 17 -28 -7 -33 l-23 -4 23 -2 c12 0 22 -8 22 -16 0 -12 -8 -14 -38
-9 -28 4 -43 2 -55 -10 -8 -9 -27 -16 -41 -16 -26 0 -66 31 -66 50 0 6 -6 10
-14 10 -17 0 -26 22 -26 66 0 19 -4 34 -10 34 -5 0 -10 13 -10 30 0 23 5 31
25 36 14 3 25 10 25 15 0 5 36 9 79 9 68 0 80 3 84 18 3 13 6 10 11 -10 9 -31
26 -37 27 -10 0 13 2 14 6 2 3 -8 10 -17 14 -20 7 -5 13 -38 18 -92 1 -5 8 -8
16 -8 10 0 15 -11 15 -35 0 -19 5 -35 10 -35 6 0 10 14 10 30 0 23 5 30 19 30
13 0 20 10 25 31 10 52 7 79 -9 79 -9 0 -15 9 -15 21 0 26 -21 102 -30 109 -4
3 -10 30 -13 60 -4 30 -11 56 -17 58 -12 4 -13 42 -1 42 5 0 12 26 16 58 4 31
11 59 16 62 4 3 9 22 11 43 1 20 6 37 10 37 4 0 8 11 8 24 0 13 6 26 14 29 11
4 13 20 9 69 -3 35 -10 65 -14 66 -13 5 -11 30 4 35 10 4 10 6 0 6 -7 1 -13
12 -13 25 0 13 -11 34 -25 47 -13 13 -25 32 -25 42 0 9 -4 17 -9 17 -5 0 -11
18 -15 40 -4 26 -11 40 -21 40 -8 0 -15 7 -15 15 0 8 -4 15 -10 15 -5 0 -10 5
-10 11 0 6 7 9 15 5 9 -3 15 0 15 8 0 8 6 17 13 19 10 4 10 6 0 6 -7 1 -13 12
-13 25 0 14 -7 31 -15 40 -10 10 -15 35 -15 79 0 69 -15 127 -37 140 -7 4 -13
24 -13 42 0 19 -4 35 -10 35 -5 0 -10 7 -10 15 0 8 -6 15 -14 15 -8 0 -17 14
-21 30 -4 17 -10 30 -15 30 -4 0 -13 23 -20 50 -7 28 -16 50 -21 50 -5 0 -9 9
-9 19 0 11 -7 26 -15 35 -8 8 -15 25 -15 39 0 13 -9 34 -20 47 -11 13 -20 31
-20 42 0 10 -7 18 -15 18 -8 0 -15 4 -15 9 0 13 -65 81 -77 81 -5 0 -16 16
-23 35 -9 22 -23 38 -37 41 -17 5 -23 13 -23 35 0 19 -11 39 -35 62 -19 19
-35 37 -35 42 0 9 -137 145 -146 145 -3 0 -24 18 -46 40 -22 22 -44 40 -49 40
-5 0 -26 18 -48 40 -21 22 -44 40 -49 40 -6 0 -16 9 -22 20 -6 11 -22 23 -35
26 -14 3 -25 12 -25 20 0 8 -7 14 -15 14 -8 0 -15 4 -15 9 0 5 -10 13 -22 17
-12 3 -28 13 -36 20 -7 8 -20 14 -28 14 -8 0 -14 6 -14 14 0 8 -15 17 -35 20
-19 4 -35 11 -35 16 0 6 -6 10 -13 10 -7 0 -20 9 -30 20 -9 11 -26 20 -37 20
-11 0 -20 5 -20 10 0 6 -9 10 -20 10 -11 0 -20 5 -20 10 0 6 -6 10 -14 10 -8
0 -16 5 -18 11 -2 5 -22 13 -46 16 -23 3 -42 9 -42 13 0 4 -16 11 -35 14 -19
4 -35 11 -35 15 0 5 -19 11 -42 14 -24 3 -44 10 -46 16 -2 5 -28 15 -58 22
-30 7 -54 15 -54 19 0 4 -22 10 -50 14 -27 4 -50 11 -50 16 0 4 -29 12 -65 15
-36 4 -65 11 -65 15 0 18 -165 27 -505 27 -203 1 -408 -3 -455 -9z m580 -1588
c3 -4 26 -10 53 -14 26 -4 47 -11 47 -17 0 -5 20 -9 43 -9 29 0 52 -7 66 -19
13 -11 36 -23 52 -26 16 -4 29 -10 29 -15 0 -4 16 -11 35 -14 19 -4 35 -11 35
-16 0 -6 11 -10 24 -10 15 0 26 -7 29 -20 3 -11 12 -20 21 -20 9 0 16 -7 16
-15 0 -9 7 -18 15 -21 8 -4 15 -17 15 -31 0 -16 7 -27 20 -30 11 -3 20 -9 20
-14 0 -5 7 -9 15 -9 8 0 15 -4 15 -10 0 -5 7 -10 15 -10 9 0 15 -9 15 -23 0
-13 13 -33 30 -47 16 -14 29 -31 30 -38 0 -7 7 -15 15 -18 8 -4 15 -12 15 -20
0 -8 9 -23 20 -34 11 -11 23 -34 27 -50 3 -17 9 -30 14 -30 5 0 9 -11 9 -25 0
-13 8 -29 18 -34 15 -9 15 -12 2 -21 -8 -5 -10 -10 -4 -10 7 0 13 -35 16 -92
4 -54 10 -94 17 -96 13 -4 15 -42 2 -42 -5 0 -12 -48 -16 -107 -4 -60 -11
-111 -16 -114 -5 -3 -12 -34 -15 -70 -4 -35 -12 -67 -18 -71 -8 -6 -7 -11 2
-16 30 -20 8 -102 -27 -102 -6 0 -11 -8 -11 -18 0 -25 -55 -82 -79 -82 -14 0
-21 -6 -21 -20 0 -15 -7 -20 -24 -20 -30 0 -126 -93 -126 -121 0 -11 -4 -19
-10 -19 -5 0 -13 -12 -16 -27 -8 -29 -34 -63 -34 -44 0 6 -4 11 -10 11 -5 0
-10 -9 -10 -20 0 -11 -6 -20 -14 -20 -8 0 -16 -7 -20 -15 -4 -11 -20 -14 -66
-12 -40 1 -63 -2 -69 -11 -4 -7 -31 -15 -59 -19 -29 -3 -52 -9 -52 -13 0 -5
-48 -10 -107 -12 -74 -2 -108 -7 -111 -15 -5 -16 -102 -18 -102 -3 0 14 -37
12 -43 -2 -4 -10 -8 -10 -15 0 -5 8 -37 16 -71 19 -33 3 -61 10 -61 14 0 5
-18 9 -40 9 -29 0 -40 4 -40 15 0 8 -11 17 -25 21 -14 3 -25 9 -25 13 0 4 -16
13 -35 21 -19 7 -36 19 -39 27 -3 7 -17 13 -31 13 -15 0 -25 6 -25 15 0 20
-40 55 -62 55 -10 0 -18 4 -18 10 0 13 -32 50 -43 50 -12 0 -87 77 -87 89 0 6
-4 11 -10 11 -5 0 -12 11 -16 25 -3 14 -10 25 -15 25 -5 0 -9 7 -9 15 0 7 -6
18 -12 22 -18 12 -38 49 -38 73 0 11 -4 20 -9 20 -5 0 -12 23 -16 50 -4 28
-10 50 -15 50 -4 0 -11 17 -15 37 -4 21 -12 41 -18 45 -16 10 -17 376 -1 386
6 4 14 28 18 55 4 26 11 47 16 47 5 0 12 16 16 35 3 19 10 35 14 35 4 0 13 20
20 45 7 25 17 45 21 45 5 0 9 7 9 15 0 9 7 18 15 21 8 4 15 12 15 20 0 8 9 22
20 31 11 10 20 21 20 25 0 12 42 58 53 58 11 0 67 56 67 68 0 5 11 14 25 20
14 6 25 16 25 22 0 5 6 10 14 10 7 0 29 15 49 33 57 51 61 53 102 67 22 7 46
19 53 27 7 7 24 13 37 13 13 0 25 5 27 10 2 6 27 13 56 17 28 3 52 9 52 14 0
18 318 18 330 -1z m2212 -634 c-4 -33 -6 -35 -38 -32 -18 1 -37 6 -41 10 -11
11 16 24 38 19 14 -4 19 0 19 16 0 11 6 21 13 21 9 0 12 -11 9 -34z m28 -16
c0 -5 -4 -10 -10 -10 -5 0 -10 5 -10 10 0 6 5 10 10 10 6 0 10 -4 10 -10z
m-1270 -337 c0 -40 -4 -53 -15 -53 -8 0 -15 -4 -15 -10 0 -5 -7 -10 -15 -10
-12 0 -15 14 -15 63 l0 64 30 0 c30 0 30 -1 30 -54z m1250 -253 c0 -5 -16 -10
-35 -10 -19 0 -35 5 -35 10 0 6 16 10 35 10 19 0 35 -4 35 -10z m-733 -186
c-3 -3 -12 -4 -19 -1 -8 3 -5 6 6 6 11 1 17 -2 13 -5z m321 -230 c15 -4 22
-14 22 -30 0 -17 7 -25 24 -30 13 -3 27 -15 30 -27 10 -37 7 -75 -6 -74 -36 1
-48 -5 -54 -28 -3 -14 -12 -25 -19 -25 -7 0 -15 -5 -17 -11 -7 -21 -58 12 -58
38 0 14 -6 23 -15 23 -9 0 -18 7 -21 15 -4 8 -12 15 -20 15 -10 0 -14 13 -14
46 0 79 56 112 148 88z m112 -119 c0 -8 -4 -15 -10 -15 -5 0 -10 7 -10 15 0 8
5 15 10 15 6 0 10 -7 10 -15z m-505 -236 c47 -13 55 -23 55 -67 0 -18 7 -40
15 -48 15 -15 10 -40 -11 -61 -15 -15 -44 -17 -44 -3 0 6 -13 10 -30 10 -17 0
-30 -5 -30 -12 0 -9 -2 -10 -8 -2 -4 6 -17 14 -29 18 -21 7 -23 13 -23 86 0
66 3 79 18 83 30 8 46 7 87 -4z m-1418 -21 c-3 -8 -6 -5 -6 6 -1 11 2 17 5 13
3 -3 4 -12 1 -19z m1109 -370 c4 -13 12 -26 18 -30 8 -6 7 -8 -1 -8 -8 0 -13
-13 -13 -30 0 -16 5 -30 10 -30 14 0 12 -29 -2 -44 -22 -21 -47 -26 -62 -11
-8 8 -30 15 -48 15 -18 0 -38 4 -44 8 -18 11 -36 90 -29 123 l7 29 78 0 c73 0
79 -2 86 -22z m-749 -150 c-3 -8 -6 -5 -6 6 -1 11 2 17 5 13 3 -3 4 -12 1 -19z
m363 -192 c0 -8 7 -16 15 -20 8 -3 15 -12 15 -21 0 -9 9 -15 23 -15 26 0 59
-51 38 -58 -6 -2 -11 -10 -11 -17 0 -7 -11 -16 -25 -19 -23 -6 -29 -18 -28
-53 1 -14 -37 -17 -74 -7 -12 3 -24 17 -27 30 -5 17 -13 24 -30 24 -27 0 -36
21 -36 84 0 56 31 86 93 86 34 0 47 -4 47 -14z m-470 -368 c0 -9 4 -8 11 2 8
11 12 12 16 3 6 -16 43 -17 43 -2 0 6 7 3 16 -5 8 -9 21 -16 29 -16 7 0 15
-10 19 -23 3 -13 17 -29 31 -37 18 -9 25 -22 25 -42 0 -15 -4 -28 -10 -28 -5
0 -10 -7 -10 -15 0 -8 -6 -12 -14 -9 -8 3 -16 -4 -20 -20 -5 -19 -13 -26 -31
-26 -16 0 -25 -6 -25 -15 0 -8 -4 -15 -10 -15 -5 0 -10 -7 -10 -15 0 -16 -20
-19 -57 -9 -16 4 -23 14 -23 30 0 13 -4 24 -8 24 -5 0 -8 10 -8 23 1 18 -4 22
-26 20 -28 -2 -30 2 -30 47 0 43 3 50 27 56 18 4 25 13 25 30 0 13 5 24 10 24
6 0 10 7 10 15 0 8 5 15 10 15 6 0 10 -6 10 -12z m-610 -102 c0 -8 6 -17 13
-20 10 -5 10 -7 0 -12 -7 -3 -13 -12 -13 -20 0 -9 -11 -14 -35 -14 -35 0 -50
22 -22 33 9 4 8 8 -3 16 -13 9 -13 11 3 11 9 0 17 5 17 10 0 6 9 10 20 10 11
0 20 -6 20 -14z m-100 -26 c0 -5 -9 -10 -20 -10 -11 0 -20 5 -20 10 0 6 9 10
20 10 11 0 20 -4 20 -10z"/>
<path d="M8130 5330 c0 -5 5 -10 10 -10 6 0 10 5 10 10 0 6 -4 10 -10 10 -5 0
-10 -4 -10 -10z"/>
<path d="M8090 5287 c0 -10 8 -17 18 -17 9 0 13 4 7 8 -5 4 -13 11 -17 16 -5
5 -8 2 -8 -7z"/>
<path d="M10230 7220 c0 -5 5 -10 10 -10 6 0 10 5 10 10 0 6 -4 10 -10 10 -5
0 -10 -4 -10 -10z"/>
<path d="M11540 5590 c0 -5 5 -10 10 -10 6 0 10 5 10 10 0 6 -4 10 -10 10 -5
0 -10 -4 -10 -10z"/>
<path d="M6498 3443 c7 -3 16 -2 19 1 4 3 -2 6 -13 5 -11 0 -14 -3 -6 -6z"/>
<path d="M12893 9563 c9 -2 25 -2 35 0 9 3 1 5 -18 5 -19 0 -27 -2 -17 -5z"/>
<path d="M12868 8613 c12 -2 32 -2 45 0 12 2 2 4 -23 4 -25 0 -35 -2 -22 -4z"/>
<path d="M13330 8263 c-13 -15 -12 -16 4 -10 10 4 20 7 22 7 2 0 4 5 4 10 0
15 -13 12 -30 -7z"/>
<path d="M5832 2490 c0 -19 2 -27 5 -17 2 9 2 25 0 35 -3 9 -5 1 -5 -18z"/>
<path d="M6783 2510 c0 -25 2 -35 4 -22 2 12 2 32 0 45 -2 12 -4 2 -4 -23z"/>
<path d="M7133 2064 c-15 -16 -16 -24 -4 -24 8 0 24 30 19 35 -2 2 -9 -3 -15
-11z"/>
<path d="M15353 9785 c0 -22 2 -30 4 -17 2 12 2 30 0 40 -3 9 -5 -1 -4 -23z"/>
<path d="M15353 9480 c0 -47 2 -66 4 -42 2 23 2 61 0 85 -2 23 -4 4 -4 -43z"/>
<path d="M13760 8080 c0 -5 5 -10 10 -10 6 0 10 5 10 10 0 6 -4 10 -10 10 -5
0 -10 -4 -10 -10z"/>
<path d="M15338 6583 c14 -6 16 -33 2 -33 -5 0 -10 -4 -10 -10 0 -5 7 -10 15
-10 10 0 15 10 15 30 0 22 -5 30 -17 29 -11 0 -13 -3 -5 -6z"/>
<path d="M15343 5933 c-7 -2 -13 -11 -13 -19 0 -8 6 -14 13 -14 8 0 8 -3 -2
-9 -19 -12 -22 -182 -3 -188 14 -5 16 -30 2 -35 -15 -5 -16 -221 -2 -226 14
-4 -3 -24 -30 -35 -10 -3 -18 -11 -18 -17 0 -5 -9 -10 -20 -10 -12 0 -20 -7
-20 -17 0 -16 2 -16 11 -3 9 12 10 12 5 -3 -3 -10 -6 -22 -6 -26 0 -4 -9 -18
-20 -31 -15 -17 -20 -37 -20 -77 0 -29 -4 -53 -9 -53 -5 0 -11 -22 -15 -50 -4
-27 -11 -50 -15 -50 -5 0 -12 -12 -16 -27 -3 -15 -11 -30 -16 -34 -5 -3 -11
-20 -14 -37 -3 -26 0 -32 16 -32 10 0 19 -4 19 -10 0 -5 -7 -10 -15 -10 -9 0
-18 -7 -21 -15 -4 -8 -15 -15 -25 -15 -10 0 -19 -6 -19 -14 0 -8 -16 -16 -40
-20 -39 -6 -55 -28 -27 -39 6 -3 2 -6 -10 -6 -19 -1 -23 -7 -23 -30 0 -16 -6
-31 -12 -33 -9 -3 -14 -35 -16 -101 -4 -93 -5 -97 -27 -97 -21 0 -35 -17 -35
-41 0 -5 7 -9 15 -9 8 0 15 5 15 10 0 6 7 10 15 10 8 0 15 -7 15 -15 0 -8 7
-15 15 -15 8 0 15 -4 15 -10 0 -5 8 -10 17 -10 24 0 83 -23 83 -32 0 -4 6 -8
14 -8 20 0 42 -132 28 -174 -5 -17 -10 -23 -11 -13 -1 18 -21 25 -21 7 0 -14
-37 -12 -44 3 -5 10 -7 10 -12 0 -7 -15 -44 -17 -44 -3 0 6 -6 10 -13 10 -14
0 -40 27 -50 53 -5 14 -14 16 -48 11 -47 -8 -79 -34 -79 -64 0 -11 -6 -20 -14
-20 -16 0 -28 -53 -30 -138 -1 -29 -7 -56 -13 -60 -7 -4 -15 -31 -19 -60 -3
-28 -10 -52 -15 -52 -5 0 -9 -7 -9 -15 0 -10 -10 -15 -29 -15 -23 0 -32 -7
-43 -30 -7 -16 -19 -30 -25 -30 -7 0 -13 -5 -13 -10 0 -6 -10 -21 -22 -33 -28
-27 -48 -62 -48 -82 0 -8 -4 -15 -9 -15 -5 0 -11 -10 -15 -23 -3 -13 -17 -29
-30 -37 -20 -10 -26 -23 -32 -66 -3 -29 -3 -57 1 -63 3 -7 -2 -11 -13 -11 -13
0 -22 -9 -26 -25 -4 -14 -13 -25 -21 -25 -8 0 -15 -7 -15 -15 0 -10 -10 -15
-30 -15 -30 0 -70 -32 -70 -57 0 -7 -7 -13 -15 -13 -8 0 -15 -6 -15 -14 0 -8
-11 -17 -24 -20 -24 -6 -36 -30 -36 -74 0 -12 -7 -25 -15 -28 -18 -7 -20 -70
-2 -78 10 -5 10 -7 0 -12 -7 -3 -13 -14 -13 -25 0 -10 -7 -19 -15 -19 -8 0
-15 -4 -15 -10 0 -5 -9 -10 -20 -10 -13 0 -18 -5 -14 -15 6 -14 2 -16 -48 -19
-9 -1 -20 -4 -24 -8 -4 -5 -18 -8 -30 -8 -17 0 -25 -7 -30 -24 -4 -16 -15 -26
-35 -30 -27 -5 -42 -26 -19 -26 6 0 10 -9 10 -20 0 -22 -15 -27 -23 -7 -3 6
-6 -1 -6 -17 -1 -17 -11 -38 -26 -52 -14 -13 -25 -34 -25 -48 0 -33 28 -66 56
-66 12 0 26 -10 34 -25 7 -14 16 -25 19 -25 4 0 22 -14 40 -31 30 -27 34 -36
38 -100 4 -53 2 -69 -9 -70 -7 0 -37 -2 -67 -4 -46 -3 -54 -1 -58 16 -3 10
-10 19 -15 19 -5 0 -17 7 -25 16 -9 9 -26 14 -39 11 -33 -6 -47 7 -46 42 0 21
-4 31 -14 31 -8 0 -14 5 -14 10 0 6 -7 10 -15 10 -8 0 -15 -4 -15 -10 0 -5
-16 -10 -35 -10 -28 0 -35 -4 -35 -19 0 -11 6 -21 12 -23 7 -3 -5 -5 -27 -6
-22 -1 -41 -6 -43 -12 -2 -5 -12 -10 -22 -10 -10 0 -20 -9 -23 -20 -3 -13 0
-20 9 -20 19 0 18 -46 -1 -54 -9 -3 -15 -17 -14 -38 1 -18 3 -25 6 -16 5 21
23 24 23 4 0 -8 3 -21 6 -29 4 -11 -2 -17 -18 -20 l-23 -4 23 -2 c12 0 22 -5
22 -11 0 -5 6 -10 13 -10 25 0 107 -88 107 -115 0 -14 -4 -25 -10 -25 -5 0
-10 -7 -10 -16 0 -9 -9 -18 -20 -21 -11 -3 -20 -11 -20 -18 0 -7 -12 -12 -26
-12 -15 0 -30 -7 -35 -14 -6 -10 -9 -11 -9 -1 0 6 -6 12 -14 12 -19 0 -76 57
-76 76 0 8 -9 14 -20 14 -11 0 -20 5 -20 10 0 6 -26 10 -59 10 -33 0 -63 -4
-66 -10 -3 -5 -17 -10 -31 -10 -15 0 -24 -6 -24 -15 0 -8 -7 -15 -15 -15 -9 0
-15 -9 -15 -25 0 -18 -7 -26 -25 -31 -19 -5 -25 -13 -25 -35 0 -16 -4 -29 -10
-29 -16 0 -12 -27 5 -34 8 -3 15 -12 15 -21 0 -8 7 -15 15 -15 8 0 15 -5 15
-11 0 -5 14 -15 30 -20 17 -6 30 -15 30 -20 0 -5 6 -9 13 -9 19 0 49 -38 34
-44 -9 -3 -8 -7 2 -14 10 -7 10 -11 1 -14 -7 -2 -12 -16 -12 -31 0 -20 -6 -27
-19 -27 -11 0 -19 -7 -19 -15 0 -9 -12 -18 -30 -21 -16 -4 -30 -10 -30 -15 0
-17 -21 -9 -44 16 -13 14 -28 25 -33 25 -14 0 -26 38 -24 73 2 24 -1 27 -28
27 -17 0 -31 -5 -31 -11 0 -6 -7 -3 -16 5 -28 28 -109 17 -120 -16 -3 -11 -11
-17 -18 -15 -7 3 -19 1 -27 -4 -12 -8 -12 -10 1 -19 13 -8 12 -10 -2 -10 -10
0 -18 -7 -18 -15 0 -8 -4 -15 -10 -15 -19 0 -50 -40 -50 -65 0 -27 27 -65 46
-65 7 0 15 -11 18 -25 4 -14 11 -25 16 -25 6 0 10 -9 10 -20 0 -11 7 -20 15
-20 9 0 19 -8 22 -17 4 -10 11 -21 16 -24 5 -3 9 -26 9 -50 1 -87 6 -81 -73
-76 -52 3 -74 9 -81 21 -5 9 -13 16 -19 16 -9 0 -30 21 -69 67 -5 7 -10 21
-10 33 0 11 -7 20 -15 20 -8 0 -15 7 -15 15 0 9 -9 15 -25 15 -14 0 -25 -4
-25 -10 0 -5 -11 -12 -25 -16 -14 -3 -25 -10 -25 -15 0 -5 -12 -9 -27 -9 -16
0 -45 -3 -65 -6 -36 -6 -38 -8 -44 -55 -4 -27 -10 -49 -15 -49 -5 0 -9 -11 -9
-25 0 -14 -4 -25 -10 -25 -5 0 -10 -16 -10 -35 0 -23 -5 -35 -14 -35 -7 0 -26
-12 -41 -26 -20 -19 -25 -28 -16 -34 9 -5 8 -9 -4 -14 -29 -11 -50 -7 -65 14
-18 25 -25 25 -50 0 -15 -15 -33 -20 -69 -20 -47 0 -50 -2 -56 -30 -4 -17 -13
-30 -21 -30 -8 0 -14 -7 -14 -15 0 -8 -6 -15 -13 -15 -20 0 -48 -38 -34 -44 9
-5 9 -7 0 -12 -7 -3 -13 -16 -13 -29 0 -41 -10 -55 -35 -49 -19 5 -23 0 -30
-28 -4 -18 -9 -27 -12 -20 -7 18 -79 16 -87 -3 -3 -8 -15 -15 -26 -15 -11 0
-20 -4 -20 -9 0 -5 -13 -12 -30 -16 -16 -4 -30 -11 -30 -16 0 -5 -7 -9 -15 -9
-8 0 -15 -4 -15 -10 0 -5 -9 -10 -20 -10 -15 0 -20 -7 -20 -25 0 -20 -5 -25
-25 -25 -15 0 -28 -7 -32 -17 -8 -19 -40 -53 -51 -53 -4 0 -19 -13 -33 -29
-19 -21 -39 -31 -72 -36 -26 -4 -47 -11 -47 -15 0 -9 -51 -16 -174 -26 -45 -3
-85 -12 -93 -19 -18 -19 -17 -65 2 -65 21 0 19 -27 -2 -39 -10 -6 -12 -11 -5
-11 19 0 14 -20 -5 -21 -13 0 -14 -2 -4 -6 7 -3 23 -15 35 -27 17 -17 21 -33
21 -91 l0 -70 -50 -3 c-67 -4 -115 5 -115 23 0 8 -4 15 -9 15 -5 0 -12 20 -15
44 -6 39 -11 45 -37 51 -24 5 -29 12 -29 34 0 26 -3 28 -32 25 -17 -2 -34 -8
-37 -13 -3 -4 -49 -11 -101 -15 -52 -3 -96 -11 -98 -16 -2 -6 -10 -10 -18 -10
-8 0 -14 -4 -14 -10 0 -5 -7 -10 -15 -10 -8 0 -15 -7 -15 -15 0 -8 -7 -15 -15
-15 -9 0 -15 -9 -15 -25 0 -16 -6 -25 -15 -25 -9 0 -18 -7 -21 -15 -4 -8 -15
-15 -25 -15 -10 0 -19 -4 -19 -10 0 -5 -7 -10 -15 -10 -8 0 -15 -4 -15 -9 0
-5 -12 -12 -27 -16 -15 -3 -31 -12 -35 -18 -6 -9 -10 -9 -17 1 -7 11 -9 11
-14 -2 -4 -9 -18 -16 -32 -16 -14 0 -25 -4 -25 -9 0 -6 -21 -13 -47 -17 -27
-4 -51 -11 -54 -16 -3 -4 -25 -10 -48 -13 -39 -3 -71 -15 -43 -15 7 0 12 -4
12 -10 0 -5 -7 -10 -15 -10 -8 0 -15 -6 -15 -14 0 -9 -18 -16 -51 -20 -41 -6
-50 -10 -45 -23 5 -13 0 -15 -35 -10 -23 3 -46 11 -50 19 -7 11 -11 10 -19 -2
-13 -20 -137 -21 -150 -1 -5 9 -31 15 -77 16 -90 4 -136 -4 -129 -21 3 -9 -6
-15 -29 -20 -19 -3 -35 -10 -35 -14 0 -5 -8 -11 -17 -13 -10 -3 884 -5 1986
-6 l2004 -1 -6 37 c-4 21 -11 39 -17 41 -21 7 -14 22 42 82 14 16 29 38 33 49
3 12 12 21 18 21 7 0 20 9 29 19 9 11 34 23 55 27 25 5 52 22 85 54 26 26 48
52 48 59 0 6 7 11 15 11 8 0 15 9 15 20 0 11 7 20 15 20 8 0 15 5 15 10 0 6 7
10 15 10 8 0 15 9 15 20 0 14 7 20 21 20 12 0 23 8 26 20 3 11 9 20 13 20 4 0
11 11 14 25 6 25 26 35 26 14 0 -7 11 0 25 15 18 19 35 27 65 28 22 1 40 6 40
11 0 5 11 7 25 5 17 -4 25 -1 25 8 0 8 4 14 9 14 5 0 12 16 15 35 4 19 11 35
16 35 4 0 11 14 15 30 5 21 14 32 31 36 26 7 31 19 12 27 -7 3 -3 6 10 6 12 1
22 5 22 9 0 5 -10 14 -22 20 -18 8 -19 11 -5 11 9 1 17 7 17 14 0 8 4 7 10 -3
9 -13 12 -13 21 3 6 11 22 17 44 17 24 0 35 5 35 15 0 9 9 15 25 15 14 0 25 6
25 13 0 22 19 43 28 31 4 -6 24 -14 45 -18 l38 -7 -7 38 c-4 21 -12 41 -18 46
-12 8 9 27 32 27 6 0 12 11 12 25 0 16 6 25 15 25 8 0 15 5 15 10 0 6 -7 10
-15 10 -8 0 -15 5 -15 10 0 6 7 10 15 10 8 0 15 7 15 15 0 7 8 19 18 24 15 9
15 12 2 21 -10 6 -11 10 -2 10 6 0 12 8 13 18 0 13 3 12 11 -6 14 -28 28 -28
29 1 0 12 3 16 6 10 8 -22 21 -14 28 17 4 17 12 30 18 29 47 -6 76 2 83 23 7
22 16 35 45 66 9 9 20 36 24 59 5 32 12 42 30 47 16 4 26 16 30 36 4 16 13 30
21 30 8 0 14 5 14 10 0 6 7 10 15 10 8 0 15 9 15 19 0 13 9 21 30 26 24 5 30
12 30 32 0 16 7 27 20 30 11 3 20 9 20 14 0 5 12 15 27 22 38 17 63 43 63 67
0 11 7 23 15 26 8 3 17 25 21 49 5 39 10 45 38 51 17 4 38 14 46 23 8 9 35 18
60 20 25 2 48 8 52 15 5 7 8 5 8 -6 0 -10 7 -18 15 -18 13 0 15 229 15 2000 0
1100 -1 2000 -2 1999 -2 0 -9 -3 -15 -6z m-43 -1063 c0 -5 -7 -10 -15 -10 -8
0 -15 5 -15 10 0 6 7 10 15 10 8 0 15 -4 15 -10z m15 -112 c6 -4 2 -8 -7 -8
-10 0 -18 7 -18 17 0 9 3 12 8 7 4 -5 12 -12 17 -16z m-84 -98 c35 0 59 4 59
11 0 6 7 4 15 -5 17 -17 20 -36 5 -36 -5 0 -10 -9 -10 -20 0 -31 -28 -23 -35
10 -5 25 -11 30 -36 30 -16 0 -29 -5 -29 -12 0 -7 -14 -14 -30 -15 -24 -2 -30
2 -30 17 0 11 5 20 10 20 6 0 11 8 11 18 1 16 2 16 6 0 4 -15 16 -18 64 -18z
m-53 -67 c-10 -2 -26 -2 -35 0 -10 3 -2 5 17 5 19 0 27 -2 18 -5z m12 -704 c0
-5 -7 -9 -15 -9 -8 0 -15 7 -15 15 0 9 6 12 15 9 8 -4 15 -10 15 -15z m130
-680 c0 -29 -2 -30 -30 -24 -23 5 -30 3 -30 -9 0 -9 -8 -16 -20 -16 -16 0 -20
7 -20 30 0 28 3 30 35 30 19 0 35 5 35 10 0 6 7 10 15 10 10 0 15 -10 15 -31z
m-123 -11 c-3 -8 -6 -5 -6 6 -1 11 2 17 5 13 3 -3 4 -12 1 -19z m-949 -201 c2
-10 -3 -17 -12 -17 -10 0 -16 9 -16 21 0 24 23 21 28 -4z m-1058 -937 c0 -11
-4 -20 -10 -20 -5 0 -10 9 -10 20 0 11 5 20 10 20 6 0 10 -9 10 -20z m1610
-560 c0 -5 -4 -10 -10 -10 -5 0 -10 5 -10 10 0 6 5 10 10 10 6 0 10 -4 10 -10z
m-890 -890 c0 -5 -4 -10 -10 -10 -5 0 -10 5 -10 10 0 6 5 10 10 10 6 0 10 -4
10 -10z m-2870 -360 c0 -5 -7 -10 -15 -10 -8 0 -15 5 -15 10 0 6 7 10 15 10 8
0 15 -4 15 -10z m30 0 c0 -5 -4 -10 -10 -10 -5 0 -10 5 -10 10 0 6 5 10 10 10
6 0 10 -4 10 -10z m30 0 c0 -5 -4 -10 -10 -10 -5 0 -10 5 -10 10 0 6 5 10 10
10 6 0 10 -4 10 -10z m1890 -150 c15 0 12 -19 -4 -36 -18 -17 -53 -18 -59 -1
-4 9 -8 8 -16 -3 -9 -13 -11 -13 -11 3 0 9 7 17 15 17 11 0 15 12 15 50 0 28
-4 50 -10 50 -23 0 -7 21 20 27 17 3 31 11 32 17 1 6 3 -19 5 -56 2 -38 8 -68
13 -68z m-800 44 c0 -39 4 -64 11 -64 6 0 3 -7 -5 -16 -19 -19 -71 -24 -70 -6
1 6 2 43 3 80 l1 69 30 1 30 1 0 -65z m710 41 c0 -8 -4 -15 -10 -15 -5 0 -10
7 -10 15 0 8 5 15 10 15 6 0 10 -7 10 -15z m-1360 -100 c0 -8 -9 -15 -20 -15
-17 0 -19 2 -8 15 17 19 28 19 28 0z m1490 0 c0 -8 -4 -15 -10 -15 -5 0 -10 7
-10 15 0 8 5 15 10 15 6 0 10 -7 10 -15z"/>
<path d="M1 3903 l-1 -1963 50 0 c36 0 52 -4 56 -15 4 -8 12 -15 20 -15 8 0
14 -6 14 -13 0 -7 13 -24 30 -37 16 -14 29 -31 30 -38 0 -7 7 -15 15 -18 8 -3
20 -23 26 -44 7 -22 22 -43 35 -51 13 -7 24 -18 24 -25 0 -7 29 -42 65 -78 36
-36 65 -68 65 -72 0 -4 22 -29 50 -55 28 -26 50 -52 50 -58 0 -5 25 -34 55
-64 30 -30 55 -57 55 -61 0 -4 56 -63 124 -130 68 -68 127 -132 130 -143 4
-11 18 -26 31 -33 14 -7 25 -16 25 -19 0 -11 58 -71 69 -71 6 0 33 -22 60 -50
28 -27 55 -50 61 -50 5 0 10 -4 10 -10 0 -11 114 -130 125 -130 10 0 75 -66
75 -77 0 -12 46 -53 59 -53 6 0 11 -4 11 -9 0 -5 13 -14 29 -21 16 -6 32 -18
35 -26 3 -8 12 -14 21 -14 8 0 15 -4 15 -10 0 -5 11 -10 25 -10 14 0 25 -5 25
-11 0 -12 113 -129 124 -129 3 0 28 -21 56 -47 68 -65 73 -69 100 -78 13 -4
33 -16 44 -26 11 -11 26 -19 33 -19 7 0 15 -11 19 -25 3 -14 10 -25 15 -25 5
0 9 -9 9 -20 0 -11 -4 -20 -10 -20 -5 0 -10 -9 -10 -20 0 -20 7 -20 1845 -20
1635 0 1844 2 1839 15 -4 9 -19 15 -37 15 -44 0 -147 22 -147 32 0 4 -6 8 -13
8 -6 0 -18 13 -25 29 -11 25 -22 32 -68 41 -30 6 -54 15 -54 19 0 5 -31 12
-70 15 -39 4 -70 11 -70 16 0 5 -13 11 -30 15 -16 4 -30 10 -30 15 0 4 -9 10
-20 13 -15 4 -20 0 -20 -14 0 -10 -6 -19 -14 -19 -8 0 -18 -14 -21 -32 -9 -39
-22 -52 -58 -62 -15 -3 -27 -12 -27 -19 0 -13 -47 -53 -61 -51 -5 1 -20 2 -34
3 -21 1 -25 6 -25 30 0 16 5 31 12 33 8 3 4 12 -10 26 -12 12 -22 33 -22 47 0
18 -5 25 -19 25 -11 0 -22 -6 -24 -12 -4 -10 -8 -9 -16 2 -7 10 -11 11 -11 3
0 -7 -7 -13 -15 -13 -16 0 -19 20 -9 58 9 31 24 28 25 -5 0 -16 3 -22 6 -15 6
16 30 16 37 0 5 -10 7 -10 12 -1 3 7 21 15 39 19 19 3 36 12 39 19 3 9 0 12
-10 8 -7 -3 -14 0 -14 6 0 6 17 11 40 11 37 0 40 2 41 28 l1 27 8 -30 c7 -26
8 -24 7 15 -2 37 -5 44 -19 42 -13 -2 -18 4 -18 19 0 21 -2 22 -92 17 -54 -4
-94 -10 -96 -17 -5 -15 -39 -14 -45 2 -4 10 -6 10 -6 0 -1 -16 -28 -17 -33 -2
-2 6 -13 12 -23 13 -11 2 -28 6 -38 10 -10 5 -23 3 -32 -4 -8 -6 -23 -9 -35
-5 -16 5 -20 2 -21 -17 -1 -16 -3 -13 -9 12 -5 19 -13 36 -19 38 -6 2 -11 11
-12 20 0 11 -2 12 -6 5 -8 -20 -20 -15 -27 11 -4 15 -16 26 -33 31 -16 3 -40
19 -54 35 -21 22 -38 30 -80 34 -30 4 -55 11 -57 16 -2 6 -12 10 -23 10 -10 0
-19 6 -19 14 0 14 -42 26 -91 26 -16 0 -29 5 -29 12 0 13 -47 58 -61 58 -4 0
-10 13 -14 30 -4 16 -13 30 -21 30 -8 0 -14 5 -14 10 0 13 -37 50 -50 50 -5 0
-13 6 -17 13 -10 16 -58 37 -83 37 -11 0 -20 4 -20 9 0 5 -12 12 -27 16 -15 3
-31 12 -35 18 -4 6 -25 11 -47 10 -35 -2 -41 1 -41 18 0 11 -7 19 -16 19 -19
0 -54 37 -54 57 0 7 -4 13 -10 13 -5 0 -10 7 -10 15 0 8 -9 15 -19 15 -12 0
-21 9 -25 25 -6 24 -53 45 -103 45 -13 0 -23 5 -23 10 0 6 -7 10 -15 10 -8 0
-15 6 -15 13 0 20 -34 44 -73 51 -20 4 -42 13 -50 20 -7 7 -23 17 -35 20 -12
4 -22 12 -22 17 0 14 -26 39 -39 39 -6 0 -11 5 -11 11 0 18 -48 58 -78 65 -15
4 -37 17 -49 30 -12 13 -33 26 -47 30 -14 3 -26 12 -26 19 0 7 -11 16 -25 19
-13 3 -38 20 -55 36 -17 17 -37 30 -45 30 -8 0 -15 9 -15 20 0 11 -7 20 -15
20 -8 0 -15 5 -15 10 0 6 -13 10 -29 10 -25 0 -31 5 -36 30 -4 16 -11 30 -16
30 -5 0 -9 7 -9 15 0 8 -6 15 -13 15 -14 0 -39 21 -69 59 -10 11 -29 21 -43
21 -14 0 -38 13 -55 30 -18 17 -45 33 -61 37 -20 4 -29 12 -29 24 0 22 -7 30
-101 128 -37 39 -73 71 -79 71 -5 0 -10 7 -10 15 0 9 -7 18 -15 21 -8 4 -15
12 -15 19 0 22 -46 63 -78 70 -18 3 -32 13 -32 20 0 7 -7 15 -15 19 -8 3 -15
12 -15 21 0 8 -4 15 -10 15 -5 0 -10 7 -10 15 0 8 -4 15 -10 15 -5 0 -10 7
-10 15 0 8 -4 15 -10 15 -5 0 -10 5 -10 11 0 6 -31 42 -70 80 -38 38 -70 74
-70 80 0 14 -50 59 -67 59 -7 0 -18 12 -23 26 -6 14 -24 38 -40 52 -17 15 -30
30 -30 34 0 5 -9 17 -20 28 -11 11 -20 27 -20 35 0 8 -4 15 -10 15 -5 0 -10 5
-10 11 0 6 -22 32 -49 58 -27 25 -52 56 -55 68 -4 11 -13 24 -21 27 -8 3 -15
10 -15 16 0 6 -11 21 -25 34 -14 13 -25 28 -25 34 0 6 -9 16 -20 22 -11 6 -20
17 -20 25 0 9 -9 23 -20 32 -11 10 -20 21 -20 26 0 4 -5 13 -10 20 -41 48 -50
62 -50 74 0 7 -7 16 -15 19 -8 4 -15 12 -15 19 0 6 -9 22 -20 35 -11 13 -20
29 -20 37 0 7 -4 13 -10 13 -5 0 -10 7 -10 15 0 8 -11 25 -25 37 -14 12 -25
26 -25 31 0 5 -11 20 -25 33 -13 12 -27 34 -30 47 -4 14 -13 28 -21 31 -8 3
-14 12 -14 21 0 8 -4 15 -9 15 -5 0 -14 14 -20 30 -5 17 -15 30 -20 30 -6 0
-11 7 -11 15 0 9 -6 18 -14 21 -8 3 -18 19 -21 35 -4 16 -10 29 -14 29 -4 0
-13 16 -21 35 -8 19 -17 35 -21 35 -4 0 -10 14 -14 30 -4 17 -10 30 -15 30 -5
0 -11 13 -15 29 -3 16 -13 32 -21 35 -8 3 -14 17 -14 31 0 14 -4 25 -8 25 -5
0 -14 16 -22 35 -8 19 -17 35 -22 35 -4 0 -8 7 -8 15 0 9 -6 18 -14 21 -8 3
-18 19 -21 35 -4 16 -10 29 -15 29 -5 0 -11 14 -15 30 -4 17 -10 30 -14 30 -4
0 -14 18 -21 40 -7 22 -17 40 -21 40 -5 0 -11 17 -15 37 -4 21 -13 44 -21 51
-7 7 -13 20 -13 28 0 8 -4 14 -9 14 -4 0 -14 20 -21 45 -7 25 -16 45 -21 45
-4 0 -11 16 -15 35 -3 19 -10 35 -14 35 -5 0 -11 14 -15 30 -4 17 -10 30 -15
30 -4 0 -11 19 -15 42 -4 23 -13 47 -20 54 -7 7 -15 31 -19 53 -3 23 -10 41
-15 41 -5 0 -12 16 -15 35 -4 19 -11 35 -16 35 -5 0 -12 16 -16 35 -3 19 -10
35 -14 35 -4 0 -11 16 -14 35 -4 19 -10 35 -14 35 -4 0 -14 32 -21 72 -7 39
-19 78 -27 86 -8 7 -14 24 -14 38 0 13 -4 24 -9 24 -5 0 -12 18 -16 40 -4 22
-10 40 -14 40 -4 0 -13 29 -20 65 -7 36 -17 65 -21 65 -5 0 -11 23 -15 50 -4
28 -10 50 -15 50 -4 0 -11 25 -15 55 -3 30 -10 55 -15 55 -5 0 -12 25 -15 55
-4 30 -11 55 -16 55 -5 0 -9 12 -10 28 0 15 -4 36 -9 47 -5 11 -9 -839 -9
-1942z m3713 -3499 c26 -10 18 -31 -14 -36 -23 -4 -30 -1 -30 12 0 28 14 36
44 24z m63 -26 c-3 -8 -6 -5 -6 6 -1 11 2 17 5 13 3 -3 4 -12 1 -19z m53 -59
c0 -5 -4 -9 -10 -9 -5 0 -10 -6 -10 -14 0 -20 -7 -23 -60 -30 -52 -8 -66 -1
-75 37 -7 26 -5 27 29 27 25 0 36 -4 36 -15 0 -8 7 -15 15 -15 8 0 15 6 15 14
0 15 26 25 48 18 6 -2 12 -8 12 -13z m1057 -11 c-3 -8 -6 -5 -6 6 -1 11 2 17
5 13 3 -3 4 -12 1 -19z m-1517 -88 c0 -5 -11 -10 -25 -10 -14 0 -25 5 -25 10
0 6 11 10 25 10 14 0 25 -4 25 -10z m1227 -42 c-3 -8 -6 -5 -6 6 -1 11 2 17 5
13 3 -3 4 -12 1 -19z m-1287 -124 c0 -9 -5 -14 -12 -12 -18 6 -21 28 -4 28 9
0 16 -7 16 -16z"/>
<path d="M12042 3554 c-7 -8 -8 -14 -3 -14 10 0 25 19 20 25 -2 1 -10 -3 -17
-11z"/>
<path d="M11620 3040 c0 -5 7 -10 15 -10 8 0 15 5 15 10 0 6 -7 10 -15 10 -8
0 -15 -4 -15 -10z"/>
<path d="M13668 2623 c7 -3 16 -2 19 1 4 3 -2 6 -13 5 -11 0 -14 -3 -6 -6z"/>
<path d="M13338 2233 c7 -3 16 -2 19 1 4 3 -2 6 -13 5 -11 0 -14 -3 -6 -6z"/>
<path d="M15338 111 c-10 -10 -18 -23 -18 -29 0 -7 -7 -12 -15 -12 -8 0 -15
-6 -15 -14 0 -8 -13 -17 -30 -21 -16 -4 -30 -13 -30 -21 0 -11 16 -14 65 -14
l65 0 0 65 c0 36 -1 65 -2 64 -2 0 -11 -8 -20 -18z"/>
<path d="M5763 36 c-29 -5 -54 -15 -57 -23 -4 -10 28 -13 165 -13 157 0 170 1
167 18 -2 10 -14 18 -28 20 -79 8 -202 7 -247 -2z"/>
<path d="M13910 15 c0 -8 4 -15 10 -15 5 0 7 7 4 15 -8 19 -14 19 -14 0z"/>
<path d="M14563 3 c20 -2 54 -2 75 0 20 2 3 4 -38 4 -41 0 -58 -2 -37 -4z"/>
</g>
</svg>
